<svg version="1.1" xmlns="http://www.w3.org/2000/svg" xmlns:xlink="http://www.w3.org/1999/xlink" width="1260" height="594" viewBox="0,0,1260,594"><g transform="translate(224.40741,-63.33482) scale(0.70248,0.70248)"><g id="wick_project_bg" fill-opacity="0" fill="#ffffff" fill-rule="nonzero" stroke="none" stroke-width="1" stroke-linecap="butt" stroke-linejoin="miter" stroke-miterlimit="10" stroke-dasharray="" stroke-dashoffset="0" font-family="none" font-weight="none" font-size="none" text-anchor="none" style="mix-blend-mode: normal"><rect x="0" y="0" width="720" height="480"/></g><g data-paper-data="{&quot;wickUUID&quot;:&quot;33d7d77c-2b05-4d9f-9bf7-a61c65e83dd2&quot;,&quot;wickType&quot;:&quot;clipsandpaths&quot;}" fill="none" fill-rule="none" stroke="none" stroke-width="1" stroke-linecap="butt" stroke-linejoin="miter" stroke-miterlimit="10" stroke-dasharray="" stroke-dashoffset="0" font-family="none" font-weight="none" font-size="none" text-anchor="none" style="mix-blend-mode: normal"><path d="M601.33337,-32.97773c-1.105,2.06267 -2.81207,5.5685 -3.7824,7.7685c-0.97,2.2 -7.68743,15.77975 -14.92243,30.16675c-16.04333,31.903 -19.07069,38.32858 -26.65402,56.55258c-7.93067,19.05867 -15.04681,37.99048 -36.22314,96.37015c-10.27933,28.33867 -15.6279,41.72988 -18.7579,46.96655l-0.85176,2.54213l4.70829,2.62908c15.79,8.75367 20.27797,13.63579 29.53797,32.37179c10.252,20.74333 12.5489,29.13915 14.65423,53.26315c0.67233,7.705 0.75296,22.15342 0.16329,27.77375c-0.75367,7.18133 -3.98054,26.03949 -5.25621,30.72282c-0.30833,1.131 1.67884,1.78123 2.89051,0.40556c1.218,-1.38267 3.14337,-2.5855 4.6237,-2.85583c0.56467,-0.103 1.6085,0.0488 2.7855,0.29247l2.47463,0.42067l9.77109,-3.69946c11.12767,-4.21733 11.46224,-4.47724 12.69057,-5.93124c2.07267,-2.45267 3.2893,-6.34883 5.1313,-17.07016c2.08033,-12.108 4.68023,-23.12929 7.6559,-32.43296c9.08567,-28.40967 12.50801,-54.01667 13.36768,-100.01834c0.46267,-24.75667 0.52411,-25.53853 5.50211,-70.36786c3.663,-32.98367 4.00666,-38.67062 4.00566,-66.19995c-0.00067,-17.35567 -0.22415,-24.50258 -1.01782,-32.61358c-1.32533,-13.54633 -8.04737,-60.57248 -8.65837,-60.57248c-0.133,0 -2.73371,1.45358 -3.83838,3.51591z" data-paper-data="{&quot;wickUUID&quot;:&quot;9e1f2fad-e25a-458d-9476-e006ce040726&quot;,&quot;wickType&quot;:&quot;path&quot;,&quot;originalStyle&quot;:{&quot;strokeColor&quot;:null,&quot;fillColor&quot;:[&quot;Color&quot;,1,0,0.50196],&quot;strokeWidth&quot;:1}}" fill="#ff0080" fill-rule="evenodd"/><path d="M364.62485,32.52189c-5.836,15.22167 -8.69343,25.76023 -33.28343,122.7589c-8.02633,31.66067 -13.03395,51.12916 -13.72428,53.35316c-0.132,0.42567 1.83665,0.90175 3.17798,-0.28125c10.57733,-9.329 19.3815,-15.57021 25.53417,-18.00354c7.57267,-2.99467 29.27256,-5.96845 60.67056,-8.33345c6.20133,-0.46733 11.49075,-0.92541 11.96942,-1.02308c2.587,-0.52867 27.29158,2.9247 33.22325,4.64503c2.76933,0.803 9.94794,3.70233 16.32294,6.578c1.83333,0.827 3.74658,1.5187 3.80558,1.46337c0.059,-0.05533 0.38748,-2.02185 -0.11519,-2.81852c-2.31667,-3.669 -6.82176,-11.53134 -13.63609,-23.79634c-19.619,-35.31333 -27.01962,-47.56917 -52.84429,-87.51784c-16.24033,-25.12233 -35.99209,-54.36969 -36.74409,-54.41502c-0.09367,-0.00567 -2.86286,3.49491 -4.35653,7.39058z" data-paper-data="{&quot;wickUUID&quot;:&quot;a5cb24ab-ab44-4c43-b7f7-406f9000e32b&quot;,&quot;wickType&quot;:&quot;path&quot;,&quot;originalStyle&quot;:{&quot;strokeColor&quot;:null,&quot;fillColor&quot;:[&quot;Color&quot;,1,0,0.50196],&quot;strokeWidth&quot;:1}}" fill="#ff0080" fill-rule="evenodd"/><path d="M438.84496,383.83008c-1.1,0.144 -4.68013,0.73661 -7.7698,1.30261c-3.08967,0.566 -6.14091,1.11245 -6.47458,1.11245c-0.547,0 -1.04731,0.94649 -0.88998,3.12516c0.19067,2.63367 -0.71039,23.11661 -1.24139,28.22261c-0.44567,4.28433 -1.22152,7.80958 -2.00685,9.16925c-0.35733,0.619 0.40658,2.23035 0.49591,2.31968c0.08933,0.08933 4.14617,-1.21601 8.87684,-2.86501c4.73033,-1.649 10.34779,-3.56827 12.47946,-4.26427l4.14153,-1.4123l0.42834,-2.41418c0.17933,-2.23167 1.11908,-4.40603 2.69408,-6.21136c2.543,-2.91433 3.41725,-6.88086 3.42925,-15.38386c0.00967,-6.91967 -0.61838,-9.01007 -2.75771,-10.94307c-1.96067,-1.77133 -5.9441,-2.47338 -11.4051,-1.75771z" data-paper-data="{&quot;wickUUID&quot;:&quot;5e532a80-2773-451c-a8fa-355652fc3aa5&quot;,&quot;wickType&quot;:&quot;path&quot;,&quot;originalStyle&quot;:{&quot;strokeColor&quot;:null,&quot;fillColor&quot;:[&quot;Color&quot;,1,1,1],&quot;strokeWidth&quot;:1}}" fill="#ffffff" fill-rule="evenodd"/><path d="M271.49919,360.35275c0,1.122 4.51345,13.94859 6.06578,17.23926c2.91667,6.184 5.61388,9.83224 11.97521,16.19957c9.183,9.19133 16.45914,15.25473 23.03514,19.22073c9.10333,5.49 27.51247,13.55458 42.61447,18.66358c11.81667,3.99767 21.03323,6.21014 28.4489,6.85414c6.83767,0.59367 9.71178,0.04776 24.33645,-4.79591l9.4291,-3.12317l-1.6793,-1.6571c-3.088,-0.34133 -4.44926,-1.42896 -5.45259,-5.08663c-1.04,-3.79167 -0.59049,-21.70575 0.77684,-31.28642c0.28367,-1.988 0.30905,-4.18479 0.24972,-4.24212c-0.05933,-0.05733 -2.12718,-0.33034 -3.68551,-0.17434c-8.65133,0.86567 -22.52409,1.7388 -34.58009,2.17647l-6.17557,0.23118l-0.70688,1.68834c0,0.44667 0.23704,5.33459 0.52737,10.87092c0.29033,5.53667 0.47779,12.26084 0.41646,15.01084c-0.106,4.776 0.01233,4.59183 -0.878,6.10616c-1.32667,2.257 -2.47262,3.41974 -5.21262,3.42407c-4.70333,0.007 -5.92787,-2.64526 -6.83087,-14.19693c-0.481,-6.15233 -0.98598,-16.69749 -0.98865,-20.38549l-0.13495,-3.46156l-2.56045,-0.58134c-6.063,-0.65067 -26.87785,-6.95217 -40.56852,-12.28217l-6.26153,-2.01198l-0.51563,6.99251c-0.138,5.017 -0.1472,6.15807 -0.57687,6.94607c-1.30367,2.391 -3.60196,3.92174 -6.29829,3.93707c-2.90033,0.01667 -4.02974,-1.34435 -5.34641,-5.95102c-0.79533,-2.78333 -0.95827,-12.29648 -0.2726,-14.97248c0.3,-1.17167 0.23797,-2.79291 0.18897,-2.83658c-0.04933,-0.04367 -2.97429,-1.56451 -6.27429,-3.21851c-3.3,-1.65367 -7.31457,-3.83651 -8.9189,-4.84918c-1.89733,-1.198 -4.14589,-0.75865 -4.14589,-0.44798z" data-paper-data="{&quot;wickUUID&quot;:&quot;754ee247-4aaa-4638-932b-4cb412ac5732&quot;,&quot;wickType&quot;:&quot;path&quot;,&quot;originalStyle&quot;:{&quot;strokeColor&quot;:null,&quot;fillColor&quot;:[&quot;Color&quot;,1,1,1],&quot;strokeWidth&quot;:1}}" fill="#ffffff" fill-rule="evenodd"/><path d="M411.58422,181.14178c3.178,-0.22 6.357,-0.491 7.063,-0.602c3.288,-0.518 26.493,2.589 33.384,4.47c9.022,2.462 48.851,21.47 60.221,28.739c10.54,6.739 14.955,12.472 23.93,31.076c8.664,17.959 10.895,25.725 12.766,44.44c2.406,24.062 1.728,35.035 -3.816,61.827c-11.07,53.496 -16.658,58.625 -86.675,79.569c-19.165,5.732 -38.836,12.478 -60.382,20.705c-1.47639,0.5639 -3.01695,1.08513 -4.40166,1.50143c-9.56775,-0.46168 -23.43678,-3.70158 -35.34384,-8.4878c-6.558,-2.637 -13.299,-4.519 -14.979,-4.184c-0.68443,0.13685 -1.29912,0.38172 -1.83692,0.71453c-14.23709,-5.65177 -32.80434,-14.38001 -39.72858,-18.95616c-11.391,-7.527 -29.578,-25.703 -34.926,-34.905c-4.545,-7.82 -15.821,-46.35 -15.769,-53.883c0.018,-2.501 0.626,-7.125 1.352,-10.276c0.726,-3.15 1.434,-11.873 1.574,-19.384c0.242,-13.013 0.481,-14.104 5.086,-23.166c2.658,-5.231 9.552,-15.771 15.321,-23.422c14.425,-19.135 46.246,-51.077 60.163,-60.392c10.188,-6.819 11.926,-7.513 24.4,-9.745c11.54,-2.064 30.807,-4.129 52.598,-5.639zM402.59522,195.17478c-2.472,0.277 -10.852,1.147 -18.621,1.934c-27.729,2.809 -31.684,4.014 -45.461,13.85c-21.457,15.32 -56.89,55.422 -66.515,75.281c-3.969,8.189 -4.332,9.903 -4.073,19.263c0.156,5.65 -0.485,14.607 -1.424,19.905l-1.707,9.631l5.907,20.818c6.855,24.163 9.829,29.392 24.137,42.434c11.951,10.894 15.509,13.418 26.726,18.962c21.771,10.759 48.007,19.647 61.126,20.706c9.784,0.789 10.108,0.703 50.083,-13.345c9.889,-3.475 24.59,-8.192 32.669,-10.484c22.518,-6.385 40.359,-13.841 46.901,-19.6c10.53,-9.268 11.996,-13.016 19.352,-49.477c4.792,-23.756 5.379,-34.15 3.137,-55.603c-1.672,-16.002 -3.891,-23.396 -12.182,-40.59c-5.365,-11.127 -8.238,-15.463 -13.062,-19.715c-7.095,-6.254 -50.734,-28.152 -62.814,-31.52c-7.355,-2.051 -34.373,-3.549 -44.179,-2.45z" data-paper-data="{&quot;wickUUID&quot;:&quot;d51baf52-2a78-4268-87b9-5caa003836fe&quot;,&quot;wickType&quot;:&quot;path&quot;,&quot;originalStyle&quot;:{&quot;strokeColor&quot;:null,&quot;fillColor&quot;:[&quot;Color&quot;,0,0,0],&quot;strokeWidth&quot;:1}}" fill="#000000" fill-rule="nonzero"/><path d="M432.03283,313.75099c-3.585,3.585 -3.753,4.263 -3.739,15.089c0.017,12.557 1.734,20.454 6.998,32.184c4.841,10.785 8.348,13.929 13.824,12.393c7.362,-2.065 9.268,-8.055 9.763,-30.673c0.405,-18.468 0.297,-19.448 -2.607,-23.758c-2.164,-3.209 -4.855,-5.108 -9.412,-6.639c-8.945,-3.006 -10.571,-2.852 -14.827,1.404z" data-paper-data="{&quot;wickUUID&quot;:&quot;727dc496-18e4-48d2-b717-131ea8109b1f&quot;,&quot;wickType&quot;:&quot;path&quot;,&quot;originalStyle&quot;:{&quot;strokeColor&quot;:null,&quot;fillColor&quot;:[&quot;Color&quot;,0,0,0],&quot;strokeWidth&quot;:1}}" fill="#000000" fill-rule="evenodd"/><path d="M270.32182,348.52339c-5.776,5.776 -1.756,10.136 18.178,19.717c16.818,8.083 43.991,17.753 58.048,20.656c5.339,1.103 14.554,2.005 20.478,2.005c18.885,0 51.203,-2.657 64.355,-5.29c19.346,-3.874 22.493,-1.438 21.024,16.275c-0.402,4.85 -1.44,7.928 -3.364,9.976c-3.056,3.253 -3.652,8.478 -1.242,10.887c2.682,2.682 8.625,1.79 11.945,-1.793c5.433,-5.862 7.451,-13.351 6.823,-25.318c-0.725,-13.808 -3.158,-18.262 -12.625,-23.114c-7.823,-4.009 -11.737,-4.085 -25.021,-0.481c-8.967,2.433 -38.124,4.701 -60.664,4.719c-12.076,0.01 -18.026,-0.619 -25.684,-2.717c-15.808,-4.331 -41.988,-14.636 -54.996,-21.648c-6.573,-3.544 -12.566,-6.443 -13.319,-6.443c-0.752,0 -2.523,1.156 -3.936,2.569z" data-paper-data="{&quot;wickUUID&quot;:&quot;1d8a62a5-c0b4-4476-b103-bb9b3cf2ab60&quot;,&quot;wickType&quot;:&quot;path&quot;,&quot;originalStyle&quot;:{&quot;strokeColor&quot;:null,&quot;fillColor&quot;:[&quot;Color&quot;,0,0,0],&quot;strokeWidth&quot;:1}}" fill="#000000" fill-rule="evenodd"/><path d="M413.46383,383.71319c-2.624,1.919 -4.13,13.134 -4.346,32.352c-0.11,9.8 1.806,13.362 7.184,13.362c5.435,0 6.492,-3.394 7.449,-23.925c0.9,-19.325 0.889,-19.442 -2.064,-21.51c-3.636,-2.547 -5.055,-2.595 -8.223,-0.279z" data-paper-data="{&quot;wickUUID&quot;:&quot;9aeaedab-a479-4066-936a-0291f92e63be&quot;,&quot;wickType&quot;:&quot;path&quot;,&quot;originalStyle&quot;:{&quot;strokeColor&quot;:null,&quot;fillColor&quot;:[&quot;Color&quot;,0,0,0],&quot;strokeWidth&quot;:1}}" fill="#000000" fill-rule="evenodd"/><path d="M404.81668,194.48283c-5.79,0.47467 -29.54949,2.98505 -34.89516,3.68872c-6.30467,0.82933 -12.64832,2.19134 -15.80699,3.32601c-9.90633,3.559 -22.49142,13.02102 -38.24242,28.73969c-20.21233,20.17067 -37.48983,41.99245 -44.44883,56.13912c-3.54333,7.20333 -3.84033,8.40724 -4.04666,20.03257c-0.17867,10.07667 -0.60361,14.79724 -2.03661,22.67191c-0.46733,2.56667 -0.84658,5.27089 -0.84125,5.82089c0.005,0.55 0.89676,4.19369 1.94976,7.91569l1.96651,6.90892l2.09819,-0.57014c1.33433,-1.44967 2.67164,-2.66093 3.50964,-2.66093c0.807,0 2.87034,1.00596 15.00334,7.18763c19.40833,9.88867 48.66562,20.57408 62.16195,22.71275c5.308,0.841 31.99291,0.85173 44.52524,0.00606c18.71133,-1.26233 27.06916,-2.29469 35.40516,-4.37936c2.475,-0.619 5.41832,-1.30853 6.45499,-1.5162l2.52498,-1.01552l-1.34319,-2.74836c-1.96667,-3.36567 -4.83686,-9.91825 -6.44719,-14.75825c-2.76367,-8.30767 -3.59284,-14.5992 -3.39917,-25.87687c0.148,-8.626 0.15617,-8.69305 3.57784,-12.06438c3.01,-2.96567 3.89396,-3.33954 6.83696,-3.09287c2.88533,0.242 9.28471,2.34912 11.85971,3.91312c3.73367,2.268 6.26603,5.88669 7.0047,10.11536c0.46867,2.683 0.21905,23.43859 -0.35528,29.94026c-0.71067,8.045 -1.83449,12.26714 -3.99516,15.12214c-1.18167,1.561 -1.02834,2.53111 -0.43767,2.71878c1.375,0.43633 6.4644,3.98861 7.66907,5.38461c2.80267,3.24833 4.06972,7.12904 4.77705,14.60337c0.68533,7.23933 -0.02172,16.12501 -1.56105,19.81034c-0.26067,0.62367 0.61962,2.08761 0.68029,2.14828c0.16533,0.16533 11.44891,-3.28933 17.15558,-5.253c7.90333,-2.71933 14.00928,-5.20102 19.76528,-8.02802c6.80433,-3.342 9.12849,-4.91062 13.17816,-8.82195c4.88167,-4.715 7.21499,-8.32893 9.33799,-14.35993c3.12567,-8.88 9.67981,-40.2732 11.50914,-55.1312c0.65467,-5.31767 0.54647,-23.01089 -0.18186,-30.26356c-1.95,-19.41633 -4.34449,-27.49102 -13.66982,-46.24502c-6.94267,-13.963 -10.05527,-17.43095 -21.94227,-24.17928c-1.961,-1.11333 -4.04935,-2.19064 -4.35635,-2.19164c-1.538,-0.005 -3.28071,-0.83267 -4.68138,-2.225c-1.24333,-1.23567 -3.7049,-2.58816 -13.55523,-7.45583c-16.84467,-8.32467 -27.40287,-12.83137 -32.3412,-13.83704c-7.78567,-1.58567 -31.92579,-2.92387 -40.36679,-2.23187zM332.09898,308.63497c2.205,1.125 3.78779,3.74097 5.21012,8.64864c2.27933,7.86567 4.36045,28.1861 3.54178,34.6141c-0.58833,4.619 -1.14992,6.17376 -4.57692,7.79676c-5.471,2.59067 -9.88559,-1.10796 -13.01959,-10.67563c-1.11167,-3.39433 -1.52408,-5.75487 -2.41541,-12.1852c-0.87467,-6.31 -1.40509,-8.81087 -2.53942,-12.4062c-1.56067,-4.94833 -0.87709,-7.39231 3.24624,-11.52831c2.08433,-2.091 4.4783,-3.72674 6.25397,-4.36074c1.60633,-0.57333 2.88356,-0.62575 4.29923,0.09658z" data-paper-data="{&quot;wickUUID&quot;:&quot;3a462a9b-1890-4ded-9895-f900201ae567&quot;,&quot;wickType&quot;:&quot;path&quot;,&quot;originalStyle&quot;:{&quot;strokeColor&quot;:null,&quot;fillColor&quot;:[&quot;Color&quot;,1,1,1],&quot;strokeWidth&quot;:1}}" fill="#ffffff" fill-rule="evenodd"/><path d="M354.93203,383.34399c-2.61,2.61 -2.681,3.456 -1.798,21.511c0.98,20.037 2.058,23.288 7.724,23.288c1.547,0 3.826,-1.119 5.064,-2.488c2.03,-2.242 2.16,-4.397 1.317,-21.875c-0.851,-17.643 -1.177,-19.556 -3.622,-21.27c-3.639,-2.548 -5.48,-2.372 -8.685,0.834z" data-paper-data="{&quot;wickUUID&quot;:&quot;f175f004-9f65-4792-8ad6-4974b6b189d2&quot;,&quot;wickType&quot;:&quot;path&quot;,&quot;originalStyle&quot;:{&quot;strokeColor&quot;:null,&quot;fillColor&quot;:[&quot;Color&quot;,0,0,0],&quot;strokeWidth&quot;:1}}" fill="#000000" fill-rule="evenodd"/><path d="M292.15322,367.78559c-1.991,1.992 -2.568,4.281 -2.568,10.19c0,13.066 4.095,18.155 10.979,13.645c2.902,-1.902 3.147,-2.856 3.147,-12.234c0,-9.054 -0.313,-10.39 -2.854,-12.17c-3.772,-2.642 -5.613,-2.522 -8.704,0.569z" data-paper-data="{&quot;wickUUID&quot;:&quot;e8d36666-7d79-45b6-93df-cb44f0e811ca&quot;,&quot;wickType&quot;:&quot;path&quot;,&quot;originalStyle&quot;:{&quot;strokeColor&quot;:null,&quot;fillColor&quot;:[&quot;Color&quot;,0,0,0],&quot;strokeWidth&quot;:1}}" fill="#000000" fill-rule="evenodd"/><path d="M322.36542,311.42459c-5.351,4.698 -6.51,8.174 -4.462,13.391c0.82,2.091 1.98,7.989 2.576,13.106c1.994,17.105 8.464,26.181 15.848,22.229c5.191,-2.778 5.947,-6.356 4.689,-22.203c-2.241,-28.248 -7.755,-36.09 -18.651,-26.523z" data-paper-data="{&quot;wickUUID&quot;:&quot;b051d315-91be-412e-bca8-e0883ce91c82&quot;,&quot;wickType&quot;:&quot;path&quot;,&quot;originalStyle&quot;:{&quot;strokeColor&quot;:null,&quot;fillColor&quot;:[&quot;Color&quot;,0,0,0],&quot;strokeWidth&quot;:1}}" fill="#000000" fill-rule="evenodd"/><path d="M361.66862,0.33637c-1.32,1.32 -3.129,5.51 -4.02,9.31c-0.891,3.801 -3.797,12.69 -6.459,19.753c-2.661,7.063 -7.77,24.111 -11.352,37.884c-6.226,23.934 -39.509,154.317 -40.864,160.078c-0.705,2.998 3.419,8.152 6.522,8.152c5.864,0 6.748,-2.651 25.254,-75.768c24.335,-96.143 28.666,-112.301 33.385,-124.536l4.038,-10.473l5.634,7.742c9.903,13.61 51.908,78.476 62.872,97.089c5.824,9.888 16.954,29.536 24.733,43.662c8.591,15.602 16.563,28.35 20.307,32.475c3.39,3.736 6.848,8.419 7.684,10.409c1.697,4.035 4.983,5.412 9.196,3.854c7.056,-2.611 4.205,-13.462 -6.239,-23.75c-3.461,-3.408 -6.292,-6.58 -6.292,-7.05c0,-1.051 -25.41,-46.503 -37.334,-66.779c-10.298,-17.511 -51.589,-81.096 -64.363,-99.114c-4.892,-6.9 -9.504,-14.412 -10.248,-16.694c-1.47,-4.506 -5.429,-8.644 -8.27,-8.644c-0.981,0 -2.864,1.08 -4.184,2.4z" data-paper-data="{&quot;wickUUID&quot;:&quot;693c0200-1573-4e01-aea1-158612e820c0&quot;,&quot;wickType&quot;:&quot;path&quot;,&quot;originalStyle&quot;:{&quot;strokeColor&quot;:null,&quot;fillColor&quot;:[&quot;Color&quot;,0,0,0],&quot;strokeWidth&quot;:1}}" fill="#000000" fill-rule="evenodd"/><path d="M602.73203,-65.10903c-3.448,2.712 -7.194,9.839 -15.207,28.929c-2.945,7.016 -12.433,26.665 -21.085,43.663c-20.976,41.209 -25.16,51.418 -56.621,138.136c-7.303,20.13 -15.359,41.449 -17.902,47.376c-4.973,11.593 -4.975,14.833 -0.012,17.095c7.43,3.385 10.389,-2.216 30.229,-57.206c30.284,-83.94 39.019,-105.211 59.266,-144.336c6.46,-12.482 14.213,-28.174 17.229,-34.87c3.032,-6.733 5.775,-11.351 6.137,-10.332c0.36,1.014 2.694,16.384 5.188,34.156c4.059,28.929 4.534,35.237 4.534,60.23c0,16.419 -0.802,35.111 -1.948,45.381c-4.97,44.562 -5.721,51.384 -6.523,59.201c-0.472,4.591 -1.029,19.616 -1.239,33.389c-0.646,42.267 -4.535,70.726 -13.339,97.599c-3.216,9.819 -6.007,22.011 -8.377,36.6c-1.453,8.947 -3.558,13.336 -7.022,14.644c-1.809,0.683 -8.49,3.217 -14.846,5.631c-6.357,2.413 -14.334,4.802 -17.726,5.309c-7.321,1.092 -10.063,4.859 -7.55,10.374c1.271,2.789 2.289,3.21 7.758,3.21c6.586,0 23.877,-5.625 38.065,-12.382c6.711,-3.197 8.125,-4.53 10.958,-10.338c1.998,-4.095 4.129,-12.214 5.524,-21.049c1.25,-7.911 3.919,-19.358 5.933,-25.438c4.163,-12.571 9.52,-35.979 11.494,-50.223c2.005,-14.467 4.163,-52.925 3.288,-58.593c-0.709,-4.59 1.646,-35.424 4.45,-58.27c4.686,-38.168 5.447,-50.734 4.91,-81.113c-0.473,-26.79 -1.143,-35.198 -4.695,-58.864c-7.122,-47.455 -8.96,-57.005 -11.305,-58.753c-3.028,-2.257 -5.952,-1.999 -9.566,0.844z" data-paper-data="{&quot;wickUUID&quot;:&quot;ff94543e-b4a0-4880-9809-f54ade4738f9&quot;,&quot;wickType&quot;:&quot;path&quot;,&quot;originalStyle&quot;:{&quot;strokeColor&quot;:null,&quot;fillColor&quot;:[&quot;Color&quot;,0,0,0],&quot;strokeWidth&quot;:1}}" fill="#000000" fill-rule="evenodd"/><path d="M224.09101,349.65979c-28.104,7.629 -49.214,19.71 -74.042,42.373c-26.293,23.999 -42.655,45.572 -65.21,85.973c-11.516,20.63 -10.396,24.396 10.19,34.236c19.54,9.341 44.019,14.43 89.608,18.63c15.696,1.446 38.073,3.739 49.728,5.095c41.583,4.84 60.677,5.567 123.283,4.691c88.281,-1.236 113.282,-2.629 165.662,-9.235c47.485,-5.987 63.224,-10.099 88.609,-23.148c22.632,-11.633 46.232,-33.595 46.232,-43.023c0,-5.097 -6.346,-22.257 -11.824,-31.972c-11.184,-19.835 -35.993,-45.419 -61.883,-63.817c-25.667,-18.238 -32.505,-21.186 -37.178,-16.023c-4.281,4.731 -1.577,10.498 5.736,12.23c5.635,1.335 35.485,23.433 49.426,36.591c21.21,20.017 33.215,36.609 38.961,53.85c3.193,9.581 2.957,10.228 -7.085,19.406c-13.136,12.005 -22.213,18.192 -34.901,23.787c-25.156,11.094 -33.351,12.987 -83.207,19.223c-42.473,5.312 -69.247,6.827 -150.201,8.5c-64.802,1.339 -86.832,0.517 -135.483,-5.053c-12.36,-1.415 -32.587,-3.472 -44.947,-4.571c-39.496,-3.512 -69.488,-9.637 -84.637,-17.284c-4.201,-2.12 -7.97,-4.392 -8.375,-5.047c-0.993,-1.607 14.588,-28.53 27.347,-47.255c30.034,-44.078 68.81,-74.737 107.285,-84.829c8.619,-2.26 7.271,-2.336 32.552,1.825c5.844,0.961 10.875,-2.453 10.342,-7.019c-0.517,-4.421 -3.947,-6.016 -18.378,-8.546c-14.209,-2.491 -17.076,-2.448 -27.61,0.412z" data-paper-data="{&quot;wickUUID&quot;:&quot;3b55bfda-7e42-4037-b8ff-bc781aa56fd8&quot;,&quot;wickType&quot;:&quot;path&quot;,&quot;originalStyle&quot;:{&quot;strokeColor&quot;:null,&quot;fillColor&quot;:[&quot;Color&quot;,0,0,0],&quot;strokeWidth&quot;:1}}" fill="#000000" fill-rule="evenodd"/><path d="M232.4423,361.1742c-2.37133,0.39967 -10.03515,2.63571 -14.87382,4.29304c-31.948,10.943 -64.31364,36.55317 -90.71097,71.76617c-10.48967,13.99267 -25.50906,37.96026 -32.51606,51.93493l-2.65225,5.30885l1.19083,1.63426c1.33333,1.07967 7.40375,4.33697 11.01108,5.9363c15.71967,6.96967 43.82974,12.39772 82.64007,15.95705c12.50067,1.14667 33.79992,3.32128 44.09592,4.50195c50.76267,5.822 73.89118,6.52916 152.71885,4.67249c70.52433,-1.661 93.25781,-3.12826 139.76048,-9.01793c42.258,-5.35167 53.13354,-7.9609 76.19287,-18.2589c13.977,-6.24233 24.82167,-13.81898 38.17567,-26.72731c5.99667,-5.79633 6.91058,-8.10266 5.69091,-12.89066c-2.52133,-9.898 -9.47812,-23.30363 -17.46512,-33.61863c-6.64633,-8.58333 -20.43465,-22.9484 -29.13865,-30.34907c-12.41833,-10.559 -26.48788,-21.16622 -36.27955,-27.34722l-4.39442,-2.71125l-4.10809,0.9725c-2.32633,0.6 -5.03377,1.03984 -7.13844,1.16017l-3.63404,0.25296l-0.77526,1.75103c-4.28233,16.633 -9.73058,26.69761 -18.56158,33.91361c-10.04433,8.20767 -23.75773,13.87204 -59.63706,24.72837c-21.433,6.485 -39.13217,12.45815 -58.44417,19.72348c-10.50233,3.951 -9.92684,3.87957 -16.79784,2.87557c-9.07667,-1.32633 -17.06017,-3.53083 -28.50984,-7.84416c-3.36667,-1.26833 -7.88925,-2.76223 -10.01592,-3.31056c-3.49533,-0.90133 -4.09617,-0.97428 -5.5155,-0.61061c-1.51167,0.38733 -1.47659,0.41563 -4.78992,-0.95304c-14.08833,-5.819 -30.31699,-13.74259 -36.16666,-17.65859c-2.14033,-1.43267 -5.66689,-4.10222 -8.05022,-6.08422c-5.23167,-4.351 -16.50778,-15.52079 -20.53045,-20.34812c-5.98367,-7.18033 -7.42245,-10.03213 -11.79112,-23.18846c-1.63667,-4.92867 -2.83514,-7.28857 -3.27747,-7.46724c-0.68967,-0.278 -14.03766,-2.46793 -18.37099,-3.00126c-3.16733,-0.38967 -5.0446,-0.38117 -7.33127,0.0045z" data-paper-data="{&quot;wickUUID&quot;:&quot;19bac6ea-6a33-4433-a125-d58e25606c95&quot;,&quot;wickType&quot;:&quot;path&quot;,&quot;originalStyle&quot;:{&quot;strokeColor&quot;:null,&quot;fillColor&quot;:[&quot;Color&quot;,0,0.8,0],&quot;strokeWidth&quot;:1}}" fill="#00cc00" fill-rule="evenodd"/></g><g fill="none" fill-rule="nonzero" stroke="none" stroke-width="1" stroke-linecap="butt" stroke-linejoin="miter" stroke-miterlimit="10" stroke-dasharray="" stroke-dashoffset="0" font-family="sans-serif" font-weight="normal" font-size="12" text-anchor="start" style="mix-blend-mode: normal"/><g id="wick_project_gui" fill="none" fill-rule="nonzero" stroke="none" stroke-width="1" stroke-linecap="butt" stroke-linejoin="miter" stroke-miterlimit="10" stroke-dasharray="" stroke-dashoffset="0" font-family="sans-serif" font-weight="normal" font-size="12" text-anchor="start" style="mix-blend-mode: normal"/></g></svg>