<svg version="1.1" xmlns="http://www.w3.org/2000/svg" xmlns:xlink="http://www.w3.org/1999/xlink" width="1260" height="594" viewBox="0,0,1260,594"><g transform="translate(278.32,-18.12) scale(1.188,1.188)"><g id="wick_project_bg" fill-opacity="0" fill="#ffffff" fill-rule="nonzero" stroke="none" stroke-width="1" stroke-linecap="butt" stroke-linejoin="miter" stroke-miterlimit="10" stroke-dasharray="" stroke-dashoffset="0" font-family="none" font-weight="none" font-size="none" text-anchor="none" style="mix-blend-mode: normal"><rect x="0" y="0" width="720" height="480"/></g><g data-paper-data="{&quot;wickUUID&quot;:&quot;9f02a657-0550-48d7-8999-ff4d2ce6298f&quot;,&quot;wickType&quot;:&quot;clipsandpaths&quot;}" fill="none" fill-rule="evenodd" stroke="none" stroke-width="1" stroke-linecap="butt" stroke-linejoin="miter" stroke-miterlimit="10" stroke-dasharray="" stroke-dashoffset="0" font-family="none" font-weight="none" font-size="none" text-anchor="none" style="mix-blend-mode: normal"><path d="M416.34057,287.50875c-7.81733,1.43967 -10.03742,2.36321 -12.03509,4.53054c-2.10967,2.28867 -24.34973,36.13483 -28.69273,43.66916c-1.16267,2.01667 -2.74212,5.00867 -3.45879,6.55867l-1.38472,3.07165l0.35722,3.39989c0.2,1.75 0.52679,5.08043 0.72312,7.3721c0.34533,4.03267 1.33018,9.38062 1.67618,9.72662c0.093,0.093 3.71539,0.01795 7.06372,-0.48538c12.266,-1.844 25.04304,-5.02751 25.04304,-6.09018c0,-1.717 -1.3598,-15.05976 -2.1338,-19.58976c-1.23433,-7.222 -1.27029,-8.26242 -0.18062,-9.35175c0.619,-0.61933 -0.36915,-0.51771 0.73318,-0.51771c2.85167,0 3.562,1.67017 5.121,11.92017c0.38867,2.557 0.83034,6.53051 1.01734,9.01118c0.187,2.48033 0.58737,5.0192 0.64604,5.0782c0.059,0.05867 2.24766,-0.79146 3.25733,-1.85479c5.23333,-5.511 17.55995,-21.62654 21.27362,-27.80521c1.59067,-2.64633 4.94278,-11.95856 7.55411,-21.04023l1.02547,-4.791l-5.28584,-1.05148c-2.59467,-0.39633 -6.73149,-0.88652 -9.20649,-1.09085c-6.58433,-0.54367 -7.14497,-0.62615 -7.8533,-1.33448c-0.38433,-0.38433 -0.14942,0.0245 -0.14942,-0.6575c0,-1.46933 1.2071,-3.37194 2.59343,-3.77061c1.13067,-0.325 5.24212,-0.06669 10.88179,0.61931c2.09733,0.25533 4.21129,0.36458 4.26929,0.30658c0.058,-0.058 -0.14371,-2.21249 -0.69338,-2.97116c-1.08833,-1.50233 -3.82741,-3.02869 -6.56241,-3.76036c-2.965,-0.793 -7.94662,-0.51095 -15.59929,0.89838z" data-paper-data="{&quot;wickUUID&quot;:&quot;ec142106-c684-49e2-96ef-b2f42bcf4bd6&quot;,&quot;wickType&quot;:&quot;path&quot;,&quot;originalStyle&quot;:{&quot;strokeColor&quot;:null,&quot;fillColor&quot;:[&quot;Color&quot;,1,1,1],&quot;strokeWidth&quot;:1}}" id="ec142106-c684-49e2-96ef-b2f42bcf4bd6" fill="#ffffff"/><path d="M325.09648,191.43339c-1.40967,0.265 -6.15155,2.16094 -8.69455,3.43794c-9.85467,4.949 -20.44643,15.23139 -28.43643,27.59572c-5.34467,8.27033 -14.92864,25.47015 -14.45897,25.88882c0.08167,0.07267 5.47966,3.26733 11.43799,6.06466c20.27433,9.51767 30.63419,14.96856 36.66452,19.29089c2.713,1.945 3.9809,1.65058 4.19957,0.93825c0.12567,-0.40933 0.87173,-5.02971 1.5384,-9.88804c3.152,-22.973 4.38265,-34.64521 5.50232,-52.17921c0.37433,-5.86667 0.77606,-11.92898 0.89006,-13.44165l0.14509,-3.13066l-1.72762,-0.42879c-1.633,0 -2.80339,-0.84515 -3.50072,-2.52015c-0.27333,-0.65667 -0.83678,-1.42237 -1.04511,-1.55704c-0.39833,-0.25733 -1.20255,-0.31707 -2.51455,-0.07074z" data-paper-data="{&quot;wickUUID&quot;:&quot;97a4a40c-7a6f-4149-8dc6-40e65a6056d4&quot;,&quot;wickType&quot;:&quot;path&quot;,&quot;originalStyle&quot;:{&quot;strokeColor&quot;:null,&quot;fillColor&quot;:[&quot;Color&quot;,1,1,1],&quot;strokeWidth&quot;:1}}" id="97a4a40c-7a6f-4149-8dc6-40e65a6056d4" fill="#ffffff"/><path d="M341.87559,194.39387c-1.17933,0.12467 -1.99593,0.88554 -2.19126,2.39687c-0.111,0.86067 -0.50759,6.1371 -0.86926,11.6371c-0.908,13.797 -2.63704,33.29984 -3.18471,35.91184c-0.18067,0.862 0.44359,1.74096 1.70526,1.57163c0.87333,-0.117 1.34077,-0.17631 2.09677,0.21469c2.09033,1.081 9.95497,9.65564 12.8473,14.01031c1.16733,1.75733 1.03983,1.35365 1.1545,4.96198c0.146,4.60467 -0.12595,5.74882 -1.92462,7.70015c-1.70467,1.84933 -1.98837,2.21488 -2.81004,1.77521c-0.94567,-0.50633 -3.1791,-3.13632 -4.41843,-5.07832c-1.52233,-2.38667 -5.72024,-10.40654 -7.05091,-13.46754l-1.42842,-2.8266l-1.46194,2.38714c-1.70167,13.496 -3.76176,25.92494 -4.65743,28.06761c-0.52633,1.26 -1.51903,1.82934 -2.81236,1.83101c-0.95233,0.00133 -1.98337,-0.93818 -1.98337,-1.58685c0,-0.483 -3.22346,-3.58139 -3.46413,-3.34039c-0.09133,0.09133 -0.46793,2.48474 0.38307,3.84841c0.85067,1.364 1.66517,2.73051 1.92284,3.55551c0.92433,2.95933 -0.24484,7.42436 -2.53817,9.71769c-1.073,1.073 -0.70838,0.80315 -1.81405,0.80315c-1.14367,0 -1.01662,0.01284 -2.39829,-1.34383c-0.887,-0.87067 -2.3213,-2.82637 -3.30097,-4.47637c-1.88533,-3.176 -5.06904,-7.54547 -6.30204,-8.64914c-1.29733,-1.162 -2.87614,-3.41952 -2.87614,-4.20385c0,-0.41767 0.51907,-1.9146 1.17307,-3.82793c0.65367,-1.91367 0.76629,-4.48657 0.70829,-4.53924c-0.56567,-0.51433 -35.31717,-17.37623 -35.4635,-17.20823c-0.417,0.47933 -4.21419,10.34045 -4.86952,13.29512c-1.68967,7.61533 -3.60813,22.16215 -4.06346,30.77848c-0.36633,6.935 1.12476,20.66496 2.58643,23.98129c1.602,3.636 3.18438,5.12509 10.91705,9.54642c8.928,5.105 19.97569,12.97568 25.67169,18.28801c2.30067,2.14567 5.88025,4.8206 9.56425,7.14693c1.24433,0.786 3.64215,2.6607 5.28948,4.13837c3.49,3.13033 5.18117,4.13309 8.42184,5.23509c5.426,1.84567 13.56092,2.46537 25.05725,1.89737c6.58933,-0.32567 17.48729,-1.26575 17.63796,-1.50875c0.021,-0.034 0.29027,-2.91032 -0.0794,-5.15599c-0.62467,-3.79333 -0.82826,-4.32739 -1.51526,-4.32739c-0.40667,0 -1.05201,-0.21153 -1.48468,-0.5622c-0.73533,-0.59533 -0.70075,-0.46146 -0.70075,-3.68113c0,-3.03333 0.07313,-3.56636 1.0878,-6.64736c1.508,-4.57833 5.29876,-12.03852 9.59809,-18.88985c4.942,-7.876 14.04739,-21.70484 19.27372,-29.27317c7.63633,-11.05767 9.41404,-13.20907 12.15404,-14.40774c1.795,-0.78533 7.74583,-1.95981 14.46416,-2.93414c6.001,-0.87 12.66492,-0.82145 14.02725,0.09755c0.45833,0.30933 1.27718,0.61863 2.10218,0.74296c0.825,0.124 1.98752,0.48511 2.87452,0.95844c1.616,0.862 4.35701,3.58778 5.50468,5.46411l1.28604,1.26307l0.77898,-2.04518c0.00267,-2.194 -1.50213,-9.66356 -2.92446,-14.58423c-3.53867,-12.24067 -8.68867,-22.62987 -14.629,-29.54387c-3.05967,-3.561 -16.17841,-17.34078 -24.83508,-26.07745c-11.52933,-11.63633 -14.30088,-13.72517 -22.43921,-17.02017c-7.53367,-3.05 -14.69221,-4.79798 -23.69088,-5.74298c-4.365,-0.45833 -12.96044,-0.60595 -16.10677,-0.27362z" data-paper-data="{&quot;wickUUID&quot;:&quot;b719be15-cdea-4ada-af37-9eecbce83b51&quot;,&quot;wickType&quot;:&quot;path&quot;,&quot;originalStyle&quot;:{&quot;strokeColor&quot;:null,&quot;fillColor&quot;:[&quot;Color&quot;,1,1,1],&quot;strokeWidth&quot;:1}}" id="b719be15-cdea-4ada-af37-9eecbce83b51" fill="#ffffff"/><path d="M244.69551,288.66274c-3.70467,1.085 -7.56038,3.74301 -13.07771,9.05634c-5.04633,4.85967 -19.55826,20.98011 -21.89259,24.31811c-1.17067,1.67367 -2.83017,6.15551 -3.95684,10.74684c-1.46767,5.98067 -1.45044,10.33279 0.03023,17.23679c2.73967,12.775 7.6735,29.15357 15.28617,50.72757c4.18667,11.86567 5.76999,16.8569 5.76999,18.19023c0,0.30867 0.62874,2.52397 1.37441,4.8563c1.12233,3.51067 1.92614,4.90347 3.02481,6.09547c4.677,5.07367 31.21382,19.5069 47.98715,26.09857c4.92833,1.937 8.12477,2.72589 12.95177,3.20722c6.60233,0.65833 10.53881,-0.08496 13.74848,-2.64429c1.524,-1.21533 2.84074,-1.50163 10.20141,-2.2153c3.025,-0.293 7.78538,-0.89054 10.62705,-1.33454c8.40367,-1.31333 9.6654,-1.46527 20.6794,-2.49294c5.791,-0.54 11.65752,-1.21588 12.96585,-1.49121c1.30833,-0.27533 4.63546,-1.342 7.25646,-2.33433c2.621,-0.99267 7.70329,-2.73746 11.27829,-3.87213c27.38633,-8.69233 56.45623,-19.02197 66.1109,-23.48064c8.65867,-3.99833 18.90047,-13.34653 28.55914,-26.11786c5.347,-7.07033 6.80729,-10.81025 6.20796,-15.58325c-0.70633,-5.62467 -4.81814,-20.20146 -8.37314,-29.61013c-2.31867,-6.136 -2.96835,-7.16868 -5.16535,-8.57935c-2.41067,-1.54767 -10.07845,-5.40268 -11.39978,-5.71768c-0.55,-0.131 -2.58395,-1.26355 -4.50962,-2.51188c-4.00567,-2.596 -5.79126,-3.38759 -7.33826,-3.38326c-0.97133,0.00267 -2.02127,0.5448 -3.17294,2.33213c-1.972,3.06033 -9.50539,13.24773 -12.22906,16.5354c-7.42067,8.95633 -13.57802,15.30925 -16.24902,16.66025c-6.47067,3.273 -19.09346,6.33482 -33.42179,8.14249c-1.65,0.20833 -3.58449,0.5969 -4.36282,0.87657c-0.828,0.29767 -1.7281,0.4096 -2.2971,0.2846c-0.53467,-0.11767 -2.42612,-0.05516 -4.22979,0.13951c-13.54167,1.46333 -27.42911,2.03341 -33.76044,1.37874c-7.26367,-0.75133 -13.46835,-2.5782 -16.64368,-4.87387c-0.70433,-0.50933 -2.35568,-1.94503 -3.93035,-3.3417c-1.57433,-1.39667 -3.89277,-3.15653 -5.13577,-3.8982c-1.24333,-0.742 -5.12611,-3.7084 -8.60944,-6.5784c-11.49067,-9.46667 -19.36274,-15.08826 -26.83007,-19.16026c-2.09833,-1.14433 -4.4269,-2.495 -5.2619,-3.06933c-2.559,-1.75933 -5.63156,-4.90999 -6.72656,-7.07866c-2.603,-5.157 -4.46381,-25.63727 -3.13448,-34.43194l-0.03579,-1.87739l-2.65066,-0.85238c-2.747,-0.77833 -7.70785,-0.92521 -9.66452,-0.35221z" data-paper-data="{&quot;wickUUID&quot;:&quot;643f017c-02e6-44da-8c55-a47db06388c8&quot;,&quot;wickType&quot;:&quot;path&quot;,&quot;originalStyle&quot;:{&quot;strokeColor&quot;:null,&quot;fillColor&quot;:[&quot;Color&quot;,0.04314,0.04314,0.04314],&quot;strokeWidth&quot;:1}}" id="643f017c-02e6-44da-8c55-a47db06388c8" fill="#0b0b0b"/><path d="M319.72247,186.49777c-8.149,2.894 -17.241,9.126 -25.094,17.2c-5.469,5.625 -8.735,10.111 -14.97,20.562c-8.814,14.775 -15.415,27.51 -17.544,33.846c-1.667,4.959 -4.134,19.197 -5.605,32.342c-0.866,7.736 -0.864,11.652 0.01,20.623c0.593,6.091 1.628,12.4 2.301,14.02c1.873,4.513 5.981,8.255 12.922,11.773c6.926,3.51 17.301,10.929 26.655,19.062c3.317,2.884 7.282,5.89 8.81,6.681c1.528,0.79 4.423,3.081 6.432,5.09c6.341,6.341 18.921,8.62 39.036,7.074c31.479,-2.419 50.806,-6.104 60.217,-11.479c4.597,-2.626 20.519,-21.756 28.354,-34.065c3.395,-5.335 11.473,-33.883 11.473,-40.548c0,-9.199 -4.297,-24.568 -9.923,-35.496c-4.829,-9.377 -11.133,-17.36 -20.989,-26.576c-4.208,-3.936 -10.461,-10.375 -13.895,-14.31c-7.91,-9.064 -13.738,-13.545 -22.631,-17.4c-9.869,-4.278 -19.371,-6.254 -32.634,-6.786c-9.489,-0.381 -11.514,-0.7 -12.837,-2.022c-2.365,-2.365 -12.88,-2.151 -20.088,0.409zM329.47247,195.51977c0.967,0.802 2.858,0.789 8.798,-0.063c14.457,-2.072 33.03,0.638 45.987,6.71c7.051,3.304 7.813,3.963 25.291,21.866c9.911,10.152 19.279,20.106 20.817,22.121c6.473,8.478 12.564,23.491 14.812,36.514c0.894,5.176 0.834,6.869 -0.445,12.626c-2.226,10.016 -7.093,25.571 -9.21,29.436c-2.568,4.69 -15.278,21.544 -20.927,27.752c-4.091,4.495 -5.393,5.345 -11.24,7.336c-14.518,4.943 -54.382,9.595 -68.968,8.048c-9.386,-0.996 -13.785,-2.656 -17.666,-6.667c-1.822,-1.882 -4.799,-4.189 -6.617,-5.127c-1.818,-0.938 -5.227,-3.493 -7.576,-5.678c-7.066,-6.574 -17.946,-14.379 -26.502,-19.013c-10.324,-5.592 -11.322,-7.024 -12.575,-18.042c-1.259,-11.073 -1.214,-15.206 0.299,-27.335c3.173,-25.44 4.977,-30.21 22.607,-59.767c9.519,-15.96 22.384,-28.133 34.628,-32.767c5.123,-1.939 6.699,-2.03 6.995,-0.405c0.143,0.788 0.815,1.893 1.492,2.455z" data-paper-data="{&quot;wickUUID&quot;:&quot;9ab528cd-1e9d-45b0-9187-2e5c171d205a&quot;,&quot;wickType&quot;:&quot;path&quot;,&quot;originalStyle&quot;:{&quot;strokeColor&quot;:null,&quot;fillColor&quot;:[&quot;Color&quot;,0,0,0],&quot;strokeWidth&quot;:1}}" id="9ab528cd-1e9d-45b0-9187-2e5c171d205a" fill="#000000"/><path d="M614.5296,54.52512c-3.78267,0.42033 -7.77443,1.15483 -19.8281,3.6485c-18.056,3.73533 -22.22082,4.33862 -43.49482,6.29395c-29.28133,2.69167 -57.95672,4.95192 -69.98839,5.51525c-8.03633,0.37633 -7.05893,-0.03394 -15.26126,6.21339c-8.987,6.845 -12.607,9.91795 -19.18667,16.32328c-10.23867,9.96733 -16.78254,15.8248 -56.68154,50.73347c-32.07767,28.06567 -35.49484,31.38165 -41.53751,40.31165l-2.49575,4.06471l3.57723,0.93617c1.541,0.11967 4.92724,0.36968 7.67724,0.57901c12.982,0.98733 22.5635,3.53115 32.02583,8.52115c5.39833,2.847 8.11042,4.99801 13.78842,10.79668c2.872,2.93333 10.19113,10.39395 16.3138,16.62728c6.123,6.23333 12.1997,12.67573 13.59103,14.41873c4.88833,6.12467 9.19572,13.34137 12.01772,20.15137c3.23733,7.81233 5.93141,17.84925 6.65608,24.76925c0.496,4.737 0.48931,4.52295 -0.34902,9.08562c-0.68367,3.721 -2.59226,11.85401 -3.36893,14.36068c-0.09933,0.32 1.37525,1.59418 1.85792,1.85251c1.21867,0.65233 2.42244,-0.2044 7.10077,-5.0164c5.33033,-5.48233 8.38424,-9.10853 12.89524,-15.32353c9.08633,-12.518 17.76386,-22.50688 31.40886,-36.14855c11.48933,-11.48667 18.38655,-17.63109 32.84355,-29.26876c25.645,-20.64333 45.74862,-38.08473 53.50229,-46.41606c1.75333,-1.884 6.67138,-7.37155 10.87171,-12.13822c8.57633,-9.733 19.5435,-21.06105 21.31183,-22.01338c0.64233,-0.346 1.47041,-1.30472 1.56141,-1.59105c0.09067,-0.286 -0.11964,-2.12085 -0.47664,-3.76318c-1.62933,-7.49333 -4.30341,-29.32052 -4.56074,-37.24452c-0.201,-6.19 -0.19224,-6.1836 2.52343,-21.77427c1.47333,-8.458 2.54596,-16.19879 2.88696,-20.83679l0.12207,-3.61487l-2.75067,-0.3835c-1.08033,0.02367 -3.17835,0.17776 -4.55335,0.33043z" data-paper-data="{&quot;wickUUID&quot;:&quot;f8bb0214-7b93-4c1a-b66e-956d86420c84&quot;,&quot;wickType&quot;:&quot;path&quot;,&quot;originalStyle&quot;:{&quot;strokeColor&quot;:null,&quot;fillColor&quot;:[&quot;Color&quot;,0.04314,0.04314,0.04314],&quot;strokeWidth&quot;:1}}" id="f8bb0214-7b93-4c1a-b66e-956d86420c84" fill="#0b0b0b"/><path d="M608.86405,48.73913c-23.744,5.483 -34.452,7.2 -59.344,9.513c-27.201,2.528 -52.169,4.531 -68.701,5.511l-9.359,0.555l-10.423,7.801c-5.732,4.29 -13.453,10.945 -17.156,14.789c-5.568,5.779 -46.734,42.247 -80.254,71.095c-16.014,13.783 -27.896,30.474 -24.557,34.497c2.099,2.529 4.487,1.161 7.168,-4.102c1.389,-2.728 4.987,-7.814 7.996,-11.304c6.068,-7.036 5.008,-6.079 53.889,-48.677c19.204,-16.736 37.117,-32.927 39.808,-35.982c2.69,-3.054 9.622,-9.106 15.405,-13.447l10.514,-7.894l11.11,-0.577c13.135,-0.681 54.008,-4.051 77.187,-6.363c11.135,-1.111 21.287,-2.738 31.565,-5.06c8.334,-1.883 17.958,-3.659 21.387,-3.946l6.234,-0.522l-0.58,6.958c-0.319,3.827 -1.561,12.124 -2.759,18.439c-1.199,6.315 -2.361,13.376 -2.584,15.691c-0.542,5.641 2.781,34.022 5.242,44.766c0.295,1.289 -0.049,1.986 -1.153,2.336c-2.159,0.685 -12.184,11.133 -24.547,25.582c-8.066,9.427 -14.417,15.618 -28.935,28.205c-10.23,8.87 -25.608,21.605 -34.173,28.3c-24.552,19.192 -48.981,44.397 -63.582,65.605c-1.867,2.713 -6.548,8.262 -10.4,12.332c-5.964,6.3 -7.21,7.251 -8.388,6.402c-2.52,-1.815 -3.703,-2.105 -5.076,-1.244c-2.463,1.542 -2.039,4.065 1.153,6.868c5.157,4.527 10.023,3.323 13.519,-3.347c0.637,-1.215 3.049,-3.792 5.361,-5.727c2.312,-1.936 5.647,-5.677 7.413,-8.314c15.601,-23.303 36.443,-44.935 65.471,-67.951c9.259,-7.341 23.607,-19.24 31.884,-26.442c8.277,-7.202 16.131,-13.97 17.453,-15.04c1.323,-1.069 7.842,-8.273 14.488,-16.008c15.315,-17.827 20.241,-22.872 22.331,-22.872c4.135,0 6.885,-3.536 5.2,-6.686c-1.242,-2.32 -4.05,-19.216 -5.455,-32.819l-1.254,-12.148l2.423,-13.525c1.333,-7.439 3.02,-17.859 3.749,-23.155c1.743,-12.672 1.71,-12.715 -9.51,-12.579c-4.442,0.053 -8.834,0.272 -9.76,0.486z" data-paper-data="{&quot;wickUUID&quot;:&quot;9ac3f49c-d7f8-4c2d-9429-3200c0ef5fcc&quot;,&quot;wickType&quot;:&quot;path&quot;,&quot;originalStyle&quot;:{&quot;strokeColor&quot;:null,&quot;fillColor&quot;:[&quot;Color&quot;,0,0,0],&quot;strokeWidth&quot;:1}}" id="9ac3f49c-d7f8-4c2d-9429-3200c0ef5fcc" fill="#000000"/><path d="M418.20708,280.65861c-11.611,2.007 -13.62,2.582 -15.981,4.569c-2.639,2.22 -23.07,32.529 -31.96,47.412c-8.028,13.441 -10.446,25.28 -5.162,25.28c2.253,0 3.166,-1.486 4.521,-7.352c1.352,-5.852 6.809,-15.89 16.519,-30.389c3.514,-5.248 8.735,-13.179 11.602,-17.624c7.438,-11.534 8.405,-12.482 13.781,-13.496c14.511,-2.74 17.049,-2.91 21.53,-1.444c4.238,1.386 5.839,3.171 7.377,8.226c0.516,1.696 3.862,1.984 5.383,0.463c3.714,-3.714 -3.688,-14.983 -9.841,-14.983c-0.922,0 -1.91,-0.379 -2.196,-0.842c-0.63,-1.02 -9.21,-0.92 -15.573,0.18z" data-paper-data="{&quot;wickUUID&quot;:&quot;3f3ca927-e54f-4922-a7b9-5aaa51d32170&quot;,&quot;wickType&quot;:&quot;path&quot;,&quot;originalStyle&quot;:{&quot;strokeColor&quot;:null,&quot;fillColor&quot;:[&quot;Color&quot;,0,0,0],&quot;strokeWidth&quot;:1}}" id="3f3ca927-e54f-4922-a7b9-5aaa51d32170" fill="#000000"/><path d="M366.02908,344.01812c-1.637,1.972 -0.339,19.098 1.861,24.569c1.788,4.444 3.543,5.71 6.006,4.332c1.686,-0.943 1.785,-4.192 0.222,-7.255c-0.638,-1.25 -1.434,-6.44 -1.77,-11.533c-0.335,-5.092 -0.996,-9.732 -1.468,-10.311c-1.163,-1.426 -3.585,-1.327 -4.851,0.198z" data-paper-data="{&quot;wickUUID&quot;:&quot;8bbbf308-5e8c-4345-8b88-2f89b96a96db&quot;,&quot;wickType&quot;:&quot;path&quot;,&quot;originalStyle&quot;:{&quot;strokeColor&quot;:null,&quot;fillColor&quot;:[&quot;Color&quot;,0,0,0],&quot;strokeWidth&quot;:1}}" id="8bbbf308-5e8c-4345-8b88-2f89b96a96db" fill="#000000"/><path d="M422.20584,292.87112c-1.726,1.909 -1.907,4.064 -0.421,5.02c0.579,0.373 3.186,0.723 5.794,0.778c2.609,0.055 7.281,0.579 10.383,1.165c4.965,0.936 5.802,0.903 6.982,-0.276c1.065,-1.065 1.151,-1.755 0.421,-3.358c-1.09,-2.392 -5.036,-3.55 -14.952,-4.389c-6.013,-0.508 -6.892,-0.395 -8.207,1.06z" data-paper-data="{&quot;wickUUID&quot;:&quot;f8c725a5-eba8-4cf3-88bc-1cf85a38d71f&quot;,&quot;wickType&quot;:&quot;path&quot;,&quot;originalStyle&quot;:{&quot;strokeColor&quot;:null,&quot;fillColor&quot;:[&quot;Color&quot;,0,0,0],&quot;strokeWidth&quot;:1}}" id="f8c725a5-eba8-4cf3-88bc-1cf85a38d71f" fill="#000000"/><path d="M402.25637,330.51087c-0.785,0.946 -0.686,2.838 0.453,8.628c0.801,4.079 1.681,10.597 1.954,14.485c0.383,5.453 0.833,7.278 1.97,7.992c1.072,0.673 1.874,0.67 2.946,-0.008c1.2,-0.76 1.472,-2.163 1.47,-7.572c-0.004,-7.31 -2.387,-21.789 -3.883,-23.591c-1.239,-1.494 -3.642,-1.461 -4.91,0.066z" data-paper-data="{&quot;wickUUID&quot;:&quot;6127a329-108c-40c2-ba6e-850f9e570133&quot;,&quot;wickType&quot;:&quot;path&quot;,&quot;originalStyle&quot;:{&quot;strokeColor&quot;:null,&quot;fillColor&quot;:[&quot;Color&quot;,0,0,0],&quot;strokeWidth&quot;:1}}" id="6127a329-108c-40c2-ba6e-850f9e570133" fill="#000000"/><path d="M206.90717,222.84305c-1.533,1.847 0.144,5.084 3.005,5.802c8.086,2.029 29.24,11.111 61.41,26.363c34.436,16.328 48.413,23.824 52.183,27.989c1.727,1.909 3.812,2.176 5.308,0.68c1.724,-1.724 1.132,-3.582 -2.146,-6.732c-5.186,-4.984 -14.011,-10.147 -31.357,-18.345c-9.027,-4.267 -26.261,-12.414 -38.298,-18.106c-20.198,-9.55 -43.73,-18.938 -47.469,-18.938c-0.862,0 -2.048,0.579 -2.636,1.287z" data-paper-data="{&quot;wickUUID&quot;:&quot;d27e1131-2709-4dbd-adfe-53400973823f&quot;,&quot;wickType&quot;:&quot;path&quot;,&quot;originalStyle&quot;:{&quot;strokeColor&quot;:null,&quot;fillColor&quot;:[&quot;Color&quot;,0,0,0],&quot;strokeWidth&quot;:1}}" id="d27e1131-2709-4dbd-adfe-53400973823f" fill="#000000"/><path d="M336.82017,120.23245c-0.289,0.754 -0.279,10.508 0.023,21.675c0.509,18.828 0.394,21.438 -1.58,35.877c-1.171,8.565 -2.472,22.959 -2.892,31.987c-0.745,16.019 -3.39,40.403 -6.831,62.985c-1.356,8.9 -1.496,11.473 -0.68,12.456c1.488,1.793 4.365,1.076 5.538,-1.38c2.193,-4.592 8.23,-54.523 9.107,-75.324c0.292,-6.944 1.607,-20.959 2.922,-31.145c1.973,-15.292 2.266,-19.765 1.68,-25.673c-0.39,-3.935 -0.734,-12.477 -0.763,-18.981c-0.036,-8.012 -0.378,-12.153 -1.063,-12.837c-1.462,-1.463 -4.847,-1.24 -5.461,0.36z" data-paper-data="{&quot;wickUUID&quot;:&quot;fa696003-5c0b-4386-aebc-6b835c7f530a&quot;,&quot;wickType&quot;:&quot;path&quot;,&quot;originalStyle&quot;:{&quot;strokeColor&quot;:null,&quot;fillColor&quot;:[&quot;Color&quot;,0,0,0],&quot;strokeWidth&quot;:1}}" id="fa696003-5c0b-4386-aebc-6b835c7f530a" fill="#000000"/><path d="M335.88405,246.13445c-1.826,1.827 -1.127,7.019 1.638,12.162c1.456,2.71 3.557,6.76 4.669,9.002c2.121,4.278 5.435,8.129 6.995,8.129c0.506,0 1.849,-1.002 2.984,-2.227c1.697,-1.831 2.064,-3.094 2.064,-7.097c0,-4.374 -0.321,-5.267 -3.156,-8.766c-9.632,-11.889 -12.438,-13.958 -15.194,-11.203z" data-paper-data="{&quot;wickUUID&quot;:&quot;5b652239-3972-4e10-9d5c-7d0d9d5c7958&quot;,&quot;wickType&quot;:&quot;path&quot;,&quot;originalStyle&quot;:{&quot;strokeColor&quot;:null,&quot;fillColor&quot;:[&quot;Color&quot;,0,0,0],&quot;strokeWidth&quot;:1}}" id="5b652239-3972-4e10-9d5c-7d0d9d5c7958" fill="#000000"/><path d="M307.33227,270.58758c-1.141,1.479 -3.603,7.985 -3.603,9.52c0,0.704 1.464,2.715 3.254,4.469c1.79,1.755 4.537,5.509 6.103,8.342c3.027,5.476 5.369,7.275 7.742,5.947c2.067,-1.157 3.945,-5.241 3.945,-8.581c0,-2.79 -0.552,-3.801 -7.798,-14.282c-3.884,-5.62 -7.792,-7.814 -9.643,-5.415z" data-paper-data="{&quot;wickUUID&quot;:&quot;2eccd08a-11bb-4f88-bbc9-e8ae107414a7&quot;,&quot;wickType&quot;:&quot;path&quot;,&quot;originalStyle&quot;:{&quot;strokeColor&quot;:null,&quot;fillColor&quot;:[&quot;Color&quot;,0,0,0],&quot;strokeWidth&quot;:1}}" id="2eccd08a-11bb-4f88-bbc9-e8ae107414a7" fill="#000000"/><path d="M244.34867,282.03877c-1.409,0.338 -4.873,1.846 -7.698,3.351c-4.168,2.222 -7.529,5.379 -17.851,16.766c-6.993,7.717 -13.675,15.383 -14.847,17.037c-2.236,3.155 -5.442,16.518 -5.442,22.684c0,7.62 7.528,35.027 16.119,58.682c3.234,8.906 5.672,16.529 5.417,16.942c-0.56,0.906 3.217,12.275 4.965,14.943c3.915,5.976 44.38,28.147 57.817,31.679c9.703,2.551 25.19,1.567 28.853,-1.833c1.221,-1.132 3.333,-1.702 7.199,-1.942c3.009,-0.187 9.259,-0.959 13.889,-1.716c4.63,-0.756 13.152,-1.716 18.939,-2.133c8.368,-0.603 11.643,-1.225 15.994,-3.038c3.009,-1.254 8.501,-3.201 12.205,-4.325c17.758,-5.391 59.656,-19.865 64.461,-22.269c15.366,-7.687 20.243,-11.804 32.195,-27.178c8.5,-10.934 9.667,-13.278 9.762,-19.616c0.152,-10.238 -9.844,-40.705 -14.787,-45.065c-1.789,-1.578 -13.29,-7.459 -14.588,-7.459c-0.473,0 -2.706,-1.325 -4.961,-2.946c-3.404,-2.445 -4.831,-2.946 -8.39,-2.946c-3.428,0 -4.47,0.338 -5.19,1.684c-1.473,2.752 0.308,5.05 3.915,5.05c2.119,0 4.206,0.875 7.028,2.946c2.207,1.621 4.445,2.946 4.973,2.946c1.46,0 12.245,5.589 13.346,6.916c1.735,2.09 6.642,16.002 9.416,26.695c3.58,13.803 3.346,15.27 -3.99,24.987c-8.904,11.791 -17.924,20.295 -26.537,25.014c-6.775,3.713 -43.11,16.67 -70.02,24.968c-4.167,1.285 -9.36,3.149 -11.54,4.142c-3.018,1.374 -6.835,2.01 -15.993,2.665c-6.616,0.473 -15.249,1.458 -19.184,2.187c-3.935,0.73 -10.728,1.608 -15.095,1.95c-6.687,0.525 -8.174,0.911 -9.416,2.445c-2.224,2.746 -10.649,3.31 -19.52,1.306c-8.239,-1.86 -36.585,-15.751 -48.088,-23.564c-7.125,-4.84 -7.267,-5.005 -8.908,-10.316c-0.917,-2.968 -1.667,-6.068 -1.667,-6.889c0,-0.82 -2.617,-8.64 -5.816,-17.377c-8.508,-23.237 -16.069,-50.469 -16.069,-57.875c0,-5.985 2.672,-16.031 5.176,-19.459c1.353,-1.852 7.692,-9.053 14.088,-16.003c15.706,-17.064 20.42,-19.417 31.754,-15.844c4.868,1.535 7.063,0.811 7.063,-2.328c0,-2.096 -2.761,-3.772 -8.805,-5.345c-5.415,-1.409 -6.275,-1.452 -10.172,-0.519z" data-paper-data="{&quot;wickUUID&quot;:&quot;529ace84-3651-4ce4-aae4-5dfd1e2a9103&quot;,&quot;wickType&quot;:&quot;path&quot;,&quot;originalStyle&quot;:{&quot;strokeColor&quot;:null,&quot;fillColor&quot;:[&quot;Color&quot;,0,0,0],&quot;strokeWidth&quot;:1}}" id="529ace84-3651-4ce4-aae4-5dfd1e2a9103" fill="#000000"/></g><g fill="none" fill-rule="nonzero" stroke="none" stroke-width="1" stroke-linecap="butt" stroke-linejoin="miter" stroke-miterlimit="10" stroke-dasharray="" stroke-dashoffset="0" font-family="sans-serif" font-weight="normal" font-size="12" text-anchor="start" style="mix-blend-mode: normal"/><g id="wick_project_gui" fill="none" fill-rule="nonzero" stroke="none" stroke-width="1" stroke-linecap="butt" stroke-linejoin="miter" stroke-miterlimit="10" stroke-dasharray="" stroke-dashoffset="0" font-family="sans-serif" font-weight="normal" font-size="12" text-anchor="start" style="mix-blend-mode: normal"/></g></svg>