<svg version="1.1" xmlns="http://www.w3.org/2000/svg" xmlns:xlink="http://www.w3.org/1999/xlink" width="1107" height="504" viewBox="0,0,1107,504"><g transform="translate(455.06213,71.06519) scale(0.33539,0.33539)"><g id="wick_project_bg" fill-opacity="0" fill="#ffffff" fill-rule="nonzero" stroke="none" stroke-width="1" stroke-linecap="butt" stroke-linejoin="miter" stroke-miterlimit="10" stroke-dasharray="" stroke-dashoffset="0" font-family="none" font-weight="none" font-size="none" text-anchor="none" style="mix-blend-mode: normal"><rect x="0" y="0" width="720" height="480"/></g><g data-paper-data="{&quot;wickUUID&quot;:&quot;8a0acc81-07ca-47d7-b6e6-3c20af57565f&quot;,&quot;wickType&quot;:&quot;clipsandpaths&quot;}" fill="none" fill-rule="evenodd" stroke="none" stroke-width="1" stroke-linecap="butt" stroke-linejoin="miter" stroke-miterlimit="10" stroke-dasharray="" stroke-dashoffset="0" font-family="none" font-weight="none" font-size="none" text-anchor="none" style="mix-blend-mode: normal"><path d="M236.0678,-38.89499c-1.21367,2.07067 -2.4422,5.25855 -3.21853,8.28922c-2.324,9.072 -10.80566,58.94032 -18.16666,106.81165c-7.335,47.70133 -9.86805,67.47278 -10.69972,83.52211l-0.10446,4.15683l3.56978,2.89005c3.826,2.99533 14.69815,13.75723 48.65648,48.16123c12.75767,12.925 26.03072,26.21905 29.49572,29.54238l7.72737,5.63294l-0.09679,-32.73886l-0.11971,-32.50413l1.68961,-6.12111c2.52533,-9.267 3.49119,-12.37019 5.36086,-17.01919c4.38767,-10.911 10.16483,-19.78 18.39316,-28.25167l2.55322,-2.78781l0.17144,-8.97874c0.128,-7.44567 0.2774,-9.56242 1.0054,-13.97542c0.97567,-5.915 2.96032,-14.76702 4.64199,-20.71469c0.622,-2.2 0.51153,-5.01521 0.40286,-5.05588c-2.74967,-1.02267 -30.76028,-8.05894 -35.62528,-8.94761c-4.711,-0.86067 -9.9212,-2.09831 -11.87253,-2.82831c-1.65033,-0.61733 -1.3574,-0.332 -2.14873,-2.096c-1.346,-3.00067 -4.7596,-12.71251 -11.44193,-32.54584c-14.42867,-42.826 -26.3883,-75.85121 -27.46797,-75.85121c-0.15667,0 -2.23725,0.61039 -2.70558,1.41006z" data-paper-data="{&quot;wickUUID&quot;:&quot;5ffb72c3-ee78-405d-8a23-eb18c733ee0e&quot;,&quot;wickType&quot;:&quot;path&quot;,&quot;originalStyle&quot;:{&quot;strokeColor&quot;:null,&quot;fillColor&quot;:[&quot;Color&quot;,1,0,0.50196],&quot;strokeWidth&quot;:1}}" fill="#ff0080"/><path d="M342.79809,86.8647c-1.021,1.74733 -8.98744,31.65972 -8.43044,31.65972c0.05367,0 2.83614,-0.07739 4.63181,-1.24106c3.88333,-2.516 11.20053,-6.75908 14.53553,-8.42875c1.312,-0.65667 2.7345,-1.54111 2.76717,-1.56744c0.03267,-0.02667 -0.06917,-1.66679 -0.33917,-2.94812c-0.26967,-1.28133 -1.01159,-5.18289 -1.64626,-8.65789c-0.63433,-3.47533 -1.54433,-6.89381 -1.68066,-7.01414c-0.407,-0.358 -9.70365,-2.03232 -9.83798,-1.80232z" data-paper-data="{&quot;wickUUID&quot;:&quot;b14ee762-fc2e-47af-a75a-2ee8fe4d8615&quot;,&quot;wickType&quot;:&quot;path&quot;,&quot;originalStyle&quot;:{&quot;strokeColor&quot;:null,&quot;fillColor&quot;:[&quot;Color&quot;,1,0,0.50196],&quot;strokeWidth&quot;:1}}" fill="#ff0080"/><path d="M567.8859,-60.62256c0,0.65 -0.38609,5.16467 0.96624,9.51234c5.21367,16.76167 10.49188,36.1539 22.99821,84.49957c7.22967,27.94767 8.85037,33.9464 12.6207,46.71407c2.96367,10.036 3.85238,13.90483 3.55605,16.0675c-0.39867,2.90767 -0.42931,2.70026 -5.03531,3.62826c-2.89567,0.58333 -24.2408,3.40274 -40.58613,5.36274c-5.81733,0.69767 -20.18551,1.85499 -26.80518,2.15966c-2.29167,0.10567 -4.83139,0.27401 -5.64406,0.37434l-2.19902,1.34777l2.28591,1.44091c8.21767,4.39233 15.54404,9.48449 22.39271,15.57749c9.46267,8.418 23.82116,23.20678 28.17849,29.02545c1.911,2.55167 2.42641,4.18219 3.51874,10.77719c2.46,14.85333 2.00778,37.70913 -1.14355,57.87646c-0.435,2.783 0.56163,5.84039 0.6123,5.89106c0.287,0.28733 8.41557,-7.95355 12.77724,-12.96788c12.79167,-14.707 22.28582,-22.6471 51.81649,-43.3351c21.31767,-14.93433 37.26528,-26.9122 48.16228,-36.17353c4.09,-3.476 8.15706,-7.8004 8.15706,-8.37573c0,-0.40967 -2.32529,-3.90222 -6.96562,-9.79689c-24.31833,-30.89333 -37.91153,-48.51628 -40.35886,-52.32695c-2.60533,-4.056 -6.1505,-10.05345 -16.22483,-27.42812c-18.46667,-31.84833 -20.66562,-35.45851 -27.72462,-45.52951c-6.10833,-8.715 -11.04128,-15.26592 -18.75895,-24.90992c-14.35433,-17.93767 -26.59629,-31.46985 -26.59629,-29.41118z" data-paper-data="{&quot;wickUUID&quot;:&quot;60c7563b-9be7-43ee-ac0d-9f01950d75f4&quot;,&quot;wickType&quot;:&quot;path&quot;,&quot;originalStyle&quot;:{&quot;strokeColor&quot;:null,&quot;fillColor&quot;:[&quot;Color&quot;,1,0,0.50196],&quot;strokeWidth&quot;:1}}" fill="#ff0080"/><path d="M431.57742,96.86603c-9.72833,0.72133 -30.05905,3.41385 -34.53238,4.57285c-0.96667,0.25067 -1.69941,1.20333 -1.61274,2.78633c0.13633,2.49433 1.32913,14.15475 1.89013,18.47675c0.66633,5.13567 0.68656,10.73949 -0.00244,13.05982c-0.83867,2.82367 -1.42006,3.20281 -4.84739,3.66781c-8.81867,1.196 -20.30724,1.69057 -22.98191,0.8869c-4.441,-1.33467 -6.36215,-5.20372 -9.44882,-17.82972c-0.609,-2.49133 -2.19948,-4.98054 -2.36348,-4.98054c-0.59733,0 -8.5001,4.70531 -13.69743,8.18498c-12.575,8.41933 -20.35005,15.13041 -25.45372,21.93708c-4.60633,6.143 -9.17411,15.28882 -11.95678,23.89749c-3.34067,10.33433 -3.52542,13.37286 -3.33209,56.49119c0.16467,36.82 0.15903,36.44096 2.47736,44.08796c3.05167,10.06633 6.17287,14.87235 15.29254,23.23668l4.68742,4.27519l1.8504,-1.20217c1.523,-1.523 1.83057,-1.66068 4.40057,-0.46501c2.37867,1.10667 5.16491,3.25323 11.52291,8.8239l5.24426,4.58181l4.6814,1.64483c15.44233,5.348 43.34124,14.72203 47.59291,15.99303c10.45267,3.12467 9.41883,3.01778 27.3035,3.00945c12.90467,-0.006 17.07835,-0.13724 21.56102,-0.62357c16.49967,-1.78967 28.61056,-5.72569 41.65323,-13.53636c6.12667,-3.669 10.31352,-6.85145 14.14719,-10.80178c3.03567,-3.12833 4.84211,-5.90826 6.74844,-10.47393c1.92867,-4.61833 2.59883,-5.66157 5.0395,-6.95357c2.37367,-1.257 2.50795,-1.01297 4.84628,1.3947l1.35209,1.40411l-0.2413,1.42719c-0.098,1.03367 0.25526,3.05015 0.12693,3.37115c-0.35667,0.892 1.18736,0.62854 5.29703,-1.02313c9.63233,-3.87133 16.73791,-9.95374 25.89124,-22.13341c4.925,-6.55367 8.76071,-13.6175 11.67071,-21.5765l1.4541,-4.01019l-0.66462,-1.08482c-1.31467,-2.15667 -0.72556,-4.38214 1.89744,-7.18581c1.476,-1.57733 1.7464,-2.22517 2.3874,-4.93484c3.17267,-13.413 5.20622,-38.84795 4.42122,-55.28995c-0.417,-8.73933 -1.04334,-14.00166 -2.06367,-17.27266c-0.51233,-1.641 -1.41276,-3.10532 -3.55809,-5.62132c-4.91333,-5.76133 -20.06505,-20.55885 -27.01638,-26.38452c-3.189,-2.67267 -9.12539,-7.1065 -9.51039,-7.1065c-0.162,0 -1.10278,1.95919 -0.58345,3.19652c1.232,2.93667 1.96064,4.78917 1.70497,6.15284c-0.62267,3.318 -5.67926,5.04232 -8.82026,3.11132c-1.08533,-0.66733 -1.02963,-0.73152 -2.11096,-0.44285c-1.85033,0.494 -3.15437,0.27694 -4.68904,-1.10973c-1.82,-1.644 -2.72817,-3.65374 -3.4855,-7.44107c-0.35,-1.74933 -1.46003,-5.77386 -2.48903,-9.00986l-2.00571,-6.15384l-3.98947,-1.65542c-2.98367,-1.13533 -4.03183,-1.36845 -6.8165,-1.52178c-3.595,-0.19833 -4.43125,-0.53865 -5.24925,-2.12065c-0.426,-0.82367 -3.04091,-1.37681 -3.42958,-0.98848c-0.06867,0.069 -0.60519,2.98029 -1.07286,6.24696c-2.05467,14.35567 -2.77049,15.98151 -10.96916,24.89084l-3.82093,4.23135l-6.42216,-0.25021c-12.95633,-0.37533 -23.6749,-2.2238 -29.28023,-5.05613c-1.63767,-0.82733 -3.58808,-2.94174 -3.58808,-3.75574c0,-0.27433 -0.00161,-0.29981 -0.17728,-0.29981c-0.58133,0 -1.92123,-2.43493 -1.91723,-3.59226c0.00567,-1.66133 0.63846,-3.71973 2.74013,-9.17873c2.45867,-6.38667 3.31225,-9.42789 4.38725,-15.61656c0.72367,-4.16633 0.40794,-6.11144 0.05227,-6.33677c-0.52633,-0.334 -4.8912,-0.40851 -10.12153,-0.02084zM338.12655,178.35201c4.037,0.27633 18.29926,1.10051 31.71426,1.83251c13.415,0.73233 32.01148,1.85178 41.32981,2.48811c9.31833,0.63667 20.72257,1.41604 25.3059,1.73071c9.93833,0.68167 31.81922,0.76232 43.02655,0.15799c11.89333,-0.64133 26.46778,-0.84331 30.96011,-0.42664c4.071,0.378 20.30797,2.94805 24.42364,3.86538c3.895,0.86833 5.56968,1.61826 7.50301,3.43593c2.172,2.04233 2.74827,3.22304 2.75794,5.57537c0.00633,1.47867 -0.19134,1.82117 -1.70967,4.7295c-0.989,1.89433 -3.10529,5.53881 -4.74796,8.18114c-1.64267,2.64233 -5.30475,8.52586 -8.10575,13.01753c-12.66033,20.30267 -16.78107,28.62981 -23.15874,46.78848c-2.736,7.791 -6.42478,19.39586 -8.21711,25.86319c-3.62833,13.09 -3.71187,13.62215 -7.68887,15.49282c-3.761,1.769 -6.97117,2.07363 -31.26517,3.40563c-3.575,0.19633 -13.745,0.89708 -22.63667,1.56008c-12.94467,0.96567 -18.02561,1.20947 -25.76561,1.22747c-11.005,0.02567 -14.51321,-0.3312 -22.27554,-2.28187c-5.835,-1.46667 -9.79803,-2.95568 -17.25803,-6.45568c-9.86567,-4.62867 -15.05895,-6.87879 -16.56362,-7.21212c-2.42933,-0.53833 -4.44048,-3.02172 -7.61515,-9.30772c-2.25833,-4.47167 -9.70314,-20.48034 -9.70314,-20.86267c0,-0.38933 -8.92703,-19.43893 -15.1247,-32.2756c-9.54267,-19.765 -9.94477,-20.72416 -11.20944,-27.24716c-0.974,-5.02133 -1.04851,-12.70252 -0.14184,-15.40252c1.29667,-3.86067 4.52496,-8.98134 8.33629,-13.30701c2.73733,-3.106 3.44061,-3.70536 5.74628,-4.50269c2.07233,-0.71633 2.92022,-0.69749 12.08322,-0.07016z" data-paper-data="{&quot;wickUUID&quot;:&quot;4bdaeab1-1557-4174-8c60-b6aafe6e8817&quot;,&quot;wickType&quot;:&quot;path&quot;,&quot;originalStyle&quot;:{&quot;strokeColor&quot;:null,&quot;fillColor&quot;:[&quot;Color&quot;,1,1,1],&quot;strokeWidth&quot;:1}}" fill="#ffffff"/><path d="M335.52942,192.46418c-1.46667,0.14633 -3.57882,0.48155 -4.31215,0.68655c-1.52433,0.42633 -3.90525,1.86142 -3.90525,2.30909c0,0.166 0.7446,1.67457 1.5236,1.98424c6.282,2.49467 16.72445,12.46277 25.08845,23.95477c4.519,6.20867 10.86411,15.75699 10.86478,16.38366c0.00067,0.69833 0.56722,0.8998 10.08622,0.91813c5.27033,0.01 11.1627,0.19323 13.0877,0.40723c12.76633,1.41833 18.47266,1.6904 43.66099,2.08107c25.02233,0.38833 27.36812,0.51203 26.57879,1.46303c-0.403,0.48533 -3.49006,-0.68727 -9.40339,-0.1586c-6.28767,0.56233 -28.89988,0.7793 -37.26588,0.35697c-12.36367,-0.62367 -38.58206,-2.7218 -44.54706,-3.56447l-2.17531,-0.04702l-0.33343,2.11691c-0.03467,8.209 -0.68427,42.74447 -0.84294,44.79214l0.15284,3.37956l13.6398,6.81648l13.7087,6.81568l14.64519,0.01887c22.42733,-0.00667 48.53022,-1.13002 66.27022,-2.85169c7.625,-0.74 8.55511,-1.55977 8.31944,-2.39977c-2.639,-9.41467 -4.0307,-23.96582 -4.35803,-45.32715l-0.21414,-12.22814l4.75192,-6.2143c8.45067,-11.24533 15.36142,-19.1179 21.69109,-24.70457c4.30067,-3.796 6.37016,-5.17553 8.97349,-6.04186c1.14433,-0.38067 3.28243,-1.81142 4.2761,-2.48075c2.17433,-1.46433 1.4009,-2.48818 -3.88443,-3.14785c-2.77033,-0.346 -6.82686,-0.42406 -16.27119,-0.29839c-6.875,0.09133 -22.31139,0.16348 -34.31972,0.16048c-22.323,-0.006 -23.61243,-0.05242 -46.3141,-1.66109c-35.49733,-2.51533 -72.66997,-4.16754 -79.1723,-3.51921z" data-paper-data="{&quot;wickUUID&quot;:&quot;7890ce55-c9dd-4908-b224-a42dd7a73f91&quot;,&quot;wickType&quot;:&quot;path&quot;,&quot;originalStyle&quot;:{&quot;strokeColor&quot;:null,&quot;fillColor&quot;:[&quot;Color&quot;,1,1,1],&quot;strokeWidth&quot;:1}}" fill="#ffffff"/><path d="M551.44023,292.20702c-2.29633,2.357 -6.36789,5.75318 -9.49322,7.88318c-6.09867,4.15667 -16.19652,7.99545 -23.58085,8.96978c-1.73967,0.22967 -2.03215,0.41821 -5.31482,3.82854c-6.59567,6.85233 -14.14269,12.19783 -24.78569,17.52816c-9.55267,4.78467 -17.35873,7.26871 -28.51573,9.08204c-8.699,1.414 -14.17099,1.71627 -33.44999,1.87894l-18.39602,0.15827l-6.12989,-2.18255c-3.48333,-1.224 -16.75468,-5.71308 -29.49635,-9.97708c-15.282,-5.11433 -24.11469,-8.23727 -26.09369,-9.2326c-3.20933,-1.61333 -7.02173,-4.33048 -9.78506,-7.01448c-2.16067,-2.09833 -3.43229,-0.93384 -2.75429,4.05383c1.006,7.396 3.35308,33.16895 7.33675,80.55262l2.17991,25.89307l6.54572,25.57589c3.592,14.02867 7.62421,29.71412 8.96021,34.85512l2.4083,9.23548l-0.44873,7.342c-0.244,4.11733 -0.45151,8.64703 -0.46018,10.05236l0.19427,3.14712l3.01364,0.47191c1.32933,0.101 5.25062,0.26705 8.73395,0.37005c11.52467,0.341 30.40988,1.70956 59.82721,4.33556c27.50433,2.45533 32.06723,2.82423 41.29756,3.33823c4.88233,0.272 12.29141,0.49648 16.38274,0.49681c7.326,0.00067 7.47979,-0.01199 8.52479,-0.79666c1.97167,-1.481 4.02197,-1.40607 5.74164,0.20493c0.73833,0.69133 0.92645,0.69413 15.24212,0.4838c18.975,-0.279 24.02022,-0.88587 25.55855,-2.8412c0.79467,-1.01067 1.39283,-2.84882 1.8485,-11.83182c0.301,-5.935 4.08049,-57.04069 5.48616,-74.18302c2.38467,-29.08333 3.65063,-54.44221 4.16163,-83.34454c0.31533,-17.83867 0.01264,-40.98525 -0.65069,-49.73092c-0.604,-7.963 -0.80803,-9.74846 -1.03036,-9.74846c-0.12133,0 -2.24076,0.30664 -3.05809,1.14564z" data-paper-data="{&quot;wickUUID&quot;:&quot;efb52315-c7d1-4bec-903e-f30541e4b476&quot;,&quot;wickType&quot;:&quot;path&quot;,&quot;originalStyle&quot;:{&quot;strokeColor&quot;:null,&quot;fillColor&quot;:[&quot;Color&quot;,0,0,1],&quot;strokeWidth&quot;:1}}" fill="#0000ff"/><path d="M484.55172,49.92827c-13.983,23.56867 -19.32297,33.79246 -24.58464,47.05579c-2.84933,7.18333 -7.04539,20.28664 -8.28439,25.88597c-0.55633,2.514 -0.05725,3.63834 0.54275,4.09901c1.888,1.45033 9.21758,2.64683 14.10491,2.4115c7.10833,-0.34233 10.4634,-3.90181 12.4194,-13.34148c0.209,-1.00833 1.27598,-8.53281 2.27698,-16.41614c1.07833,-8.492 3.1162,-21.98198 5.00187,-33.10965c1.75033,-10.33 3.14638,-19.37741 3.09005,-19.95574c-0.09233,-0.95267 -1.9696,-1.00693 -4.56693,3.37074z" data-paper-data="{&quot;wickUUID&quot;:&quot;e88081d8-10ca-44f3-97d9-e17dc19db090&quot;,&quot;wickType&quot;:&quot;path&quot;,&quot;originalStyle&quot;:{&quot;strokeColor&quot;:null,&quot;fillColor&quot;:[&quot;Color&quot;,0,0,0],&quot;strokeWidth&quot;:1}}" fill="#000000"/><path d="M384.32899,18.09875c-0.90833,1.23767 -3.11043,4.65676 -4.83543,7.50443c-2.892,4.77367 -3.27374,5.7768 -3.66141,8.22513c-1.423,8.99 -0.09594,49.94194 2.15706,66.54361c0.26133,1.925 0.84835,6.24611 1.30035,9.54611c1.11233,8.12133 1.64908,14.76709 1.43975,17.82176l-0.00242,2.99537l3.23113,-0.27821c4.40067,-0.66433 4.88939,-1.72796 4.08106,-7.69396c-1.496,-11.044 -1.87192,-14.82149 -2.65859,-26.30082c-1.73833,-25.36867 -1.83385,-32.25581 -0.67085,-48.43748c0.65667,-9.13567 2.38667,-26.42435 2.93,-29.29935c0.24033,-1.27 -0.50477,-3.24153 -0.65644,-3.24153c-0.152,0 -1.74621,1.37727 -2.65421,2.61494z" data-paper-data="{&quot;wickUUID&quot;:&quot;03c5f8b5-b1a3-4451-a8cf-5d2d6d1e50c2&quot;,&quot;wickType&quot;:&quot;path&quot;,&quot;originalStyle&quot;:{&quot;strokeColor&quot;:null,&quot;fillColor&quot;:[&quot;Color&quot;,0,0,0],&quot;strokeWidth&quot;:1}}" fill="#000000"/><path d="M324.10444,178.46286c-3.971,2.192 -11.833,13.187 -13.133,18.364c-0.448,1.788 -0.47,7.062 -0.048,11.719c0.621,6.844 2.617,12.173 10.405,27.778c5.301,10.62 13.522,28.207 18.269,39.082c8.802,20.165 12.473,26.383 15.575,26.383c0.959,0 8.2,3.162 16.089,7.025c18.57,9.094 31.56,10.863 61.01,8.307c10.708,-0.93 28.034,-2.066 38.502,-2.526c21.864,-0.961 24.684,-2.191 27.164,-11.846c4.723,-18.383 13.243,-43.223 18.525,-54.005c3.341,-6.82 11.095,-20.138 17.23,-29.596c6.136,-9.458 11.523,-18.657 11.971,-20.443c1.422,-5.666 -3.476,-10.409 -12.081,-11.699c-4.093,-0.613 -11.781,-1.888 -17.086,-2.834c-7.321,-1.305 -15.95,-1.396 -35.822,-0.38c-21.199,1.084 -32.075,0.899 -57.179,-0.973c-17.05,-1.272 -44.33,-2.954 -60.623,-3.738c-16.292,-0.783 -30.862,-1.695 -32.378,-2.025c-1.516,-0.33 -4.391,0.303 -6.39,1.407zM377.33944,194.35786c14.398,0.771 37.028,2.208 50.29,3.194c16.199,1.205 33.38,1.477 52.356,0.83c22.402,-0.764 30.169,-0.548 37.545,1.043c5.115,1.103 9.3,2.231 9.3,2.506c0,0.275 -3.741,6.271 -8.313,13.323c-12.327,19.016 -21.044,37.892 -28.192,61.046c-3.509,11.367 -6.814,21.109 -7.344,21.649c-1.683,1.714 -45.535,4.533 -69.13,4.442l-22.734,-0.086l-15.026,-7.452l-15.027,-7.451l-3.785,-8.307c-2.082,-4.568 -6.036,-13.576 -8.785,-20.017c-2.749,-6.441 -9.015,-19.772 -13.922,-29.623c-9.584,-19.236 -11.179,-27.134 -6.755,-33.449c2.564,-3.661 8.314,-3.852 49.522,-1.648z" data-paper-data="{&quot;wickUUID&quot;:&quot;b80eba18-e049-405d-8d19-10a4136f9e94&quot;,&quot;wickType&quot;:&quot;path&quot;,&quot;originalStyle&quot;:{&quot;strokeColor&quot;:null,&quot;fillColor&quot;:[&quot;Color&quot;,0,0,0],&quot;strokeWidth&quot;:1}}" fill="#000000"/><path d="M318.65363,198.58343c-3.302,3.302 -2.966,7.209 1.826,21.227c3.606,10.55 6.514,14.906 15.632,23.423l7.376,6.889l-1.578,5.718c-1.339,4.852 -1.222,6.262 0.769,9.3c1.29,1.97 3.182,3.582 4.203,3.582c1.324,0 2.136,3.193 2.828,11.126c1.258,14.429 5.596,19.563 12.353,14.622c2.218,-1.622 2.505,-4.691 2.791,-29.868l0.319,-28.061l-6.168,-9.055c-9.181,-13.476 -16.18,-21.454 -23.606,-26.905c-7.578,-5.563 -12.582,-6.16 -16.745,-1.998z" data-paper-data="{&quot;wickUUID&quot;:&quot;85b9eeca-7322-4504-9fed-9960f367aac4&quot;,&quot;wickType&quot;:&quot;path&quot;,&quot;originalStyle&quot;:{&quot;strokeColor&quot;:null,&quot;fillColor&quot;:[&quot;Color&quot;,0,0,0],&quot;strokeWidth&quot;:1}}" fill="#000000"/><path d="M522.69695,195.40621c-1.137,0.35 -3.617,2.029 -5.511,3.732c-1.895,1.702 -4.997,3.458 -6.894,3.902c-4.72,1.105 -17.042,13.154 -26.925,26.329l-8.204,10.937l0.229,18.686c0.137,11.118 1.221,23.955 2.678,31.697c3.23,17.164 7.71,21.839 14.459,15.09c2.254,-2.254 2.695,-3.863 1.98,-7.233c-3.353,-15.823 -3.301,-17.053 0.853,-20.125c3.734,-2.761 3.913,-3.397 3.913,-13.98c0,-10.996 0.068,-11.209 8.349,-26.069c5.057,-9.074 11.287,-17.967 15.799,-22.552c4.098,-4.164 7.834,-9.096 8.302,-10.962c1.524,-6.075 -3.367,-11.196 -9.028,-9.452z" data-paper-data="{&quot;wickUUID&quot;:&quot;1d1997da-4055-4684-9e69-e5a16d82a934&quot;,&quot;wickType&quot;:&quot;path&quot;,&quot;originalStyle&quot;:{&quot;strokeColor&quot;:null,&quot;fillColor&quot;:[&quot;Color&quot;,0,0,0],&quot;strokeWidth&quot;:1}}" fill="#000000"/><path d="M363.43938,238.77357c0,1.167 6.478,1.872 40.645,4.424c18.815,1.404 54.423,0.355 54.423,-1.605c0,-0.63 -12.245,-1.14 -27.212,-1.132c-14.966,0.008 -31.861,-0.614 -37.544,-1.381c-12.715,-1.716 -30.312,-1.894 -30.312,-0.306z" data-paper-data="{&quot;wickUUID&quot;:&quot;0d1a81c7-210c-4e0f-a510-afa58d6eae28&quot;,&quot;wickType&quot;:&quot;path&quot;,&quot;originalStyle&quot;:{&quot;strokeColor&quot;:null,&quot;fillColor&quot;:[&quot;Color&quot;,0,0,0],&quot;strokeWidth&quot;:1}}" fill="#000000"/><path d="M381.60141,-12.89245c-11.408,5.038 -20.524,17.021 -33.985,44.672c-16.427,33.745 -26.996,68.262 -27.288,89.12c-0.132,9.485 0.099,10.68 2.435,12.572c3.502,2.836 7.186,1.641 9.105,-2.954c0.862,-2.06 2.682,-9.361 4.047,-16.223c2.031,-10.213 8.393,-31.4 12.286,-40.915c1.649,-4.031 2.932,-1.94 2.932,4.779c0,8.304 8.292,48.389 11.518,55.683c3.29,7.438 5.439,8.255 19.212,7.306c6.36,-0.438 12.282,-1.072 13.16,-1.409c3.349,-1.285 4.44,-6.864 3.109,-15.891c-0.695,-4.717 -2.107,-19.386 -3.137,-32.598c-2.071,-26.577 -1.424,-42.551 3.127,-77.16c2.666,-20.275 2.311,-24.36 -2.276,-26.162c-1.712,-0.672 -4.029,-1.693 -5.148,-2.268c-2.622,-1.348 -2.847,-1.312 -9.097,1.448zM371.49641,19.28355c-5.594,9.612 -10.364,17.705 -10.599,17.984c-0.236,0.279 -1.059,-0.123 -1.83,-0.894c-2.601,-2.601 8.155,-21.831 18.328,-32.766c1.973,-2.122 3.742,-3.394 3.93,-2.829c0.189,0.566 -4.234,8.893 -9.829,18.505zM386.98741,18.30355c-0.347,1.128 -1.459,11.542 -2.473,23.143c-1.519,17.402 -1.623,25.093 -0.593,43.944c0.687,12.568 1.754,26.014 2.371,29.881c2.267,14.212 2.327,13.909 -2.934,14.848c-8.739,1.56 -9.958,1.262 -11.677,-2.851c-2.938,-7.031 -9.81,-43.487 -10.614,-56.306l-0.795,-12.669l3.988,-6.08c2.194,-3.344 7.894,-12.803 12.667,-21.02c7.796,-13.422 11.801,-18.553 10.06,-12.89z" data-paper-data="{&quot;wickUUID&quot;:&quot;17ac1f0c-3bab-4199-901d-7709032f4b6c&quot;,&quot;wickType&quot;:&quot;path&quot;,&quot;originalStyle&quot;:{&quot;strokeColor&quot;:null,&quot;fillColor&quot;:[&quot;Color&quot;,0,0,0],&quot;strokeWidth&quot;:1}}" fill="#000000"/><path d="M385.34792,-13.54245c-1.448,1.015 -4.472,5.497 -6.72,9.961c-3.377,6.706 -4.584,8.116 -6.947,8.116c-4.343,0 -8.82,2.459 -9.435,5.181c-5.424,24.011 -6.076,29.816 -5.541,49.309c0.141,5.156 -0.058,16.846 -0.444,25.977l-0.701,16.603l8.53,16.484c8.299,16.041 10.419,18.539 14.427,17.002c3.869,-1.485 3.926,-9.608 0.234,-33.881c-0.98,-6.445 -2.139,-23.38 -2.576,-37.633c-0.749,-24.417 -0.642,-26.551 1.856,-36.912c2.492,-10.339 9.504,-26.28 14.313,-32.541c2.63,-3.423 2.703,-5.271 0.306,-7.669c-2.322,-2.321 -3.984,-2.321 -7.302,0.003z" data-paper-data="{&quot;wickUUID&quot;:&quot;1ac56267-3497-434f-b714-3c9bdcf95b47&quot;,&quot;wickType&quot;:&quot;path&quot;,&quot;originalStyle&quot;:{&quot;strokeColor&quot;:null,&quot;fillColor&quot;:[&quot;Color&quot;,0,0,0],&quot;strokeWidth&quot;:1}}" fill="#000000"/><path d="M489.68071,-13.33545c-1.282,1.128 -3.446,5.478 -4.808,9.667c-2.399,7.375 -6.01,29.241 -6.01,36.391c0,3.908 -6.25,17.028 -12.808,26.888c-7.816,11.75 -20.013,38.902 -21.833,48.6c-0.765,4.079 -2.431,8.954 -6.477,18.954c-2.541,6.281 0.168,8.799 12.106,11.251c5.492,1.128 13.572,2.05 17.956,2.05h7.971l5.565,-5.773c6.19,-6.422 7.651,-10.243 9.218,-24.108c3.167,-28.035 8.569,-58.874 9.75,-55.662c0.356,0.967 1.772,7.295 3.146,14.062c5.383,26.492 16.133,58.919 21.668,65.353c1.99,2.314 3.225,2.799 5.605,2.202c4.254,-1.068 5.012,-4.567 2.129,-9.838c-8.587,-15.701 -18.473,-51.995 -26.575,-97.559c-0.974,-5.478 -2.376,-12.333 -3.115,-15.233c-0.74,-2.901 -1.54,-9.326 -1.78,-14.278c-0.363,-7.5 -0.901,-9.506 -3.222,-12.011c-3.275,-3.534 -5.297,-3.762 -8.486,-0.956zM487.26771,61.55655c-1.965,10.208 -4.15,23.306 -4.856,29.107c-0.706,5.801 -1.769,14.622 -2.363,19.604c-1.755,14.742 -5.4,19.656 -14.574,19.646c-7.52,-0.009 -14.736,-1.975 -14.736,-4.016c0,-1.728 2.309,-10.041 6.043,-21.758c2.929,-9.19 13.823,-32.336 18.393,-39.078c1.814,-2.676 5.619,-9.198 8.455,-14.493c2.952,-5.511 5.595,-9.188 6.183,-8.6c0.588,0.587 -0.5,8.962 -2.545,19.588z" data-paper-data="{&quot;wickUUID&quot;:&quot;26c11508-6193-44ea-bd14-d3d05f2ae51e&quot;,&quot;wickType&quot;:&quot;path&quot;,&quot;originalStyle&quot;:{&quot;strokeColor&quot;:null,&quot;fillColor&quot;:[&quot;Color&quot;,0,0,0],&quot;strokeWidth&quot;:1}}" fill="#000000"/><path d="M490.93633,-15.43744c-2.08133,1.09967 -4.10882,3.99199 -6.21749,9.18199c-2.21333,5.44667 -5.90732,25.60109 -6.85832,37.43409c-0.24933,3.10133 -0.43821,3.91838 -1.79988,7.35105c-2.145,5.40733 -5.64771,12.10657 -9.96738,19.06857c-4.76833,7.68533 -6.29647,10.46907 -10.5658,19.21607c-6.08533,12.468 -10.42514,23.41314 -12.17981,30.72181c-1.22033,5.084 -2.21731,8.15011 -4.85064,14.91644c-2.59833,6.676 -2.8622,9.28414 -1.96387,11.02981c1.169,2.27167 6.06977,4.5156 13.60944,6.00693c5.82433,1.15233 14.53055,2.02374 20.31422,2.02441l5.79565,-0.08301l4.74256,-4.99645c2.46233,-2.63633 5.14074,-5.90012 5.75974,-6.93179c2.57467,-4.29 3.60389,-8.63805 5.24656,-22.26172c1.831,-15.186 4.6071,-33.70991 6.28143,-41.91824l-0.81487,-3.31373l0.30879,5.19777c0.79167,10.26767 1.44463,12.92751 6.62363,26.99084c6.40567,17.39367 10.12596,29.01707 10.79263,33.71807c0.414,2.92 1.64083,5.41334 3.44083,7.03934c1.13833,1.02867 2.1375,1.55034 3.37883,1.55034c0.81567,0 1.95068,-0.15746 2.40101,-0.36279c0.70567,-0.32133 0.78586,-0.27654 1.86719,0.54746c1.007,0.76767 1.96223,0.9705 3.22123,0.93117c2.02033,-0.063 4.5638,-1.58958 5.38013,-2.88758c1.154,-1.83467 0.72056,-4.48619 -1.80744,-9.83652c-3.083,-6.525 -4.30023,-9.54911 -6.78023,-16.88778c-6.47933,-19.174 -11.96074,-41.58949 -17.94241,-73.37049c-1.20767,-6.41667 -2.78062,-14.38469 -3.50929,-17.77636c-1.33633,-6.219 -2.02958,-11.38167 -2.64891,-19.736c-0.376,-5.072 -1.15558,-7.50004 -2.90325,-9.70704c-2.48367,-3.13567 -5.81995,-4.19566 -8.35428,-2.85666zM488.32763,48.79519c-0.29433,2.15333 -1.5637,9.67936 -2.82303,16.73769c-3.01767,16.91433 -3.45349,19.73657 -4.84082,31.34524c-0.646,5.40833 -1.36477,11.4024 -1.6431,13.51073c-1.523,11.53667 -3.79797,16.26081 -9.00497,17.86914c-4.93233,1.52333 -15.33125,0.16337 -18.13325,-2.24663l-0.19873,-0.02858l0.5532,-2.52007c0.794,-3.85667 4.88369,-17.3042 6.91002,-22.71287c3.93567,-10.50267 12.00656,-27.22259 17.15023,-35.53092c1.589,-2.56667 4.73314,-7.91793 7.01981,-11.95126c2.28667,-4.03333 4.76667,-8.14035 5.52467,-9.14868l0.79903,-1.44737l-0.8881,0.70702c0.056,0.87167 -0.13096,3.26323 -0.42496,5.41656z" data-paper-data="{&quot;wickUUID&quot;:&quot;df3df509-f251-490c-bdb0-ed9cf010d934&quot;,&quot;wickType&quot;:&quot;path&quot;,&quot;originalStyle&quot;:{&quot;strokeColor&quot;:null,&quot;fillColor&quot;:[&quot;Color&quot;,0,0,0],&quot;strokeWidth&quot;:1}}" fill="#000000"/><path d="M487.73428,16.92195c-2.761,2.762 -2.242,7.598 1.774,16.506c7.431,16.484 8.285,19.513 9.198,32.627c0.803,11.541 1.514,14.485 6.788,28.124c5.915,15.296 10.877,31.15 10.87,34.732c-0.002,1.056 0.962,3.113 2.142,4.571c1.627,2.008 2.872,2.468 5.144,1.898c1.649,-0.414 3.31,-1.565 3.691,-2.558c1.315,-3.427 -4.159,-23.038 -11.93,-42.744c-4.668,-11.838 -5.41,-14.972 -6.103,-25.78c-0.818,-12.755 -3.622,-22.689 -9.9,-35.079c-1.633,-3.221 -2.969,-7.175 -2.969,-8.785c0,-1.694 -0.954,-3.438 -2.266,-4.14c-3.08,-1.648 -4.279,-1.531 -6.439,0.628z" data-paper-data="{&quot;wickUUID&quot;:&quot;1189fed4-2cb9-45f6-8aa2-0463f5a4c2fa&quot;,&quot;wickType&quot;:&quot;path&quot;,&quot;originalStyle&quot;:{&quot;strokeColor&quot;:null,&quot;fillColor&quot;:[&quot;Color&quot;,0,0,0],&quot;strokeWidth&quot;:1}}" fill="#000000"/><path d="M481.53024,-24.83568c-2.171,1.348 -4.11,3.731 -4.56,5.604c-0.431,1.793 -1.849,5.369 -3.151,7.947c-1.302,2.578 -3.9,8.905 -5.775,14.061c-1.874,5.157 -5.533,15.176 -8.131,22.265c-13.461,36.734 -14.705,40.866 -15.526,51.56c-0.873,11.37 -3.548,29.468 -5.195,35.155c-0.561,1.934 -2.191,6.236 -3.623,9.561c-2.939,6.82 -2.111,10.388 2.69,11.592c6.266,1.573 38.55,-0.992 44.422,-3.529c2.919,-1.262 3.94,-6.266 1.729,-8.477c-1.556,-1.556 -2.977,-1.596 -10.991,-0.311c-5.063,0.811 -12.896,1.528 -17.407,1.593c-6.737,0.096 -8.127,-0.197 -7.779,-1.64c0.233,-0.967 1.449,-7.031 2.701,-13.476c1.253,-6.445 2.506,-12.842 2.786,-14.215c0.279,-1.373 1.576,-2.776 2.88,-3.117c1.331,-0.348 3.206,-2.596 4.271,-5.12c1.831,-4.342 1.94,-4.407 3.104,-1.838c1.681,3.71 6.327,4.68 9.03,1.886c1.174,-1.213 4.602,-7.214 7.62,-13.337c3.017,-6.123 8.074,-16.291 11.236,-22.596c5.876,-11.714 6.828,-15.699 4.344,-18.183c-1.839,-1.84 -6.401,-1.804 -7.606,0.058c-0.522,0.806 -2.301,4.597 -3.955,8.424c-3.803,8.802 -6.402,10.165 -5.457,2.863c1.154,-8.926 7.564,-35.171 8.92,-36.527c1.871,-1.871 1.603,-7.327 -0.443,-9.025c-0.96,-0.796 -1.428,-1.961 -1.04,-2.589c0.388,-0.627 2.385,0.487 4.437,2.477c4.163,4.035 6.664,4.507 9.396,1.775c3.924,-3.924 0.937,-18.442 -4.532,-22.026c-4.722,-3.094 -10.224,-3.406 -14.395,-0.815zM468.39024,68.61132c-1.374,3.75 -2.756,7.553 -3.072,8.451c-0.315,0.898 -0.826,1.38 -1.134,1.071c-0.309,-0.309 0.5,-3.68 1.798,-7.491c3.457,-10.156 3.501,-10.255 4.233,-9.523c0.37,0.37 -0.451,3.741 -1.825,7.492z" data-paper-data="{&quot;wickUUID&quot;:&quot;ff4443a1-8037-458f-8f7a-d462b81d9163&quot;,&quot;wickType&quot;:&quot;path&quot;,&quot;originalStyle&quot;:{&quot;strokeColor&quot;:null,&quot;fillColor&quot;:[&quot;Color&quot;,0,0,0],&quot;strokeWidth&quot;:1}}" fill="#000000"/><path d="M515.65953,289.793c-1.318,0.923 -3.053,3.874 -3.858,6.56c-2.053,6.852 -9.517,14.425 -20.77,21.072c-18.492,10.922 -34.461,14.37 -65.445,14.131c-16.553,-0.128 -14.757,0.29 -49.42,-11.488l-27.113,-9.213l-8.198,-7.268c-8.598,-7.623 -12.226,-8.856 -14.354,-4.881c-2.001,3.739 -0.574,6.053 8.875,14.393c8.593,7.584 9.254,7.92 26.639,13.56c9.805,3.18 24.156,7.993 31.89,10.694l14.062,4.911l19.921,-0.026c30.978,-0.04 47.392,-3.484 65.611,-13.768c16.767,-9.463 26.014,-19.166 29.877,-31.346c1.231,-3.88 1.147,-4.766 -0.637,-6.738c-2.452,-2.709 -3.888,-2.829 -7.08,-0.593z" data-paper-data="{&quot;wickUUID&quot;:&quot;ec90b9b5-a167-4f1c-b56b-e9fe60ae4193&quot;,&quot;wickType&quot;:&quot;path&quot;,&quot;originalStyle&quot;:{&quot;strokeColor&quot;:null,&quot;fillColor&quot;:[&quot;Color&quot;,0,0,0],&quot;strokeWidth&quot;:1}}" fill="#000000"/><path d="M420.27148,87.32715c-2.256,0.264 -7.981,1.255 -12.723,2.201c-4.741,0.947 -10.278,1.728 -12.304,1.736c-2.026,0.007 -7.902,1.902 -13.058,4.209c-5.156,2.308 -11.483,4.892 -14.061,5.744c-2.578,0.851 -8.906,3.782 -14.062,6.513c-33.789,17.899 -50.107,35.852 -57.939,63.743l-3.582,12.757v37.804c0,39.924 0.618,46.286 5.912,60.903c2.168,5.983 4.229,8.59 14.999,18.97c12.727,12.266 16.44,14.543 19.532,11.976c3.874,-3.215 2.005,-6.59 -9.513,-17.178c-11.94,-10.977 -14.006,-14.055 -17.562,-26.167c-2.012,-6.854 -2.231,-11.606 -2.185,-47.459c0.048,-37.962 0.177,-40.284 2.739,-49.216c2.735,-9.533 7.402,-19.037 12.907,-26.282c9.236,-12.155 34.473,-29.491 52.409,-36.002c4.141,-1.503 8.704,-3.461 10.14,-4.35c6.435,-3.989 20.628,-6.923 44.479,-9.196c14.189,-1.352 15.039,-1.292 46.604,3.3c20.811,3.027 44.993,12.377 62.692,24.241c8.486,5.687 35.501,31.879 37.117,35.985c3.982,10.116 3.14,49.76 -1.514,71.277c-4.916,22.722 -11.242,35.468 -24.957,50.282c-7.406,7.999 -14.972,12.46 -25.168,14.839c-8.478,1.977 -10.672,3.468 -10.672,7.252c0,6.405 10.573,5.982 25.78,-1.03c14.989,-6.912 32.851,-28.583 39.801,-48.289c10.147,-28.768 13.535,-75.431 7.108,-97.907c-1.391,-4.867 -26.531,-30.489 -38.361,-39.097c-15.43,-11.227 -40.522,-22.231 -61.796,-27.101c-14.78,-3.384 -50.347,-5.91 -62.762,-4.458z" data-paper-data="{&quot;wickUUID&quot;:&quot;7bd33644-fc16-421c-9254-4081ab8ed200&quot;,&quot;wickType&quot;:&quot;path&quot;,&quot;originalStyle&quot;:{&quot;strokeColor&quot;:null,&quot;fillColor&quot;:[&quot;Color&quot;,0,0,0],&quot;strokeWidth&quot;:1}}" fill="#000000"/><path d="M229.90452,-49.47855c-2.923,5.821 -6.354,14.423 -7.623,19.115c-4.147,15.328 -25.625,153.206 -27.491,176.473c-1.655,20.645 -1.564,24.824 0.539,24.824c2.305,0 21.41,17.143 32.155,28.853c21.733,23.684 58.581,60.402 63.557,63.333c5.808,3.421 9.335,2.851 10.475,-1.692c0.64,-2.549 0.175,-3.514 -2.634,-5.461c-3.863,-2.679 -40.956,-39.557 -65.551,-65.171c-9.004,-9.378 -19.21,-19.399 -22.68,-22.268l-6.308,-5.217l1.417,-18.16c1.924,-24.656 24.783,-167.913 28.422,-178.114c1.494,-4.19 3.237,-7.532 3.873,-7.428c1.288,0.212 16.848,43.495 29.84,83.01c4.662,14.179 9.151,26.489 9.975,27.355c0.825,0.866 5.913,2.324 11.308,3.24c5.395,0.916 18.246,4.001 28.558,6.855c10.312,2.854 26.395,7.059 35.741,9.346c9.345,2.286 19.364,4.766 22.264,5.511c2.901,0.745 7.91,1.78 11.133,2.302c3.222,0.521 7.577,1.295 9.678,1.721c4.506,0.912 7.313,-0.919 7.313,-4.769c0,-3.622 -2.026,-5.007 -9.462,-6.473c-22.679,-4.47 -45.019,-9.857 -70.222,-16.932c-9.99,-2.805 -22.728,-5.999 -28.306,-7.099l-10.144,-1.999l-7.048,-20.075c-3.877,-11.042 -7.872,-23.239 -8.879,-27.106c-2.875,-11.044 -23.844,-67.602 -26.279,-70.878c-1.204,-1.621 -3.565,-3.112 -5.247,-3.313c-2.783,-0.334 -3.536,0.585 -8.374,10.217z" data-paper-data="{&quot;wickUUID&quot;:&quot;547fcb0a-deac-49c6-adaf-237678bb1d53&quot;,&quot;wickType&quot;:&quot;path&quot;,&quot;originalStyle&quot;:{&quot;strokeColor&quot;:null,&quot;fillColor&quot;:[&quot;Color&quot;,0,0,0],&quot;strokeWidth&quot;:1}}" fill="#000000"/><path d="M551.48108,-82.72583c-2.024,2.44 -0.309,10.01 7.692,33.942c3.447,10.312 11.539,39.579 17.983,65.037c6.443,25.457 13.509,52.503 15.702,60.101c2.193,7.598 3.535,14.094 2.984,14.435c-0.551,0.34 -7.718,1.379 -15.927,2.308c-8.208,0.929 -20.988,2.458 -28.4,3.397c-7.411,0.938 -21.747,1.724 -31.856,1.746c-19.364,0.042 -23.741,0.832 -24.903,4.495c-0.846,2.665 0.146,5.724 2.067,6.379c3.361,1.145 53.388,-1.476 68.754,-3.602c9.345,-1.293 22.23,-2.937 28.632,-3.654c6.402,-0.717 12.334,-1.88 13.183,-2.584c2.378,-1.974 1.84,-6.371 -2.42,-19.743c-2.155,-6.767 -9.275,-33.397 -15.821,-59.177c-6.546,-25.78 -14.304,-54.435 -17.241,-63.678c-2.936,-9.243 -5.114,-17.03 -4.839,-17.305c1.148,-1.148 18.96,19.225 34.247,39.17c13.475,17.582 19.719,27.204 34.957,53.874c10.204,17.857 19.925,34.314 21.602,36.57c6.675,8.978 35.089,45.522 40.364,51.914c3.086,3.739 5.611,7.254 5.611,7.81c0,2.723 -30.717,26.793 -58.591,45.913c-24.38,16.723 -38.852,28.757 -48.045,39.95c-8.499,10.35 -13.127,14.455 -24.904,22.092c-5.898,3.825 -8.025,8.057 -5.55,11.039c2.3,2.771 6.034,2.053 12.313,-2.368c3.21,-2.261 7.773,-5.405 10.139,-6.987c4.068,-2.721 16.945,-16.763 20.046,-21.86c1.844,-3.031 28.595,-23.943 39.735,-31.061c4.714,-3.012 10.91,-7.373 13.769,-9.692c2.859,-2.319 11.379,-8.698 18.934,-14.176c19.061,-13.823 33.873,-27.466 33.873,-31.2c0,-3.939 -2.89,-9.257 -8.835,-16.259c-2.737,-3.223 -13.42,-16.787 -23.742,-30.143c-16.443,-21.276 -21.03,-28.265 -37.04,-56.44c-23.538,-41.421 -44.463,-69.607 -70.78,-95.343c-17.285,-16.902 -20.403,-18.863 -23.693,-14.9z" data-paper-data="{&quot;wickUUID&quot;:&quot;ec6012e3-92cc-4fba-bd95-f045f59209a6&quot;,&quot;wickType&quot;:&quot;path&quot;,&quot;originalStyle&quot;:{&quot;strokeColor&quot;:null,&quot;fillColor&quot;:[&quot;Color&quot;,0,0,0],&quot;strokeWidth&quot;:1}}" fill="#000000"/><path d="M160.55322,285.62836c-2.331,0.867 -3.901,3.729 -3.22,5.874c0.287,0.905 2.835,4.41 5.661,7.789c2.826,3.379 7.375,9.079 10.109,12.667c7.4,9.711 5.242,9.585 41.718,2.443c43.215,-8.461 64.625,-11.907 81.509,-13.117c14.396,-1.031 14.758,-1.104 16.699,-3.361c2.533,-2.944 2.498,-4.311 -0.177,-6.987c-1.542,-1.541 -2.694,-2.011 -4.016,-1.638c-1.021,0.287 -7.372,0.91 -14.115,1.384c-14.376,1.009 -42.678,5.572 -81.493,13.138c-15.291,2.98 -27.917,5.419 -28.056,5.419c-0.14,0 -3.852,-4.471 -8.248,-9.935c-10.887,-13.529 -12.698,-15.041 -16.371,-13.676z" data-paper-data="{&quot;wickUUID&quot;:&quot;0b11ab39-606d-4a1f-b0de-5278775ed2a5&quot;,&quot;wickType&quot;:&quot;path&quot;,&quot;originalStyle&quot;:{&quot;strokeColor&quot;:null,&quot;fillColor&quot;:[&quot;Color&quot;,0,0,0],&quot;strokeWidth&quot;:1}}" fill="#000000"/><path d="M554.67422,277.49486c-2.322,2.322 -2.438,3.258 -1.224,9.827c2.101,11.368 2.813,42.021 1.804,77.721c-0.675,23.874 -1.949,44.841 -5.158,84.885c-2.343,29.248 -4.299,56.072 -4.345,59.607c-0.047,3.536 -0.349,7.381 -0.672,8.543c-0.987,3.551 -5.741,4.057 -38.983,4.145c-29.175,0.077 -31.197,-0.028 -72.29,-3.762c-23.251,-2.113 -49.222,-4.071 -57.712,-4.352l-15.437,-0.51l0.537,-10.232l0.537,-10.231l-4.407,-16.91c-2.423,-9.301 -6.448,-24.965 -8.942,-34.811l-4.537,-17.9l-4.281,-50.585c-4.723,-55.793 -5.402,-61.684 -7.366,-63.854c-1.863,-2.058 -4.129,-2.632 -6.142,-1.555c-2.854,1.528 -3.526,3.702 -2.538,8.213c0.491,2.241 2.943,28.044 5.449,57.341l4.556,53.266l3.77,14.797c2.074,8.138 6.09,23.768 8.925,34.733l5.155,19.937l-0.882,10.86c-0.485,5.974 -0.654,11.896 -0.376,13.161c1.051,4.786 1.569,4.898 24.526,5.292c16.163,0.278 29.846,1.199 58.32,3.927c36.058,3.455 38.241,3.569 71.022,3.696c30.849,0.119 34.394,-0.013 40.359,-1.501c10.71,-2.671 10.614,-2.474 12.077,-24.657c0.672,-10.188 2.939,-40.124 5.038,-66.526c3.284,-41.301 3.929,-53.379 4.616,-86.513c0.44,-21.18 0.651,-38.958 0.469,-39.506c-0.182,-0.548 -0.756,-7.465 -1.275,-15.37c-1.08,-16.437 -1.825,-20.131 -4.425,-21.952c-2.554,-1.789 -3.755,-1.637 -6.168,0.776z" data-paper-data="{&quot;wickUUID&quot;:&quot;56fdd24b-e6b1-4f8e-9a93-f7f66a091e9a&quot;,&quot;wickType&quot;:&quot;path&quot;,&quot;originalStyle&quot;:{&quot;strokeColor&quot;:null,&quot;fillColor&quot;:[&quot;Color&quot;,0,0,0],&quot;strokeWidth&quot;:1}}" fill="#000000"/><path d="M681.11511,264.57934c-14.19,1.435 -51.457,4.891 -71.445,6.626c-24.22,2.103 -41.224,4.397 -48.602,6.557c-5.023,1.47 -6.981,4.581 -5.047,8.019c1.128,2.004 1.828,2.32 5.073,2.287c2.071,-0.02 8.521,-0.89 14.334,-1.933c5.812,-1.043 25.787,-3.229 44.388,-4.858c18.601,-1.629 38.957,-3.516 45.235,-4.194c6.277,-0.678 20.545,-1.647 31.706,-2.153c11.161,-0.507 21.156,-1.264 22.211,-1.683c1.842,-0.732 2.964,-2.699 4.084,-7.162l0.521,-2.076l-19.749,0.135c-10.862,0.075 -21.081,0.27 -22.709,0.435z" data-paper-data="{&quot;wickUUID&quot;:&quot;0e544281-fcc7-4b30-a790-383980e08649&quot;,&quot;wickType&quot;:&quot;path&quot;,&quot;originalStyle&quot;:{&quot;strokeColor&quot;:null,&quot;fillColor&quot;:[&quot;Color&quot;,0,0,0],&quot;strokeWidth&quot;:1}}" fill="#000000"/><path d="M743.29013,195.73791c-1.002,0.742 -5.655,12.031 -10.34,25.086c-7.595,21.162 -13.232,36.19 -17.484,46.611c-1.247,3.053 -1.178,3.708 0.593,5.664c3.816,4.217 6.918,2.513 11.303,-6.208c1.92,-3.818 21.761,-57.525 24.272,-65.703c0.508,-1.654 0.059,-3.042 -1.484,-4.585c-2.548,-2.548 -4.289,-2.768 -6.86,-0.865z" data-paper-data="{&quot;wickUUID&quot;:&quot;d52151f5-91c6-4565-b87e-89244d5a0d27&quot;,&quot;wickType&quot;:&quot;path&quot;,&quot;originalStyle&quot;:{&quot;strokeColor&quot;:null,&quot;fillColor&quot;:[&quot;Color&quot;,0,0,0],&quot;strokeWidth&quot;:1}}" fill="#000000"/><path d="M365.98717,525.33691c-5.044,5.193 -13.904,13.704 -19.689,18.914c-5.944,5.354 -10.811,10.641 -11.192,12.159c-1.872,7.459 14.988,37.07 32.183,56.522c11.314,12.8 24.972,30.178 24.269,30.881c-0.256,0.256 -4.895,-0.522 -10.31,-1.728c-15.59,-3.473 -19.577,-2.82 -19.577,3.202c0,3.546 1.823,5.392 5.341,5.408c1.513,0.007 9.981,1.706 18.817,3.776c8.836,2.07 17.419,3.764 19.074,3.764c3.608,0 6.405,-2.514 6.387,-5.742c-0.016,-2.7 -19.854,-28.769 -34.741,-45.651c-10.021,-11.365 -26.663,-36.225 -29.01,-43.335l-1.257,-3.809l7.995,-7.646c4.397,-4.206 11.462,-10.849 15.7,-14.762c7.856,-7.254 12.183,-13.03 12.19,-16.275c0.005,-2.347 -2.883,-5.214 -5.198,-5.16c-0.996,0.022 -5.938,4.29 -10.982,9.482z" data-paper-data="{&quot;wickUUID&quot;:&quot;9cc93332-d3c8-4bae-9f22-54cf2df7aea2&quot;,&quot;wickType&quot;:&quot;path&quot;,&quot;originalStyle&quot;:{&quot;strokeColor&quot;:null,&quot;fillColor&quot;:[&quot;Color&quot;,0,0,0],&quot;strokeWidth&quot;:1}}" fill="#000000"/><path d="M497.24713,522.1015c-2.682,2.963 -2.236,9.74 1.977,30.054c2.9,13.986 5.769,23.585 12.518,41.881c4.816,13.056 9.879,26.893 11.251,30.751c5.163,14.509 31.811,114.778 31.811,119.695c0,1.196 2.326,4.615 5.17,7.596c5.671,5.946 10.014,7.147 12.055,3.333c1.809,-3.38 1.327,-5.224 -2.489,-9.509c-3.189,-3.582 -4.192,-6.414 -8.697,-24.549c-12.527,-50.436 -25.647,-95.75 -35.071,-121.127c-5.231,-14.086 -10.301,-28.038 -11.267,-31.006c-2.453,-7.534 -8.254,-36.73 -8.254,-41.54c0,-6.468 -5.254,-9.723 -9.004,-5.579z" data-paper-data="{&quot;wickUUID&quot;:&quot;c39afdf5-2389-46a9-8ca0-19a9952a2be8&quot;,&quot;wickType&quot;:&quot;path&quot;,&quot;originalStyle&quot;:{&quot;strokeColor&quot;:null,&quot;fillColor&quot;:[&quot;Color&quot;,0,0,0],&quot;strokeWidth&quot;:1}}" fill="#000000"/></g><g fill="none" fill-rule="nonzero" stroke="none" stroke-width="1" stroke-linecap="butt" stroke-linejoin="miter" stroke-miterlimit="10" stroke-dasharray="" stroke-dashoffset="0" font-family="sans-serif" font-weight="normal" font-size="12" text-anchor="start" style="mix-blend-mode: normal"/><g id="wick_project_gui" fill="none" fill-rule="nonzero" stroke="none" stroke-width="1" stroke-linecap="butt" stroke-linejoin="miter" stroke-miterlimit="10" stroke-dasharray="" stroke-dashoffset="0" font-family="sans-serif" font-weight="normal" font-size="12" text-anchor="start" style="mix-blend-mode: normal"/></g></svg>