<svg version="1.1" xmlns="http://www.w3.org/2000/svg" xmlns:xlink="http://www.w3.org/1999/xlink" width="1260" height="594" viewBox="0,0,1260,594"><g transform="translate(479.91246,62.26383) scale(0.94565,0.94565)"><g id="wick_project_bg" fill="#999999" fill-rule="nonzero" stroke="none" stroke-width="1" stroke-linecap="butt" stroke-linejoin="miter" stroke-miterlimit="10" stroke-dasharray="" stroke-dashoffset="0" font-family="none" font-weight="none" font-size="none" text-anchor="none" style="mix-blend-mode: normal"><rect x="0" y="0" width="720" height="480"/></g><g data-paper-data="{&quot;wickUUID&quot;:&quot;e33ce946-5735-4fb0-b020-80ed060c851d&quot;,&quot;wickType&quot;:&quot;clipsandpaths&quot;}" fill="none" fill-rule="evenodd" stroke="none" stroke-width="1" stroke-linecap="butt" stroke-linejoin="miter" stroke-miterlimit="10" stroke-dasharray="" stroke-dashoffset="0" font-family="none" font-weight="none" font-size="none" text-anchor="none" style="mix-blend-mode: normal"><path d="M10.34918,254.69185c-15.49167,3.71333 -21.18609,6.1631 -33.45509,14.34977c-19.709,13.151 -31.73387,22.24955 -38.1242,28.85488c-3.61667,3.73867 -4.83436,5.35975 -6.72236,9.12542l-1.37568,3.55972l6.18374,5.89427c13.57567,12.825 24.25915,21.92873 34.43048,29.3404c3.85567,2.80967 7.65046,4.91184 7.97613,4.58651c0.08667,-0.087 1.32166,-2.919 1.77133,-5.457c0.44933,-2.53767 1.18282,-6.33892 1.65215,-8.53892c2.039,-9.559 10.03746,-35.09924 14.56946,-46.51724c5.30267,-13.36 11.91369,-26.02961 16.15969,-30.98194c0.943,-1.1 1.93358,-2.29158 2.29891,-2.79591l0.81024,-1.69653l-1.88665,-0.56044c-0.51667,0.015 -2.54648,0.41934 -4.28815,0.83701z" data-paper-data="{&quot;wickUUID&quot;:&quot;117a3d7a-dd63-405d-aff6-9df9ea801b3f&quot;,&quot;wickType&quot;:&quot;path&quot;}" fill="#ff8000"/><path d="M105.37641,115.51438c-2.807,0.43367 -5.76848,1.41639 -7.91781,2.51339c-3.34467,1.707 -3.47813,1.86839 -2.33213,6.62839c1.22267,5.079 1.69455,8.83813 1.69455,13.32213l0.05202,3.62811l2.06463,1.20447c3.753,1.70233 6.19378,2.63268 6.90045,2.63268c1.53433,0 12.23931,5.04628 14.94364,7.04928c2.267,1.679 5.34844,4.93664 8.84211,9.32431c6.158,7.73367 8.91237,12.40703 12.74737,21.64536c3.41067,8.217 4.69556,12.40112 6.65456,21.58479l2.01929,2.95168l4.13764,-8.06999c8.673,-17.01233 14.21219,-25.22885 19.98852,-29.64152c1.28333,-0.98033 3.63816,-2.34211 5.51749,-3.27844c1.87933,-0.93633 3.82002,-2.46638 3.82002,-2.65171c0,-0.68267 -1.47949,-5.45478 -2.31249,-7.34178c-2.17667,-4.93 -8.86604,-14.58487 -12.69171,-18.40554c-6.807,-6.79867 -28.5123,-17.17846 -46.61963,-22.28313c-2.676,-0.75433 -4.09584,-0.93935 -9.34717,-1.02835c-3.3,-0.05567 -7.06835,0.04687 -8.16135,0.21587z" data-paper-data="{&quot;wickUUID&quot;:&quot;8e38453c-04e2-4c98-9733-22f8ee26c93f&quot;,&quot;wickType&quot;:&quot;path&quot;}" fill="#ff8000"/><path d="M171.52256,66.33985c-5.24467,0.74167 -5.38825,0.8427 -8.21692,5.8647c-3.783,6.716 -4.01365,7.28112 -3.52465,7.87045c0.23133,0.27867 1.82583,1.78176 3.14116,2.46009c5.41767,2.794 9.52038,6.05459 16.97005,13.52259c9.10567,9.128 13.00911,14.31049 17.18478,22.84416c4.01167,8.19767 6.62978,16.28957 7.49345,23.1259c0.429,3.39833 0.02603,9.52897 -0.9203,14.4743c-0.26867,1.40433 -0.0366,3.38083 0.00673,3.41783c0.04333,0.037 2.2726,-0.09804 4.38093,-0.44271c12.99467,-2.124 22.14902,-2.42543 33.23369,-1.0941l2.54389,-0.39958l0.0251,-6.51875c0,-7.41633 -0.42103,-9.29963 -3.3477,-15.76063c-3.493,-7.71067 -9.00409,-16.95282 -21.87442,-36.66682c-8.20467,-12.568 -8.53771,-13.00359 -14.21104,-18.92159c-5.39933,-5.63233 -8.81465,-8.2014 -15.22898,-11.4124l-5.3892,-2.68905l-4.61303,-0.09397c-2.40033,-0.035 -6.00354,0.18591 -7.65354,0.41958z" data-paper-data="{&quot;wickUUID&quot;:&quot;5d89d4b0-0dda-4586-9ee2-98da69849891&quot;,&quot;wickType&quot;:&quot;path&quot;}" fill="#ff8000"/><path d="M281.05858,236.67579c-0.60033,0.66733 -0.1727,1.81808 0.34263,2.33341c0.712,0.712 2.13621,-0.04799 2.00288,-1.38799l-0.54096,-2.13541z" data-paper-data="{&quot;wickUUID&quot;:&quot;85ac60f9-3792-4212-9a5b-ffe5119cb816&quot;,&quot;wickType&quot;:&quot;path&quot;}" fill="#ffffff"/><path d="M26.77781,233.72052c-2.264,1.121 -4.942,3.506 -6.533,5.818c-1.799,2.615 -3.351,3.921 -4.667,3.927c-1.084,0.004 -6.402,1.011 -11.817,2.237c-15.526,3.516 -23.705,7.953 -52.982,28.74c-16.116,11.442 -23.748,19.23 -28.147,28.716c-2.882,6.217 -3.265,7.727 -2.51,9.893c1.016,2.916 20.381,21.609 32.531,31.404c10.74,8.657 28.803,20.739 31.007,20.739c1.783,0 5.331,-2.922 5.331,-4.39c0,-0.444 1.034,-6.99 2.298,-14.545c3.125,-18.679 12.413,-47.107 21.451,-65.655c3.633,-7.457 7.74,-14.568 9.235,-15.994l2.692,-2.567l6.786,2.343c3.732,1.289 8.031,2.344 9.552,2.344c7.107,0 13.33,-6.687 13.33,-14.323c0,-6.478 -7.548,-16.285 -14.899,-19.357c-4.17,-1.742 -8.218,-1.527 -12.658,0.67zM13.47781,258.00252c-3.747,4.085 -8.657,13.011 -14.649,26.63c-5.674,12.897 -15.699,44.771 -17.456,55.498c-0.847,5.17 -1.66,9.532 -1.807,9.695c-1.407,1.557 -22.529,-14.958 -38.601,-30.181l-9.983,-9.456l2.097,-4.139c3.281,-6.474 12.058,-14.404 29.058,-26.253c19.084,-13.301 23.096,-15.845 29.987,-19.012c4.577,-2.103 19.695,-6.272 23.611,-6.511c0.678,-0.041 -0.337,1.637 -2.257,3.729z" data-paper-data="{&quot;wickUUID&quot;:&quot;83f1246d-a7ad-4547-b716-bcce34f8ade3&quot;,&quot;wickType&quot;:&quot;path&quot;}" fill="#000000"/><path d="M33.09131,197.80025c-6.162,1.304 -9.813,3.457 -11.122,6.558c-0.822,1.947 -1.165,6.523 -1.086,14.483c0.107,10.824 0.316,12.156 2.997,19.08c3.21,8.292 5.375,10.227 9.395,8.395c3.443,-1.569 3.717,-4.797 0.945,-11.168c-1.98,-4.553 -2.511,-7.38 -2.918,-15.535c-0.494,-9.917 -0.485,-9.973 1.646,-10.667c3.782,-1.231 12.672,-0.645 20.492,1.352c15.148,3.868 83.216,30.3 93.796,36.423c4.757,2.752 8.166,2.506 9.968,-0.719c1.063,-1.902 1.119,-2.839 0.282,-4.677c-1.78,-3.905 -21.828,-12.808 -67.607,-30.023c-32.784,-12.328 -46.704,-15.637 -56.788,-13.502z" data-paper-data="{&quot;wickUUID&quot;:&quot;1251201c-7c95-400f-944e-20cdfe86afe0&quot;,&quot;wickType&quot;:&quot;path&quot;}" fill="#000000"/><path d="M221.72401,157.22547c-22.681,2.245 -38.002,6.3 -46.414,12.285c-5.696,4.052 -11.261,12.05 -19.711,28.332c-11.526,22.21 -13.07,30.993 -8.193,46.597c2.704,8.649 5.694,13.665 16.489,27.662c16.24,21.057 30.431,34.749 41.757,40.289c7.381,3.61 7.756,3.693 15.177,3.344c7.047,-0.331 8.27,-0.694 16.56,-4.914c10.999,-5.599 12.602,-6.792 23.958,-17.822c11.807,-11.468 17.276,-18.656 24.308,-31.952c7.107,-13.437 8.638,-19.128 8.789,-32.678c0.147,-13.163 -1.274,-18.624 -8.481,-32.597c-4.636,-8.988 -6.584,-11.699 -13.243,-18.435c-8.924,-9.026 -19.452,-16.462 -26.107,-18.438c-4.85,-1.44 -18.184,-2.337 -24.889,-1.673zM243.85701,169.63447c9.84,2.937 26.17,18.59 32.658,31.304c5.765,11.297 6.973,16.027 6.973,27.301c0,11.512 -1.244,16.177 -7.402,27.749c-6.478,12.176 -11.854,19.105 -23.526,30.326c-8.859,8.517 -11.512,10.496 -19.292,14.39c-9.543,4.778 -15.111,5.752 -19.334,3.384c-7.752,-4.347 -15.531,-9.547 -18.823,-12.581c-6.056,-5.582 -17.996,-19.678 -26.968,-31.836c-6.698,-9.077 -8.588,-12.372 -10.42,-18.173c-4.083,-12.925 -3.025,-18.366 7.594,-39.029c6.991,-13.603 12.229,-21.37 16.369,-24.269c6.468,-4.531 23.14,-8.516 42.724,-10.213c5.614,-0.486 14.948,0.304 19.447,1.647z" data-paper-data="{&quot;wickUUID&quot;:&quot;b7dfa9dc-9a78-4f3f-9616-3a8530aaa8be&quot;,&quot;wickType&quot;:&quot;path&quot;}" fill="#000000"/><path d="M198.45106,197.80512c-2.743,2.743 -2.195,5.208 2.013,9.055c2.093,1.912 4.041,3.477 4.331,3.477c0.29,0 5.519,5.468 11.619,12.151c11.882,13.016 18.377,18.74 30.287,26.69c8.897,5.939 11.235,6.235 17.59,2.231c8.616,-5.429 16.027,-12.415 25.724,-24.245c5.271,-6.43 6.582,-9.599 5.111,-12.349c-2.661,-4.973 -7.513,-3.96 -11.204,2.339c-3.114,5.315 -19.411,21.709 -23.909,24.053l-3.335,1.738l-5.616,-3.91c-10.61,-7.386 -17.272,-13.342 -27.1,-24.229c-10.105,-11.192 -19.009,-18.791 -22.019,-18.791c-0.936,0 -2.508,0.806 -3.492,1.79z" data-paper-data="{&quot;wickUUID&quot;:&quot;58f34d2f-4db3-470b-ade5-4bf1c48b8b71&quot;,&quot;wickType&quot;:&quot;path&quot;}" fill="#000000"/><path d="M243.86586,239.2053c-3.184,2.418 -4.21,9.407 -2.397,16.336c1.671,6.39 2.873,8.639 5.061,9.471c4.271,1.624 10.104,-3.704 10.104,-9.228c0,-2.649 -2.36,-6.061 -4.193,-6.061c-1.147,0 -1.297,-0.683 -0.816,-3.694c1.003,-6.269 -3.396,-10.137 -7.759,-6.824z" data-paper-data="{&quot;wickUUID&quot;:&quot;a40d73a6-9084-4450-b4a8-377c3089f65d&quot;,&quot;wickType&quot;:&quot;path&quot;}" fill="#000000"/><path d="M273.50063,239.44202c-5.627,3.688 -6.932,13.219 -2.462,17.977c2.448,2.606 5.653,2.74 9.495,0.397c5.125,-3.124 6.277,-13.897 1.977,-18.475c-2.515,-2.676 -4.812,-2.651 -9.01,0.101z" data-paper-data="{&quot;wickUUID&quot;:&quot;e7fa86b7-0c95-4278-888a-38618d6c22d7&quot;,&quot;wickType&quot;:&quot;path&quot;}" fill="#000000"/><path d="M217.39942,168.17164c-14.75833,1.79633 -28.25952,5.18999 -34.27419,8.55332c-4.87667,2.72733 -10.19351,10.04863 -18.10684,25.16896c-3.56767,6.81633 -6.73943,13.8633 -8.23543,18.31163c-1.19667,3.55767 -1.4154,4.75887 -1.55773,8.3362c-0.18,4.521 0.33755,7.73052 2.05688,13.11619c2.02567,6.34533 4.09224,9.82796 12.28657,20.69763c12.281,16.291 23.22057,28.52278 29.44524,32.92578c3.86433,2.73333 12.29541,8.04354 14.83174,9.32887c1.723,0.873 2.79275,1.05776 5.47108,1.04043c3.675,-0.02333 7.42191,-1.21535 13.94358,-4.39568c7.614,-3.713 11.63455,-6.7507 21.03422,-15.8937c7.839,-7.625 13.26207,-14.12467 17.64374,-21.163c2.405,-3.863 2.79324,-5.03148 2.21224,-5.03148c-0.69633,0 -2.72481,-1.90582 -3.62114,-3.26015c-0.92633,-1.4 -1.69619,-4.02076 -1.70219,-5.69443l-1.05422,-1.683l-3.02368,1.93049c-3.18767,2.07767 -5.50257,3.07694 -7.13524,3.07994l-1.51649,0.3721l-0.09415,2.05563c-0.036,2.38467 -0.69762,4.25798 -2.61195,6.17365c-3.525,3.52667 -6.53937,3.80832 -8.82637,0.44499c-1.90233,-2.79833 -3.38146,-9.25666 -3.39779,-14.25366l-0.11647,-3.60473l-3.93075,-3.10861c-2.05967,-1.591 -5.52221,-4.54282 -7.75954,-6.61849c-4.04833,-3.75533 -6.314,-6.10795 -17.39867,-18.06228c-3.19767,-3.44833 -6.361,-6.61845 -7.02033,-7.03445c-2.164,-1.36633 -6.45295,-5.6106 -7.20528,-7.16493c-0.902,-1.86367 -0.75186,-2.30894 0.66981,-4.03394c1.10067,-1.33567 2.02523,-2.30545 3.16323,-2.30545c2.782,0 10.79158,6.70909 20.40425,17.06776c12.76167,13.75267 17.76093,18.25012 29.22326,26.29212c2.52233,1.76967 5.4392,3.41346 5.6402,3.41346c1.07333,0 5.73494,-2.9474 8.61427,-5.51007c4.019,-3.57633 14.48051,-14.27607 16.39718,-16.77174l1.61854,-2.23769l-0.51541,-2.83386c-0.27867,-1.34733 -0.93142,-3.64942 -1.39475,-4.95475c-1.28233,-3.61167 -5.32172,-11.75194 -7.33705,-14.84094c-7.54233,-11.55967 -21.11578,-23.75622 -29.53611,-26.58289c-5.619,-1.88633 -17.42426,-2.46956 -27.28426,-1.26923z" data-paper-data="{&quot;wickUUID&quot;:&quot;45a6ed02-0019-41c8-9ae7-e3c82461649b&quot;,&quot;wickType&quot;:&quot;path&quot;}" fill="#ffffff"/><path d="M99.52629,105.95503c-6.195,1.506 -11.254,4.534 -13.813,8.268c-2.498,3.647 -2.698,7.36 -0.669,12.42c0.975,2.429 1.45,6.487 1.476,12.616c0.033,7.448 0.315,9.281 1.606,10.425c0.862,0.763 5.997,2.861 11.413,4.662c5.415,1.801 11.492,4.238 13.503,5.416c5.715,3.346 14.749,15.316 18.241,24.169c1.165,2.954 2.862,6.874 3.77,8.711c0.909,1.837 2.441,7.275 3.404,12.084c0.963,4.809 2.555,10.824 3.538,13.367c0.983,2.542 2.056,7.376 2.384,10.741c0.674,6.901 2.161,9.252 5.853,9.252c5.878,0 6.779,-8.963 2.269,-22.569c-1.19,-3.587 -2.66,-8.939 -3.269,-11.893c-1.694,-8.227 -3.119,-12.673 -7.024,-21.931c-3.902,-9.248 -6.788,-13.818 -14.73,-23.321c-4.381,-5.242 -6.328,-6.755 -12.598,-9.79c-4.078,-1.974 -7.991,-3.598 -8.693,-3.609c-0.703,-0.011 -2.989,-0.797 -5.082,-1.746l-3.804,-1.727v-5.227c0,-2.874 -0.604,-7.546 -1.343,-10.381c-0.738,-2.835 -1.342,-5.329 -1.342,-5.541c0,-0.212 1.704,-1.255 3.788,-2.318c2.676,-1.365 6.027,-2.059 11.413,-2.361c6.476,-0.365 8.838,-0.067 15.681,1.973c18.707,5.578 39.523,16.061 44.977,22.651c7.327,8.853 11.577,16.062 13.141,22.289c1.727,6.879 3.391,9.262 6.47,9.262c2.476,0 5.687,-2.92 5.66,-5.147c-0.01,-0.862 -0.97,-4.807 -2.132,-8.767c-1.569,-5.346 -3.547,-9.265 -7.679,-15.217c-9.474,-13.65 -11.947,-15.699 -29.108,-24.119c-20.043,-9.835 -33.241,-13.916 -44.66,-13.809c-4.484,0.042 -10.172,0.567 -12.641,1.167z" data-paper-data="{&quot;wickUUID&quot;:&quot;dc21b4a2-1346-482a-88e3-5ae304ae9dac&quot;,&quot;wickType&quot;:&quot;path&quot;}" fill="#000000"/><path d="M171.82314,55.53385c-11.136,1.36 -13.942,3.843 -21.06,18.636c-5.072,10.539 -5.106,13.305 -0.186,14.716c8,2.294 14.455,6.546 22.642,14.914c14.215,14.53 21.111,29.004 20.901,43.871c-0.059,4.181 -0.564,8.704 -1.123,10.053c-3.06,7.388 5.861,12.173 9.517,5.104c0.776,-1.5 1.818,-6.382 2.317,-10.85c0.749,-6.707 0.649,-9.279 -0.572,-14.768c-1.819,-8.175 -5.397,-16.994 -10.162,-25.047c-5.106,-8.631 -21.32,-24.979 -28.542,-28.78c-3.077,-1.619 -5.595,-3.134 -5.595,-3.365c0,-1.177 5.415,-10.928 6.627,-11.934c0.774,-0.643 4.722,-1.371 8.819,-1.626c7.279,-0.454 7.549,-0.396 14.559,3.139c5.351,2.698 8.734,5.253 13.484,10.183c3.487,3.62 7.095,7.79 8.017,9.267c0.922,1.477 6.701,10.339 12.843,19.693c6.141,9.354 12.965,21.008 15.165,25.897c3.734,8.3 3.999,9.399 3.997,16.56c-0.001,4.219 -0.302,9.146 -0.669,10.948c-0.592,2.907 -0.405,3.451 1.653,4.798c7.683,5.035 12.735,-7.525 9.538,-23.711c-1.326,-6.71 -8.486,-22.578 -13.209,-29.271c-2.142,-3.037 -8.1,-12.012 -13.239,-19.944c-14.443,-22.294 -21.214,-29.126 -34.928,-35.246c-8.408,-3.753 -11.995,-4.311 -20.794,-3.237z" data-paper-data="{&quot;wickUUID&quot;:&quot;eeee1a7b-4b32-47eb-8278-a299cf821e55&quot;,&quot;wickType&quot;:&quot;path&quot;}" fill="#000000"/><path d="M218.42618,311.5536c-2.756,1.025 -3.863,3.571 -3.863,8.888c0,3.261 -1.081,7.377 -3.718,14.158c-2.045,5.257 -5.49,14.104 -7.656,19.659c-3.167,8.122 -11.558,24.844 -15.224,30.34c-0.518,0.776 -4.008,0.133 -13.235,-2.44c-6.893,-1.922 -20.991,-5.332 -31.33,-7.578c-10.338,-2.246 -19.48,-4.29 -20.313,-4.541c-0.905,-0.274 -2.073,-2.372 -2.897,-5.208c-0.823,-2.831 -2.741,-6.282 -4.75,-8.545c-4.288,-4.83 -9.444,-5.795 -15.22,-2.848c-4.495,2.293 -6.756,5.355 -8.637,11.694c-3.495,11.779 0.13,19.497 10.523,22.407c3.582,1.003 4.407,0.964 6.338,-0.302c1.222,-0.801 3.265,-1.455 4.541,-1.455c1.4,0 3.275,-1.021 4.731,-2.577l2.411,-2.577l19.245,4.224c18.681,4.099 42.185,10.049 46.365,11.736c5.608,2.264 8.408,-0.036 15.071,-12.38c8.377,-15.517 11.545,-22.393 15.541,-33.731c2.072,-5.879 4.296,-11.518 4.943,-12.532c3.504,-5.497 5.536,-23.271 2.894,-25.315c-1.928,-1.492 -3.735,-1.83 -5.76,-1.077z" data-paper-data="{&quot;wickUUID&quot;:&quot;25c2b82e-8879-49d7-b070-7e36abb2e154&quot;,&quot;wickType&quot;:&quot;path&quot;}" fill="#000000"/><path d="M148.80444,251.23005c-4.641,2.512 -12.506,8.591 -19.475,15.053c-10,9.273 -14.135,18.054 -22.264,47.28c-3.448,12.397 -8.028,28.38 -10.179,35.519c-3.378,11.217 -4.053,14.863 -4.969,26.854c-2.519,32.975 3.694,58.988 15.535,65.036c1.555,0.795 6.734,4.036 11.508,7.203c11.4,7.563 13.09,7.524 18.169,-0.418c1.972,-3.084 6.33,-10.56 9.683,-16.613c10.404,-18.778 17.853,-26.397 33.856,-34.632c5.975,-3.074 24.927,-8.044 30.675,-8.044c4.362,0 7.295,-2.123 8.264,-5.981c0.58,-2.313 -1.356,-11.817 -3.979,-19.531c-1.005,-2.953 -4.108,-12.822 -6.896,-21.93c-4.766,-15.571 -9.949,-27.479 -13.833,-31.777c-3.488,-3.861 -7.19,-11.78 -7.19,-15.38c0,-9.522 -5.697,-15.211 -10.224,-10.209c-1.331,1.471 -1.458,2.763 -0.9,9.162c0.537,6.146 1.255,8.618 4.107,14.129c1.901,3.673 4.203,7.506 5.115,8.516c4.304,4.766 7.38,11.993 13.358,31.377c1.518,4.923 4.239,13.707 6.045,19.519c1.807,5.812 3.14,10.672 2.962,10.801c-0.177,0.128 -5.962,1.528 -12.855,3.112c-14.262,3.276 -18.386,5.065 -31.161,13.514c-12.589,8.326 -17.298,14.55 -34.145,45.128c-1.343,2.436 -1.508,2.492 -3.41,1.143c-1.099,-0.779 -5.184,-3.335 -9.078,-5.681c-3.912,-2.356 -7.823,-5.471 -8.742,-6.962c-7.885,-12.788 -9.211,-51.897 -2.478,-73.08c1.467,-4.614 5.697,-19.265 9.4,-32.557c8.954,-32.135 12.687,-40.133 23.109,-49.512c4,-3.6 9.489,-7.936 12.197,-9.635c7.502,-4.707 8.896,-7.595 5.37,-11.121c-2.139,-2.139 -4.016,-2.209 -7.575,-0.283z" data-paper-data="{&quot;wickUUID&quot;:&quot;6f2944c2-ff89-4ec5-b481-d8579d2c2bfa&quot;,&quot;wickType&quot;:&quot;path&quot;}" fill="#000000"/><path d="M204.97827,375.12664c-0.594,1.20467 -1.00712,2.8688 -0.90645,2.8688c0.10033,0 2.33319,-0.01685 3.14586,-0.22152c1.60467,-0.404 1.799,-1.03551 0.834,-3.48051l-1.77339,-1.65146z" data-paper-data="{&quot;wickUUID&quot;:&quot;7d4073ff-efb5-4024-8eaf-2e5f3dfcb3dd&quot;,&quot;wickType&quot;:&quot;path&quot;}" fill="#8000ff"/><path d="M118.35413,381.768c-1.705,2.08067 -3.29737,3.0803 -5.58104,3.4953c-1.091,0.19833 -2.95054,0.81662 -4.38721,1.46129c-2.61333,1.173 -3.80706,1.50224 -6.14906,0.80957c-0.617,-0.18267 -0.84836,0.69215 -0.63969,6.78082c0.41033,11.985 2.18028,22.55199 4.90095,29.63666c1.88233,4.90167 3.34217,6.26133 16.42484,14.38c2.722,1.68933 5.98114,3.03448 6.13181,2.87815c0.15033,-0.15633 2.44995,-3.90273 4.68995,-7.93606c6.588,-11.86367 11.74522,-20.24131 15.55555,-25.24798c3.723,-4.89233 8.99344,-9.67838 15.18677,-13.81938l2.984,-2.15369l-2.35243,-1.66863c-3.747,-1.08133 -43.79394,-10.21912 -44.78494,-10.21912c-0.07167,0 -1.32183,0.8004 -1.9795,1.60307z" data-paper-data="{&quot;wickUUID&quot;:&quot;77d51b43-14ec-40e3-a646-4e8deac6f1e8&quot;,&quot;wickType&quot;:&quot;path&quot;}" fill="#8000ff"/><path d="M151.03399,262.00631c-7.76433,5.265 -15.86104,12.52362 -19.59971,17.50529c-5.165,6.882 -9.02143,16.6528 -15.25543,38.76013c-1.49067,5.28533 -4.16254,14.6312 -5.91087,20.6812c-3.92933,13.59733 -3.71863,12.71854 -2.7403,12.71887c0.434,0 1.919,1.00635 3.019,1.53102c3.72467,1.77733 7.40094,6.49926 9.21394,11.82959c0.42967,1.26333 1.4537,3.2122 1.84103,3.97153c0.82167,1.61067 -1.0131,1.09108 19.58923,5.63775c14.42867,3.18433 24.77311,5.68129 33.93911,8.19196l6.31336,1.71213l3.80426,-1.07864c1.925,-0.57367 4.08862,-1.32265 4.42362,-1.44898c0.335,-0.12633 2.05612,-2.78225 3.58612,-5.59325c3.31567,-6.091 9.25871,-18.8006 9.25871,-19.7106c0,-0.86333 -5.62112,-19.07781 -7.58412,-24.52048c-3.02133,-8.37633 -5.41863,-13.19846 -8.08796,-16.24713c-2.79167,-3.18867 -7.492,-12.15931 -8.67767,-16.57464c-0.70167,-2.613 -1.34165,-7.70705 -1.34165,-10.54372c0,-1.578 -0.25817,-2.09355 -2.53517,-4.72988c-4.758,-5.50933 -11.92736,-14.69608 -17.80203,-22.81141l-1.82014,-1.67035z" data-paper-data="{&quot;wickUUID&quot;:&quot;847e57ba-41db-4261-8457-7cdc8b4837a6&quot;,&quot;wickType&quot;:&quot;path&quot;}" fill="#8000ff"/><path d="M128.42113,443.1343c-0.853,0.497 -2.149,3.003 -2.88,5.567c-1.982,6.96 -10.058,48.328 -14.322,73.364l-0.572,3.357h5.34c5.116,0 5.36,-0.104 5.808,-2.462c0.257,-1.353 1.918,-10.517 3.691,-20.364c3.807,-21.15 7.037,-37.318 9.603,-48.07c1.75,-7.332 1.771,-7.924 0.365,-10.071c-1.566,-2.39 -4.313,-2.906 -7.033,-1.321z" data-paper-data="{&quot;wickUUID&quot;:&quot;fa2ed37d-182a-48c1-9a4d-dade7173e400&quot;,&quot;wickType&quot;:&quot;path&quot;}" fill="#000000"/><path d="M303.62813,315.86305c-16.996,6.2 -38.685,15.645 -44.369,19.321c-12.695,8.211 -35.416,28.093 -41.862,36.631c-6.568,8.7 -7.739,12.491 -4.703,15.238c3.189,2.886 6.378,1.54 10.255,-4.33c6.214,-9.408 28.032,-29.211 42.253,-38.352c3.411,-2.192 9.626,-5.315 13.81,-6.938c4.185,-1.624 11.436,-4.554 16.113,-6.51c14.792,-6.188 14.946,-6.225 16.997,-4.023c2.173,2.332 3.085,6.714 2.227,10.699c-0.981,4.557 -4.969,14.249 -7.296,17.733c-2.575,3.854 -2.647,7.112 -0.227,10.189c2.229,2.834 4.116,2.95 8.739,0.54c1.919,-1 5.657,-2.043 8.308,-2.318c9.809,-1.02 16.619,-4.55 19.178,-9.942c1.267,-2.67 1.343,-3.751 0.467,-6.675c-1.457,-4.862 -5.545,-6.824 -11.486,-5.511c-2.329,0.514 -4.929,1.235 -5.776,1.602c-1.398,0.604 -1.49,0.123 -0.996,-5.171c0.686,-7.349 -0.758,-13.292 -4.327,-17.798c-4.915,-6.206 -9.281,-7.312 -17.305,-4.385z" data-paper-data="{&quot;wickUUID&quot;:&quot;a0eeb7e3-4a28-4cab-8195-d8f9a2ad27d5&quot;,&quot;wickType&quot;:&quot;path&quot;}" fill="#000000"/></g><g fill="none" fill-rule="nonzero" stroke="none" stroke-width="1" stroke-linecap="butt" stroke-linejoin="miter" stroke-miterlimit="10" stroke-dasharray="" stroke-dashoffset="0" font-family="sans-serif" font-weight="normal" font-size="12" text-anchor="start" style="mix-blend-mode: normal"/><g id="wick_project_gui" fill="none" fill-rule="nonzero" stroke="none" stroke-width="1" stroke-linecap="butt" stroke-linejoin="miter" stroke-miterlimit="10" stroke-dasharray="" stroke-dashoffset="0" font-family="sans-serif" font-weight="normal" font-size="12" text-anchor="start" style="mix-blend-mode: normal"/></g></svg>