<svg version="1.1" xmlns="http://www.w3.org/2000/svg" xmlns:xlink="http://www.w3.org/1999/xlink" width="1260" height="594" viewBox="0,0,1260,594"><g transform="translate(479.91246,62.26383) scale(0.94565,0.94565)"><g id="wick_project_bg" fill="#999999" fill-rule="nonzero" stroke="none" stroke-width="1" stroke-linecap="butt" stroke-linejoin="miter" stroke-miterlimit="10" stroke-dasharray="" stroke-dashoffset="0" font-family="none" font-weight="none" font-size="none" text-anchor="none" style="mix-blend-mode: normal"><rect x="0" y="0" width="720" height="480"/></g><g data-paper-data="{&quot;wickUUID&quot;:&quot;e4991e57-04b7-418c-9fa3-95df87fec064&quot;,&quot;wickType&quot;:&quot;clipsandpaths&quot;}" fill="none" fill-rule="none" stroke="none" stroke-width="1" stroke-linecap="butt" stroke-linejoin="miter" stroke-miterlimit="10" stroke-dasharray="" stroke-dashoffset="0" font-family="none" font-weight="none" font-size="none" text-anchor="none" style="mix-blend-mode: normal"><path d="M198.62139,262.82643c-2.13233,0.45167 -8.32722,2.95134 -12.19089,4.93267c-3.64067,1.86667 -4.93947,2.6937 -9.2068,5.84937c-3.66967,2.71333 -5.29185,3.25789 -9.73752,3.24556c-1.974,-0.00533 -5.53552,-0.18319 -8.03552,-0.38286c-5.267,-0.42067 -8.41855,-0.0084 -11.84722,1.3546c-6.77933,2.69467 -9.34462,5.33351 -11.59629,12.09718l-1.06634,3.47048l2.31796,0.81059c0.93667,0.11667 2.60134,0.6233 3.65567,1.11563c1.773,0.82867 2.48757,0.90762 6.4189,0.89362c6.39133,-0.023 15.29774,-1.32241 31.07474,-4.53608c4.05967,-0.827 7.88866,-1.51798 8.42099,-1.51798c1.96267,0 9.29473,-2.21169 12.0644,-3.57802c6.51033,-3.212 10.72986,-9.84094 11.70753,-18.48194c0.19267,-1.70267 -0.02328,-3.06036 -0.45961,-3.06036c-0.285,0 -2.06261,-0.65922 -3.44028,-1.21089c-2.727,-1.092 -5.91205,-1.4609 -8.07972,-1.00157z" data-paper-data="{&quot;wickUUID&quot;:&quot;63746810-b986-4458-9d8c-58f006d1fca6&quot;,&quot;wickType&quot;:&quot;path&quot;}" fill="#400080" fill-rule="evenodd"/><path d="M198.62139,262.82643c-2.13233,0.45167 -8.32722,2.95134 -12.19089,4.93267c-3.64067,1.86667 -4.93947,2.6937 -9.2068,5.84937c-3.66967,2.71333 -5.29185,3.25789 -9.73752,3.24556c-1.974,-0.00533 -5.53552,-0.18319 -8.03552,-0.38286c-5.267,-0.42067 -8.41855,-0.0084 -11.84722,1.3546c-6.77933,2.69467 -9.34462,5.33351 -11.59629,12.09718l-1.06634,3.47048l2.31796,0.81059c0.93667,0.11667 2.60134,0.6233 3.65567,1.11563c1.773,0.82867 2.48757,0.90762 6.4189,0.89362c6.39133,-0.023 15.29774,-1.32241 31.07474,-4.53608c4.05967,-0.827 7.88866,-1.51798 8.42099,-1.51798c1.96267,0 9.29473,-2.21169 12.0644,-3.57802c6.51033,-3.212 10.72986,-9.84094 11.70753,-18.48194c0.19267,-1.70267 -0.02328,-3.06036 -0.45961,-3.06036c-0.285,0 -2.06261,-0.65922 -3.44028,-1.21089c-2.727,-1.092 -5.91205,-1.4609 -8.07972,-1.00157z" data-paper-data="{&quot;wickUUID&quot;:&quot;c7d8a6fa-cb0e-43cf-9827-885e00a5c26e&quot;,&quot;wickType&quot;:&quot;path&quot;}" fill="#800040" fill-rule="evenodd"/><path d="M205.51829,221.51538c-16.257,1.77533 -45.57357,8.11242 -61.05724,13.19375c-12.713,4.17233 -20.04974,8.76291 -22.87441,14.33691c-0.968,1.91067 -2.74716,8.2771 -2.75349,9.95477c-0.005,1.29767 7.94126,24.67058 8.38726,24.66925c0.09167,-0.00033 2.09906,-0.7806 2.73773,-2.0176c1.50067,-2.90567 4.69828,-6.2322 8.48561,-8.69587c6.16733,-4.01167 9.31763,-4.72458 22.0413,-5.08391c6.99,-0.19733 9.49097,-0.38865 10.38064,-0.77298c0.64167,-0.27733 2.87797,-1.60497 4.80297,-2.89497c9.193,-6.16 18.63202,-9.90811 25.91069,-10.28344c3.216,-0.16567 3.22944,-0.09954 5.35277,0.70679c1.27133,0.48267 2.99443,1.27422 4.00043,1.81889c1.006,0.545 2.97447,0.57423 3.02814,0.52056c0.32567,-0.32533 5.35212,-13.22563 6.46879,-16.60463c1.85133,-5.60267 1.99215,-6.66577 1.14048,-7.57244c-1.03133,-1.09767 -2.32616,-4.29832 -2.96149,-7.21932c-0.42933,-1.97367 -1.29704,-3.20877 -1.88237,-3.59244c-0.974,-0.638 -7.21981,-0.89865 -11.20781,-0.46332z" data-paper-data="{&quot;wickUUID&quot;:&quot;2f1330d0-026c-41fe-a0a4-5be66362ab72&quot;,&quot;wickType&quot;:&quot;path&quot;}" fill="#400080" fill-rule="evenodd"/><path d="M33.54979,124.95271c-6.67033,7.86133 -9.43123,13.45909 -16.33423,32.90442c-8.623,24.29033 -9.29939,29.1289 -10.42639,74.45923c-0.77733,31.26733 0.6614,40.61942 7.92673,51.29175c2.69967,3.966 6.01141,8.24504 8.89708,11.31271c2.35033,2.49833 3.46309,2.88839 4.76309,2.88006c2.49,-0.01633 5.68636,-1.67752 19.01936,-9.95719c6.602,-4.1 13.19726,-7.4685 21.40193,-10.93117c6.59267,-2.78233 7.21769,-3.25157 6.86136,-3.92557c-0.205,-0.388 -1.07266,-2.86648 -1.97466,-4.49581c-5.69267,-10.282 -14.2478,-27.59015 -16.93713,-34.26515l-1.56043,-3.75483l-2.52374,-0.89386c-3.004,-0.91233 -8.29135,-3.57674 -10.77468,-5.44341c-2.10433,-1.58167 -4.46098,-4.32225 -5.31698,-6.31825c-1.81433,-4.23233 -2.1791,-9.40071 -1.9541,-27.26704c0.18767,-14.87933 0.48232,-18.92234 1.87432,-25.58834c0.99133,-4.748 2.81397,-9.91955 5.06864,-14.37355c3.71133,-7.332 12.67982,-19.85899 15.33749,-21.42699c1.52067,-0.89733 0.95004,-2.71926 -0.93296,-2.98893c-1.76567,-0.253 -4.69344,-1.10309 -12.15577,-3.51209c-3.07933,-0.994 -6.12988,-1.82503 -6.27855,-1.82503c-0.149,0 -2.25838,2.08971 -3.98038,4.11904z" data-paper-data="{&quot;wickUUID&quot;:&quot;362e57c6-2114-4b6e-a383-0c75e701a84c&quot;,&quot;wickType&quot;:&quot;path&quot;}" fill="#ff8000" fill-rule="evenodd"/><path d="M158.44972,96.05949c-18.44067,3.501 -21.4947,4.47883 -34.61537,11.05216c-14.62667,7.32833 -25.30237,13.16028 -30.35904,16.56895c-7.278,4.906 -12.59158,11.66207 -15.03258,19.1224c-2.22167,6.79067 -3.75098,15.98539 -3.15265,19.17472l1.40134,2.10454l3.81025,-2.93228c14.62167,-11.32833 34.21843,-21.46092 51.60343,-26.68192c2.98867,-0.89767 6.16757,-1.77174 7.2219,-2.00407c1.05433,-0.23233 2.38399,-0.90416 2.38399,-1.06716c0,-0.62033 3.2198,-7.17176 4.4488,-9.02343c3.38267,-5.09633 10.01979,-10.41222 18.46146,-14.80155l2.22924,-1.24166l0.08471,-2.41383c-0.05133,-1.88967 -1.72362,-6.16378 -2.70295,-7.05011c-0.65833,-0.59567 -4.10953,-1.12443 -5.78253,-0.80676z" data-paper-data="{&quot;wickUUID&quot;:&quot;694d58cc-8938-4407-ba4a-39116bba1e79&quot;,&quot;wickType&quot;:&quot;path&quot;}" fill="#ff8000" fill-rule="evenodd"/><path d="M194.10695,161.992c-0.92933,0.463 -3.29922,2.2032 -4.33855,3.29287c-3.255,3.41267 -4.43402,7.37413 -3.47702,11.49946c0.56333,2.42967 1.15215,3.90724 3.67382,8.30991l1.90713,3.1974l2.86155,0.3533c1.31467,0.09933 4.89398,0.2505 7.93931,0.33517l5.89689,0.08822l0.71716,-3.4597c1.02367,-12.86433 0.3954,-16.23559 -3.47227,-20.41292c-3.362,-3.63167 -8.02835,-5.03738 -11.70802,-3.20371z" data-paper-data="{&quot;wickUUID&quot;:&quot;f482fe46-e210-48f5-92a4-6279e11ec072&quot;,&quot;wickType&quot;:&quot;path&quot;}" fill="#ffffff" fill-rule="evenodd"/><path d="M116.7497,163.46879c-0.73333,0.13967 -1.92653,0.46307 -2.4752,0.68574c-0.54833,0.22267 -3.65784,1.08574 -6.86784,1.90541c-8.111,2.07133 -11.16828,3.31948 -13.54528,4.91648c-4.59167,3.085 -5.42868,8.5108 -2.84535,19.44613c1.73133,7.33067 5.31263,17.58505 6.86763,19.67105c0.91067,1.22167 5.10126,3.48879 9.33193,4.92779c3.59533,1.22267 4.56627,1.08983 5.87094,-1.0935c0.848,-1.41933 1.62666,-2.11848 2.89499,-2.75115c0.907,-0.45233 1.59525,-0.70214 1.81758,-0.70214c0.89867,0 8.73069,-2.46158 10.47102,-3.28558c2.38,-1.127 5.34219,-3.81033 6.45986,-5.877c0.47967,-0.887 1.39664,-3.11646 1.82564,-4.49146c0.70967,-2.27367 0.79271,-3.24285 0.77571,-9.15418c-0.01533,-5.43867 -0.17938,-7.31959 -0.80638,-10.22659c-1.35633,-6.28667 -3.5877,-10.72563 -6.4357,-12.9003c-1.23067,-0.93933 -1.86512,-1.22179 -6.84145,-1.27379c-2.765,-0.02933 -5.76477,0.06376 -6.4981,0.20309z" data-paper-data="{&quot;wickUUID&quot;:&quot;99f0c2e8-23d3-491c-b89c-bac4286e97d1&quot;,&quot;wickType&quot;:&quot;path&quot;}" fill="#ffffff" fill-rule="evenodd"/><path d="M152.81432,138.65488c-0.36667,0.069 -1.72059,0.24866 -2.74992,0.36033c-1.56033,0.16967 -2.10216,0.40699 -2.41216,1.08699c-0.502,1.102 -2.08831,2.06658 -3.48664,2.06791c-0.62967,0.00067 -1.49615,-0.32966 -2.29748,-0.71766c-1.42733,-0.691 -1.8373,-0.67163 -3.85997,-0.10863c-3.687,1.02633 -9.07596,2.91045 -14.18296,4.95812c-6.396,2.56467 -21.00996,9.90438 -19.81263,9.95071c0.14833,0.00567 2.45046,1.15735 4.59379,0.61968c14.32333,-3.59267 20.70707,-3.44919 26.61774,0.76848c4.17867,2.982 6.11103,6.23617 8.4827,13.44417c2.14267,6.511 2.57476,9.29564 2.57476,16.26764c0,6.364 -0.45912,9.78994 -1.88879,14.01494c-1.16,3.42933 -2.45328,5.45429 -5.33395,8.39929c-2.88367,2.94833 -5.62471,4.79813 -8.89604,6.04846c-3.003,1.14733 -3.95263,1.93749 -4.89963,4.07849c-0.647,1.46333 -0.79436,1.76685 -2.26603,2.60885c-2.76833,1.58367 -5.686,2.0987 -10.66367,1.89403c-3.20667,-0.132 -4.58071,-0.33247 -6.84204,-1.00514c-5.70633,-1.69767 -10.69175,-3.96094 -13.32475,-6.27261c-3.218,-2.82533 -9.28418,-20.1159 -11.19685,-31.86223c-0.56933,-3.49833 -0.45095,-5.88222 0.38072,-9.87555c0.24767,-1.18967 -1.00931,-2.93442 -1.09564,-3.02109c-0.353,-0.35267 -6.02497,5.99115 -7.3353,8.19648c-3.02433,5.09067 -6.41429,13.79648 -8.57829,22.03781c-1.55533,5.925 -2.16917,10.38055 -2.17084,14.95888c-0.00267,7.54367 2.19828,13.5112 12.74361,34.4582c7.10733,14.11733 9.09326,17.59115 11.22826,19.59482c1.49233,1.40067 1.81949,1.91814 1.82249,2.88047c0.00367,1.313 1.99897,4.0972 5.12264,7.33287c5.113,5.29633 9.46159,7.27774 21.55392,9.79741c5.44333,1.13433 6.30998,0.22399 5.50698,-1.64934c-2.36733,-5.52333 -8.56462,-23.59109 -9.32829,-27.21609c-1.304,-6.19333 0.47231,-13.91604 4.60198,-20.03304c3.064,-4.53933 7.29512,-7.95111 13.78445,-11.20144c6.43167,-3.221 14.45183,-5.79372 30.5045,-9.79972c22.85,-5.70167 39.49507,-8.66727 51.0584,-9.09627c5.96667,-0.22133 8.02279,0.09042 10.83146,1.52542l2.66399,0.77851l0.06344,-3.33534c-0.45733,-5.844 -1.1336,-9.48841 -2.87527,-15.50274l-1.31441,-4.04966l-2.5167,1.26664c-1.965,1.73367 -4.54068,3.0608 -7.40468,3.76947c-1.791,0.44333 -3.81105,0.53802 -10.57705,0.55535l-8.40355,0.02413l-1.30699,-0.59479c-3.71867,-1.74367 -6.39185,-5.06907 -10.01318,-12.50907c-2.53567,-5.209 -2.89614,-6.6842 -2.60181,-10.5312c0.30633,-4.00233 0.83494,-6.24889 2.36127,-9.34022c3.27233,-6.62833 9.09962,-11.16269 15.32929,-11.95236c3.10767,-0.394 3.12313,-1.61162 -0.27087,-4.93329c-2.82567,-2.766 -3.82854,-3.43473 -8.21954,-5.59706c-6.69067,-3.295 -7.24788,-3.3936 -21.25955,-3.5396c-6.41667,-0.067 -12.07425,-0.06941 -12.44092,-0.00041z" data-paper-data="{&quot;wickUUID&quot;:&quot;d596d4ae-d828-40c7-a39b-9011443509c8&quot;,&quot;wickType&quot;:&quot;path&quot;}" fill="#ffffff" fill-rule="evenodd"/><path d="M192.025,297.39156c-21.43233,4.897 -33.90684,7.00033 -45.25117,7.63066l-4.32079,0.26308l-1.42037,1.69515c-0.56733,0.78967 -1.55776,1.87564 -2.09009,2.25464c-2.355,1.677 -3.05469,3.19864 -4.10769,8.65664c-1.81833,9.424 -5.15417,31.36133 -8.15984,53.66566c-2.938,21.802 -3.3957,26.20382 -4.8507,46.68682c-0.808,11.37167 -1.44983,17.27554 -2.38116,21.90354c-0.54333,2.7 -0.24853,4.3319 0.06414,4.7089c0.60367,0.72733 6.79832,3.04078 12.76332,4.73711c8.68967,2.47167 9.38982,2.61873 11.51249,2.3784c1.99533,-0.22567 2.90659,0.03078 4.23326,1.20378c1.66033,1.46767 23.19545,5.00729 30.43078,5.00729c5.836,0 13.29588,-1.78896 24.35955,-5.88929c3.19133,-1.18267 8.15545,-2.87347 10.98012,-3.74147l5.2616,-1.632l0.26018,-1.30328c0.013,-2.54967 2.2974,-4.83416 4.91973,-4.83416c1.28133,0 0.87726,0.12275 2.31893,1.47142l2.11585,1.67753l4.44889,-1.66797c5.25133,-2.03567 10.4874,-4.70897 12.11607,-6.1803c1.11733,-1.00967 1.63236,-2.20691 1.51103,-3.24524c-0.07633,-0.654 -1.94665,-5.6642 -4.10998,-10.98087c-2.16333,-5.31667 -5.72434,-14.24842 -7.90967,-19.84009c-6.56,-16.783 -11.56154,-29.25162 -13.43287,-33.48862c-3.92933,-8.896 -10.699,-27.08662 -19.01467,-51.09362c-1.35233,-3.904 -3.43299,-9.10265 -4.61199,-11.52365c-1.179,-2.421 -2.42136,-5.28916 -2.74703,-6.34349c-0.326,-1.05433 -0.97554,-2.19655 -1.17121,-2.17522c-0.19567,0.02133 -1.35004,-0.08502 -1.71671,-0.00135z" data-paper-data="{&quot;wickUUID&quot;:&quot;5f3b7c86-b1e8-4702-a8ee-158294747b35&quot;,&quot;wickType&quot;:&quot;path&quot;}" fill="#8000ff" fill-rule="evenodd"/><path d="M149.34759,129.97516c7.711,-1.13 22.934,-0.91 30.849,0.445c6.202,1.062 14.784,5.058 19.211,8.944c7.655,6.721 16.851,19.703 21.834,30.821c8.182,18.259 9.821,23.067 11.426,33.524c2.024,13.183 0.942,26.957 -3.063,38.982c-3.456,10.378 -14.574,35.51 -18.905,42.734c-3.967,6.617 -9.987,10.783 -17.834,12.343c-2.765,0.55 -9.458,2.007 -14.873,3.238c-19.125,4.347 -41.637,6.104 -46.463,3.626c-1.523,-0.782 -8.61,-2.466 -15.749,-3.741c-19.765,-3.532 -26.711,-7.503 -35.526,-20.317c-5.552,-8.069 -19.487,-34.892 -24.099,-46.387c-3.243,-8.082 -3.404,-8.954 -3.239,-17.576c0.143,-7.449 0.726,-10.893 3.259,-19.245c6.112,-20.16 9.574,-25.458 23.869,-36.526c20.49,-15.865 46.746,-27.558 69.303,-30.865zM166.80259,138.97416c-17.073,-0.565 -26.881,1.291 -44.295,8.379c-17.045,6.938 -40.408,22.11 -47.271,30.699c-5.268,6.592 -11.566,24.716 -12.599,36.256c-0.772,8.627 1.203,14.482 12.514,37.099c12.668,25.33 17.886,32.261 27.482,36.506c5.36,2.371 27.97,6.478 32.47,5.898c2.531,-0.326 4.287,-0.03 5.701,0.96c3.229,2.262 16.209,0.906 40.764,-4.258c1.70055,-0.3575 3.20057,-0.67389 4.53007,-0.96028c1.23037,0.16379 2.9435,-0.23344 6.15564,-1.00393c9.279,-2.226 14.881,-7.574 17.118,-16.343c0.73809,-2.89267 1.07075,-5.76045 1.02843,-8.40683c0.14285,-0.3223 0.28779,-0.64992 0.43486,-0.98296c9.548,-21.619 12.113,-29.917 12.862,-41.608c0.892,-13.922 -0.996,-22.752 -8.77,-41.018c-5.807,-13.645 -7.128,-15.957 -14.064,-24.616c-7.004,-8.745 -8.225,-9.838 -14.368,-12.864c-6.607,-3.254 -6.919,-3.313 -19.693,-3.736z" data-paper-data="{&quot;wickUUID&quot;:&quot;211825d4-9a66-4ce1-b296-767db8e429cb&quot;,&quot;wickType&quot;:&quot;path&quot;}" fill="#000000" fill-rule="nonzero"/><path d="M207.9928,304.9023c11.7,34.86 17.034,49.419 23.609,64.449c2.261,5.17 6.898,16.65 10.304,25.512c3.405,8.861 8.113,20.744 10.461,26.406c2.348,5.661 4.278,11.604 4.288,13.206c0.045,6.815 -12.408,14.594 -32.564,20.344c-6.154,1.755 -14.613,4.543 -18.797,6.195c-15.038,5.938 -26.562,7.182 -42.519,4.591c-11.799,-1.917 -31.263,-6.435 -38.722,-8.991c-3.574,-1.224 -7.424,-2.225 -8.557,-2.225c-3.875,0 -5.372,-2.027 -5.792,-7.841c-0.215,-2.968 0.085,-6.836 0.665,-8.595c0.58,-1.759 1.426,-9.153 1.878,-16.431c0.453,-7.278 1.213,-17.722 1.69,-23.209c1,-11.507 8.916,-67.449 11.698,-82.669c3.076,-16.826 2.945,-16.401 5.484,-17.82c2.119,-1.186 2.603,-1.159 4.774,0.264c2.267,1.485 2.378,1.867 1.814,6.212c-0.33,2.547 -1.539,9.464 -2.687,15.372c-2.62,13.491 -10.1,66.479 -11.241,79.639c-0.471,5.43 -1.228,15.513 -1.682,22.405c-0.455,6.893 -1.246,14.345 -1.759,16.56c-0.513,2.216 -0.943,4.666 -0.955,5.445c-0.042,2.745 31.659,11.029 51.448,13.444c7.879,0.962 9.809,0.905 16.113,-0.474c3.938,-0.861 10.584,-2.907 14.769,-4.546c4.185,-1.639 12.011,-4.24 17.393,-5.78c16.075,-4.601 27.378,-9.912 27.355,-12.853c-0.004,-0.58 -1.847,-5.485 -4.096,-10.901c-2.248,-5.415 -7.438,-18.506 -11.532,-29.091c-4.094,-10.585 -8.921,-22.468 -10.728,-26.406c-4.65727,-10.15469 -21.21658,-56.87956 -28.03444,-78.52125c0.06076,-0.01456 0.12207,-0.02926 0.18394,-0.0441c3.41978,-0.82039 6.34012,-2.06485 8.77663,-3.74833c2.03436,5.66061 4.45823,12.64306 6.96187,20.10168z" data-paper-data="{&quot;wickUUID&quot;:&quot;2845d7ab-c5dd-42e5-bb62-0c2d97b88777&quot;,&quot;wickType&quot;:&quot;path&quot;}" fill="#000000" fill-rule="evenodd"/><path d="M301.74318,276.7812c-0.288,0.288 -2.488,0.623 -4.89,0.746c-7.839,0.401 -13.349,3.749 -21.288,12.935l-7.101,8.216l-1.378,-2.92c-1.654,-3.502 -5.496,-5.572 -8.802,-4.743c-3.583,0.9 -8.724,6.886 -10.922,12.719c-2.366,6.276 -2,11.814 1.227,18.569c1.19,2.491 2.632,6.015 3.206,7.831c1.434,4.542 4.102,7.689 7.846,9.253c3.844,1.607 13.569,1.648 22.238,0.094c5.074,-0.909 7.365,-0.911 11.636,-0.01c7.667,1.617 10.586,1.48 13.255,-0.619c4.693,-3.691 2.238,-11.586 -5.148,-16.561l-4.554,-3.067h3.727c6.448,0 17.579,-1.86 21.54,-3.6c6.466,-2.841 7.236,-8.693 1.698,-12.917c-3.818,-2.912 -8.765,-3.534 -19.38,-2.436c-4.677,0.483 -8.662,0.726 -8.855,0.54c-0.192,-0.187 1.539,-1.149 3.848,-2.139c6.117,-2.622 11.969,-6.902 13.509,-9.88c3.398,-6.571 0.083,-12.534 -6.97,-12.534c-2.156,0 -4.155,0.235 -4.442,0.523z" data-paper-data="{&quot;wickUUID&quot;:&quot;0b21a4cc-a4e1-41a2-babb-c3c5556c9d3c&quot;,&quot;wickType&quot;:&quot;path&quot;}" fill="#000000" fill-rule="evenodd"/><path d="M196.06773,292.10238c-3.513,0.91 -3.453,4.247 0.222,12.239c3.212,6.985 4.084,8.058 11.83,14.565c4.6,3.864 11.68,10.31 15.734,14.326c7.556,7.486 13.237,11.056 17.592,11.056c3.726,0 9.621,-3.89 17.563,-11.591c7.713,-7.478 8.645,-9.769 4.96,-12.184c-3.131,-2.051 -5.12,-1.1 -12.356,5.91c-3.48,3.372 -7.471,6.604 -8.867,7.182c-2.264,0.938 -2.901,0.777 -5.897,-1.492c-1.847,-1.399 -5.291,-4.646 -7.652,-7.215c-2.361,-2.57 -8.118,-7.781 -12.793,-11.58c-7.669,-6.231 -8.794,-7.542 -11.499,-13.397c-2.462,-5.328 -5.429,-8.896 -6.937,-8.342c-0.156,0.057 -1.011,0.292 -1.9,0.523z" data-paper-data="{&quot;wickUUID&quot;:&quot;d23976b6-226b-4edc-b5b6-3d9f785b8572&quot;,&quot;wickType&quot;:&quot;path&quot;}" fill="#000000" fill-rule="evenodd"/><path d="M201.2658,212.84709c-15.966,1.792 -50.798,9.876 -65.201,15.132c-14.115,5.151 -21.67,11.947 -24.823,22.327c-2.587,8.518 -2.155,11.122 5.178,31.204c6.626,18.146 7.804,19.733 12.406,16.718c3.136,-2.054 2.847,-3.656 -4.034,-22.4c-2.987,-8.136 -5.431,-15.725 -5.431,-16.865c0,-1.14 0.613,-4.136 1.362,-6.657c2.501,-8.422 11.201,-13.812 31.311,-19.396c24.039,-6.676 52.191,-11.774 61.316,-11.103c3.907,0.287 4.05,0.403 4.771,3.876c1.625,7.83 4.975,10.492 8.822,7.011c3.931,-3.557 0.241,-16.431 -5.537,-19.317c-3.428,-1.713 -8.43,-1.844 -20.14,-0.53z" data-paper-data="{&quot;wickUUID&quot;:&quot;76e36722-158b-4c12-bfac-ed8d941af6d7&quot;,&quot;wickType&quot;:&quot;path&quot;}" fill="#000000" fill-rule="evenodd"/><path d="M195.25198,254.37515c-5.934,1.438 -14.531,5.568 -20.619,9.903c-4.239,3.018 -4.29,3.029 -14.512,3.029c-11.641,0 -17.425,1.591 -23.995,6.602c-4.956,3.78 -7.08,7.082 -9.509,14.778c-2.218,7.027 -1.921,9.563 1.289,11.026c3.512,1.6 5.954,-0.778 7.912,-7.705c2.009,-7.112 3.943,-9.79 8.89,-12.314c5.901,-3.01 8.039,-3.323 17.292,-2.53c9.576,0.82 11.045,0.434 17.43,-4.582c4.46,-3.504 15.504,-8.67 19.944,-9.329c2.669,-0.397 4.767,-0.06 7.626,1.225c4.637,2.083 7.303,1.484 8.518,-1.915c1.076,-3.012 -0.372,-4.759 -6.196,-7.474c-5.079,-2.368 -6.874,-2.459 -14.07,-0.714z" data-paper-data="{&quot;wickUUID&quot;:&quot;c7979890-46f5-4bcb-b7b1-5756b16b8032&quot;,&quot;wickType&quot;:&quot;path&quot;}" fill="#000000" fill-rule="evenodd"/><path d="M105.14957,157.21976c-18.295,4.815 -22.652,8.203 -24.512,19.063c-0.904,5.278 -0.793,7.005 0.953,14.746c2.072,9.187 6.234,20.951 8.794,24.859c1.784,2.722 7.767,5.912 15.076,8.036c9.239,2.686 19.615,0.571 20.325,-4.142c0.208,-1.377 1.55,-2.387 4.765,-3.584c6.294,-2.343 12.214,-8.289 14.254,-14.315c2.627,-7.76 2.872,-18.838 0.601,-27.116c-2.439,-8.89 -4.57,-13.017 -8.512,-16.477c-6.454,-5.667 -13.389,-5.901 -31.744,-1.07zM130.98857,166.01076c3.192,3.192 5.431,10.259 6.027,19.021c0.605,8.906 -1.29,15.738 -5.356,19.308c-2.765,2.428 -4.792,3.253 -13.905,5.656c-2.739,0.723 -4.084,1.644 -4.678,3.204c-0.457,1.204 -1.431,2.19 -2.163,2.19c-2.394,0 -10.969,-3.582 -12.369,-5.166c-1.935,-2.19 -6.667,-16.502 -7.913,-23.931c-2.062,-12.304 0.591,-15.822 14.408,-19.1c4.184,-0.993 8.615,-2.211 9.846,-2.706c1.231,-0.496 4.786,-0.927 7.901,-0.958c5.065,-0.051 5.932,0.212 8.202,2.482z" data-paper-data="{&quot;wickUUID&quot;:&quot;360077ad-3947-4123-b852-880f0bc9e251&quot;,&quot;wickType&quot;:&quot;path&quot;}" fill="#000000" fill-rule="evenodd"/><path d="M192.49106,152.8165c-8.104,1.907 -14.859,10.578 -15.619,20.048c-0.42,5.229 -0.179,6.324 2.697,12.273c3.415,7.063 6.72,11.08 10.206,12.405c3.014,1.146 16.534,1.06 21.28,-0.135c9.804,-2.468 17.279,-15.604 9.929,-17.449c-1.873,-0.47 -2.108,-0.926 -1.652,-3.206c0.857,-4.29 -2.237,-12.841 -6.329,-17.49c-5.818,-6.609 -11.814,-8.493 -20.512,-6.446zM204.31806,164.2925c4.391,4.102 5.357,7.416 4.792,16.443l-0.492,7.864l-8.146,-0.256l-8.145,-0.255l-2.916,-4.884c-4.459,-7.47 -3.909,-13.452 1.723,-18.731c4.091,-3.833 9.199,-3.904 13.184,-0.181z" data-paper-data="{&quot;wickUUID&quot;:&quot;91ecbde1-9ee3-435d-ba0e-73efba145c38&quot;,&quot;wickType&quot;:&quot;path&quot;}" fill="#000000" fill-rule="evenodd"/><path d="M130.99067,304.32137c-5.401,5.71 -15.038,17.627 -19.652,24.302c-1.362,1.969 -5.374,9.098 -8.917,15.842l-6.441,12.261l-4.043,-3.086c-6.825,-5.21 -14.071,-3.332 -18.492,4.792c-2.873,5.278 -3.042,9.401 -0.667,16.281c0.933,2.702 1.528,5.081 1.323,5.286c-0.205,0.205 -2.364,-0.864 -4.797,-2.377c-6.744,-4.192 -15.383,-6.833 -20.193,-6.174c-5.077,0.696 -7.282,2.082 -8.97,5.639c-1.707,3.598 -1.711,7.753 -0.009,11.043c1.515,2.929 2.122,3.182 10.751,4.469c8.583,1.28 10.294,1.72 10.294,2.649c0,0.44 -1.534,1.059 -3.41,1.376c-1.875,0.317 -5.492,1.765 -8.036,3.219c-6.895,3.937 -9.433,10.313 -5.516,13.858c1.618,1.465 2.173,1.524 4.699,0.503c8.326,-3.363 10.885,-3.766 20.319,-3.201c12.596,0.754 19.799,-1.325 25.986,-7.5c2.295,-2.291 6.833,-6.267 10.085,-8.835c6.343,-5.012 8.624,-9.343 7.429,-14.105c-0.666,-2.653 -5.002,-4.946 -9.352,-4.946c-5.861,0 -3.639,-6.557 11.261,-33.229c4.936,-8.836 19.267,-27.869 24.855,-33.01c3.516,-3.236 4.39,-6.034 2.692,-8.625c-2.393,-3.653 -5.222,-2.752 -11.199,3.568z" data-paper-data="{&quot;wickUUID&quot;:&quot;aab5f837-1b01-41f4-879a-d6bddc3da36a&quot;,&quot;wickType&quot;:&quot;path&quot;}" fill="#000000" fill-rule="evenodd"/><path d="M31.86264,111.12447c-1.108,0.785 -2.014,1.942 -2.014,2.572c0,0.63 -1.914,3.533 -4.252,6.45c-7.47,9.32 -9.818,13.875 -15.875,30.794c-5.888,16.448 -9.718,30.362 -10.718,38.938c-0.287,2.462 -0.912,18.102 -1.389,34.757c-1.296,45.29 0.309,53.101 14.631,71.21c11.25,14.224 17.423,14.409 37.72,1.13c5.403,-3.534 13.056,-7.726 17.007,-9.314c3.952,-1.589 10.407,-4.502 14.346,-6.474c6.532,-3.272 7.161,-3.819 7.161,-6.238c0,-1.91 -0.638,-3.009 -2.286,-3.933c-2.107,-1.183 -2.84,-1.036 -9.399,1.894c-3.912,1.747 -10.251,4.468 -14.087,6.047c-3.835,1.578 -11.68,5.878 -17.432,9.556c-11.837,7.568 -15.872,9.492 -18.296,8.722c-0.926,-0.294 -4.125,-3.623 -7.107,-7.399c-12.579,-15.924 -13.669,-21.787 -12.346,-66.391c1.123,-37.848 1.717,-41.543 10.766,-67.075c6.379,-17.998 9.448,-24.12 15.592,-31.101l3.597,-4.088l8.726,2.795c4.799,1.538 9.325,2.795 10.058,2.795c1.738,0 1.72,1.698 -0.026,2.368c-2.126,0.816 -11.848,14.389 -15.281,21.337c-5.394,10.913 -7.074,21.177 -7.035,42.982c0.037,20.669 0.555,23.587 5.114,28.779c4.694,5.346 17.459,10.396 21.208,8.389c4.622,-2.473 2.777,-7.459 -3.444,-9.306c-12.084,-3.589 -12.634,-4.564 -13.27,-23.555c-0.556,-16.632 0.891,-28.989 4.599,-39.264c2.44,-6.76 9.496,-17.389 14.087,-21.221c10.558,-8.811 10.896,-9.197 10.259,-11.731c-0.804,-3.205 -4.664,-5.416 -13.449,-7.704c-3.987,-1.038 -10.672,-3.099 -14.857,-4.58c-4.185,-1.481 -8.213,-2.89 -8.951,-3.131c-0.739,-0.241 -2.249,0.204 -3.357,0.99z" data-paper-data="{&quot;wickUUID&quot;:&quot;794d13e8-9bd9-4953-9c2f-31476c34fde3&quot;,&quot;wickType&quot;:&quot;path&quot;}" fill="#000000" fill-rule="evenodd"/><path d="M160.53672,86.45901c-8.505,1.317 -23.01,4.774 -28.819,6.87c-3.336,1.203 -10.804,4.733 -16.596,7.845c-5.791,3.111 -14.558,7.827 -19.481,10.48c-9.741,5.249 -18.79,13.366 -23.099,20.719c-1.296,2.211 -3.409,8.401 -4.695,13.755c-3.62,15.063 -2.112,25.354 4.238,28.918c2.06,1.157 2.57,1.131 4.655,-0.235c2.809,-1.84 2.924,-3.551 0.55,-8.206c-2.268,-4.449 -2.253,-8.181 0.069,-18.056c2.124,-9.029 4.369,-13.331 10.017,-19.198c4.603,-4.781 9.667,-7.875 30.643,-18.723c16.913,-8.747 20.322,-10.057 32.651,-12.55c12.401,-2.507 12.976,-2.435 14.693,1.858c1.962,4.902 1.82,6.148 -0.815,7.15c-1.24,0.471 -5.214,2.854 -8.831,5.295c-7.402,4.994 -10.777,9.409 -14.556,19.041c-2.266,5.776 -2.356,6.462 -1.137,8.644c1.622,2.903 5.269,3.554 7.242,1.294c0.773,-0.885 2.083,-3.694 2.913,-6.244c2.928,-8.997 8.726,-14.63 20.496,-19.911c8.195,-3.676 8.678,-6.169 3.705,-19.125c-4.165,-10.849 -4.483,-11.07 -13.843,-9.621z" data-paper-data="{&quot;wickUUID&quot;:&quot;4db89d0e-848c-424d-922e-7c2fe98efd73&quot;,&quot;wickType&quot;:&quot;path&quot;}" fill="#000000" fill-rule="evenodd"/><path d="M142.93795,451.76606c-2.507,0.928 -11.1,17.866 -14.046,27.686c-1.255,4.185 -3.335,11.81 -4.62,16.945c-1.286,5.135 -3.354,11.748 -4.595,14.697c-2.471,5.872 -2.065,8.868 1.323,9.754c5.133,1.342 8.442,-4.642 13.509,-24.436c4.309,-16.831 6.122,-21.976 11.083,-31.45c3.938,-7.519 4.41,-8.96 3.553,-10.841c-1.125,-2.471 -3.48,-3.364 -6.207,-2.355z" data-paper-data="{&quot;wickUUID&quot;:&quot;a2f7c010-8a7b-4984-9d19-5c4fd30bb5f4&quot;,&quot;wickType&quot;:&quot;path&quot;}" fill="#000000" fill-rule="evenodd"/><path d="M220.43295,441.9348c-1.336,1.336 -1.708,2.504 -1.306,4.105c0.503,2.006 28.425,54.705 38.214,72.127l3.898,6.936l5.668,0.001h5.667l-1.749,-2.909c-4.308,-7.163 -35.128,-64.258 -40.813,-75.606c-3.284,-6.557 -6.24,-7.993 -9.579,-4.654z" data-paper-data="{&quot;wickUUID&quot;:&quot;a185fec6-687f-4f49-8fed-c7b17fcee81c&quot;,&quot;wickType&quot;:&quot;path&quot;}" fill="#000000" fill-rule="evenodd"/></g><g fill="none" fill-rule="nonzero" stroke="none" stroke-width="1" stroke-linecap="butt" stroke-linejoin="miter" stroke-miterlimit="10" stroke-dasharray="" stroke-dashoffset="0" font-family="sans-serif" font-weight="normal" font-size="12" text-anchor="start" style="mix-blend-mode: normal"/><g id="wick_project_gui" fill="none" fill-rule="nonzero" stroke="none" stroke-width="1" stroke-linecap="butt" stroke-linejoin="miter" stroke-miterlimit="10" stroke-dasharray="" stroke-dashoffset="0" font-family="sans-serif" font-weight="normal" font-size="12" text-anchor="start" style="mix-blend-mode: normal"/></g></svg>