<svg version="1.1" xmlns="http://www.w3.org/2000/svg" xmlns:xlink="http://www.w3.org/1999/xlink" width="1260" height="594" viewBox="0,0,1260,594"><g transform="translate(479.91246,62.26383) scale(0.94565,0.94565)"><g id="wick_project_bg" fill="#999999" fill-rule="nonzero" stroke="none" stroke-width="1" stroke-linecap="butt" stroke-linejoin="miter" stroke-miterlimit="10" stroke-dasharray="" stroke-dashoffset="0" font-family="none" font-weight="none" font-size="none" text-anchor="none" style="mix-blend-mode: normal"><rect x="0" y="0" width="720" height="480"/></g><g data-paper-data="{&quot;wickUUID&quot;:&quot;63ed7674-22c9-4159-8973-690ceb346684&quot;,&quot;wickType&quot;:&quot;clipsandpaths&quot;}" fill="none" fill-rule="none" stroke="none" stroke-width="1" stroke-linecap="butt" stroke-linejoin="miter" stroke-miterlimit="10" stroke-dasharray="" stroke-dashoffset="0" font-family="none" font-weight="none" font-size="none" text-anchor="none" style="mix-blend-mode: normal"><path d="M103.6708,210.12801c-2.70067,0.19633 -3.41425,0.40911 -6.59158,2.27878c-5.21067,3.066 -8.3815,5.31291 -10.19017,7.19124c-1.86867,1.94067 -4.72419,7.33656 -4.72419,8.69589c0,1.77033 5.46651,12.72366 9.73751,19.45533c1.93267,3.04667 2.92728,3.90769 3.62861,3.80636c0.443,-0.064 3.0561,-1.06468 5.2291,-2.15368c12.28,-6.156 30.10847,-13.75251 36.93514,-15.73084c4.75833,-1.379 8.98494,-1.82772 27.75461,-3.01439c11.776,-0.74467 11.16339,-0.61597 12.12372,-2.8523c0.44033,-1.026 1.56064,-2.97298 1.98431,-3.82598l0.6948,-2.40481l-2.87622,-1.03398c-6.94533,-2.042 -25.95482,-6.06994 -37.89949,-8.03227c-14.229,-2.33767 -25.79348,-3.10635 -35.80615,-2.37935z" data-paper-data="{&quot;wickUUID&quot;:&quot;6b28bcdd-ca43-48eb-87e4-e54146330821&quot;,&quot;wickType&quot;:&quot;path&quot;}" fill="#ff8000" fill-rule="evenodd"/><path d="M93.65501,161.84465c-2.323,0.30133 -8.57759,2.01112 -11.53992,3.11945c-2.18367,0.817 -2.33265,0.90254 -3.27232,7.73854c-1.76067,12.807 -3.2892,28.94037 -2.90187,30.4837c0.33667,1.34167 2.2253,2.14574 6.9873,1.03641c2.36767,-0.55167 5.93744,-1.17051 7.86244,-1.36784c1.925,-0.19733 4.16977,-0.43564 4.9101,-0.51564c0.74033,-0.07967 2.68205,-0.79387 4.20238,-1.55487c1.95067,-0.97633 3.10017,-1.38924 4.48817,-1.51491c1.951,-0.177 1.53306,-0.27011 2.90073,1.09756l1.64338,1.47085l6.77266,0.00921c10.169,0.002 16.1036,0.67993 33.3576,3.83926c30.19933,5.53033 40.78855,8.89976 54.37688,17.29776c0.35233,0.21767 1.43873,-1.38042 1.29406,-3.91009c-0.417,-7.306 -3.89198,-18.11595 -7.23831,-22.51928c-0.706,-0.929 -2.22266,-3.28147 -3.19799,-4.93147c-1.87667,-3.17467 -6.06032,-7.68409 -8.85065,-9.57809c-2.78033,-1.88733 -6.91301,-3.74337 -17.17334,-7.6837c-28.913,-11.10333 -32.0279,-12.0361 -41.63557,-12.5481c-6.90433,-0.36767 -30.0534,-0.34875 -32.98573,0.03125z" data-paper-data="{&quot;wickUUID&quot;:&quot;6e25f506-16a1-4ff2-941b-3b0cd85865fd&quot;,&quot;wickType&quot;:&quot;path&quot;}" fill="#ff8000" fill-rule="evenodd"/><path d="M73.92812,53.15791c-3.07567,0.148 -7.10782,0.55971 -8.61549,0.86471c-5.25,1.06267 -14.1801,4.92558 -17.21977,7.45258c-0.89133,0.741 -2.46967,1.9386 -3.04067,2.22627c-1.77733,0.89467 -2.35967,2.79056 -2.12034,6.88156c0.11867,2.03133 0.56258,5.0323 1.02691,6.7643c0.44233,1.65 1.41559,5.27803 2.15459,8.02803c0.739,2.75 1.52893,6.08572 1.75626,7.41505c0.227,1.32933 1.41911,3.05831 1.58444,3.05831c0.165,0 4.56671,-1.36878 9.55104,-3.00311c16.29,-5.341 33.77838,-10.24653 39.13071,-10.96986c6.581,-0.88933 16.612,-0.69966 25.60633,0.46801c5.89967,0.766 16.07222,2.90336 22.70989,4.76769c13.474,3.78433 37.30473,10.70222 39.77606,11.54722c4.32267,1.47733 11.29555,4.54573 18.31455,8.0574c9.77,4.88767 13.14036,7.0247 15.63036,9.9007l1.62114,1.70184l1.57831,-1.22481c3.79333,-5.11967 10.51709,-11.96403 14.10376,-14.3557l2.25668,-1.68762l-1.07879,-2.54064c-2.272,-4.15467 -6.32996,-8.82303 -9.91329,-11.5077c-4.271,-3.19967 -19.58386,-9.61623 -33.96719,-14.2259c-5.473,-1.754 -5.69388,-1.80873 -23.43055,-5.3004c-7.51667,-1.47967 -21.70356,-4.34377 -31.51189,-6.36144c-22.74267,-4.67867 -25.00927,-5.11327 -31.69594,-6.10494c-11.408,-1.692 -23.68178,-2.35722 -34.20711,-1.85155z" data-paper-data="{&quot;wickUUID&quot;:&quot;49eba100-7aa2-49bd-838e-d886bfccf942&quot;,&quot;wickType&quot;:&quot;path&quot;}" fill="#ff8000" fill-rule="evenodd"/><path d="M250.5576,105.94939c-2.67667,0.66 -3.75466,1.20302 -7.62833,3.78402c-4.78367,3.187 -8.03617,6.3336 -11.25917,10.90027c-8,11.33567 -7.75538,11.01565 -9.08271,12.03998c-0.756,0.58367 -0.44987,0.54209 -2.0522,0.53809c-3.28433,-0.00767 -4.48365,-1.01569 -4.71798,-3.88936c-0.396,-4.863 -2.92443,-8.45585 -7.85943,-11.23718c-2.75167,-1.55067 -10.4842,-5.54032 -10.75953,-5.54032c-0.072,0 -1.24756,0.77505 -1.35923,1.33372c-0.276,1.37967 -1.65306,3.30824 -4.89073,6.84757c-4.251,4.64767 -7.98199,10.65978 -10.34232,16.66678c-1.45733,3.708 -2.90909,6.42438 -4.69076,8.32905c-3.21467,3.437 -5.41316,3.67275 -10.96116,1.44708c-1.85367,-0.744 -3.62712,-1.33841 -3.76845,-1.33841c-0.141,0 -1.44746,1.5881 -2.10879,2.84643c-1.30733,2.488 -2.0736,5.32452 -2.41793,8.96319l-0.04577,3.07104l3.43838,1.37468c10.151,3.70133 23.23451,9.3055 28.57918,12.2665c6.92467,3.836 13.1177,10.99315 18.07703,20.89248c4.92467,9.83067 6.86515,17.82049 6.92715,28.29649c0.027,4.558 -0.01654,4.62681 -0.70954,5.56414c-0.40867,0.553 -0.71773,1.29782 -0.89273,2.08949c-0.38333,1.73267 -2.10547,3.8202 -3.7808,4.13453c-1.197,0.22433 -2.48408,-0.51493 -9.53175,-4.91926c-6.23267,-3.895 -9.12495,-5.33144 -9.50262,-4.84077c-0.179,0.232 -1.70995,2.17421 -2.31962,3.73254c-1.36633,3.494 -2.46045,5.72874 -3.66512,7.48641l-0.83131,2.27079l5.07766,3.63881c12.54767,8.98133 17.9367,10.7916 35.15837,11.82827c3.48333,0.20933 11.14032,0.41913 16.73199,0.43913c10.82033,0.038 12.68059,-0.17576 17.72326,-1.90009c4.63567,-1.58533 18.50657,-9.07122 17.20457,-9.28855c-0.36667,-0.061 -1.53768,-1.86143 -2.27101,-2.11776c-0.73333,-0.25667 -4.3682,-1.05062 -8.15653,-1.78595c-8.89267,-1.726 -11.05221,-2.46155 -12.13121,-4.54788c-0.99233,-1.91933 -0.32945,-4.11656 1.56288,-4.84756c2.70367,-1.04433 19.93414,2.34736 23.68314,4.65403c1.43333,0.882 1.90456,2.08571 1.90589,3.64171l0.25602,1.58065l2.03023,-0.67824c1.211,-0.79367 16.91917,-18.51209 18.6005,-20.98042c1.28,-1.87967 3.02259,-5.52774 3.04026,-6.37207c0.00433,-0.20867 -0.94241,-1.41565 -1.63008,-1.54332c-2.262,-0.41967 -4.73252,-1.71505 -5.76585,-3.34438c-1.59367,-2.513 -1.2365,-4.60524 1.5175,-10.09024c2.57967,-5.13733 5.67016,-9.32859 8.06516,-10.98826l1.45498,-1.86843l-4.12508,-4.20747c-7.06067,-7.11333 -14.24474,-13.34206 -21.39341,-18.54739c-4.29833,-3.13 -7.30778,-5.81093 -7.84445,-7.10693c-0.574,-1.386 -0.33792,-1.47604 1.71941,-3.40037c1.965,-1.83833 1.99361,-1.94347 4.87161,-0.5698c5.274,2.51733 18.60385,13.52242 31.81718,26.26175c2.24367,2.16333 4.55596,2.69031 4.68429,2.35598c0.61067,-1.59167 1.06835,-6.91497 0.88035,-10.9933c-0.24833,-5.38967 -1.09685,-9.63599 -2.76485,-13.92199c-1.64667,-4.23133 -10.14735,-21.39078 -12.07368,-24.37511c-1.67333,-2.59267 -2.08074,-2.96394 -9.22507,-7.26294c-5.372,-3.232 -9.52774,-6.18784 -13.43641,-9.55584c-3.00967,-2.59367 -6.28385,-4.68397 -8.41752,-5.42064c-2.06733,-0.71367 -11.54049,-2.31072 -14.57582,-2.45239c-1.97133,-0.092 -3.79171,0.10802 -6.01804,0.65702z" data-paper-data="{&quot;wickUUID&quot;:&quot;4ad59d1d-194f-4172-905b-6bf3ee9f4867&quot;,&quot;wickType&quot;:&quot;path&quot;}" fill="#ffffff" fill-rule="evenodd"/><path d="M195.52816,259.40594c0,0.23233 -1.96778,6.73263 -4.34778,14.35896c-7.25367,23.245 -8.1957,27.36947 -11.51737,50.4418c-2.362,16.40633 -4.42889,27.25122 -7.99689,41.96022c-1.35667,5.59167 -2.70335,11.48483 -3.00168,13.13483c-0.705,3.899 -1.9199,8.71285 -2.99123,11.84885c-3.27167,9.57667 -7.60035,30.17773 -8.07168,38.4114c-0.19867,3.477 0.2144,4.43201 0.99773,4.93768c1.17133,0.756 6.55899,2.21546 11.69599,3.15313c16.67267,3.04433 48.52207,3.34666 71.56807,0.67966c7.01867,-0.812 12.37986,-1.66021 25.96786,-4.13121c16.86667,-3.06667 24.26161,-5.10311 25.22428,-6.26311c0.47333,-0.57033 0.43745,-1.87271 -5.02622,-29.79738c-5.15933,-26.37 -5.17269,-26.42523 -10.49469,-41.91023c-4.37333,-12.72433 -8.44553,-28.98933 -14.54586,-58.09766c-1.21033,-5.775 -2.71022,-12.78197 -3.34155,-15.6083c-0.631,-2.82633 -1.54047,-7.61868 -2.02247,-10.65901c-0.482,-3.04033 -1.08591,-6.01959 -1.33724,-6.59726c-0.25133,-0.57767 -0.55862,-1.56274 -0.55862,-1.87574c0,-0.42033 -0.93027,-0.93521 -1.4846,-0.80388c-4.878,1.155 -17.3727,1.40512 -30.3667,0.60479c-12.57933,-0.77467 -18.22259,-1.59671 -23.40126,-3.39838c-1.55833,-0.54233 -3.04159,-1.06288 -3.36226,-1.17055c-0.352,-0.118 -1.58583,0.52639 -1.58583,0.78139z" data-paper-data="{&quot;wickUUID&quot;:&quot;0ed90394-d058-45e5-88a4-5eb37bd339d4&quot;,&quot;wickType&quot;:&quot;path&quot;,&quot;originalStyle&quot;:{&quot;strokeColor&quot;:null,&quot;fillColor&quot;:[&quot;Color&quot;,0.50196,0,1],&quot;strokeWidth&quot;:1}}" fill="#8000ff" fill-rule="evenodd"/><path d="M419.05504,224.64276c-5.239,1.479 -6.434,2.466 -8.732,7.214c-4.332,8.949 -1.168,21.412 6.59,25.958c13.308,7.799 30.493,-4.176 28.955,-20.178c-0.996,-10.37 -13.923,-16.635 -26.813,-12.994z" data-paper-data="{&quot;wickUUID&quot;:&quot;66e47623-abbe-48b6-9370-ff5e27dee035&quot;,&quot;wickType&quot;:&quot;path&quot;,&quot;originalStyle&quot;:{&quot;strokeColor&quot;:null,&quot;fillColor&quot;:[&quot;Color&quot;,0,0,0],&quot;strokeWidth&quot;:1}}" fill="#000000" fill-rule="evenodd"/><path d="M376.26271,242.37792c-38.093,2.637 -99.626,10.113 -110.181,13.386c-9.011,2.794 -12.88,7.406 -9.254,11.032c1.939,1.939 4.202,1.765 9.141,-0.706c2.322,-1.162 5.833,-2.339 7.802,-2.617c1.969,-0.278 10.592,-1.547 19.161,-2.82c48.306,-7.174 115.998,-11.627 128.583,-8.458c3.336,0.84 4.333,0.765 6.215,-0.468c2.853,-1.87 2.965,-5.39 0.227,-7.174c-4.743,-3.092 -25.705,-3.974 -51.694,-2.175z" data-paper-data="{&quot;wickUUID&quot;:&quot;4c997a81-fd2f-4518-814d-438dbaa84731&quot;,&quot;wickType&quot;:&quot;path&quot;,&quot;originalStyle&quot;:{&quot;strokeColor&quot;:null,&quot;fillColor&quot;:[&quot;Color&quot;,0,0,0],&quot;strokeWidth&quot;:1}}" fill="#000000" fill-rule="evenodd"/><path d="M285.84121,106.53147c2.285,2.138 7.352,5.736 11.26,7.995c10.441,6.038 13.141,9.111 19.316,21.983c7.048,14.692 9.566,22.434 10.268,31.562c0.532,6.917 0.352,8.152 -2.322,15.994c-1.594,4.674 -4.288,11.519 -5.987,15.212c-1.699,3.692 -4.079,9.332 -5.289,12.532c-3.715,9.822 -5.825,12.977 -16.592,24.819c-10.018,11.019 -10.829,11.682 -22.378,18.295c-11.017,6.308 -12.681,6.98 -20.637,8.332c-7.44,1.264 -11.208,1.343 -26.854,0.569c-24.381,-1.206 -28.487,-2.514 -45.452,-14.473c-7.63091,-5.37872 -13.55801,-10.91433 -17.02951,-15.85677c3.44914,-0.09783 7.4519,-0.33856 12.02205,-0.72156c2.0132,2.16085 4.42671,4.22417 7.33646,6.41433c16.884,12.707 21.642,14.284 45.572,15.109c25.733,0.887 25.807,0.867 49.296,-13.092c1.546,-0.919 5.157,-4.384 8.026,-7.7c2.868,-3.317 7.26,-8.279 9.758,-11.027c2.625,-2.886 5.015,-6.571 5.661,-8.725c0.614,-2.052 3.056,-8.061 5.426,-13.354c8.334,-18.616 9.499,-22.345 9.447,-30.213c-0.029,-4.385 -0.693,-9.183 -1.711,-12.378c-2.433,-7.633 -12.418,-27.596 -14.902,-29.795c-1.175,-1.04 -5.101,-3.601 -8.723,-5.69c-3.622,-2.089 -8.754,-5.762 -11.406,-8.163c-5.19256,-4.70256 -9.03358,-6.69019 -14.39246,-7.25269c0.51517,-2.52716 0.90578,-5.97708 1.14292,-9.65197c7.20719,1.28035 14.22301,4.67424 19.14354,9.27666z" data-paper-data="{&quot;wickUUID&quot;:&quot;5537b168-0150-4038-b0f1-a7fe13a1168c&quot;,&quot;wickType&quot;:&quot;path&quot;,&quot;originalStyle&quot;:{&quot;strokeColor&quot;:null,&quot;fillColor&quot;:[&quot;Color&quot;,0,0,0],&quot;strokeWidth&quot;:1}}" fill="#000000" fill-rule="nonzero"/><path d="M274.21884,150.94067c-3.491,3.49 -2.64,4.696 9.517,13.495c4.004,2.897 11.427,9.405 16.496,14.46c9.835,9.81 13.907,13.221 15.784,13.221c1.648,0 4.749,-3.295 4.749,-5.045c0,-3.516 -31.112,-31.853 -40.012,-36.444c-3.67,-1.893 -4.362,-1.859 -6.534,0.313z" data-paper-data="{&quot;wickUUID&quot;:&quot;72fe6254-fe1a-4dd3-b529-275b11b94575&quot;,&quot;wickType&quot;:&quot;path&quot;,&quot;originalStyle&quot;:{&quot;strokeColor&quot;:null,&quot;fillColor&quot;:[&quot;Color&quot;,0,0,0],&quot;strokeWidth&quot;:1}}" fill="#000000" fill-rule="evenodd"/><path d="M302.50522,187.93086c-3.793,4.021 -8.594,13.228 -8.594,16.48c0,2.903 1.812,4.98 5.6,6.42c5.063,1.925 8.457,-1.81 13.225,-14.553c2.125,-5.681 1.383,-9.041 -2.307,-10.444c-3.684,-1.4 -4.939,-1.068 -7.924,2.097z" data-paper-data="{&quot;wickUUID&quot;:&quot;90664a62-040a-4876-b81e-72d245b5c00b&quot;,&quot;wickType&quot;:&quot;path&quot;,&quot;originalStyle&quot;:{&quot;strokeColor&quot;:null,&quot;fillColor&quot;:[&quot;Color&quot;,0,0,0],&quot;strokeWidth&quot;:1}}" fill="#000000" fill-rule="evenodd"/><path d="M251.93494,231.32568c-2.528,4.722 0.003,6.966 9.798,8.688c4.11,0.723 8.817,1.758 10.461,2.3c5.637,1.861 9.659,-3.178 5.698,-7.138c-1.818,-1.818 -11.146,-4.255 -19.716,-5.15c-4.697,-0.491 -5.356,-0.354 -6.241,1.3z" data-paper-data="{&quot;wickUUID&quot;:&quot;27576cf3-8563-436f-b94b-05cb2d3287d3&quot;,&quot;wickType&quot;:&quot;path&quot;,&quot;originalStyle&quot;:{&quot;strokeColor&quot;:null,&quot;fillColor&quot;:[&quot;Color&quot;,0,0,0],&quot;strokeWidth&quot;:1}}" fill="#000000" fill-rule="evenodd"/><path d="M190.15919,249.32122c-0.939,0.94 -2.988,5.874 -4.553,10.966c-1.565,5.092 -4.258,13.689 -5.984,19.104c-4.314,13.53 -6.038,21.906 -9.71,47.17c-1.809,12.449 -4.463,26.552 -6.203,32.968c-1.673,6.168 -3.645,14.627 -4.383,18.798c-0.737,4.171 -1.982,9.099 -2.766,10.95c-2.299,5.427 -6.737,25.329 -7.683,34.451c-0.48,4.633 -1.119,9.402 -1.419,10.597c-1.892,7.539 11.936,12.29 42.618,14.644c13.662,1.049 47.509,-0.617 62.659,-3.083c4.677,-0.761 10.921,-1.769 13.875,-2.241c9.328,-1.49 19.534,-3.549 24.168,-4.877c2.462,-0.705 5.618,-1.524 7.014,-1.819c3.701,-0.781 7.185,-4.557 6.463,-7.003c-1.137,-3.853 -6.732,-30.823 -8.948,-43.14c-2.58,-14.338 -5.798,-26.067 -9.454,-34.462c-1.394,-3.2 -3.162,-8.839 -3.93,-12.532c-1.76,-8.458 -5.222,-23.353 -7.595,-32.672c-1.003,-3.939 -2.45,-10.786 -3.217,-15.217c-0.766,-4.431 -1.975,-10.34 -2.686,-13.132c-0.962,-3.771 -3.158,-17.799 -3.158,-20.168c0,-0.124 -0.987,-0.873 -2.194,-1.664c-2.531,-1.658 -5.44,-1.065 -6.747,1.376c-1.075,2.011 0.085,12.256 2.689,23.741c1.004,4.431 2.774,12.689 3.931,18.351c3.55,17.354 9.487,42.182 11.666,48.784c1.138,3.446 3.342,9.891 4.897,14.322c1.556,4.431 3.644,12.286 4.642,17.455c0.998,5.169 3.401,17.455 5.342,27.302c1.941,9.846 3.527,18.353 3.526,18.903c-0.004,1.195 -7.29,3.279 -18.353,5.248c-4.431,0.789 -11.279,2.03 -15.217,2.758c-25.471,4.71 -53.597,5.774 -81.457,3.081c-7.86,-0.76 -18.26,-3.195 -19.671,-4.606c-1.729,-1.73 3.382,-29.285 7.864,-42.392c1.179,-3.446 2.427,-8.28 2.775,-10.741c0.347,-2.462 2.194,-10.518 4.104,-17.903c2.009,-7.769 4.819,-22.668 6.669,-35.358c3.914,-26.851 4.693,-30.426 10.926,-50.127c2.725,-8.615 5.618,-18.02 6.428,-20.899c1.471,-5.23 1.471,-5.236 -0.631,-6.937c-2.654,-2.149 -4.145,-2.148 -6.297,0.004z" data-paper-data="{&quot;wickUUID&quot;:&quot;a757b098-813e-4b48-a981-7136c067bc5d&quot;,&quot;wickType&quot;:&quot;path&quot;,&quot;originalStyle&quot;:{&quot;strokeColor&quot;:null,&quot;fillColor&quot;:[&quot;Color&quot;,0,0,0],&quot;strokeWidth&quot;:1}}" fill="#000000" fill-rule="evenodd"/><path d="M185.96639,252.88894c-1.522,0.928 -5.232,4.854 -8.245,8.724c-5.377,6.906 -23.138,31.778 -28.357,39.709c-1.458,2.215 -3.693,5.264 -4.967,6.775c-3.582,4.244 -9.819,16.146 -9.819,18.735c0,3.016 3.73,6.715 6.772,6.715c1.308,0 5.967,-1.454 10.354,-3.23l7.976,-3.229l1.873,2.381c1.572,1.999 2.461,2.337 5.552,2.11c3.246,-0.238 3.919,-0.693 5.702,-3.851c2.467,-4.367 2.627,-9.696 0.416,-13.819c-1.639,-3.057 -6.414,-6.321 -9.247,-6.321c-2.395,0 -6.696,4.152 -8.203,7.919c-0.938,2.343 -2.271,3.819 -4.155,4.599c-3.883,1.609 -4.212,0.694 -1.247,-3.466c2.696,-3.782 11.107,-15.79 23.583,-33.668c8.241,-11.808 14.355,-19.454 18.136,-22.677c2.987,-2.546 3.187,-5.805 0.472,-7.707c-2.543,-1.781 -3.233,-1.75 -6.596,0.301z" data-paper-data="{&quot;wickUUID&quot;:&quot;dd61ddea-f3dc-4db5-963c-d7744d4a02b9&quot;,&quot;wickType&quot;:&quot;path&quot;,&quot;originalStyle&quot;:{&quot;strokeColor&quot;:null,&quot;fillColor&quot;:[&quot;Color&quot;,0,0,0],&quot;strokeWidth&quot;:1}}" fill="#000000" fill-rule="evenodd"/><path d="M86.68864,154.0305c-4.43,1.147 -9.193,2.346 -10.582,2.664c-4.082,0.934 -5.68,5.99 -7.747,24.498c-2.88,25.785 -2.287,34.489 2.431,35.673c1.563,0.393 3.303,0.053 5.107,-0.996c3.789,-2.205 12.404,-3.914 25.396,-5.038c14.027,-1.213 27.685,-0.049 49.188,4.193c29.212,5.762 35.267,7.763 48.065,15.882c4.395,2.789 8.428,5.071 8.961,5.071c1.853,0 4.947,-2.798 4.947,-4.474c0,-0.927 0.403,-1.935 0.895,-2.239c1.367,-0.845 1.066,-12.131 -0.503,-18.896c-3.097,-13.354 -11.131,-27.05 -19.907,-33.939c-7.83,-6.145 -47.592,-21.308 -62.012,-23.648c-3.161,-0.513 -12.596,-0.911 -20.965,-0.884c-12.928,0.041 -16.429,0.362 -23.274,2.133zM140.27764,164.6615c7.156,2.204 33.183,12.068 40.708,15.428c4.788,2.138 9.989,6.782 12.465,11.132c1.262,2.215 2.971,4.833 3.799,5.818c1.882,2.238 4.314,8.343 5.883,14.77c1.22,4.997 1.648,10.741 0.8,10.741c-0.256,0 -2.068,-1.012 -4.028,-2.249c-5.542,-3.498 -12.914,-6.513 -21.814,-8.919c-11.752,-3.178 -38.38,-8.28 -49.57,-9.498c-11.8,-1.284 -36.122,-0.53 -43.622,1.352c-8.275,2.077 -8.506,2.012 -8.489,-2.393c0.019,-5.033 3.398,-33.913 4.048,-34.598c0.279,-0.295 3.407,-1.412 6.95,-2.482c5.869,-1.774 8.156,-1.93 25.688,-1.747c18.123,0.189 19.708,0.343 27.182,2.645z" data-paper-data="{&quot;wickUUID&quot;:&quot;da14568b-759c-4274-9d9a-3039689a6795&quot;,&quot;wickType&quot;:&quot;path&quot;,&quot;originalStyle&quot;:{&quot;strokeColor&quot;:null,&quot;fillColor&quot;:[&quot;Color&quot;,0,0,0],&quot;strokeWidth&quot;:1}}" fill="#000000" fill-rule="evenodd"/><path d="M92.11954,204.59404c-5.634,3.46 -11.233,7.689 -13.194,9.967c-3.438,3.991 -6.111,10.113 -6.111,13.994c0,4.29 8.234,20.63 14.867,29.504c3.725,4.983 5.814,4.759 20.673,-2.215c32.313,-15.166 31.917,-15.057 57.047,-15.83c11.155,-0.343 15.687,-0.812 17.157,-1.776c1.098,-0.719 2.867,-3.632 3.929,-6.473c1.063,-2.841 2.336,-5.651 2.829,-6.245c1.505,-1.813 0.448,-5.071 -2.108,-6.502c-2.235,-1.25 -2.614,-1.21 -4.924,0.51c-1.376,1.026 -3.113,3.508 -3.86,5.517c-0.747,2.009 -1.57,3.865 -1.829,4.124c-0.259,0.259 -7.917,0.875 -17.018,1.37c-12.36,0.671 -18.125,1.383 -22.787,2.812c-6.498,1.993 -24.249,9.584 -34.638,14.814c-3.311,1.666 -6.387,3.03 -6.835,3.03c-1.618,0 -12.657,-20.119 -12.657,-23.069c0,-0.904 1.139,-3.435 2.53,-5.624c1.999,-3.145 4.531,-5.155 12.069,-9.581c5.246,-3.082 10.196,-6.606 11,-7.833c1.352,-2.063 1.352,-2.398 -0.005,-4.468c-2.254,-3.441 -5.271,-2.698 -16.135,3.974z" data-paper-data="{&quot;wickUUID&quot;:&quot;e05bee66-7a90-4724-bddd-64f4460f58c5&quot;,&quot;wickType&quot;:&quot;path&quot;,&quot;originalStyle&quot;:{&quot;strokeColor&quot;:null,&quot;fillColor&quot;:[&quot;Color&quot;,0,0,0],&quot;strokeWidth&quot;:1}}" fill="#000000" fill-rule="evenodd"/><path d="M240.67939,100.16555c-6.946,3.751 -13.955,10.8 -20.535,20.651c-4.619,6.915 -5.184,8.22 -4.459,10.294c0.661,1.892 1.488,2.43 4.07,2.647c3.195,0.268 3.334,0.135 10.009,-9.519c5.634,-8.149 7.716,-10.397 12.409,-13.405c10.019,-6.422 11.318,-8.369 7.877,-11.811c-2.351,-2.35 -3.063,-2.264 -9.371,1.143z" data-paper-data="{&quot;wickUUID&quot;:&quot;d2b83a10-2453-4c8c-9e0b-92387e27097a&quot;,&quot;wickType&quot;:&quot;path&quot;,&quot;originalStyle&quot;:{&quot;strokeColor&quot;:null,&quot;fillColor&quot;:[&quot;Color&quot;,0,0,0],&quot;strokeWidth&quot;:1}}" fill="#000000" fill-rule="evenodd"/><path d="M69.68177,44.37235c-12.15,1.156 -25.985,7.145 -34.677,15.011c-2.411,2.183 -2.132,13.147 0.578,22.671c1.185,4.163 2.858,10.994 3.719,15.178c2.398,11.654 3.939,12.825 11.581,8.8c6.75,-3.554 16.952,-6.992 35.806,-12.063c14.951,-4.022 15.397,-4.085 25.511,-3.608c15.779,0.745 24.907,2.869 68.478,15.936c7.733,2.319 26.885,11.431 30.603,14.559c1.774,1.493 3.109,3.753 3.772,6.388c1.104,4.386 3.497,6.113 6.801,4.908c4.708,-1.717 3.467,-11.032 -2.256,-16.929c-2.222,-2.289 -7.403,-5.426 -15.32,-9.275c-13.234,-6.433 -16.771,-7.779 -29.866,-11.364c-4.923,-1.348 -14.591,-4.137 -21.483,-6.197c-17.463,-5.219 -30.807,-7.523 -43.862,-7.573c-9.881,-0.039 -11.821,0.254 -24.229,3.653c-7.418,2.032 -18.387,5.333 -24.377,7.335c-5.989,2.002 -11.062,3.64 -11.273,3.64c-0.211,0 -0.673,-1.712 -1.026,-3.804c-0.353,-2.093 -1.597,-6.997 -2.764,-10.9c-2.81,-9.391 -2.848,-15.293 -0.108,-16.706c1.107,-0.571 2.857,-1.804 3.887,-2.741c1.031,-0.936 5.059,-2.961 8.952,-4.499c6.267,-2.477 8.38,-2.845 18.462,-3.214c14.006,-0.513 28.434,0.887 45.456,4.411c33.393,6.913 56.599,11.593 63.572,12.821c7.955,1.4 33.212,10.792 40.483,15.053c5.001,2.93 9.802,8.22 12.76,14.056c2.825,5.576 5.648,7.168 8.914,5.028c3.048,-1.997 2.877,-3.708 -1.083,-10.835c-6.789,-12.219 -13.355,-16.78 -37.371,-25.964c-9.576,-3.662 -16.765,-5.746 -25.064,-7.267c-10.329,-1.893 -22.704,-4.394 -60.868,-12.303c-18.246,-3.781 -40.148,-5.496 -53.708,-4.206z" data-paper-data="{&quot;wickUUID&quot;:&quot;e6b0248c-c3ac-4aff-a800-f71cce6dac73&quot;,&quot;wickType&quot;:&quot;path&quot;,&quot;originalStyle&quot;:{&quot;strokeColor&quot;:null,&quot;fillColor&quot;:[&quot;Color&quot;,0,0,0],&quot;strokeWidth&quot;:1}}" fill="#000000" fill-rule="evenodd"/><path d="M115.33293,94.06503c-11.973,2.525 -28.216,10.336 -34.53,16.606c-6.892,6.843 -6.801,7.255 4.939,22.351c4.234,5.444 8.788,12.121 10.12,14.838c1.628,3.318 3.103,5.109 4.496,5.459c2.117,0.531 9.631,-1.225 17.661,-4.128c2.461,-0.889 6.086,-1.855 8.056,-2.146c1.969,-0.291 7.766,-1.198 12.881,-2.017c8.011,-1.282 10.184,-1.328 15.665,-0.333c3.5,0.636 7.95,1.898 9.889,2.806c5.625,2.632 8.868,2.202 11.993,-1.589c1.468,-1.781 3.361,-5.104 4.208,-7.385c2.525,-6.805 6.714,-13.571 11.307,-18.262c2.572,-2.627 4.324,-5.23 4.324,-6.424c0,-1.881 -2.451,-4.972 -3.942,-4.972c-0.367,0 -3.357,-1.579 -6.643,-3.508c-3.286,-1.93 -9.801,-4.824 -14.478,-6.432c-7.649,-2.63 -9.409,-2.905 -17.507,-2.743c-5.733,0.114 -12.836,-0.475 -19.558,-1.625c-11.937,-2.04 -11.6,-2.031 -18.881,-0.496zM136.02893,104.47003c7.681,1.348 12.498,1.718 17.347,1.33c6.118,-0.49 7.498,-0.261 15.556,2.574c4.863,1.711 9.527,3.731 10.365,4.489c0.837,0.757 1.993,1.377 2.57,1.377c1.542,0 1.412,0.29 -2.896,6.452c-2.169,3.103 -5.046,8.395 -6.393,11.759c-2.104,5.256 -2.715,6.056 -4.336,5.683c-15.931,-3.67 -18.373,-3.983 -25.473,-3.268c-3.996,0.403 -7.58,0.928 -7.966,1.166c-0.385,0.238 -3.851,0.871 -7.703,1.407c-3.851,0.535 -9.917,1.98 -13.48,3.209c-3.563,1.23 -7.077,2.236 -7.809,2.236c-0.736,0 -2.185,-1.954 -3.241,-4.372c-1.05,-2.405 -2.97,-5.207 -4.267,-6.228c-3.576,-2.812 -11.376,-13.52 -10.85,-14.892c0.73,-1.903 10.077,-6.984 19.376,-10.534c12.744,-4.865 14.345,-4.996 29.2,-2.388z" data-paper-data="{&quot;wickUUID&quot;:&quot;18d51c10-590a-481a-9b0e-ec5dcd5301d3&quot;,&quot;wickType&quot;:&quot;path&quot;,&quot;originalStyle&quot;:{&quot;strokeColor&quot;:null,&quot;fillColor&quot;:[&quot;Color&quot;,0,0,0],&quot;strokeWidth&quot;:1}}" fill="#000000" fill-rule="evenodd"/><path d="M119.06461,102.51147c-7.64767,1.19733 -27.731,9.92433 -31.10933,13.52333c-0.93,0.991 -1.0677,2.58444 1.2413,6.09344c2.22767,3.38533 4.61495,6.3166 8.07495,9.89593c2.28067,2.35933 3.2727,3.71492 4.66403,6.37159c2.059,3.93233 3.15228,5.05792 4.20428,4.93092c0.41967,-0.05033 3.3355,-0.7677 5.90217,-1.61303c5.93767,-1.95567 10.30519,-2.99637 16.89386,-4.0247c2.88733,-0.45067 5.33871,-0.90378 5.52904,-1.02145c0.82367,-0.509 6.47795,-1.19837 11.24695,-1.3697c3.84267,-0.13767 5.88781,-0.0523 8.22148,0.33237c2.071,0.34167 3.25178,0.40165 3.64111,0.19332c1.25833,-0.67333 2.86693,-0.30767 4.36293,0.99c0.36667,0.318 2.34322,0.91393 3.99322,1.29226c3.65533,0.83867 4.51376,0.38925 5.86676,-2.62542c2.88167,-6.42133 5.54513,-11.39678 8.1158,-15.21011c1.586,-2.35233 3.00223,-4.56174 3.08356,-4.77374c0.08133,-0.212 -0.66323,-1.57428 -1.2639,-1.79361c-0.60067,-0.21933 -1.66119,-0.84793 -2.19019,-1.3056c-0.991,-0.85767 -8.51501,-3.93496 -14.39734,-5.88896l-3.56563,-1.16257l-8.8927,-0.04183c-5.179,-0.02267 -9.74776,-0.20159 -11.11576,-0.43659c-14.394,-2.47367 -18.92959,-2.91585 -22.50659,-2.35585z" data-paper-data="{&quot;wickUUID&quot;:&quot;ec46c758-3d72-4a4b-b980-1d24bd26994c&quot;,&quot;wickType&quot;:&quot;path&quot;}" fill="#ff8000" fill-rule="evenodd"/><path d="M156.83398,135.73842c-2.332,1.362 -6.753,8.948 -8.302,14.246c-1.994,6.817 -1.857,12.158 0.368,14.383c2.131,2.13 3.44,2.237 5.942,0.485c1.462,-1.025 1.966,-2.577 2.337,-7.206c0.379,-4.718 1.122,-6.951 3.706,-11.138c3.716,-6.019 3.919,-7.414 1.442,-9.89c-1.967,-1.967 -3.273,-2.177 -5.493,-0.88z" data-paper-data="{&quot;wickUUID&quot;:&quot;cec785dc-417f-4478-bd05-ca0bb983c25b&quot;,&quot;wickType&quot;:&quot;path&quot;,&quot;originalStyle&quot;:{&quot;strokeColor&quot;:null,&quot;fillColor&quot;:[&quot;Color&quot;,0,0,0],&quot;strokeWidth&quot;:1}}" fill="#000000" fill-rule="evenodd"/><path d="M250.13034,96.76842c-7.753,1.494 -10.152,4.715 -6.346,8.52c2.029,2.03 3.492,2.178 8.308,0.841c2.617,-0.727 5.227,-0.586 11.514,0.624c7.24,1.393 8.387,1.419 10.489,0.239c1.71,-0.96 2.361,-2.046 2.361,-3.941c0,-3.833 -1.203,-4.288 -18.798,-7.103c-0.984,-0.158 -4.372,0.211 -7.528,0.82z" data-paper-data="{&quot;wickUUID&quot;:&quot;ff68e5c4-d137-49e5-9406-69c9855c1505&quot;,&quot;wickType&quot;:&quot;path&quot;,&quot;originalStyle&quot;:{&quot;strokeColor&quot;:null,&quot;fillColor&quot;:[&quot;Color&quot;,0,0,0],&quot;strokeWidth&quot;:1}}" fill="#000000" fill-rule="evenodd"/><path d="M272.3509,437.45916c-1.336,1.336 -1.708,2.504 -1.307,4.103c0.309,1.23 6.428,9.151 13.599,17.602c13.174,15.525 36.476,43.881 40.598,49.404c3.136,4.201 5.899,5.345 8.613,3.567c1.287,-0.843 2.128,-2.266 2.128,-3.597c0,-2.386 -12.083,-17.846 -36.65,-46.891c-7.658,-9.054 -15.253,-18.118 -16.877,-20.14c-5.167,-6.437 -6.987,-7.166 -10.104,-4.048z" data-paper-data="{&quot;wickUUID&quot;:&quot;f41c2377-99e2-46fc-b9e1-a9352ecdec8f&quot;,&quot;wickType&quot;:&quot;path&quot;,&quot;originalStyle&quot;:{&quot;strokeColor&quot;:null,&quot;fillColor&quot;:[&quot;Color&quot;,0,0,0],&quot;strokeWidth&quot;:1}}" fill="#000000" fill-rule="evenodd"/><path d="M182.02052,443.64706c-2.003,2.003 -2.139,3.323 -0.874,8.504c0.48,1.969 0.621,6.693 0.312,10.496l-0.561,6.916l-4.586,2.603c-2.522,1.431 -10.829,7.938 -18.46,14.458c-7.631,6.521 -21.643,17.506 -31.139,24.412c-9.495,6.906 -17.474,12.896 -17.731,13.312c-0.257,0.416 2.971,0.756 7.173,0.756h7.64l14.567,-10.665c8.012,-5.866 20.005,-15.35 26.651,-21.075c6.647,-5.726 14.648,-11.863 17.781,-13.638c6.753,-3.826 7.693,-5.615 8.537,-16.248c1.25,-15.765 -3.423,-25.718 -9.31,-19.831z" data-paper-data="{&quot;wickUUID&quot;:&quot;62d6ae5f-7256-4ebe-9d1e-29ea27b864f7&quot;,&quot;wickType&quot;:&quot;path&quot;,&quot;originalStyle&quot;:{&quot;strokeColor&quot;:null,&quot;fillColor&quot;:[&quot;Color&quot;,0,0,0],&quot;strokeWidth&quot;:1}}" fill="#000000" fill-rule="evenodd"/></g><g fill="none" fill-rule="nonzero" stroke="none" stroke-width="1" stroke-linecap="butt" stroke-linejoin="miter" stroke-miterlimit="10" stroke-dasharray="" stroke-dashoffset="0" font-family="sans-serif" font-weight="normal" font-size="12" text-anchor="start" style="mix-blend-mode: normal"/><g id="wick_project_gui" fill="none" fill-rule="nonzero" stroke="none" stroke-width="1" stroke-linecap="butt" stroke-linejoin="miter" stroke-miterlimit="10" stroke-dasharray="" stroke-dashoffset="0" font-family="sans-serif" font-weight="normal" font-size="12" text-anchor="start" style="mix-blend-mode: normal"/></g></svg>