<svg version="1.1" xmlns="http://www.w3.org/2000/svg" xmlns:xlink="http://www.w3.org/1999/xlink" width="1260" height="594" viewBox="0,0,1260,594"><g transform="translate(479.91246,62.26383) scale(0.94565,0.94565)"><g id="wick_project_bg" fill="#999999" fill-rule="nonzero" stroke="none" stroke-width="1" stroke-linecap="butt" stroke-linejoin="miter" stroke-miterlimit="10" stroke-dasharray="" stroke-dashoffset="0" font-family="none" font-weight="none" font-size="none" text-anchor="none" style="mix-blend-mode: normal"><rect x="0" y="0" width="720" height="480"/></g><g data-paper-data="{&quot;wickUUID&quot;:&quot;4f5bf707-f0fb-414b-9342-1390229f94f7&quot;,&quot;wickType&quot;:&quot;clipsandpaths&quot;}" fill="none" fill-rule="evenodd" stroke="none" stroke-width="1" stroke-linecap="butt" stroke-linejoin="miter" stroke-miterlimit="10" stroke-dasharray="" stroke-dashoffset="0" font-family="none" font-weight="none" font-size="none" text-anchor="none" style="mix-blend-mode: normal"><path d="M307.68328,209.21268c-3.684,0.40867 -7.81084,1.49236 -9.52584,2.49736c-0.79167,0.464 -2.21762,1.63881 -2.82129,2.38614c-0.60333,0.747 -2.22368,2.46137 -3.53435,3.7377c-1.77233,1.72633 -2.53471,2.76104 -2.69971,3.64004c-0.122,0.65 0.13108,2.37731 0.21141,2.45764c0.08067,0.08033 1.33966,-0.05755 1.98066,-0.43588c3.94667,-2.32867 17.22671,-5.64875 22.61871,-5.64808c2.28733,0.00033 10.26678,1.15036 14.87378,2.12636c2.569,0.544 3.60881,-0.82985 3.61781,-2.50352c0.00767,-1.421 -1.86929,-2.95094 -6.64496,-5.27627c-6.197,-3.01733 -7.42565,-3.3737 -11.58932,-3.32237c-1.942,0.024 -5.02023,0.17855 -6.4869,0.34088z" data-paper-data="{&quot;wickUUID&quot;:&quot;5b320946-d013-4b55-97ba-d2d6a7c4ca80&quot;,&quot;wickType&quot;:&quot;path&quot;}" fill="#ff8000"/><path d="M310.69177,226.8427c-1.55833,0.135 -4.33611,0.59481 -5.89444,0.99248c-2.93733,0.74933 -9.74258,2.79491 -9.86291,2.93191c-0.03767,0.043 -2.19324,4.20281 -4.55724,8.96948c-6.18067,12.46367 -8.06359,15.49804 -14.04992,22.64904c-1.166,1.393 -1.53669,3.89404 -1.42769,4.00304c0.109,0.109 3.0833,-0.62448 6.15697,-1.65148c9.52467,-3.18267 16.35774,-4.22115 28.07707,-4.22115c14.45333,0 22.98617,1.69756 33.09784,6.58156c7.331,3.54067 13.50456,7.26218 21.85023,13.12818c2.913,2.04733 4.66048,1.70128 4.66048,-0.37039c0,-1.24567 1.01068,-4.98467 3.25235,-12.22434c3.66567,-11.837 3.5461,-12.24921 0.93243,-15.51921c-2.122,-2.655 -8.90849,-7.63449 -17.69549,-12.86082c-9.928,-5.905 -17.22625,-8.84946 -26.55758,-10.71646c-7.90667,-1.58167 -13.29877,-2.09751 -17.9821,-1.69184z" data-paper-data="{&quot;wickUUID&quot;:&quot;562d8101-f2eb-48fe-88d3-30ee2dd592eb&quot;,&quot;wickType&quot;:&quot;path&quot;}" fill="#ff8000"/><path d="M148.52878,89.86332c-7.106,0.545 -10.15698,2.56263 -12.70131,7.62296c-4.28633,8.52533 -3.45399,16.54116 3.05201,28.15916c1.71933,3.07067 4.67565,7.87543 5.07832,8.2781c0.062,0.06233 2.68407,-0.26136 5.0474,-0.90636c10.33733,-2.82267 22.31763,-4.63667 35.56796,-5.383c3.27867,-0.18467 14.09333,0.26288 18.076,0.74355l2.11316,-0.01816l0.53912,-1.93858c1.055,-3.79 3.6815,-5.76721 14.9055,-11.19221c6.81533,-3.294 11.37982,-5.1774 17.01049,-7.01673c11.17467,-3.65067 17.88063,-4.90965 33.1803,-6.23765c3.71267,-0.32233 6.83631,-2.33955 6.83631,-2.46088c0,-0.23267 -4.42288,-0.90491 -20.26588,-3.05524c-15.03467,-2.04067 -27.26021,-3.56923 -32.90454,-4.1159c-8.89433,-0.86167 -32.04145,-1.91358 -55.53545,-2.52325c-13.922,-0.36133 -14.98339,-0.34081 -19.99939,0.04419z" data-paper-data="{&quot;wickUUID&quot;:&quot;38e17cf1-4eb0-4ac1-999e-0630ea98a381&quot;,&quot;wickType&quot;:&quot;path&quot;}" fill="#ff8000"/><path d="M302.61791,113.2442c-0.005,1.274 -1.48078,4.07822 -2.96378,5.63755l-0.84621,1.06065l-3.49608,-0.23636c-2.06433,-0.11833 -5.67417,-0.38795 -7.96584,-0.59695c-5.523,-0.50367 -25.23542,-0.49672 -31.94142,0.00795c-17.893,1.34633 -31.36274,4.17525 -37.01474,7.78092c-0.87,0.555 -2.13436,2.18174 -2.04769,2.32241c0.087,0.14033 1.5907,0.95777 2.55737,1.08144c3.13767,0.40167 13.23418,2.49911 17.84785,3.71078c9.84567,2.58567 20.43123,6.61232 26.74223,10.16999l3.39497,1.73531l2.48541,-2.47233c2.85333,-3.196 8.40883,-7.92774 13.0575,-11.03841c12.864,-8.60733 23.78259,-11.04549 38.44859,-8.55316c9.06067,1.53933 15.5282,4.18845 21.75153,8.76845c1.179,0.86767 4.07112,3.59552 6.66479,6.23385l5.18132,5.02614l3.47186,-4.0465l2.79086,-4.40118l-4.98548,-5.02513c-5.04,-4.90267 -7.80725,-7.01981 -11.77025,-9.14548c-7.07033,-3.792 -14.25865,-5.61567 -30.62698,-7.74567c-4.21767,-0.549 -8.28828,-1.11468 -8.88328,-1.23368c-0.977,-0.19533 -1.84953,0.24474 -1.85253,0.95941z" data-paper-data="{&quot;wickUUID&quot;:&quot;363c1c41-f700-47c2-a69b-8a45c094636a&quot;,&quot;wickType&quot;:&quot;path&quot;}" fill="#ff8000"/><path d="M172.41441,137.17032c-7.57633,0.64133 -14.62356,2.0094 -21.55089,4.09307c-19.23267,5.78533 -26.79128,11.62702 -39.23228,30.34202c-4.39533,6.612 -6.97767,11.29023 -7.989,14.60856c-0.51033,1.67467 -0.65787,3.44409 -0.65354,9.44542c0.00267,3.94167 0.20108,9.06398 0.43475,11.26398c0.75133,7.077 1.83724,13.84759 2.44257,15.44092c0.95467,2.51267 11.88707,21.17923 15.86274,27.08423c6.22533,9.24767 19.30335,23.03044 24.99035,26.36844c7.65733,4.49467 20.12793,8.47646 36.07393,11.47013c8.92333,1.67533 20.08939,3.27632 22.05739,3.15799l2.47216,-1.47458l-6.98351,-6.51908l-6.97487,-6.49028l-2.08579,0.09835c-0.833,0.143 -2.88816,0.25909 -4.72149,0.25909c-2.97933,0 -3.11395,0.04623 -4.82028,-0.79144c-2.37867,-1.168 -4.11666,-3.09226 -5.76433,-6.42459c-2.00933,-4.06367 -2.56032,-6.59341 -2.59399,-11.80308c-0.03,-4.64467 0.13982,-5.78395 1.66249,-8.81128c1.28467,-2.55467 5.63896,-5.91197 10.14629,-7.86797c2.22067,-0.96367 2.18398,-0.93378 5.74698,-0.92745c4.25867,0.00767 7.30241,0.66889 8.89541,2.06356c2.13367,1.868 4.6245,6.05974 5.4775,9.15174c0.747,2.70767 0.92655,6.61212 0.55988,11.56445c-0.35167,4.754 -0.93831,6.60339 -2.58131,8.31906l-0.90071,1.45688l1.90342,2.08781c4.08233,4.181 16.15737,14.49635 16.90204,14.49635c1.52767,0 16.58998,-3.79256 23.94898,-6.08289l4.68487,-1.49774l0.14601,-2.06709c-0.19067,-1.437 -0.28652,-1.28611 1.01748,-2.93578c0.76767,-0.971 5.42773,-5.87519 10.40806,-10.95719c4.98,-5.082 9.95721,-10.35408 10.98588,-11.62841c1.93867,-2.40067 4.32096,-6.38264 8.13196,-13.61664l2.30956,-4.43573l-1.4574,-1.10777c-1.37033,-0.257 -2.39544,-0.89846 -3.03011,-2.41746c-0.54033,-1.293 -0.25249,-3.17604 1.46751,-10.55804c0.55133,-2.36533 0.14777,-5.12233 -0.03156,-5.233c-0.72233,-0.44633 -13.75658,-0.2299 -20.41658,0.34977c-6.20867,0.54033 -7.72283,1.05173 -7.52583,1.5134c0.512,1.19967 0.37939,6.29588 -0.13028,9.19088c-0.82633,4.694 -3.09725,12.45892 -4.07758,13.90892c-1.05967,1.567 -3.16838,3.33483 -5.14171,4.23016c-3.22433,1.46333 -6.02649,0.80962 -7.97349,-1.99971c-1.77167,-2.557 -2.1153,-4.47762 -2.1263,-9.84062c-0.01,-5.012 0.47574,-8.17959 1.81874,-12.08326c0.35133,-1.02133 0.29047,-2.76667 0.29047,-2.85167c0,-0.085 -2.07092,-0.2126 -3.94992,-0.09593c-1.879,0.11633 -8.46254,0.51401 -14.60421,0.88201c-13.763,0.82433 -21.64325,1.50497 -25.45825,2.19764c-2.98967,0.543 -4.49963,1.81164 -3.35063,2.17631c1.03567,0.32867 2.63949,2.27617 2.88616,3.59184c0.487,2.596 -0.32891,4.02341 -2.94891,4.72874c-2.015,0.54267 -9.70749,1.52937 -22.98282,2.97537c-13.52967,1.474 -21.93975,2.61116 -26.97375,3.64716c-4.476,0.921 -6.86623,0.90143 -8.3279,-0.08224c-0.623,-0.41933 -0.89135,-0.95292 -1.13302,-1.45592c-0.24433,-0.50767 -1.13982,-1.26398 -2.11915,-1.81698c-2.751,-1.55267 -2.91459,-1.15742 -2.83326,-3.84075c0.11467,-3.798 -0.06714,-3.52612 7.15719,-6.10712c2.80933,-1.00367 5.58128,-2.99146 5.76895,-3.18279c0.89933,-0.91767 -3.94773,-3.31807 -7.99506,-3.77974c-2.987,-0.34067 -4.36208,-0.78773 -5.83608,-2.4664c-1.691,-1.926 -1.73608,-2.26067 0.77292,-4.961c2.37567,-2.557 4.27806,-2.64479 10.54939,-0.81846c2.2,0.64067 5.70439,1.60767 7.95672,2.17467c5.917,1.48933 24.86871,5.715 25.00738,5.576c0.06467,-0.06467 -0.04792,-2.17579 -1.10492,-2.87479c-7.919,-5.23767 -24.87776,-19.6123 -34.81876,-29.51363c-5.391,-5.36933 -5.63627,-5.4191 -5.63627,-6.46977c0,-2.19333 1.90393,-4.37068 4.03593,-4.37335c1.84333,-0.00267 5.81514,3.12283 12.76747,9.86183c9.814,9.51267 30.65915,25.36689 38.67548,29.41489l2.17774,1.01332l3.37364,-0.85452c1.73967,-0.45567 3.64484,-0.93191 4.37817,-1.08391c2.68367,-0.55633 12.27539,-1.33241 24.63772,-1.99408c25.71533,-1.37633 41.55216,-2.43846 46.14649,-3.09413c2.85933,-0.40833 16.96221,-0.46736 20.00921,-0.08403l2.2288,-0.13184l0.87127,-3.47959c1.37867,-6.069 2.08312,-10.98998 2.26112,-15.58731c0.21067,-5.45267 -0.0412,-6.50332 -3.2932,-13.35332c-2.28333,-4.80867 -4.35853,-8.03523 -7.07286,-11.03023c-3.57867,-3.94833 -11.03532,-9.65957 -16.90832,-12.97124c-8.44533,-4.76167 -21.14795,-8.93311 -37.28828,-12.24178c-10.42067,-2.13633 -10.56668,-2.15529 -28.81335,-2.24262c-9.25833,-0.04433 -18.45409,0.04993 -20.28742,0.20526z" data-paper-data="{&quot;wickUUID&quot;:&quot;32dba4d1-270b-4958-a0bd-e68065ec20ae&quot;,&quot;wickType&quot;:&quot;path&quot;}" fill="#ffffff"/><path d="M251.43217,289.56332c-1.996,0.887 -11.03245,3.66496 -15.09778,4.64129c-1.78767,0.42933 -3.5887,2.29654 -3.5887,2.40554c0,0.224 5.84742,3.70402 11.34175,6.72535c7.03667,3.86967 15.80147,8.45055 15.80147,8.30688c0,-0.07967 0.15579,-4.04644 -0.78288,-7.48077c-1.05433,-3.85667 -2.02178,-6.69853 -2.54245,-7.47453c-0.786,-1.17133 -1.08356,-2.39723 -1.48823,-7.22056c-0.03533,-0.42167 -2.06951,-0.60253 -3.64318,0.0968z" data-paper-data="{&quot;wickUUID&quot;:&quot;4328079b-ddb9-42f2-b1ad-ea088b12d108&quot;,&quot;wickType&quot;:&quot;path&quot;,&quot;originalStyle&quot;:{&quot;strokeColor&quot;:null,&quot;fillColor&quot;:[&quot;Color&quot;,0.50196,0,1],&quot;strokeWidth&quot;:1}}" fill="#8000ff"/><path d="M151.2708,301.09849c0.12233,6.646 0.36353,13.52659 0.53486,15.26826c0.92633,9.404 1.13154,14.28488 1.15387,27.61488c0.02667,16.16867 0.02346,16.2598 -2.32287,27.08413c-3.776,17.41833 -4.80855,20.46612 -9.10322,27.00679c-1.09967,1.675 -1.87816,4.16171 -1.87816,4.54704c0,1.33933 7.98507,8.34615 14.54807,12.75915c7.633,5.13233 26.30524,14.83261 35.63257,18.51161c8.87133,3.49867 17.92295,6.21423 28.33362,8.49856c6.93833,1.52267 12.93662,1.79382 21.43995,0.98215c13.90133,-1.32633 19.59196,-2.81512 30.28863,-7.92979c8.44933,-4.04 13.48469,-7.13993 16.46836,-10.08193c2.55167,-2.51633 3.01436,-4.37884 2.48836,-11.25351c-0.871,-11.38733 -3.68934,-22.88528 -9.35934,-38.14995c-3.01767,-8.124 -4.71093,-13.33025 -6.80726,-20.92458c-1.378,-4.99233 -6.27022,-23.63732 -7.46855,-28.46265l-0.69221,-2.395l-2.75935,-1.59947c-1.39033,-0.77767 -8.06983,-4.40667 -14.85316,-8.06967c-14.042,-7.583 -19.46721,-10.67034 -24.56288,-13.97934l-3.81872,-2.41593l-4.88495,0.5144c-2.54367,0.29133 -5.37154,0.53585 -6.54554,0.53385c-9.03933,-0.01333 -37.56365,-5.51621 -50.83265,-9.80554c-2.01633,-0.652 -4.75293,-0.64369 -4.90093,-0.64369c-0.148,0 -0.22083,5.74456 -0.0985,12.39023z" data-paper-data="{&quot;wickUUID&quot;:&quot;cd068630-c358-4283-b27d-57023b7229e3&quot;,&quot;wickType&quot;:&quot;path&quot;,&quot;originalStyle&quot;:{&quot;strokeColor&quot;:null,&quot;fillColor&quot;:[&quot;Color&quot;,0.50196,0,1],&quot;strokeWidth&quot;:1}}" fill="#8000ff"/><path d="M186.04778,239.71894c-4.288,1.622 -9.232,5.019 -10.809,7.427c-5.567,8.494 -1.579,25.649 6.765,29.105c5.943,2.462 18.902,-1.185 22.672,-6.382c1.351,-1.862 1.739,-4.036 1.836,-10.294c0.107,-6.834 -0.185,-8.545 -2.113,-12.355c-1.231,-2.433 -3.251,-5.159 -4.489,-6.06c-2.784,-2.024 -10.264,-2.802 -13.862,-1.441z" data-paper-data="{&quot;wickUUID&quot;:&quot;29993c49-1591-47e0-8a60-50b26372937f&quot;,&quot;wickType&quot;:&quot;path&quot;,&quot;originalStyle&quot;:{&quot;strokeColor&quot;:null,&quot;fillColor&quot;:[&quot;Color&quot;,0,0,0],&quot;strokeWidth&quot;:1}}" id="29993c49-1591-47e0-8a60-50b26372937f" fill="#000000"/><path d="M179.6566,257.46038c-0.984,0.985 -1.791,2.495 -1.792,3.357c-0.001,0.862 2.867,4.185 6.375,7.385c3.508,3.2 10.457,9.657 15.443,14.349c16.25,15.292 20.051,17.925 45.933,31.829c9.755,5.241 18.139,9.843 18.631,10.227c0.492,0.384 5.096,2.987 10.231,5.784c7.931,4.321 9.645,4.946 11.388,4.151c3.421,-1.558 3.548,-4.852 0.431,-11.183c-1.528,-3.103 -4.31,-7.418 -6.182,-9.588c-5.564,-6.449 -9.29,-11.677 -12.378,-17.373c-3.552,-6.548 -8.863,-9.486 -11.815,-6.534c-1.524,1.524 -1.331,5.654 0.328,7.031c0.771,0.64 2.028,2.401 2.794,3.914c0.766,1.513 2.878,4.966 4.695,7.674c1.816,2.707 3.622,5.456 4.014,6.109c0.391,0.652 -3.662,-1.133 -9.006,-3.967c-30.874,-16.373 -37.387,-20.748 -53.162,-35.71c-12.389,-11.75 -21.295,-19.245 -22.869,-19.245c-0.698,0 -2.074,0.806 -3.059,1.79z" data-paper-data="{&quot;wickUUID&quot;:&quot;1b4c8fbd-9a9d-4c96-85bf-a2334a21e094&quot;,&quot;wickType&quot;:&quot;path&quot;,&quot;originalStyle&quot;:{&quot;strokeColor&quot;:null,&quot;fillColor&quot;:[&quot;Color&quot;,0,0,0],&quot;strokeWidth&quot;:1}}" id="1b4c8fbd-9a9d-4c96-85bf-a2334a21e094" fill="#000000"/><path d="M176.38249,127.74591c-11.63,0.96 -22.406,3.038 -32.82,6.328c-15.909,5.027 -25.768,12.553 -36.751,28.056c-13.205,18.638 -14.519,23.503 -12.548,46.447c1.218,14.185 1.855,16.067 10.363,30.603c7.934,13.556 12.905,20.54 21.913,30.79c8.768,9.976 13.744,13.647 24.53,18.102c10.989,4.538 44.405,11.488 55.567,11.557c11.523,0.071 38.467,-6.151 49.232,-11.368c4.36,-2.114 5.423,-3.056 5.648,-5.009c0.206,-1.78 -0.325,-2.801 -2.037,-3.923c-2.204,-1.444 -2.559,-1.421 -7.439,0.49c-8.884,3.48 -25.57,7.873 -35.511,9.35c-8.725,1.296 -10.436,1.298 -19.136,0.021c-25.761,-3.784 -40.868,-8.018 -51.388,-14.404c-5.118,-3.106 -17.741,-16.641 -23.673,-25.381c-4.098,-6.039 -14.593,-23.914 -15.941,-27.15c-1.349,-3.24 -3.143,-19.464 -3.143,-28.43c0,-7.628 1.63,-11.502 10.061,-23.91c10.593,-15.592 17.856,-21.517 32.53,-26.543c14.384,-4.926 24.046,-6.251 45.132,-6.192c16.071,0.044 19.754,0.337 29.653,2.358c22.077,4.505 34.627,9.247 45.307,17.117c9.085,6.695 12.619,10.807 16.504,19.201c3.343,7.226 3.562,8.185 3.192,14.023c-0.219,3.446 -1.249,9.891 -2.289,14.322c-6.734,28.674 -6.394,26.712 -5.005,28.867c1.316,2.045 4.302,2.61 6.483,1.227c1.667,-1.057 4.428,-9.805 6.051,-19.173c0.75,-4.332 1.967,-9.569 2.703,-11.637c0.737,-2.068 1.572,-7.788 1.856,-12.711c0.514,-8.925 0.505,-8.974 -2.903,-16.56c-5.52,-12.282 -10.072,-17.576 -23.228,-27.008c-14.041,-10.067 -41.527,-17.82 -69.373,-19.57c-7.138,-0.448 -13.382,-0.77 -13.874,-0.714c-0.493,0.055 -4.842,0.426 -9.666,0.824z" data-paper-data="{&quot;wickUUID&quot;:&quot;cd36a13e-7bfc-4245-a306-080e7df5b295&quot;,&quot;wickType&quot;:&quot;path&quot;,&quot;originalStyle&quot;:{&quot;strokeColor&quot;:null,&quot;fillColor&quot;:[&quot;Color&quot;,0,0,0],&quot;strokeWidth&quot;:1}}" id="cd36a13e-7bfc-4245-a306-080e7df5b295" fill="#000000"/><path d="M145.31972,80.79624c-6.592,1.305 -9.398,2.522 -12.725,5.519c-6.451,5.812 -10.799,19.412 -8.71,27.243c1.802,6.756 6.192,16.167 10.882,23.329c4.419,6.749 4.68,6.974 7.77,6.714c2.537,-0.214 3.37,-0.761 4.028,-2.644c0.713,-2.041 0.204,-3.359 -3.631,-9.399c-9.672,-15.234 -11.462,-23.515 -7.129,-32.981c3.037,-6.633 5.306,-7.88 15.223,-8.364c9.613,-0.47 59.525,1.319 73.063,2.618c10.381,0.997 56.552,7.233 56.18,7.588c-0.129,0.123 -5.672,0.693 -12.318,1.266c-13.715,1.183 -20.095,2.456 -32.225,6.431c-7.757,2.542 -21.074,8.812 -26.987,12.706c-5.158,3.396 -5.359,10.582 -0.331,11.844c2.342,0.588 2.885,0.315 8.936,-4.486c9.052,-7.183 45.802,-11.052 76.2,-8.023c5.176,0.516 5.551,0.419 7.385,-1.912c1.062,-1.351 1.932,-3.215 1.932,-4.143c0,-1.279 0.487,-1.583 2.014,-1.26c1.108,0.235 5.639,0.865 10.07,1.401c20.328,2.461 29.954,6.179 39.061,15.09l6.368,6.231l-2.897,4.034l-2.897,4.035l-5.167,-5.522c-6.941,-7.416 -14.351,-11.667 -24.353,-13.97c-18.817,-4.333 -32.747,-0.842 -48.899,12.252c-6.84,5.546 -11.775,11.543 -11.786,14.323c-0.007,1.552 3.29,4.7 4.921,4.7c0.741,0 3.878,-2.518 6.973,-5.595c16.499,-16.403 29.136,-20.618 47.631,-15.887c10.987,2.81 16.451,6.9 23.914,17.901c5.816,8.574 9.461,8.346 14.119,-0.882c1.469,-2.91 4.085,-6.419 5.814,-7.799c4.557,-3.636 4.378,-7.42 -0.661,-13.894c-10.944,-14.062 -24.682,-21.254 -45.754,-23.951c-12.428,-1.591 -13.1,-1.768 -13.1,-3.442c0,-2.842 -2.652,-5.388 -7.499,-7.202c-4.491,-1.68 -39.494,-7.102 -67.245,-10.416c-15.356,-1.833 -82.972,-4.481 -88.17,-3.453z" data-paper-data="{&quot;wickUUID&quot;:&quot;2691daf5-4c70-468e-95b1-c5ca33b43cce&quot;,&quot;wickType&quot;:&quot;path&quot;,&quot;originalStyle&quot;:{&quot;strokeColor&quot;:null,&quot;fillColor&quot;:[&quot;Color&quot;,0,0,0],&quot;strokeWidth&quot;:1}}" id="2691daf5-4c70-468e-95b1-c5ca33b43cce" fill="#000000"/><path d="M303.19668,218.97473c-10.744,2.428 -15.92,5.329 -17.921,10.043c-2.577,6.071 -9.265,18.698 -12.062,22.774c-1.407,2.051 -7.199,8.295 -12.869,13.874c-5.671,5.58 -10.531,10.835 -10.8,11.678c-0.649,2.032 0.97,4.923 3.144,5.613c0.96,0.305 1.995,1.34 2.299,2.3c0.722,2.274 3.61,3.782 5.871,3.064c0.985,-0.312 2.813,-2.187 4.062,-4.167c2.489,-3.942 8.81,-7.354 22.336,-12.057c6.546,-2.276 8.188,-2.471 20.977,-2.5c11.805,-0.026 14.942,0.273 21.035,2.008c12.347,3.514 34.466,18.202 38.518,25.577c1.145,2.085 5.683,2.247 7.14,0.255c0.572,-0.782 1.477,-4.962 2.011,-9.287c0.533,-4.325 2.412,-12.62 4.176,-18.433c4.313,-14.22 4.246,-17.002 -0.551,-22.899c-5.571,-6.849 -24.725,-18.89 -37.867,-23.806c-6.259,-2.341 -24.462,-5.885 -29.539,-5.752c-1.477,0.039 -5.959,0.811 -9.96,1.715zM325.20968,228.36173c13.13,2.311 19.155,4.781 34.21,14.021c9.759,5.989 15.053,10.895 15.053,13.949c0,1.132 -1.41,6.418 -3.133,11.748c-1.723,5.33 -3.133,10.56 -3.133,11.62c0,2.595 -0.607,2.461 -5.821,-1.28c-9.286,-6.663 -21.574,-13.27 -28.592,-15.375c-15.601,-4.679 -38.692,-4.191 -52.752,1.114c-3.386,1.278 -6.355,2.125 -6.598,1.882c-0.243,-0.243 1.652,-2.776 4.211,-5.63c3.107,-3.465 6.647,-9.201 10.66,-17.272l6.008,-12.084l6.679,-1.96c8,-2.346 13.119,-2.508 23.208,-0.733z" data-paper-data="{&quot;wickUUID&quot;:&quot;53c985b4-018a-43e3-aaf7-e597c81ebee0&quot;,&quot;wickType&quot;:&quot;path&quot;,&quot;originalStyle&quot;:{&quot;strokeColor&quot;:null,&quot;fillColor&quot;:[&quot;Color&quot;,0,0,0],&quot;strokeWidth&quot;:1}}" id="53c985b4-018a-43e3-aaf7-e597c81ebee0" fill="#000000"/><path d="M304.57668,200.5583c-9.499,1.665 -10.434,2.049 -14.818,6.09c-7.353,6.778 -9.036,11.845 -4.704,14.163c2.651,1.418 4.802,0.316 8.874,-4.548c4.156,-4.963 6.545,-5.919 16.991,-6.796c6.233,-0.523 7.131,-0.367 12.531,2.175c8.611,4.054 9.439,4.884 8.098,8.122c-0.605,1.46 -0.835,3.489 -0.511,4.509c0.643,2.025 3.87,3.22 6.446,2.387c2.146,-0.694 5.66,-6.94 5.66,-10.06c0,-5.954 -16.756,-16.372 -27.302,-16.976c-2.461,-0.141 -7.531,0.28 -11.265,0.934z" data-paper-data="{&quot;wickUUID&quot;:&quot;fa1e00e1-7f90-4c53-a091-770817cf89ec&quot;,&quot;wickType&quot;:&quot;path&quot;,&quot;originalStyle&quot;:{&quot;strokeColor&quot;:null,&quot;fillColor&quot;:[&quot;Color&quot;,0,0,0],&quot;strokeWidth&quot;:1}}" id="fa1e00e1-7f90-4c53-a091-770817cf89ec" fill="#000000"/><path d="M122.54334,210.33532c-1.258,1.258 -2.287,2.91 -2.287,3.671c0,2.475 3.389,4.964 6.758,4.964c3.237,0 8.459,2.137 8.459,3.462c0,0.402 -2.92,1.708 -6.489,2.903c-6.373,2.132 -6.495,2.231 -6.765,5.462c-0.241,2.89 0.059,3.464 2.462,4.706c1.505,0.779 2.736,1.794 2.736,2.256c0,0.462 0.84,1.29 1.867,1.84c1.416,0.757 3.42,0.666 8.28,-0.377c3.527,-0.756 12.254,-1.996 19.392,-2.754c22.165,-2.353 29.932,-3.386 31.493,-4.19c2.267,-1.166 2.861,-4.154 1.299,-6.538c-1.733,-2.644 -8.688,-4.797 -32.344,-10.012c-9.847,-2.17 -19.715,-4.525 -21.931,-5.232c-8.271,-2.639 -10.425,-2.666 -12.93,-0.161z" data-paper-data="{&quot;wickUUID&quot;:&quot;0df7dfb0-0dc1-402e-8308-285ae6370a3f&quot;,&quot;wickType&quot;:&quot;path&quot;,&quot;originalStyle&quot;:{&quot;strokeColor&quot;:null,&quot;fillColor&quot;:[&quot;Color&quot;,0,0,0],&quot;strokeWidth&quot;:1}}" id="0df7dfb0-0dc1-402e-8308-285ae6370a3f" fill="#000000"/><path d="M125.62734,176.00371c-0.985,0.985 -1.79,2.421 -1.79,3.191c0,2.835 30.161,29.586 41.623,36.918c7.758,4.963 14.142,8.228 16.086,8.228c1.121,0 3.802,-0.624 5.956,-1.388c3.849,-1.364 12.14,-2.08 45.988,-3.971c9.354,-0.523 21.858,-1.402 27.787,-1.953c8.005,-0.745 13.266,-0.741 20.435,0.015c10.266,1.083 12.522,0.664 13.531,-2.514c0.687,-2.166 -0.795,-5.118 -2.898,-5.774c-3.649,-1.138 -24.785,-2.157 -29.577,-1.426c-5.271,0.804 -23.764,2.042 -53.508,3.583c-10.018,0.519 -18.892,1.437 -21.483,2.223c-2.428,0.737 -4.843,1.344 -5.366,1.349c-3.531,0.036 -32.704,-21.656 -41.567,-30.907c-4.728,-4.936 -10.507,-9.364 -12.219,-9.364c-0.664,0 -2.014,0.806 -2.998,1.79z" data-paper-data="{&quot;wickUUID&quot;:&quot;26f0a3d5-0089-4a0f-8906-249fc8bd1c86&quot;,&quot;wickType&quot;:&quot;path&quot;,&quot;originalStyle&quot;:{&quot;strokeColor&quot;:null,&quot;fillColor&quot;:[&quot;Color&quot;,0,0,0],&quot;strokeWidth&quot;:1}}" id="26f0a3d5-0089-4a0f-8906-249fc8bd1c86" fill="#000000"/><path d="M239.60025,214.58271c-3.882,1.124 -6.163,5.226 -7.469,13.431c-2.359,14.833 4.192,23.122 12.977,16.421c3.383,-2.58 3.564,-2.937 5.896,-11.59c2.782,-10.32 2.194,-15.812 -1.919,-17.939c-2.819,-1.457 -5.275,-1.541 -9.485,-0.323z" data-paper-data="{&quot;wickUUID&quot;:&quot;4931780a-8e1d-41d8-ac2e-d2e2789b2ef6&quot;,&quot;wickType&quot;:&quot;path&quot;,&quot;originalStyle&quot;:{&quot;strokeColor&quot;:null,&quot;fillColor&quot;:[&quot;Color&quot;,0,0,0],&quot;strokeWidth&quot;:1}}" id="4931780a-8e1d-41d8-ac2e-d2e2789b2ef6" fill="#000000"/><path d="M120.2567,278.58727c-20.701,5.497 -35.747,12.028 -38.072,16.524c-1.563,3.022 -0.656,6.21 3.741,13.147c1.638,2.584 4.437,7.619 6.222,11.189c1.784,3.57 3.865,7.195 4.624,8.055c1.247,1.413 1.226,1.906 -0.21,5.092c-2.045,4.534 -1.333,7.117 2.715,9.849c3.678,2.483 13.852,4.159 16.533,2.724c2.303,-1.232 3.83,-6.614 3.336,-11.754c-0.556,-5.792 -3.397,-8.982 -7.823,-8.785c-1.733,0.077 -3.598,0.101 -4.145,0.054c-0.547,-0.048 -2.331,-2.605 -3.964,-5.682c-1.634,-3.077 -4.711,-8.548 -6.838,-12.158c-2.128,-3.61 -3.868,-6.958 -3.868,-7.441c0,-1.503 11.126,-6.011 24.32,-9.854c12.543,-3.654 12.705,-3.675 19.831,-2.668c8.245,1.166 11.347,0.098 11.347,-3.907c0,-2.831 -2.797,-4.573 -8.504,-5.298c-2.462,-0.313 -5.886,-0.744 -7.609,-0.957c-1.744,-0.217 -6.902,0.612 -11.636,1.87z" data-paper-data="{&quot;wickUUID&quot;:&quot;382b88cf-2d31-4ace-81ca-595cf4400b19&quot;,&quot;wickType&quot;:&quot;path&quot;,&quot;originalStyle&quot;:{&quot;strokeColor&quot;:null,&quot;fillColor&quot;:[&quot;Color&quot;,0,0,0],&quot;strokeWidth&quot;:1}}" id="382b88cf-2d31-4ace-81ca-595cf4400b19" fill="#000000"/><path d="M252.73549,274.46769c-2.185,2.185 -2.183,1.967 -0.071,9.025c4.038,13.496 13.74,49.059 17.505,64.165c2.24,8.992 5.633,20.271 7.539,25.064c7.009,17.628 10.832,33.776 10.832,45.752c0,4.001 -0.321,4.667 -3.735,7.752c-2.055,1.856 -8.785,5.772 -14.957,8.702c-11.906,5.653 -17.271,6.932 -34.831,8.306c-6.761,0.529 -9.443,0.274 -18.589,-1.765c-20.378,-4.543 -36.304,-11.169 -58.666,-24.409c-7.298,-4.322 -17.813,-13.135 -17.813,-14.931c0,-0.602 1.14,-2.685 2.533,-4.628c3.756,-5.238 4.814,-8.555 9.263,-29.044c1.709,-7.869 2.026,-11.876 1.946,-24.616c-0.052,-8.37 -0.547,-19.389 -1.1,-24.487c-0.553,-5.099 -1.006,-16.052 -1.006,-24.342c0,-14.56 -0.067,-15.119 -1.989,-16.465c-2.629,-1.841 -3.912,-1.757 -6.067,0.397c-1.644,1.645 -1.79,2.984 -1.79,16.465c0,8.071 0.448,18.846 0.996,23.945c1.674,15.582 1.489,36.701 -0.402,45.97c-3.687,18.074 -5.039,22.153 -9.714,29.311c-4.257,6.519 -4.461,7.094 -3.421,9.605c1.258,3.037 12.045,13.604 17.981,17.616c4.145,2.801 20.149,11.759 28.575,15.995c8.48,4.263 22.487,9.056 35.321,12.086c11.806,2.788 12.9,2.893 24.547,2.358c19.61,-0.9 24.359,-2.101 40.961,-10.36c12.861,-6.398 14.854,-7.696 18.127,-11.806c3.534,-4.439 3.676,-4.864 3.66,-10.991c-0.035,-13.84 -3.454,-29.061 -10.781,-47.996c-2.381,-6.154 -6.39,-19.446 -8.907,-29.539c-2.517,-10.093 -6.306,-24.392 -8.419,-31.777c-2.113,-7.385 -4.561,-16.448 -5.439,-20.14c-2.334,-9.811 -4.075,-14.251 -6.162,-15.712c-2.487,-1.742 -3.8,-1.633 -5.927,0.494z" data-paper-data="{&quot;wickUUID&quot;:&quot;a60acef5-d5b3-43cf-9b87-a0070a12d9fd&quot;,&quot;wickType&quot;:&quot;path&quot;,&quot;originalStyle&quot;:{&quot;strokeColor&quot;:null,&quot;fillColor&quot;:[&quot;Color&quot;,0,0,0],&quot;strokeWidth&quot;:1}}" id="a60acef5-d5b3-43cf-9b87-a0070a12d9fd" fill="#000000"/><path d="M137.25618,419.71969c-12.371,6.151 -24.161,15.628 -24.161,19.42c0,2.835 2.292,6.298 4.167,6.298c3.12,0 24.785,9.496 35.219,15.437c20.295,11.556 46.036,27.761 49.831,31.371c3.059,2.91 4.153,3.444 6.072,2.962c1.288,-0.323 2.791,-1.575 3.341,-2.781c0.853,-1.874 0.635,-2.721 -1.498,-5.798c-1.373,-1.982 -3.952,-4.475 -5.729,-5.54c-1.778,-1.065 -9.879,-6.037 -18.002,-11.048c-24.627,-15.193 -39.36,-23.389 -49.232,-27.389c-5.17,-2.094 -9.601,-3.973 -9.847,-4.175c-0.951,-0.78 7.028,-6.581 13.427,-9.762c8.295,-4.122 9.847,-5.38 9.847,-7.981c0,-1.954 -2.949,-4.854 -4.899,-4.818c-0.506,0.009 -4.347,1.721 -8.536,3.804z" data-paper-data="{&quot;wickUUID&quot;:&quot;93678c9f-d934-4bc1-8750-27c66f4d4669&quot;,&quot;wickType&quot;:&quot;path&quot;,&quot;originalStyle&quot;:{&quot;strokeColor&quot;:null,&quot;fillColor&quot;:[&quot;Color&quot;,0,0,0],&quot;strokeWidth&quot;:1}}" id="93678c9f-d934-4bc1-8750-27c66f4d4669" fill="#000000"/><path d="M271.53314,439.17142c-0.985,0.985 -1.79,2.359 -1.79,3.053c0,1.833 6.483,9.748 10.822,13.214c5.466,4.364 19.455,21.42 38.602,47.064l16.876,22.602h5.788c3.183,0 5.788,-0.164 5.788,-0.363c0,-0.98 -38.397,-51.583 -46.25,-60.954c-10.459,-12.479 -24.482,-26.406 -26.588,-26.406c-0.802,0 -2.263,0.806 -3.248,1.79z" data-paper-data="{&quot;wickUUID&quot;:&quot;395ef405-4bd8-4d63-b52b-59e55689c9ef&quot;,&quot;wickType&quot;:&quot;path&quot;,&quot;originalStyle&quot;:{&quot;strokeColor&quot;:null,&quot;fillColor&quot;:[&quot;Color&quot;,0,0,0],&quot;strokeWidth&quot;:1}}" id="395ef405-4bd8-4d63-b52b-59e55689c9ef" fill="#000000"/></g><g fill="none" fill-rule="nonzero" stroke="none" stroke-width="1" stroke-linecap="butt" stroke-linejoin="miter" stroke-miterlimit="10" stroke-dasharray="" stroke-dashoffset="0" font-family="sans-serif" font-weight="normal" font-size="12" text-anchor="start" style="mix-blend-mode: normal"/><g id="wick_project_gui" fill="none" fill-rule="nonzero" stroke="none" stroke-width="1" stroke-linecap="butt" stroke-linejoin="miter" stroke-miterlimit="10" stroke-dasharray="" stroke-dashoffset="0" font-family="sans-serif" font-weight="normal" font-size="12" text-anchor="start" style="mix-blend-mode: normal"/></g></svg>