<svg version="1.1" xmlns="http://www.w3.org/2000/svg" xmlns:xlink="http://www.w3.org/1999/xlink" width="1260" height="594" viewBox="0,0,1260,594"><g transform="translate(479.91246,62.26383) scale(0.94565,0.94565)"><g id="wick_project_bg" fill="#999999" fill-rule="nonzero" stroke="none" stroke-width="1" stroke-linecap="butt" stroke-linejoin="miter" stroke-miterlimit="10" stroke-dasharray="" stroke-dashoffset="0" font-family="none" font-weight="none" font-size="none" text-anchor="none" style="mix-blend-mode: normal"><rect x="0" y="0" width="720" height="480"/></g><g data-paper-data="{&quot;wickUUID&quot;:&quot;24c371bb-b308-43de-bf98-1f98f8fbc8d6&quot;,&quot;wickType&quot;:&quot;clipsandpaths&quot;}" fill="none" fill-rule="evenodd" stroke="none" stroke-width="1" stroke-linecap="butt" stroke-linejoin="miter" stroke-miterlimit="10" stroke-dasharray="" stroke-dashoffset="0" font-family="none" font-weight="none" font-size="none" text-anchor="none" style="mix-blend-mode: normal"><path d="M151.114,137.89281c-2.741,0.318 -6.10727,1.43752 -20.8216,6.92719c-5.46567,2.039 -10.32006,3.68826 -10.86773,3.68826c-0.54733,0 -1.3412,-0.24718 -1.88287,-0.52751c-0.96567,-0.49933 -1.30437,-0.39461 -3.83604,1.29339c-1.42,0.94667 -3.13651,2.34428 -3.27818,2.46995c-0.14167,0.126 0.35622,2.48988 1.08055,4.58488c1.54867,4.47967 6.64142,16.86486 7.40475,18.00819l1.5549,1.27643l2.63626,-1.75383c5.738,-3.91 12.60204,-7.47545 21.37337,-11.10178c4.019,-1.66167 4.76562,-2.0971 5.61462,-3.2691c1.44633,-1.997 3.19767,-3.36397 4.383,-3.36397c0.55733,0 0.87302,0.33945 1.52669,0.78378l1.61011,0.8885l4.01971,-1.14981c10.78233,-3.11 21.31115,-4.16056 29.22615,-2.91556c1.245,0.19567 1.96109,-0.42322 1.96109,-1.59189c0,-0.804 -0.71385,-2.2771 -1.11352,-2.4421c-2.451,-1.01067 -36.43757,-12.17057 -36.9619,-12.13657c-0.36833,0.02367 -2.26936,0.17388 -3.62936,0.33155z" data-paper-data="{&quot;wickUUID&quot;:&quot;4a7b2e11-02be-45c5-9efb-47a34da91a20&quot;,&quot;wickType&quot;:&quot;path&quot;}" fill="#ff8000"/><path d="M91.14378,59.83342c-2.77433,0.434 -5.58405,1.31367 -6.43705,2.036c-0.39767,0.337 -1.30132,1.73898 -1.49299,2.45465c-0.37633,1.404 -1.52565,7.39353 -1.88632,9.83486c-1.43567,9.715 -6.50463,33.40325 -8.65996,40.46958c-0.45733,1.49867 -0.39251,3.83985 -0.39251,4.05985c0,0.29867 2.26564,0.49369 7.96264,0.49369c11.19133,0 25.80292,0.81057 42.33659,2.35057c13.97,1.30133 17.489,1.96957 28.59767,5.4119c3.828,1.18633 5.63869,1.55967 8.95369,1.85467c10.008,0.88967 17.69663,3.15596 34.0603,10.05129c7.51867,3.16833 7.89631,3.53131 7.89631,6.57798c0,1.43233 0.03579,1.47603 3.41812,4.22203c3.19833,2.597 7.61806,6.3954 11.99239,10.30473l2.28546,1.8751l1.43597,-1.72422c0.83033,-2.015 7.11365,-15.38564 8.25465,-17.56497c0.57567,-1.1 1.63991,-2.9339 2.35524,-4.05557c1.50067,-2.352 3.4621,-6.99456 4.77843,-11.31189c1.04367,-3.422 1.89828,-5.26542 2.99695,-6.46375c0.42,-0.45833 1.54563,-2.55491 2.50296,-4.66324c0.95733,-2.10833 3.43472,-7.21982 5.50172,-11.35215l3.83557,-7.75968l-2.88135,-2.6712c-6.16667,-4.59933 -23.12163,-10.81974 -52.36863,-19.22007c-26.23733,-7.53633 -49.46508,-12.03813 -76.06775,-14.74146c-6.032,-0.613 -25.9831,-0.93737 -28.9781,-0.4687z" data-paper-data="{&quot;wickUUID&quot;:&quot;9fe66f7e-d259-4352-9cfe-e58eead9e46d&quot;,&quot;wickType&quot;:&quot;path&quot;}" fill="#ff8000"/><path d="M173.86703,181.20013c-5.10233,0.82133 -16.20043,3.15911 -19.40976,4.06044c-10.27967,2.88733 -16.4586,7.88228 -25.33127,20.49595c-4.98833,7.092 -10.94178,16.67731 -13.05445,21.04264c-4.41667,9.127 -9.9059,22.95928 -14.05823,35.42895c-3.74733,11.253 -5.00278,16.82334 -4.38245,19.29567c0.13967,0.55633 1.91077,3.02119 4.0191,5.18219c4.382,4.49067 6.67992,7.22609 9.37425,11.16009c1.13533,1.65767 2.48795,3.19902 2.73862,3.19902c0.25067,0 1.7744,-0.5719 2.08907,-1.07623c5.951,-9.53433 9.15347,-13.10733 13.72614,-15.296c1.55833,-0.746 3.46816,-1.44053 4.56816,-1.74786c1.1,-0.307 2.50943,-0.97495 2.71743,-1.18495c0.20833,-0.20967 0.79967,-1.87751 1.11834,-3.34418c1.05867,-4.87633 3.47714,-12.8157 5.35547,-17.55837c3.294,-8.31767 6.74559,-14.78602 12.57392,-23.56302c5.20567,-7.83933 9.15398,-12.81689 14.31598,-18.06489l4.52584,-4.6691l1.08174,-7.60858c1.262,-9.18267 1.93053,-15.30748 2.18653,-20.03081c0.10933,-2.01667 0.13013,-4.56122 0.21413,-4.97389c0.17333,-0.85367 -1.11256,-1.27107 -4.36856,-0.74707z" data-paper-data="{&quot;wickUUID&quot;:&quot;408dad9d-70e3-4e00-bbd2-5cc4b6d8f065&quot;,&quot;wickType&quot;:&quot;path&quot;}" fill="#ff8000"/><path d="M212.92827,211.68136c-14.84533,1.348 -25.76715,4.50705 -31.34615,9.06705c-0.55333,0.452 -1.91578,1.41026 -2.55178,1.81326c-2.37733,1.50633 -10.32745,11.34141 -15.65012,19.34608c-8.111,12.19733 -12.67322,22.29067 -15.96789,35.32434c-2.56367,10.14167 -7.60679,33.79752 -7.56979,35.51952c0.007,0.33067 0.69134,1.60763 1.28034,1.9743c0.58867,0.36667 1.19058,0.97525 1.51458,1.63825c0.51667,1.056 0.47349,1.11057 0.09082,2.24524c-0.396,1.17367 -0.17091,1.8673 0.44642,2.73363c0.37433,0.52533 5.28062,5.34354 10.83729,10.63754l10.39479,9.81015l3.41298,-5.1915c5.87633,-11.835 15.14062,-23.25073 24.38029,-29.99573c8.983,-6.557 20.99103,-11.99959 29.4437,-13.38726c3.26233,-0.53533 3.83037,-1.09067 3.82837,-1.92334c-0.001,-0.47333 -0.10342,-4.30901 -0.27875,-8.15901c-0.17533,-3.85 -0.49257,-12.25998 -0.70357,-18.66631c-0.37833,-11.47533 -0.3967,-11.67683 -1.19637,-12.8845c-1.229,-1.85767 -1.43132,-5.14172 -1.43799,-23.36405l-0.0095,-16.30196l-2.48379,-0.72598c-0.871,0.02167 -3.85088,0.25561 -6.43388,0.49028z" data-paper-data="{&quot;wickUUID&quot;:&quot;bb523959-f82b-473b-bc99-2dad3a4f8690&quot;,&quot;wickType&quot;:&quot;path&quot;}" fill="#ff8000"/><path d="M313.35709,127.69863c0.002,0.13733 0.09411,3.20371 0.44844,6.04538c1.59867,12.82467 3.42825,33.52728 4.50658,50.99528c0.847,13.72533 2.02308,28.04928 3.01008,36.66361c0.95567,8.33933 1.51997,14.62141 1.5213,17.92674c0.00167,5.67667 -0.88797,6.69059 -9.07397,11.23626c-4.11967,2.28767 -9.63069,5.99843 -15.93436,10.74443c-13.46933,10.14167 -17.31837,13.51471 -17.23704,13.59638c0.18467,0.18433 14.16262,-2.48495 18.24529,-3.81295c12.90667,-4.199 20.25122,-9.07324 23.26089,-15.28357c2.18233,-4.50367 7.21577,-23.25977 8.3721,-31.31477c0.80333,-5.596 2.72041,-22.63356 3.07341,-27.31056c0.62367,-8.258 -0.04215,-17.52555 -1.92682,-27.05622c-3.19567,-16.16267 -7.00453,-26.44802 -14.40586,-38.86035c-2.001,-3.35533 -3.86971,-4.18666 -3.86004,-3.56966z" data-paper-data="{&quot;wickUUID&quot;:&quot;019eb196-82c8-464d-8984-fcd109e95537&quot;,&quot;wickType&quot;:&quot;path&quot;}" fill="#ffffff"/><path d="M240.31971,297.06901c-1.65,0.41767 -3.90253,0.85788 -5.00253,0.97755c-1.1,0.11967 -2.5874,0.5037 -3.2674,0.84437c-0.68033,0.341 -1.7546,0.62114 -2.38093,0.62114c-0.626,0 -1.97009,0.36527 -2.96776,0.80627c-1.378,0.60967 -9.15866,2.8813 -9.86966,2.8813c-0.06467,0 -0.56775,0.68571 -0.56775,1.06438c0,1.04367 -0.53918,1.88196 -2.70118,4.20496c-1.08533,1.166 -2.21606,2.6623 -2.45839,3.23797c-2.90133,6.891 -7.53139,15.6073 -14.03206,26.4143c-6.62733,11.01767 -8.59894,15.19823 -15.97061,33.86423c-1.91867,4.85833 -5.85117,14.41101 -8.7245,21.19434c-6.883,16.249 -11.54591,27.79473 -15.42291,38.18773c-3.76433,10.091 -8.0497,22.9493 -8.33203,25.00197l-0.09792,2.19761l3.47319,3.34721c7.64733,7.31833 19.41095,16.55075 24.33962,19.14408c13.64833,7.18133 35.49889,12.90897 55.80889,14.6163c8.60733,0.72333 22.23023,2.42586 25.87656,3.50986c0.605,0.17967 0.90018,-1.21484 0.72985,-27.24884c-0.179,-27.29433 -0.37066,-32.56395 -1.88599,-51.79728c-1.32733,-16.85 -1.45447,-21.18901 -1.2388,-42.32634c0.209,-20.51133 -0.00916,-30.95757 -0.93683,-44.83924c-0.75467,-11.29133 -1.13642,-18.98257 -1.38642,-27.92724l-0.23779,-8.18907l-2.28637,0.17746c-2.897,2.174 -2.74159,2.1621 -3.62859,1.93977c-0.485,-0.122 -0.94694,-0.6189 -1.73061,-1.2949l-1.83108,-1.38382z" data-paper-data="{&quot;wickUUID&quot;:&quot;162174ae-e596-4d46-94a2-ef0e0c33f7f8&quot;,&quot;wickType&quot;:&quot;path&quot;,&quot;originalStyle&quot;:{&quot;strokeColor&quot;:null,&quot;fillColor&quot;:[&quot;Color&quot;,0.50196,0,1],&quot;strokeWidth&quot;:1}}" fill="#8000ff"/><path d="M290.89595,71.29044c-5.705,3.618 -8.126,8.817 -8.123,17.439c0.004,9.465 2.163,12.94 10.463,16.839c9.1,4.274 10.798,4.553 15.368,2.532c3.212,-1.421 4.153,-2.431 5.463,-5.861c1.679,-4.395 1.491,-11.764 -0.476,-18.635c-1.193,-4.169 -5.831,-10.331 -9.78,-12.992c-4.086,-2.753 -7.813,-2.557 -12.915,0.678z" data-paper-data="{&quot;wickUUID&quot;:&quot;7c8fb0ba-6f4e-4983-a8bd-b54a7ead7195&quot;,&quot;wickType&quot;:&quot;path&quot;,&quot;originalStyle&quot;:{&quot;strokeColor&quot;:null,&quot;fillColor&quot;:[&quot;Color&quot;,0,0,0],&quot;strokeWidth&quot;:1}}" id="7c8fb0ba-6f4e-4983-a8bd-b54a7ead7195" fill="#000000"/><path d="M295.70178,81.12011c-2.14,2.139 -2.169,2.568 -0.481,6.919c5.971,15.396 11.293,53.169 13.907,98.706c0.523,9.108 1.744,23.97 2.713,33.027c0.97,9.057 1.75,17.314 1.735,18.35c-0.022,1.385 -1.739,2.866 -6.49,5.595c-3.554,2.042 -12.95,8.688 -20.88,14.77c-7.931,6.082 -18.185,13.676 -22.788,16.876c-9.709,6.751 -20.529,16.782 -20.529,19.033c0,1.88 3.083,5.136 4.863,5.136c0.706,0 4.644,-2.921 8.753,-6.49c4.109,-3.569 11.689,-9.399 16.844,-12.954c5.155,-3.556 14.811,-10.702 21.458,-15.881c6.646,-5.179 14.888,-10.896 18.315,-12.705c3.426,-1.809 7.152,-4.211 8.279,-5.338c2.571,-2.57 2.599,-4.905 0.31,-25.959c-0.957,-8.803 -2.172,-23.457 -2.699,-32.564c-2.162,-37.349 -6.318,-72.769 -10.398,-88.618c-3.751,-14.572 -4.557,-16.696 -6.969,-18.386c-2.504,-1.754 -3.813,-1.647 -5.943,0.483z" data-paper-data="{&quot;wickUUID&quot;:&quot;1f3d5acd-3efb-4bc4-bda6-ad80ffb3f851&quot;,&quot;wickType&quot;:&quot;path&quot;,&quot;originalStyle&quot;:{&quot;strokeColor&quot;:null,&quot;fillColor&quot;:[&quot;Color&quot;,0,0,0],&quot;strokeWidth&quot;:1}}" id="1f3d5acd-3efb-4bc4-bda6-ad80ffb3f851" fill="#000000"/><path d="M206.61662,203.29268c-23.345,3.531 -31.452,7.852 -43.637,23.258c-11.162,14.115 -19.089,28.801 -23.205,42.994c-3.557,12.266 -8.903,38.056 -9.444,45.557l-0.444,6.171l13.311,13.083c7.321,7.196 14.779,14.82 16.572,16.943c2.821,3.338 3.667,3.82 6.266,3.571c2.858,-0.274 3.246,-0.77 7.929,-10.155c6.19,-12.407 11.729,-20.196 19.282,-27.117c7.132,-6.535 19.291,-13.052 28.036,-15.027c7.461,-1.685 9.815,-3.699 8.55,-7.318c-0.669,-1.916 -1.515,-2.5 -3.967,-2.741c-8.687,-0.854 -27.249,7.439 -38.338,17.129c-7.298,6.377 -15.989,17.813 -20.032,26.358l-2.642,5.584l-12.452,-11.85c-9.031,-8.595 -12.452,-12.422 -12.452,-13.93c-0.001,-3.436 6.086,-32.125 9.054,-42.677c1.832,-6.51 4.599,-13.288 8.167,-20.002c5.836,-10.983 17.011,-26.097 22.669,-30.66c7.237,-5.836 17.951,-9.103 33.857,-10.326l7.709,-0.593v19.378c0,18.183 0.11,19.487 1.79,21.167c2.202,2.202 3.722,2.257 6.143,0.224c1.762,-1.479 1.886,-2.637 2.224,-20.812c0.197,-10.585 0.644,-20.469 0.993,-21.964c0.478,-2.049 0.194,-3.262 -1.151,-4.923c-1.613,-1.992 -2.502,-2.221 -9.248,-2.374c-4.105,-0.093 -11.099,0.381 -15.54,1.052z" data-paper-data="{&quot;wickUUID&quot;:&quot;74cc622b-d1d4-46d6-a96b-a51a3854497b&quot;,&quot;wickType&quot;:&quot;path&quot;,&quot;originalStyle&quot;:{&quot;strokeColor&quot;:null,&quot;fillColor&quot;:[&quot;Color&quot;,0,0,0],&quot;strokeWidth&quot;:1}}" id="74cc622b-d1d4-46d6-a96b-a51a3854497b" fill="#000000"/><path d="M167.42472,173.32532c-20.823,3.507 -26.459,5.921 -36.238,15.519c-10.032,9.847 -23.004,30.72 -29.671,47.743c-10.422,26.614 -14.642,42.096 -13.123,48.147c0.327,1.302 3.241,5.041 6.475,8.308c3.235,3.267 8.232,9.435 11.104,13.706c5.28,7.852 6.482,8.896 10.25,8.896c2.097,0 6.719,-4.511 6.721,-6.559c0.001,-2.219 5.266,-11.904 7.719,-14.201c1.416,-1.325 4.315,-2.8 6.442,-3.276c6.99,-1.565 9.703,-6.587 5.166,-9.56c-1.961,-1.285 -2.587,-1.286 -6.938,-0.006c-9.611,2.827 -12.435,5.364 -20.068,18.036c-0.849,1.41 -1.405,0.965 -4.659,-3.725c-2.033,-2.929 -5.773,-7.335 -8.311,-9.79c-4.48,-4.334 -4.601,-4.583 -4.135,-8.512c1.141,-9.637 15.151,-46.733 21.462,-56.828c18.476,-29.553 23.447,-33.767 44.475,-37.699c15.486,-2.897 15.173,-2.925 14.602,1.327c-0.368,2.747 -0.068,3.874 1.428,5.371c3.732,3.731 6.714,1.765 8.649,-5.703c1.724,-6.649 1.23,-8.755 -2.607,-11.127c-3.579,-2.212 -5.962,-2.22 -18.743,-0.067z" data-paper-data="{&quot;wickUUID&quot;:&quot;65df7150-f9db-45a2-a3ca-59206af2baae&quot;,&quot;wickType&quot;:&quot;path&quot;,&quot;originalStyle&quot;:{&quot;strokeColor&quot;:null,&quot;fillColor&quot;:[&quot;Color&quot;,0,0,0],&quot;strokeWidth&quot;:1}}" id="65df7150-f9db-45a2-a3ca-59206af2baae" fill="#000000"/><path d="M92.05975,50.68688c-10.298,1.549 -14.708,3.608 -16.929,7.904c-0.69,1.333 -1.926,7.049 -2.747,12.701c-1.51,10.391 -5.791,30.114 -9.889,45.556c-3.409,12.843 -4.678,12.142 22.062,12.195c13.996,0.028 27.444,0.609 37.49,1.62l15.665,1.577l26.859,8.904l26.859,8.905l9.792,8.017c5.387,4.41 11.357,9.847 13.268,12.083c3.837,4.489 6.532,5.172 9.121,2.311c3.421,-3.78 -1.003,-9.617 -17.24,-22.752l-10.485,-8.481l-26.849,-9.019c-18.773,-6.306 -29.004,-9.28 -34.011,-9.886c-15.875,-1.922 -39.699,-3.606 -51.019,-3.606h-11.991l1.241,-4.252c2.416,-8.275 6.849,-29.001 8.477,-39.633c0.908,-5.926 2.123,-11.344 2.7,-12.04c5.652,-6.81 61.458,-1.189 103.397,10.415c32.797,9.074 54.917,16.934 60.705,21.57l2.515,2.014l-3.857,7.645c-9.625,19.08 -10.829,22.974 -7.979,25.824c1.036,1.036 2.506,1.884 3.267,1.884c1.82,0 5.778,-3.999 5.778,-5.837c0,-0.794 3.071,-7.836 6.825,-15.648c5.242,-10.911 6.69,-14.742 6.244,-16.518c-1.411,-5.623 -18.608,-14.538 -42.161,-21.856c-28.049,-8.716 -47.753,-13.558 -68.167,-16.752c-33.184,-5.192 -48.346,-6.438 -58.941,-4.845z" data-paper-data="{&quot;wickUUID&quot;:&quot;e1f1eba4-49a4-4a3b-8de7-9cf62c4c1725&quot;,&quot;wickType&quot;:&quot;path&quot;,&quot;originalStyle&quot;:{&quot;strokeColor&quot;:null,&quot;fillColor&quot;:[&quot;Color&quot;,0,0,0],&quot;strokeWidth&quot;:1}}" id="e1f1eba4-49a4-4a3b-8de7-9cf62c4c1725" fill="#000000"/><path d="M123.65739,133.46127c-8.434,2.322 -23.872,13.523 -23.961,17.383c-0.029,1.277 4.632,13.683 8.444,22.474c1.174,2.708 2.415,6.454 2.757,8.324c1.315,7.173 5.018,7.725 13.719,2.046c11.148,-7.278 22.839,-12.853 35.641,-16.999c12.204,-3.952 13.12,-4.112 23.434,-4.112c11.347,0 13.546,-0.727 13.546,-4.476c0,-4.305 -5.584,-5.828 -19.048,-5.193c-14.013,0.661 -41.665,10.939 -55.523,20.637c-1.382,0.967 -2.673,1.599 -2.868,1.404c-0.602,-0.602 -5.96,-13.455 -7.647,-18.344l-1.597,-4.629l6.28,-4.213c3.454,-2.317 7.953,-4.587 9.998,-5.044c7.265,-1.623 9.95,-5.619 6.109,-9.095c-1.903,-1.723 -3.517,-1.751 -9.284,-0.163z" data-paper-data="{&quot;wickUUID&quot;:&quot;420270b3-3eca-4da5-bce0-0636dae6f13d&quot;,&quot;wickType&quot;:&quot;path&quot;,&quot;originalStyle&quot;:{&quot;strokeColor&quot;:null,&quot;fillColor&quot;:[&quot;Color&quot;,0,0,0],&quot;strokeWidth&quot;:1}}" id="420270b3-3eca-4da5-bce0-0636dae6f13d" fill="#000000"/><path d="M179.33524,179.58468c-1.34,1.339 -1.788,2.973 -1.779,6.489c0.006,2.585 -0.872,11.033 -1.952,18.773c-1.906,13.663 -1.916,14.126 -0.32,15.888c2.018,2.231 5.115,2.343 6.897,0.249c1.564,-1.837 5.265,-26.496 5.232,-34.859c-0.019,-4.7 -0.325,-5.756 -2.012,-6.937c-2.629,-1.842 -3.912,-1.758 -6.066,0.397z" data-paper-data="{&quot;wickUUID&quot;:&quot;448d64a5-4a42-46e2-b48b-afeb93d07d32&quot;,&quot;wickType&quot;:&quot;path&quot;,&quot;originalStyle&quot;:{&quot;strokeColor&quot;:null,&quot;fillColor&quot;:[&quot;Color&quot;,0,0,0],&quot;strokeWidth&quot;:1}}" id="448d64a5-4a42-46e2-b48b-afeb93d07d32" fill="#000000"/><path d="M150.24344,128.55704c-2.462,0.433 -8.101,2.186 -12.532,3.897c-4.431,1.71 -9.869,3.749 -12.084,4.53c-2.216,0.78 -5.362,2.235 -6.993,3.233c-2.486,1.52 -2.919,2.265 -2.685,4.611c0.382,3.832 2.547,5.058 6.298,3.565c1.613,-0.641 4.745,-1.804 6.96,-2.583c2.216,-0.779 7.654,-2.826 12.084,-4.549c7.111,-2.765 9.054,-3.14 16.56,-3.193c7.611,-0.053 9.524,0.295 18.215,3.319c5.341,1.858 11.279,4.417 13.197,5.686c3.483,2.305 3.486,2.312 2.93,7.044c-0.721,6.136 0.096,9.178 2.794,10.408c1.718,0.782 2.631,0.694 4.332,-0.421c1.954,-1.28 2.214,-2.247 2.791,-10.391c0.351,-4.939 0.391,-9.755 0.09,-10.703c-0.301,-0.948 -1.843,-2.211 -3.426,-2.806c-1.584,-0.596 -5.901,-2.403 -9.593,-4.016c-14.668,-6.408 -29.437,-9.303 -38.938,-7.631z" data-paper-data="{&quot;wickUUID&quot;:&quot;174c7284-7a9d-432a-8ddb-a8a3fb0de29b&quot;,&quot;wickType&quot;:&quot;path&quot;,&quot;originalStyle&quot;:{&quot;strokeColor&quot;:null,&quot;fillColor&quot;:[&quot;Color&quot;,0,0,0],&quot;strokeWidth&quot;:1}}" id="174c7284-7a9d-432a-8ddb-a8a3fb0de29b" fill="#000000"/><path d="M239.67244,119.99375c-1.004,0.703 -2.35,3.019 -2.992,5.147c-2.075,6.878 -3.723,10.873 -5.538,13.421c-0.977,1.372 -3,5.222 -4.496,8.556c-1.496,3.333 -4.093,8.903 -5.771,12.377c-3.249,6.727 -3.701,9.235 -1.976,10.959c1.582,1.582 5.605,1.307 7.191,-0.492c1.492,-1.69 6.79,-12.136 8.74,-17.231c0.66,-1.723 2.75,-5.786 4.644,-9.029c3.307,-5.661 7.818,-17.521 7.867,-20.683c0.023,-1.525 -3.141,-4.303 -4.9,-4.303c-0.519,0 -1.766,0.575 -2.769,1.278z" data-paper-data="{&quot;wickUUID&quot;:&quot;b4046bde-4f34-4249-89cc-e2f4a88b7eca&quot;,&quot;wickType&quot;:&quot;path&quot;,&quot;originalStyle&quot;:{&quot;strokeColor&quot;:null,&quot;fillColor&quot;:[&quot;Color&quot;,0,0,0],&quot;strokeWidth&quot;:1}}" id="b4046bde-4f34-4249-89cc-e2f4a88b7eca" fill="#000000"/><path d="M224.00306,231.58929c-1.495,1.496 -1.764,2.544 -1.32,5.147c0.306,1.798 0.935,15.555 1.397,30.571c0.461,15.016 1.067,28.221 1.345,29.346c0.774,3.13 4.317,4.382 7.149,2.527l2.29,-1.501l-0.484,-25.256c-0.563,-29.38 -1.633,-39.505 -4.375,-41.425c-2.495,-1.748 -3.79,-1.62 -6.002,0.591z" data-paper-data="{&quot;wickUUID&quot;:&quot;11ffd64c-7402-456e-8bc9-e2168aaee305&quot;,&quot;wickType&quot;:&quot;path&quot;,&quot;originalStyle&quot;:{&quot;strokeColor&quot;:null,&quot;fillColor&quot;:[&quot;Color&quot;,0,0,0],&quot;strokeWidth&quot;:1}}" id="11ffd64c-7402-456e-8bc9-e2168aaee305" fill="#000000"/><path d="M252.86473,90.83752c-2.392,2.392 -2.427,4.098 -0.129,6.395c1.5,1.501 2.984,1.791 9.175,1.792c7.408,0.001 22.126,2.942 28.912,5.778c1.759,0.735 5.469,3.36 8.245,5.834c2.776,2.474 5.31,4.499 5.632,4.499c1.18,0 8.795,10.519 13.281,18.348c6.355,11.089 9.712,20.24 12.738,34.721c2.963,14.182 3.277,23.617 1.309,39.307c-0.698,5.564 -1.539,12.533 -1.87,15.487c-0.824,7.354 -6.238,28.242 -8.438,32.555c-4.123,8.081 -13.732,13.139 -35.107,18.478c-8.54,2.133 -21.771,5.959 -29.402,8.502c-18.208,6.068 -18.88,6.257 -22.277,6.257c-4.555,0 -6.367,1.401 -6.367,4.923c0,3.435 1.809,4.924 5.983,4.922c3.263,-0.001 18.862,-4.342 30.27,-8.423c8.583,-3.071 25.524,-7.7 34.868,-9.529c6.026,-1.179 17.868,-7.087 23.302,-11.627c2.455,-2.05 5.608,-5.8 7.008,-8.333c2.855,-5.168 9.063,-28.337 9.989,-37.278c0.331,-3.2 1.177,-10.37 1.879,-15.934c1.933,-15.31 1.65,-25.797 -1.058,-39.197c-3.134,-15.504 -6.705,-25.825 -12.76,-36.871c-8.856,-16.157 -16.53,-24.744 -29.953,-33.52c-5.421,-3.544 -22.289,-7.754 -33.817,-8.44c-8.912,-0.531 -9.611,-0.448 -11.413,1.354z" data-paper-data="{&quot;wickUUID&quot;:&quot;d343736f-10be-40fc-92fa-c1c84218e553&quot;,&quot;wickType&quot;:&quot;path&quot;,&quot;originalStyle&quot;:{&quot;strokeColor&quot;:null,&quot;fillColor&quot;:[&quot;Color&quot;,0,0,0],&quot;strokeWidth&quot;:1}}" id="d343736f-10be-40fc-92fa-c1c84218e553" fill="#000000"/><path d="M260.19582,98.91586c0,0.23167 -2.076,3.98369 -3.83467,7.73936c-2.80967,6.00067 -7.17374,15.58981 -7.96507,17.50148c-0.152,0.36667 -0.32379,1.00055 -0.39746,1.44155c-0.19333,1.15967 -0.95787,2.52169 -2.2022,3.92902c-0.598,0.67633 -1.59994,2.53478 -2.20727,4.09311c-1.48967,3.82333 -3.86982,8.71137 -6.49515,13.3397c-1.196,2.10833 -2.42119,4.59272 -2.71752,5.50939c-0.296,0.91667 -2.10122,4.83387 -4.04055,8.76187c-3.39767,6.88267 -3.51235,7.08436 -6.14502,9.75869c-2.714,2.757 -2.2627,2.69306 -4.33903,2.51673c-1.396,-0.11867 -1.62048,-0.39897 -6.62915,-5.3053c-2.65833,-2.604 -6.08372,-5.81948 -7.63572,-7.16681l-3.30562,-2.66876l-1.45182,2.5209c-0.545,1.851 -0.59131,1.94921 -1.96931,2.82288c-0.85133,0.54 -1.30417,0.78145 -1.82717,0.78145c-1.19867,0 -2.56715,-0.71366 -3.43415,-1.72299l-1.05786,-0.89347l-9.80307,0.2807c-10.64367,0.30433 -11.39799,0.42083 -19.31566,2.99683l-4.60842,1.63807l0.10698,4.03164c0.15933,1.88267 0.82073,4.14546 0.85073,4.17146c0.03033,0.02633 2.97557,-0.32143 5.9809,-0.84876c6.31433,-1.108 12.40621,-1.96681 14.20354,-1.96681c3.66933,0 7.32798,1.88305 8.78865,4.48205c0.69533,1.23733 0.47467,1.00395 0.31,3.25595c-0.102,1.398 -0.56879,3.70592 -1.05279,5.26425c-0.57567,1.85333 -1.1549,5.16641 -1.66623,9.52741c-0.43,3.66667 -0.97234,8.01148 -1.20067,9.61815c-0.22833,1.60667 -0.17851,3.59557 -0.08018,3.6939c0.09833,0.09833 1.91175,0.21848 2.98708,-0.14319c5.421,-1.82267 16.67827,-4.01552 24.05494,-4.68285c5.09033,-0.46033 14.42515,-0.44996 16.30148,0.02271c1.603,0.40367 2.5109,1.22299 3.38123,2.90666c0.467,0.903 0.40465,1.18131 0.06432,5.12898c-0.21233,2.466 -0.47753,8.41264 -0.58853,13.20064c-0.17167,7.38433 -0.11827,9.12033 0.34506,11.14766c1.17633,5.145 1.89061,17.81044 2.41928,42.90111l0.2303,10.1079l3.06002,0.46464c1.13233,-0.096 4.87071,-1.07077 8.32504,-2.1711l6.37558,-2.03969l3.40915,-2.75849c1.79567,-1.468 6.32161,-4.87714 10.07028,-7.58547c3.74867,-2.70833 12.13992,-8.92057 18.65792,-13.81324c13.12467,-9.85167 19.17829,-14.16779 23.17896,-16.52646c3.785,-2.23167 5.77985,-3.96728 6.36385,-4.85861c0.52267,-0.79767 0.27636,-4.46906 -1.65664,-22.88573c-0.78367,-7.46767 -1.78746,-20.15773 -2.51846,-31.83906c-1.143,-18.25967 -2.37779,-32.52319 -4.02746,-46.51886c-1.04033,-8.82867 -2.77177,-20.92793 -3.52877,-24.68693c-0.12633,-0.627 -1.51971,-2.23671 -3.61371,-3.99371c-5.35033,-4.489 -7.57666,-5.58945 -14.95299,-7.47845c-10.167,-2.60333 -23.19697,-4.27743 -23.19697,-3.0021z" data-paper-data="{&quot;wickUUID&quot;:&quot;3c1a6ee0-f5c4-40b7-9a21-2244c8754620&quot;,&quot;wickType&quot;:&quot;path&quot;}" fill="#ffffff"/><path d="M150.97544,157.73588c-2.264,2.263 -2.305,2.516 -1.712,10.517c0.813,10.971 1.896,14.756 4.569,15.974c1.72,0.784 2.636,0.667 4.536,-0.577c2.132,-1.397 2.323,-1.948 1.835,-5.274c-0.3,-2.043 -0.813,-7.461 -1.139,-12.04c-0.5,-7.008 -0.887,-8.532 -2.445,-9.623c-2.496,-1.748 -2.957,-1.665 -5.644,1.023z" data-paper-data="{&quot;wickUUID&quot;:&quot;bf5c7f0c-7878-487e-9c44-1ce9844786be&quot;,&quot;wickType&quot;:&quot;path&quot;,&quot;originalStyle&quot;:{&quot;strokeColor&quot;:null,&quot;fillColor&quot;:[&quot;Color&quot;,0,0,0],&quot;strokeWidth&quot;:1}}" id="bf5c7f0c-7878-487e-9c44-1ce9844786be" fill="#000000"/><path d="M206.3499,302.73466c-2.058,1.761 -3.742,3.714 -3.742,4.34c0,1.999 -9.647,20.733 -14.642,28.434c-5.052,7.788 -9.338,16.895 -14.663,31.158c-1.746,4.677 -7.291,17.969 -12.323,29.539c-5.031,11.569 -10.395,24.459 -11.918,28.644c-5.443,14.944 -10.982,33.577 -10.525,35.399c0.765,3.05 21.088,21.387 29.71,26.807c13.35,8.393 38.04,15.424 61.215,17.431c6.154,0.534 15.919,1.831 21.7,2.883c10.167,1.85 10.569,1.859 12.308,0.286c2.233,-2.021 2.296,-4.431 0.171,-6.556c-1.914,-1.914 -19.177,-5.121 -32.389,-6.017c-19.157,-1.299 -44.791,-8.401 -57.147,-15.834c-6.181,-3.718 -24.06,-18.974 -25.032,-21.358c-0.814,-2 10.372,-33.141 19.746,-54.972c5.919,-13.785 12.353,-29.293 14.298,-34.462c4.895,-13.015 8.635,-20.884 13.863,-29.168c5.195,-8.232 13.163,-23.086 14.123,-26.33c0.364,-1.231 1.824,-3.323 3.245,-4.649c3.042,-2.841 3.236,-4.544 0.792,-6.988c-2.553,-2.553 -4.529,-2.235 -8.79,1.413z" data-paper-data="{&quot;wickUUID&quot;:&quot;798a6da2-a3ff-4b26-ad31-b3a9ff2688a4&quot;,&quot;wickType&quot;:&quot;path&quot;,&quot;originalStyle&quot;:{&quot;strokeColor&quot;:null,&quot;fillColor&quot;:[&quot;Color&quot;,0,0,0],&quot;strokeWidth&quot;:1}}" id="798a6da2-a3ff-4b26-ad31-b3a9ff2688a4" fill="#000000"/><path d="M254.52578,288.78987c-1.596,1.596 -1.79,2.984 -1.79,12.802c0,6.056 0.646,20.255 1.436,31.553c1.047,14.977 1.284,26.371 0.876,42.057c-0.461,17.733 -0.217,25.836 1.388,46.099c1.512,19.092 1.966,32.383 2.03,59.494c0.045,19.201 -0.232,37.025 -0.617,39.61l-0.699,4.699h5.301h5.301l0.666,-21.259c0.797,-25.483 0.058,-51.579 -2.35,-83.023c-1.438,-18.776 -1.67,-27.512 -1.202,-45.204c0.427,-16.151 0.202,-27.345 -0.852,-42.473c-0.788,-11.298 -1.432,-25.675 -1.432,-31.95c0,-10.774 -0.111,-11.486 -1.989,-12.802c-2.63,-1.841 -3.913,-1.757 -6.067,0.397z" data-paper-data="{&quot;wickUUID&quot;:&quot;8bd6d651-a523-4e26-9dfb-a7422f6ffa1d&quot;,&quot;wickType&quot;:&quot;path&quot;,&quot;originalStyle&quot;:{&quot;strokeColor&quot;:null,&quot;fillColor&quot;:[&quot;Color&quot;,0,0,0],&quot;strokeWidth&quot;:1}}" id="8bd6d651-a523-4e26-9dfb-a7422f6ffa1d" fill="#000000"/><path d="M188.36414,309.30082c-1.028,1.027 -1.868,2.491 -1.868,3.253c0,2.052 4.065,5.451 9.718,8.126c4.533,2.144 5.204,2.245 7.261,1.091c1.597,-0.897 2.266,-2.025 2.266,-3.824c0,-2.175 -0.841,-3.062 -5.7,-6.017c-7.49,-4.554 -9.337,-4.97 -11.677,-2.629z" data-paper-data="{&quot;wickUUID&quot;:&quot;5de67ddc-da8e-4f2e-aad8-a26d079ce4a2&quot;,&quot;wickType&quot;:&quot;path&quot;,&quot;originalStyle&quot;:{&quot;strokeColor&quot;:null,&quot;fillColor&quot;:[&quot;Color&quot;,0,0,0],&quot;strokeWidth&quot;:1}}" fill="#000000"/><path d="M130.86603,318.01982c-3.62,2.784 -8.394,6.752 -10.61,8.818c-2.215,2.066 -5.538,4.871 -7.384,6.234c-1.847,1.363 -3.357,3.02 -3.357,3.682c0,0.663 -0.792,1.629 -1.759,2.147c-0.967,0.517 -2.215,2.464 -2.773,4.326c-1.951,6.511 2.399,12.175 11.197,14.581c7.114,1.945 12.132,-3.092 12.132,-12.177c0,-2.247 -0.615,-5.558 -1.367,-7.357c-1.615,-3.867 -2.101,-3.205 8.66,-11.779c8.305,-6.615 9.725,-9.488 5.986,-12.107c-1.122,-0.786 -2.514,-1.429 -3.092,-1.429c-0.579,0 -4.014,2.277 -7.633,5.061z" data-paper-data="{&quot;wickUUID&quot;:&quot;87fed594-ce57-44dc-9292-ac3d868b0e28&quot;,&quot;wickType&quot;:&quot;path&quot;,&quot;originalStyle&quot;:{&quot;strokeColor&quot;:null,&quot;fillColor&quot;:[&quot;Color&quot;,0,0,0],&quot;strokeWidth&quot;:1}}" fill="#000000"/></g><g fill="none" fill-rule="nonzero" stroke="none" stroke-width="1" stroke-linecap="butt" stroke-linejoin="miter" stroke-miterlimit="10" stroke-dasharray="" stroke-dashoffset="0" font-family="sans-serif" font-weight="normal" font-size="12" text-anchor="start" style="mix-blend-mode: normal"/><g id="wick_project_gui" fill="none" fill-rule="nonzero" stroke="none" stroke-width="1" stroke-linecap="butt" stroke-linejoin="miter" stroke-miterlimit="10" stroke-dasharray="" stroke-dashoffset="0" font-family="sans-serif" font-weight="normal" font-size="12" text-anchor="start" style="mix-blend-mode: normal"/></g></svg>