<svg version="1.1" xmlns="http://www.w3.org/2000/svg" xmlns:xlink="http://www.w3.org/1999/xlink" width="1260" height="594" viewBox="0,0,1260,594"><g transform="translate(430.29559,188.9944) scale(0.4673,0.4673)"><g id="wick_project_bg" fill-opacity="0" fill="#ffffff" fill-rule="nonzero" stroke="none" stroke-width="1" stroke-linecap="butt" stroke-linejoin="miter" stroke-miterlimit="10" stroke-dasharray="" stroke-dashoffset="0" font-family="none" font-weight="none" font-size="none" text-anchor="none" style="mix-blend-mode: normal"><rect x="0" y="0" width="720" height="480"/></g><g data-paper-data="{&quot;wickUUID&quot;:&quot;97306e17-fcd3-42a9-ba98-b583d95d4d2a&quot;,&quot;wickType&quot;:&quot;clipsandpaths&quot;}" fill="#800040" fill-rule="evenodd" stroke="none" stroke-width="1" stroke-linecap="butt" stroke-linejoin="miter" stroke-miterlimit="10" stroke-dasharray="" stroke-dashoffset="0" font-family="none" font-weight="none" font-size="none" text-anchor="none" style="mix-blend-mode: normal"><path d="M862.84393,194.47779c-1.264,0.833 -2.5094,2.87219 -4.22273,6.91786c-4.84333,11.43633 -11.86584,21.45562 -25.30751,36.10562c-11.93767,13.011 -16.91555,19.61946 -20.61055,27.28646c-3.592,7.45367 -3.71921,8.00342 -3.70321,21.64175c0.011,9.074 0.14021,12.66445 0.56788,15.52478c0.50367,3.37 2.26332,8.96311 2.76932,8.96178c0.11633,0 2.21981,-2.05984 2.98281,-4.31351c2.44467,-7.22367 6.59598,-15.63555 12.66531,-25.63255c9.383,-15.45567 18.27685,-26.94426 30.46652,-39.36126c4.57267,-4.658 7.36412,-6.99025 9.46412,-7.94458c0.79467,-0.36133 1.92799,-1.08269 2.32766,-1.40569c1.22167,-0.98767 4.91557,-6.86307 7.53324,-11.95474c3.054,-5.941 3.1616,-7.41579 1.22493,-11.25746c-2.309,-4.58133 -7.02572,-10.98388 -9.92239,-13.40788c-0.96933,-0.81133 -3.49313,-2.13256 -4.11213,-2.12723c-0.14333,0.001 -1.5916,0.61632 -2.12327,0.96665z" data-paper-data="{&quot;wickUUID&quot;:&quot;71d289df-b04b-45d5-b6ee-23ff2cad5e00&quot;,&quot;wickType&quot;:&quot;path&quot;}"/><path d="M877.6986,246.34645c-0.497,0.39067 -1.63568,1.7421 -2.38968,2.8711c-1.69767,2.54233 -2.94374,3.95142 -4.18841,4.60275c-0.58067,0.30433 -2.35919,0.51777 -4.98052,0.70344c-3.52533,0.25 -5.06998,0.70341 -6.39831,1.37674c-3.74367,1.89667 -14.76428,15.94146 -21.67095,27.62113c-3.77467,6.38267 -9.61555,17.21389 -11.01522,20.41456c-2.55933,5.85367 -2.81478,10.25642 -0.91378,14.11809c1.41,2.864 4.19797,5.5839 9.49297,9.11057c9.974,6.64333 16.14261,8.45167 24.71528,7.34034c5.35233,-0.694 7.72877,-1.93528 14.36644,-8.10261c9.25133,-8.596 12.51187,-10.1599 23.1112,-11.0779c6.193,-0.53633 8.45686,-1.26031 11.78186,-3.52698c3.92933,-2.679 7.433,-7.23898 10.97033,-14.32265c4.32033,-8.65167 5.26622,-12.47173 3.95155,-15.44406c-1.01,-2.283 -1.9189,-3.39709 -6.80457,-6.59209c-6.55467,-4.28667 -10.34313,-7.35215 -18.7048,-15.13615c-11.64933,-10.84367 -15.49416,-13.86864 -18.39549,-14.48031c-0.76533,-0.16133 -2.25123,-0.0083 -2.9279,0.52403z" data-paper-data="{&quot;wickUUID&quot;:&quot;2355c051-8714-482c-a141-3150a4ba7699&quot;,&quot;wickType&quot;:&quot;path&quot;}"/><path d="M446.5354,313.0164c-2.75267,1.425 -5.08939,4.34741 -7.83172,9.75608c-5.582,11.00933 -6.52846,19.25777 -3.55646,30.57977c1.76333,6.71767 3.94166,10.45355 10.25233,17.09855c2.235,2.35367 4.3669,4.52058 4.39423,4.49658c0.027,-0.02367 1.17243,-1.66613 0.99076,-2.76613c-0.439,-2.65933 -0.21127,-9.75811 0.45473,-12.54444c1.95667,-8.187 7.04238,-14.92133 15.30738,-20.32266l3.52655,-2.44345l-0.03611,-6.41334c-0.092,-5.88467 -0.29595,-6.5333 -1.26462,-8.64863c-1.85167,-4.04433 -6.14994,-7.13172 -12.51494,-8.96339c-4.497,-1.29433 -7.03413,-1.22061 -9.72213,0.17106z" data-paper-data="{&quot;wickUUID&quot;:&quot;dc654835-87bc-4ada-8761-edfab921aaaf&quot;,&quot;wickType&quot;:&quot;path&quot;}"/><path d="M492.58588,337.56582c-3.30767,0.94233 -8.69263,3.10777 -11.41396,4.59244l-2.65452,1.51685l-0.78934,2.59966c-1.73767,6.08767 -4.63086,10.92523 -7.91053,13.0979c-2.31567,1.53333 -3.30922,1.13613 -5.50155,-0.9372l-1.60135,-0.93582l-1.1404,2.38907c-1.129,3.03333 -1.51717,5.52485 -1.36817,8.64485c0.11667,2.442 0.44234,3.8012 1.30034,5.63453c1.15733,2.47333 3.56441,5.09612 5.47841,6.00245c1.36567,0.647 4.52045,1.30257 6.52545,1.30557c1.527,0.00233 3.40853,0.89214 4.1132,1.96781c0.28333,0.43233 0.35479,1.01249 0.49046,1.80882l0.52717,1.87942l2.83566,0.94614c7.348,2.301 21.48232,4.62799 32.92999,5.46432c16.08433,1.17567 25.29831,-3.434 23.76564,-11.95633c-0.20567,-1.14367 -0.7358,-4.42187 -1.45613,-5.9632c-1.06433,-2.27767 -1.9866,-3.51376 -4.08993,-5.57043c-2.99067,-2.924 -6.33657,-5.01696 -8.52357,-5.31663c-2.28633,-0.31333 -3.7446,-0.9071 -4.44893,-1.80277c-0.34733,-0.44133 -1.61712,-0.60699 -1.68145,-0.53332c-0.06433,0.074 -0.57351,1.21739 -0.89284,2.22572c-0.908,2.86767 -3.759,8.43277 -5.14867,10.01144c-1.46067,1.65967 -2.13892,2.0183 -4.31792,1.80897c-3.39233,-0.326 -3.87921,-0.92119 -3.70054,-4.22519c0.093,-1.71767 0.39936,-2.23271 1.82069,-5.05071c2.36733,-4.69267 2.67681,-5.76343 3.13014,-10.46143c0.428,-4.43333 0.26066,-9.20291 -0.38067,-11.68258c-0.49733,-1.92233 -3.1927,-5.39605 -5.40937,-6.91638c-1.53867,-1.055 -2.2554,-1.29106 -4.99107,-1.26873c-1.80467,0.015 -4.04057,0.31009 -5.49624,0.72476z" data-paper-data="{&quot;wickUUID&quot;:&quot;54d38f3b-e624-482d-ad68-4350b157e742&quot;,&quot;wickType&quot;:&quot;path&quot;}"/><path d="M492.58588,337.56582c-3.30767,0.94233 -8.69263,3.10777 -11.41396,4.59244l-2.65452,1.51685l-0.78934,2.59966c-1.73767,6.08767 -4.63086,10.92523 -7.91053,13.0979c-2.31567,1.53333 -3.30922,1.13613 -5.50155,-0.9372l-1.60135,-0.93582l-1.1404,2.38907c-1.129,3.03333 -1.51717,5.52485 -1.36817,8.64485c0.11667,2.442 0.44234,3.8012 1.30034,5.63453c1.15733,2.47333 3.56441,5.09612 5.47841,6.00245c1.36567,0.647 4.52045,1.30257 6.52545,1.30557c1.527,0.00233 3.40853,0.89214 4.1132,1.96781c0.28333,0.43233 0.35479,1.01249 0.49046,1.80882l0.52717,1.87942l2.83566,0.94614c7.348,2.301 21.48232,4.62799 32.92999,5.46432c16.08433,1.17567 25.29831,-3.434 23.76564,-11.95633c-0.20567,-1.14367 -0.7358,-4.42187 -1.45613,-5.9632c-1.06433,-2.27767 -1.9866,-3.51376 -4.08993,-5.57043c-2.99067,-2.924 -6.33657,-5.01696 -8.52357,-5.31663c-2.28633,-0.31333 -3.7446,-0.9071 -4.44893,-1.80277c-0.34733,-0.44133 -1.61712,-0.60699 -1.68145,-0.53332c-0.06433,0.074 -0.57351,1.21739 -0.89284,2.22572c-0.908,2.86767 -3.759,8.43277 -5.14867,10.01144c-1.46067,1.65967 -2.13892,2.0183 -4.31792,1.80897c-3.39233,-0.326 -3.87921,-0.92119 -3.70054,-4.22519c0.093,-1.71767 0.39936,-2.23271 1.82069,-5.05071c2.36733,-4.69267 2.67681,-5.76343 3.13014,-10.46143c0.428,-4.43333 0.26066,-9.20291 -0.38067,-11.68258c-0.49733,-1.92233 -3.1927,-5.39605 -5.40937,-6.91638c-1.53867,-1.055 -2.2554,-1.29106 -4.99107,-1.26873c-1.80467,0.015 -4.04057,0.31009 -5.49624,0.72476z" data-paper-data="{&quot;wickUUID&quot;:&quot;a12a9738-a53a-4923-8ed8-13140438fc5a&quot;,&quot;wickType&quot;:&quot;path&quot;}"/><path d="M492.58588,337.56582c-3.30767,0.94233 -8.69263,3.10777 -11.41396,4.59244l-2.65452,1.51685l-0.78934,2.59966c-1.73767,6.08767 -4.63086,10.92523 -7.91053,13.0979c-2.31567,1.53333 -3.30922,1.13613 -5.50155,-0.9372l-1.60135,-0.93582l-1.1404,2.38907c-1.129,3.03333 -1.51717,5.52485 -1.36817,8.64485c0.11667,2.442 0.44234,3.8012 1.30034,5.63453c1.15733,2.47333 3.56441,5.09612 5.47841,6.00245c1.36567,0.647 4.52045,1.30257 6.52545,1.30557c1.527,0.00233 3.40853,0.89214 4.1132,1.96781c0.28333,0.43233 0.35479,1.01249 0.49046,1.80882l0.52717,1.87942l2.83566,0.94614c7.348,2.301 21.48232,4.62799 32.92999,5.46432c16.08433,1.17567 25.29831,-3.434 23.76564,-11.95633c-0.20567,-1.14367 -0.7358,-4.42187 -1.45613,-5.9632c-1.06433,-2.27767 -1.9866,-3.51376 -4.08993,-5.57043c-2.99067,-2.924 -6.33657,-5.01696 -8.52357,-5.31663c-2.28633,-0.31333 -3.7446,-0.9071 -4.44893,-1.80277c-0.34733,-0.44133 -1.61712,-0.60699 -1.68145,-0.53332c-0.06433,0.074 -0.57351,1.21739 -0.89284,2.22572c-0.908,2.86767 -3.759,8.43277 -5.14867,10.01144c-1.46067,1.65967 -2.13892,2.0183 -4.31792,1.80897c-3.39233,-0.326 -3.87921,-0.92119 -3.70054,-4.22519c0.093,-1.71767 0.39936,-2.23271 1.82069,-5.05071c2.36733,-4.69267 2.67681,-5.76343 3.13014,-10.46143c0.428,-4.43333 0.26066,-9.20291 -0.38067,-11.68258c-0.49733,-1.92233 -3.1927,-5.39605 -5.40937,-6.91638c-1.53867,-1.055 -2.2554,-1.29106 -4.99107,-1.26873c-1.80467,0.015 -4.04057,0.31009 -5.49624,0.72476z" data-paper-data="{&quot;wickUUID&quot;:&quot;e753d609-62b9-4b15-bf7c-5be1a7fbb2c3&quot;,&quot;wickType&quot;:&quot;path&quot;}"/><path d="M404.58412,240.5202c-1.91067,0.378 -3.99418,1.51152 -7.05951,3.83152c-6.73467,5.09667 -10.16498,9.39652 -11.76765,14.55219c-1.46133,4.70067 -1.77258,9.17132 -1.77258,26.97165c0,19.80867 0.01723,19.63862 4.46023,26.37529c4.46133,6.76433 14.20134,16.68997 24.26834,24.66964c3.21633,2.54967 9.46856,6.89757 9.87689,6.89757c0.09867,0 1.25839,-2.54663 1.25839,-4.72663c0,-2.17967 0.17487,-4.91644 0.4522,-6.37777c1.28067,-6.75133 5.39274,-15.65001 10.16574,-22.00601l2.3296,-3.13223l-0.27164,-2.40233c-0.618,-3.876 -1.01003,-12.77924 -1.01436,-23.09757c-0.00967,-22.69467 -1.11852,-29.55797 -5.09552,-32.8913c-2.351,-1.97 -13.13686,-6.75496 -18.77253,-8.19329c-3.26833,-0.834 -4.7636,-0.9244 -7.0576,-0.47073z" data-paper-data="{&quot;wickUUID&quot;:&quot;8660cfe2-77f0-4425-a478-9ee3e198a3e9&quot;,&quot;wickType&quot;:&quot;path&quot;}"/><path d="M701.97387,166.04376c-10.413,1.384 -24.613,3.598 -31.555,4.919c-6.942,1.322 -17.355,3.309 -23.14,4.415c-6.42,1.227 -27.06,2.481 -52.975,3.218c-29.865,0.849 -43.071,1.716 -44.527,2.925c-2.852,2.366 -2.595,6.604 0.501,8.261c2.007,1.074 2.929,4.294 4.207,14.693c0.9,7.324 1.69,18.245 1.755,24.267c0.201,18.574 1.672,26.483 5.553,29.857c9.834,8.549 20.613,14.117 38.867,20.076c35.71,11.659 41.482,12.677 66.24,11.688c41.297,-1.65 43.635,-2.255 46.286,-11.981c6.449,-23.654 15.862,-68.078 18.379,-86.735c4.25,-31.51 5.662,-30.288 -29.591,-25.603zM720.76687,192.71176c-1.142,8.87 -4.314,25.594 -7.048,37.164c-2.735,11.57 -6.205,26.341 -7.71,32.825c-1.506,6.484 -3.019,12.245 -3.364,12.803c-1.192,1.929 -32.813,4.472 -47.917,3.854c-12.452,-0.51 -18.731,-1.662 -35.129,-6.444c-10.981,-3.202 -23.904,-7.48 -28.718,-9.506c-8.557,-3.602 -19.768,-10.496 -21.423,-13.176c-0.725,-1.172 -3.7,-41.048 -4.083,-54.715l-0.138,-4.909l35.061,-0.873c23.276,-0.58 39.303,-1.66 47.682,-3.215c44.745,-8.302 72.086,-12.281 73.895,-10.753c0.532,0.449 0.034,8.075 -1.108,16.945z" data-paper-data="{&quot;wickUUID&quot;:&quot;c1467e22-0e20-4452-b3d5-492b34e44702&quot;,&quot;wickType&quot;:&quot;path&quot;}"/><path d="M553.5324,-42.15011c-10.811,4.694 -21.968,15.739 -30.081,29.78c-7.331,12.685 -10.319,22.357 -12.274,39.731c-2.934,26.077 1.026,42.722 16.311,68.55c9.107,15.39 16.152,22.484 26.098,26.28c13.715,5.235 17.318,5.446 21.212,1.244c2.842,-3.067 4.597,-3.649 10.991,-3.649c9.277,0 23.079,-3.383 27.831,-6.822c5.626,-4.07 20.659,-22.656 25.111,-31.044c4.435,-8.357 11.352,-38.439 11.352,-49.372c0,-3.452 -1.223,-11.059 -2.718,-16.905c-5.886,-23.016 -13.988,-32.377 -38.484,-44.468c-28.645,-14.138 -44.62,-17.984 -55.349,-13.325zM576.6594,-30.12411c5.288,1.626 16.784,6.395 25.547,10.598c20.684,9.923 27.93,17.047 33.087,32.533c2.352,7.061 3.571,13.816 3.571,19.785c0,12.003 -5.083,35.769 -9.18,42.924c-6.27,10.947 -21.326,28.243 -26.155,30.044c-2.549,0.952 -12.119,2.155 -21.267,2.676c-13.013,0.74 -16.999,1.445 -18.311,3.24c-2.815,3.849 -11.98,-1.302 -19.609,-11.022c-8.833,-11.255 -19.917,-34.19 -21.931,-45.38c-1.713,-9.515 -0.958,-27.19 1.705,-39.969c3.466,-16.625 19.666,-39.826 32.075,-45.937c6.304,-3.105 8.925,-3.039 20.468,0.508z" data-paper-data="{&quot;wickUUID&quot;:&quot;ec9bbff6-f5df-4e56-82a8-7d68b17e8953&quot;,&quot;wickType&quot;:&quot;path&quot;}"/><path d="M721.67112,30.09898c-15.511,3.192 -27.346,12.772 -34.089,27.589c-2.431,5.343 -3.058,9.403 -3.094,20.025c-0.04,11.82 0.4,14.229 3.901,21.358c4.184,8.521 10.982,15.126 19.417,18.866c2.822,1.252 5.77,3.678 6.552,5.393c1.242,2.727 2.886,3.24 13.104,4.091c13.273,1.106 16.77,0.188 24.224,-6.357c6.449,-5.662 9.455,-11.519 13.514,-26.331c3.192,-11.645 3.195,-11.74 0.712,-23.822c-1.37,-6.672 -4.316,-15.985 -6.545,-20.695c-4.267,-9.017 -14.842,-20.174 -19.146,-20.201c-1.367,-0.008 -4.695,-0.283 -7.394,-0.609c-2.7,-0.326 -7.72,-0.015 -11.156,0.693zM742.41612,44.47498c6.776,6.316 14.252,25.992 14.252,37.508c0,6.293 -4.957,21.728 -8.639,26.899c-2.563,3.599 -2.95,3.714 -5.939,1.756c-2.486,-1.63 -5.039,-1.845 -11.489,-0.97c-11.075,1.503 -17.447,-0.249 -24.962,-6.864c-8.354,-7.354 -11.269,-15.091 -10.375,-27.541c1.329,-18.522 11.197,-29.933 29.849,-34.52c5.181,-1.274 13.965,0.621 17.303,3.732z" data-paper-data="{&quot;wickUUID&quot;:&quot;aabb5b73-2e00-4b04-ab47-bf808e4c4b14&quot;,&quot;wickType&quot;:&quot;path&quot;}"/><path d="M395.76777,232.67174c-7.296,3.805 -15.026,10.788 -17.653,15.946c-3.942,7.742 -6.155,24.813 -5.446,42.022c0.852,20.671 4.092,27.467 20.84,43.717c18.701,18.144 35.408,26.797 38.898,20.146c1.841,-3.51 -0.335,-8.927 -3.586,-8.927c-7.006,0 -33.567,-22.838 -40.775,-35.06c-3.58,-6.072 -3.718,-7.084 -3.633,-26.646c0.109,-25.188 1.338,-29.141 11.68,-37.559c8.535,-6.947 10.754,-7.056 25.268,-1.242c12.779,5.12 13.37,6.691 13.413,35.698c0.041,26.902 1.33,32.834 7.319,33.69c4.476,0.64 5.615,-2.825 6.362,-19.368c0.966,-21.4 5.938,-30.996 18.556,-35.815c6.962,-2.658 12,-1.252 15.69,4.38c3.581,5.464 3.029,11.574 -1.898,21.042c-5.411,10.396 -7.738,21.971 -7.164,35.637c0.429,10.239 0.54,10.529 4.203,10.952c5.146,0.595 6.257,-2.136 7.089,-17.423c0.583,-10.71 1.405,-14.178 5.071,-21.392c8.585,-16.895 8.719,-28.293 0.435,-37.125c-10.206,-10.88 -23.66,-10.648 -39.749,0.685c-4.058,2.857 -4.462,2.611 -5.958,-3.629c-2.298,-9.583 -7.937,-14.132 -23.606,-19.044c-10.446,-3.275 -19.901,-3.53 -25.356,-0.685z" data-paper-data="{&quot;wickUUID&quot;:&quot;95afdc5c-df36-41e3-b964-5eb4ebb25468&quot;,&quot;wickType&quot;:&quot;path&quot;}"/><path d="M441.34006,303.31639c-5.611,2.991 -11.637,11.571 -15.741,22.413c-2.462,6.504 -2.861,9.813 -2.226,18.444c1.082,14.701 2.882,19.777 10.572,29.812c8.543,11.148 16.79,17.176 21.784,15.922c6.124,-1.537 4.417,-5.774 -6.778,-16.826c-8.496,-8.386 -10.811,-11.639 -12.622,-17.739c-3.419,-11.514 -2.875,-20.295 1.881,-30.349c5.438,-11.493 9.258,-14.019 17.649,-11.67c8.595,2.406 13.272,7.009 13.468,13.253c0.47,15.01 0.114,17.062 -3.763,21.669c-3.986,4.737 -4.086,9.501 -0.25,11.906c3.421,2.144 6.576,-0.098 10.819,-7.691c4.534,-8.113 5.882,-29.125 2.312,-36.029c-3.02,-5.84 -10.138,-11.072 -18.525,-13.616c-8.852,-2.686 -12.801,-2.579 -18.58,0.501z" data-paper-data="{&quot;wickUUID&quot;:&quot;c35a2b32-97c5-4356-a035-8de47ecfc029&quot;,&quot;wickType&quot;:&quot;path&quot;}"/><path d="M467.27812,258.61338c-10.32367,3.52133 -15.94174,10.94336 -18.22107,24.08003c-0.475,2.73833 -1.54866,14.12263 -1.56666,16.8803c-0.00667,1.03667 0.67698,1.91364 1.91131,1.91364c2.11167,0 6.76918,0.91572 10.23751,2.02072c4.434,1.41233 8.11314,3.2207 11.00514,5.39637c1.33433,1.00367 3.20749,1.81183 3.25249,1.76716c0.04467,-0.04467 0.71765,-1.97811 0.91965,-3.62311c0.96067,-7.824 2.68607,-13.72661 6.21074,-21.24728c3.87167,-8.26067 4.26695,-9.57361 4.29095,-13.99728c0.01967,-3.619 -0.13381,-4.50652 -1.10848,-6.55185c-1.368,-2.87067 -4.13027,-5.78989 -6.3826,-6.85522c-2.54467,-1.204 -6.88031,-1.03481 -10.54898,0.21652z" data-paper-data="{&quot;wickUUID&quot;:&quot;4454f938-d2be-46db-b581-1397290fc6d2&quot;,&quot;wickType&quot;:&quot;path&quot;}"/><path d="M488.80513,327.16803c-6.559,2.149 -18.913,8.717 -25.72,13.674c-9.357,6.815 -14.107,17.097 -13.266,28.718c0.668,9.241 3.417,14.033 11.019,19.205c3.569,2.429 6.294,3.118 11.09,2.805c5.855,-0.382 6.395,-0.736 6.822,-4.47c0.527,-4.617 -1.476,-6.411 -7.189,-6.442c-5.988,-0.033 -10.805,-5.672 -10.805,-12.649c0,-10.383 5.887,-17.629 20.479,-25.21c4.707,-2.446 11.128,-4.791 14.268,-5.212c4.837,-0.649 6.263,-0.214 9.323,2.846c3.102,3.103 3.613,4.837 3.613,12.276c0,6.316 -0.788,9.938 -2.905,13.365c-4.095,6.625 -3.212,11.057 2.204,11.057c3.684,0 4.686,-0.946 8.064,-7.615c6.858,-13.541 4.771,-30.028 -4.952,-39.1c-3.82,-3.564 -15.725,-5.318 -22.045,-3.248z" data-paper-data="{&quot;wickUUID&quot;:&quot;5d6e3a0c-78ea-478a-b7a1-23231e8bc46b&quot;,&quot;wickType&quot;:&quot;path&quot;}"/><path d="M481.80526,315.12921c-4.202,2.126 -5.119,5.506 -2.267,8.358c1.606,1.606 4.364,1.929 11.872,1.392c11.337,-0.811 15.144,1.077 21.938,10.881c3.542,5.111 3.969,6.869 3.74,15.394c-0.267,9.969 1.567,14.056 6.31,14.056c3.312,0 10.1,5.393 12.409,9.858c5.341,10.328 0.852,16.786 -12.421,17.871c-11.529,0.941 -39.485,-3.483 -47.424,-7.506c-7.378,-3.739 -12.423,-2.959 -12.379,1.914c0.069,7.76 12.65,12.634 40.825,15.815c24.79,2.799 36.757,-0.412 42.245,-11.334c3.437,-6.842 3.07,-11.992 -1.55,-21.758c-3.304,-6.984 -5.141,-9.067 -10.517,-11.918l-6.513,-3.456v-7.736c0,-12.003 -9.18,-26.149 -20.436,-31.49c-5.499,-2.61 -20.945,-2.813 -25.832,-0.341z" data-paper-data="{&quot;wickUUID&quot;:&quot;9681f5d3-32d3-49a4-acca-93bfb024ced5&quot;,&quot;wickType&quot;:&quot;path&quot;}"/><path d="M490.20781,318.93016c-1.157,0.747 -3.524,1.369 -5.259,1.381c-1.736,0.012 -4.443,1.309 -6.017,2.882c-1.573,1.573 -4.413,3.451 -6.311,4.173c-4.372,1.662 -4.73,7.609 -0.591,9.824c2.881,1.542 8.273,1.185 24.792,-1.642c13.722,-2.348 15.094,-7.169 4.03,-14.164c-6.715,-4.245 -7.568,-4.442 -10.644,-2.454z" data-paper-data="{&quot;wickUUID&quot;:&quot;6b4c3546-50b9-4a14-bed9-61b1d10f6f11&quot;,&quot;wickType&quot;:&quot;path&quot;}"/><path d="M635.3942,249.58424c-9.933,2.498 -14.811,6.699 -18.95,16.321c-3.963,9.213 -3.388,14.312 1.681,14.897c3.451,0.398 4.185,-0.405 7.942,-8.691c4.087,-9.015 4.24,-9.159 12.224,-11.479c14.955,-4.348 30.552,-0.885 42.344,9.402c5.646,4.925 10.317,5.097 18.999,0.702c3.602,-1.824 9.424,-4.414 12.937,-5.756c5.899,-2.252 6.355,-2.776 5.959,-6.851c-0.612,-6.295 -4.761,-6.364 -17.544,-0.294l-10.613,5.04l-4.738,-3.614c-13.746,-10.484 -32.596,-14.115 -50.241,-9.677z" data-paper-data="{&quot;wickUUID&quot;:&quot;73042622-52ea-48f0-853b-6d13dd6eacea&quot;,&quot;wickType&quot;:&quot;path&quot;}"/><path d="M564.81654,184.5777c-0.926,0.926 -1.683,2.385 -1.683,3.243c0,4.365 6.554,13.88 17.05,24.753c17.222,17.839 19.991,18.729 57.98,18.622c22.83,-0.064 32.13,-0.652 41.37,-2.618c12.783,-2.719 47.003,-12.538 52.63,-15.102c4.411,-2.01 5.815,-6.396 2.961,-9.25c-1.874,-1.874 -2.981,-1.942 -7.507,-0.46c-44.712,14.642 -58.323,17.287 -90.155,17.518c-30.898,0.224 -34.304,-0.93 -49.411,-16.738c-5.606,-5.866 -10.824,-12.099 -11.595,-13.85c-3.233,-7.342 -7.941,-9.817 -11.64,-6.118z" data-paper-data="{&quot;wickUUID&quot;:&quot;0a72ee25-1a40-456b-86c1-37c082025edb&quot;,&quot;wickType&quot;:&quot;path&quot;}"/><path d="M609.18229,196.55653c-2.798,0.626 -4.393,4.158 -2.926,6.481c6.161,9.761 16.623,22.088 19.319,22.765c9.25,2.321 8.368,-5.296 -2.109,-18.218c-8.633,-10.649 -10.284,-11.923 -14.284,-11.028z" data-paper-data="{&quot;wickUUID&quot;:&quot;aad824ab-d31f-4943-b16d-dabb2881d27e&quot;,&quot;wickType&quot;:&quot;path&quot;}"/><path d="M695.04029,193.0624c-2.668,6.665 -6.092,23.222 -5.253,25.407c1.067,2.78 5.64,3.006 7.815,0.385c2.327,-2.805 7.176,-17.584 7.176,-21.875c0,-6.955 -7.339,-9.908 -9.738,-3.917z" data-paper-data="{&quot;wickUUID&quot;:&quot;10668fef-ceec-4616-b0bb-3627d91a06dc&quot;,&quot;wickType&quot;:&quot;path&quot;}"/><path d="M860.44748,182.48728c-4.401,1.618 -7.522,5.651 -12.071,15.597c-5.368,11.738 -8.707,16.273 -26.896,36.536c-19.838,22.101 -25.258,35.274 -23.672,57.539c0.472,6.625 1.857,14.973 3.078,18.552c2.493,7.308 10.616,16.263 15.97,17.607c1.946,0.488 5.004,2.247 6.795,3.908c5.977,5.542 21.235,12.407 29.01,13.051c11.556,0.959 21.675,-2.628 28.595,-10.135c7.31,-7.931 9.754,-9.2 17.712,-9.2c11.711,0 23.925,-8.321 29.851,-20.335c5.751,-11.659 7.635,-19.713 6.017,-25.72c-1.426,-5.296 -9.472,-14.25 -12.806,-14.25c-0.785,0 -7.362,-5.652 -14.614,-12.561c-7.252,-6.909 -15.738,-13.864 -18.858,-15.455c-3.12,-1.592 -5.661,-3.354 -5.648,-3.917c0.013,-0.563 1.895,-4.179 4.183,-8.036c2.288,-3.856 4.157,-8.905 4.153,-11.219c-0.016,-9.707 -10.602,-25.467 -20.242,-30.133c-6.071,-2.939 -7.068,-3.112 -10.557,-1.829zM871.62248,199.18628c2.449,2.789 5.481,7.227 6.737,9.861c2.254,4.728 2.218,4.913 -2.823,14.212c-3.295,6.08 -6.099,9.576 -7.905,9.858c-3.448,0.538 -18.476,16.298 -28.629,30.021c-9.673,13.077 -20.016,31.026 -23.391,40.593l-2.64,7.485l-1.727,-4.207c-0.953,-2.323 -1.784,-10.802 -1.856,-18.933c-0.12,-13.71 0.17,-15.354 4.219,-23.841c2.944,-6.171 8.49,-13.56 17.169,-22.873c15.408,-16.536 23.909,-28.346 28.204,-39.184c3.825,-9.654 6.282,-10.236 12.642,-2.992zM883.32948,247.60328c1.685,0.88 8.427,6.743 14.984,13.028c6.556,6.285 14.747,12.985 18.201,14.889c9.585,5.283 10.115,8.673 3.432,21.953c-6.109,12.138 -12.434,17.176 -21.633,17.234c-9.541,0.06 -15.698,2.848 -23.369,10.58c-6.082,6.131 -8.572,7.658 -13.757,8.436c-9.019,1.352 -14.249,-0.022 -24.258,-6.373c-12.655,-8.03 -14.325,-13.934 -7.581,-26.805c8.766,-16.732 14.828,-26.337 22.435,-35.545c7.642,-9.251 8.254,-9.671 14.248,-9.774c5.472,-0.093 6.621,-0.675 9.104,-4.611c3.182,-5.041 3.843,-5.284 8.194,-3.012z" data-paper-data="{&quot;wickUUID&quot;:&quot;c745cd8d-268f-49fb-90ae-04a069404865&quot;,&quot;wickType&quot;:&quot;path&quot;}"/><path d="M979.38645,148.99396c-5.638,4.494 -16.877,12.657 -24.976,18.139c-8.099,5.483 -22.352,16.794 -31.672,25.136c-43.614,39.037 -45.216,40.798 -40.974,45.04c3.198,3.198 6.487,1.646 16.757,-7.907c30.209,-28.099 48.398,-43.553 62.901,-53.442c8.87,-6.048 18.581,-12.957 21.58,-15.354c2.998,-2.396 5.983,-4.357 6.633,-4.357c2.503,0 6.988,11.73 8.45,22.104c2.003,14.217 -0.079,35.569 -3.887,39.859c-3.571,4.022 -11.142,7.226 -28.575,12.095c-54.67,15.267 -64.143,18.674 -65.355,23.5c-0.449,1.791 -0.405,3.924 0.099,4.739c1.392,2.252 7.802,1.721 14.178,-1.175c3.143,-1.427 9.836,-3.629 14.873,-4.892c5.038,-1.264 13.826,-3.888 19.53,-5.833c5.704,-1.944 15.103,-4.722 20.888,-6.172c33.954,-8.513 39.301,-15.101 39.244,-48.347c-0.031,-17.656 -2.812,-31.109 -8.542,-41.308c-7.076,-12.594 -7.588,-12.639 -21.152,-1.825z" data-paper-data="{&quot;wickUUID&quot;:&quot;10c5663c-64b8-4f89-b50b-9358de9c296d&quot;,&quot;wickType&quot;:&quot;path&quot;}"/><path d="M733.62852,309.91452c-4.019,4.018 -2.742,6.691 10.912,22.859c12.795,15.15 62.602,63.29 65.482,63.29c1.214,0 3.432,-0.901 4.929,-2.001c2.592,-1.906 2.702,-3.726 2.3,-38.216c-0.529,-45.296 0.311,-43.252 -17.293,-42.112c-9.307,0.603 -18.457,-0.053 -35.951,-2.58c-27.993,-4.042 -27.594,-4.025 -30.379,-1.24zM767.30852,322.46752c7.646,1.174 19.123,2.03 25.505,1.903c6.382,-0.128 11.822,0.016 12.09,0.319c0.268,0.303 0.932,12.384 1.476,26.847c0.68,18.092 0.528,26.295 -0.488,26.295c-1.668,0 -49.368,-47.693 -53.65,-53.643c-3.335,-4.631 -3.649,-4.595 15.067,-1.721z" data-paper-data="{&quot;wickUUID&quot;:&quot;4e0e796f-51fa-43a5-89fb-52129de4b56c&quot;,&quot;wickType&quot;:&quot;path&quot;}"/><path d="M635.21832,-29.05186c-20.405,0.91 -24.402,2.088 -24.402,7.193c0,4.987 2.671,5.32 31.554,3.941c44.397,-2.12 58.752,-0.277 98.317,12.623c18.226,5.942 22.99,8.145 34.118,15.779c12.817,8.793 25.05,20.624 28.777,27.832c3.275,6.333 6.378,24.633 6.373,37.585c-0.011,28.331 -7.133,80.158 -14.199,103.329c-6.387,20.943 -13.573,34.887 -27.547,53.451c-11.902,15.811 -26.856,32.009 -25.247,27.347c0.4,-1.157 1.533,-5.711 2.52,-10.119c1.453,-6.492 1.454,-8.424 0.007,-10.167c-2.18,-2.627 -6.179,-2.792 -8.215,-0.339c-1.683,2.028 -6.763,18.014 -11.456,36.052c-5.093,19.576 -5.625,20.423 -14.11,22.458c-16.056,3.852 -67.35,-1.716 -97.386,-10.572c-9.256,-2.729 -22.484,-5.88 -29.395,-7.001c-12.017,-1.95 -12.799,-2.301 -17.901,-8.02c-2.933,-3.29 -7.913,-10.568 -11.065,-16.175c-3.153,-5.607 -6.931,-10.835 -8.396,-11.619c-3.249,-1.739 -8.273,0.53 -8.273,3.737c0,5.306 22.418,38.429 27.269,40.291c1.098,0.421 7.15,1.471 13.449,2.334c6.298,0.862 16.911,3.195 23.583,5.184c21.456,6.397 25.157,7.233 46.166,10.426c14.51,2.205 27.34,3.166 43.099,3.228c20.645,0.081 22.959,-0.168 28.95,-3.12c5.261,-2.592 7.049,-4.477 9.314,-9.817c1.541,-3.635 3.218,-8.577 3.727,-10.983c0.683,-3.231 2.938,-5.76 8.637,-9.685c14.193,-9.775 42.61,-45.326 51.94,-64.979c11.689,-24.622 19.499,-60.574 23.777,-109.456c4.793,-54.776 -2.533,-75.577 -34.663,-98.406c-16.015,-11.38 -17.205,-11.94 -42.957,-20.212c-38.077,-12.232 -56.58,-14.34 -106.365,-12.12z" data-paper-data="{&quot;wickUUID&quot;:&quot;606b874b-184c-4fc2-9982-c537f8c5265b&quot;,&quot;wickType&quot;:&quot;path&quot;}"/><path d="M522.78125,85.34069c-1.546,1.965 -4.301,8.783 -6.122,15.152c-4.79,16.749 -4.381,42.544 1.62,102.036c2.509,24.869 9.033,43.162 21.132,59.254c7.328,9.746 12.205,12.621 16.027,9.45c3.357,-2.786 2.48,-5.445 -4.269,-12.952c-6.871,-7.642 -14.545,-22.385 -18.085,-34.743c-2.89,-10.088 -6.479,-45.326 -8.718,-85.602c-0.995,-17.878 1.362,-32.883 6.98,-44.446c2.245,-4.621 2.592,-6.648 1.449,-8.471c-2.389,-3.811 -6.877,-3.666 -10.014,0.322z" data-paper-data="{&quot;wickUUID&quot;:&quot;10cdbb62-d88c-4b0f-b3e4-af6487fcaa9b&quot;,&quot;wickType&quot;:&quot;path&quot;}"/><path d="M815.86101,-0.47237c-2.952,3.557 -12.913,25.545 -12.913,28.504c0,1.682 1,3.887 2.221,4.901c3.413,2.832 6.292,0.163 11.588,-10.745l4.693,-9.665l10.393,10.84c5.716,5.962 11.596,12.817 13.066,15.235c2.429,3.994 2.493,4.902 0.71,9.957c-3.371,9.554 -7.451,34.496 -9.702,59.31c-4.48,49.396 -7.184,70.829 -8.933,70.816c-0.493,-0.003 -4.682,-1.566 -9.31,-3.472c-13.14,-5.413 -19.804,-4.081 -18.69,3.733c0.355,2.491 1.616,3.401 5.604,4.046c2.83,0.457 9.29,2.957 14.356,5.555c7.639,3.918 9.862,4.494 13.034,3.379c3.364,-1.183 4.103,-2.609 6.136,-11.848c1.271,-5.776 3.686,-24.386 5.367,-41.355c1.681,-16.97 3.709,-37.48 4.506,-45.579c1.53,-15.54 5.467,-34.707 9.101,-44.312c1.962,-5.184 1.962,-6.253 0.008,-10.932c-4.375,-10.468 -32.277,-40.121 -37.754,-40.121c-1.115,0 -2.681,0.789 -3.481,1.753z" data-paper-data="{&quot;wickUUID&quot;:&quot;4e28db0e-69f3-4731-b5c3-0ed1356a3583&quot;,&quot;wickType&quot;:&quot;path&quot;}"/><path d="M489.22271,-1.17364c-5.136,5.418 -22.183,31.655 -27.108,41.722c-2.265,4.628 -5.855,14.726 -7.979,22.439c-3.39,12.307 -3.864,16.514 -3.871,34.359c-0.007,16.902 0.539,22.346 3.235,32.241c5.6,20.56 9.477,26.308 34.732,51.5c13.041,13.008 24.338,23.123 26.405,23.642c5.368,1.347 7.827,-0.168 7.827,-4.824c0,-3.051 -1.096,-4.807 -4.241,-6.798c-8.449,-5.35 -42.741,-40.598 -46.861,-48.167c-9.479,-17.416 -13.007,-46.269 -8.486,-69.393c3.432,-17.549 7.855,-28.572 17.915,-44.644l8.686,-13.876l1.187,5.02c1.348,5.7 13.208,17.8 17.447,17.8c7.183,0 9.61,-7.552 3.419,-10.638c-1.758,-0.877 -4.79,-3.091 -6.738,-4.922c-3.355,-3.151 -3.493,-3.858 -2.605,-13.334c1.096,-11.696 -0.456,-15.984 -5.785,-15.984c-2.022,0 -5.081,1.643 -7.179,3.857z" data-paper-data="{&quot;wickUUID&quot;:&quot;19883ab5-6f36-4685-8ed2-1ee24b591883&quot;,&quot;wickType&quot;:&quot;path&quot;}"/><path d="M763.68043,-178.86374c-7.328,0.697 -22.474,2.535 -33.658,4.085c-29.584,4.1 -72.128,8.229 -106.339,10.321c-22.982,1.405 -30.202,2.296 -31.182,3.845c-1.965,3.106 -1.553,23.449 0.741,36.604c1.133,6.499 5.21,24.144 9.059,39.213c3.85,15.068 8.644,35.551 10.656,45.517c2.011,9.967 4.172,18.647 4.803,19.291c0.631,0.644 2.639,0.96 4.464,0.701c6.65,-0.941 5.206,-11.74 -9.347,-69.889c-8.256,-32.99 -10.449,-44.64 -10.465,-55.591l-0.011,-7.208l17.18,-0.943c28.854,-1.583 77.148,-6.241 111.843,-10.788c44.988,-5.896 67.149,-5.963 89.755,-0.272l16.128,4.06l1.013,18.893c0.557,10.391 2.655,33.569 4.663,51.507c2.616,23.366 3.323,34.669 2.494,39.856c-1.111,6.948 -1.455,7.394 -8.535,11.051c-10.837,5.598 -21.13,14 -29.428,24.022c-4.033,4.871 -10.158,11.066 -13.61,13.766c-8.786,6.87 -8.657,14.024 0.252,14.024c1.209,0 10.466,-8.407 20.571,-18.682c15.144,-15.398 20.097,-19.526 28.182,-23.49c6.08,-2.981 10.472,-6.142 11.55,-8.315c2.395,-4.827 2.234,-26.318 -0.362,-48.392c-4.281,-36.396 -5.124,-46.607 -5.373,-65.073l-0.254,-18.8l-11.191,-2.383c-6.155,-1.31 -15.69,-3.395 -21.187,-4.634c-12.909,-2.909 -35.545,-3.9 -52.412,-2.296z" data-paper-data="{&quot;wickUUID&quot;:&quot;b517f2be-6c6a-4155-a539-4d67a813ab7c&quot;,&quot;wickType&quot;:&quot;path&quot;}"/><path d="M562.62457,284.21973c-3.101,4.953 -4.92,22.919 -5.821,57.509c-0.458,17.553 -1.419,39.01 -2.137,47.682c-1.655,20.011 -1.682,43.224 -0.052,45.799c0.894,1.412 4.818,2.089 13.652,2.355c14.31,0.43 49.03,5.621 85.323,12.757c30.149,5.928 36.501,5.772 58.902,-1.453c8.485,-2.736 18.582,-5.73 22.439,-6.654c3.857,-0.923 7.848,-2.335 8.87,-3.137c2.231,-1.752 1.376,-15.563 -2.751,-44.417c-1.946,-13.598 -2.944,-30.788 -3.545,-61.005c-0.484,-24.356 -1.422,-42.811 -2.227,-43.826c-1.711,-2.155 -6.157,-2.295 -7.431,-0.234c-0.517,0.835 -0.855,19.926 -0.753,42.423c0.141,31.067 0.829,45.964 2.862,61.941c1.472,11.57 3.074,24.607 3.56,28.97l0.883,7.934l-4.642,0.993c-2.554,0.546 -12.404,3.444 -21.891,6.441c-9.486,2.996 -19.998,5.448 -23.36,5.448c-3.362,0 -15.48,-1.87 -26.929,-4.155c-25.911,-5.173 -58.129,-10.431 -78.172,-12.759l-15.284,-1.775l0.955,-19.055c0.525,-10.48 1.535,-29.783 2.244,-42.895c0.709,-13.113 1.32,-31.099 1.358,-39.97c0.038,-8.87 0.967,-20.834 2.064,-26.588c2.169,-11.377 1.263,-15.484 -3.418,-15.484c-1.498,0 -3.612,1.42 -4.699,3.155z" data-paper-data="{&quot;wickUUID&quot;:&quot;f79d6353-d256-4ae3-92e3-c36f7154cc2a&quot;,&quot;wickType&quot;:&quot;path&quot;}"/><path d="M705.41145,445.25956c-3.633,5.878 7.539,46.874 24.716,90.696c0.824,2.102 2.408,3.155 4.746,3.155c6.328,0 5.944,-5.088 -2.085,-27.691c-8.842,-24.89 -15.06,-46.187 -16.273,-55.736c-0.492,-3.866 -1.462,-8.134 -2.157,-9.484c-1.391,-2.699 -7.466,-3.338 -8.947,-0.94z" data-paper-data="{&quot;wickUUID&quot;:&quot;1f466c8a-4149-4e07-8589-64b9d7dfc954&quot;,&quot;wickType&quot;:&quot;path&quot;}"/><path d="M549.10974,405.8834c-6.557,1.432 -23.596,4.875 -37.866,7.652c-14.27,2.777 -33.814,6.982 -43.431,9.343c-31.671,7.777 -35.141,11.792 -22.724,26.287c12.114,14.142 17.987,22.963 30.469,45.769c6.755,12.341 15.541,26.541 19.524,31.554c3.983,5.014 10.556,14.045 14.606,20.069c6.459,9.606 7.826,10.899 11.122,10.518c8.247,-0.953 4.81,-9.398 -13.48,-33.119c-4.94,-6.406 -14.649,-21.839 -21.575,-34.295c-14.083,-25.327 -15.399,-27.379 -25.941,-40.462c-4.11,-5.1 -7.472,-9.592 -7.472,-9.983c0,-1.748 46.746,-12.506 81.341,-18.72c27.522,-4.943 33.87,-6.611 35.602,-9.357c2.093,-3.319 -0.455,-7.284 -4.89,-7.61c-1.851,-0.137 -8.729,0.923 -15.285,2.354z" data-paper-data="{&quot;wickUUID&quot;:&quot;8d111bb8-235f-431b-abd2-2d712c4ba285&quot;,&quot;wickType&quot;:&quot;path&quot;}"/><path d="M566.182,296.14084c-0.692,1.35 -1.657,5.515 -2.145,9.255c-1.186,9.086 -7.843,21.195 -18.552,33.745c-10.15,11.896 -27.425,27.488 -38.137,34.422c-9.824,6.36 -11.897,14.086 -3.779,14.086c7.454,0 37.282,-24.626 51.932,-42.874c13.971,-17.402 22.247,-37.351 19.702,-47.49c-1.078,-4.293 -7.021,-5.047 -9.021,-1.144z" data-paper-data="{&quot;wickUUID&quot;:&quot;17200c2b-f29a-4e27-9669-a9b4c9d06ef3&quot;,&quot;wickType&quot;:&quot;path&quot;}"/><path d="M726.32039,284.57386c-1.774,4.624 0.862,8.845 7.553,12.093c5.999,2.912 9.712,3.366 37.062,4.533c28.862,1.231 31.066,1.141 43.717,-1.782c14.167,-3.274 17.152,-5.185 15.622,-10.006c-1.091,-3.437 -3.979,-3.357 -21.015,0.581c-7.941,1.835 -14.507,2.11 -34.36,1.44c-26.284,-0.888 -33.701,-2.083 -39.057,-6.296c-4.072,-3.204 -8.41,-3.46 -9.522,-0.563z" data-paper-data="{&quot;wickUUID&quot;:&quot;c8790568-3ca0-4d6d-9406-a96bb89d0115&quot;,&quot;wickType&quot;:&quot;path&quot;}"/></g><g fill="none" fill-rule="nonzero" stroke="none" stroke-width="1" stroke-linecap="butt" stroke-linejoin="miter" stroke-miterlimit="10" stroke-dasharray="" stroke-dashoffset="0" font-family="sans-serif" font-weight="normal" font-size="12" text-anchor="start" style="mix-blend-mode: normal"/><g id="wick_project_gui" fill="none" fill-rule="nonzero" stroke="none" stroke-width="1" stroke-linecap="butt" stroke-linejoin="miter" stroke-miterlimit="10" stroke-dasharray="" stroke-dashoffset="0" font-family="sans-serif" font-weight="normal" font-size="12" text-anchor="start" style="mix-blend-mode: normal"/></g></svg>