<svg version="1.1" xmlns="http://www.w3.org/2000/svg" xmlns:xlink="http://www.w3.org/1999/xlink" width="1260" height="594" viewBox="0,0,1260,594"><g transform="translate(230.20498,30.46998) scale(1.11054,1.11054)"><g id="wick_project_bg" fill="#cccccc" fill-rule="nonzero" stroke="none" stroke-width="1" stroke-linecap="butt" stroke-linejoin="miter" stroke-miterlimit="10" stroke-dasharray="" stroke-dashoffset="0" font-family="none" font-weight="none" font-size="none" text-anchor="none" style="mix-blend-mode: normal"><rect x="0" y="0" width="720" height="480"/></g><g data-paper-data="{&quot;wickUUID&quot;:&quot;59df0383-a8b1-439b-b20f-886c782195f6&quot;,&quot;wickType&quot;:&quot;clipsandpaths&quot;}" fill="none" fill-rule="evenodd" stroke="none" stroke-width="1" stroke-linecap="butt" stroke-linejoin="miter" stroke-miterlimit="10" stroke-dasharray="" stroke-dashoffset="0" font-family="none" font-weight="none" font-size="none" text-anchor="none" style="mix-blend-mode: normal"><path d="M438.5191,181.0248c-4.60767,3.40267 -5.06111,4.30532 -3.21078,5.99999c1.318,1.20733 1.79369,2.02917 1.47102,3.79717c-0.371,2.03333 -3.85071,5.24253 -7.79871,7.18186c-4.932,2.42267 -6.07281,2.5995 -13.71448,2.37817c-3.62533,-0.105 -7.33336,-0.39801 -8.51069,-0.66001c-2.05033,-0.45633 -2.77881,-0.1742 -3.04148,0.5048c-0.14867,0.38467 -1.08381,2.59001 -1.85481,4.51501c-3.77,9.416 -7.31631,20.7361 -18.82198,60.07843c-6.02067,20.58667 -6.98878,24.33193 -8.49745,32.8436c-1.999,11.27867 -3.05619,20.77382 -2.41719,21.16882c0.568,0.351 6.55196,0.38591 8.12429,-0.22442c0.75367,-0.29233 2.4133,-0.58496 3.60497,-0.63496c4.985,-0.21 37.615,-7.62064 42.44967,-9.64064c0.79067,-0.33067 1.87389,-1.44622 1.87389,-1.83922c0,-5.40067 3.0276,-31.29923 6.0266,-51.55623c3.827,-25.84867 5.21368,-36.57278 6.63801,-51.33345c1.12633,-11.67667 2.23236,-21.83407 2.53303,-23.26807c0.10567,-0.504 -1.08708,-1.78967 -1.23941,-1.784c-0.152,0.00533 -1.9725,1.26082 -3.6145,2.47315z" data-paper-data="{&quot;wickUUID&quot;:&quot;a8aabdbe-d908-4eb6-9e04-2558f8d5e265&quot;,&quot;wickType&quot;:&quot;path&quot;,&quot;originalStyle&quot;:{&quot;strokeColor&quot;:null,&quot;fillColor&quot;:[&quot;Color&quot;,0.50196,0,1],&quot;strokeWidth&quot;:1}}" fill="#8000ff"/><path d="M409.06718,84.10251l-2.37511,2.283l7.46445,0.25376c4.127,0.136 7.86433,0.10795 8.427,-0.05905c0.99533,-0.29567 1.06518,-1.98038 -0.59382,-2.38338c-0.91667,-0.223 -3.76729,-0.48282 -6.15062,-0.56015c-3.436,-0.11133 -4.9219,-0.01051 -6.7719,0.46582z" data-paper-data="{&quot;wickUUID&quot;:&quot;9fcfc4c7-f595-4b9b-91ce-15b5168b4c8a&quot;,&quot;wickType&quot;:&quot;path&quot;,&quot;originalStyle&quot;:{&quot;strokeColor&quot;:null,&quot;fillColor&quot;:[&quot;Color&quot;,1,1,1],&quot;strokeWidth&quot;:1}}" fill="#ffffff"/><path d="M435.2184,92.11798c-1.711,1.74533 -3.95305,2.92972 -6.57705,3.47572c-1.00833,0.20967 -2.1804,0.65462 -2.24607,0.71429c-0.066,0.05933 0.10796,1.51142 0.50529,2.06975c0.39767,0.55833 1.19188,2.02792 1.82255,3.39292c0.92833,2.00867 1.10132,2.46553 1.09665,4.16886c-0.011,4.005 -1.49711,8.94408 -3.30211,10.87908c-1.25733,1.34833 -2.41893,1.67028 -4.56693,1.67028c-1.82733,0 -1.19668,0.37857 -2.10268,-0.65343c-1.63467,-1.862 -4.86405,-10.80238 -6.21038,-17.17805c-0.457,-2.16467 -1.21734,-4.45787 -1.21734,-4.5202c0,-0.062 -3.48591,-0.33358 -7.29024,-0.46858c-3.80433,-0.135 -8.84115,-0.42273 -11.20515,-0.63973l-4.53268,-0.37803l-2.66828,2.06445c-7.05033,5.725 -14.62312,14.90107 -17.68745,21.37707c-2.48133,5.24433 -3.11478,11.32323 -2.04545,20.46423c0.94933,8.11633 3.46859,18.05452 5.35292,21.16785c1.15533,1.90867 4.19662,4.97899 11.59562,11.55099c13.03467,11.57733 21.46297,18.48581 23.02764,18.87848c0.56733,0.14233 2.26449,0.06421 3.56949,-0.46612c1.09367,-0.44433 2.71634,-1.01868 3.32167,-1.14935c2.74167,-0.59167 4.81835,-2.10037 10.83035,-7.87304c4.364,-4.19 7.26419,-6.60029 11.61519,-9.61229c6.444,-4.46167 11.12869,-10.72328 17.43069,-23.29528c2.44467,-4.87667 3.23633,-7.20506 4.06666,-12.00673c1.63367,-9.448 1.67787,-15.34125 0.1662,-21.16292c-1.51967,-5.853 -4.37202,-13.23881 -4.97135,-12.86881c-0.613,0.379 -3.60366,-0.53767 -4.50133,-1.293c-0.51567,-0.43367 -1.31277,-1.7236 -2.07277,-3.1846l-1.517,-2.82567l-3.44961,-1.98427c-1.79367,-1.01567 -3.75939,-1.94692 -3.93839,-1.94692c-0.17933,0 -1.48133,0.79972 -2.29866,1.63305zM452.159,124.4173c1.46967,0.738 2.00333,1.83263 2.00333,3.27163c0,1.15767 -0.33844,2.93646 -0.91677,4.54479c-0.48467,1.34667 -2.3101,2.66312 -7.52177,5.53179c-6.62,3.644 -9.65442,5.97718 -16.59442,12.75918c-3.39167,3.314 -6.81841,6.46598 -7.70708,7.07131c-2.21267,1.507 -8.32008,4.3677 -11.25808,5.26003c-3.29267,1 -6.32262,0.78807 -10.46462,-0.68793c-3.88333,-1.38367 -4.83452,-1.86758 -6.51185,-3.37725c-1.82,-1.63833 -3.01033,-3.57787 -4.46833,-7.25554c-2.211,-5.577 -2.76826,-9.04144 -1.72759,-11.05377c0.64867,-1.25433 2.26755,-2.37303 3.39022,-2.6397c0.501,-0.119 1.90424,-0.68935 3.37091,-1.38535c3.054,-1.44867 2.33143,-1.23795 18.62543,-5.44028c14.77767,-3.811 18.08631,-4.58082 25.92631,-6.01982c7.16033,-1.31467 11.96764,-1.52709 13.85431,-0.57909z" data-paper-data="{&quot;wickUUID&quot;:&quot;e57838cb-6ae6-4a7a-bbf8-7de4a036f395&quot;,&quot;wickType&quot;:&quot;path&quot;,&quot;originalStyle&quot;:{&quot;strokeColor&quot;:null,&quot;fillColor&quot;:[&quot;Color&quot;,1,1,1],&quot;strokeWidth&quot;:1}}" fill="#ffffff"/><path d="M425.62067,137.40237c-7.40567,1.645 -24.15542,6.0261 -26.72975,6.99177l-1.93661,0.97553l0.55166,2.22173c0.99033,2.807 2.59072,4.4818 4.55672,5.44347c3.50367,1.71433 7.38982,0.9335 12.86015,-2.60917c2.24367,-1.453 13.34727,-11.86875 12.56394,-11.78942c-0.21033,0.02133 -1.49944,-1.31524 -1.86611,-1.23391z" data-paper-data="{&quot;wickUUID&quot;:&quot;a3f91634-bb0d-45cb-b5d3-8272eb1e1b81&quot;,&quot;wickType&quot;:&quot;path&quot;,&quot;originalStyle&quot;:{&quot;strokeColor&quot;:null,&quot;fillColor&quot;:[&quot;Color&quot;,1,1,1],&quot;strokeWidth&quot;:1}}" fill="#ffffff"/><path d="M452.25678,74.63868c2.43233,1.81567 2.20744,1.14381 2.97844,8.72248l0.71063,6.99554l1.41595,1.66875c0.649,0.68767 2.66989,0.916 2.78256,0.916c0.45533,0 1.53228,-6.92848 1.53495,-9.89981c0.00267,-2.82033 -0.29451,-3.89191 -1.01451,-4.90124c-0.85233,-1.195 -6.66888,-5.20223 -7.53855,-5.18423c-0.336,0.007 -1.45647,1.24384 -0.86947,1.68251z" data-paper-data="{&quot;wickUUID&quot;:&quot;9bfa2ed3-59d8-4580-a7e0-f611ce7dc7cb&quot;,&quot;wickType&quot;:&quot;path&quot;,&quot;originalStyle&quot;:{&quot;strokeColor&quot;:null,&quot;fillColor&quot;:[&quot;Color&quot;,1,0.50196,0],&quot;strokeWidth&quot;:1}}" fill="#ff8000"/><path d="M348.43993,60.10034l-2.3512,0.48445l-9.77851,12.0456c-14.89267,18.34933 -18.83134,23.88871 -21.66634,30.37738c-2.41733,5.53367 -2.0387,6.60105 7.2773,2.58372c8.74633,-3.77133 16.6602,-6.58397 25.14287,-8.94497c5.41133,-1.50633 15.12416,-3.80044 16.35149,-3.86244c0.36667,-0.01867 -0.17384,-1.89839 -1.36551,-2.25672c-3.43867,-1.034 -3.71426,-1.13748 -4.99326,-2.55348c-1.15767,-1.28133 -0.94481,-0.73128 -0.80581,-2.65261c0.13533,-1.871 0.0636,-1.64431 1.48593,-2.98831c0.83767,-0.79133 1.31391,-1.22045 1.79658,-1.34145c0.51967,-0.13033 3.23906,0.26243 6.93473,0.97343c5.64733,1.08667 12.45248,2.11407 17.95581,2.71107l2.43708,0.18805l3.06566,-1.92111c5.43633,-3.45167 11.85127,-6.50557 17.02794,-8.0989c2.543,-0.783 2.98652,-0.82273 7.47385,-0.80173c5.804,0.027 9.42636,0.67566 15.99569,2.85299l4.1726,1.37051l1.50955,-1.00236l0.99306,-1.80223l-2.95729,-3.03274c-3.10933,-3.14267 -6.29957,-5.59328 -8.65924,-6.78928c-4.45167,-2.25567 -15.55948,-4.04137 -32.25548,-5.17837c-5.96467,-0.40633 -42.09317,-0.69717 -44.7875,-0.3605z" data-paper-data="{&quot;wickUUID&quot;:&quot;817fc6ac-c341-47fa-8f27-32dc291279f0&quot;,&quot;wickType&quot;:&quot;path&quot;,&quot;originalStyle&quot;:{&quot;strokeColor&quot;:null,&quot;fillColor&quot;:[&quot;Color&quot;,1,0.50196,0],&quot;strokeWidth&quot;:1}}" fill="#ff8000"/><path d="M341.28553,124.37438c-26.33533,20.47133 -31.88844,25.0187 -33.84944,27.7217l-1.20618,1.80189l0.53191,2.3949c3.14733,12.823 9.96293,39.42889 10.7936,42.13422c0.97633,3.179 2.09057,4.07825 2.84624,4.07825c0.962,0 5.3236,-2.12346 11.65827,-5.74479c2.475,-1.415 7.06867,-3.96159 10.39667,-5.73559c18.20133,-9.70133 22.53746,-10.64078 35.30346,-7.65945c1.89533,0.44267 4.27358,-0.16862 4.43958,-0.16862c0.166,0 -2.01608,-2.31655 -4.53575,-4.55855c-2.51933,-2.24167 -6.36488,-5.84284 -8.58955,-8.04684c-3.565,-3.53167 -4.02041,-4.03296 -5.22174,-6.53596c-3.59067,-7.481 -6.80277,-21.10717 -7.23944,-30.70084c-0.16533,-3.631 -0.08591,-4.62191 0.51676,-7.75758c0.98733,-5.13533 2.14765,-8.982 3.70398,-12.30333c0.723,-1.54233 -0.00878,-3.82142 -0.06545,-3.87809c-0.05633,-0.05667 -8.85859,6.70001 -19.48292,14.95868z" data-paper-data="{&quot;wickUUID&quot;:&quot;221be891-3d04-4927-9cc8-c5c5f25a51e0&quot;,&quot;wickType&quot;:&quot;path&quot;,&quot;originalStyle&quot;:{&quot;strokeColor&quot;:null,&quot;fillColor&quot;:[&quot;Color&quot;,1,0.50196,0],&quot;strokeWidth&quot;:1}}" fill="#ff8000"/><path d="M401.47544,76.10287c-18.70454,7.7668 -37.24634,25.18103 -42.5211,39.93639c-1.3801,3.86213 -2.7333,9.45431 -3.00605,12.42774c-0.9342,10.1813 3.67031,30.52572 8.68686,38.38363c1.45279,2.27459 8.90233,9.31302 18.82758,17.78705c18.32279,15.6439 19.04702,16.01805 32.0881,16.56709c5.29421,0.22342 7.81988,-0.02649 10.47101,-1.03485c9.82251,-3.73538 14.15955,-9.63881 9.73543,-13.25075c-1.47448,-1.20501 -1.45605,-1.3908 0.31726,-3.14979c1.03597,-1.02824 4.20787,-3.35959 7.04929,-5.18117c5.12775,-3.28761 8.14469,-6.60638 13.10254,-14.41479c4.07069,-6.41124 9.30697,-16.33029 10.26577,-19.44734c1.65331,-5.37723 3.29881,-20.42056 2.78208,-25.44004c-0.66594,-6.46782 -4.59139,-18.96979 -7.25498,-23.10318c-5.57521,-8.65282 -25.85398,-19.85683 -40.47561,-22.36302c-8.09214,-1.3863 -12.41363,-0.8948 -20.06818,2.28303zM429.12625,87.20498c9.3893,3.54293 20.31324,10.28088 23.28196,14.36035c2.22059,3.05041 5.40884,13.02866 5.96465,18.66433c0.23616,2.38936 -0.12648,8.20619 -0.80666,12.92838c-1.04221,7.24932 -1.87261,9.76645 -5.33582,16.1817c-7.18886,13.31732 -10.23514,17.18181 -17.20881,21.82768c-3.48723,2.32398 -7.85285,5.85327 -9.70236,7.84308c-5.08511,5.47238 -9.20476,8.67029 -11.46229,8.89817c-1.11832,0.11289 -2.70181,0.65567 -3.51972,1.20559c-1.01271,0.68115 -2.15632,0.77246 -3.58724,0.28772c-2.60593,-0.88375 -31.34876,-26.03019 -33.37981,-29.20426c-2.46532,-3.85188 -4.87892,-13.28517 -5.89001,-23.02286c-0.8167,-7.86173 -0.73027,-10.03238 0.59134,-14.83238c2.5495,-9.26389 14.15912,-22.68673 26.51602,-30.65806c13.54884,-8.73892 20.76935,-9.67482 34.53875,-4.47944z" data-paper-data="{&quot;wickUUID&quot;:&quot;5b4f2311-6d6b-4de7-a5cc-00b059a56ba3&quot;,&quot;wickType&quot;:&quot;path&quot;,&quot;originalStyle&quot;:{&quot;strokeColor&quot;:null,&quot;fillColor&quot;:[&quot;Color&quot;,0,0,0],&quot;strokeWidth&quot;:1}}" id="5b4f2311-6d6b-4de7-a5cc-00b059a56ba3" fill="#000000"/><path d="M434.32739,124.97488c-3.87895,0.75338 -11.49914,2.57893 -16.93415,4.05725c-5.43391,1.47922 -11.74193,3.11099 -14.0166,3.62705c-8.13669,1.84652 -11.88656,3.48039 -13.37742,5.82698c-1.89843,2.98877 -1.64882,4.75464 0.95347,6.74736c2.33653,1.78939 3.92945,1.8678 6.70696,0.32907c2.89367,-1.60272 29.44552,-8.14847 43.04986,-10.61224c10.50493,-1.90365 12.49097,-2.49109 13.34942,-3.9537c1.09171,-1.86005 1.05736,-4.6497 -0.07418,-6.022c-2.20591,-2.67599 -5.86545,-2.67645 -19.65736,0.00023z" data-paper-data="{&quot;wickUUID&quot;:&quot;7e29fe4b-af2f-41a9-9805-ebb13c5f87f6&quot;,&quot;wickType&quot;:&quot;path&quot;,&quot;originalStyle&quot;:{&quot;strokeColor&quot;:null,&quot;fillColor&quot;:[&quot;Color&quot;,0,0,0],&quot;strokeWidth&quot;:1}}" id="7e29fe4b-af2f-41a9-9805-ebb13c5f87f6" fill="#000000"/><path d="M442.43978,127.92606c-7.0052,3.37762 -15.30777,9.6944 -20.94172,15.93277c-5.71159,6.32561 -13.21054,10.43754 -17.11684,9.38654c-3.91347,-1.05228 -5.41532,-2.69777 -6.89818,-7.56043c-2.1435,-7.02625 -2.28002,-7.24363 -5.05068,-8.07658c-2.16541,-0.65182 -2.89904,-0.52149 -4.53156,0.80015c-2.73449,2.21382 -2.87668,4.98713 -0.58555,11.44468c2.65089,7.47255 4.85722,10.17261 9.89472,12.1145c7.64981,2.94862 10.15757,3.01913 16.22113,0.45921c7.64445,-3.22807 11.2031,-5.68088 15.64049,-10.77931c5.1291,-5.89292 11.03866,-10.44645 18.17901,-14.00858c5.83139,-2.90836 7.34753,-4.61627 7.0161,-7.89958c-0.21764,-2.15604 -3.3736,-4.82458 -5.31839,-4.4956c-0.80048,0.13508 -3.72905,1.34231 -6.50853,2.68223z" data-paper-data="{&quot;wickUUID&quot;:&quot;369a50d1-df18-4393-941b-d1174fd24ac0&quot;,&quot;wickType&quot;:&quot;path&quot;,&quot;originalStyle&quot;:{&quot;strokeColor&quot;:null,&quot;fillColor&quot;:[&quot;Color&quot;,0,0,0],&quot;strokeWidth&quot;:1}}" id="369a50d1-df18-4393-941b-d1174fd24ac0" fill="#000000"/><path d="M454.4719,53.30881c-8.67536,11.70446 -23.99247,30.05859 -26.50335,31.75936c-3.90137,2.64218 -47.83535,-0.33349 -64.2418,-4.35107c-3.77902,-0.92514 -4.18387,-0.88328 -6.05611,0.63242c-3.03178,2.4549 -3.16413,5.64432 -0.33029,7.95942c1.83575,1.49821 5.46247,2.35831 17.19109,4.07406c16.9897,2.48727 25.22134,3.12477 42.60999,3.30129c15.17317,0.15391 15.03851,0.21373 25.46427,-11.24629c8.73225,-9.59752 26.95626,-33.92378 27.55519,-36.78239c0.64679,-3.08154 -2.12624,-5.80984 -5.55183,-5.46405c-2.558,0.25821 -3.59983,1.2981 -10.13716,10.11725z" data-paper-data="{&quot;wickUUID&quot;:&quot;bbfa2846-2cbe-40f2-aecd-402591c3c59d&quot;,&quot;wickType&quot;:&quot;path&quot;,&quot;originalStyle&quot;:{&quot;strokeColor&quot;:null,&quot;fillColor&quot;:[&quot;Color&quot;,0,0,0],&quot;strokeWidth&quot;:1}}" id="bbfa2846-2cbe-40f2-aecd-402591c3c59d" fill="#000000"/><path d="M441.79593,72.95924c-1.62063,2.11646 -1.65075,2.69441 -0.46621,9.14204c1.54928,8.43807 3.92254,15.56977 6.06055,18.2104c2.07485,2.56257 6.52333,2.30349 8.5892,-0.50016c1.24113,-1.68416 1.28103,-3.28024 0.3211,-12.78991l-1.09671,-10.86479l-4.07053,-2.90689c-4.71723,-3.36927 -6.92638,-3.43875 -9.3374,-0.29069z" data-paper-data="{&quot;wickUUID&quot;:&quot;51c3ea0c-1378-4ebb-88ec-be16f3173596&quot;,&quot;wickType&quot;:&quot;path&quot;,&quot;originalStyle&quot;:{&quot;strokeColor&quot;:null,&quot;fillColor&quot;:[&quot;Color&quot;,0,0,0],&quot;strokeWidth&quot;:1}}" id="51c3ea0c-1378-4ebb-88ec-be16f3173596" fill="#000000"/><path d="M413.33178,90.32226c-1.86506,2.28386 -1.89774,2.66708 -0.75424,8.74798c1.3411,7.13237 5.00351,17.66581 6.73547,19.37048c1.76652,1.73837 6.25615,0.90123 8.10427,-1.51057c1.85239,-2.41927 3.53716,-8.63993 3.20433,-11.82762c-0.29446,-2.80762 -4.8408,-10.4979 -6.4686,-10.94166c-0.68207,-0.18544 -1.55163,-1.352 -1.93309,-2.59196c-0.42059,-1.36868 -1.58996,-2.55826 -2.97828,-3.02921c-3.18662,-1.08042 -3.69773,-0.9263 -5.90986,1.78256z" data-paper-data="{&quot;wickUUID&quot;:&quot;535f20a0-0964-4c89-8a9a-28de4455c6ed&quot;,&quot;wickType&quot;:&quot;path&quot;,&quot;originalStyle&quot;:{&quot;strokeColor&quot;:null,&quot;fillColor&quot;:[&quot;Color&quot;,0,0,0],&quot;strokeWidth&quot;:1}}" id="535f20a0-0964-4c89-8a9a-28de4455c6ed" fill="#000000"/><path d="M372.5093,90.87042c-9.32504,3.89422 -11.86927,5.58328 -32.11236,21.31789c-28.75464,22.35089 -41.06606,32.46549 -43.12382,35.42914c-1.72596,2.48692 -1.7918,3.15893 -0.83204,8.54477c1.92634,10.81924 11.24855,46.12751 13.47515,51.03972c3.20295,7.06705 5.38204,9.26834 8.83052,8.92024c1.55311,-0.15677 3.0336,-0.71429 3.28913,-1.23961c0.87416,-1.79487 25.58293,-15.7761 36.28072,-20.52853c6.27002,-2.78479 7.11494,-2.96757 11.1776,-2.40877c2.41765,0.33287 7.33577,1.45059 10.92992,2.48586c3.59504,1.03417 10.37293,2.73304 15.06322,3.77425l8.52834,1.89406l2.04953,-1.87029c2.70848,-2.47151 2.72231,-5.56053 0.03345,-7.55456c-1.15385,-0.85645 -6.58533,-2.62891 -12.06861,-3.93884c-5.48328,-1.30993 -12.9004,-3.12821 -16.48209,-4.0401c-10.37583,-2.64229 -15.06241,-2.17324 -25.03629,2.50209c-4.61595,2.16453 -12.03006,6.03171 -16.47628,8.5932c-13.48675,7.77079 -15.87311,8.88308 -16.71235,7.78783c-0.40846,-0.53167 -1.81498,-5.26535 -3.12517,-10.51832c-1.31019,-5.25297 -3.89216,-15.42811 -5.736,-22.61225c-1.84384,-7.18414 -3.40656,-13.59461 -3.47224,-14.2453c-0.15205,-1.50635 6.83627,-7.82916 18.50055,-16.73767c5.02584,-3.83917 15.66533,-12.09647 23.64258,-18.35026c17.96063,-14.08101 19.79625,-15.27239 29.363,-19.05231c9.21294,-3.64068 11.38867,-6.01318 9.04783,-9.86657c-1.19339,-1.96508 -1.91506,-2.25407 -5.16658,-2.07561c-2.07902,0.11438 -6.51922,1.35157 -9.86771,2.74994z" data-paper-data="{&quot;wickUUID&quot;:&quot;0b3bcee3-aa27-4cb8-a492-49a6b0d61007&quot;,&quot;wickType&quot;:&quot;path&quot;,&quot;originalStyle&quot;:{&quot;strokeColor&quot;:null,&quot;fillColor&quot;:[&quot;Color&quot;,0,0,0],&quot;strokeWidth&quot;:1}}" id="0b3bcee3-aa27-4cb8-a492-49a6b0d61007" fill="#000000"/><path d="M380.43421,90.14358c-1.01617,1.24435 -1.77293,3.00727 -1.68124,3.91565c0.17244,1.70832 4.14578,4.75768 5.96056,4.57449c1.98093,-0.19996 5.09473,-4.01296 4.89477,-5.99389c-0.20689,-2.04958 -4.03674,-5.09132 -6.14403,-4.87861c-0.6497,0.06558 -2.01389,1.13801 -3.03006,2.38236z" data-paper-data="{&quot;wickUUID&quot;:&quot;507ef0b5-2dd2-482e-9d5d-b98036127a53&quot;,&quot;wickType&quot;:&quot;path&quot;,&quot;originalStyle&quot;:{&quot;strokeColor&quot;:null,&quot;fillColor&quot;:[&quot;Color&quot;,0,0,0],&quot;strokeWidth&quot;:1}}" id="507ef0b5-2dd2-482e-9d5d-b98036127a53" fill="#000000"/><path d="M333.78197,59.90879c-10.72154,12.14419 -23.76902,29.37469 -27.23893,35.97254c-2.24788,4.27638 -6.2967,17.92402 -6.92756,23.35383c-0.65563,5.65243 5.37226,8.05618 10.03978,4.00292c2.39709,-2.08127 17.86356,-9.54634 26.74661,-12.91049c9.20831,-3.48744 19.41574,-6.11789 34.96458,-9.01313c11.33042,-2.1096 14.42388,-2.96762 16.04829,-4.44925c4.61434,-4.21172 0.84646,-10.15436 -5.43672,-8.57534c-1.81532,0.45662 -9.27739,1.96669 -16.58176,3.35631c-15.78317,3.00332 -31.04744,7.59253 -42.65853,12.82612c-4.64617,2.09421 -8.66221,3.82933 -8.92388,3.85574c-1.10538,0.11158 1.65205,-6.51485 4.87858,-11.72022c1.91625,-3.09108 9.0344,-12.41913 15.81728,-20.72736l12.33313,-15.10702l6.43297,-0.16491c33.35485,-0.85421 63.02172,1.4047 71.78084,5.46554c4.80712,2.22848 12.56983,10.03935 14.95144,15.04346c1.09579,2.30259 2.64534,4.08196 4.11391,4.7207c2.16369,0.94347 2.53179,0.86611 4.52136,-0.95089c4.69785,-4.29051 1.97373,-10.79582 -9.00226,-21.49457c-7.34747,-7.16229 -13.36058,-9.3997 -30.87887,-11.48786c-13.15496,-1.56775 -19.59413,-1.86254 -47.59717,-2.17572c-6.98822,-0.07856 -13.91359,-0.1916 -15.39118,-0.25251c-2.44231,-0.09922 -3.52791,0.84558 -11.99191,10.43211z" data-paper-data="{&quot;wickUUID&quot;:&quot;0e0cd4eb-81c6-44d9-9bfb-0f568630490c&quot;,&quot;wickType&quot;:&quot;path&quot;,&quot;originalStyle&quot;:{&quot;strokeColor&quot;:null,&quot;fillColor&quot;:[&quot;Color&quot;,0,0,0],&quot;strokeWidth&quot;:1}}" id="0e0cd4eb-81c6-44d9-9bfb-0f568630490c" fill="#000000"/><path d="M438.601,61.99895c-4.09985,3.95174 -0.98678,8.64482 5.95601,8.98024c4.37637,0.21154 6.49449,1.04201 12.52395,4.91504c4.97728,3.19729 5.14849,4.86352 2.00411,19.5154c-2.61196,12.16986 -2.50433,12.99723 1.94343,14.96146c2.10925,0.93188 2.49097,0.85013 4.45519,-0.94924c1.68167,-1.54169 2.63323,-4.20271 4.38782,-12.27072c4.34699,-19.98361 2.63552,-25.52776 -9.97265,-32.30275c-6.44222,-3.4615 -10.20228,-4.64686 -14.92787,-4.70355c-3.60964,-0.0437 -4.74516,0.28701 -6.36999,1.85412z" data-paper-data="{&quot;wickUUID&quot;:&quot;f8a0c4e1-81ac-485c-ac4a-cd95643a892f&quot;,&quot;wickType&quot;:&quot;path&quot;,&quot;originalStyle&quot;:{&quot;strokeColor&quot;:null,&quot;fillColor&quot;:[&quot;Color&quot;,0,0,0],&quot;strokeWidth&quot;:1}}" id="f8a0c4e1-81ac-485c-ac4a-cd95643a892f" fill="#000000"/><path d="M541.26112,23.77063c-1.359,0.709 -4.39,3.019 -6.734,5.134c-2.344,2.115 -5.427,4.888 -6.851,6.163c-1.424,1.275 -3.792,4.451 -5.263,7.057c-2.432,4.31 -2.994,4.79 -6.213,5.304c-6.364,1.018 -9.108,6.042 -6.138,11.238c0.662,1.158 1.217,3.701 1.233,5.653c0.04,4.744 3.579,8.86 8.9,10.349c4.206,1.178 14.958,0.713 19.372,-0.838c7.384,-2.594 7.062,-15.06 -0.491,-18.965l-2.626,-1.358l6.703,-6.982c5.796,-6.037 6.829,-7.572 7.639,-11.35c1.612,-7.518 1.164,-9.583 -2.49,-11.473c-2.989,-1.545 -3.965,-1.536 -7.041,0.068z" data-paper-data="{&quot;wickUUID&quot;:&quot;19af58f6-d16b-4200-8e2b-90202e7f7519&quot;,&quot;wickType&quot;:&quot;path&quot;,&quot;originalStyle&quot;:{&quot;strokeColor&quot;:null,&quot;fillColor&quot;:[&quot;Color&quot;,0,0,0],&quot;strokeWidth&quot;:1}}" id="19af58f6-d16b-4200-8e2b-90202e7f7519" fill="#000000"/><path d="M518.66968,66.62916c-4.422,2.307 -16.663,14.361 -22.688,22.341c-8.913,11.807 -19.813,25.409 -25.555,31.89c-5.66,6.388 -10.454,13.384 -10.982,16.024c-0.388,1.941 -0.027,2.948 1.664,4.639c1.188,1.189 2.704,2.161 3.368,2.161c1.784,0 4.436,-2.441 7.508,-6.909c1.498,-2.179 5.944,-7.817 9.879,-12.529c3.935,-4.711 8.67,-10.548 10.522,-12.97c15.854,-20.736 18.869,-24.275 26.506,-31.111c9.186,-8.222 10.037,-10.008 6.209,-13.02c-2.627,-2.066 -3.348,-2.124 -6.431,-0.516z" data-paper-data="{&quot;wickUUID&quot;:&quot;816a9d04-fa47-4f28-89a7-17547b697b16&quot;,&quot;wickType&quot;:&quot;path&quot;,&quot;originalStyle&quot;:{&quot;strokeColor&quot;:null,&quot;fillColor&quot;:[&quot;Color&quot;,0,0,0],&quot;strokeWidth&quot;:1}}" id="816a9d04-fa47-4f28-89a7-17547b697b16" fill="#000000"/><path d="M448.49686,163.20822c-1.697,0.852 -2.473,2.436 -4.01,8.188c-1.887,7.065 -2.328,10.518 -4.885,38.277c-0.725,7.871 -3.212,26.431 -5.526,41.246c-3.246,20.775 -6.266,46.41 -6.605,56.054c-0.064,1.805 -53.386,13.414 -54.82,11.936c-0.957,-0.987 3.056,-26.622 5.438,-34.741c1.155,-3.935 5.706,-19.465 10.113,-34.511c8.828,-30.14 11.315,-37.867 15.022,-46.685c1.371,-3.259 2.924,-6.976 3.452,-8.261c1.13,-2.749 0.273,-4.6 -2.988,-6.452c-1.894,-1.076 -2.382,-1.051 -4.326,0.223c-4.823,3.16 -8.263,12.6 -23.829,65.383c-10.359,35.131 -10.831,37.111 -13.082,54.957c-2.219,17.579 -1.978,18.715 4.354,20.549c4.321,1.251 6.207,1.017 32.029,-3.977c20.402,-3.946 34.144,-7.759 36.735,-10.192c2.227,-2.093 2.491,-3.557 4.074,-22.616c0.672,-8.102 2.948,-25.526 5.056,-38.721c2.108,-13.194 4.947,-35.164 6.309,-48.821c1.361,-13.658 3.054,-26.915 3.76,-29.461c1.564,-5.635 1.669,-10.446 0.253,-11.579c-1.949,-1.559 -4.407,-1.859 -6.524,-0.796z" data-paper-data="{&quot;wickUUID&quot;:&quot;cc36e0a0-20da-4b8b-b695-60f231da34d1&quot;,&quot;wickType&quot;:&quot;path&quot;,&quot;originalStyle&quot;:{&quot;strokeColor&quot;:null,&quot;fillColor&quot;:[&quot;Color&quot;,0,0,0],&quot;strokeWidth&quot;:1}}" fill="#000000"/><path d="M409.78308,314.88454l-1.969,2.097l1.475,6.11c2.655,10.999 3.194,20.727 3.399,61.245c0.138,27.269 0.503,40.72 1.15,42.299c0.595,1.454 2.382,3.013 4.801,4.188c3.546,1.723 4.035,1.771 6.123,0.604c3.134,-1.75 3.554,-6.081 0.867,-8.941l-1.945,-2.07l-0.139,-38.031c-0.174,-47.949 -1.687,-63.469 -6.598,-67.693c-2.855,-2.456 -4.723,-2.406 -7.164,0.192z" data-paper-data="{&quot;wickUUID&quot;:&quot;e8cbb86c-1edd-4d67-aba8-3c6cfd0e52d6&quot;,&quot;wickType&quot;:&quot;path&quot;,&quot;originalStyle&quot;:{&quot;strokeColor&quot;:null,&quot;fillColor&quot;:[&quot;Color&quot;,0,0,0],&quot;strokeWidth&quot;:1}}" fill="#000000"/><path d="M379.78209,318.48909c-2.542,2.059 -3.676,4.631 -3.677,8.343c-0.002,4.941 -2.004,15.209 -6.207,31.831c-4.989,19.732 -6.902,28.499 -8.955,41.052c-2.658,16.258 -2.138,15.273 -8.322,15.77c-5.617,0.452 -7.659,1.91 -7.659,5.468c0,3.577 1.96,4.886 8.515,5.688c11.771,1.439 14.047,0.43 15.099,-6.699c2.941,-19.921 6.53,-37.526 12.576,-61.699c2.258,-9.028 4.719,-20.202 5.468,-24.832c0.75,-4.63 1.567,-9.404 1.816,-10.61c0.349,-1.695 -0.069,-2.603 -1.844,-3.999c-2.761,-2.171 -4.422,-2.248 -6.81,-0.313z" data-paper-data="{&quot;wickUUID&quot;:&quot;dc107e9b-5d0e-4169-81e6-60fbc99fa70d&quot;,&quot;wickType&quot;:&quot;path&quot;,&quot;originalStyle&quot;:{&quot;strokeColor&quot;:null,&quot;fillColor&quot;:[&quot;Color&quot;,0,0,0],&quot;strokeWidth&quot;:1}}" fill="#000000"/><path d="M389.20134,196.81376c-0.721,1.029 -1.31,2.528 -1.31,3.332c0,0.804 -1.911,5.544 -4.247,10.533c-2.335,4.989 -4.66,10.781 -5.165,12.871c-0.505,2.09 -1.183,4.098 -1.507,4.461c-0.323,0.364 -2.45,-0.666 -4.725,-2.287c-9.264,-6.602 -11.711,-8.053 -13.571,-8.053c-3.272,0 -9.109,3.253 -14.275,7.956l-4.911,4.47l0.084,8.96c0.076,8.156 0.259,9.147 2.041,11.043c1.076,1.145 2.621,2.082 3.434,2.082c1.267,0 1.366,0.391 0.695,2.73c-0.43,1.502 -0.783,5.206 -0.783,8.231c0,6.867 1.411,9.241 5.493,9.241c2.488,0 3.309,-0.591 6.143,-4.419c4.033,-5.447 10.594,-11.574 12.394,-11.574c1.614,0 7.617,-4.054 10.341,-6.983c1.166,-1.254 2.148,-3.596 2.42,-5.771c0.263,-2.107 1.651,-5.489 3.27,-7.969c1.546,-2.37 3.192,-6.004 3.656,-8.076c0.464,-2.071 2.934,-8.276 5.488,-13.788c4.863,-10.493 5.532,-13.884 3.357,-16.99c-1.805,-2.578 -6.517,-2.578 -8.322,0z" data-paper-data="{&quot;wickUUID&quot;:&quot;e40e8560-bf2c-41d4-b34e-d0b174f95617&quot;,&quot;wickType&quot;:&quot;path&quot;,&quot;originalStyle&quot;:{&quot;strokeColor&quot;:null,&quot;fillColor&quot;:[&quot;Color&quot;,0,0,0],&quot;strokeWidth&quot;:1}}" fill="#000000"/></g><g fill="none" fill-rule="nonzero" stroke="none" stroke-width="1" stroke-linecap="butt" stroke-linejoin="miter" stroke-miterlimit="10" stroke-dasharray="" stroke-dashoffset="0" font-family="sans-serif" font-weight="normal" font-size="12" text-anchor="start" style="mix-blend-mode: normal"/><g id="wick_project_gui" fill="none" fill-rule="nonzero" stroke="none" stroke-width="1" stroke-linecap="butt" stroke-linejoin="miter" stroke-miterlimit="10" stroke-dasharray="" stroke-dashoffset="0" font-family="sans-serif" font-weight="normal" font-size="12" text-anchor="start" style="mix-blend-mode: normal"/></g></svg>