<svg version="1.1" xmlns="http://www.w3.org/2000/svg" xmlns:xlink="http://www.w3.org/1999/xlink" width="1260" height="594" viewBox="0,0,1260,594"><g transform="translate(230.20498,30.46998) scale(1.11054,1.11054)"><g id="wick_project_bg" fill="#cccccc" fill-rule="nonzero" stroke="none" stroke-width="1" stroke-linecap="butt" stroke-linejoin="miter" stroke-miterlimit="10" stroke-dasharray="" stroke-dashoffset="0" font-family="none" font-weight="none" font-size="none" text-anchor="none" style="mix-blend-mode: normal"><rect x="0" y="0" width="720" height="480"/></g><g data-paper-data="{&quot;wickUUID&quot;:&quot;e5596f80-b9f6-4e7b-9148-17993abe8eab&quot;,&quot;wickType&quot;:&quot;clipsandpaths&quot;}" fill="none" fill-rule="evenodd" stroke="none" stroke-width="1" stroke-linecap="butt" stroke-linejoin="miter" stroke-miterlimit="10" stroke-dasharray="" stroke-dashoffset="0" font-family="none" font-weight="none" font-size="none" text-anchor="none" style="mix-blend-mode: normal"><path d="M354.4974,84.72669c-8.198,1.33167 -14.66925,3.07484 -18.41925,4.96317c-1.25633,0.633 -4.46186,1.95548 -6.99486,2.89015c-5.168,1.907 -15.30572,6.77682 -17.47472,8.38749c-0.90167,0.66967 -3.10128,3.34202 -5.64661,6.95969l-4.106,5.85594l0.11283,2.80374c1.039,12.84467 2.06367,21.55711 2.90367,24.76778c1.41733,5.41867 5.38533,16.58184 7.57233,21.29351c1.522,3.279 4.30108,7.71065 6.27008,9.97732l2.50683,1.41136l0.04757,-2.94665c-0.14367,-2.369 -0.17566,-2.30308 0.84234,-3.82175c0.58867,-0.87867 1.1878,-1.58951 1.81113,-2.06484c1.07933,-0.823 0.83395,-0.77152 3.76428,-0.60385c3.32067,0.18967 7.45103,0.96792 9.87003,1.85625c1.27733,0.469 3.04406,0.56035 10.98506,0.56035l9.318,-0.00606l0.63417,0.67151c2.27867,2.222 2.61972,4.28324 0.76605,6.84257c-1.21867,1.68233 -3.09219,2.46796 -6.70752,3.09329c-3.939,0.68133 -23.74913,1.38029 -25.0378,0.88429c-0.52933,-0.20367 -1.82318,0.80436 -1.90985,0.89136c-0.087,0.08667 1.05629,1.60343 2.13129,2.82043c3.15633,3.57367 7.23255,5.88263 11.22255,6.39196c1.56167,0.19933 2.49209,0.08975 5.46909,-1.29192c6.296,-2.92233 9.0355,-3.74873 19.50383,-5.8704c9.94333,-2.015 10.06396,-2.02845 16.63629,-2.17612c3.66667,-0.08233 7.44584,-0.00632 8.40384,0.16835c1.73433,0.31667 2.10532,0.20331 3.70365,-1.16069c0.88267,-0.75333 2.77071,-2.22842 4.04704,-3.17475c1.276,-0.94633 2.84944,-2.41374 3.23777,-2.93941c1.81633,-2.46067 4.14916,-8.38483 5.26049,-13.3485c0.68967,-3.07933 0.79211,-4.49557 0.76944,-11.35124c-0.02767,-8.34767 -0.40581,-11.66767 -2.18081,-19.62567c-2.228,-9.98833 -3.57974,-13.0269 -10.19641,-22.9639c-4.776,-7.17233 -7.04341,-9.3553 -12.59774,-12.14563c-5.53833,-2.782 -16.12697,-6.56422 -21.55897,-7.68622c-2.50967,-0.51833 -3.38878,-0.56824 -4.95911,-0.31291z" data-paper-data="{&quot;wickUUID&quot;:&quot;9ae17b0f-1d21-4cd4-88e4-e07f60022589&quot;,&quot;wickType&quot;:&quot;path&quot;,&quot;originalStyle&quot;:{&quot;strokeColor&quot;:null,&quot;fillColor&quot;:[&quot;Color&quot;,1,1,1],&quot;strokeWidth&quot;:1}}" fill="#ffffff"/><path d="M379.65348,188.34977c-0.45833,0.08367 -2.47808,0.40103 -4.31141,0.68703c-4.91333,0.76633 -13.29019,2.41243 -17.09519,3.35376c-5.15867,1.276 -11.95949,4.13065 -18.29182,7.68465l-3.56794,2.04016l-0.22149,2.3322c0,13.763 6.32353,45.56257 13.83353,69.56524c2.42333,7.746 3.67408,12.31813 5.66708,20.70446c1.04567,4.4 1.98754,8.27584 2.06154,8.51384c0.09,0.28967 1.33199,0.92416 2.06032,0.80516c0.59833,-0.098 4.07438,-0.41601 7.64938,-0.70034c17.26333,-1.37267 30.97339,-3.15384 37.46639,-4.86717l1.96888,-0.87299l-0.16805,-2.81137c-1.45633,-15.857 -5.88406,-49.84806 -8.07573,-61.99973l-1.24146,-3.66554l-3.24013,2.66253c-1.39967,1.352 -3.56472,3.18541 -4.77805,4.04341c-1.93167,1.366 -2.21649,1.71751 -2.60182,3.10551c-0.95367,3.43633 -5.64973,7.05202 -10.6404,8.10969c-4.41633,0.93633 -7.65622,0.50659 -11.72222,-1.37708l-1.8496,-0.82272l-1.4743,1.05439c-0.41233,0.387 -0.95324,1.28267 -1.16991,1.94334c-0.55633,1.694 -1.55581,3.2539 -2.84481,4.33857c-1.005,0.84567 -0.50905,0.7298 -2.27472,0.5698c-2.27167,-0.206 -2.78482,-0.53256 -4.48715,-2.60989l-0.91338,-1.00063l0.53782,-1.39198c1.10433,-3.51767 3.08496,-7.71925 4.19163,-8.87592c0.60433,-0.632 1.77309,-1.53896 2.78142,-2.23396c1.00833,-0.69533 3.31475,-2.88869 5.26575,-4.98036c4.892,-5.24567 7.95346,-6.82598 13.37713,-6.82598c3.05133,0 4.40145,0.55018 6.32678,2.12785l1.81656,1.21606l2.61907,-1.81445c2.39633,-1.764 4.0123,-4.27932 4.58597,-6.84232c0.53,-2.369 -0.15383,-5.31753 -2.43416,-10.09153c-1.97833,-4.14133 -3.77682,-6.65629 -7.13849,-9.91729c-2.27833,-2.21033 -2.44804,-2.10537 -2.64404,-3.45337c-0.382,-2.629 0.79463,-4.82238 3.20163,-5.61671c1.99133,-0.65733 3.86502,0.13699 6.52535,2.29166c1.60933,1.30367 2.66468,0.03473 1.64968,-1.77094c-0.435,-0.774 -1.70125,-1.89506 -2.29592,-2.10239c-1.09867,-0.383 -6.81005,-0.74098 -8.10372,-0.50465z" data-paper-data="{&quot;wickUUID&quot;:&quot;0e962c69-f3da-4426-9684-e40b194fcbd5&quot;,&quot;wickType&quot;:&quot;path&quot;,&quot;originalStyle&quot;:{&quot;strokeColor&quot;:null,&quot;fillColor&quot;:[&quot;Color&quot;,0.50196,0,1],&quot;strokeWidth&quot;:1}}" fill="#8000ff"/><path d="M415.3189,145.99708c0,12.951 -0.09942,13.93356 -2.29675,20.43223c-2.51833,7.44667 -3.91238,9.93155 -7.65838,13.83688l-2.23743,2.71959l2.96617,2.22302c6.51733,4.03233 9.18112,4.96189 14.07312,4.96189c2.67033,0 4.33882,-0.21617 7.88715,-1.18317c2.36867,-0.64533 5.18832,-1.79184 5.64665,-2.12584c1.50033,-1.09367 2.26433,-4.06937 2.25533,-9.14337c-0.00733,-4.06967 -0.15837,-5.18749 -1.1267,-8.50349c-1.072,-3.67067 -7.92417,-19.53837 -10.47684,-24.26104c-1.494,-2.764 -4.71219,-7.57152 -6.39752,-9.54585l-2.6322,-0.88074z" data-paper-data="{&quot;wickUUID&quot;:&quot;4eddd48d-07c0-41c9-8f5f-226fd911350f&quot;,&quot;wickType&quot;:&quot;path&quot;,&quot;originalStyle&quot;:{&quot;strokeColor&quot;:null,&quot;fillColor&quot;:[&quot;Color&quot;,1,0.50196,0],&quot;strokeWidth&quot;:1}}" fill="#ff8000"/><path d="M383.92742,53.61368c-4.935,1.79967 -7.13956,4.65032 -9.50989,12.51132c-1.44967,4.808 -1.71381,6.34221 -1.44181,9.60721l0.45582,3.39424l3.77491,1.44539c6.91667,2.48767 14.82229,6.97118 17.73496,10.09618c3.17833,3.41033 10.88564,15.01135 13.37664,20.10902c0.809,1.65533 2.0258,3.35222 2.16747,3.35555c0.14167,0.00333 2.05045,-0.69602 3.46712,-1.51002c1.41667,-0.814 4.07477,-1.99991 5.9081,-2.63558c6.01567,-2.08633 9.89094,-3.94668 11.75294,-5.64268l1.19719,-1.40882l-0.77049,-2.26086c-1.15333,-3.15567 -6.07016,-13.07863 -8.10383,-16.3573c-1.05667,-1.70333 -3.34526,-4.80316 -5.00493,-6.76649c-1.65967,-1.96333 -4.56886,-5.62172 -6.44286,-8.10239c-1.87433,-2.481 -4.41198,-5.39274 -5.49165,-6.32474c-2.83167,-2.44467 -10.40927,-7.48413 -13.32694,-8.87246c-3.127,-1.488 -6.93475,-1.66124 -9.74275,-0.63757z" data-paper-data="{&quot;wickUUID&quot;:&quot;87dd8608-371e-4f4c-a771-ede9e8d48247&quot;,&quot;wickType&quot;:&quot;path&quot;,&quot;originalStyle&quot;:{&quot;strokeColor&quot;:null,&quot;fillColor&quot;:[&quot;Color&quot;,1,0.50196,0],&quot;strokeWidth&quot;:1}}" fill="#ff8000"/><path d="M332.57747,48.63436c-4.65367,0.55233 -6.69155,1.01178 -9.53722,2.13411c-3.38467,1.33533 -6.5386,3.23657 -7.7296,4.6309c-0.59733,0.69967 -2.70935,4.34724 -4.52535,7.87757l-3.38733,6.65222l0.19521,8.56841c0.11733,4.601 0.31176,9.16552 0.43109,10.12252l0.49705,2.32539l1.89,-0.54436c1.50333,-1.07067 7.41932,-3.77011 12.99465,-5.93011c2.805,-1.08633 6.6262,-2.6292 8.5512,-3.45153c4.40367,-1.88167 6.32548,-2.53546 11.89881,-3.99746c6.94733,-1.82267 13.03135,-2.23674 17.56068,-1.20441l1.90249,-0.14982l0.30458,-2.95514c0.48,-5.91533 3.92277,-16.85626 6.3121,-20.04159c0.46467,-0.61933 -0.35591,-1.67594 -3.10424,-2.40227c-4.70667,-1.24367 -10.5386,-1.79015 -20.79093,-1.94748c-6.76667,-0.10367 -10.73286,-0.01128 -13.46319,0.31305z" data-paper-data="{&quot;wickUUID&quot;:&quot;3e2c0e90-7c65-4644-b896-3b95b588556c&quot;,&quot;wickType&quot;:&quot;path&quot;,&quot;originalStyle&quot;:{&quot;strokeColor&quot;:null,&quot;fillColor&quot;:[&quot;Color&quot;,1,0.50196,0],&quot;strokeWidth&quot;:1}}" fill="#ff8000"/><path d="M368.32796,225.66732c-2.125,1.013 -4.699,2.941 -5.721,4.285c-2.656,3.495 -4.542,5.294 -7.518,7.171c-2.036,1.284 -3.027,2.787 -4.505,6.833l-1.895,5.188l1.53,2.058c1.066,1.434 2.35,2.129 4.233,2.29c2.259,0.194 2.967,-0.139 4.31,-2.024c0.884,-1.241 1.607,-2.567 1.607,-2.947c0,-0.379 0.429,-1.277 0.953,-1.994c0.895,-1.223 1.143,-1.209 3.975,0.236c7.915,4.034 20.716,-0.629 22.109,-8.055c0.603,-3.218 -1.821,-9.174 -4.957,-12.179c-3.173,-3.04 -8.83,-3.385 -14.121,-0.862z" data-paper-data="{&quot;wickUUID&quot;:&quot;693d24ce-48bd-406f-b245-60bcc8178ac8&quot;,&quot;wickType&quot;:&quot;path&quot;,&quot;originalStyle&quot;:{&quot;strokeColor&quot;:null,&quot;fillColor&quot;:[&quot;Color&quot;,0,0,0],&quot;strokeWidth&quot;:1}}" fill="#000000"/><path d="M379.43596,191.09969c-0.907,0.907 -1.525,2.543 -1.525,4.034c0,2.04 0.642,3.045 3.443,5.386c3.354,2.803 6.303,7.577 8.463,13.7c1.352,3.831 0.395,7.811 -2.551,10.609c-1.16,1.102 -4.684,3.438 -7.83,5.191c-6.467,3.602 -7.627,4.761 -7.627,7.618c0,2.372 2.851,5.326 5.139,5.326c3.048,0 13.449,-6.303 18.215,-11.038c3.943,-3.918 4.801,-5.262 5.529,-8.659c1.396,-6.507 1.038,-9.22 -2.165,-16.416c-6.183,-13.89 -14.275,-20.566 -19.091,-15.751z" data-paper-data="{&quot;wickUUID&quot;:&quot;72ad60df-9521-48c1-b9ba-3618bc1d5d48&quot;,&quot;wickType&quot;:&quot;path&quot;,&quot;originalStyle&quot;:{&quot;strokeColor&quot;:null,&quot;fillColor&quot;:[&quot;Color&quot;,0,0,0],&quot;strokeWidth&quot;:1}}" fill="#000000"/><path d="M371.4278,179.26612c-2.517,0.598 -7.837,1.632 -11.822,2.298c-5.97,0.998 -9.322,2.183 -19.039,6.733c-15.618,7.312 -15.1,6.458 -13.89,22.937c0.519,7.067 1.884,17.138 3.214,23.722c3.008,14.881 8.796,37.665 11.045,43.474c0.974,2.517 2.971,9.724 4.437,16.017c2.632,11.3 2.647,11.459 1.203,13.015c-2.871,3.093 -1.421,6.614 3.613,8.772c4.339,1.859 6.737,1.867 8.577,0.027c1.91,-1.91 3.012,-2.104 22.196,-3.915c9.019,-0.852 18.457,-2.033 20.974,-2.626c2.517,-0.593 6.09,-1.308 7.94,-1.59c1.984,-0.302 4.097,-1.244 5.149,-2.296c1.585,-1.585 1.783,-2.491 1.778,-8.111c-0.011,-11.748 -5.921,-58.202 -9.227,-72.518c-1.238,-5.363 -2.589,-13.429 -3.002,-17.924c-0.695,-7.568 -2.006,-12.977 -5.193,-21.426c-1.025,-2.719 -1.961,-3.704 -5.052,-5.319c-3.193,-1.667 -4.945,-2.01 -11.06,-2.169c-4.311,-0.111 -9.126,0.254 -11.841,0.899zM386.8668,189.26812c2.058,0.412 2.478,1.032 4.258,6.293c1.19,3.515 2.284,9.103 2.753,14.052c0.427,4.518 1.804,12.584 3.059,17.923c1.999,8.501 7.272,46.886 8.826,64.252l0.514,5.731l-5.984,1.321c-5.305,1.172 -18.867,2.716 -36.131,4.113l-5.741,0.464l-2.17,-9.443c-1.194,-5.193 -3.179,-12.532 -4.411,-16.307c-6.618,-20.28 -13.154,-49.352 -14.417,-64.127c-0.445,-5.212 -0.699,-9.997 -0.563,-10.633c0.245,-1.151 12.741,-7.308 18.551,-9.14c4.633,-1.461 22.466,-4.809 26.027,-4.887c1.731,-0.037 4.174,0.137 5.429,0.388z" data-paper-data="{&quot;wickUUID&quot;:&quot;cdf5c652-86f4-410c-a0a6-19d9c70b965b&quot;,&quot;wickType&quot;:&quot;path&quot;,&quot;originalStyle&quot;:{&quot;strokeColor&quot;:null,&quot;fillColor&quot;:[&quot;Color&quot;,0,0,0],&quot;strokeWidth&quot;:1}}" fill="#000000"/><path d="M361.07302,308.23557c-1.791,1.906 -1.864,2.45 -2.347,17.352c-0.506,15.601 -0.864,19.175 -3.659,36.537c-0.975,6.059 -1.563,13.302 -1.563,19.258v9.546h5.339h5.339v-8.665c0,-4.963 0.661,-12.864 1.546,-18.495c2.758,-17.53 3.666,-27.118 3.886,-41.008c0.212,-13.452 0.191,-13.655 -1.549,-15.064c-2.433,-1.97 -4.805,-1.787 -6.992,0.539z" data-paper-data="{&quot;wickUUID&quot;:&quot;b2eaff14-b9cd-4d12-a165-569cdd90874d&quot;,&quot;wickType&quot;:&quot;path&quot;,&quot;originalStyle&quot;:{&quot;strokeColor&quot;:null,&quot;fillColor&quot;:[&quot;Color&quot;,0,0,0],&quot;strokeWidth&quot;:1}}" fill="#000000"/><path d="M355.05532,385.18078c-1.689,1.798 -1.737,2.169 -1.102,8.581c0.364,3.685 0.67,9.939 0.679,13.896l0.016,7.195l-2.445,0.636c-2.558,0.665 -4.801,3.118 -4.801,5.252c0,0.689 0.741,2.196 1.647,3.347c1.51,1.919 1.99,2.066 5.752,1.754c4.601,-0.382 7.63,-2.199 9.361,-5.617c1.581,-3.124 1.899,-13.568 0.74,-24.315c-0.833,-7.718 -1.254,-9.397 -2.725,-10.868c-2.26,-2.261 -4.916,-2.209 -7.122,0.139z" data-paper-data="{&quot;wickUUID&quot;:&quot;788805a1-ba53-4877-adb5-0b5ba44e92ba&quot;,&quot;wickType&quot;:&quot;path&quot;,&quot;originalStyle&quot;:{&quot;strokeColor&quot;:null,&quot;fillColor&quot;:[&quot;Color&quot;,0,0,0],&quot;strokeWidth&quot;:1}}" fill="#000000"/><path d="M390.87714,304.74304c-1.887,1.887 -1.991,6.771 -0.283,13.347c0.654,2.517 1.621,6.979 2.149,9.916c0.528,2.936 1.325,6.711 1.77,8.389c0.445,1.678 1.2,7.027 1.679,11.886c0.478,4.859 1.372,11.552 1.987,14.873c0.615,3.321 1.459,14.961 1.875,25.868c0.416,10.907 1.089,23.434 1.495,27.839c0.662,7.178 0.942,8.186 2.703,9.724c2.864,2.503 8.87,2.421 11.447,-0.156c1.03,-1.029 1.872,-2.528 1.872,-3.329c0,-1.784 -2.795,-5.477 -4.146,-5.477c-1.133,0 -1.64,-6.106 -2.721,-32.796c-0.411,-10.157 -1.298,-20.74 -2.173,-25.932c-0.813,-4.824 -1.709,-11.688 -1.992,-15.254c-0.282,-3.566 -0.845,-7.554 -1.25,-8.864c-0.405,-1.309 -1.209,-5.084 -1.785,-8.389c-0.576,-3.305 -1.582,-8.069 -2.234,-10.586c-0.653,-2.517 -1.199,-5.627 -1.214,-6.911c-0.057,-4.891 -5.829,-7.499 -9.179,-4.148z" data-paper-data="{&quot;wickUUID&quot;:&quot;d102c32d-15d7-401b-93a4-8d7106b734b9&quot;,&quot;wickType&quot;:&quot;path&quot;,&quot;originalStyle&quot;:{&quot;strokeColor&quot;:null,&quot;fillColor&quot;:[&quot;Color&quot;,0,0,0],&quot;strokeWidth&quot;:1}}" fill="#000000"/><path d="M330.08859,225.04242c-1.999,1.401 -3.004,4.487 -3.662,11.247c-0.478,4.913 -0.582,5.127 -2.276,4.702c-2.412,-0.605 -4.7,0.762 -6.21,3.711c-0.692,1.351 -2.775,4.46 -4.628,6.909c-4.107,5.424 -4.981,7.579 -4.378,10.793c1.026,5.467 11.399,14.088 16.98,14.111c2.995,0.013 5.846,-3.639 6.844,-8.763c1.413,-7.258 3.024,-18.204 4.362,-29.639l1.238,-10.571l-1.713,-1.823c-1.965,-2.092 -4.206,-2.324 -6.557,-0.677z" data-paper-data="{&quot;wickUUID&quot;:&quot;311c072c-f4c4-493f-82ba-1dba457e4fb5&quot;,&quot;wickType&quot;:&quot;path&quot;,&quot;originalStyle&quot;:{&quot;strokeColor&quot;:null,&quot;fillColor&quot;:[&quot;Color&quot;,0,0,0],&quot;strokeWidth&quot;:1}}" fill="#000000"/><path d="M322.69416,165.40049c-3.957,3.958 -2.941,8.826 2.631,12.603c2.404,1.63 3.182,1.745 9.111,1.346c3.566,-0.241 8.469,-0.419 10.896,-0.396c6.889,0.063 12.463,-1.361 14.258,-3.643c2.071,-2.632 1.959,-5.671 -0.288,-7.781c-1.751,-1.645 -2.2,-1.697 -10.487,-1.209c-6.846,0.403 -9.217,0.272 -11.328,-0.627c-1.468,-0.625 -4.964,-1.38 -7.769,-1.677c-4.79,-0.508 -5.215,-0.425 -7.024,1.384z" data-paper-data="{&quot;wickUUID&quot;:&quot;73d38723-260e-4238-9184-d47525dbfe74&quot;,&quot;wickType&quot;:&quot;path&quot;,&quot;originalStyle&quot;:{&quot;strokeColor&quot;:null,&quot;fillColor&quot;:[&quot;Color&quot;,0,0,0],&quot;strokeWidth&quot;:1}}" fill="#000000"/><path d="M343.60208,76.30523c-3.978,1.052 -8.955,2.731 -11.059,3.732c-2.105,1.001 -6.401,2.76 -9.547,3.91c-13.487,4.928 -19.147,9.007 -25.39,18.298c-1.127,1.678 -2.602,3.81 -3.276,4.738c-2.051,2.819 -2.478,6.682 -1.777,16.052c1.072,14.329 2.1,20.102 5.247,29.468c5.196,15.467 9.014,22.535 16.211,30.009c12.513,12.993 12.382,12.883 17.431,14.588c6.53,2.206 10.184,2.134 12.563,-0.245c3.442,-3.442 1.413,-8.806 -3.331,-8.806c-4.67,0 -9.143,-2.281 -12.472,-6.359c-1.768,-2.165 -5.21,-5.874 -7.648,-8.241c-4.874,-4.73 -7.756,-10.21 -12.427,-23.631c-3.052,-8.768 -3.934,-13.501 -4.929,-26.457l-0.72,-9.392l3.377,-4.718c1.858,-2.595 3.916,-5.491 4.575,-6.435c1.357,-1.945 12.875,-7.719 19.93,-9.989c2.581,-0.831 5.535,-2.063 6.564,-2.737c3.132,-2.052 16.535,-5.162 20.394,-4.733c5.541,0.617 19.794,5.638 25.325,8.922c4.533,2.69 5.707,3.923 10.33,10.84c7.029,10.518 8.152,13.102 10.514,24.202c2.731,12.832 2.756,25.381 0.065,33.292c-2.602,7.649 -3.744,9.521 -7.38,12.089c-7.856,5.548 -9.113,8.073 -5.711,11.475c3.166,3.167 6.461,2.175 14.183,-4.271c4.084,-3.409 6.741,-7.993 9.461,-16.326c1.753,-5.372 1.989,-7.395 2.085,-17.916c0.1,-10.845 -0.097,-12.742 -2.3,-22.157c-1.408,-6.022 -3.391,-12.196 -4.775,-14.873c-3.625,-7.009 -11.781,-18.978 -14.646,-21.494c-4.296,-3.771 -11.982,-7.623 -21.946,-10.998c-12.368,-4.189 -18.542,-4.581 -28.921,-1.837z" data-paper-data="{&quot;wickUUID&quot;:&quot;1f508b1c-3c0f-4ce6-b458-7e1bba15becd&quot;,&quot;wickType&quot;:&quot;path&quot;,&quot;originalStyle&quot;:{&quot;strokeColor&quot;:null,&quot;fillColor&quot;:[&quot;Color&quot;,0,0,0],&quot;strokeWidth&quot;:1}}" fill="#000000"/><path d="M328.96001,38.58839c-11.9,1.669 -19.759,6.537 -24.715,15.31c-5.652,10.004 -6.644,13.956 -6.531,26.02c0.107,11.474 0.803,15.945 2.832,18.186c1.746,1.93 5.267,1.874 7.255,-0.114c1.441,-1.44 1.535,-2.118 1.035,-7.436c-0.303,-3.218 -0.586,-9.167 -0.628,-13.22l-0.078,-7.368l3.81,-7.504c3.769,-7.423 3.865,-7.532 8.768,-9.997c4.098,-2.059 6.395,-2.632 13.252,-3.307c8.922,-0.878 28.058,0.056 32.022,1.563c3.471,1.32 6.378,0.983 7.691,-0.891c2.978,-4.253 0.106,-8.535 -6.832,-10.186c-5.651,-1.344 -30.82,-2.045 -37.881,-1.056z" data-paper-data="{&quot;wickUUID&quot;:&quot;6c26dc9c-fcfe-4b6f-a0b9-870b3e2c18b4&quot;,&quot;wickType&quot;:&quot;path&quot;,&quot;originalStyle&quot;:{&quot;strokeColor&quot;:null,&quot;fillColor&quot;:[&quot;Color&quot;,0,0,0],&quot;strokeWidth&quot;:1}}" fill="#000000"/><path d="M379.99265,44.17062c-8.892,3.753 -12.142,8.039 -15.572,20.532c-2.2,8.013 -2.072,14.001 0.369,17.286c1.943,2.615 5.606,2.983 7.804,0.785c1.445,-1.444 1.577,-2.16 1.122,-6.078c-0.418,-3.608 -0.147,-5.647 1.445,-10.866c2.253,-7.387 4.067,-9.703 9.111,-11.629c4.813,-1.838 7.659,-0.954 16.684,5.185c5.394,3.67 7.726,5.849 10.445,9.764c1.926,2.772 5.339,7.044 7.586,9.493c2.815,3.069 5.48,7.308 8.577,13.646c2.472,5.056 4.495,9.791 4.496,10.521c0.003,1.35 -7.064,5.034 -12.872,6.71c-4.557,1.314 -12.593,6.352 -13.66,8.564c-0.825,1.71 -0.796,2.405 0.178,4.287c1.791,3.465 4.857,3.767 9.762,0.963c2.206,-1.261 6.241,-3.139 8.968,-4.175c9.901,-3.759 14.153,-5.765 16.289,-7.684c2.101,-1.888 2.169,-2.168 1.891,-7.882c-0.267,-5.503 -0.653,-6.667 -5.427,-16.391c-3.854,-7.848 -6.245,-11.665 -9.556,-15.254c-2.429,-2.633 -6.063,-7.126 -8.075,-9.984c-3.944,-5.603 -10.943,-11.315 -19.894,-16.235c-6.883,-3.783 -13.211,-4.284 -19.671,-1.558z" data-paper-data="{&quot;wickUUID&quot;:&quot;a6afe25e-9c99-49ea-8346-27ac7387a211&quot;,&quot;wickType&quot;:&quot;path&quot;,&quot;originalStyle&quot;:{&quot;strokeColor&quot;:null,&quot;fillColor&quot;:[&quot;Color&quot;,0,0,0],&quot;strokeWidth&quot;:1}}" fill="#000000"/><path d="M405.71514,117.4643c-3.494,3.494 -1.975,6.79 5.503,11.943c4.377,3.016 11.743,13.039 14.573,19.829c1.291,3.099 3.777,8.724 5.524,12.5c3.825,8.267 5.008,14.891 3.701,20.728c-0.864,3.864 -1.029,4.056 -4.404,5.127c-10.057,3.192 -15.102,2.761 -22.51,-1.923c-8.347,-5.279 -9.254,-5.648 -11.43,-4.656c-2.802,1.276 -3.969,4.085 -2.83,6.812c1.112,2.661 10.692,9.03 16.705,11.106c7.725,2.666 19.039,1.588 28.221,-2.69c3.705,-1.725 4.83,-3.501 6.661,-10.513c1.684,-6.451 1.019,-15.998 -1.537,-22.035c-8.997,-21.258 -12.209,-27.49 -17.779,-34.5c-4.827,-6.074 -14.162,-13.6 -16.869,-13.6c-0.911,0 -2.5,0.842 -3.529,1.872z" data-paper-data="{&quot;wickUUID&quot;:&quot;d444f9ff-9792-43fa-b51f-0fd0ea32abea&quot;,&quot;wickType&quot;:&quot;path&quot;,&quot;originalStyle&quot;:{&quot;strokeColor&quot;:null,&quot;fillColor&quot;:[&quot;Color&quot;,0,0,0],&quot;strokeWidth&quot;:1}}" fill="#000000"/><path d="M380.58029,95.83486c-1.259,0.828 -7.741,4.598 -14.406,8.379l-12.118,6.875l-5.646,-0.856c-3.104,-0.471 -11.668,-2.375 -19.03,-4.231c-7.362,-1.857 -14.188,-3.376 -15.169,-3.376c-1.985,0 -4.944,3.232 -4.944,5.4c0,0.759 0.772,2.23 1.716,3.27c1.401,1.544 4.322,2.525 15.915,5.345c7.809,1.899 17.548,3.993 21.642,4.652c8.565,1.378 6.73,1.947 21.166,-6.573c4.722,-2.787 10.429,-5.988 12.681,-7.114c5.307,-2.653 7.727,-5.284 7.727,-8.405c0,-4.698 -4.884,-6.422 -9.534,-3.366z" data-paper-data="{&quot;wickUUID&quot;:&quot;98b44beb-7b40-47c1-9454-68cfd86e2e27&quot;,&quot;wickType&quot;:&quot;path&quot;,&quot;originalStyle&quot;:{&quot;strokeColor&quot;:null,&quot;fillColor&quot;:[&quot;Color&quot;,0,0,0],&quot;strokeWidth&quot;:1}}" fill="#000000"/><path d="M343.01403,127.22347c-1.296,1.388 -1.705,3.119 -2.137,9.055c-0.502,6.903 -0.435,7.438 1.134,9.007c1.154,1.154 2.395,1.595 4.026,1.432c3.655,-0.365 5.034,-2.976 5.629,-10.658c0.496,-6.408 0.452,-6.668 -1.46,-8.58c-2.427,-2.427 -5.075,-2.521 -7.192,-0.256z" data-paper-data="{&quot;wickUUID&quot;:&quot;97e52cf5-f0aa-4877-b654-626198f4c627&quot;,&quot;wickType&quot;:&quot;path&quot;,&quot;originalStyle&quot;:{&quot;strokeColor&quot;:null,&quot;fillColor&quot;:[&quot;Color&quot;,0,0,0],&quot;strokeWidth&quot;:1}}" fill="#000000"/><path d="M371.1792,119.64542c-1.963,2.09 -2.051,4.189 -0.514,12.221c0.629,3.288 1.144,7.125 1.144,8.526c0,1.843 0.555,2.983 2.01,4.127c2.639,2.076 4.509,1.996 6.796,-0.291c2.344,-2.344 2.422,-5.563 0.388,-16.047c-1.116,-5.752 -1.885,-7.951 -3.133,-8.962c-2.266,-1.835 -4.713,-1.679 -6.691,0.426z" data-paper-data="{&quot;wickUUID&quot;:&quot;cec814c5-8355-48e3-8046-8fc58a3f7d10&quot;,&quot;wickType&quot;:&quot;path&quot;,&quot;originalStyle&quot;:{&quot;strokeColor&quot;:null,&quot;fillColor&quot;:[&quot;Color&quot;,0,0,0],&quot;strokeWidth&quot;:1}}" fill="#000000"/></g><g fill="none" fill-rule="nonzero" stroke="none" stroke-width="1" stroke-linecap="butt" stroke-linejoin="miter" stroke-miterlimit="10" stroke-dasharray="" stroke-dashoffset="0" font-family="sans-serif" font-weight="normal" font-size="12" text-anchor="start" style="mix-blend-mode: normal"/><g id="wick_project_gui" fill="none" fill-rule="nonzero" stroke="none" stroke-width="1" stroke-linecap="butt" stroke-linejoin="miter" stroke-miterlimit="10" stroke-dasharray="" stroke-dashoffset="0" font-family="sans-serif" font-weight="normal" font-size="12" text-anchor="start" style="mix-blend-mode: normal"/></g></svg>