<svg version="1.1" xmlns="http://www.w3.org/2000/svg" xmlns:xlink="http://www.w3.org/1999/xlink" width="1107" height="504" viewBox="0,0,1107,504"><g transform="translate(190.62,10.08) scale(1.008,1.008)"><g id="wick_project_bg" fill="#ffffff" fill-rule="nonzero" stroke="none" stroke-width="1" stroke-linecap="butt" stroke-linejoin="miter" stroke-miterlimit="10" stroke-dasharray="" stroke-dashoffset="0" font-family="none" font-weight="none" font-size="none" text-anchor="none" style="mix-blend-mode: normal"><rect x="0" y="0" width="720" height="480"/></g><g data-paper-data="{&quot;wickUUID&quot;:&quot;945d793d-b518-40ee-8ace-0108c4128ff2&quot;,&quot;wickType&quot;:&quot;clipsandpaths&quot;}" fill="none" fill-rule="evenodd" stroke="none" stroke-width="1" stroke-linecap="butt" stroke-linejoin="miter" stroke-miterlimit="10" stroke-dasharray="" stroke-dashoffset="0" font-family="none" font-weight="none" font-size="none" text-anchor="none" style="mix-blend-mode: normal"><path d="M357.78168,178.39498l-2.22392,1.72419l-0.04705,3.20603l1.3216,3.5663l2.33748,-4.46267c1.107,-2.25467 2.03645,-4.55457 1.96878,-4.6169c-0.06767,-0.06233 -2.30256,-0.16628 -3.35689,0.58305z" data-paper-data="{&quot;wickUUID&quot;:&quot;500f8769-0269-47e8-8923-ebe09e4b9027&quot;,&quot;wickType&quot;:&quot;path&quot;}" fill="#11021d"/><path d="M399.24947,371.85481c-7.01133,1.095 -13.40538,1.66247 -20.98271,1.86147c-4.125,0.10867 -7.86732,0.31059 -8.21532,0.43626c-0.557,0.20133 -0.7393,1.90406 0.26503,2.52473c2.01733,1.24667 7.03753,3.60403 13.1932,6.1957c5.01667,2.112 6.54408,2.60403 8.63441,2.78403c1.375,0.11833 5.37649,0.66579 8.76816,1.19612c13.27567,2.07533 31.38267,3.85776 52.19,5.13743c14.938,0.91867 19.3824,0.99992 20.5724,0.38459c0.92567,-0.47867 1.83967,-1.4965 1.83967,-2.71517c0,-0.76233 -0.46542,-2.5856 -0.84909,-3.37793c-0.599,-1.23767 -1.5631,-1.94618 -3.61277,-2.91718c-6.83833,-3.24067 -24.6761,-6.16398 -53.96877,-8.84465c-5.80133,-0.53067 -10.87056,-1.14194 -11.30256,-1.36461c-0.432,-0.22267 -0.8042,-0.57774 -1.26253,-0.98574l-1.32595,-0.9178z" data-paper-data="{&quot;wickUUID&quot;:&quot;9d636ee8-33dd-47bd-81ba-e1df25d92c10&quot;,&quot;wickType&quot;:&quot;path&quot;}" fill="#11021d"/><path d="M450.47187,143.20234c-3.82167,2.48033 -7.52607,4.39527 -12.11674,7.75027c-6.464,4.72433 -12.38956,8.70372 -16.19489,10.87439c-9.05467,5.16533 -16.23524,10.7678 -29.69191,23.16647c-12.17933,11.22167 -25.09472,21.86025 -28.86505,23.77625l-1.86059,1.5695l2.27432,2.82927c3.32967,3.85867 7.36685,7.19423 13.51985,11.17323c2.62433,1.69733 4.04702,2.02279 4.52702,1.67246c4.55233,-3.32233 7.55715,-5.41966 14.59282,-10.24499c4.58333,-3.14333 9.36201,-6.53176 10.64534,-7.54743c5.75433,-4.55433 32.53885,-21.93984 42.99985,-27.91084c2.339,-1.33533 4.84497,-3.30512 5.11964,-3.72412c0.45,-0.68667 0.37178,-2.44901 -0.88622,-15.13201c-1.91633,-19.322 -2.19344,-19.46645 -4.06344,-18.25245z" data-paper-data="{&quot;wickUUID&quot;:&quot;e8f28cbf-857e-42ee-ae09-b7f35b80ccd8&quot;,&quot;wickType&quot;:&quot;path&quot;}" fill="#11021d"/><path d="M325.73928,245.10111c-0.15867,16.93767 0.72935,31.86195 2.59702,43.65028l0.87597,1.97995l7.10712,0.22077c10.56233,0.319 14.27432,1.00187 16.31432,3.04187c1.118,1.118 0.83898,-0.20342 0.71198,2.04925c-0.233,4.123 -1.64153,4.85344 -9.78153,5.28544c-8.90767,0.473 -9.83493,1.29064 -9.83493,7.47964c0,4.179 0.44201,5.69912 2.99534,8.54245c5.19633,5.787 15.1811,10.7011 23.1601,11.38877c2.315,0.19967 8.83428,-0.65517 9.15695,-0.9775c0.11667,-0.11667 -0.91507,-18.43188 -1.52807,-26.82655c-0.45833,-6.27733 -1.2125,-13.87218 -2.02517,-20.39418c-0.47033,-3.774 -0.55339,-5.38503 -0.30939,-6.02736c0.18567,-0.48833 0.19115,-1.47471 0.19115,-1.60538c0,-0.327 -3.54203,-4.64409 -6.4387,-7.84676c-2.088,-2.309 -5.93716,-5.93178 -14.32683,-13.48178c-1.20333,-1.08267 -5.59432,-5.25184 -9.76232,-9.26884l-8.39335,-7.50835z" data-paper-data="{&quot;wickUUID&quot;:&quot;a831ba34-d306-4a42-82eb-f5865c61a655&quot;,&quot;wickType&quot;:&quot;path&quot;}" fill="#11021d"/><path d="M420.09088,60.16939c-1.83333,0.36267 -5.82842,1.13895 -8.67009,1.68428c-8.82933,1.69533 -22.72256,6.25831 -35.12223,11.53364c-4.71933,2.008 -19.24114,9.08491 -24.42314,11.89991c-15.40067,8.36633 -20.55916,12.27384 -31.74483,24.01851c-8.55367,8.98133 -9.70352,10.71048 -13.02485,19.86548c-2.28633,6.30267 -3.40973,10.12355 -4.3294,14.49788c-1.85867,8.84033 -0.19212,24.19172 4.41355,40.65972c2.80133,10.01667 7.25983,20.9697 10.4945,25.77837c2.60867,3.878 8.90879,11.01454 16.20346,18.32421c8.513,8.53033 9.3652,9.33663 15.85253,14.98063c11.39333,9.912 15.95325,14.44398 22.48958,22.35065c5.023,6.07633 10.77431,12.11494 15.62364,16.40427c5.92033,5.237 9.26974,8.36711 9.91607,9.56878c1.19667,2.22433 0.83419,15.44415 -0.60014,22.82848c-0.77933,4.01133 -1.29103,5.50481 -3.02536,8.05848c-4.105,6.045 -10.74583,10.62926 -19.72116,13.57659c-8.16667,2.68167 -11.99547,2.88093 -20.04047,1.0336c-10.07133,-2.313 -17.10588,-6.06314 -23.49588,-12.52747c-5.00767,-5.06567 -6.31862,-7.95017 -6.81662,-14.36384c-0.46933,-6.05033 -1.30254,-7.04214 -2.39787,-6.92814c-0.86633,0.09033 -6.92479,2.28109 -13.76346,5.09176c-4.543,1.867 -12.50097,4.44159 -17.5113,5.66559c-5.128,1.253 -8.87211,2.5826 -9.61444,3.40327c-0.53367,0.58933 -0.68479,2.04242 0.37288,2.58942c0.61233,0.31633 2.35606,1.54046 3.79773,2.65813l2.85678,2.15239l3.73065,0.03888c3.17833,0 3.08303,-0.22448 4.0587,0.47152c2.135,1.52267 2.46395,3.28586 1.18262,5.81353c-0.39133,0.77167 -1.67235,2.56965 -3.00402,4.40298c-1.33167,1.83333 -2.77757,4.06192 -3.1949,4.92325l-0.88305,2.00183l0.83243,3.12676c1.81433,6.78 5.02249,11.99029 11.06716,18.18896c10.45167,10.71733 27.38866,21.89755 50.21666,33.16055c23.27567,11.48333 44.95353,18.27783 75.29686,23.58483c8.33933,1.45867 17.1025,2.503 22.9475,2.721c4.57033,0.17067 6.0551,-1.47051 5.83843,-1.82051c-0.711,-1.15067 -14.51597,-6.90876 -28.0763,-11.70709c-32.49667,-11.49867 -52.24687,-19.56417 -66.24187,-27.05617c-13.22367,-7.07933 -23.76456,-14.45739 -26.52356,-18.55472c-1.32533,-1.96767 -1.08397,-1.51627 -0.37764,-3.9456c0.42033,-1.446 -0.02244,-1.15415 1.04623,-1.75482c1.936,-1.088 3.34964,-0.92108 10.50464,1.12259c11.723,3.348 23.14162,5.15924 32.39695,5.15791c5.29233,-0.001 17.93701,-1.87411 32.85801,-4.87944c15.65833,-3.154 19.24964,-4.36135 26.85964,-8.92368c15.12367,-9.06733 36.59112,-25.05751 45.21479,-33.68451c3.819,-3.82 4.96085,-5.22799 5.99018,-7.33566c1.47267,-3.01667 1.9629,-5.49447 1.9629,-9.75447c0,-5.797 -1.42986,-11.85779 -4.38186,-18.56646c-2.904,-6.59867 -6.7907,-13.60671 -9.22537,-16.68104c-1.16967,-1.47667 -2.6702,-2.0969 -9.37087,-3.35457c-10.73733,-2.01533 -21.12812,-3.6632 -28.25745,-4.48653c-16.10067,-1.859 -36.63052,-8.13639 -52.58185,-16.09106c-16.19067,-8.07367 -26.60119,-15.72299 -33.08686,-24.28832c-3.114,-4.11267 -6.75556,-11.14925 -7.58823,-14.65058c-1.258,-5.29 -1.46118,-22.45241 -0.37385,-31.99808c2.222,-19.51233 8.20162,-38.8162 15.84095,-51.1222c6.24533,-10.06067 12.89963,-17.8975 19.28763,-22.67083c9.087,-6.79033 18.06678,-9.52893 37.51911,-11.49693c14.69567,-1.48667 34.65282,-1.7662 41.91215,-0.58253c7.30833,1.19167 18.19898,5.87245 26.17431,11.22012c3.448,2.312 7.56476,6.35212 10.93443,10.71212c4.44933,5.757 5.75134,8.61373 7.33467,16.07373c1.419,6.68633 1.66705,9.26104 1.64938,16.56804c-0.01533,6.279 -0.06826,7.1489 -0.86759,10.91523c-1.731,8.15633 -5.85421,17.96239 -11.35421,27.00639c-2.187,3.59633 -4.61333,7.13066 -10.07033,14.70633c-1.50333,2.087 -1.62952,5.1271 -1.54185,5.21477c0.262,0.26233 7.50647,-3.67527 23.1938,-12.60194c12.79667,-7.282 16.24674,-10.5074 20.71641,-18.7904c6.686,-12.39033 8.99357,-31.04362 6.2749,-50.74029c-2.65533,-19.23733 -7.27142,-30.5601 -17.16842,-41.89343c-1.53467,-1.75733 -3.56523,-4.09075 -4.34023,-4.92375l-1.79949,-1.76081l-6.43819,-0.79323c-3.46567,-0.42067 -11.63147,-1.42484 -18.1048,-2.22751c-18.572,-2.30267 -30.25474,-3.07804 -49.93007,-3.31337c-11.30433,-0.13533 -12.72338,-0.09005 -15.77871,0.51462z" data-paper-data="{&quot;wickUUID&quot;:&quot;ec7de460-dd10-47d3-87a9-ca3c2861ab55&quot;,&quot;wickType&quot;:&quot;path&quot;}" fill="#432f2f"/><path d="M423.94419,49.67913c-23.575,2.147 -57.573,14.869 -87.914,32.897c-9.763,5.801 -30.219,25.082 -33.472,31.549c-5.692,11.316 -11.035,29.851 -11.047,38.323c-0.012,7.713 3.904,28.145 7.643,39.889c5.993,18.823 9.729,24.837 25.266,40.675c7.494,7.639 18.018,17.683 23.387,22.321c5.369,4.638 11.75,11.032 14.18,14.208c5.394,7.052 15.648,17.74 22.099,23.035l4.786,3.928l-0.713,9.201c-0.684,8.819 -0.87,9.378 -4.5,13.502c-6.78,7.703 -18.261,10.973 -28.289,8.058c-8.029,-2.334 -12.704,-4.897 -17.28,-9.473c-3.287,-3.287 -3.927,-4.585 -3.927,-7.961c0,-7.006 1.022,-7.871 9.305,-7.871c7.786,0 10.536,-1.469 10.536,-5.629c0,-4.109 -3.173,-5.457 -14.164,-6.018c-8.863,-0.452 -11.335,-0.21 -17.664,1.728c-4.047,1.24 -9.368,3.25 -11.823,4.466c-5.091,2.521 -19.351,7.219 -31.746,10.459c-10.154,2.653 -12.2,3.814 -13.883,7.877c-1.144,2.761 -1.068,3.42 0.663,5.782c1.075,1.465 4.154,4.093 6.843,5.84c9.653,6.268 9.896,6.558 8.712,10.416c-1.54,5.017 -0.019,13.895 3.662,21.371c6.714,13.638 27.961,30.403 57.486,45.358c25.526,12.929 46.383,19.811 78.878,26.025c17.035,3.258 20.541,3.613 36.425,3.689c16.676,0.08 17.685,-0.024 19.698,-2.031c2.91,-2.903 1.836,-7.291 -2.773,-11.339c-4.255,-3.735 -18.036,-10.264 -34.434,-16.311c-6.584,-2.429 -19.995,-7.375 -29.803,-10.992c-19.073,-7.036 -36.835,-14.528 -39.846,-16.809c-1.625,-1.23 -0.533,-1.402 9.108,-1.43c17.336,-0.05 50.744,-6.96 60.788,-12.573c21.015,-11.744 54.095,-38 58.335,-46.299c3.775,-7.391 4.059,-18.807 0.753,-30.264c-1.895,-6.565 -12.382,-27.97 -14.609,-29.819c-1.532,-1.271 -27.503,-6.313 -41.321,-8.022c-18.938,-2.341 -36.34,-7.627 -51.563,-15.662c-20.6,-10.874 -28.761,-17.996 -33.879,-29.567c-1.921,-4.342 -2.044,-5.97 -1.57,-20.684c0.298,-9.252 1.196,-18.989 2.134,-23.145c1.901,-8.419 6.973,-24.136 9.191,-28.478c3.218,-6.3 11.533,-17.447 16.564,-22.205c9.711,-9.184 15.118,-10.853 43.747,-13.5c26.194,-2.422 38.279,-0.483 51.916,8.331c8.995,5.814 14.347,13.223 16.377,22.671c3.246,15.106 1.24,26.741 -7.269,42.162c-7.119,12.9 -13.599,20.474 -22.83,26.684c-4.638,3.12 -10.442,7.397 -12.897,9.504c-7.529,6.462 -14.346,10.994 -21.231,14.116c-3.621,1.642 -7.468,3.87 -8.549,4.951c-2.511,2.511 -2.514,6.123 -0.007,8.392c4.546,4.114 18.108,-0.355 46.652,-15.373c43.293,-22.776 56.291,-30.621 60.848,-36.726c9.087,-12.171 12.491,-23.255 13.243,-43.116c0.888,-23.475 -2.547,-41.788 -10.712,-57.107c-3.524,-6.612 -14.522,-19.112 -18.621,-21.165c-1.427,-0.714 -6.613,-1.807 -11.524,-2.427c-42.019,-5.307 -64.033,-6.808 -79.365,-5.412zM475.03619,62.33913c6.82,0.861 17.534,2.182 23.809,2.936l11.409,1.371l5.679,6.298c10.295,11.415 15.332,24.591 17.577,45.98c2.145,20.439 -1.169,38.546 -9.213,50.338c-4.539,6.654 -5.806,7.547 -29.801,20.997c-6.484,3.634 -11.909,6.482 -12.056,6.327c-0.146,-0.154 2.555,-4.056 6.004,-8.671c7.677,-10.274 13.365,-20.799 16.911,-31.292c3.431,-10.153 3.763,-21.895 0.983,-34.669c-1.679,-7.713 -2.607,-9.773 -7.081,-15.72c-2.832,-3.764 -7.32,-8.416 -9.973,-10.337c-6.359,-4.604 -17.275,-9.775 -24.626,-11.663c-10.164,-2.612 -40.963,-1.553 -61.022,2.099c-14.762,2.688 -24.991,9.341 -35.129,22.849c-7.682,10.235 -11.35,16.934 -14.844,27.104c-6.368,18.535 -9.049,35.722 -8.376,53.695c0.429,11.431 0.689,12.746 3.779,19.093c4.37,8.976 11.186,16.264 21.494,22.983c21.874,14.258 45.971,22.932 72.856,26.225c9.246,1.133 29.938,4.794 32.5,5.751c2.376,0.888 10.679,16.359 13.166,24.534c0.996,3.274 1.812,8.185 1.813,10.913c0.004,8.719 -1.403,11.615 -9.229,18.986c-8.249,7.771 -30.784,24.333 -43.511,31.978c-8.225,4.941 -9.435,5.34 -27.282,9.006c-10.271,2.109 -22.693,4.132 -27.603,4.495c-10.671,0.788 -24.863,-1.101 -36.945,-4.919c-6.346,-2.005 -8.621,-2.344 -10.169,-1.515c-1.096,0.586 -1.993,1.461 -1.993,1.943c0,0.481 -0.253,1.533 -0.561,2.337c-1.458,3.799 13.03,14.478 33.299,24.545c11.948,5.934 34.526,15.005 55.501,22.297c17.574,6.109 31.694,11.858 33.288,13.552c1.687,1.792 -16.478,0.132 -33.234,-3.038c-30.154,-5.704 -51.593,-12.837 -75.397,-25.089c-30.384,-15.638 -49.717,-31.258 -54.496,-44.031c-1.128,-3.015 -2.051,-6.319 -2.051,-7.34c0,-1.022 1.785,-4.117 3.968,-6.878c4.423,-5.596 4.878,-7.917 2.051,-10.475c-1.394,-1.261 -2.751,-1.552 -4.969,-1.065c-2.415,0.53 -3.664,0.155 -5.983,-1.796c-1.612,-1.356 -3.505,-2.676 -4.207,-2.933c-2.665,-0.974 1.058,-2.864 9.259,-4.7c4.572,-1.024 13.224,-3.89 19.226,-6.37c6.002,-2.479 11.471,-4.512 12.153,-4.517c0.798,-0.005 1.242,1.494 1.245,4.208c0.011,7.744 1.795,11.792 7.776,17.634c6.521,6.369 13.585,9.988 24.042,12.314c6.738,1.499 8.137,1.518 14.481,0.196c12.685,-2.646 23.294,-10.016 27.098,-18.829c2.341,-5.42 3.56,-24.981 1.749,-28.067c-0.683,-1.165 -4.814,-5.141 -9.179,-8.835c-4.365,-3.694 -10.838,-10.317 -14.385,-14.717c-7.947,-9.859 -11.569,-13.52 -24.897,-25.16c-14.44,-12.611 -28.498,-27.446 -32.598,-34.402c-6.861,-11.636 -13.338,-34.443 -14.534,-51.176c-0.692,-9.678 0.609,-16.508 5.67,-29.762c3.01,-7.884 3.929,-9.159 14.122,-19.599c8.858,-9.073 12.778,-12.26 20.905,-16.997c25.567,-14.903 52.828,-25.985 71.015,-28.871c4.092,-0.649 8.11,-1.345 8.928,-1.546c3.492,-0.86 40.212,0.561 51.588,1.995z" data-paper-data="{&quot;wickUUID&quot;:&quot;7c2df12f-020b-4a04-b261-dcbd3762b64b&quot;,&quot;wickType&quot;:&quot;path&quot;}" fill="#000000"/><path d="M361.1694,198.34559c-4.084,2.861 -1.638,9.369 3.521,9.369c2.124,0 5.187,-3.352 5.187,-5.677c0,-1.641 -3.596,-5.236 -5.236,-5.236c-0.697,0 -2.26,0.695 -3.472,1.544z" data-paper-data="{&quot;wickUUID&quot;:&quot;e28cf78c-df86-4492-932b-fe7706277c39&quot;,&quot;wickType&quot;:&quot;path&quot;}" fill="#000000"/><path d="M440.3139,136.89808c-13.392,10.23 -21.708,15.88 -25.493,17.319c-3.095,1.177 -16.795,11.669 -20.638,15.806c-4.445,4.784 -24.485,21.605 -32.584,27.35c-7.492,5.314 -8.979,8.069 -6.32,11.706c2.029,2.775 6.278,2.264 11.441,-1.375c5.771,-4.068 20.927,-17.027 31.377,-26.83c9.188,-8.618 16.392,-14.041 24.855,-18.708c3.274,-1.806 10.954,-7.02 17.067,-11.586c6.113,-4.567 11.343,-7.933 11.622,-7.481c0.28,0.453 0.965,5.689 1.524,11.638c0.558,5.948 1.296,13.342 1.64,16.432c0.621,5.568 0.598,5.633 -2.58,7.276c-6.996,3.618 -38.474,23.719 -42.779,27.318c-2.518,2.104 -10.665,7.901 -18.104,12.881c-14.468,9.685 -16.437,12.094 -12.996,15.896c0.967,1.069 2.617,1.944 3.666,1.944c1.935,0 25.914,-15.681 34.988,-22.881c4.72,-3.744 29.103,-19.224 39.683,-25.191c9.571,-5.4 10.224,-6.989 8.52,-20.759c-0.616,-4.975 -1.782,-15.263 -2.592,-22.861c-2.28,-21.393 -3.884,-21.96 -22.297,-7.894z" data-paper-data="{&quot;wickUUID&quot;:&quot;d394fb06-adbf-4ff0-b06c-4301c4a26844&quot;,&quot;wickType&quot;:&quot;path&quot;}" fill="#000000"/><path d="M365.8706,272.23649c-1.505,1.505 -1.885,2.836 -1.488,5.208c1.228,7.325 2.762,25.022 3.417,39.397c0.718,15.777 1.57,19.231 5.015,20.325c2.186,0.694 5.537,-0.763 6.183,-2.689c1.32,-3.931 -3.108,-57.466 -5.054,-61.103c-0.982,-1.835 -3.138,-3.16 -5.14,-3.16c-0.501,0 -1.821,0.91 -2.933,2.022z" data-paper-data="{&quot;wickUUID&quot;:&quot;9dbda348-bb1f-4e9b-ac5c-62ceb2240a2e&quot;,&quot;wickType&quot;:&quot;path&quot;}" fill="#000000"/><path d="M403.72892,365.32997c-1.158,1.159 -2.106,2.776 -2.106,3.595c0,2.202 3.652,5.456 6.122,5.456c1.185,0 11.118,0.933 22.073,2.074c24.375,2.538 41.003,5.961 43.482,8.949c2.143,2.584 2.245,5.709 0.212,6.489c-2.909,1.117 -54.715,-2.714 -68.417,-5.059c-18.712,-3.203 -20.337,-2.965 -20.337,2.975c0,2.946 0.473,3.66 3.224,4.86c7.109,3.1 77.751,9.099 88.951,7.553c6.62,-0.914 9.015,-3.416 9.015,-9.418c0,-6.521 -2.63,-13.988 -5.896,-16.736c-4.392,-3.695 -23.202,-7.629 -48.171,-10.074c-8.184,-0.801 -17.393,-1.752 -20.463,-2.114c-4.876,-0.573 -5.849,-0.39 -7.689,1.45z" data-paper-data="{&quot;wickUUID&quot;:&quot;c03e572c-47ee-4694-b224-3ebbc92fda27&quot;,&quot;wickType&quot;:&quot;path&quot;}" fill="#000000"/><path d="M317.82249,224.54717c-1.446,1.599 -1.858,4.378 -2.278,15.367c-0.522,13.684 1.138,41.653 2.875,48.449c1.273,4.978 4.631,6.669 8.374,4.217c2.281,-1.495 2.557,-2.207 2.067,-5.349c-2.008,-12.887 -2.851,-28.305 -2.403,-43.938c0.452,-15.748 0.325,-17.809 -1.181,-19.171c-2.307,-2.088 -5.335,-1.916 -7.454,0.425z" data-paper-data="{&quot;wickUUID&quot;:&quot;4ffb9b2f-0892-45d8-99ff-14b95af7308e&quot;,&quot;wickType&quot;:&quot;path&quot;}" fill="#000000"/><path d="M372.11156,147.85441c-2.302,0.93 -21.991,23.959 -22.618,26.456c-0.445,1.773 -0.033,3.067 1.448,4.548c2.624,2.624 4.099,2.605 7.537,-0.1c3.085,-2.426 3.111,-2.561 -1.084,5.642c-1.674,3.274 -4.314,9.851 -5.867,14.616c-2.742,8.416 -2.771,8.72 -1.012,10.665c4.587,5.068 10.45,-0.344 12.883,-11.892c0.402,-1.907 2.22,-6.37 4.041,-9.916c6.747,-13.146 13.35,-29.937 13.35,-33.949c0,-2.154 -4.268,-6.763 -6.155,-6.648c-0.707,0.043 -1.842,0.303 -2.523,0.578z" data-paper-data="{&quot;wickUUID&quot;:&quot;3917367e-a077-4374-8067-bec3c3f49b83&quot;,&quot;wickType&quot;:&quot;path&quot;}" fill="#000000"/><path d="M470.11375,300.72875c-6.462,4.515 -11.865,11.369 -14.301,18.144c-1.079,3 -2.915,5.761 -4.656,7.001c-2.891,2.059 -3.782,5.202 -1.819,6.416c0.581,0.359 2.63,0.358 4.552,-0.003c2.554,-0.479 5.732,-2.803 11.802,-8.631c9.735,-9.346 14.594,-17.073 14.143,-22.49c-0.419,-5.028 -2.983,-5.144 -9.721,-0.437zM477.05175,302.02475c0,0.564 -1.082,3.131 -2.404,5.705c-2.469,4.804 -18.429,21.491 -18.429,19.267c0,-2.342 5.679,-13.6 8.829,-17.501c2.827,-3.502 9.321,-8.384 11.26,-8.465c0.409,-0.017 0.744,0.431 0.744,0.994z" data-paper-data="{&quot;wickUUID&quot;:&quot;acae9250-d428-457d-99be-f48ff35ab5e9&quot;,&quot;wickType&quot;:&quot;path&quot;}" fill="#1d010f"/><path d="M466.90794,310.48251c-5.986,3.249 -5.805,8.887 0.206,6.398c3.369,-1.396 5.433,-4.334 4.589,-6.533c-0.669,-1.743 -1.37,-1.723 -4.795,0.135z" data-paper-data="{&quot;wickUUID&quot;:&quot;8ea7abcf-9345-48bb-a6f9-fd3bd5f91e68&quot;,&quot;wickType&quot;:&quot;path&quot;}" fill="#1d010f"/><path d="M463.97581,303.93775c-3.893,5.201 -5.477,6.649 -6.419,5.867c-1.952,-1.62 -2.951,-0.394 -5.84,7.166c-2.403,6.289 -2.527,7.188 -1.178,8.537c1.349,1.349 1.91,0.908 5.33,-4.191c8.127,-12.119 9.151,-13.509 13.164,-17.863c3.993,-4.331 4.49,-6.422 1.526,-6.422c-0.778,0 -3.741,3.107 -6.583,6.906z" data-paper-data="{&quot;wickUUID&quot;:&quot;a9af3aab-2e91-461e-8947-28f9bc84a6c5&quot;,&quot;wickType&quot;:&quot;path&quot;}" fill="#1d010f"/><path d="M472.62489,313.00506c-3.163,2.777 -3.824,4.86 -1.543,4.86c1.533,0 6.962,-5.097 6.962,-6.537c0,-2.171 -1.601,-1.675 -5.419,1.677z" data-paper-data="{&quot;wickUUID&quot;:&quot;e0f4a794-1c75-45d3-95b9-83111ec5a008&quot;,&quot;wickType&quot;:&quot;path&quot;}" fill="#1d010f"/><path d="M475.61746,293.96749c-0.774,1.253 2.642,7.019 4.162,7.026c1.921,0.01 1.465,-3.347 -0.782,-5.759c-2.268,-2.434 -2.585,-2.553 -3.38,-1.267z" data-paper-data="{&quot;wickUUID&quot;:&quot;35b8582e-9bbb-459f-99c0-889a9268dec2&quot;,&quot;wickType&quot;:&quot;path&quot;}" fill="#1d010f"/><path d="M402.79586,131.83789c-7.83,2.339 -14.806,4.862 -15.503,5.606c-9.752,10.425 -16.263,32.807 -14.183,48.754c1.123,8.613 10.502,26.105 17.985,33.545c6.422,6.385 10.327,8.128 18.496,8.255c5.708,0.089 8.639,-1.719 3.473,-2.142c-9.892,-0.81 -13.223,-2.253 -19.622,-8.502c-5.104,-4.985 -7.376,-8.341 -12.111,-17.89l-5.828,-11.753l0.071,-9.08c0.096,-12.098 4.303,-25.576 10.696,-34.26c3.989,-5.418 4.969,-6.152 10.148,-7.601c3.153,-0.882 9.369,-2.683 13.813,-4.004c9.602,-2.853 12.816,-2.949 20.611,-0.616c8.078,2.419 9.999,5.984 9.999,18.552c0,8.371 -0.214,9.301 -3.426,14.881c-4.766,8.28 -12.619,15.939 -17.762,17.324c-5.328,1.434 -11.212,-0.078 -13.977,-3.592c-2.039,-2.593 -2.814,-10.057 -1.421,-13.687c0.749,-1.952 5.46,-4.509 8.308,-4.509c5.393,0 9.403,9.53 5.002,11.885c-2.081,1.114 -1.796,3.482 0.528,4.373c1.931,0.741 4.396,-4.322 4.39,-9.016c-0.003,-2.486 -0.816,-4.783 -2.386,-6.746c-2.068,-2.584 -3.027,-2.976 -7.285,-2.976c-8.838,0 -12.149,3.401 -12.149,12.479c0,9.351 3.43,13.681 12.128,15.313c9.207,1.727 20.903,-6.752 27.651,-20.046c4.007,-7.894 4.966,-17.953 2.496,-26.178c-2.269,-7.555 -3.424,-8.657 -11.393,-10.865c-9.575,-2.653 -12.305,-2.416 -28.749,2.496z" data-paper-data="{&quot;wickUUID&quot;:&quot;643b5389-bd7d-4fdc-afea-e09f7f244166&quot;,&quot;wickType&quot;:&quot;path&quot;}" fill="#4a90e2"/><path d="M364.48265,297.97381c-0.32,0.518 0.435,1.478 1.678,2.133c4.786,2.521 4.895,4.861 0.227,4.861c-7.162,0 -13.344,4.635 -13.344,10.004c0,5.387 1.955,6.862 9.099,6.862c5.478,0 6.263,-0.284 9.353,-3.373c3.929,-3.929 4.469,-8.731 1.747,-15.534c-1.869,-4.67 -7.105,-7.63 -8.76,-4.953zM370.99265,310.66681c0.922,2.424 0.699,3.024 -2.024,5.457c-5.098,4.555 -13.77,3.268 -12.776,-1.896c0.502,-2.609 6.594,-6.283 10.415,-6.283c2.74,0 3.539,0.495 4.385,2.722z" data-paper-data="{&quot;wickUUID&quot;:&quot;59bc74cb-6428-4eb4-8f0f-22e77cf65f2a&quot;,&quot;wickType&quot;:&quot;path&quot;}" fill="#4a90e2"/></g><g fill="none" fill-rule="nonzero" stroke="none" stroke-width="1" stroke-linecap="butt" stroke-linejoin="miter" stroke-miterlimit="10" stroke-dasharray="" stroke-dashoffset="0" font-family="sans-serif" font-weight="normal" font-size="12" text-anchor="start" style="mix-blend-mode: normal"/><g id="wick_project_gui" fill="none" fill-rule="nonzero" stroke="none" stroke-width="1" stroke-linecap="butt" stroke-linejoin="miter" stroke-miterlimit="10" stroke-dasharray="" stroke-dashoffset="0" font-family="sans-serif" font-weight="normal" font-size="12" text-anchor="start" style="mix-blend-mode: normal"/></g></svg>