<svg version="1.1" xmlns="http://www.w3.org/2000/svg" xmlns:xlink="http://www.w3.org/1999/xlink" width="1260" height="426" viewBox="0,0,1260,426"><g transform="translate(323.28,8.52) scale(0.852,0.852)"><g id="wick_project_bg" fill-opacity="0" fill="#ffffff" fill-rule="nonzero" stroke="none" stroke-width="1" stroke-linecap="butt" stroke-linejoin="miter" stroke-miterlimit="10" stroke-dasharray="" stroke-dashoffset="0" font-family="none" font-weight="none" font-size="none" text-anchor="none" style="mix-blend-mode: normal"><rect x="0" y="0" width="720" height="480"/></g><g data-paper-data="{&quot;wickUUID&quot;:&quot;f2e0a4fb-879d-409f-bcfe-c281baec5ee4&quot;,&quot;wickType&quot;:&quot;clipsandpaths&quot;}" fill="none" fill-rule="evenodd" stroke="none" stroke-width="1" stroke-linecap="butt" stroke-linejoin="miter" stroke-miterlimit="10" stroke-dasharray="" stroke-dashoffset="0" font-family="none" font-weight="none" font-size="none" text-anchor="none" style="mix-blend-mode: normal"><path d="M348.03297,243.998c-1.969,2.257 -6.706,13.331 -22.956,53.662c-8.207,20.37 -16.948,42.025 -19.423,48.122c-2.475,6.097 -8.051,18.219 -12.391,26.936c-4.341,8.718 -8.785,18.124 -9.877,20.902c-1.092,2.777 -2.332,5.286 -2.756,5.575c-1.939,1.319 -87.432,-4.162 -113.732,-7.292c-15.982,-1.902 -17.777,-1.976 -19.57,-0.801c-1.086,0.712 -1.974,1.605 -1.974,1.985c0,0.69 -5.877,5.994 -34.196,30.859c-8.276,7.267 -15.602,13.738 -16.279,14.38c-1.057,1.002 -0.252,1.169 5.65,1.169h6.883l21.584,-19.15c11.87,-10.532 22.076,-19.504 22.679,-19.937c0.698,-0.502 7.015,-0.118 17.379,1.056c19.723,2.233 88.434,6.944 104.357,7.155c13.731,0.182 13.624,0.242 17.601,-9.792c1.502,-3.79 6.248,-13.935 10.546,-22.544c4.806,-9.624 15.003,-33.451 26.48,-61.868c18.83,-46.624 22.13,-54.587 25.76,-62.157c2.211,-4.609 2.503,-7.203 0.983,-8.723c-1.488,-1.488 -5.272,-1.228 -6.748,0.463z" data-paper-data="{&quot;wickUUID&quot;:&quot;b85e4e71-6ab0-44e1-beed-8b2fa9dfc321&quot;,&quot;wickType&quot;:&quot;path&quot;}" fill="#ff00ff"/><path d="M254.97096,77.33676c-1.344,1.968 -5.598,8.211 -9.453,13.875c-27.676,40.656 -48.359,69.662 -75.186,105.443c-28.266,37.701 -35.308,48.074 -34.587,50.945c0.337,1.346 1.407,2.268 3.233,2.791c22.625,6.471 118.216,38.392 128.992,43.074c18.522,8.048 50.22,20.901 52.629,21.341c3.66,0.668 6.714,-1.195 6.714,-4.093c0,-2.047 -2.754,-4.63 -4.936,-4.63c-0.658,0 -13.926,-5.347 -29.485,-11.883c-22.307,-9.37 -37.633,-15.043 -72.481,-26.829c-24.305,-8.221 -50.252,-16.76 -57.66,-18.976c-7.407,-2.216 -13.8,-4.32 -14.206,-4.675c-1.015,-0.888 7.124,-12.464 31.02,-44.118c18.323,-24.273 35.932,-48.773 54.754,-76.179c3.657,-5.324 9.893,-14.226 13.859,-19.781c10.117,-14.173 16.004,-23.72 16.004,-25.954c0,-2.565 -1.525,-3.928 -4.394,-3.928c-1.849,0 -2.915,0.791 -4.817,3.577z" data-paper-data="{&quot;wickUUID&quot;:&quot;a0736c88-fb94-4d2e-baed-f14a9964de9e&quot;,&quot;wickType&quot;:&quot;path&quot;}" fill="#ff00ff"/><path d="M249.03112,92.27776c-4.151,4.151 -1.095,6.805 11.068,9.613c5.255,1.213 37.017,5.964 70.581,10.556c68.479,9.37 112.387,16.098 138.265,21.187c10.028,1.972 18.379,3.209 19.599,2.902c4.423,-1.11 4.538,-7.56 0.151,-8.401c-42.472,-8.141 -80.25,-14.053 -159.121,-24.9c-35.031,-4.818 -64.85,-9.332 -69.597,-10.535c-4.568,-1.158 -8.521,-2.105 -8.784,-2.105c-0.264,0 -1.237,0.757 -2.162,1.683z" data-paper-data="{&quot;wickUUID&quot;:&quot;b3b47156-a441-465f-8340-3bbb1c0dfa63&quot;,&quot;wickType&quot;:&quot;path&quot;}" fill="#ff00ff"/><path d="M433.37455,61.13374c-0.926,0.925 -1.684,2.292 -1.684,3.037c0,3.06 18.198,41.517 26.965,56.986c5.745,10.136 7.765,11.837 11.3,9.521c1.177,-0.771 2.139,-2.09 2.139,-2.931c0,-0.841 -3.283,-7.367 -7.297,-14.501c-4.013,-7.134 -11.206,-21.683 -15.985,-32.331c-9.917,-22.097 -11.323,-23.897 -15.438,-19.781z" data-paper-data="{&quot;wickUUID&quot;:&quot;91f2308f-1744-4edc-b6a2-aaa02b7807fd&quot;,&quot;wickType&quot;:&quot;path&quot;}" fill="#ff00ff"/><path d="M350.91172,242.89574c-1.265,2.365 -1.077,3.817 0.704,5.429c0.975,0.882 17.095,5.252 42.298,11.465c29.395,7.248 45.874,11.784 59.241,16.309c53.161,17.994 89.389,30.804 107.411,37.981c11.045,4.398 20.788,7.996 21.651,7.996c1.771,0 4.356,-2.497 4.356,-4.208c0,-0.622 -0.613,-1.808 -1.363,-2.636c-1.884,-2.082 -39.073,-16.757 -65.977,-26.035c-80.543,-27.777 -79.079,-27.32 -121.461,-37.893c-22.128,-5.519 -41.528,-10.036 -43.11,-10.036c-1.984,0 -3.149,0.506 -3.75,1.628z" data-paper-data="{&quot;wickUUID&quot;:&quot;48e4afed-2dbd-41ff-a25d-9ffa9e3da2bb&quot;,&quot;wickType&quot;:&quot;path&quot;}" fill="#ff00ff"/><path d="M496.90611,290.42072c-2.437,1.783 -2.853,10.496 -2.032,42.598c0.744,29.048 1.683,38.903 3.951,41.456c1.738,1.957 4.639,1.867 6.513,-0.204c1.384,-1.53 1.426,-2.211 0.476,-7.786c-1.23,-7.216 -2.666,-55.779 -1.976,-66.795c0.461,-7.354 0.401,-7.71 -1.509,-9.049c-2.425,-1.698 -3.35,-1.736 -5.423,-0.22z" data-paper-data="{&quot;wickUUID&quot;:&quot;0490a58c-5fde-431e-bdbe-a5d553764681&quot;,&quot;wickType&quot;:&quot;path&quot;}" fill="#ff00ff"/><path d="M325.20903,141.06707c-10.289,3.747 -28.718,11.932 -34.3,15.234c-6.853,4.053 -31.399,20.314 -46.087,30.531c-5.324,3.703 -17.405,13.197 -26.846,21.099c-15.439,12.92 -17.625,15.076 -21.724,21.431c-2.508,3.887 -7.302,10.712 -10.654,15.168c-8.104,10.772 -9.989,14.191 -14.05,25.485c-7.552,21.001 -8.284,23.587 -9.552,33.745c-2.453,19.64 -2.494,21.542 -0.633,28.838c0.945,3.704 2.674,12.037 3.841,18.518c1.701,9.446 2.481,12.077 3.926,13.258c2.286,1.867 3.486,1.854 5.85,-0.06c1.823,-1.477 1.855,-1.732 0.858,-6.944c-0.569,-2.977 -1.557,-8.253 -2.196,-11.725c-0.639,-3.472 -1.972,-9.624 -2.962,-13.671c-1.781,-7.279 -1.785,-7.496 -0.381,-20.202c1.739,-15.725 2.16,-17.542 7.369,-31.784c5.778,-15.797 8.062,-20.399 14.205,-28.619c2.94,-3.935 7.818,-10.809 10.839,-15.275c4.918,-7.269 7.126,-9.499 21.066,-21.27c15.231,-12.861 26.355,-20.957 54.989,-40.023c16.031,-10.674 23.632,-14.967 32.132,-18.148c3.241,-1.213 8.801,-3.513 12.355,-5.112c5.46,-2.454 7.027,-2.816 10.101,-2.331c6.786,1.071 21.595,6.94 28.231,11.188c3.604,2.307 10.908,6.84 16.232,10.073c9.206,5.589 15.376,10.662 20.337,16.717c2.74,3.344 5.961,3.648 7.865,0.742c1.03,-1.572 1.113,-2.494 0.394,-4.384c-1.398,-3.678 -12.807,-14.23 -19.582,-18.111c-3.337,-1.912 -9.666,-5.855 -14.064,-8.763c-9.958,-6.582 -14.686,-8.96 -25.062,-12.603c-6.241,-2.191 -17.76,-5.094 -18.232,-4.594c-0.031,0.032 -1.95,0.749 -4.265,1.592z" data-paper-data="{&quot;wickUUID&quot;:&quot;39deb2ad-8ee0-4a08-a19f-18ea7e5cbf42&quot;,&quot;wickType&quot;:&quot;path&quot;}" fill="#ff0080"/><path d="M405.59645,281.67161c-0.926,0.926 -1.684,2.492 -1.684,3.48c0,0.988 -0.371,3.166 -0.825,4.84c-2.679,9.883 -5.982,25.421 -6.431,30.26c-0.501,5.39 -0.67,5.734 -4.104,8.37c-1.97,1.512 -8.079,4.77 -13.577,7.239c-15.415,6.924 -19.653,9.249 -25.568,14.021c-3.009,2.428 -7.933,5.568 -10.942,6.976c-3.01,1.409 -5.75,2.966 -6.09,3.461c-1.752,2.546 0.612,7.212 3.654,7.212c2.366,0 13.078,-5.701 17.62,-9.377c7.458,-6.036 9.056,-6.962 21.948,-12.731c13.85,-6.197 17.623,-8.384 22.559,-13.08c3.191,-3.035 3.441,-3.601 3.454,-7.821c0.015,-4.637 0.713,-8.364 4.635,-24.752c3.374,-14.095 3.539,-16.732 1.152,-18.404c-2.57,-1.8 -3.758,-1.737 -5.801,0.306z" data-paper-data="{&quot;wickUUID&quot;:&quot;cfdd7d76-fbf1-4b34-9194-7282182fc34c&quot;,&quot;wickType&quot;:&quot;path&quot;}" fill="#ff0080"/><path d="M148.15097,137.86107c-4.93,2.44 -12.797,12.023 -18.844,22.956c-7.35,13.287 -20.042,45.717 -23.25,59.407c-3.54,15.109 -3.562,23.733 -0.109,43.771c3.225,18.716 3.838,20.991 10.331,38.3c4.291,11.442 5.797,14.553 7.514,15.522c1.907,1.077 2.395,1.051 4.349,-0.23c1.211,-0.793 2.202,-2.02 2.202,-2.727c0,-0.706 -2.425,-7.8 -5.389,-15.763c-6.569,-17.649 -6.59,-17.723 -9.743,-35.964c-3.493,-20.206 -3.43,-27.694 0.359,-42.741c3.345,-13.285 14.535,-41.568 21.771,-55.027c5.145,-9.572 10.948,-16.967 15.523,-19.782c4.802,-2.955 5.531,-5.051 2.731,-7.85c-2.119,-2.12 -2.933,-2.106 -7.445,0.128z" data-paper-data="{&quot;wickUUID&quot;:&quot;740e0057-0b53-425c-9287-ee47fb88bd2b&quot;,&quot;wickType&quot;:&quot;path&quot;}" fill="#ff0080"/><path d="M408.96352,145.30807c-3.313,3.313 -2.629,4.252 8.417,11.57c12.166,8.06 23.846,18.022 32.701,27.891c6.804,7.585 10.414,12.692 18.216,25.778c11.592,19.44 14.047,24.017 16.521,30.803c2.25,6.17 4.492,7.699 7.961,5.426c1.905,-1.248 2.167,-1.892 1.768,-4.347c-0.88,-5.422 -6.099,-15.906 -17.215,-34.58c-13.551,-22.765 -22.71,-33.797 -38.487,-46.36c-11.969,-9.53 -24.382,-17.864 -26.607,-17.864c-0.876,0 -2.349,0.757 -3.275,1.683z" data-paper-data="{&quot;wickUUID&quot;:&quot;37b3792c-d2c0-4afa-a172-0fe6c252623e&quot;,&quot;wickType&quot;:&quot;path&quot;}" fill="#ff0080"/><path d="M517.54964,263.15394c-2.356,2.355 -2.138,3.476 1.544,7.931c7.729,9.353 10.612,36.417 6.869,64.486c-1.842,13.818 -2.03,14.518 -5.581,20.748c-3.994,7.009 -4.367,8.715 -2.351,10.731c3,3 5.902,1.293 10.37,-6.102c4.293,-7.106 4.674,-8.398 6.573,-22.307c1.098,-8.041 1.488,-15.957 1.419,-28.77c-0.093,-17.029 -0.194,-18.047 -2.77,-27.758c-2.889,-10.892 -5.965,-16.756 -10.054,-19.172c-3.177,-1.876 -3.959,-1.848 -6.019,0.213z" data-paper-data="{&quot;wickUUID&quot;:&quot;0d0e4eab-6580-4355-94e6-6f9aaf3aaf70&quot;,&quot;wickType&quot;:&quot;path&quot;}" fill="#ff0080"/><path d="M321.42144,306.92499c-2.131,2.13 -2.131,3.761 0,5.892c2.026,2.026 3.232,2.105 5.705,0.373c2.409,-1.688 2.409,-4.951 0,-6.639c-2.473,-1.731 -3.679,-1.653 -5.705,0.374z" data-paper-data="{&quot;wickUUID&quot;:&quot;73c50a09-8cd5-4f9c-9b70-5fd7df3b561b&quot;,&quot;wickType&quot;:&quot;path&quot;}" fill="#ffffff"/></g><g fill="none" fill-rule="nonzero" stroke="none" stroke-width="1" stroke-linecap="butt" stroke-linejoin="miter" stroke-miterlimit="10" stroke-dasharray="" stroke-dashoffset="0" font-family="sans-serif" font-weight="normal" font-size="12" text-anchor="start" style="mix-blend-mode: normal"/><g id="wick_project_gui" fill="none" fill-rule="nonzero" stroke="none" stroke-width="1" stroke-linecap="butt" stroke-linejoin="miter" stroke-miterlimit="10" stroke-dasharray="" stroke-dashoffset="0" font-family="sans-serif" font-weight="normal" font-size="12" text-anchor="start" style="mix-blend-mode: normal"/></g></svg>