<svg version="1.1" xmlns="http://www.w3.org/2000/svg" xmlns:xlink="http://www.w3.org/1999/xlink" width="1107" height="504" viewBox="0,0,1107,504"><g transform="translate(190.62,10.08) scale(1.008,1.008)"><g id="wick_project_bg" fill="#ffffff" fill-rule="nonzero" stroke="none" stroke-width="1" stroke-linecap="butt" stroke-linejoin="miter" stroke-miterlimit="10" stroke-dasharray="" stroke-dashoffset="0" font-family="none" font-weight="none" font-size="none" text-anchor="none" style="mix-blend-mode: normal"><rect x="0" y="0" width="720" height="480"/></g><g data-paper-data="{&quot;wickUUID&quot;:&quot;8917c7c1-644d-4612-ba07-20c70257f57f&quot;,&quot;wickType&quot;:&quot;clipsandpaths&quot;}" fill="#d00b7b" fill-rule="evenodd" stroke="none" stroke-width="1" stroke-linecap="butt" stroke-linejoin="miter" stroke-miterlimit="10" stroke-dasharray="" stroke-dashoffset="0" font-family="none" font-weight="none" font-size="none" text-anchor="none" style="mix-blend-mode: normal"><path d="M348.98853,188.61689l-2.184,2.728l0.662,39.683c0.363,21.825 1.016,45.04 1.45,51.587c1.349,20.361 5.099,28.118 11.55,23.892l2.575,-1.688l-0.302,-53.76c-0.297,-52.64 -0.348,-53.858 -2.442,-58.389c-3.302,-7.144 -7.602,-8.685 -11.309,-4.053z" data-paper-data="{&quot;wickUUID&quot;:&quot;a07d20cc-fde0-4ae7-ad15-5ce11c78726f&quot;,&quot;wickType&quot;:&quot;path&quot;}"/><path d="M316.30534,161.07625c-9.232,0.842 -29.089,5.538 -37.698,8.915c-13.575,5.324 -26.777,14.762 -38.105,27.239c-7.25,7.986 -8.11,9.413 -12.173,20.203c-5.575,14.803 -9.247,31.002 -9.243,40.779c0.002,8.297 3.121,21.584 7.522,32.048c3.105,7.384 9.378,15.515 19.41,25.157c9.024,8.675 13.307,11.556 27.1,18.23c13.718,6.639 19.119,7.424 45.261,6.583c37.866,-1.217 65.882,-5.95 86.053,-14.535c19.785,-8.421 54.74,-30.885 67.065,-43.1c8.976,-8.895 8.484,-7.811 13.051,-28.734c2.799,-12.821 2.759,-18.037 -0.231,-29.778c-1.962,-7.703 -8.438,-20.134 -12.525,-24.041c-3.68,-3.52 -24.863,-16.025 -34.368,-20.289c-10.196,-4.575 -30.426,-11.673 -37.631,-13.203c-3.631,-0.772 -9.951,-2.394 -14.043,-3.604c-6.775,-2.004 -9.837,-2.221 -34.227,-2.42c-14.732,-0.121 -30.58,0.127 -35.218,0.55zM386.92734,174.20825c4.194,1.446 9.997,3.068 12.896,3.606c5.411,1.004 19.141,5.734 30.57,10.532c9.648,4.05 30.689,16.424 34.367,20.211c3.763,3.875 8.902,15.588 10.412,23.732c1.055,5.688 0.766,11.139 -0.986,18.58c-0.514,2.182 -1.418,6.332 -2.009,9.221c-1.97,9.624 -9.957,18.439 -26.904,29.692c-25.945,17.229 -45,27.293 -59.523,31.44c-18.534,5.291 -54.231,8.986 -80.039,8.285l-17.68,-0.48l-9.92,-4.871c-12.183,-5.98 -14.237,-7.289 -22.16,-14.119c-8.217,-7.084 -16.373,-17.264 -19.504,-24.344c-8.919,-20.168 -8.597,-34.964 1.367,-62.891c3.665,-10.272 4.557,-11.807 10.738,-18.483c14.361,-15.509 28.989,-24.208 48.408,-28.785c3.819,-0.9 8.73,-2.056 10.913,-2.568c7.012,-1.645 9.413,-1.737 40.674,-1.56c30.467,0.173 30.826,0.199 38.38,2.802z" data-paper-data="{&quot;wickUUID&quot;:&quot;465411b0-185e-4727-883a-a10226ab5274&quot;,&quot;wickType&quot;:&quot;path&quot;}"/><path d="M279.82552,164.0613c-9.055,3.484 -10.377,4.509 -28.966,22.47c-18.992,18.35 -23.146,23.794 -25.265,33.111c-1.893,8.321 -3.615,36.339 -2.621,42.635c1.344,8.513 4.849,11.574 9.651,8.427c2.127,-1.394 2.431,-2.159 1.9,-4.794c-2.033,-10.112 -1.191,-34.811 1.528,-44.803c1.677,-6.162 7.322,-12.825 24.99,-29.496c16.056,-15.15 16.444,-15.437 24.391,-18.084c9.948,-3.313 12.232,-6.278 8.055,-10.456c-2.562,-2.561 -4.866,-2.395 -13.663,0.99z" data-paper-data="{&quot;wickUUID&quot;:&quot;a19a4225-ff5c-414e-b02b-db26b5f0518f&quot;,&quot;wickType&quot;:&quot;path&quot;}"/><path d="M341.6034,155.05679c-3.274,0.401 -10.417,1.675 -15.873,2.829c-5.457,1.155 -14.527,2.597 -20.158,3.204c-5.63,0.607 -10.888,1.354 -11.684,1.66c-3.738,1.434 -4.015,7.316 -0.434,9.232c2.311,1.237 23.01,-1.189 38.556,-4.519c10.083,-2.159 13.606,-2.406 34.226,-2.392c16.367,0.011 24.7,0.422 28.938,1.426c5.187,1.229 6.24,1.224 8.185,-0.038c1.227,-0.797 2.225,-2.443 2.217,-3.658c-0.045,-6.519 -5.617,-7.834 -34.707,-8.19c-12.823,-0.156 -25.992,0.044 -29.266,0.446z" data-paper-data="{&quot;wickUUID&quot;:&quot;5de90211-a8a0-4586-b6f8-55228d76b6d9&quot;,&quot;wickType&quot;:&quot;path&quot;}"/><path d="M389.78113,163.00905c-2.517,2.516 -2.593,4.477 -0.265,6.805c1.377,1.377 4.715,2.057 14.66,2.989c20.342,1.905 43.368,8.907 54.618,16.609c7.241,4.958 11.511,5.707 13.315,2.337c1.976,-3.692 0.312,-6.168 -7.7,-11.457c-13.837,-9.134 -40.953,-17.016 -64.46,-18.736c-7.33,-0.536 -8.321,-0.395 -10.168,1.453z" data-paper-data="{&quot;wickUUID&quot;:&quot;15e91450-af88-4921-92a9-a9d00a3a0df8&quot;,&quot;wickType&quot;:&quot;path&quot;}"/><path d="M429.1526,174.06406c-1.108,0.645 -1.736,2.216 -1.736,4.341c0,3.218 0.326,3.494 9.706,8.223c5.339,2.692 13.884,7.623 18.991,10.959c9.366,6.119 13.433,10.68 19.016,21.328c2.373,4.526 5.687,6.357 8.642,4.775c4.668,-2.498 3.446,-6.775 -5.891,-20.627c-4.146,-6.151 -6.206,-8.05 -14.987,-13.816c-5.599,-3.676 -11.36,-7.76 -12.803,-9.074c-2.648,-2.414 -14.386,-7.207 -17.511,-7.151c-0.93,0.017 -2.472,0.485 -3.427,1.042z" data-paper-data="{&quot;wickUUID&quot;:&quot;c9c5259e-174c-4304-94b1-6e345e245313&quot;,&quot;wickType&quot;:&quot;path&quot;}"/><path d="M475.1386,241.34067c-1.64,1.641 -1.815,2.942 -1.371,10.169c0.492,8.014 0.356,8.697 -4.136,20.679c-7.551,20.147 -11.21,25.156 -25.361,34.718c-10.95,7.398 -16.854,12.96 -16.854,15.878c0,6.052 5.449,6.616 12.057,1.249c2.519,-2.046 9.107,-7.025 14.641,-11.064c13.931,-10.168 17.279,-15.026 25.496,-36.991c6.264,-16.745 7.135,-29.769 2.314,-34.59c-2.429,-2.429 -4.39,-2.443 -6.786,-0.048z" data-paper-data="{&quot;wickUUID&quot;:&quot;e7d5e63e-6dea-4b0f-ae82-acb0721a30ac&quot;,&quot;wickType&quot;:&quot;path&quot;}"/><path d="M456.50963,286.40105c-2.278,1.737 -5.626,4.293 -7.441,5.68c-3.923,2.999 -12.265,6.869 -31.077,14.415c-27.929,11.205 -59.162,20.261 -69.915,20.271c-10.608,0.011 -15.529,2.856 -14.138,8.174c0.845,3.233 3.473,3.747 14.006,2.744c21.323,-2.032 59.375,-14.174 96.64,-30.838c7.192,-3.216 9.098,-3.712 10.79,-2.806c3.498,1.872 6.384,-0.383 10.206,-7.973c4.017,-7.977 4.179,-9.061 1.688,-11.315c-2.68,-2.426 -6.105,-1.901 -10.759,1.648z" data-paper-data="{&quot;wickUUID&quot;:&quot;16dea9cf-df75-4461-9197-6515ded29ebb&quot;,&quot;wickType&quot;:&quot;path&quot;}"/><path d="M436.88694,302.60825c-3.794,0.813 -8.482,2.155 -10.417,2.981c-12.236,5.225 -40.278,13.704 -55.105,16.662c-6.547,1.306 -20.164,3.561 -30.258,5.011c-10.094,1.45 -22.532,3.493 -27.639,4.54c-12.666,2.597 -15.098,2.445 -26.98,-1.683c-12.754,-4.431 -20.936,-5.411 -23.77,-2.847c-4.299,3.891 -0.763,9.41 6.028,9.41c2.215,0 9.331,1.786 15.814,3.969c13.107,4.413 15.524,4.64 25.97,2.443c3.987,-0.839 11.321,-2.181 16.297,-2.981c8.738,-1.406 9.209,-1.384 13.823,0.657c4.344,1.922 5.815,2.05 16.258,1.417c13.953,-0.846 23.534,-2.587 32.978,-5.994c3.922,-1.415 10.511,-3.485 14.643,-4.601c17.521,-4.734 22.789,-6.102 29.832,-7.746c12.879,-3.008 21.826,-8.893 21.826,-14.359c0,-3.351 -2.712,-6.368 -6.726,-7.483c-4.408,-1.224 -3.938,-1.247 -12.574,0.604z" data-paper-data="{&quot;wickUUID&quot;:&quot;d3172d43-9ded-4a85-ba5f-8d3c40548990&quot;,&quot;wickType&quot;:&quot;path&quot;}"/><path d="M223.12751,205.00103c-1.323,0.674 -3.443,3.193 -4.713,5.597c-2.191,4.153 -2.307,5.365 -2.307,24.096v19.722l-2.233,-0.192c-4.365,-0.375 -5.764,0.147 -6.652,2.482c-1.411,3.71 3.02,13.323 12.554,27.239c4.613,6.733 8.202,12.427 7.976,12.653c-0.226,0.226 -1.791,-0.07 -3.478,-0.658c-3.564,-1.243 -6.691,-0.043 -7.634,2.926c-0.326,1.028 0.202,4.255 1.173,7.171c1.282,3.849 2.639,5.851 4.954,7.309c9.89,6.227 12.44,7.617 20.125,10.964c4.638,2.021 9.885,4.762 11.66,6.091c5.214,3.907 8.773,4.788 11.671,2.889c3.07,-2.011 3.223,-5.768 0.352,-8.639c-1.161,-1.162 -6.295,-4.067 -11.409,-6.456c-7.778,-3.635 -9.297,-4.718 -9.297,-6.625c0,-6.686 -4.471,-15.425 -17.606,-34.411l-3.088,-4.465l0.858,-11.904c0.473,-6.548 0.888,-17.638 0.923,-24.645c0.056,-11.181 0.306,-13.05 2.047,-15.263c2.966,-3.77 2.829,-13.456 -0.22,-15.592c-2.632,-1.843 -2.61,-1.842 -5.656,-0.289z" data-paper-data="{&quot;wickUUID&quot;:&quot;b0eaffce-b2a4-4d0a-b602-072d82a25c6f&quot;,&quot;wickType&quot;:&quot;path&quot;}"/><path d="M471.2884,213.22654c-2.778,1.946 -2.819,5.115 -0.104,8.005c4.259,4.534 4.607,17.389 1.217,44.982c-1.631,13.276 -3.105,17.245 -10.4,28.004c-4.1,6.047 -4.772,9.636 -2.272,12.136c5.132,5.132 13.851,-4.204 20.782,-22.25c1.998,-5.203 4.89,-10.758 6.456,-12.401c4.253,-4.463 5.611,-10.803 4.145,-19.355c-0.658,-3.834 -1.196,-9.096 -1.196,-11.693c0,-2.596 -0.603,-5.602 -1.34,-6.678c-0.737,-1.076 -2.149,-4.635 -3.138,-7.909c-2.576,-8.526 -4.097,-11.175 -7.394,-12.88c-3.618,-1.871 -4.033,-1.868 -6.756,0.039z" data-paper-data="{&quot;wickUUID&quot;:&quot;e52315b8-56fd-4323-904b-096ab1478013&quot;,&quot;wickType&quot;:&quot;path&quot;}"/></g><g fill="none" fill-rule="nonzero" stroke="none" stroke-width="1" stroke-linecap="butt" stroke-linejoin="miter" stroke-miterlimit="10" stroke-dasharray="" stroke-dashoffset="0" font-family="sans-serif" font-weight="normal" font-size="12" text-anchor="start" style="mix-blend-mode: normal"/><g id="wick_project_gui" fill="none" fill-rule="nonzero" stroke="none" stroke-width="1" stroke-linecap="butt" stroke-linejoin="miter" stroke-miterlimit="10" stroke-dasharray="" stroke-dashoffset="0" font-family="sans-serif" font-weight="normal" font-size="12" text-anchor="start" style="mix-blend-mode: normal"/></g></svg>