<svg version="1.1" xmlns="http://www.w3.org/2000/svg" xmlns:xlink="http://www.w3.org/1999/xlink" width="1107" height="504" viewBox="0,0,1107,504"><g transform="translate(190.62,10.08) scale(1.008,1.008)"><g id="wick_project_bg" fill="#ffffff" fill-rule="nonzero" stroke="none" stroke-width="1" stroke-linecap="butt" stroke-linejoin="miter" stroke-miterlimit="10" stroke-dasharray="" stroke-dashoffset="0" font-family="none" font-weight="none" font-size="none" text-anchor="none" style="mix-blend-mode: normal"><rect x="0" y="0" width="720" height="480"/></g><g data-paper-data="{&quot;wickUUID&quot;:&quot;b691ffc9-408b-44e1-a31b-cbe730305551&quot;,&quot;wickType&quot;:&quot;clipsandpaths&quot;}" fill="none" fill-rule="evenodd" stroke="none" stroke-width="1" stroke-linecap="butt" stroke-linejoin="miter" stroke-miterlimit="10" stroke-dasharray="" stroke-dashoffset="0" font-family="none" font-weight="none" font-size="none" text-anchor="none" style="mix-blend-mode: normal"><path d="M385.88836,367.55572c-6.773,3.83667 -7.67089,4.10686 -13.99656,4.07586c-3.95367,-0.01933 -6.24227,-0.23776 -10.45094,-0.93009c-9.93467,-1.63467 -20.85849,-3.24383 -21.32616,-3.1465c-0.25267,0.05267 0.63172,2.68464 2.61339,3.96797c4.334,2.807 7.58069,5.11297 15.94302,11.32397c3.48333,2.58733 7.34231,4.91553 7.57364,5.05786c1.41333,0.869 10.96567,-6.68545 20.468,-16.23445c2.93133,-2.94567 5.48124,-5.9897 5.29991,-5.97603c-0.181,0.01367 -3.56063,0.40908 -6.1243,1.86141z" data-paper-data="{&quot;wickUUID&quot;:&quot;d87f1793-a771-4568-8e0d-b199e6a3305a&quot;,&quot;wickType&quot;:&quot;path&quot;}" fill="#333333"/><path d="M298.52954,177.90757c-3.20733,1.23767 -14.5035,8.23803 -19.23217,11.91303c-3.84333,2.98667 -13.04706,11.8427 -24.67906,23.7527c-12.69567,12.99933 -16.91374,17.48415 -25.04274,26.62782l-5.48023,6.28592l0.19408,11.50296c0.42667,21.02333 2.13469,50.97671 3.09369,54.29138c1.079,3.72867 1.59481,4.55496 5.49148,7.22996c4.50933,3.09567 10.34124,7.5815 18.58591,14.29183c7.58433,6.17267 9.27637,7.6448 20.11537,17.49647c5.25267,4.774 8.98514,7.90061 9.31147,7.83194c0.29467,-0.06233 2.27383,-0.36636 3.76583,-0.79636c5.865,-1.69067 17.22488,-2.94232 26.80355,-2.93799c10.17867,0.004 29.12732,2.36568 58.66365,7.30635l3.75167,0.53671l6.62005,-3.67858c8.308,-4.643 14.99279,-8.63221 25.39212,-15.15221c4.61567,-2.89367 14.78319,-9.25746 22.57486,-14.12913c19.58033,-12.24267 20.01139,-12.55018 21.02006,-13.87285c1.30633,-1.71233 1.60975,-4.31683 0.54108,-8.71583c-0.489,-2.013 -2.68039,-11.15539 -4.85239,-20.23039c-5.30933,-22.182 -21.17175,-85.31792 -21.81808,-86.85692c-0.69767,-1.66133 -1.87293,-2.30771 -17.66126,-4.95271c-7.16333,-1.2 -29.4666,-5.09555 -49.5416,-8.65322c-20.075,-3.55733 -40.47454,-7.15358 -45.33287,-7.99125c-4.85833,-0.83767 -9.19402,-1.59311 -9.56069,-1.66844c-0.36667,-0.07533 -1.87345,0.24048 -2.72378,0.56881z" data-paper-data="{&quot;wickUUID&quot;:&quot;cdb81977-687a-4d3c-b18f-dde8d33c244a&quot;,&quot;wickType&quot;:&quot;path&quot;}" fill="#666666"/><path d="M424.85901,213.50888c-0.01433,0.28133 4.39927,22.25934 9.80727,48.83634c5.40833,26.57733 9.82994,48.62979 9.82994,49.02779c0.00033,0.51967 0.4372,-0.20908 -0.22147,-0.06908c-2.72433,0.579 -160.12494,26.51382 -160.84327,26.50149c-0.77033,-0.01333 -2.93524,-3.95662 -27.54824,-43.14395c-15.03333,-23.935 -27.97601,-44.5118 -28.76501,-45.7308l-2.99532,-1.88211l0.19482,11.16069c0.374,20.35133 2.09704,50.72507 3.06537,54.07207c1.07833,3.72733 1.59662,4.55667 5.48595,7.22734c4.41033,3.02867 11.97368,8.85876 19.59135,15.09943c6.845,5.60733 8.412,6.97719 19.109,16.69752c5.29867,4.815 8.98005,7.89555 9.31272,7.82622c0.298,-0.06233 2.27903,-0.36661 3.77103,-0.79661c5.865,-1.69067 17.22491,-2.94232 26.80358,-2.93799c10.17733,0.004 29.12998,2.36601 58.65565,7.30501l3.71713,0.543l5.48802,-3.02359c8.78467,-4.88433 15.7643,-9.04291 26.9583,-16.06158c5.86667,-3.67833 16.45827,-10.30539 23.5166,-14.71372c17.89433,-11.176 18.74826,-11.79818 19.75526,-13.11851c1.51067,-1.98067 1.5962,-4.01749 -0.4938,-12.64482c-1.02,-4.21167 -3.0833,-12.81996 -4.56897,-19.05329c-2.498,-10.47867 -17.51755,-70.91657 -17.81122,-71.67024c-0.07167,-0.18333 -1.80036,0.26839 -1.81469,0.54939z" data-paper-data="{&quot;wickUUID&quot;:&quot;ab87d6a7-ef3a-4aaa-b8be-d1cd3e3cf8c9&quot;,&quot;wickType&quot;:&quot;path&quot;}" fill="#333333"/><path d="M287.84701,171.9143c-11.302,5.887 -21.449,14.763 -45.322,39.644c-22.799,23.76 -27.148,28.97 -28.006,33.543c-0.806,4.295 0.243,36.484 1.947,59.752l1.192,16.285l2.886,2.068c16.55,11.857 32.197,24.387 43.804,35.078c7.708,7.1 15.016,13.227 16.24,13.616c1.56,0.495 3.006,0.079 4.835,-1.392c4.257,-3.423 6.477,-3.975 18.719,-4.656c12.952,-0.721 24.826,0.307 49.366,4.272c22.945,3.707 22.871,3.714 35.218,-3.339c5.729,-3.272 16.89,-10.103 24.802,-15.179c7.911,-5.076 20.858,-13.239 28.77,-18.139c7.911,-4.9 15.382,-9.535 16.601,-10.3c1.219,-0.765 2.483,-2.452 2.808,-3.75c0.698,-2.779 -3.531,-21.478 -18.587,-82.188c-12.338,-49.749 -12.178,-49.356 -20.053,-49.356c-4.69,0 -24.256,-3.191 -63.607,-10.374c-13.095,-2.39 -27.157,-4.847 -31.25,-5.46c-4.092,-0.612 -11.641,-1.988 -16.775,-3.057c-5.134,-1.068 -10.491,-1.914 -11.905,-1.878c-1.413,0.035 -6.671,2.2 -11.683,4.81zM315.07201,180.3793c7.499,1.335 29.929,5.34 49.845,8.9c19.915,3.559 40.88,7.169 46.588,8.022c5.708,0.852 10.663,2.011 11.012,2.575c0.626,1.013 20.13,79.335 25.601,102.802c3.311,14.208 4.627,11.771 -11.773,21.809c-6.275,3.84 -18.551,11.568 -27.282,17.172c-8.73,5.604 -20.276,12.599 -25.658,15.545l-9.786,5.357l-12.039,-2.004c-18.998,-3.161 -42.753,-6.018 -50.051,-6.018c-8.293,0 -22.29,1.601 -27.137,3.104l-3.639,1.129l-12.379,-11.407c-10.635,-9.8 -32.421,-27.21 -37.85,-30.248c-0.98,-0.549 -2.084,-2.918 -2.569,-5.514c-1.16,-6.207 -2.918,-38.167 -2.919,-53.054v-12.161l8.169,-9.169c11.753,-13.19 37.325,-39.128 45.153,-45.798c5.856,-4.991 19.856,-13.469 22.24,-13.469c0.462,0 6.976,1.092 14.474,2.427z" data-paper-data="{&quot;wickUUID&quot;:&quot;d7a9fc2b-2d15-4531-911d-49d2868e021c&quot;,&quot;wickType&quot;:&quot;path&quot;}" fill="#000000"/><path d="M409.90401,344.90198c-2.363,1.334 -11.095,11.106 -15.721,17.594c-3.919,5.496 -20.153,20.859 -24.534,23.219l-3.449,1.857l-9.322,-6.945c-12.248,-9.125 -18.367,-12.984 -29.164,-18.391c-11.617,-5.817 -14.615,-6.474 -17.296,-3.793c-4.312,4.312 -3.086,5.642 12.376,13.409c7.843,3.939 17.306,9.782 24.266,14.98c6.274,4.688 13.134,9.42 15.244,10.516l3.836,1.993l6.457,-3.179c7.186,-3.537 25.349,-20.23 31.706,-29.139c1.98,-2.773 5.695,-7.275 8.257,-10.003c6.04,-6.432 6.517,-7.934 3.483,-10.968c-2.746,-2.746 -3.17,-2.825 -6.139,-1.15z" data-paper-data="{&quot;wickUUID&quot;:&quot;dac2abb1-7155-4ee5-b6a0-0b1b5af8910b&quot;,&quot;wickType&quot;:&quot;path&quot;}" fill="#000000"/><path d="M328.21033,235.207c-7.264,1.278 -19.831,5.624 -25.611,8.856c-16.695,9.337 -23.38,22.894 -18.438,37.396c1.899,5.574 11.194,15.491 16.308,17.4c1.89,0.705 4.937,1.931 6.773,2.725c4.83,2.09 27.048,2.996 33.924,1.383c6.209,-1.456 27.307,-9.984 33.175,-13.409c4.677,-2.731 21.348,-16.648 22.581,-18.85c1.237,-2.211 -0.032,-5.271 -2.783,-6.713c-1.313,-0.688 -3.669,-3.253 -5.235,-5.7c-4.65,-7.265 -22.821,-16.886 -42.309,-22.4c-4.684,-1.326 -12.995,-1.637 -18.385,-0.688zM346.84333,247c2.029,0.873 6.674,2.623 10.322,3.888c12.989,4.504 24.616,12.748 24.616,17.454c0,2.766 -12.024,12.126 -19.619,15.273c-3.669,1.52 -9.795,4.149 -13.615,5.842c-6.762,2.998 -7.322,3.077 -21.329,3.01c-13.202,-0.064 -14.834,-0.275 -19.841,-2.576c-5.784,-2.656 -11.509,-7.748 -12.994,-11.557c-1.564,-4.011 -0.998,-10.148 1.317,-14.266c2.824,-5.024 14.484,-12.946 22.302,-15.152c3.159,-0.891 6.86,-2.009 8.224,-2.483c4.295,-1.495 16.613,-1.156 20.617,0.567z" data-paper-data="{&quot;wickUUID&quot;:&quot;cf8a635b-89bc-4d23-9afd-9e35efd6226b&quot;,&quot;wickType&quot;:&quot;path&quot;}" fill="#1d010f"/><path d="M328.46375,256.32527c-6.536,3.162 -10.154,10.418 -8.178,16.405c0.976,2.956 7.043,8.79 11.758,11.305c5.327,2.842 15.164,-1.081 19.792,-7.892c1.894,-2.788 2.234,-4.265 1.773,-7.705c-0.738,-5.512 -1.856,-7.491 -6.031,-10.675c-4.772,-3.64 -13.244,-4.278 -19.114,-1.438z" data-paper-data="{&quot;wickUUID&quot;:&quot;d7fd2ca3-0b79-4963-898d-0974cc300a16&quot;,&quot;wickType&quot;:&quot;path&quot;}" fill="#1d010f"/><path d="M325.50759,228.50049c-17.345,6.243 -39.956,22.915 -39.956,29.462c0,1.84 3.62,5.307 5.542,5.307c0.866,0 4.326,-2.638 7.689,-5.863c7.202,-6.906 17.859,-13.689 28.349,-18.043c4.14,-1.719 7.855,-3.628 8.256,-4.242c1.416,-2.171 0.732,-5.488 -1.446,-7.014c-2.661,-1.864 -2.09,-1.89 -8.434,0.393z" data-paper-data="{&quot;wickUUID&quot;:&quot;7bb7f4a6-9dda-4777-9177-4a80dbc9701c&quot;,&quot;wickType&quot;:&quot;path&quot;}" fill="#1d010f"/><path d="M382.49084,269.80149c-12.646,14.759 -23.315,22.395 -37.415,26.781c-6.225,1.936 -32.325,1.887 -41.667,-0.079c-8.008,-1.684 -10.495,-1.016 -11.527,3.096c-0.453,1.802 -0.095,3.058 1.228,4.317c3.044,2.896 16.645,4.988 32.432,4.988c14.738,0 21.331,-1.082 30.942,-5.078c15.43,-6.416 34.9,-23.786 35.174,-31.38c0.062,-1.714 -3.593,-5.208 -5.447,-5.208c-0.838,0 -2.512,1.153 -3.72,2.563z" data-paper-data="{&quot;wickUUID&quot;:&quot;4f6aeaf7-8da6-468f-9b52-d47c3eeb820d&quot;,&quot;wickType&quot;:&quot;path&quot;}" fill="#1d010f"/><path d="M358.96384,236.484c-3.899,3.9 -1.309,8.271 5.804,9.796c6.174,1.324 18.769,7.061 24.435,11.13c4.261,3.06 4.487,3.109 6.924,1.513c3.442,-2.255 3.351,-6.391 -0.216,-9.808c-3.445,-3.3 -19.804,-10.999 -27.746,-13.057c-7.425,-1.924 -6.823,-1.951 -9.201,0.426z" data-paper-data="{&quot;wickUUID&quot;:&quot;9ef053ec-1957-4538-864e-1bd79d87d327&quot;,&quot;wickType&quot;:&quot;path&quot;}" fill="#1d010f"/><path d="M273.6467,260.29395c-2.511,2.511 -2.495,4.983 0.088,13.211c2.006,6.392 6.129,11.59 9.192,11.59c3.968,0 7.511,-6.639 4.527,-8.483c-1.655,-1.023 -4.878,-9.2 -4.878,-12.376c0,-1.808 -0.801,-3.398 -2.205,-4.382c-2.914,-2.041 -4.336,-1.948 -6.724,0.44z" data-paper-data="{&quot;wickUUID&quot;:&quot;955249b0-d588-47cc-aede-9d648bc43c98&quot;,&quot;wickType&quot;:&quot;path&quot;}" fill="#1d010f"/><path d="M331.4347,231.02468c-2.699,1.939 -2.892,5.547 -0.418,7.786c2.139,1.935 10.09,2.238 11.876,0.451c1.581,-1.58 1.52,-6.23 -0.099,-7.573c-2.426,-2.014 -8.95,-2.395 -11.359,-0.664z" data-paper-data="{&quot;wickUUID&quot;:&quot;3e6760e2-726f-4509-852c-f8f6da56bc30&quot;,&quot;wickType&quot;:&quot;path&quot;}" fill="#1d010f"/><path d="M381.0107,249.93275c-3.129,2.192 -2.744,4.799 1.383,9.366c3.722,4.121 7.675,5.208 10.102,2.781c2.898,-2.898 0.231,-9.621 -4.86,-12.253c-3.477,-1.799 -3.915,-1.792 -6.625,0.106z" data-paper-data="{&quot;wickUUID&quot;:&quot;54c90623-9f4b-412c-a05d-92b9d7b022e9&quot;,&quot;wickType&quot;:&quot;path&quot;}" fill="#1d010f"/><path d="M286.1134,284.42821c-2.312,1.69 -2.366,6.719 -0.088,8.078c0.943,0.562 3.736,2.908 6.208,5.213c5.495,5.125 7.582,5.865 10.728,3.804c4.039,-2.646 3.115,-5.536 -3.931,-12.302c-6.586,-6.325 -9.396,-7.367 -12.917,-4.793z" data-paper-data="{&quot;wickUUID&quot;:&quot;a01beb68-f907-4aa4-9983-c535d9a0ec44&quot;,&quot;wickType&quot;:&quot;path&quot;}" fill="#1d010f"/><path d="M280.15114,255.55414c-1.909,2.726 -1.93,9.273 -0.055,17.128c1.963,8.223 5.378,10.506 9.521,6.364c1.639,-1.64 1.959,-2.851 1.505,-5.705c-0.316,-1.993 -0.863,-6.525 -1.214,-10.071c-0.352,-3.547 -1.322,-7.23 -2.156,-8.185c-2.095,-2.398 -5.75,-2.173 -7.601,0.469z" data-paper-data="{&quot;wickUUID&quot;:&quot;d125401e-16f3-4e3f-b77c-da5e72755b90&quot;,&quot;wickType&quot;:&quot;path&quot;}" fill="#1d010f"/></g><g fill="none" fill-rule="nonzero" stroke="none" stroke-width="1" stroke-linecap="butt" stroke-linejoin="miter" stroke-miterlimit="10" stroke-dasharray="" stroke-dashoffset="0" font-family="sans-serif" font-weight="normal" font-size="12" text-anchor="start" style="mix-blend-mode: normal"/><g id="wick_project_gui" fill="none" fill-rule="nonzero" stroke="none" stroke-width="1" stroke-linecap="butt" stroke-linejoin="miter" stroke-miterlimit="10" stroke-dasharray="" stroke-dashoffset="0" font-family="sans-serif" font-weight="normal" font-size="12" text-anchor="start" style="mix-blend-mode: normal"/></g></svg>