<svg version="1.1" xmlns="http://www.w3.org/2000/svg" xmlns:xlink="http://www.w3.org/1999/xlink" width="1107" height="504" viewBox="0,0,1107,504"><g transform="translate(102.04854,-40.9663) scale(1.18038,1.18038)"><g id="wick_project_bg" fill-opacity="0" fill="#ffffff" fill-rule="nonzero" stroke="none" stroke-width="1" stroke-linecap="butt" stroke-linejoin="miter" stroke-miterlimit="10" stroke-dasharray="" stroke-dashoffset="0" font-family="none" font-weight="none" font-size="none" text-anchor="none" style="mix-blend-mode: normal"><rect x="0" y="0" width="720" height="480"/></g><g data-paper-data="{&quot;wickUUID&quot;:&quot;f2e38638-44c9-4896-ab51-fc74f74cd43b&quot;,&quot;wickType&quot;:&quot;clipsandpaths&quot;}" fill="none" fill-rule="evenodd" stroke="none" stroke-width="1" stroke-linecap="butt" stroke-linejoin="miter" stroke-miterlimit="10" stroke-dasharray="" stroke-dashoffset="0" font-family="none" font-weight="none" font-size="none" text-anchor="none" style="mix-blend-mode: normal"><path d="M406.81264,302.54687c-10.12967,5.30467 -15.45527,8.45736 -20.86427,12.35169c-3.80267,2.73733 -4.16784,5.38005 -1.53817,3.83738c2.10433,-1.23467 12.82597,-5.94523 17.30164,-7.6029c2.475,-0.91667 7.32345,-2.53126 10.83878,-3.61159l6.49646,-2.0053l0.2179,-2.13556c-0.218,-1.19867 -2.18563,-3.92748 -3.06263,-4.72115c-0.60367,-0.54633 -1.43471,-0.27857 -9.38971,3.88743z" data-paper-data="{&quot;wickUUID&quot;:&quot;ffc5acb5-447c-4f75-aca1-c9d9e52e18fd&quot;,&quot;wickType&quot;:&quot;path&quot;,&quot;originalStyle&quot;:{&quot;strokeColor&quot;:null,&quot;fillColor&quot;:[&quot;Color&quot;,1,0.50196,0],&quot;strokeWidth&quot;:1}}" fill="#ff8000"/><path d="M424.9666,307.59277c-15.13133,4.45 -24.35171,7.59643 -30.64704,10.45876l-3.06443,2.45725l4.48241,1.24999c2.17967,0.485 5.06193,1.1956 6.39126,1.57593c1.32933,0.38 2.821,0.54662 2.821,0.38062c0,-0.505 3.10542,-1.87256 5.94275,-2.62723c5.94533,-1.58133 13.06352,-4.33012 19.26219,-7.43645c3.30033,-1.654 7.5332,-4.14476 8.21887,-4.76076c0.292,-0.26233 -2.75154,-4.15646 -3.25521,-4.12246c-0.30533,0.02067 -5.01847,1.31468 -10.1518,2.82435z" data-paper-data="{&quot;wickUUID&quot;:&quot;415419c2-7404-4320-abf4-4823e3cd26ee&quot;,&quot;wickType&quot;:&quot;path&quot;,&quot;originalStyle&quot;:{&quot;strokeColor&quot;:null,&quot;fillColor&quot;:[&quot;Color&quot;,1,0.50196,0],&quot;strokeWidth&quot;:1}}" fill="#ff8000"/><path d="M384.13095,356.27416c0.60133,0.26267 2.338,0.56321 3.75333,0.64888l3.52037,-0.56312l-3.16804,-1.60409c-1.375,-0.35567 -3.08965,-0.65151 -3.73132,-0.64384l-2.11553,0.73151z" data-paper-data="{&quot;wickUUID&quot;:&quot;1339de94-dbc7-4e30-aaff-d101c7567b54&quot;,&quot;wickType&quot;:&quot;path&quot;,&quot;originalStyle&quot;:{&quot;strokeColor&quot;:null,&quot;fillColor&quot;:[&quot;Color&quot;,0.50196,0,1],&quot;strokeWidth&quot;:1}}" fill="#8000ff"/><path d="M370.30121,323.46748c-1.87467,1.27467 -4.51128,4.68547 -5.80595,7.53847c-0.91633,2.01933 -1.15305,3.06802 -1.08772,5.14102c0.05967,1.90267 0.43297,3.25636 1.1863,4.66236c1.14833,2.14433 5.83266,6.95595 8.02166,8.23695c1.545,0.904 2.07617,1.10159 2.93384,0.53959c1.23633,-0.81 5.33067,-0.50291 11.11234,0.83309c9.18467,2.12267 17.99504,2.84958 21.52737,1.80225c3.88567,-1.152 6.39655,-2.89039 7.77222,-5.58739c0.75267,-1.47567 1.01213,-2.53183 0.8878,-5.1355c-0.119,-2.485 -0.4529,-3.6632 -1.41957,-5.56753c-1.343,-2.64567 -3.36659,-4.43133 -6.76626,-6.14566c-6.126,-3.08933 -21.09727,-6.34074 -33.2886,-7.22507c-2.916,-0.21167 -3.7151,-0.01625 -5.07343,0.90742zM377.66446,330.20978c0.761,0.94 1.00925,2.66187 0.82958,6.0862c-0.17667,3.36633 -0.14003,3.53367 -2.25236,3.589c-1.74,0.04567 -1.89407,-0.16267 -2.32574,-1.71667c-0.78167,-2.81433 -0.18851,-6.85722 1.17716,-8.22289c0.69133,-0.69133 0.18614,-0.23492 1.35747,-0.07759c0.84033,0.11267 0.86956,-0.08305 1.21389,0.34195zM390.823,338.47301c1.08067,1.08067 1.503,2.70228 1.53333,5.94528c0.029,3.097 0.54065,3.338 -1.13735,3.338c-1.73067,0 -2.46723,-1.48041 -2.8639,-4.85408c-0.262,-2.23 0.30353,-3.71808 1.6172,-4.53241c1.19667,-0.742 -0.08861,-0.83612 0.85072,0.10321z" data-paper-data="{&quot;wickUUID&quot;:&quot;97185b37-dccc-4a76-9846-93eec8c2040a&quot;,&quot;wickType&quot;:&quot;path&quot;,&quot;originalStyle&quot;:{&quot;strokeColor&quot;:null,&quot;fillColor&quot;:[&quot;Color&quot;,1,1,1],&quot;strokeWidth&quot;:1}}" fill="#ffffff"/><path d="M366.53182,320.73858c-2.137,1.749 -4.232,4.299 -5.65,6.879c-1.963,3.571 -2.254,4.679 -2.254,8.569c0,4.351 0.084,4.582 3.201,8.751c1.761,2.356 4.842,5.458 6.847,6.894c5.523,3.954 11.972,5.516 14.079,3.41c0.86,-0.861 1.387,-0.864 4.611,-0.024c6.927,1.804 16.678,2.555 21.071,1.623c8.361,-1.774 13.11,-7.283 12.991,-15.072c-0.081,-5.381 -2.318,-10.428 -5.866,-13.238c-6.073,-4.81 -22.951,-9.262 -38.53,-10.162l-7.103,-0.41l-3.397,2.78zM379.13882,323.61958c9.341,0.806 20.803,3.264 27.573,5.913c5.056,1.979 7.891,4.786 9.127,9.037c1.844,6.343 -0.825,10.983 -7.425,12.906c-3.134,0.913 -4.487,0.952 -10.194,0.291c-3.619,-0.42 -8.704,-1.303 -11.301,-1.962c-7.077,-1.797 -10.065,-2.039 -11.197,-0.907c-0.85,0.85 -1.326,0.692 -4.139,-1.374c-4.71,-3.457 -7.789,-8.049 -7.789,-11.617c0,-5.425 6.778,-14.034 10.179,-12.927c0.448,0.146 2.773,0.434 5.166,0.64z" data-paper-data="{&quot;wickUUID&quot;:&quot;6c751cad-8e97-4860-a57a-c11b9c79f967&quot;,&quot;wickType&quot;:&quot;path&quot;,&quot;originalStyle&quot;:{&quot;strokeColor&quot;:null,&quot;fillColor&quot;:[&quot;Color&quot;,0,0,0],&quot;strokeWidth&quot;:1}}" fill="#000000"/><path d="M430.30711,301.4086c-26.631,7.97 -30.68,9.355 -39.868,13.636c-9.65,4.496 -10.999,5.539 -10.124,7.821c0.697,1.816 3.068,1.197 11.981,-3.129c7.986,-3.876 18.965,-7.619 38.444,-13.106l4.629,-1.304l1.41,1.5l1.409,1.501l-2.511,1.585c-6.578,4.152 -17.073,8.549 -25.694,10.763c-2.476,0.636 -4.784,1.603 -5.128,2.149c-0.978,1.549 0.701,3.039 3.414,3.028c5.608,-0.023 29.459,-9.936 33.409,-13.885c2.61,-2.611 2.128,-5.45 -1.523,-8.967c-1.687,-1.624 -3.648,-2.93 -4.359,-2.901c-0.71,0.029 -3.18,0.618 -5.489,1.309z" data-paper-data="{&quot;wickUUID&quot;:&quot;468cb284-2f97-497f-b2db-de88db586606&quot;,&quot;wickType&quot;:&quot;path&quot;,&quot;originalStyle&quot;:{&quot;strokeColor&quot;:null,&quot;fillColor&quot;:[&quot;Color&quot;,0,0,0],&quot;strokeWidth&quot;:1}}" fill="#000000"/><path d="M409.96563,295.90522c-14.915,7.604 -20.124,10.634 -26.584,15.465c-3.967,2.965 -7.405,6 -7.642,6.744c-0.467,1.474 0.614,3.228 1.991,3.228c0.474,0 3.997,-2.398 7.828,-5.328c4.784,-3.66 10.601,-7.213 18.581,-11.35l11.616,-6.023l1.461,1.825c0.803,1.004 1.462,2.424 1.464,3.155c0.005,2.105 1.497,3.664 3.268,3.414c1.374,-0.194 1.603,-0.602 1.769,-3.144c0.166,-2.543 -0.152,-3.401 -2.457,-6.619c-2.282,-3.187 -2.933,-3.696 -4.711,-3.685c-1.135,0.007 -4.098,1.05 -6.584,2.318z" data-paper-data="{&quot;wickUUID&quot;:&quot;453587d0-0ef1-4432-9b52-51de0be1046d&quot;,&quot;wickType&quot;:&quot;path&quot;,&quot;originalStyle&quot;:{&quot;strokeColor&quot;:null,&quot;fillColor&quot;:[&quot;Color&quot;,0,0,0],&quot;strokeWidth&quot;:1}}" fill="#000000"/><path d="M373.54358,331.12441c-1.041,2.987 -0.884,7.385 0.306,8.575c1.204,1.205 3.581,1.327 4.668,0.24c0.949,-0.949 1.026,-7.88 0.106,-9.599c-0.422,-0.789 -1.35,-1.25 -2.52,-1.25c-1.496,0 -1.987,0.391 -2.56,2.034z" data-paper-data="{&quot;wickUUID&quot;:&quot;449a337b-b4d2-432a-aac1-084e1ecf9084&quot;,&quot;wickType&quot;:&quot;path&quot;,&quot;originalStyle&quot;:{&quot;strokeColor&quot;:null,&quot;fillColor&quot;:[&quot;Color&quot;,0,0,0],&quot;strokeWidth&quot;:1}}" fill="#000000"/><path d="M388.70187,338.50027c-2.301,2.301 -0.67,9.963 2.122,9.963c2.111,0 2.652,-1.306 2.254,-5.435c-0.481,-4.978 -2.174,-6.73 -4.376,-4.528z" data-paper-data="{&quot;wickUUID&quot;:&quot;c2cd711d-3bd1-438d-af49-8e971370a38d&quot;,&quot;wickType&quot;:&quot;path&quot;,&quot;originalStyle&quot;:{&quot;strokeColor&quot;:null,&quot;fillColor&quot;:[&quot;Color&quot;,0,0,0],&quot;strokeWidth&quot;:1}}" fill="#000000"/><path d="M333.9743,332.13193c-2.146,0.328 -3.279,1.626 -3.002,3.44c0.205,1.348 0.549,1.396 12.48,1.722c22.931,0.626 20.636,0.759 20.863,-1.206c0.254,-2.194 0.016,-2.265 -11.551,-3.441c-8.941,-0.91 -15.106,-1.079 -18.79,-0.515z" data-paper-data="{&quot;wickUUID&quot;:&quot;e8e59189-36b5-4d60-ad37-1b4d1c6ae8f1&quot;,&quot;wickType&quot;:&quot;path&quot;,&quot;originalStyle&quot;:{&quot;strokeColor&quot;:null,&quot;fillColor&quot;:[&quot;Color&quot;,0,0,0],&quot;strokeWidth&quot;:1}}" fill="#000000"/><path d="M436.4423,333.41046c-5.178,0.341 -15.957,2.207 -18.287,3.165c-1.799,0.74 -2.11,1.169 -1.938,2.672c0.244,2.122 0.868,2.16 8.601,0.526c2.841,-0.6 9.816,-1.433 15.498,-1.851c10.15,-0.746 10.336,-0.787 10.551,-2.301c0.119,-0.848 -0.171,-1.788 -0.646,-2.089c-0.826,-0.523 -6.872,-0.576 -13.779,-0.122z" data-paper-data="{&quot;wickUUID&quot;:&quot;987811dd-3036-44fa-8304-5b105d7b18b1&quot;,&quot;wickType&quot;:&quot;path&quot;,&quot;originalStyle&quot;:{&quot;strokeColor&quot;:null,&quot;fillColor&quot;:[&quot;Color&quot;,0,0,0],&quot;strokeWidth&quot;:1}}" fill="#000000"/><path d="M360.18459,339.74355c-1.842,2.811 -0.737,5.791 3.821,10.303c3.384,3.35 5.212,4.496 12.113,7.595c10.023,4.501 13.524,5.039 22.051,3.39c9.224,-1.783 12.467,-3.637 12.01,-6.864c-0.262,-1.85 -2.73,-2.382 -4.331,-0.933c-1.918,1.736 -9.056,3.273 -14.933,3.216c-5.09,-0.05 -5.934,-0.262 -11.623,-2.925c-3.374,-1.579 -7.05,-3.356 -8.169,-3.949c-2.925,-1.552 -6.828,-6.305 -6.429,-7.831c0.861,-3.291 -2.646,-4.848 -4.51,-2.002z" data-paper-data="{&quot;wickUUID&quot;:&quot;7735ec58-a19b-4900-a6c9-060eb7e4c5e6&quot;,&quot;wickType&quot;:&quot;path&quot;,&quot;originalStyle&quot;:{&quot;strokeColor&quot;:null,&quot;fillColor&quot;:[&quot;Color&quot;,0,0,0],&quot;strokeWidth&quot;:1}}" fill="#000000"/><path d="M407.1892,353.11331c-1.237,1.236 -0.9,3.078 0.678,3.706c0.799,0.319 3.85,1.238 6.78,2.044c2.931,0.806 5.328,1.795 5.328,2.198c0,0.403 -1.308,2.097 -2.906,3.765c-4.598,4.799 -3.883,5.966 4.056,6.628c5.386,0.449 7.245,-0.074 7.245,-2.036c0,-1.464 -1.956,-2.873 -3.988,-2.873h-1.958l2.004,-2.283c1.937,-2.205 2.497,-4.377 1.51,-5.854c-0.753,-1.129 -3.069,-2.165 -9.355,-4.185c-6.43,-2.067 -8.225,-2.279 -9.394,-1.11z" data-paper-data="{&quot;wickUUID&quot;:&quot;139faee9-9222-4a2f-9c72-15bce3d40375&quot;,&quot;wickType&quot;:&quot;path&quot;,&quot;originalStyle&quot;:{&quot;strokeColor&quot;:null,&quot;fillColor&quot;:[&quot;Color&quot;,0,0,0],&quot;strokeWidth&quot;:1}}" fill="#000000"/><path d="M363.14768,348.48398c-5.085,0.947 -8.567,2.224 -9.299,3.412c-0.578,0.938 -0.019,2.461 3.003,8.181c2.043,3.865 3.713,7.193 3.713,7.394c0,0.201 -1.722,0.366 -3.828,0.366c-4.919,0 -7.363,2.111 -5.083,4.391c0.909,0.909 13.254,1.072 14.643,0.193c1.634,-1.036 0.914,-3.774 -2.821,-10.738c-3.925,-7.317 -3.953,-8.017 -0.328,-8.047c0.888,-0.007 2.722,-0.321 4.074,-0.696c2.261,-0.628 2.444,-0.85 2.261,-2.741c-0.228,-2.347 -1.332,-2.646 -6.335,-1.715z" data-paper-data="{&quot;wickUUID&quot;:&quot;0d52a8cd-9661-4a19-accd-d67e7605a7e2&quot;,&quot;wickType&quot;:&quot;path&quot;,&quot;originalStyle&quot;:{&quot;strokeColor&quot;:null,&quot;fillColor&quot;:[&quot;Color&quot;,0,0,0],&quot;strokeWidth&quot;:1}}" fill="#000000"/></g><g fill="none" fill-rule="nonzero" stroke="none" stroke-width="1" stroke-linecap="butt" stroke-linejoin="miter" stroke-miterlimit="10" stroke-dasharray="" stroke-dashoffset="0" font-family="sans-serif" font-weight="normal" font-size="12" text-anchor="start" style="mix-blend-mode: normal"/><g id="wick_project_gui" fill="none" fill-rule="nonzero" stroke="none" stroke-width="1" stroke-linecap="butt" stroke-linejoin="miter" stroke-miterlimit="10" stroke-dasharray="" stroke-dashoffset="0" font-family="sans-serif" font-weight="normal" font-size="12" text-anchor="start" style="mix-blend-mode: normal"/></g></svg>