<svg version="1.1" xmlns="http://www.w3.org/2000/svg" xmlns:xlink="http://www.w3.org/1999/xlink" width="1107" height="504" viewBox="0,0,1107,504"><g transform="translate(102.04854,-40.9663) scale(1.18038,1.18038)"><g id="wick_project_bg" fill-opacity="0" fill="#ffffff" fill-rule="nonzero" stroke="none" stroke-width="1" stroke-linecap="butt" stroke-linejoin="miter" stroke-miterlimit="10" stroke-dasharray="" stroke-dashoffset="0" font-family="none" font-weight="none" font-size="none" text-anchor="none" style="mix-blend-mode: normal"><rect x="0" y="0" width="720" height="480"/></g><g data-paper-data="{&quot;wickUUID&quot;:&quot;147c8c60-0f8c-4280-9d8d-9a87fc7ee9f3&quot;,&quot;wickType&quot;:&quot;clipsandpaths&quot;}" fill="none" fill-rule="evenodd" stroke="none" stroke-width="1" stroke-linecap="butt" stroke-linejoin="miter" stroke-miterlimit="10" stroke-dasharray="" stroke-dashoffset="0" font-family="none" font-weight="none" font-size="none" text-anchor="none" style="mix-blend-mode: normal"><path d="M369.46035,176.85633c3.58361,0.9267 10.98825,7.61949 16.16786,14.61449l2.66626,3.68423l0.29435,7.26448l0.26598,7.17525l-1.06354,2.92007c-0.76007,2.03782 -1.75624,3.54577 -4.25255,6.58339c-3.76036,4.57571 -4.70842,5.09159 -6.526,3.47064l-1.67666,-1.11667l-2.07211,0.37414c-1.32162,0.20442 -3.64561,0.6812 -5.13298,1.0542c-2.07357,0.51978 -3.51775,0.59402 -4.87692,0.42662c-4.67919,-0.5769 -8.87975,-2.66421 -12.06018,-5.98695c-0.94464,-0.98687 -3.07179,-3.7572 -4.48649,-5.91489l-2.70385,-4.20621l0.21192,-5.72253c0.32413,-7.9469 1.60305,-12.17649 4.46355,-15.08471c1.77468,-1.80412 7.71021,-5.96653 10.34275,-7.20252c1.95831,-0.91966 7.24169,-2.70274 8.15464,-2.74664c0.27487,-0.01343 1.71926,0.26744 2.28397,0.41361zM364.72676,197.3019c-1.36566,0.863 -2.33999,2.17093 -2.38354,3.8476c-0.08145,3.15578 2.4569,6.05563 5.27001,6.1286c1.13575,0.02915 0.21104,0.36188 0.59626,-0.1546c1.11129,-1.49007 1.1923,-5.98442 0.12579,-7.65634c-0.59306,-0.92964 -1.72936,-1.72312 -2.83794,-2.21534c-0.87789,-0.38974 0.2658,-0.60475 -0.77058,0.05008zM349.38699,201.35609c-1.46741,1.41517 -1.03765,3.96328 0.78945,5.97251c1.38782,1.52632 0.96235,1.39196 2.50691,0.82932c1.72519,-0.62881 1.73988,-0.89999 1.53757,-3.23692c-0.14507,-1.67573 0.07323,-1.25092 -0.96255,-2.24328c-1.90918,-1.82882 -2.68899,-2.46186 -3.87138,-1.32163z" data-paper-data="{&quot;wickUUID&quot;:&quot;5a193e4f-2dea-45f5-b314-8eebf647eb49&quot;,&quot;wickType&quot;:&quot;path&quot;,&quot;originalStyle&quot;:{&quot;strokeColor&quot;:null,&quot;fillColor&quot;:[&quot;Color&quot;,1,1,1],&quot;strokeWidth&quot;:1}}" fill="#ffffff"/><path d="M389.05987,223.9963c0.43384,1.2586 2.42523,5.4595 4.42896,9.34282c3.87159,7.50337 7.07625,14.5865 11.14937,24.6303c3.72731,9.19144 4.0976,10.64505 4.43885,17.60522l0.29401,6.11635l-1.57716,1.89539c-1.87915,1.9925 -4.76924,4.45676 -7.11849,6.07039l-2.35134,1.56393l-3.7904,0.19127c-3.13023,0.14419 -4.08107,0.01294 -7.45761,-0.96046c-4.03362,-1.16244 -13.66531,-4.85101 -15.13301,-5.79662c-1.52902,-0.98547 0.14444,-2.31966 2.94477,-1.03005c4.34132,1.99969 5.40273,2.27416 6.37517,0.99284c0.80339,-1.05824 0.42716,-1.35627 -0.65816,-2.32962c-0.9054,-0.81194 -10.30414,-4.6038 -12.07259,-4.87662l-1.47557,-0.68475l-0.0838,-3.34507c-0.12111,-8.259 0.20914,-13.96153 1.415,-24.42319c0.84101,-7.29806 1.18778,-13.4795 0.92573,-16.50651c-0.11293,-1.30445 0.288,-2.65227 0.55395,-2.75325c0.22257,-0.08418 2.07451,-0.60152 3.79028,-0.9759c3.29627,-0.71898 7.75661,-2.30152 9.40139,-3.34126c0.54055,-0.34157 1.44094,-1.23448 2.28976,-2.18925l2.34264,-1.96334z" data-paper-data="{&quot;wickUUID&quot;:&quot;34195094-99a0-4732-8881-754ff550a083&quot;,&quot;wickType&quot;:&quot;path&quot;,&quot;originalStyle&quot;:{&quot;strokeColor&quot;:null,&quot;fillColor&quot;:[&quot;Color&quot;,0.50196,0,1],&quot;strokeWidth&quot;:1}}" fill="#8000ff"/><path d="M381.05307,125.96451c1.70917,2.53302 3.26448,5.21162 3.2731,5.31125c0.0086,0.0993 -1.92204,8.57042 -4.26532,18.64339c-2.34331,10.07264 -4.50052,19.55986 -4.79488,21.08727l-0.64733,3.04696l-1.84202,-0.20434c-1.26205,-0.81184 -4.2225,-1.58683 -5.60533,-1.46712l-1.68098,-0.18975l-0.08297,-2.10826c0.05466,-0.78698 0.57489,-3.59377 1.15353,-6.22013c0.57831,-2.62634 1.34101,-6.89137 1.6941,-9.47177c0.61811,-4.52016 1.13492,-7.19466 3.23466,-16.76475c1.7692,-8.06264 4.20151,-16.2009 4.81156,-16.25371c0.13781,-0.01193 3.04268,2.05761 4.75188,4.59096z" data-paper-data="{&quot;wickUUID&quot;:&quot;c6bc8c40-bb53-44a3-81a2-3270bf501120&quot;,&quot;wickType&quot;:&quot;path&quot;,&quot;originalStyle&quot;:{&quot;strokeColor&quot;:null,&quot;fillColor&quot;:[&quot;Color&quot;,1,0.50196,0],&quot;strokeWidth&quot;:1}}" fill="#ff8000"/><path d="M361.74159,126.62611c2.30697,1.44207 7.07681,4.95191 7.09898,5.20795c0.01291,0.14911 -0.09027,2.01882 -0.44672,3.28897c-0.92973,3.31286 -2.55905,11.68728 -3.46208,17.79359c-0.42706,2.88927 -1.25365,7.45486 -1.84132,10.17401c-0.71471,3.30764 -1.04803,5.78074 -1.02059,7.58175l-0.06387,3.02632l-2.52782,1.10854c-1.91905,0.68139 -2.92852,-0.1653 -2.83195,-0.87394c1.87423,-13.70941 2.68553,-29.15515 2.31326,-44.01776c-0.04489,-1.79013 0.12899,-3.6297 0.25917,-3.64097c0.13018,-0.01127 1.94109,-0.01196 2.52294,0.35154z" data-paper-data="{&quot;wickUUID&quot;:&quot;30a8e8f6-18d6-42a5-89cb-22785182914b&quot;,&quot;wickType&quot;:&quot;path&quot;,&quot;originalStyle&quot;:{&quot;strokeColor&quot;:null,&quot;fillColor&quot;:[&quot;Color&quot;,1,0.50196,0],&quot;strokeWidth&quot;:1}}" fill="#ff8000"/><path d="M407.78339,289.63114c0.49957,0.5068 0.80337,1.44208 0.67288,2.07971c-4.77556,23.40009 -9.06114,48.04254 -8.44419,48.56026c0.17437,0.14751 1.75907,0.33052 3.51922,0.40699c3.81151,0.16588 4.87605,0.75225 5.05191,2.78365c0.09531,1.10088 -0.32182,1.67399 -1.51669,2.08658c-1.87426,0.64606 -10.4986,-0.00552 -11.88684,-0.89912c-1.23837,-0.79716 -1.1077,-2.10531 1.93951,-19.38251c5.45688,-30.93894 6.59194,-35.82203 8.42796,-36.24898c0.7291,-0.16952 1.73567,0.10671 2.23624,0.61342z" data-paper-data="{&quot;wickUUID&quot;:&quot;0faef429-784c-4879-8811-a97033614fbd&quot;,&quot;wickType&quot;:&quot;path&quot;,&quot;originalStyle&quot;:{&quot;strokeColor&quot;:null,&quot;fillColor&quot;:[&quot;Color&quot;,0,0,0],&quot;strokeWidth&quot;:1}}" fill="#000000"/><path d="M360.63082,274.96104c4.54124,0.50219 13.16941,3.12279 18.27474,5.5495c2.20359,1.04785 2.9938,1.80451 3.09428,2.96517c0.24288,2.80551 -2.18079,3.4359 -5.70539,1.48261c-4.89523,-2.7129 -19.32875,-6.1418 -19.19179,-4.55972c0.04442,0.51308 17.02146,16.33679 20.36392,18.98036c2.70463,2.1397 2.95421,4.16472 1.12362,9.09498c-1.20305,3.23983 -1.57295,3.67436 -3.08835,3.6309c-2.20175,-0.06434 -2.89016,-2.76402 -1.5156,-5.94744l0.95489,-2.2106l-6.27247,-5.53162c-11.45702,-10.10249 -15.7699,-14.45974 -16.99797,-17.16691c-1.51755,-3.34959 -1.57436,-4.07539 -0.42864,-5.43829c1.0893,-1.29578 3.43374,-1.50778 9.38876,-0.84894z" data-paper-data="{&quot;wickUUID&quot;:&quot;2cb22d23-0506-4770-b0ce-8e058e08520f&quot;,&quot;wickType&quot;:&quot;path&quot;,&quot;originalStyle&quot;:{&quot;strokeColor&quot;:null,&quot;fillColor&quot;:[&quot;Color&quot;,0,0,0],&quot;strokeWidth&quot;:1}}" fill="#000000"/><path d="M392.14256,221.0024c0.43064,0.89319 1.04012,2.39121 1.35414,3.32862c0.31402,0.93741 1.7181,3.57915 3.11997,5.87078c3.67332,6.00154 5.16115,9.14694 11.11683,23.49473l5.32511,12.82651l0.39039,7.74419c0.45711,9.04829 0.00205,10.60936 -4.20432,14.4043c-9.18175,8.28378 -16.69224,11.25763 -16.40502,6.49411c0.04952,-0.81932 0.50624,-1.73512 1.01517,-2.03614c7.02643,-4.15952 9.80985,-6.12994 12.12601,-8.58184l2.75845,-2.91979l-0.37278,-6.86844c-0.37301,-6.85939 -0.37924,-6.88495 -5.50587,-19.5289c-2.82302,-6.96246 -6.50723,-15.16527 -8.18871,-18.22866c-7.36822,-13.42352 -8.30235,-16.60782 -5.06518,-17.26748c1.39476,-0.28335 1.91097,-0.02492 2.53581,1.26801z" data-paper-data="{&quot;wickUUID&quot;:&quot;9deb4e20-5a43-4bf6-bda9-590810165a52&quot;,&quot;wickType&quot;:&quot;path&quot;,&quot;originalStyle&quot;:{&quot;strokeColor&quot;:null,&quot;fillColor&quot;:[&quot;Color&quot;,0,0,0],&quot;strokeWidth&quot;:1}}" fill="#000000"/><path d="M368.53093,228.41852c0.40209,0.22717 0.93099,0.84084 1.17608,1.36465c0.78068,1.66688 0.41533,12.63526 -0.65375,19.62552c-1.21012,7.91185 -1.83721,20.541 -1.31556,26.52029c0.54299,6.23741 1.57306,7.28346 10.71795,10.88715c8.45192,3.33245 14.47949,4.7599 17.03872,4.03748c3.42536,-0.96704 5.43193,1.59645 3.16117,4.0394c-2.38282,2.56307 -10.07245,1.42706 -22.07163,-3.2625c-8.18956,-3.20059 -9.23269,-3.841 -11.85786,-7.27739c-1.76718,-2.31421 -1.84384,-2.67795 -2.14543,-10.18491c-0.34505,-8.60029 0.22861,-18.21761 1.53804,-25.77069c0.47061,-2.71471 0.86673,-7.95941 0.8791,-11.65425c0.02549,-7.75209 0.90007,-9.81219 3.53317,-8.32475z" data-paper-data="{&quot;wickUUID&quot;:&quot;6a4ab1a2-32a6-43c2-8865-b23bf5fdd820&quot;,&quot;wickType&quot;:&quot;path&quot;,&quot;originalStyle&quot;:{&quot;strokeColor&quot;:null,&quot;fillColor&quot;:[&quot;Color&quot;,0,0,0],&quot;strokeWidth&quot;:1}}" fill="#000000"/><path d="M370.18242,172.03308c5.18933,1.58834 12.35017,7.72359 18.21047,15.6015l3.54752,4.7688l0.91892,8.16818c0.70714,6.27841 0.74041,8.90031 0.14273,11.32991c-1.00794,4.10222 -5.87156,11.4009 -9.14094,13.71751c-3.10383,2.1999 -10.97818,4.5187 -17.16006,5.05387c-4.58186,0.39666 -6.13134,-0.09854 -6.30218,-2.01394c-0.05162,-0.58473 -1.3952,-1.40289 -3.24963,-1.97709c-4.27306,-1.32338 -10.18625,-6.5077 -13.85866,-12.15099c-2.94667,-4.52973 -2.98686,-4.65774 -3.43926,-11.05456c-0.39144,-5.54189 -0.23611,-7.23761 1.08509,-11.80257c0.84927,-2.93217 2.273,-6.16201 3.16472,-7.1777c2.58663,-2.94507 11.27666,-8.95497 14.61282,-10.106c1.68023,-0.58008 4.07898,-1.41708 5.33038,-1.86067c2.71599,-0.96384 4.21508,-1.08559 6.13808,-0.49625zM362.39362,178.5401c-3.3159,0.9676 -6.32951,2.71402 -11.37097,6.59029c-4.31586,3.3186 -5.94837,7.5572 -6.1703,16.01988l-0.15336,5.8691l2.92641,4.58569c4.09336,6.41285 8.47404,9.82573 13.85463,10.79427c3.4636,0.62259 4.70485,0.58339 7.03692,-0.22376c4.57365,-1.58137 7.8721,-1.64911 8.48574,-0.17253c0.90038,2.16842 2.56612,1.2122 6.48314,-3.72203c4.59211,-5.78562 5.14787,-7.92253 4.37655,-16.8322l-0.57322,-6.62123l-3.37616,-4.55177c-3.7219,-5.0207 -10.75677,-11.41679 -13.95664,-12.69155c-1.13104,-0.45013 -2.62192,-0.61616 -3.31306,-0.36762c-0.69123,0.24754 -2.60401,0.84273 -4.24968,1.32346z" data-paper-data="{&quot;wickUUID&quot;:&quot;fbf7bd5c-ca3d-49cc-ae89-aaeb1f615618&quot;,&quot;wickType&quot;:&quot;path&quot;,&quot;originalStyle&quot;:{&quot;strokeColor&quot;:null,&quot;fillColor&quot;:[&quot;Color&quot;,0,0,0],&quot;strokeWidth&quot;:1}}" fill="#000000"/><path d="M420.42039,206.91279c2.51727,0.25383 5.4845,0.40648 6.59377,0.33855c2.45718,-0.15049 3.84382,1.09556 3.40342,3.05786c-0.31439,1.40033 -0.50227,1.4447 -5.92985,1.38259c-12.78331,-0.147 -24.38986,2.55111 -32.36073,7.52312c-4.78539,2.98486 -6.45455,3.05508 -7.11366,0.29966c-0.24698,-1.03255 0.51516,-1.87542 3.57355,-3.95094c3.88604,-2.63699 9.81888,-4.90113 19.93812,-7.60799c6.25014,-1.6713 5.94428,-1.64482 11.89538,-1.04285z" data-paper-data="{&quot;wickUUID&quot;:&quot;25fb71ff-529d-418c-b60b-ac9bec14a524&quot;,&quot;wickType&quot;:&quot;path&quot;,&quot;originalStyle&quot;:{&quot;strokeColor&quot;:null,&quot;fillColor&quot;:[&quot;Color&quot;,0,0,0],&quot;strokeWidth&quot;:1}}" fill="#000000"/><path d="M445.63038,204.6972c2.30942,0.7747 6.47802,5.12337 6.63353,6.91965c0.05287,0.61072 -0.24064,1.42907 -0.65254,1.81905c-1.7064,1.61118 -10.69541,2.93842 -18.40528,2.71656c-2.59111,-0.0748 -4.35151,0.2633 -6.37632,1.22251c-6.14458,2.91382 -9.58053,4.38465 -10.40445,4.45598c-0.47522,0.04114 -1.49371,-0.45386 -2.2633,-1.09989c-2.15864,-1.81559 -2.15404,-5.21766 0.01055,-8.44639c2.2241,-3.31819 6.66611,-5.23746 12.95244,-5.59799c2.35018,-0.1342 5.98222,-0.71964 8.07087,-1.30095c4.95358,-1.37838 7.81689,-1.56804 10.4345,-0.68853z" data-paper-data="{&quot;wickUUID&quot;:&quot;9bc4231f-ec72-4829-b690-c0342248cfa2&quot;,&quot;wickType&quot;:&quot;path&quot;,&quot;originalStyle&quot;:{&quot;strokeColor&quot;:null,&quot;fillColor&quot;:[&quot;Color&quot;,0,0,0],&quot;strokeWidth&quot;:1}}" fill="#000000"/><path d="M338.65697,220.81421c1.82441,0.48244 3.97056,0.84369 4.769,0.80267c0.79852,-0.04002 2.00208,0.38977 2.67532,0.95481c0.97319,0.81811 2.34107,0.93156 6.6918,0.55491l5.46855,-0.47342l0.16706,1.92978l0.16715,1.93078l-5.16011,0.83617c-2.83795,0.45948 -5.59887,1.13614 -6.13516,1.50376c-1.70666,1.16755 -4.49375,5.92465 -5.05558,8.62919c-1.04269,5.02265 -6.10263,6.4825 -9.18657,2.65121c-2.13692,-2.65458 -2.27083,-4.63039 -0.50079,-7.41945c0.7833,-1.23617 1.40849,-2.44359 1.38779,-2.6827c-0.04269,-0.49316 -2.27651,0.16195 -6.18548,1.81526c-3.2922,1.39214 -7.23842,1.79199 -8.36208,0.84738c-2.49738,-2.09943 0.18105,-6.78992 5.74739,-10.06421c4.57026,-2.68719 8.30978,-3.1906 13.51171,-1.81614z" data-paper-data="{&quot;wickUUID&quot;:&quot;5a2827cb-fa99-4101-b3fd-841505c34a41&quot;,&quot;wickType&quot;:&quot;path&quot;,&quot;originalStyle&quot;:{&quot;strokeColor&quot;:null,&quot;fillColor&quot;:[&quot;Color&quot;,0,0,0],&quot;strokeWidth&quot;:1}}" fill="#000000"/><path d="M367.84244,197.84403c1.52203,1.27949 1.76659,1.94789 1.87245,5.11857c0.14136,4.24161 -0.84643,5.49248 -3.74026,4.73826c-2.27354,-0.59212 -4.82617,-4.45435 -4.45734,-6.7447c0.32077,-1.99912 2.21653,-4.3795 3.58043,-4.49757c0.54695,-0.04735 1.78236,0.57643 2.74472,1.38544z" data-paper-data="{&quot;wickUUID&quot;:&quot;9b124222-949d-4da1-8bc5-2233b4a17804&quot;,&quot;wickType&quot;:&quot;path&quot;,&quot;originalStyle&quot;:{&quot;strokeColor&quot;:null,&quot;fillColor&quot;:[&quot;Color&quot;,0,0,0],&quot;strokeWidth&quot;:1}}" fill="#000000"/><path d="M353.2745,201.70392c1.35965,1.14299 1.75933,2.01477 1.76257,3.84933c0.00367,1.96701 -0.30711,2.50481 -1.82541,3.1582c-1.60157,0.6887 -2.03498,0.58671 -3.47362,-0.81945c-0.98911,-0.96729 -1.71577,-2.43911 -1.82444,-3.69441c-0.33025,-3.81473 2.32226,-5.04811 5.3609,-2.49367z" data-paper-data="{&quot;wickUUID&quot;:&quot;74d128c1-568c-45ae-b3a2-66c86059243c&quot;,&quot;wickType&quot;:&quot;path&quot;,&quot;originalStyle&quot;:{&quot;strokeColor&quot;:null,&quot;fillColor&quot;:[&quot;Color&quot;,0,0,0],&quot;strokeWidth&quot;:1}}" fill="#000000"/><path d="M377.1921,112.67598c1.51314,0.9681 12.2902,17.63971 12.42751,19.22578c0.04494,0.51906 -0.50802,2.21307 -1.22885,3.76502c-1.34443,2.89374 -4.50312,15.71796 -7.04378,28.59708c-0.78691,3.98873 -2.01305,8.85161 -2.72321,10.80514c-1.13517,3.11953 -1.50278,3.54583 -3.01519,3.50211c-1.52246,-0.04385 -1.73243,-0.31275 -1.80911,-2.31158c-0.04743,-1.24354 0.80591,-5.98381 1.89645,-10.53483c1.09063,-4.55002 3.34465,-14.18934 5.00832,-21.41877l3.02653,-13.14502l-2.32971,-3.4439c-1.28209,-1.89348 -2.71165,-4.06427 -3.17691,-4.82397c-0.46617,-0.75862 -1.04263,-1.36516 -1.28199,-1.34745c-1.27046,0.09593 -6.9092,23.28769 -8.03205,33.03084c-0.42034,3.65487 -1.24528,8.21301 -1.83141,10.12669c-0.58604,1.91468 -1.09375,5.23284 -1.12814,7.37479c-0.06201,3.80553 -0.10713,3.89876 -1.99308,4.06203c-1.91384,0.16568 -1.93479,0.13237 -2.45941,-3.74784c-0.40286,-2.97233 -0.22501,-4.99922 0.73611,-8.42488c0.69658,-2.48133 1.60828,-7.48661 2.02618,-11.12321c0.8947,-7.78718 3.27094,-18.31035 6.98091,-30.92333c2.71829,-9.23888 3.66411,-10.70793 5.95083,-9.2447z" data-paper-data="{&quot;wickUUID&quot;:&quot;b379682c-7e3b-4d42-b8ce-bbb3ed6ee658&quot;,&quot;wickType&quot;:&quot;path&quot;,&quot;originalStyle&quot;:{&quot;strokeColor&quot;:null,&quot;fillColor&quot;:[&quot;Color&quot;,0,0,0],&quot;strokeWidth&quot;:1}}" fill="#000000"/><path d="M360.81928,120.42108c5.65179,3.31288 11.01206,8.16264 11.18111,10.11534c0.26254,3.03266 -2.47043,2.61782 -7.39727,-1.12118c-2.31949,-1.76051 -4.45683,-3.17944 -4.75073,-3.154c-0.2929,0.02536 -0.40239,1.56654 -0.24262,3.42368c0.52239,6.0806 0.20452,17.84084 -0.8428,31.2391c-1.0881,13.91269 -2.30483,19.42919 -4.32428,19.60402c-2.66105,0.23037 -3.78377,-2.72079 -2.35275,-6.19115c0.69919,-1.69763 2.50054,-19.20925 3.03543,-29.5178c0.12074,-2.32709 0.02166,-8.73541 -0.22201,-14.23991c-0.24267,-5.50458 -0.1873,-10.39559 0.1231,-10.86812c0.9065,-1.37832 2.57936,-1.17384 5.79282,0.71002z" data-paper-data="{&quot;wickUUID&quot;:&quot;c2cde417-10e6-4844-8554-87ec49c7a426&quot;,&quot;wickType&quot;:&quot;path&quot;,&quot;originalStyle&quot;:{&quot;strokeColor&quot;:null,&quot;fillColor&quot;:[&quot;Color&quot;,0,0,0],&quot;strokeWidth&quot;:1}}" fill="#000000"/></g><g fill="none" fill-rule="nonzero" stroke="none" stroke-width="1" stroke-linecap="butt" stroke-linejoin="miter" stroke-miterlimit="10" stroke-dasharray="" stroke-dashoffset="0" font-family="sans-serif" font-weight="normal" font-size="12" text-anchor="start" style="mix-blend-mode: normal"/><g id="wick_project_gui" fill="none" fill-rule="nonzero" stroke="none" stroke-width="1" stroke-linecap="butt" stroke-linejoin="miter" stroke-miterlimit="10" stroke-dasharray="" stroke-dashoffset="0" font-family="sans-serif" font-weight="normal" font-size="12" text-anchor="start" style="mix-blend-mode: normal"/></g></svg>