<svg version="1.1" xmlns="http://www.w3.org/2000/svg" xmlns:xlink="http://www.w3.org/1999/xlink" width="1107" height="504" viewBox="0,0,1107,504"><g transform="translate(102.04854,-40.9663) scale(1.18038,1.18038)"><g id="wick_project_bg" fill-opacity="0" fill="#ffffff" fill-rule="nonzero" stroke="none" stroke-width="1" stroke-linecap="butt" stroke-linejoin="miter" stroke-miterlimit="10" stroke-dasharray="" stroke-dashoffset="0" font-family="none" font-weight="none" font-size="none" text-anchor="none" style="mix-blend-mode: normal"><rect x="0" y="0" width="720" height="480"/></g><g data-paper-data="{&quot;wickUUID&quot;:&quot;f3bc7c31-ccd2-4c35-8346-c2d03b841d1c&quot;,&quot;wickType&quot;:&quot;clipsandpaths&quot;}" fill="none" fill-rule="evenodd" stroke="none" stroke-width="1" stroke-linecap="butt" stroke-linejoin="miter" stroke-miterlimit="10" stroke-dasharray="" stroke-dashoffset="0" font-family="none" font-weight="none" font-size="none" text-anchor="none" style="mix-blend-mode: normal"><path d="M411.11277,241.88885c-2.61267,3.48367 -6.01695,6.94477 -7.72262,7.81477c-1.53633,0.784 -4.93917,1.52704 -6.80484,1.53571c-1.01733,0.00467 -1.80518,0.58756 -1.93685,1.20123c-0.08833,0.41267 -0.43744,2.09541 -0.73877,3.65374c-1.14133,5.90467 -2.02498,7.98602 -6.13131,14.43669c-1.16733,1.83333 -3.65785,6.37492 -5.55552,10.13325l-3.5192,7.00801l1.97728,1.65711c0.77833,0.343 2.40774,0.77895 3.51874,0.94195c1.11133,0.163 2.93402,0.45008 3.94235,0.62108c1.00833,0.171 5.00426,0.47752 8.85426,0.67919c3.85,0.20167 7.9046,0.51 9.0046,0.68467c1.1,0.175 4.85576,0.41929 8.29309,0.54062c5.25633,0.186 7.10884,-0.58583 7.10884,-0.9805c0,-0.70133 -1.0812,-9.19957 -3.00387,-23.19624c-0.94433,-6.875 -2.13219,-16.13927 -2.63986,-20.58827c-0.50733,-4.44933 -1.08471,-8.45276 -1.15804,-8.51909c-0.073,-0.06667 -2.38828,0.90908 -3.48828,2.37608z" data-paper-data="{&quot;wickUUID&quot;:&quot;00c4bac9-2822-464d-b5dd-a3cd67563b73&quot;,&quot;wickType&quot;:&quot;path&quot;,&quot;originalStyle&quot;:{&quot;strokeColor&quot;:null,&quot;fillColor&quot;:[&quot;Color&quot;,0.50196,0,1],&quot;strokeWidth&quot;:1}}" fill="#8000ff"/><path d="M393.03174,214.4746c-5.004,3.55133 -12.34171,5.0412 -16.13571,3.27453l-1.65732,-0.80433l-0.9748,1.72291c-0.501,2.50433 -0.95423,10.30047 -0.81856,14.0548c0.129,3.57667 0.37998,4.86105 1.05265,6.20805c1.05567,2.11333 4.27327,5.62269 6.19294,6.75136c1.418,0.83367 2.1849,1.05046 4.9279,0.97913c1.807,-0.04667 4.09724,0.14185 5.57124,0.46385c3.676,0.80333 7.78825,0.41533 10.09892,-0.83934c2.061,-1.11933 5.07025,-4.40339 8.91758,-9.80272c4.55033,-6.38567 5.46778,-8.89425 5.69311,-15.70258c0.17467,-5.272 -1.22698,-6.07523 -3.58331,1.33977c-0.888,2.79433 -1.326,4.03575 -1.96367,4.67608c-0.91167,0.91567 -0.45531,0.75105 -5.22631,0.74305c-2.62667,-0.00433 -4.72983,0.08514 -5.43516,-0.07853c-2.88067,-0.66867 -3.86546,-2.89333 -4.24446,-9.15233l-0.27188,-4.17106z" data-paper-data="{&quot;wickUUID&quot;:&quot;e4670c9e-876c-426b-981e-678d9f8d12b5&quot;,&quot;wickType&quot;:&quot;path&quot;,&quot;originalStyle&quot;:{&quot;strokeColor&quot;:null,&quot;fillColor&quot;:[&quot;Color&quot;,1,1,1],&quot;strokeWidth&quot;:1}}" fill="#ffffff"/><path d="M418.78922,135.78671c-1.05067,1.713 -2.55885,5.82396 -3.50318,9.54963c-0.468,1.84633 -1.82979,6.46656 -3.00946,10.21089c-4.183,13.27867 -12.05741,43.31712 -13.06174,49.82212c-0.64467,4.177 -0.53151,14.6449 0.17049,16.48057c0.50733,1.32633 1.93588,2.12032 5.52321,1.84465l3.54032,-0.46504l1.09365,-3.92435c0.487,-1.964 1.40297,-4.80768 2.0433,-6.34701c2.16767,-5.209 2.46336,-6.1108 3.97736,-12.12013c4.325,-17.167 9.56542,-32.26322 12.57242,-36.21822l0.88029,-1.51006l-2.29707,-9.10732c-1.94633,-7.7 -5.14494,-18.78412 -5.53261,-19.17412c-0.066,-0.06633 -2.01865,0.34206 -2.39698,0.95839z" data-paper-data="{&quot;wickUUID&quot;:&quot;c489200d-e5a9-4692-a821-df3e24fd955f&quot;,&quot;wickType&quot;:&quot;path&quot;,&quot;originalStyle&quot;:{&quot;strokeColor&quot;:null,&quot;fillColor&quot;:[&quot;Color&quot;,1,0.50196,0],&quot;strokeWidth&quot;:1}}" fill="#ff8000"/><path d="M411.66813,118.5687c-5.421,1.02033 -13.7946,3.7164 -16.14227,5.1624c-1.24567,0.767 -3.85166,5.41897 -5.37999,9.7723c-1.042,2.96833 -1.39113,5.24282 -2.27413,15.12182c-0.287,3.20833 -1.11191,11.33187 -1.83024,18.02354c-2.15633,20.08767 -2.65439,25.50993 -2.99972,32.66726c-0.22333,4.62233 -0.57719,8.06579 -1.10086,10.70179l-0.77863,4.06255l2.31704,0.47304c3.489,-0.66133 7.54807,-3.37354 9.59074,-6.35254c1.40033,-2.042 2.68949,-5.76718 2.83349,-8.41418c0.063,-1.15467 0.50983,-4.33867 0.97383,-6.97634c0.464,-2.638 1.14706,-7.46686 1.52339,-10.76686c0.854,-7.48867 2.58453,-16.49033 4.34153,-22.55766c3.38367,-11.685 10.27663,-31.55312 12.96363,-37.36912c0.72767,-1.575 1.05761,-3.86112 1.05761,-3.92712c0,-0.20833 -1.83409,-0.23455 -5.09542,0.37912z" data-paper-data="{&quot;wickUUID&quot;:&quot;dd26803d-6358-43c8-ab48-8882e98ca93b&quot;,&quot;wickType&quot;:&quot;path&quot;,&quot;originalStyle&quot;:{&quot;strokeColor&quot;:null,&quot;fillColor&quot;:[&quot;Color&quot;,1,0.50196,0],&quot;strokeWidth&quot;:1}}" fill="#ff8000"/><path d="M408.67401,114.64844c-5.848,1.122 -14.899,4.314 -17.597,6.207c-0.799,0.56 -1.453,1.464 -1.453,2.008c0,0.544 -1.048,3.361 -2.329,6.26c-2.003,4.531 -2.412,6.311 -2.918,12.697c-0.324,4.084 -1.591,16.144 -2.817,26.799c-1.225,10.655 -2.506,22.354 -2.845,25.999c-0.6,6.456 -0.69,6.725 -3.498,10.461c-4.699,6.251 -5.891,11.071 -5.915,23.918c-0.022,12.042 0.145,12.575 5.592,17.894c3.263,3.185 7.096,4.708 11.853,4.708c4.359,0 5.46,-0.444 5.46,-2.2c0,-2.205 -1.265,-2.966 -4.93,-2.966c-1.859,0 -4.183,-0.305 -5.165,-0.678c-2.553,-0.971 -7.098,-6.021 -7.578,-8.421c-0.885,-4.424 -0.364,-16.95 0.857,-20.606c0.652,-1.954 1.215,-2.934 1.252,-2.178c0.147,3.049 4.244,3.62 4.897,0.682c1.8,-8.105 2.144,-10.635 2.169,-15.94c0.016,-3.374 1.078,-15.288 2.359,-26.476c1.282,-11.188 2.572,-23.974 2.868,-28.413c0.488,-7.33 0.768,-8.601 3.035,-13.82c2.455,-5.654 2.555,-5.775 6.048,-7.331c3.819,-1.701 10.687,-3.592 15.692,-4.318l3.099,-0.451l-1.895,3.758c-2.688,5.33 -11.482,31.238 -14.006,41.262c-1.169,4.644 -2.444,11.606 -2.833,15.469c-0.388,3.863 -1.01,8.781 -1.382,10.928c-0.371,2.147 -0.947,5.478 -1.278,7.402c-0.65,3.77 -0.106,5.219 1.958,5.219c1.887,0 2.595,-1.549 3.222,-7.052c0.33,-2.891 0.727,-5.466 0.883,-5.721c0.155,-0.256 0.62,-3.807 1.033,-7.891c0.973,-9.625 3.084,-18.462 7.557,-31.643c6.147,-18.115 8.537,-24.262 11.207,-28.831c2.875,-4.919 3.008,-5.514 1.559,-6.962c-1.326,-1.326 -6.501,-1.243 -14.161,0.227z" data-paper-data="{&quot;wickUUID&quot;:&quot;c094923f-e19d-4026-9f90-0148cd03ca1d&quot;,&quot;wickType&quot;:&quot;path&quot;,&quot;originalStyle&quot;:{&quot;strokeColor&quot;:null,&quot;fillColor&quot;:[&quot;Color&quot;,0,0,0],&quot;strokeWidth&quot;:1}}" fill="#000000"/><path d="M417.1181,128.71268c-0.89,0.959 -1.806,2.63 -2.035,3.713c-0.23,1.082 -0.788,2.404 -1.242,2.937c-0.453,0.532 -1.308,3.148 -1.901,5.812c-0.593,2.663 -2.333,8.766 -3.869,13.561c-1.535,4.794 -4.73,16.273 -7.1,25.507c-5.924,23.081 -6.542,25.03 -8.94,28.209c-1.156,1.533 -3.395,3.442 -4.974,4.241c-3.34,1.689 -7.618,1.942 -8.177,0.484c-0.499,-1.299 -3.859,-1.258 -4.362,0.053c-0.795,2.072 -0.343,3.445 1.586,4.819c3.48,2.478 11.749,1.042 17.233,-2.992l1.453,-1.069v4.297c0,4.806 1.176,8.323 3.132,9.37c0.717,0.383 3.786,0.697 6.82,0.697c5.194,0 5.58,-0.095 6.591,-1.639c0.591,-0.901 1.451,-3.154 1.912,-5.005c1.032,-4.138 2.505,-8.218 4.095,-11.336c0.662,-1.298 1.829,-5.267 2.592,-8.819c2.601,-12.105 8.93,-29.924 12.751,-35.903c1.02,-1.595 0.969,-2.115 -1.051,-10.655c-1.168,-4.937 -3.437,-12.996 -5.043,-17.907c-2.455,-7.507 -3.17,-9.024 -4.486,-9.525c-2.423,-0.921 -3.239,-0.733 -4.985,1.15zM422.1611,139.72168c0.905,2.752 2.663,9.186 3.906,14.298l2.261,9.293l-1.318,1.85c-2.828,3.973 -9.168,22.524 -11.867,34.725c-0.866,3.916 -2.047,8.033 -2.623,9.148c-1.482,2.866 -2.91,6.837 -3.811,10.599l-0.773,3.228l-3.671,0.194c-3.442,0.182 -3.71,0.089 -4.312,-1.495c-0.353,-0.929 -0.642,-4.732 -0.642,-8.451c0,-5.977 0.379,-8.276 3.27,-19.815c4.383,-17.49 8.527,-32.459 10.944,-39.529c1.093,-3.197 2.398,-7.735 2.9,-10.086c0.703,-3.288 3.123,-8.72 3.981,-8.937c0.06,-0.015 0.85,2.225 1.755,4.978z" data-paper-data="{&quot;wickUUID&quot;:&quot;9147f065-2ffd-4110-9df8-3c407a6d5d70&quot;,&quot;wickType&quot;:&quot;path&quot;,&quot;originalStyle&quot;:{&quot;strokeColor&quot;:null,&quot;fillColor&quot;:[&quot;Color&quot;,0,0,0],&quot;strokeWidth&quot;:1}}" fill="#000000"/><path d="M412.6061,208.09514c-0.231,0.6 0.326,2.299 1.296,3.953c1.575,2.688 1.681,3.339 1.438,8.881c-0.227,5.198 -0.538,6.518 -2.375,10.092c-2.278,4.433 -8.371,12.222 -11.206,14.326c-2.281,1.693 -7.672,2.1 -11.624,0.878c-3.808,-1.178 -5.472,-0.346 -4.785,2.391c0.587,2.34 2.792,3.09 9.44,3.208c8.982,0.16 11.523,-1.639 20.375,-14.431c3.973,-5.743 5.456,-10.816 5.456,-18.668c0,-5.982 -0.09,-6.384 -1.993,-8.973c-1.52,-2.066 -2.424,-2.71 -3.806,-2.71c-1.079,0 -1.975,0.425 -2.216,1.053z" data-paper-data="{&quot;wickUUID&quot;:&quot;67ee3b33-8ff5-47d9-9d4d-d592768ea15b&quot;,&quot;wickType&quot;:&quot;path&quot;,&quot;originalStyle&quot;:{&quot;strokeColor&quot;:null,&quot;fillColor&quot;:[&quot;Color&quot;,0,0,0],&quot;strokeWidth&quot;:1}}" fill="#000000"/><path d="M413.64634,228.79728c-0.769,1.486 0.97,18.244 4.409,42.498c1.411,9.945 2.565,18.768 2.565,19.608l0.001,1.526l-10.494,-0.456c-13.674,-0.594 -26.102,-1.893 -28.737,-3.004l-2.1,-0.884l3.803,-7.749c2.092,-4.262 5.114,-9.581 6.717,-11.819c2.354,-3.29 3.184,-5.229 4.328,-10.111c0.779,-3.323 1.314,-6.577 1.189,-7.231c-0.244,-1.28 -2.889,-2.002 -3.842,-1.049c-0.662,0.662 -2.507,7.419 -2.507,9.182c0,0.654 -1.621,3.618 -3.603,6.588c-4.885,7.318 -11.424,20.799 -11.507,23.721c-0.065,2.302 -0.047,2.318 4.455,3.812c2.943,0.977 7.901,1.815 14.207,2.399c12.048,1.118 31.369,2.177 32.45,1.779c1.366,-0.503 0.943,-7.434 -1.471,-24.125c-2.691,-18.601 -4.815,-36.026 -4.832,-39.641c-0.007,-1.421 -0.379,-3.31 -0.827,-4.198c-1.002,-1.988 -3.368,-2.464 -4.204,-0.846z" data-paper-data="{&quot;wickUUID&quot;:&quot;fcac1f2c-bbce-40a2-9ac9-2dcdf359ab79&quot;,&quot;wickType&quot;:&quot;path&quot;,&quot;originalStyle&quot;:{&quot;strokeColor&quot;:null,&quot;fillColor&quot;:[&quot;Color&quot;,0,0,0],&quot;strokeWidth&quot;:1}}" fill="#000000"/><path d="M383.29573,290.47442c-0.426,0.426 -0.775,0.969 -0.775,1.206c0,0.237 -3.502,6.601 -7.783,14.143c-7.61,13.408 -15.793,30.384 -18.064,37.474l-1.137,3.552h-6.93c-5.894,0 -7.038,0.169 -7.653,1.13c-1.452,2.268 0.218,3.355 5.794,3.771c2.805,0.209 6.117,0.59 7.36,0.846c2.011,0.416 2.482,0.231 4.275,-1.671c1.108,-1.177 2.188,-3.07 2.399,-4.209c0.799,-4.296 10.643,-24.823 18.621,-38.832c4.556,-8 8.284,-14.905 8.284,-15.344c0,-2.63 -2.603,-3.854 -4.391,-2.066z" data-paper-data="{&quot;wickUUID&quot;:&quot;71c448cf-eff9-48c8-bff3-fa97d7fb17fc&quot;,&quot;wickType&quot;:&quot;path&quot;,&quot;originalStyle&quot;:{&quot;strokeColor&quot;:null,&quot;fillColor&quot;:[&quot;Color&quot;,0,0,0],&quot;strokeWidth&quot;:1}}" fill="#000000"/><path d="M391.99273,292.37594c-0.879,1.366 -0.85,2.803 0.279,14.113c0.692,6.926 2.268,18.658 3.503,26.072c1.234,7.413 2.245,13.708 2.245,13.987c0,0.28 -2.035,1.764 -4.521,3.298c-3.793,2.341 -4.52,3.07 -4.52,4.535c0,3.099 2.007,2.912 8.07,-0.75c3.891,-2.35 5.604,-3.78 5.889,-4.915c0.221,-0.88 -0.797,-8.925 -2.262,-17.877c-1.465,-8.953 -3.044,-20.44 -3.509,-25.527l-0.846,-9.25l5.854,0.192c6.233,0.205 7.468,-0.125 7.468,-1.993c0,-2.314 -1.838,-2.935 -9.401,-3.175c-7.047,-0.224 -7.3,-0.184 -8.249,1.29z" data-paper-data="{&quot;wickUUID&quot;:&quot;6a59d038-1332-40f1-b87c-c303fa4812b6&quot;,&quot;wickType&quot;:&quot;path&quot;,&quot;originalStyle&quot;:{&quot;strokeColor&quot;:null,&quot;fillColor&quot;:[&quot;Color&quot;,0,0,0],&quot;strokeWidth&quot;:1}}" fill="#000000"/><path d="M414.91386,225.04447c-1.094,0.694 -0.737,3.338 0.541,4.002c0.533,0.277 3.003,1.414 5.489,2.526c8.272,3.701 11.008,7.695 10.81,15.781c-0.136,5.532 0.4,6.829 2.818,6.829c1.875,0 2.37,-1.634 2.432,-8.02c0.083,-8.588 -4.583,-15.091 -13.919,-19.396c-5.088,-2.347 -6.662,-2.678 -8.171,-1.722z" data-paper-data="{&quot;wickUUID&quot;:&quot;4a330422-2b8e-4c93-b0f3-8f03dbd11c55&quot;,&quot;wickType&quot;:&quot;path&quot;,&quot;originalStyle&quot;:{&quot;strokeColor&quot;:null,&quot;fillColor&quot;:[&quot;Color&quot;,0,0,0],&quot;strokeWidth&quot;:1}}" fill="#000000"/><path d="M433.07433,251.57895c-2.533,1.544 -5.35,6.848 -5.35,10.072c0,5.093 4.182,9.321 9.218,9.321c6.095,0 9.821,-10.024 5.984,-16.101c-2.931,-4.644 -5.97,-5.659 -9.852,-3.292z" data-paper-data="{&quot;wickUUID&quot;:&quot;f7c02f97-fece-45b1-be5a-0737b5805d21&quot;,&quot;wickType&quot;:&quot;path&quot;,&quot;originalStyle&quot;:{&quot;strokeColor&quot;:null,&quot;fillColor&quot;:[&quot;Color&quot;,0,0,0],&quot;strokeWidth&quot;:1}}" fill="#000000"/><path d="M369.92896,241.79876c-3.099,2.136 -3.543,4.32 -1.892,9.291c1.082,3.258 1.075,3.355 -0.382,6.023c-1.745,3.195 -1.522,4.075 1.645,6.49c1.799,1.372 3.276,1.873 6.136,2.08c3.346,0.242 3.945,0.093 5.374,-1.335c1.744,-1.744 2.797,-6.387 2.089,-9.208c-0.539,-2.148 -3.946,-4.181 -7.013,-4.184c-2.021,-0.002 -2.545,-0.285 -3.067,-1.658c-0.915,-2.407 -0.827,-2.675 1.287,-3.924c2.301,-1.359 2.825,-2.486 1.932,-4.153c-0.923,-1.725 -3.062,-1.522 -6.109,0.578z" data-paper-data="{&quot;wickUUID&quot;:&quot;ef61e4c6-c283-41c5-a157-6022fa8b72e9&quot;,&quot;wickType&quot;:&quot;path&quot;,&quot;originalStyle&quot;:{&quot;strokeColor&quot;:null,&quot;fillColor&quot;:[&quot;Color&quot;,0,0,0],&quot;strokeWidth&quot;:1}}" fill="#000000"/></g><g fill="none" fill-rule="nonzero" stroke="none" stroke-width="1" stroke-linecap="butt" stroke-linejoin="miter" stroke-miterlimit="10" stroke-dasharray="" stroke-dashoffset="0" font-family="sans-serif" font-weight="normal" font-size="12" text-anchor="start" style="mix-blend-mode: normal"/><g id="wick_project_gui" fill="none" fill-rule="nonzero" stroke="none" stroke-width="1" stroke-linecap="butt" stroke-linejoin="miter" stroke-miterlimit="10" stroke-dasharray="" stroke-dashoffset="0" font-family="sans-serif" font-weight="normal" font-size="12" text-anchor="start" style="mix-blend-mode: normal"/></g></svg>