<svg version="1.1" xmlns="http://www.w3.org/2000/svg" xmlns:xlink="http://www.w3.org/1999/xlink" width="1107" height="504" viewBox="0,0,1107,504"><g transform="translate(102.04854,-40.9663) scale(1.18038,1.18038)"><g id="wick_project_bg" fill-opacity="0" fill="#ffffff" fill-rule="nonzero" stroke="none" stroke-width="1" stroke-linecap="butt" stroke-linejoin="miter" stroke-miterlimit="10" stroke-dasharray="" stroke-dashoffset="0" font-family="none" font-weight="none" font-size="none" text-anchor="none" style="mix-blend-mode: normal"><rect x="0" y="0" width="720" height="480"/></g><g data-paper-data="{&quot;wickUUID&quot;:&quot;2619d0a5-b45e-4d33-a8a7-d6b833002e8a&quot;,&quot;wickType&quot;:&quot;clipsandpaths&quot;}" fill="none" fill-rule="none" stroke="none" stroke-width="1" stroke-linecap="butt" stroke-linejoin="miter" stroke-miterlimit="10" stroke-dasharray="" stroke-dashoffset="0" font-family="none" font-weight="none" font-size="none" text-anchor="none" style="mix-blend-mode: normal"><path d="M366.88039,192.02268c-0.44333,0.67667 -0.62703,0.7965 -1.8007,0.7965c-0.991,0 -1.43363,-0.1728 -1.64296,-0.54647c-0.27433,-0.49067 -0.96842,-0.342 -2.72142,0.46067c-2.51,1.149 -4.09257,2.36457 -5.1619,3.9799l-1.13401,2.08421l1.61985,2.10483c1.61767,1.93233 6.89008,6.88044 7.30041,6.88044c0.15533,0 2.65363,-1.05625 4.54563,-2.23792c3.52533,-2.202 6.52157,-4.48678 9.7549,-7.42678c1.82933,-1.66333 2.06194,-2.03937 1.92161,-3.7387l-0.48042,-2.65812l-3.14956,-0.35409c-1.49667,-0.11667 -4.05897,-0.21204 -5.5673,-0.21304c-2.55833,-0.002 -2.9748,0.09124 -3.48413,0.86857z" data-paper-data="{&quot;wickUUID&quot;:&quot;03eacaca-c615-4842-9013-cdea669adce0&quot;,&quot;wickType&quot;:&quot;path&quot;,&quot;originalStyle&quot;:{&quot;strokeColor&quot;:null,&quot;fillColor&quot;:[&quot;Color&quot;,1,1,1],&quot;strokeWidth&quot;:1}}" fill="#ffffff" fill-rule="evenodd"/><path d="M385.94517,196.05185c-1.26467,0.948 -3.80204,3.01498 -5.62804,4.58565c-4.28067,3.68167 -5.77659,4.85408 -8.95326,7.01508c-1.457,0.99133 -2.84171,2.48594 -2.75471,2.71261c0.38867,1.013 0.95335,7.00848 0.82502,8.78481c-0.182,2.513 -0.48641,3.53005 -2.26274,3.86338c-1.911,0.35867 -1.70482,0.04596 -2.44715,-4.39004c-0.88433,-5.28667 -1.11023,-5.91492 -1.91523,-6.03325c-0.61033,-0.08933 -2.23464,0.3578 -2.42464,2.06913c-0.53067,4.782 -0.4775,4.87414 -1.2905,5.84047c-0.98133,1.166 -0.93263,1.3314 -2.10696,0.3814c-0.767,-0.62033 -0.64018,-0.33782 -0.74218,-6.24849c-0.08833,-5.09933 -0.02624,-6.20353 0.40609,-6.6812c0.47167,-0.521 0.20217,-1.14178 -1.42283,-2.74645l-2.51672,-2.09066l-1.51947,2.64801c-2.709,7.06033 -3.69567,14.03168 -3.15967,22.28268c0.31133,4.795 0.51746,5.8053 1.48779,7.77663c1.657,3.36567 6.55773,9.60923 8.5754,10.94456c1.35667,0.89767 5.04219,1.73296 8.10286,1.73296c2.751,0 5.80071,0.63937 6.44638,1.35304c0.317,0.35 1.43851,0.55766 1.73084,0.55433c1.638,-0.01967 13.08344,-7.18119 16.49811,-10.30186c4.61467,-4.21767 7.62756,-10.88301 9.14556,-20.18034c1.25433,-7.682 -0.25861,-14.22479 -4.75528,-20.20646c-1.36767,-1.81967 -5.34996,-5.50216 -5.97229,-5.50283c-0.11,-0.00033 -2.08138,0.88917 -3.34638,1.83684zM384.13122,237.81259c0.53767,0.28767 0.37904,-0.83466 0.37904,0.16334c0,2.09733 -0.50303,2.28159 -7.10236,2.86659c-2.97733,0.264 -4.68859,0.62792 -7.76892,1.66259c-2.18667,0.73467 -3.90834,1.32114 -4.22734,1.32114c-0.83533,0 -1.57009,-0.17252 -1.81676,-1.22385c-0.32467,-1.383 0.43567,-1.83812 4.77367,-3.48612c2.71867,-1.03267 4.31146,-1.44794 6.20279,-1.62561c3.49533,-0.32867 8.66555,-0.15675 9.55988,0.32192z" data-paper-data="{&quot;wickUUID&quot;:&quot;5fb2b1ab-1244-4fb4-82da-407110c0a1d8&quot;,&quot;wickType&quot;:&quot;path&quot;,&quot;originalStyle&quot;:{&quot;strokeColor&quot;:null,&quot;fillColor&quot;:[&quot;Color&quot;,1,1,1],&quot;strokeWidth&quot;:1}}" fill="#ffffff" fill-rule="evenodd"/><path d="M385.44237,102.12474c-0.30133,0.96267 -2.96679,11.04587 -5.89579,22.32087c-5.96033,22.945 -10.75839,40.61319 -14.51272,53.44052c-1.38633,4.73567 -2.52577,8.69422 -2.52577,8.77089c0,0.07667 1.52788,0.98623 1.70755,0.98623c0.17933,0 0.75873,-0.72568 1.1114,-1.41735c0.967,-1.89533 5.83964,-8.99641 12.10131,-17.63508l5.65533,-7.81614l0.09692,-3.12791c0,-3.62833 0.57446,-9.45286 1.20379,-12.19753c0.851,-3.71267 1.09722,-5.17703 2.64422,-15.75236c1.544,-10.55567 2.46476,-15.654 3.31109,-18.285c1.18933,-3.698 0.84116,-8.13484 -0.76184,-10.03984c-1.25667,-1.49333 -3.49149,-1.30463 -4.13549,0.7527z" data-paper-data="{&quot;wickUUID&quot;:&quot;20fbded6-4c88-4f7d-b671-7048d24ea192&quot;,&quot;wickType&quot;:&quot;path&quot;,&quot;originalStyle&quot;:{&quot;strokeColor&quot;:null,&quot;fillColor&quot;:[&quot;Color&quot;,1,0.50196,0],&quot;strokeWidth&quot;:1}}" fill="#ff8000" fill-rule="evenodd"/><path d="M410.37171,130.78399c-1.87967,2.24767 -15.06844,19.85265 -20.37911,27.20832c-1.721,2.38333 -3.69178,5.09627 -4.36811,6.01294c-3.18767,4.32033 -11.73991,16.3241 -13.56358,19.0381l-2.03389,4.02212l5.02593,0.57341c2.41567,0.12267 5.05808,0.24117 5.42475,0.33317c0.55867,0.14067 1.31333,-0.64045 2.97966,-3.65012c2.34,-4.22633 5.07274,-7.21688 13.32307,-14.57855c5.78867,-5.16533 10.39177,-9.76805 15.1221,-15.11238c5.65167,-6.385 7.58042,-9.49985 7.59409,-11.94318c0.00833,-1.48167 -1.94753,-6.89789 -3.82486,-10.33556c-2.191,-4.012 -3.25005,-4.01994 -5.30005,-1.56827z" data-paper-data="{&quot;wickUUID&quot;:&quot;3657d63f-2c12-4b17-afbb-de6ccb81c055&quot;,&quot;wickType&quot;:&quot;path&quot;,&quot;originalStyle&quot;:{&quot;strokeColor&quot;:null,&quot;fillColor&quot;:[&quot;Color&quot;,1,0.50196,0],&quot;strokeWidth&quot;:1}}" fill="#ff8000" fill-rule="evenodd"/><path d="M390.89679,245.48885c-4.03967,3.26567 -12.88546,8.10505 -15.77379,8.62972c-1.196,0.21733 -1.69246,1.01383 -1.51613,1.8965c0.78133,3.907 0.90557,9.0796 0.5589,23.26127c-0.41967,17.177 -0.83674,26.10516 -1.35874,29.10183c-0.20067,1.154 -0.31901,2.86134 -0.26134,3.77301l0.8019,2.51838l9.02458,-0.01578c8.799,-0.02833 14.40494,-0.38593 21.05761,-1.3406c4.13567,-0.59367 9.55642,-2.04346 10.11975,-2.51113c0.30433,-0.25233 0.00957,-3.08507 -1.64976,-9.7424l-2.21236,-8.85579l-1.90662,-2.15951c-2.56667,-2.793 -4.84638,-6.08893 -5.48705,-8.01826c-0.68633,-2.06533 -0.44981,-2.98283 0.99252,-5.6505l1.08754,-2.3916l-4.61083,-14.01395c-2.52167,-7.657 -4.87126,-14.29861 -5.21026,-14.72994l-1.64334,-1.30321z" data-paper-data="{&quot;wickUUID&quot;:&quot;5f4d64c2-cb62-4c67-87aa-1c0845b083b3&quot;,&quot;wickType&quot;:&quot;path&quot;,&quot;originalStyle&quot;:{&quot;strokeColor&quot;:null,&quot;fillColor&quot;:[&quot;Color&quot;,0.50196,0,1],&quot;strokeWidth&quot;:1}}" fill="#8000ff" fill-rule="evenodd"/><path d="M328.1906,266.67865c-1.345,0.59 -7.589,7.13165 -7.86567,8.23465c-0.47267,1.88233 1.05749,7.00593 2.72416,8.75493c0.43667,0.45833 1.98828,3.18716 3.36095,5.90183c2.83333,5.60433 4.87711,8.35972 7.06111,9.80639c2.84133,1.882 4.7648,1.80577 7.82947,-0.8949c1.42867,-1.25867 2.16302,-1.59151 4.12035,-1.79418c2.90533,-0.30067 3.76187,-1.55479 3.76187,-4.61812c0,-2.44467 -0.58584,-3.87059 -3.16584,-6.71026c-1.563,-1.72067 -2.39092,-3.4816 -3.10759,-6.6386c-0.748,-3.293 -1.45854,-4.25326 -4.28521,-5.79626c-1.749,-0.955 -3.08234,-2.04276 -4.26867,-3.47509c-2.28333,-2.75667 -4.44193,-3.52639 -6.16493,-2.77039z" data-paper-data="{&quot;wickUUID&quot;:&quot;39d65c95-7d99-4e65-9fbb-5fa3ccaaf41d&quot;,&quot;wickType&quot;:&quot;path&quot;,&quot;originalStyle&quot;:{&quot;strokeColor&quot;:null,&quot;fillColor&quot;:[&quot;Color&quot;,0,0,0],&quot;strokeWidth&quot;:1}}" fill="#000000" fill-rule="evenodd"/><path d="M361.37729,187.602c-3.643,0.865 -8.707,4.395 -10.477,7.305c-0.823,1.355 -2.8,6.384 -4.392,11.177c-2.85,8.579 -2.891,8.883 -2.638,19.584l0.257,10.869l3.147,4.566c6.328,9.181 11.636,12.434 22.341,13.693c4.834,0.568 8.088,-0.386 14.858,-4.355c11.794,-6.914 16.727,-13.772 19.199,-26.691c1.623,-8.485 1.464,-13.47 -0.617,-19.36c-4.289,-12.141 -14.117,-17.658 -31.148,-17.483c-4.366,0.044 -9.105,0.357 -10.53,0.695zM383.41229,193.039c1.092,0.451 2.988,1.035 4.215,1.298c3.538,0.76 8.63,6.546 10.76,12.229c1.991,5.308 1.972,9.979 -0.075,18.355c-2.334,9.551 -5.486,13.824 -14.503,19.663c-7.387,4.784 -10.42,6.057 -10.976,4.608c-0.289,-0.753 -2.348,-1.17 -6.774,-1.371c-5.785,-0.263 -6.586,-0.504 -8.863,-2.666c-1.377,-1.307 -3.809,-4.333 -5.405,-6.723c-2.794,-4.183 -2.912,-4.648 -3.17,-12.408c-0.301,-9.036 0.72,-14.2 4.69,-23.738c2.582,-6.202 5.088,-8.577 10.544,-9.995c3.23,-0.839 16.988,-0.312 19.557,0.748z" data-paper-data="{&quot;wickUUID&quot;:&quot;97c92e85-a5ec-4644-b006-f9f2f601136c&quot;,&quot;wickType&quot;:&quot;path&quot;,&quot;originalStyle&quot;:{&quot;strokeColor&quot;:null,&quot;fillColor&quot;:[&quot;Color&quot;,0,0,0],&quot;strokeWidth&quot;:1}}" fill="#000000" fill-rule="evenodd"/><path d="M408.21813,126.18998c-4.092,4.668 -10.964,13.817 -27.258,36.29c-16.082,22.182 -17.717,24.752 -17.815,28.011c-0.076,2.507 0.187,3.001 1.713,3.217c1.425,0.202 2.052,-0.344 3,-2.612c0.659,-1.578 3.798,-6.514 6.976,-10.97c18.5,-25.946 36.413,-50.087 37.803,-50.946c0.941,-0.581 6.372,10.831 6.368,13.379c-0.002,0.928 -0.673,2.758 -1.492,4.068c-3.144,5.026 -15.121,17.665 -22.531,23.775c-4.267,3.519 -8.737,7.986 -9.961,9.955c-6.757,10.871 -7.974,15.208 -4.409,15.717c1.354,0.193 2.19,-0.738 4.277,-4.762c4.36,-8.412 6.843,-11.409 14.918,-18.011c7.87,-6.435 20.696,-20.671 23.436,-26.011c2.046,-3.988 1.478,-6.918 -3.323,-17.131c-4.925,-10.479 -5.75,-10.759 -11.702,-3.969z" data-paper-data="{&quot;wickUUID&quot;:&quot;2295cdf0-a572-4f9a-9d3e-ca0124994a07&quot;,&quot;wickType&quot;:&quot;path&quot;,&quot;originalStyle&quot;:{&quot;strokeColor&quot;:null,&quot;fillColor&quot;:[&quot;Color&quot;,0,0,0],&quot;strokeWidth&quot;:1}}" fill="#000000" fill-rule="evenodd"/><path d="M384.28152,92.12525c-1.237,0.785 -3.128,7.363 -11.216,39.026c-3.513,13.75 -8.584,32.5 -11.269,41.666c-5.562,18.985 -5.816,20.531 -3.433,20.872c0.911,0.13 2.081,-0.276 2.601,-0.901c1.284,-1.548 12.932,-42.872 19.532,-69.295c2.96,-11.851 5.671,-22.015 6.025,-22.588c0.509,-0.824 0.984,-0.732 2.279,0.44c1.984,1.795 2.202,6.869 0.488,11.337c-0.632,1.646 -1.875,8.71 -2.764,15.699c-0.889,6.988 -2.135,14.488 -2.769,16.666c-0.929,3.19 -1.706,14.416 -1.332,19.238c0.116,1.498 2.826,1.19 4.351,-0.495c1.094,-1.208 1.255,-2.435 0.862,-6.547c-0.36,-3.768 -0.076,-6.618 1.112,-11.16c0.878,-3.354 2.197,-11.212 2.93,-17.46c0.733,-6.249 1.825,-12.566 2.427,-14.038c0.601,-1.472 1.085,-5.222 1.076,-8.333l-0.018,-5.657l-4.28,-4.564c-4.401,-4.692 -4.899,-4.987 -6.602,-3.906z" data-paper-data="{&quot;wickUUID&quot;:&quot;15a4f89d-66df-44a4-8581-01286e2bcf46&quot;,&quot;wickType&quot;:&quot;path&quot;,&quot;originalStyle&quot;:{&quot;strokeColor&quot;:null,&quot;fillColor&quot;:[&quot;Color&quot;,0,0,0],&quot;strokeWidth&quot;:1}}" fill="#000000" fill-rule="evenodd"/><path d="M336.45542,176.88214c-1.094,1.209 -0.999,1.699 0.952,4.947c8.072,13.435 16.889,24.723 22.763,29.143c2.501,1.882 3.628,2.054 4.821,0.736c1.211,-1.337 0.605,-2.964 -1.741,-4.679c-4.321,-3.158 -11.042,-11.29 -17.091,-20.681c-3.243,-5.033 -6.228,-9.415 -6.635,-9.737c-1.045,-0.828 -2.164,-0.729 -3.069,0.271z" data-paper-data="{&quot;wickUUID&quot;:&quot;6a904ba3-cbe6-4746-be21-46091a8140c2&quot;,&quot;wickType&quot;:&quot;path&quot;,&quot;originalStyle&quot;:{&quot;strokeColor&quot;:null,&quot;fillColor&quot;:[&quot;Color&quot;,0,0,0],&quot;strokeWidth&quot;:1}}" fill="#000000" fill-rule="evenodd"/><path d="M388.80442,188.37014c-1.215,1.113 -3.687,3.06 -5.494,4.327c-1.807,1.268 -4.552,3.48 -6.101,4.916c-3.967,3.679 -7.75,6.464 -12.109,8.914c-4.198,2.36 -4.827,3.057 -4.377,4.848c0.54,2.154 2.025,2.031 6.794,-0.56c4.398,-2.39 8.555,-5.444 13.262,-9.745c1.449,-1.324 4.33,-3.595 6.402,-5.047c4.244,-2.974 7.157,-5.947 7.157,-7.303c0,-0.946 -1.626,-2.372 -2.705,-2.372c-0.341,0 -1.614,0.91 -2.829,2.022z" data-paper-data="{&quot;wickUUID&quot;:&quot;ad5758df-8461-4202-bcd7-bd0e16723c6f&quot;,&quot;wickType&quot;:&quot;path&quot;,&quot;originalStyle&quot;:{&quot;strokeColor&quot;:null,&quot;fillColor&quot;:[&quot;Color&quot;,0,0,0],&quot;strokeWidth&quot;:1}}" fill="#000000" fill-rule="evenodd"/><path d="M363.16445,208.20333c-0.965,0.966 -0.93,2.112 0.202,6.537c0.516,2.018 0.938,4.553 0.938,5.633c0,4.982 5.091,4.48 5.901,-0.581c0.293,-1.834 -0.564,-9.029 -1.173,-9.851c-0.652,-0.88 -3.364,-2.475 -4.206,-2.475c-0.508,0 -1.256,0.332 -1.662,0.737z" data-paper-data="{&quot;wickUUID&quot;:&quot;af1b7448-f4bb-4c12-8b6e-bd24d2b9103f&quot;,&quot;wickType&quot;:&quot;path&quot;,&quot;originalStyle&quot;:{&quot;strokeColor&quot;:null,&quot;fillColor&quot;:[&quot;Color&quot;,0,0,0],&quot;strokeWidth&quot;:1}}" fill="#000000" fill-rule="evenodd"/><path d="M357.04723,207.04487l-1.659,1.457v5.979c0,5.197 0.112,6.081 0.858,6.756c1.258,1.138 2.757,0.956 3.676,-0.447c0.584,-0.89 0.914,-2.903 1.212,-7.388c0.399,-6.004 0.383,-6.186 -0.609,-6.989c-1.355,-1.097 -1.548,-1.062 -3.478,0.632z" data-paper-data="{&quot;wickUUID&quot;:&quot;3a0ab6ed-4424-4437-877a-5132780043d1&quot;,&quot;wickType&quot;:&quot;path&quot;,&quot;originalStyle&quot;:{&quot;strokeColor&quot;:null,&quot;fillColor&quot;:[&quot;Color&quot;,0,0,0],&quot;strokeWidth&quot;:1}}" fill="#000000" fill-rule="evenodd"/><path d="M372.98608,236.86987c-1.49,0.318 -8.856,3.097 -9.503,3.586c-1.468,1.111 0.027,4.103 2.032,4.067c0.496,-0.009 2.485,-0.651 4.421,-1.427c2.851,-1.142 4.486,-1.465 8.603,-1.698c5.386,-0.305 6.414,-0.732 6.414,-2.664c0,-1.889 -0.823,-2.176 -6.077,-2.118c-2.723,0.03 -5.374,0.144 -5.89,0.254z" data-paper-data="{&quot;wickUUID&quot;:&quot;f445486b-51da-48d4-8d21-6752cde24654&quot;,&quot;wickType&quot;:&quot;path&quot;,&quot;originalStyle&quot;:{&quot;strokeColor&quot;:null,&quot;fillColor&quot;:[&quot;Color&quot;,0,0,0],&quot;strokeWidth&quot;:1}}" fill="#000000" fill-rule="evenodd"/><path d="M325.52532,262.95844c-5.465,4.066 -10.026,9.794 -10.026,12.591c0,2.474 2.33,9.545 3.485,10.575c0.613,0.547 2.074,2.909 3.248,5.251c1.174,2.342 2.651,5.074 3.281,6.072c1.473,2.334 6.184,6.384 8.241,7.085c2.515,0.858 6.161,0.675 7.919,-0.396c0.845,-0.515 1.979,-0.937 2.519,-0.937c1.172,0 5.844,-2.758 7.303,-4.311c1.943,-2.068 2.618,-4.487 2.263,-8.113c-0.337,-3.451 -0.971,-4.675 -4.257,-8.224c-1.154,-1.247 -1.724,-2.526 -2.367,-5.308c-1.112,-4.811 -1.862,-5.913 -5.171,-7.598c-1.521,-0.774 -2.949,-1.698 -3.173,-2.053c-1.087,-1.718 -3.998,-4.318 -5.561,-4.966c-2.619,-1.087 -5.993,-0.941 -7.704,0.332zM332.66232,268.17544c0.536,0.559 1.361,1.607 1.833,2.328c0.473,0.722 1.936,1.851 3.251,2.51c3.539,1.773 3.887,2.233 4.821,6.374c0.708,3.14 1.182,4.16 2.761,5.941c3.022,3.407 3.49,4.299 3.49,6.649c0,3.12 -1.276,4.641 -3.636,4.335c-1.565,-0.203 -2.038,0.01 -4.263,1.922c-2.589,2.224 -3.647,2.505 -5.801,1.542c-3.28,-1.469 -5.784,-4.881 -9.365,-12.764c-0.702,-1.546 -1.794,-3.236 -2.426,-3.754c-1.124,-0.921 -2.666,-5.119 -2.666,-7.257c0,-1.472 1.706,-3.724 5.126,-6.765c2.669,-2.374 3.179,-2.646 4.458,-2.379c0.794,0.166 1.882,0.759 2.417,1.318z" data-paper-data="{&quot;wickUUID&quot;:&quot;2790e9c4-cdf9-43a5-b4f0-7cfffcd22921&quot;,&quot;wickType&quot;:&quot;path&quot;,&quot;originalStyle&quot;:{&quot;strokeColor&quot;:null,&quot;fillColor&quot;:[&quot;Color&quot;,0,0,0],&quot;strokeWidth&quot;:1}}" fill="#000000" fill-rule="evenodd"/><path d="M369.85685,253.426c-0.867,0.701 -1.063,1.499 -1.342,5.47c-0.558,7.931 -1.528,10.961 -5.42,16.934c-1.88,2.885 -3.908,5.524 -4.506,5.866c-0.599,0.341 -3.179,1.254 -5.734,2.028c-2.554,0.775 -4.856,1.745 -5.114,2.157c-0.678,1.082 -0.021,3.126 1.121,3.489c1.482,0.47 9.974,-2.03 12.436,-3.661c1.49,-0.986 3.1,-2.852 5.314,-6.158c4.088,-6.105 4.23,-6.388 5.308,-10.589c1.109,-4.319 1.937,-13.849 1.306,-15.028c-0.653,-1.22 -2.202,-1.454 -3.369,-0.508z" data-paper-data="{&quot;wickUUID&quot;:&quot;c4a0e6be-0af7-43be-82db-ffe83352a1d6&quot;,&quot;wickType&quot;:&quot;path&quot;,&quot;originalStyle&quot;:{&quot;strokeColor&quot;:null,&quot;fillColor&quot;:[&quot;Color&quot;,0,0,0],&quot;strokeWidth&quot;:1}}" fill="#000000" fill-rule="evenodd"/><path d="M397.24783,241.60669c1.842,1.969 2.661,3.892 5.347,12.553c1.361,4.388 3.847,11.99 5.524,16.894c2.712,7.929 10.622,37.717 10.622,40c0,1.141 -2.017,3.023 -4.663,4.35c-3.807,1.909 -15.396,3.342 -29.248,3.615c-6.649,0.131 -12.825,0.101 -13.725,-0.068c-3.248,-0.61 -3.554,-2.879 -2.154,-15.986c0.807,-7.56 1.19,-40.485 0.52,-44.79c-0.543,-3.49 -0.523,-3.887 0.244,-4.734c0.988,-1.091 2.689,-1.205 3.495,-0.233c0.316,0.381 0.869,2.651 1.23,5.045c0.542,3.597 0.575,7.782 0.189,24.067c-0.283,11.948 -0.751,22.008 -1.188,25.539c-0.585,4.724 -0.607,5.903 -0.119,6.238c0.332,0.228 5.249,0.318 10.927,0.201c14.136,-0.291 29.33,-2.547 29.33,-4.355c0,-0.15 -1.71,-6.948 -3.8,-15.107c-2.151,-8.396 -5.309,-19.222 -7.274,-24.94c-1.911,-5.558 -4.334,-12.956 -5.384,-16.44c-1.051,-3.485 -2.423,-7.086 -3.05,-8.003c-1.34,-1.96 -1.477,-3.956 -0.319,-4.63c1.339,-0.78 2.217,-0.583 3.496,0.784z" data-paper-data="{&quot;wickUUID&quot;:&quot;657c0d03-bfe4-4d1b-84e9-b71267644425&quot;,&quot;wickType&quot;:&quot;path&quot;,&quot;originalStyle&quot;:{&quot;strokeColor&quot;:null,&quot;fillColor&quot;:[&quot;Color&quot;,0,0,0],&quot;strokeWidth&quot;:1}}" fill="#000000" fill-rule="evenodd"/><path d="M393.19746,241.21669c0.817,-0.905 1.276,-0.984 4.661,-0.799c5.938,0.325 7.665,1.508 12.609,8.643c3.608,5.207 4.84,8.102 6.208,14.583c0.3584,1.69611 0.77582,3.54382 1.14023,5.06764c-1.87243,-0.02319 -3.67263,-0.00569 -5.07899,0.05719c-0.27062,-1.20883 -0.55354,-2.51381 -0.80824,-3.73683c-0.794,-3.82 -1.671,-6.529 -2.808,-8.682c-2.025,-3.829 -5.912,-9.165 -7.376,-10.125c-0.595,-0.39 -2.764,-0.876 -4.82,-1.08c-3.502,-0.347 -3.766,-0.451 -4.186,-1.647c-0.359,-1.021 -0.267,-1.477 0.459,-2.281z" data-paper-data="{&quot;wickUUID&quot;:&quot;cd60a4e5-474a-40c8-b12d-7a5249d0f0e7&quot;,&quot;wickType&quot;:&quot;path&quot;,&quot;originalStyle&quot;:{&quot;strokeColor&quot;:null,&quot;fillColor&quot;:[&quot;Color&quot;,0,0,0],&quot;strokeWidth&quot;:1}}" fill="#000000" fill-rule="nonzero"/><path d="M412.66381,264.92448c-0.41,0.494 -0.5,1.396 -0.283,2.84l0.317,2.116h-1.694c-2.229,0 -3.91,0.916 -6.071,3.308c-2.054,2.273 -3.53,5.265 -3.545,7.185c-0.025,3.283 5.457,10.48 10.549,13.848c2.088,1.382 2.61,1.527 4.746,1.317c5.724,-0.562 10.969,-5.312 10.973,-9.937c0.003,-4.065 -4.335,-10.274 -8.328,-11.921c-1.461,-0.602 -1.526,-0.74 -1.548,-3.27c-0.031,-3.624 -1.173,-5.883 -3.069,-6.068c-0.877,-0.086 -1.683,0.143 -2.047,0.582z" data-paper-data="{&quot;wickUUID&quot;:&quot;875104c4-1ebe-4a30-83f4-21a2de120c6c&quot;,&quot;wickType&quot;:&quot;path&quot;,&quot;originalStyle&quot;:{&quot;strokeColor&quot;:null,&quot;fillColor&quot;:[&quot;Color&quot;,0,0,0],&quot;strokeWidth&quot;:1}}" fill="#000000" fill-rule="evenodd"/><path d="M378.27428,317.02873c-0.773,0.894 -1.439,7.493 -2.311,22.911c-0.723,12.78 -0.997,16.024 -1.717,20.334c-0.37,2.212 -0.673,5.128 -0.673,6.481v2.46l-2.17,-0.173c-2.462,-0.196 -3.587,0.466 -3.587,2.11c0,1.746 1.09,2.419 5.003,3.088c3.352,0.573 3.722,0.554 4.599,-0.239c0.791,-0.717 0.954,-1.483 0.956,-4.508c0.002,-2.004 0.227,-4.939 0.501,-6.523c0.995,-5.745 1.544,-12.714 3.177,-40.325c0.246,-4.148 0.172,-4.934 -0.532,-5.638c-1.051,-1.051 -2.326,-1.042 -3.246,0.022z" data-paper-data="{&quot;wickUUID&quot;:&quot;d6f3f7e6-8ca8-4544-8db3-e4d3d11a8117&quot;,&quot;wickType&quot;:&quot;path&quot;,&quot;originalStyle&quot;:{&quot;strokeColor&quot;:null,&quot;fillColor&quot;:[&quot;Color&quot;,0,0,0],&quot;strokeWidth&quot;:1}}" fill="#000000" fill-rule="evenodd"/><path d="M404.97928,314.00807c-1.16,1.16 -1.177,1.297 -1.142,9.236c0.02,4.432 0.203,12.809 0.406,18.614c0.203,5.806 0.193,15.191 -0.023,20.856c-0.328,8.597 -0.279,10.473 0.292,11.345c0.384,0.587 2.175,1.615 4.078,2.342c3.2,1.223 3.461,1.252 4.58,0.519c2.219,-1.453 1.208,-3.774 -2.189,-5.03l-2.083,-0.769l0.102,-5.275c0.056,-2.901 0.232,-6.723 0.391,-8.492c0.158,-1.77 0.012,-11.222 -0.324,-21.005c-0.504,-14.633 -0.501,-18.125 0.016,-19.692c0.562,-1.702 0.536,-2.006 -0.242,-2.865c-1.162,-1.284 -2.433,-1.213 -3.862,0.216z" data-paper-data="{&quot;wickUUID&quot;:&quot;bbd799ea-6fab-4fef-94c9-8f395298a822&quot;,&quot;wickType&quot;:&quot;path&quot;,&quot;originalStyle&quot;:{&quot;strokeColor&quot;:null,&quot;fillColor&quot;:[&quot;Color&quot;,0,0,0],&quot;strokeWidth&quot;:1}}" fill="#000000" fill-rule="evenodd"/></g><g fill="none" fill-rule="nonzero" stroke="none" stroke-width="1" stroke-linecap="butt" stroke-linejoin="miter" stroke-miterlimit="10" stroke-dasharray="" stroke-dashoffset="0" font-family="sans-serif" font-weight="normal" font-size="12" text-anchor="start" style="mix-blend-mode: normal"/><g id="wick_project_gui" fill="none" fill-rule="nonzero" stroke="none" stroke-width="1" stroke-linecap="butt" stroke-linejoin="miter" stroke-miterlimit="10" stroke-dasharray="" stroke-dashoffset="0" font-family="sans-serif" font-weight="normal" font-size="12" text-anchor="start" style="mix-blend-mode: normal"/></g></svg>