<svg version="1.1" xmlns="http://www.w3.org/2000/svg" xmlns:xlink="http://www.w3.org/1999/xlink" width="1107" height="504" viewBox="0,0,1107,504"><g transform="translate(102.04854,-40.9663) scale(1.18038,1.18038)"><g id="wick_project_bg" fill-opacity="0" fill="#ffffff" fill-rule="nonzero" stroke="none" stroke-width="1" stroke-linecap="butt" stroke-linejoin="miter" stroke-miterlimit="10" stroke-dasharray="" stroke-dashoffset="0" font-family="none" font-weight="none" font-size="none" text-anchor="none" style="mix-blend-mode: normal"><rect x="0" y="0" width="720" height="480"/></g><g data-paper-data="{&quot;wickUUID&quot;:&quot;468bf1d8-fabe-46be-b6bc-55f54196d268&quot;,&quot;wickType&quot;:&quot;clipsandpaths&quot;}" fill="none" fill-rule="evenodd" stroke="none" stroke-width="1" stroke-linecap="butt" stroke-linejoin="miter" stroke-miterlimit="10" stroke-dasharray="" stroke-dashoffset="0" font-family="none" font-weight="none" font-size="none" text-anchor="none" style="mix-blend-mode: normal"><path d="M349.40864,194.39254c-4.67933,12.23533 -4.60624,11.76127 -4.53891,30.51294c0.05233,14.53333 0.32359,20.20978 1.16526,24.02045l1.00887,2.51814l6.24205,0.0288c6.08267,0 13.61581,-0.66169 18.09848,-1.57136c4.48467,-0.91033 12.94701,-4.69591 18.34668,-8.22058l2.97835,-2.34278l-2.67636,-2.77406c-2.67333,-2.35 -4.08709,-3.05805 -7.00676,-3.56438c-3.257,-0.565 -3.75203,-1.17215 -4.01136,-4.84715l-0.33205,-1.85184l2.80062,-0.15224c1.84133,-0.22567 3.49279,-0.34439 4.06012,-0.21972c1.075,0.236 1.65627,1.02791 1.65627,1.95124c0,0.72267 3.7571,2.95569 3.77543,2.25402c0.00767,-0.28933 -0.68518,-3.33288 -1.53551,-6.25188c-0.85033,-2.919 -3.13745,-11.61362 -5.08378,-19.32595l-3.58006,-14.14297l-2.99166,0.44857c-3.30167,1.53633 -6.10709,2.00543 -11.08909,1.80843c-4.729,-0.18733 -9.20378,-1.15414 -12.56311,-2.69214c-1.01633,-0.46533 -2.67372,-0.61578 -2.69739,-0.61445c-0.02367,0.001 -1.06242,2.50924 -2.02609,5.02891z" data-paper-data="{&quot;wickUUID&quot;:&quot;a2b2a0b2-04a7-45d0-80f1-6e52bda090f0&quot;,&quot;wickType&quot;:&quot;path&quot;,&quot;originalStyle&quot;:{&quot;strokeColor&quot;:null,&quot;fillColor&quot;:[&quot;Color&quot;,0.50196,0,1],&quot;strokeWidth&quot;:1}}" fill="#8000ff"/><path d="M382.50057,142.48688c0,0.17 -1.86508,1.07051 -2.94941,1.72918c-2.93267,1.78167 -4.11469,3.29682 -5.67302,7.28149c-0.19333,0.49467 -0.1797,0.83927 -0.6607,1.15427c-1.11967,0.73367 -1.54189,0.99258 -2.14822,-0.27242c-0.653,-1.36267 0.03582,-4.38582 1.45349,-6.73982c0.62667,-1.04133 0.68246,-2.91199 0.60879,-2.98532c-0.07333,-0.07367 -2.1504,0.1934 -3.82573,0.69473l-3.40962,1.11656l-1.95166,3.90336c-0.98367,2.02867 -1.69338,3.59548 -2.08305,3.94715c-1.49633,1.349 -3.03968,0.63548 -3.03968,-1.27752c0,-0.51967 0.44489,-0.92275 0.79689,-1.84908l0.67375,-1.97434l-1.89523,-0.52127c-0.398,0.119 -1.85901,0.77897 -3.04368,1.3553c-1.92167,0.93467 -2.58084,1.66874 -3.55084,3.45341c-2.23733,4.11467 -4.29811,12.48203 -4.69511,19.0207c-0.269,4.431 0.44581,6.98788 2.82448,10.54455c2.93733,4.39133 5.37016,5.84428 12.39649,7.42061c5.76067,1.29267 9.96483,0.75462 15.46916,-1.84805c6.99267,-3.30633 13.6584,-11.4759 14.1484,-17.4099c0.09367,-1.13467 0.5577,-3.07265 0.85137,-3.49165c1.642,-2.34433 -1.07063,-12.41487 -4.93063,-18.3272c-2.17833,-3.337 -5.36624,-6.27841 -5.36624,-4.92474z" data-paper-data="{&quot;wickUUID&quot;:&quot;2bb849d0-1cf1-4288-8217-a6346db62898&quot;,&quot;wickType&quot;:&quot;path&quot;,&quot;originalStyle&quot;:{&quot;strokeColor&quot;:null,&quot;fillColor&quot;:[&quot;Color&quot;,1,1,1],&quot;strokeWidth&quot;:1}}" fill="#ffffff"/><path d="M395.82733,179.97114c-1.06,0.708 -1.165,1.155 -1.049,4.452c0.08,2.266 0.193,3.284 0.51,4.579c0.552,2.256 2.126,7.321 2.846,9.159c1.86,4.753 4.118,7.742 5.848,7.744c0.691,0 1.748,-0.574 2.032,-1.103c0.116,-0.217 0.24,-0.367 0.274,-0.332c0.035,0.035 0.287,0.914 0.559,1.953c0.273,1.039 0.786,2.491 1.141,3.225c0.355,0.735 0.949,1.976 1.319,2.758c0.558,1.175 0.788,1.485 1.33,1.79c0.361,0.203 0.899,0.369 1.194,0.369c1.193,0 2.498,-1.283 2.498,-2.456c0,-0.531 -0.512,-1.839 -1.713,-4.372c-0.461,-0.973 -0.922,-2.319 -1.198,-3.497c-0.641,-2.734 -1.052,-4.095 -1.603,-5.311c-0.371,-0.819 -0.483,-1.317 -0.489,-2.164c-0.015,-2.304 -0.246,-3.467 -0.874,-4.413c-0.619,-0.932 -1.401,-1.436 -2.225,-1.433c-0.805,0.003 -2.198,0.779 -3.305,1.842l-1.057,1.015l-0.583,-1.804c-1.108,-3.432 -1.397,-4.92 -1.51,-7.794c-0.118,-2.987 -0.291,-3.572 -1.246,-4.208c-0.768,-0.511 -1.932,-0.511 -2.699,0.001z" data-paper-data="{&quot;wickUUID&quot;:&quot;26e76301-c4ea-4b4d-b590-741a7dc5d0a6&quot;,&quot;wickType&quot;:&quot;path&quot;,&quot;originalStyle&quot;:{&quot;strokeColor&quot;:null,&quot;fillColor&quot;:[&quot;Color&quot;,1,0.50196,0],&quot;strokeWidth&quot;:1}}" fill="#ff8000"/><path d="M395.65467,176.4551c-0.712,0.413 -1.309,1.383 -1.309,2.127c0,0.513 0.424,1.511 0.995,2.343c0.158,0.229 0.375,0.677 0.483,0.995c0.632,1.863 2.894,2.364 4.161,0.922c1.002,-1.142 0.85,-2.399 -0.575,-4.756c-1.158,-1.915 -2.363,-2.438 -3.755,-1.631z" data-paper-data="{&quot;wickUUID&quot;:&quot;72e467d4-6087-4d01-8eeb-5083678070a0&quot;,&quot;wickType&quot;:&quot;path&quot;,&quot;originalStyle&quot;:{&quot;strokeColor&quot;:null,&quot;fillColor&quot;:[&quot;Color&quot;,1,0.50196,0],&quot;strokeWidth&quot;:1}}" fill="#ff8000"/><path d="M398.98298,184.04347c-0.039,0.73 0.1066,9.71862 1.1596,13.86929c0.766,3.01933 3.48876,5.29532 3.49709,4.20565c0.006,-0.76267 -4.62202,-18.72561 -4.65669,-18.07494z" data-paper-data="{&quot;wickUUID&quot;:&quot;eb51f180-84f3-4461-b621-64d9c884ec95&quot;,&quot;wickType&quot;:&quot;path&quot;,&quot;originalStyle&quot;:{&quot;strokeColor&quot;:null,&quot;fillColor&quot;:[&quot;Color&quot;,1,0.50196,0],&quot;strokeWidth&quot;:1}}" fill="#ff8000"/><path d="M398.53823,189.98684c0.35567,3.89633 2.76504,12.72982 3.32071,12.17449c0.06667,-0.06667 0.93821,-3.75433 -0.05312,-7.60033c-1.26633,-4.91167 -3.39592,-5.97883 -3.26759,-4.57416z" data-paper-data="{&quot;wickUUID&quot;:&quot;521d466d-3622-4a43-899d-de83908118c7&quot;,&quot;wickType&quot;:&quot;path&quot;,&quot;originalStyle&quot;:{&quot;strokeColor&quot;:null,&quot;fillColor&quot;:[&quot;Color&quot;,1,0.50196,0],&quot;strokeWidth&quot;:1}}" fill="#ff8000"/><path d="M406.83519,193.61347c-0.00367,0.78067 -0.23533,6.03592 1.269,10.65925c1.59333,4.897 3.08049,7.54409 4.23216,7.54409c0.06567,0 1.00067,-2.45291 0.29667,-4.42358c-3.174,-8.88167 -5.79183,-15.05943 -5.79783,-13.77976z" data-paper-data="{&quot;wickUUID&quot;:&quot;a59c3600-52e8-48e3-82b5-1300a7c26ea9&quot;,&quot;wickType&quot;:&quot;path&quot;,&quot;originalStyle&quot;:{&quot;strokeColor&quot;:null,&quot;fillColor&quot;:[&quot;Color&quot;,1,0.50196,0],&quot;strokeWidth&quot;:1}}" fill="#ff8000"/><path d="M376.37307,136.16275c-0.533,0.532 -1.259,0.968 -1.614,0.968c-1.236,0 -20.45,6.259 -22.537,7.342c-4.171,2.163 -7.265,9.309 -8.87,20.485c-1.395,9.711 -0.874,13.102 2.893,18.831c2.015,3.065 3.642,4.722 5.766,5.871c7.489,4.052 17.918,5.098 24.635,2.471c6.29,-2.46 11.536,-6.481 15.297,-11.725c4.351,-6.067 5.662,-10.234 5.537,-17.6c-0.133,-7.885 -3.397,-16.115 -8.675,-21.872c-0.851,-0.928 -1.851,-2.207 -2.222,-2.842c-0.372,-0.636 -2.116,-1.535 -3.875,-1.998c-4.193,-1.105 -5.172,-1.094 -6.335,0.069zM384.38207,144.01575c1.643,1.483 3.55,4.309 5.12,7.587c4.609,9.619 4.108,17.291 -1.679,25.684c-3.626,5.259 -9.043,9.033 -15.333,10.682c-3.763,0.987 -4.472,0.989 -9.344,0.03c-2.9,-0.572 -6.359,-1.571 -7.686,-2.222c-3.143,-1.54 -7.073,-7.175 -7.64,-10.955c-0.812,-5.415 1.757,-18.34 4.632,-23.299c1.572,-2.713 1.608,-2.731 11.734,-5.922c15.746,-4.961 16.403,-5.012 20.196,-1.585z" data-paper-data="{&quot;wickUUID&quot;:&quot;57aa7879-8453-4dce-9e7f-a7f99cd59987&quot;,&quot;wickType&quot;:&quot;path&quot;,&quot;originalStyle&quot;:{&quot;strokeColor&quot;:null,&quot;fillColor&quot;:[&quot;Color&quot;,0,0,0],&quot;strokeWidth&quot;:1}}" fill="#000000"/><path d="M391.88692,155.64275c-0.763,0.763 -0.463,2.618 0.94,5.812c0.755,1.717 1.446,4.429 1.537,6.027c0.091,1.598 0.661,4.504 1.267,6.458c2.253,7.264 4.386,15.328 6.49,24.539c0.934,4.084 2.48,9.453 3.437,11.93c1.661,4.297 1.883,4.557 4.819,5.647c1.693,0.629 3.904,1.754 4.914,2.501c2.307,1.705 4.051,1.401 4.841,-0.844c0.51,-1.451 -0.116,-3.644 -3.781,-13.232c-4.359,-11.401 -13.349,-32.766 -18.355,-43.618c-2.209,-4.79 -2.84,-5.65 -4.143,-5.65c-0.845,0 -1.73,0.193 -1.966,0.43zM410.07992,202.31175c1.819,4.771 3.209,8.774 3.089,8.894c-0.811,0.812 -2.415,-1.1 -3.536,-4.216c-1.243,-3.455 -3.97,-13.167 -3.97,-14.137c0,-1.407 1.495,1.795 4.417,9.459z" data-paper-data="{&quot;wickUUID&quot;:&quot;fb13889d-36f4-4b26-af1d-3a5ecfe55b20&quot;,&quot;wickType&quot;:&quot;path&quot;,&quot;originalStyle&quot;:{&quot;strokeColor&quot;:null,&quot;fillColor&quot;:[&quot;Color&quot;,0,0,0],&quot;strokeWidth&quot;:1}}" fill="#000000"/><path d="M392.23097,165.67379c-2.117,2.116 -0.428,15.712 4.356,35.065c1.187,4.804 5.498,11.544 7.863,12.294c3.208,1.019 5.293,-2.383 2.666,-4.349c-2.217,-1.66 -5.106,-6.055 -5.858,-8.914c-2.46,-9.355 -4.636,-21.998 -4.636,-26.943c0,-2.987 -0.301,-5.992 -0.668,-6.679c-0.754,-1.408 -2.56,-1.638 -3.723,-0.474z" data-paper-data="{&quot;wickUUID&quot;:&quot;7a9ed1ee-798e-46ca-95b3-bea56d4e4bb0&quot;,&quot;wickType&quot;:&quot;path&quot;,&quot;originalStyle&quot;:{&quot;strokeColor&quot;:null,&quot;fillColor&quot;:[&quot;Color&quot;,0,0,0],&quot;strokeWidth&quot;:1}}" fill="#000000"/><path d="M348.96702,184.43589c-1.205,1.452 -6.562,15.147 -7.689,19.656c-1.549,6.199 -1.425,38.26 0.174,45.079c1.489,6.347 2.141,6.78 10.2,6.78c9.475,-0.001 20.011,-1.136 24.462,-2.636c5.712,-1.924 17.292,-7.96 19.701,-10.27c1.154,-1.106 2.099,-2.594 2.099,-3.305c0,-1.454 -4.948,-20.367 -5.608,-21.434c-0.505,-0.818 -2.633,-9.202 -3.433,-13.53c-0.312,-1.686 -0.731,-3.33 -0.932,-3.655c-0.2,-0.324 -0.82,-2.867 -1.377,-5.652c-1.869,-9.347 -3.401,-11.939 -6.378,-10.797c-0.846,0.325 -1.035,0.92 -0.776,2.436c0.396,2.31 2.626,11.472 3.947,16.214c0.495,1.776 1.53,5.97 2.3,9.32c0.77,3.35 1.696,6.838 2.057,7.749c0.361,0.912 1.637,5.397 2.834,9.968l2.179,8.31l-1.723,1.376c-2.648,2.115 -10.358,6.12 -15.245,7.918c-4.974,1.83 -12.569,2.794 -22.153,2.811l-6.531,0.011l-0.779,-3.713c-0.473,-2.257 -0.824,-10.423 -0.895,-20.826c-0.133,-19.399 -0.067,-19.834 4.82,-32.155c2.505,-6.314 3.011,-8.198 2.474,-9.202c-0.765,-1.429 -2.72,-1.667 -3.728,-0.453z" data-paper-data="{&quot;wickUUID&quot;:&quot;a837738e-d1b7-4dab-b25f-5eaeba23cccd&quot;,&quot;wickType&quot;:&quot;path&quot;,&quot;originalStyle&quot;:{&quot;strokeColor&quot;:null,&quot;fillColor&quot;:[&quot;Color&quot;,0,0,0],&quot;strokeWidth&quot;:1}}" fill="#000000"/><path d="M362.04292,254.23065c-0.666,2.653 12.696,35.442 22.122,54.286l4.813,9.621l-1.341,3.504c-1.543,4.032 -1.007,6.215 1.441,5.867c1.628,-0.232 4.907,-6.219 4.94,-9.022c0.012,-0.946 -2.753,-7.304 -6.143,-14.129c-6.627,-13.341 -13.071,-28.177 -18.082,-41.626c-1.72,-4.617 -3.397,-8.758 -3.726,-9.202c-1.052,-1.416 -3.604,-0.972 -4.024,0.701z" data-paper-data="{&quot;wickUUID&quot;:&quot;c7c4e643-0a7e-4264-837c-14e06bfed8be&quot;,&quot;wickType&quot;:&quot;path&quot;,&quot;originalStyle&quot;:{&quot;strokeColor&quot;:null,&quot;fillColor&quot;:[&quot;Color&quot;,0,0,0],&quot;strokeWidth&quot;:1}}" fill="#000000"/><path d="M378.50997,249.20707c-0.685,0.826 -0.64,1.833 0.253,5.651c1.301,5.557 5.585,37.446 5.601,41.692c0.009,2.223 0.494,3.701 1.89,5.76c1.741,2.569 3.265,7.485 3.265,10.532c0,2.691 1.843,4.96 4.991,6.143c1.694,0.636 3.953,1.679 5.018,2.316c2.501,1.496 3.988,1.471 4.818,-0.081c1.122,-2.096 0.018,-3.363 -4.913,-5.641c-3.438,-1.589 -4.814,-2.579 -5.033,-3.624c-0.166,-0.79 -0.617,-3.033 -1.004,-4.984c-0.386,-1.951 -1.562,-5.07 -2.613,-6.932c-1.263,-2.239 -1.91,-4.29 -1.91,-6.058c0,-3.962 -3.789,-33.769 -4.957,-38.999c-0.555,-2.486 -1.276,-5.028 -1.601,-5.65c-0.732,-1.401 -2.692,-1.465 -3.805,-0.125z" data-paper-data="{&quot;wickUUID&quot;:&quot;d63cedb4-5641-410b-9af0-6c1207d6e856&quot;,&quot;wickType&quot;:&quot;path&quot;,&quot;originalStyle&quot;:{&quot;strokeColor&quot;:null,&quot;fillColor&quot;:[&quot;Color&quot;,0,0,0],&quot;strokeWidth&quot;:1}}" fill="#000000"/><path d="M381.08097,187.22893c-0.699,0.843 -0.696,1.378 0.021,3.068c3.944,9.304 13.533,42.002 12.597,42.958c-0.505,0.515 -6.118,-4.783 -6.118,-5.775c0,-2.091 -1.667,-2.713 -5.644,-2.106l-3.719,0.568l0.187,2.861c0.244,3.726 0.802,4.297 4.702,4.815c2.761,0.366 3.833,0.964 7.087,3.956c2.744,2.522 4.35,3.525 5.648,3.525c3.855,0 4.223,-2.649 1.81,-13.02c-0.855,-3.672 -1.762,-7.984 -2.015,-9.582c-0.254,-1.598 -1.42,-5.666 -2.591,-9.041c-1.171,-3.374 -3.051,-9.04 -4.177,-12.592c-3.09,-9.747 -5.362,-12.558 -7.788,-9.635z" data-paper-data="{&quot;wickUUID&quot;:&quot;0916e071-492e-4d3c-b797-368e8991f80c&quot;,&quot;wickType&quot;:&quot;path&quot;,&quot;originalStyle&quot;:{&quot;strokeColor&quot;:null,&quot;fillColor&quot;:[&quot;Color&quot;,0,0,0],&quot;strokeWidth&quot;:1}}" fill="#000000"/><path d="M330.65479,212.11288c-2.433,1.444 -3.775,3.519 -3.775,5.833c0,2.081 4.034,5.717 6.343,5.717c1.318,0 2.597,0.644 3.935,1.983c3.82,3.82 6.967,0.951 3.755,-3.422c-1.223,-1.665 -1.502,-2.728 -1.317,-5.018c0.438,-5.435 -4.054,-7.994 -8.941,-5.093z" data-paper-data="{&quot;wickUUID&quot;:&quot;05ccae3f-a0e7-4f44-b7ae-a42e9af67577&quot;,&quot;wickType&quot;:&quot;path&quot;,&quot;originalStyle&quot;:{&quot;strokeColor&quot;:null,&quot;fillColor&quot;:[&quot;Color&quot;,0,0,0],&quot;strokeWidth&quot;:1}}" fill="#000000"/><path d="M362.04935,143.38208c-1.68,1.681 -4.258,7.629 -3.811,8.794c0.477,1.242 1.903,1.826 3.221,1.32c1.363,-0.522 4.935,-7.746 4.688,-9.479c-0.257,-1.802 -2.572,-2.16 -4.098,-0.635z" data-paper-data="{&quot;wickUUID&quot;:&quot;c7970652-6622-45a6-a108-c94a03868b30&quot;,&quot;wickType&quot;:&quot;path&quot;,&quot;originalStyle&quot;:{&quot;strokeColor&quot;:null,&quot;fillColor&quot;:[&quot;Color&quot;,0,0,0],&quot;strokeWidth&quot;:1}}" fill="#000000"/><path d="M376.14135,140.76708c-4.659,2.297 -8.1,11.753 -4.673,12.841c1.606,0.509 3.198,-0.682 3.198,-2.392c0,-1.877 3.237,-5.76 5.638,-6.763c1.546,-0.646 2.111,-1.293 2.111,-2.418c0,-2.464 -2.73,-3.015 -6.274,-1.268z" data-paper-data="{&quot;wickUUID&quot;:&quot;d637c407-7b82-45b3-b661-d89d33c7775f&quot;,&quot;wickType&quot;:&quot;path&quot;,&quot;originalStyle&quot;:{&quot;strokeColor&quot;:null,&quot;fillColor&quot;:[&quot;Color&quot;,0,0,0],&quot;strokeWidth&quot;:1}}" fill="#000000"/></g><g fill="none" fill-rule="nonzero" stroke="none" stroke-width="1" stroke-linecap="butt" stroke-linejoin="miter" stroke-miterlimit="10" stroke-dasharray="" stroke-dashoffset="0" font-family="sans-serif" font-weight="normal" font-size="12" text-anchor="start" style="mix-blend-mode: normal"/><g id="wick_project_gui" fill="none" fill-rule="nonzero" stroke="none" stroke-width="1" stroke-linecap="butt" stroke-linejoin="miter" stroke-miterlimit="10" stroke-dasharray="" stroke-dashoffset="0" font-family="sans-serif" font-weight="normal" font-size="12" text-anchor="start" style="mix-blend-mode: normal"/></g></svg>