<svg version="1.1" xmlns="http://www.w3.org/2000/svg" xmlns:xlink="http://www.w3.org/1999/xlink" width="1107" height="504" viewBox="0,0,1107,504"><g transform="translate(102.04854,-40.9663) scale(1.18038,1.18038)"><g id="wick_project_bg" fill-opacity="0" fill="#ffffff" fill-rule="nonzero" stroke="none" stroke-width="1" stroke-linecap="butt" stroke-linejoin="miter" stroke-miterlimit="10" stroke-dasharray="" stroke-dashoffset="0" font-family="none" font-weight="none" font-size="none" text-anchor="none" style="mix-blend-mode: normal"><rect x="0" y="0" width="720" height="480"/></g><g data-paper-data="{&quot;wickUUID&quot;:&quot;8e11f373-1952-479c-b594-1eb0a895ec75&quot;,&quot;wickType&quot;:&quot;clipsandpaths&quot;}" fill="none" fill-rule="evenodd" stroke="none" stroke-width="1" stroke-linecap="butt" stroke-linejoin="miter" stroke-miterlimit="10" stroke-dasharray="" stroke-dashoffset="0" font-family="none" font-weight="none" font-size="none" text-anchor="none" style="mix-blend-mode: normal"><path d="M391.84601,188.47045c-0.51867,0.33233 -2.03764,0.91867 -2.72297,1.02834c-3.58467,0.573 -12.57236,9.72122 -14.14403,14.37022c-0.76833,2.27267 -1.58554,9.4137 -1.59621,14.47937c-0.01167,5.68567 0.54905,8.78819 2.03505,11.72086c1.031,2.03467 5.58969,6.66375 8.44069,8.56375c4.17733,2.78367 10.78573,4.92477 15.46406,4.99177c2.30233,0.033 3.21858,-0.07677 4.04025,-0.72244c0.525,-0.41267 1.64143,-0.96721 2.0291,-0.97121c3.274,-0.034 8.72109,-5.77826 12.99609,-13.70393l1.71923,-3.20829l-0.2735,-2.92261c-0.16033,-1.46667 -0.44668,-5.30914 -0.63301,-8.50581c-0.30467,-5.22467 -0.55061,-6.3458 -1.34461,-7.9688c-1.85833,-3.79833 -8.1976,-11.09226 -12.3746,-14.22859c-1.49833,-1.125 -3.10189,-1.8771 -5.71722,-2.61143c-3.86933,-1.086 -6.53532,-1.19653 -7.91832,-0.3112zM390.80651,204.24864c1.20933,0.951 1.51815,1.82297 1.29515,4.42964c-0.45133,5.269 -2.63294,7.44872 -4.84194,4.82339c-0.74067,-0.88 0.25614,-0.49086 0.25847,-2.39986c0.00367,-3.37667 0.45987,-6.02356 1.27487,-6.89123c0.87467,-0.93167 0.88812,-0.84694 2.01345,0.03806zM403.4298,212.13338c1.02833,1.06533 0.77848,0.43896 0.77848,1.55763c0,2.80033 -1.54634,4.83384 -3.84134,4.83384c-1.44333,0 -0.82386,0.10701 -1.71219,-2.39432c-0.683,-1.923 -0.69289,-2.50342 0.64078,-4.02209c1.88233,-2.14367 2.14794,-2.03206 4.13427,0.02494zM390.48798,232.99349c0.89667,0.45467 2.10915,0.89992 2.99048,1.09759c1.82233,0.40833 2.22692,0.51918 2.52059,1.68985c0.23533,0.938 0.21671,1.52537 -0.58096,1.83137c-1.83967,0.706 -5.42022,-0.25989 -7.42355,-2.01856c-1.49767,-1.315 -1.46227,-1.98616 -0.11094,-3.04883c1.121,-0.882 0.62271,-0.55542 2.60438,0.44858z" data-paper-data="{&quot;wickUUID&quot;:&quot;fb3446d8-5889-4201-91e3-3875e7bc0eae&quot;,&quot;wickType&quot;:&quot;path&quot;,&quot;originalStyle&quot;:{&quot;strokeColor&quot;:null,&quot;fillColor&quot;:[&quot;Color&quot;,1,1,1],&quot;strokeWidth&quot;:1}}" fill="#ffffff"/><path d="M422.24115,134.88875c-1.29167,1.227 -8.08633,10.3225 -10.35366,13.85417c-4.46767,6.959 -17.05202,31.95844 -17.04835,33.84911c0.00133,0.57167 9.1664,3.71547 9.47207,3.22047c0.13233,-0.214 1.15233,-1.47471 1.26766,-2.19671c0.25233,-1.577 1.43029,-3.97369 4.78829,-9.74269c3.09533,-5.31867 5.04045,-9.4113 10.07778,-21.2003c4.52833,-10.59833 6.37734,-15.41915 6.37734,-16.59782c0,-0.77567 -1.49908,-2.58306 -2.32275,-2.58306c-0.18233,0 -1.63138,0.80083 -2.25838,1.39683z" data-paper-data="{&quot;wickUUID&quot;:&quot;c4f37391-f73d-4368-8709-e5e4aa67aa5c&quot;,&quot;wickType&quot;:&quot;path&quot;,&quot;originalStyle&quot;:{&quot;strokeColor&quot;:null,&quot;fillColor&quot;:[&quot;Color&quot;,1,0.50196,0],&quot;strokeWidth&quot;:1}}" fill="#ff8000"/><path d="M398.79534,143.76722c-1.00233,0.585 -1.78534,3.64789 -3.97034,15.53922c-0.741,4.03333 -1.87,9.50596 -2.504,12.13929c-0.634,2.63333 0.24056,5.7729 0.24189,5.98123c0.00133,0.20833 1.96975,-3.46465 4.14008,-7.86465c4.493,-9.109 8.43007,-16.55292 10.6344,-20.10759c0.917,-1.47867 1.19491,-3.58843 1.00958,-3.77376c-0.3,-0.3 -7.22397,-2.84198 -7.70497,-2.82231c-0.13433,0.00567 -1.53997,0.7299 -1.84664,0.90857z" data-paper-data="{&quot;wickUUID&quot;:&quot;c4a7daf5-39aa-4f05-b6f1-b6f68c18b509&quot;,&quot;wickType&quot;:&quot;path&quot;,&quot;originalStyle&quot;:{&quot;strokeColor&quot;:null,&quot;fillColor&quot;:[&quot;Color&quot;,1,0.50196,0],&quot;strokeWidth&quot;:1}}" fill="#ff8000"/><path d="M389.1699,247.92823c-3.70433,8.53733 -5.79323,14.55385 -9.1409,26.32752c-1.365,4.801 -3.92431,13.21275 -5.67931,18.66675c-1.755,5.454 -2.83122,10.90415 -2.71555,11.01882c0.412,0.40867 10.65932,0.33675 15.07899,-0.20792c2.475,-0.305 6.64272,-0.71474 9.11772,-0.89307c9.389,-0.67567 20.22171,-3.31531 20.22171,-4.90731c0,-0.26267 -0.26561,-3.33116 -1.11128,-5.58549c-3.339,-8.90267 -4.66782,-13.26831 -5.97382,-19.66398c-1.45933,-7.14533 -3.12305,-19.29124 -3.12372,-22.78924l-0.50935,-2.84244l-5.3853,-0.07658c-3.10967,-0.00533 -5.59738,-0.1693 -6.51505,-0.4313c-0.825,-0.235 -2.06952,-0.48478 -2.39152,-0.57845c-0.44633,-0.12933 -1.34095,0.73736 -1.87262,1.96269z" data-paper-data="{&quot;wickUUID&quot;:&quot;c405099a-aa10-4099-ad74-a2f911544143&quot;,&quot;wickType&quot;:&quot;path&quot;,&quot;originalStyle&quot;:{&quot;strokeColor&quot;:null,&quot;fillColor&quot;:[&quot;Color&quot;,0.50196,0,1],&quot;strokeWidth&quot;:1}}" fill="#8000ff"/><path d="M387.09597,232.26136c-1.667,1.667 -0.609,3.777 2.631,5.248c4.02,1.825 7.005,1.221 7.005,-1.417c0,-1.556 -1.023,-2.488 -2.737,-2.492c-0.775,-0.002 -2.156,-0.498 -3.068,-1.102c-2.007,-1.329 -2.697,-1.372 -3.831,-0.237z" data-paper-data="{&quot;wickUUID&quot;:&quot;8eaa8be9-7666-4913-ab99-a9d6b45c6431&quot;,&quot;wickType&quot;:&quot;path&quot;,&quot;originalStyle&quot;:{&quot;strokeColor&quot;:null,&quot;fillColor&quot;:[&quot;Color&quot;,0,0,0],&quot;strokeWidth&quot;:1}}" id="8eaa8be9-7666-4913-ab99-a9d6b45c6431" fill="#000000"/><path d="M387.81586,204.10868c-0.451,0.542 -0.837,2.64 -0.952,5.159c-0.155,3.407 -0.01,4.427 0.731,5.168c2.547,2.547 5.256,-1.129 5.264,-7.147c0.005,-3.503 -3.133,-5.481 -5.043,-3.18z" data-paper-data="{&quot;wickUUID&quot;:&quot;c224669d-30fa-4e52-9468-7613a78ea4de&quot;,&quot;wickType&quot;:&quot;path&quot;,&quot;originalStyle&quot;:{&quot;strokeColor&quot;:null,&quot;fillColor&quot;:[&quot;Color&quot;,0,0,0],&quot;strokeWidth&quot;:1}}" id="c224669d-30fa-4e52-9468-7613a78ea4de" fill="#000000"/><path d="M399.10386,211.07337c-1.712,1.87 -1.954,3.373 -0.948,5.886c0.762,1.906 1.157,2.269 2.467,2.269c1.727,0 3.125,-1.135 3.896,-3.162c0.818,-2.152 0.594,-3.435 -0.85,-4.88c-1.689,-1.688 -3.092,-1.723 -4.565,-0.113z" data-paper-data="{&quot;wickUUID&quot;:&quot;d03691fb-72f7-4915-a17c-c98ef63447a4&quot;,&quot;wickType&quot;:&quot;path&quot;,&quot;originalStyle&quot;:{&quot;strokeColor&quot;:null,&quot;fillColor&quot;:[&quot;Color&quot;,0,0,0],&quot;strokeWidth&quot;:1}}" id="d03691fb-72f7-4915-a17c-c98ef63447a4" fill="#000000"/><path d="M389.34221,184.65323c-2.088,0.737 -4.787,1.995 -5.998,2.796c-4.491,2.972 -10.987,10.826 -12.566,15.192c-1.159,3.206 -2.054,15.13 -1.534,20.417c0.898,9.116 5.64,15.722 14.631,20.384c6.756,3.503 11.551,4.744 16.931,4.383c6.576,-0.442 8.455,-1.323 13.438,-6.303c3.431,-3.429 4.886,-5.427 7.023,-9.645c3.001,-5.924 2.92,-5.261 2.172,-17.901l-0.491,-8.294l-2.378,-3.989c-4.29,-7.196 -12.428,-15.061 -16.771,-16.209c-1.302,-0.344 -3.578,-0.979 -5.057,-1.41c-3.65,-1.064 -4.976,-0.982 -9.4,0.579zM398.31621,189.08623c1.41,0.451 3.225,0.948 4.036,1.104c2.176,0.421 10.202,8.243 13.274,12.937c2.311,3.533 2.669,4.459 2.669,6.911c0.001,1.558 0.255,5.509 0.565,8.781l0.564,5.95l-2.344,4.555c-2.942,5.719 -8.935,12.02 -11.43,12.02c-0.878,0 -1.905,0.374 -2.283,0.83c-1.789,2.155 -11.778,0.34 -17.913,-3.255c-3.676,-2.155 -8.22,-6.551 -9.57,-9.261c-1.868,-3.747 -2.429,-10.081 -1.584,-17.894c0.759,-7.026 0.982,-7.871 2.777,-10.513c3.99,-5.873 8.32,-9.774 12.972,-11.688c3.65,-1.501 4.85,-1.571 8.267,-0.477z" data-paper-data="{&quot;wickUUID&quot;:&quot;e2fb2576-b101-4896-b277-089ae5b676f6&quot;,&quot;wickType&quot;:&quot;path&quot;,&quot;originalStyle&quot;:{&quot;strokeColor&quot;:null,&quot;fillColor&quot;:[&quot;Color&quot;,0,0,0],&quot;strokeWidth&quot;:1}}" id="e2fb2576-b101-4896-b277-089ae5b676f6" fill="#000000"/><path d="M421.50266,129.50927c-3.264,2.141 -12.729,15.455 -18.187,25.583c-4.851,9 -13.905,27.644 -14.865,30.608c-0.627,1.937 -0.585,2.239 0.455,3.279c0.937,0.937 1.378,1.038 2.429,0.56c1.893,-0.863 4.469,-4.818 4.033,-6.193c-0.255,-0.804 1.833,-5.441 7.309,-16.233c8.139,-16.04 8.766,-17.089 16.042,-26.842c3.623,-4.856 4.916,-6.214 5.796,-6.082c2.682,0.401 2.455,1.425 -3.42,15.4c-6.299,14.981 -8.071,18.685 -12.025,25.131c-3.342,5.448 -4.597,8.517 -4.597,11.235c0,2.368 0.777,3.417 2.531,3.417c1.598,0 2.236,-0.909 2.588,-3.686c0.166,-1.305 1.436,-4.301 2.931,-6.911c5.187,-9.059 6.48,-11.701 11.395,-23.282c5.717,-13.469 7.62,-18.463 7.633,-20.029c0.036,-4.067 -6.774,-8.102 -10.048,-5.955z" data-paper-data="{&quot;wickUUID&quot;:&quot;5a00ebff-52a9-415a-9638-c76110119c9e&quot;,&quot;wickType&quot;:&quot;path&quot;,&quot;originalStyle&quot;:{&quot;strokeColor&quot;:null,&quot;fillColor&quot;:[&quot;Color&quot;,0,0,0],&quot;strokeWidth&quot;:1}}" id="5a00ebff-52a9-415a-9638-c76110119c9e" fill="#000000"/><path d="M396.61227,139.09245c-2.015,1.174 -3.816,7.119 -5.435,17.935c-0.364,2.433 -1.662,8.404 -2.885,13.27c-1.222,4.865 -2.592,10.782 -3.044,13.148c-0.767,4.02 -0.756,4.373 0.165,5.391c2.161,2.388 3.695,0.72 4.845,-5.27c0.467,-2.433 1.623,-7.409 2.57,-11.058c0.947,-3.649 2.203,-9.651 2.79,-13.337c1.509,-9.464 2.707,-14.394 3.699,-15.217c0.708,-0.588 1.58,-0.448 5.078,0.815c2.323,0.838 4.622,1.658 5.109,1.82c0.995,0.332 2.709,-1.122 2.709,-2.297c0,-1.417 -2.259,-2.892 -6.655,-4.345c-4.582,-1.514 -7.36,-1.78 -8.946,-0.855z" data-paper-data="{&quot;wickUUID&quot;:&quot;94ffab89-e57c-47a6-b43b-f0a0a32855a5&quot;,&quot;wickType&quot;:&quot;path&quot;,&quot;originalStyle&quot;:{&quot;strokeColor&quot;:null,&quot;fillColor&quot;:[&quot;Color&quot;,0,0,0],&quot;strokeWidth&quot;:1}}" id="94ffab89-e57c-47a6-b43b-f0a0a32855a5" fill="#000000"/><path d="M388.10172,241.21469c-0.663,0.439 -5.345,10.804 -7.613,16.855c-0.77,2.052 -2.175,6.655 -3.123,10.228c-2.411,9.087 -6.917,23.759 -9.213,29.995c-2.62,7.116 -2.719,7.819 -1.283,9.118c1.651,1.494 9.806,1.761 18.505,0.607c3.636,-0.483 8.239,-0.878 10.229,-0.878c3.9,0.001 14.229,-1.772 18.268,-3.135c1.369,-0.462 3.235,-0.971 4.147,-1.131c4.49,-0.79 4.452,-2.402 -0.361,-15.245c-3.841,-10.252 -5.609,-18.185 -6.862,-30.798c-1.051,-10.584 -1.34,-11.616 -3.251,-11.616c-2.847,0 -3.055,2.247 -1.382,14.928c1.608,12.184 3.41,19.93 6.526,28.043c3.862,10.057 3.746,9.344 1.682,10.412c-2.544,1.315 -13.964,3.541 -18.24,3.554c-2.003,0.007 -6.108,0.383 -9.123,0.838c-6.87,1.035 -15.156,1.118 -15.156,0.152c0,-0.374 0.727,-2.8 1.616,-5.391c2.567,-7.477 6.432,-20.174 8.307,-27.283c1.788,-6.776 4.597,-14.58 7.997,-22.212c2.245,-5.04 2.307,-5.404 1.115,-6.595c-0.942,-0.942 -1.823,-1.083 -2.785,-0.446z" data-paper-data="{&quot;wickUUID&quot;:&quot;f2898473-3902-4dd5-b2d4-b4a826ad95da&quot;,&quot;wickType&quot;:&quot;path&quot;,&quot;originalStyle&quot;:{&quot;strokeColor&quot;:null,&quot;fillColor&quot;:[&quot;Color&quot;,0,0,0],&quot;strokeWidth&quot;:1}}" id="f2898473-3902-4dd5-b2d4-b4a826ad95da" fill="#000000"/><path d="M405.85452,245.01808c-1.244,1.243 -1.008,1.941 4.5,13.308c7.267,15 14.643,32.38 14.01,33.013c-1.539,1.539 0.887,6.266 3.844,7.491c1.436,0.595 1.898,0.564 3.065,-0.2c2.049,-1.343 3.228,-4.007 2.89,-6.53c-0.365,-2.716 -1.144,-3.643 -3.417,-4.07c-2.026,-0.38 -1.754,0.074 -6.114,-10.194c-4.248,-10.006 -15.145,-32.807 -15.912,-33.294c-1.024,-0.652 -1.881,-0.509 -2.866,0.476z" data-paper-data="{&quot;wickUUID&quot;:&quot;67286508-7a3f-4d32-b359-85ac66899c1d&quot;,&quot;wickType&quot;:&quot;path&quot;,&quot;originalStyle&quot;:{&quot;strokeColor&quot;:null,&quot;fillColor&quot;:[&quot;Color&quot;,0,0,0],&quot;strokeWidth&quot;:1}}" id="67286508-7a3f-4d32-b359-85ac66899c1d" fill="#000000"/><path d="M384.02724,246.18228c-4.455,4.595 -8.887,10.614 -16.586,22.531c-3.732,5.778 -7.373,11.136 -8.09,11.907c-1.704,1.834 -2.255,4.505 -1.124,5.444c2.087,1.732 3.193,0.65 10.108,-9.887c10.448,-15.923 13.867,-20.691 18.25,-25.45c2.236,-2.428 4.065,-4.768 4.065,-5.2c0,-1.062 -1.529,-2.524 -2.639,-2.524c-0.495,0 -2.288,1.431 -3.984,3.179z" data-paper-data="{&quot;wickUUID&quot;:&quot;710937c5-48e2-4e0e-b48f-044c3b7cdd14&quot;,&quot;wickType&quot;:&quot;path&quot;,&quot;originalStyle&quot;:{&quot;strokeColor&quot;:null,&quot;fillColor&quot;:[&quot;Color&quot;,0,0,0],&quot;strokeWidth&quot;:1}}" id="710937c5-48e2-4e0e-b48f-044c3b7cdd14" fill="#000000"/><path d="M356.26985,279.23779c-2.016,1.095 -2.334,2.494 -1.276,5.611c1.18,3.474 1.723,4.045 3.847,4.045c4.559,0 5.451,-6.72 1.28,-9.642c-1.494,-1.046 -1.946,-1.048 -3.851,-0.014z" data-paper-data="{&quot;wickUUID&quot;:&quot;49099103-f818-4add-9563-44acf99b200c&quot;,&quot;wickType&quot;:&quot;path&quot;,&quot;originalStyle&quot;:{&quot;strokeColor&quot;:null,&quot;fillColor&quot;:[&quot;Color&quot;,0,0,0],&quot;strokeWidth&quot;:1}}" id="49099103-f818-4add-9563-44acf99b200c" fill="#000000"/><path d="M384.09202,304.31613c-1.146,0.726 -1.685,4.59 -1.711,12.265c-0.014,3.825 -0.575,13.404 -1.249,21.287c-1.193,13.972 -1.546,24.234 -0.987,28.708l0.277,2.212l-2.488,0.176c-6.055,0.431 -5.712,5.076 0.375,5.076c6.429,0 7.75,-1.654 6.755,-8.458c-0.72,-4.921 -0.557,-9.414 1.106,-30.521c1.472,-18.68 1.692,-30.013 0.598,-30.705c-1.016,-0.643 -1.709,-0.653 -2.676,-0.04z" data-paper-data="{&quot;wickUUID&quot;:&quot;ec707abb-823e-4fda-a627-bf39607d5bb5&quot;,&quot;wickType&quot;:&quot;path&quot;,&quot;originalStyle&quot;:{&quot;strokeColor&quot;:null,&quot;fillColor&quot;:[&quot;Color&quot;,0,0,0],&quot;strokeWidth&quot;:1}}" id="ec707abb-823e-4fda-a627-bf39607d5bb5" fill="#000000"/><path d="M402.5773,302.47953c-0.478,0.478 -0.869,1.462 -0.869,2.187c0,0.726 -0.611,5.124 -1.357,9.775c-2.928,18.24 -6.431,44.144 -6.754,49.951c-0.498,8.948 -1.009,8.515 9.626,8.146c4.792,-0.167 9.024,-0.549 9.405,-0.851c0.93,-0.737 0.876,-2.887 -0.093,-3.691c-0.518,-0.43 -3,-0.621 -7.326,-0.562l-6.542,0.089l0.081,-4.897c0.076,-4.599 2.615,-23.644 6.314,-47.37c1.897,-12.171 1.867,-11.663 0.753,-12.777c-1.103,-1.103 -2.136,-1.103 -3.238,0z" data-paper-data="{&quot;wickUUID&quot;:&quot;fa1c16f8-975f-4e81-9142-6d27759eba1b&quot;,&quot;wickType&quot;:&quot;path&quot;,&quot;originalStyle&quot;:{&quot;strokeColor&quot;:null,&quot;fillColor&quot;:[&quot;Color&quot;,0,0,0],&quot;strokeWidth&quot;:1}}" id="fa1c16f8-975f-4e81-9142-6d27759eba1b" fill="#000000"/></g><g fill="none" fill-rule="nonzero" stroke="none" stroke-width="1" stroke-linecap="butt" stroke-linejoin="miter" stroke-miterlimit="10" stroke-dasharray="" stroke-dashoffset="0" font-family="sans-serif" font-weight="normal" font-size="12" text-anchor="start" style="mix-blend-mode: normal"/><g id="wick_project_gui" fill="none" fill-rule="nonzero" stroke="none" stroke-width="1" stroke-linecap="butt" stroke-linejoin="miter" stroke-miterlimit="10" stroke-dasharray="" stroke-dashoffset="0" font-family="sans-serif" font-weight="normal" font-size="12" text-anchor="start" style="mix-blend-mode: normal"/></g></svg>