<svg version="1.1" xmlns="http://www.w3.org/2000/svg" xmlns:xlink="http://www.w3.org/1999/xlink" width="1107" height="504" viewBox="0,0,1107,504"><g transform="translate(102.04854,-40.9663) scale(1.18038,1.18038)"><g id="wick_project_bg" fill-opacity="0" fill="#ffffff" fill-rule="nonzero" stroke="none" stroke-width="1" stroke-linecap="butt" stroke-linejoin="miter" stroke-miterlimit="10" stroke-dasharray="" stroke-dashoffset="0" font-family="none" font-weight="none" font-size="none" text-anchor="none" style="mix-blend-mode: normal"><rect x="0" y="0" width="720" height="480"/></g><g data-paper-data="{&quot;wickUUID&quot;:&quot;c42b8c9e-fe51-43d8-8c61-970992aed813&quot;,&quot;wickType&quot;:&quot;clipsandpaths&quot;}" fill="none" fill-rule="evenodd" stroke="none" stroke-width="1" stroke-linecap="butt" stroke-linejoin="miter" stroke-miterlimit="10" stroke-dasharray="" stroke-dashoffset="0" font-family="none" font-weight="none" font-size="none" text-anchor="none" style="mix-blend-mode: normal"><path d="M370.94688,240.52476c-2.833,2.83033 -3.30994,3.16798 -7.41961,5.17565c-2.442,1.193 -6.13468,2.76724 -8.29735,3.54357c-2.16267,0.77633 -4.16991,2.78006 -4.02391,2.90173c3.10367,2.58033 8.15112,6.9291 12.23912,10.49577c9.76767,8.522 24.48239,21.07249 25.07572,21.39016c0.47533,0.25433 2.08887,-0.13053 3.52254,-1.44053c2.19833,-2.00933 6.68645,-7.74728 8.54112,-10.92261c1.813,-3.10367 3.43993,-5.23914 6.70993,-8.80447l2.88508,-3.5368l-3.44311,-3.11607c-3.06667,-2.46633 -9.598,-6.92176 -10.14967,-6.92343c-0.15833,-0.00033 -1.27333,-0.59669 -2.37333,-1.26469c-1.1,-0.66833 -3.33447,-1.7527 -4.98447,-2.4197c-1.654,-0.66833 -5.21321,-2.62957 -7.97021,-4.3919c-2.75,-1.758 -5.65954,-3.44088 -6.02621,-3.60355c-0.56233,-0.24967 -1.70397,0.3372 -4.28564,2.91687z" data-paper-data="{&quot;wickUUID&quot;:&quot;ac89bc21-3509-458e-af06-526c569fb9b8&quot;,&quot;wickType&quot;:&quot;path&quot;,&quot;originalStyle&quot;:{&quot;strokeColor&quot;:null,&quot;fillColor&quot;:[&quot;Color&quot;,0.50196,0,1],&quot;strokeWidth&quot;:1}}" fill="#8000ff"/><path d="M414.18065,169.75094c-11.564,4.19533 -26.05252,10.22289 -33.18685,13.80589c-3.64567,1.83067 -16.12759,8.61355 -16.45326,8.93922c-0.16533,0.16533 1.06688,2.41019 2.18388,3.01886c0.59,0.32167 1.49103,0.12964 3.01303,-0.83503c2.91933,-1.851 8.47706,-4.73609 14.31139,-7.42609c10.16967,-4.68833 17.88746,-7.64406 31.40746,-12.02973c3.67133,-1.19067 7.07905,-2.46287 7.13705,-2.51687c0.251,-0.23333 -2.12884,-4.86825 -2.50084,-4.84192c-0.226,0.01567 -3.16186,0.88767 -5.91186,1.88567z" data-paper-data="{&quot;wickUUID&quot;:&quot;79fd0e91-842c-4dda-b61a-8e0d4ab63b1b&quot;,&quot;wickType&quot;:&quot;path&quot;,&quot;originalStyle&quot;:{&quot;strokeColor&quot;:null,&quot;fillColor&quot;:[&quot;Color&quot;,1,0.50196,0],&quot;strokeWidth&quot;:1}}" fill="#ff8000"/><path d="M418.51395,151.34295c-4.30133,1.536 -14.61964,5.92215 -18.42397,7.82782c-6.032,3.022 -13.24488,7.48218 -34.11021,21.09685c-7.73767,5.04867 -14.42467,9.41541 -14.721,9.59874c-0.37633,0.23333 1.23294,1.81618 4.12494,1.81618l4.336,-0.01558l1.44567,-1.14759c3.44367,-3.021 17.08858,-10.06882 31.02025,-16.02082c11.42933,-4.883 15.67363,-6.50805 26.19896,-10.03705c6.31133,-2.116 7.62831,-3.05706 7.91531,-4.58706c0.41733,-2.22433 -1.43114,-9.79807 -2.40081,-9.7584c-0.23867,0.01 -3.18514,0.44124 -5.38514,1.22691z" data-paper-data="{&quot;wickUUID&quot;:&quot;cf18ef10-75c0-43dd-8ef8-554378efbccd&quot;,&quot;wickType&quot;:&quot;path&quot;,&quot;originalStyle&quot;:{&quot;strokeColor&quot;:null,&quot;fillColor&quot;:[&quot;Color&quot;,1,0.50196,0],&quot;strokeWidth&quot;:1}}" fill="#ff8000"/><path d="M347.40995,195.80745c-0.91667,0.149 -3.0692,0.63424 -4.49587,1.00457c-2.346,0.609 -3.2392,1.23631 -5.53553,3.29164c-6.86567,6.145 -9.30276,11.51026 -10.57943,23.14993c-0.684,6.23533 0.49291,14.95949 2.48724,18.86882c1.513,2.96567 8.47492,5.76879 14.57292,5.75579c4.73533,-0.01033 8.02578,-0.97857 16.38211,-4.94624c6.32533,-3.003 8.93855,-5.07035 10.65188,-8.40668c0.898,-1.74833 1.12055,-2.604 1.08922,-6.73667c-0.04433,-5.80133 -0.62859,-10.16843 -2.04192,-15.22743c-0.64633,-2.31333 -1.43372,-5.25883 -1.69939,-6.35883c-1.00667,-4.16867 -1.52324,-5.02828 -3.39491,-6.91561c-2.75567,-2.779 -4.93495,-3.54171 -10.84862,-3.65204c-2.56667,-0.048 -5.67103,0.02342 -6.5877,0.17275zM335.16396,213.32245c0.79533,0.795 0.65509,0.38923 0.65309,5.18223c-0.002,6.11467 -0.18092,6.92974 -1.74225,7.44507c-0.894,0.295 0.1933,0.34029 -0.5207,-0.00204c-1.234,-0.59133 -1.43129,-1.87437 -1.29862,-7.92804c0.1,-4.55367 -0.05892,-4.23446 0.68475,-4.83679c1.09067,-0.883 1.2324,-0.8521 2.22373,0.13957zM360.70042,233.0823c0.892,0.70133 1.19724,1.50626 0.60957,2.43193c-0.146,0.22933 -1.20337,0.58567 -2.82004,1.23734c-1.61667,0.652 -4.94277,2.19453 -7.4761,3.46353c-5.09933,2.55467 -6.62385,2.99678 -7.50785,2.11278c-0.30667,-0.30667 0.32966,-0.05009 0.32966,-0.65742c0,-0.85867 -0.13562,-0.7756 0.86638,-1.68093c2.89033,-2.61133 12.56455,-7.04814 15.63955,-7.17347c0.296,-0.012 -0.12417,-0.11376 0.35883,0.26624z" data-paper-data="{&quot;wickUUID&quot;:&quot;41024cc2-efe8-41bd-917c-fad228c361b5&quot;,&quot;wickType&quot;:&quot;path&quot;,&quot;originalStyle&quot;:{&quot;strokeColor&quot;:null,&quot;fillColor&quot;:[&quot;Color&quot;,1,1,1],&quot;strokeWidth&quot;:1}}" fill="#ffffff"/><path d="M343.3684,192.12487c-12.14,2.985 -20.153,15.123 -21.195,32.108c-0.481,7.833 1.201,17.032 3.846,21.029c1.873,2.83 5.956,5.105 11.99,6.68c6.094,1.591 10.128,0.954 20.454,-3.231c6.919,-2.804 9.438,-4.18 12.125,-6.622c4.998,-4.542 5.775,-7.206 5.225,-17.894c-0.239,-4.639 -0.684,-9.516 -0.989,-10.838c-0.414,-1.796 -0.328,-2.59 0.343,-3.146c1.412,-1.172 1.061,-3.3 -1.114,-6.756c-3.771,-5.991 -6.163,-8.396 -10.451,-10.507c-3.767,-1.855 -4.711,-2.045 -9.897,-2.002c-3.153,0.026 -7.805,0.557 -10.337,1.179zM361.0754,197.29587c3.592,1.848 5.77,4.513 6.116,7.486c0.166,1.421 0.944,4.308 1.729,6.417c1.924,5.167 3.16,17.979 2.082,21.578c-1.28,4.271 -5.72,7.653 -14.965,11.396c-7.055,2.857 -8.501,3.224 -12.54,3.186c-5.564,-0.054 -12.185,-2.684 -13.565,-5.39c-4.353,-8.533 -3.221,-26.447 2.227,-35.263c1.285,-2.078 8.024,-8.674 8.923,-8.733c0.238,-0.016 1.886,-0.432 3.662,-0.925c4.97,-1.38 13.414,-1.252 16.331,0.248z" data-paper-data="{&quot;wickUUID&quot;:&quot;6905efe8-a85e-4702-ab79-3dbbb91d2bc0&quot;,&quot;wickType&quot;:&quot;path&quot;,&quot;originalStyle&quot;:{&quot;strokeColor&quot;:null,&quot;fillColor&quot;:[&quot;Color&quot;,0,0,0],&quot;strokeWidth&quot;:1}}" fill="#000000"/><path d="M420.4593,145.72402c-7.971,2.743 -23.493,9.74 -29.435,13.269c-5.318,3.158 -40.84,26.189 -45.134,29.262c-0.79,0.566 -1.613,1.551 -1.829,2.19c-0.46,1.359 0.733,3.036 2.159,3.036c0.547,0 9.369,-5.524 19.603,-12.275c23.149,-15.271 28.901,-18.783 37.039,-22.617c9.038,-4.257 20.159,-8.563 20.913,-8.097c0.877,0.542 2.185,6.738 1.913,9.068c-0.219,1.875 -0.462,1.996 -10.556,5.241c-5.683,1.827 -15.643,5.685 -22.133,8.574c-6.49,2.89 -11.955,5.253 -12.144,5.253c-0.19,0 -4.979,2.498 -10.643,5.55c-10.461,5.638 -11.78,6.824 -10.706,9.624c0.618,1.609 2.119,1.142 9.003,-2.801c3.622,-2.074 8.329,-4.68 10.46,-5.791c8.424,-4.392 29.649,-13.115 40.353,-16.583c6.212,-2.013 11.522,-4.001 11.801,-4.417c1.362,-2.033 -1.764,-16.235 -4.084,-18.554c-1.535,-1.536 -1.93,-1.532 -6.58,0.068z" data-paper-data="{&quot;wickUUID&quot;:&quot;32a49326-c27f-4d2b-a67a-ca4a99efe4e6&quot;,&quot;wickType&quot;:&quot;path&quot;,&quot;originalStyle&quot;:{&quot;strokeColor&quot;:null,&quot;fillColor&quot;:[&quot;Color&quot;,0,0,0],&quot;strokeWidth&quot;:1}}" fill="#000000"/><path d="M420.99006,164.79087c-1.35,1.35 -1.276,2.746 0.281,5.301c0.947,1.551 1.075,2.187 0.482,2.377c-20.527,6.573 -29.231,9.847 -39.878,15.002c-14.928,7.228 -18.007,9.7 -15.369,12.339c1.23,1.229 2.393,0.929 5.64,-1.455c5.375,-3.945 25.355,-12.848 38.143,-16.997c6.57,-2.131 12.963,-4.086 14.206,-4.343c4.572,-0.946 5.625,-3.479 3.065,-7.375c-0.797,-1.215 -1.787,-2.78 -2.199,-3.478c-0.747,-1.266 -2.087,-2.357 -2.918,-2.376c-0.241,-0.006 -0.895,0.447 -1.453,1.005z" data-paper-data="{&quot;wickUUID&quot;:&quot;bf691a99-8e04-40a4-bdaa-0430bc0f47a2&quot;,&quot;wickType&quot;:&quot;path&quot;,&quot;originalStyle&quot;:{&quot;strokeColor&quot;:null,&quot;fillColor&quot;:[&quot;Color&quot;,0,0,0],&quot;strokeWidth&quot;:1}}" fill="#000000"/><path d="M331.89782,213.22987c-0.509,1.326 -0.509,10.837 0,12.163c0.462,1.204 2.892,1.354 3.999,0.247c0.809,-0.809 1.109,-10.519 0.383,-12.41c-0.228,-0.594 -1.146,-1.022 -2.191,-1.022c-1.045,0 -1.963,0.428 -2.191,1.022z" data-paper-data="{&quot;wickUUID&quot;:&quot;457776ab-6472-440b-8e8d-ab74d3bce704&quot;,&quot;wickType&quot;:&quot;path&quot;,&quot;originalStyle&quot;:{&quot;strokeColor&quot;:null,&quot;fillColor&quot;:[&quot;Color&quot;,0,0,0],&quot;strokeWidth&quot;:1}}" fill="#000000"/><path d="M351.52482,235.15919c-7.084,3.446 -8.395,4.46 -8.395,6.488c0,2.699 2.163,2.5 8.124,-0.75c3.06,-1.668 6.77,-3.389 8.245,-3.824c2.343,-0.692 2.681,-1.027 2.681,-2.658c0,-3.096 -3.226,-2.871 -10.655,0.744z" data-paper-data="{&quot;wickUUID&quot;:&quot;c5aec0e7-6368-4fc0-b633-3b70275eef34&quot;,&quot;wickType&quot;:&quot;path&quot;,&quot;originalStyle&quot;:{&quot;strokeColor&quot;:null,&quot;fillColor&quot;:[&quot;Color&quot;,0,0,0],&quot;strokeWidth&quot;:1}}" fill="#000000"/><path d="M372.96358,233.64762c-1.536,1.536 -0.437,4.391 1.691,4.391c0.504,0 3.261,1.643 6.128,3.651c2.866,2.009 6.478,4.033 8.027,4.499c1.549,0.467 3.645,1.439 4.659,2.161c1.014,0.722 2.094,1.313 2.399,1.313c0.796,0 7.109,4.284 10.721,7.277l3.081,2.551l-3.573,3.602c-1.965,1.981 -4.777,5.796 -6.249,8.478c-2.796,5.094 -9.247,12.499 -10.611,12.18c-0.435,-0.102 -8.115,-6.579 -17.067,-14.393c-22.486,-19.626 -22.57,-19.695 -23.859,-19.695c-1.571,0 -2.795,1.626 -2.284,3.036c0.232,0.639 2.217,2.724 4.412,4.635c6.919,6.021 26.369,22.867 31.998,27.713c3.547,3.053 5.953,4.653 6.997,4.653c1.036,0 3.156,-1.39 6.064,-3.975c4.39,-3.901 6.288,-6.443 9.035,-12.099c1.635,-3.367 5.698,-7.925 8.74,-9.805c1.748,-1.08 2.178,-1.756 2.162,-3.395c-0.012,-1.125 -0.375,-2.505 -0.807,-3.066c-1.595,-2.068 -11.582,-9.689 -15.169,-11.575c-2.035,-1.07 -4.712,-2.524 -5.95,-3.231c-1.237,-0.708 -2.69,-1.288 -3.228,-1.289c-0.539,-0.002 -3.74,-1.889 -7.114,-4.195c-6.074,-4.15 -8.621,-5.004 -10.203,-3.422z" data-paper-data="{&quot;wickUUID&quot;:&quot;c23d39a1-5799-49fc-a1c3-3990a5dde9de&quot;,&quot;wickType&quot;:&quot;path&quot;,&quot;originalStyle&quot;:{&quot;strokeColor&quot;:null,&quot;fillColor&quot;:[&quot;Color&quot;,0,0,0],&quot;strokeWidth&quot;:1}}" fill="#000000"/><path d="M387.51706,285.77738c-1.184,1.04 -6.592,7.651 -12.018,14.691c-10.279,13.338 -10.292,13.36 -30.235,50.256c-2.688,4.972 -5.157,9.331 -5.488,9.686c-0.39,0.419 -1.211,-0.077 -2.337,-1.413c-1.692,-2.007 -2.484,-2.372 -4.803,-2.215c-1.632,0.11 -1.48,3.434 0.228,4.98c0.747,0.676 2.087,2.471 2.976,3.989c2.462,4.202 5.372,5.075 6.375,1.913c0.376,-1.184 17.881,-33.939 25.102,-46.968c2.744,-4.953 21.476,-29.507 24.504,-32.123c1.835,-1.584 2.096,-2.717 0.903,-3.911c-1.255,-1.255 -2.912,-0.9 -5.207,1.115z" data-paper-data="{&quot;wickUUID&quot;:&quot;393d0088-c477-47c5-a919-7c4601087a54&quot;,&quot;wickType&quot;:&quot;path&quot;,&quot;originalStyle&quot;:{&quot;strokeColor&quot;:null,&quot;fillColor&quot;:[&quot;Color&quot;,0,0,0],&quot;strokeWidth&quot;:1}}" fill="#000000"/><path d="M481.05106,238.19995c-0.857,1.315 -15.087,32.71 -17.129,37.791c-1.125,2.8 -1.367,2.889 -4.648,1.716c-12.754,-4.56 -51.932,-12.891 -55.031,-11.701c-1.618,0.62 -1.346,3.582 0.395,4.307c0.799,0.333 6.393,1.365 12.431,2.293c11.567,1.778 35.106,7.6 41.858,10.351c2.195,0.895 4.607,1.474 5.361,1.287c1.673,-0.414 2.55,-2.129 12.544,-24.539c4.268,-9.571 7.895,-17.537 8.059,-17.701c0.165,-0.165 1.475,0.088 2.912,0.562c2.275,0.751 2.743,0.732 3.622,-0.146c2.433,-2.434 -1.471,-5.673 -6.838,-5.673c-1.974,0 -2.814,0.345 -3.536,1.453z" data-paper-data="{&quot;wickUUID&quot;:&quot;a068c4b7-ad00-4aa4-8284-32c8a468e171&quot;,&quot;wickType&quot;:&quot;path&quot;,&quot;originalStyle&quot;:{&quot;strokeColor&quot;:null,&quot;fillColor&quot;:[&quot;Color&quot;,0,0,0],&quot;strokeWidth&quot;:1}}" fill="#000000"/><path d="M406.09158,219.38962c-3.552,0.344 -9.939,1.477 -14.194,2.518c-6.855,1.678 -8.342,2.304 -13.046,5.5c-5.409,3.674 -6.734,5.437 -5.346,7.11c1.243,1.497 2.678,1.117 6.436,-1.707c1.936,-1.455 4.544,-3.162 5.794,-3.794c3.69,-1.862 13.54,-3.866 22.853,-4.649c8.823,-0.741 12.339,-0.442 16.942,1.439c1.102,0.451 2.482,0.636 3.067,0.411c1.279,-0.49 1.409,-3.233 0.201,-4.235c-3.107,-2.579 -12.162,-3.613 -22.707,-2.593z" data-paper-data="{&quot;wickUUID&quot;:&quot;f58871ea-e2a2-4438-9392-ca92b73e0f2a&quot;,&quot;wickType&quot;:&quot;path&quot;,&quot;originalStyle&quot;:{&quot;strokeColor&quot;:null,&quot;fillColor&quot;:[&quot;Color&quot;,0,0,0],&quot;strokeWidth&quot;:1}}" fill="#000000"/><path d="M431.81352,217.23958c-2.78,1.499 -7.318,5.788 -7.318,6.916c0,2.334 9.023,7.634 12.436,7.304c1.813,-0.175 2.331,-0.671 3.869,-3.708c2.057,-4.06 2.204,-5.902 0.679,-8.484c-1.834,-3.105 -6.034,-3.986 -9.666,-2.028z" data-paper-data="{&quot;wickUUID&quot;:&quot;1b7629e1-8db8-41db-a92d-86b47e3b0320&quot;,&quot;wickType&quot;:&quot;path&quot;,&quot;originalStyle&quot;:{&quot;strokeColor&quot;:null,&quot;fillColor&quot;:[&quot;Color&quot;,0,0,0],&quot;strokeWidth&quot;:1}}" fill="#000000"/><path d="M387.36386,224.07115c-12.439,5.191 -14.014,6.364 -11.677,8.702c1.206,1.205 2.047,0.958 12,-3.524c6.336,-2.853 8.704,-3.012 14.779,-0.99c5.134,1.708 5.883,2.325 5.896,4.854c0.011,2.381 0.464,3.18 2.369,4.183c3.951,2.08 8.599,-0.409 8.599,-4.605c0,-2.666 -2.049,-4.79 -5.198,-5.389c-1.226,-0.233 -2.575,-0.694 -2.997,-1.025c-1.61,-1.261 -12.76,-4.382 -15.616,-4.372c-1.905,0.007 -4.861,0.792 -8.155,2.166z" data-paper-data="{&quot;wickUUID&quot;:&quot;f816d648-854b-4ff6-bebe-cad48c36b384&quot;,&quot;wickType&quot;:&quot;path&quot;,&quot;originalStyle&quot;:{&quot;strokeColor&quot;:null,&quot;fillColor&quot;:[&quot;Color&quot;,0,0,0],&quot;strokeWidth&quot;:1}}" fill="#000000"/></g><g fill="none" fill-rule="nonzero" stroke="none" stroke-width="1" stroke-linecap="butt" stroke-linejoin="miter" stroke-miterlimit="10" stroke-dasharray="" stroke-dashoffset="0" font-family="sans-serif" font-weight="normal" font-size="12" text-anchor="start" style="mix-blend-mode: normal"/><g id="wick_project_gui" fill="none" fill-rule="nonzero" stroke="none" stroke-width="1" stroke-linecap="butt" stroke-linejoin="miter" stroke-miterlimit="10" stroke-dasharray="" stroke-dashoffset="0" font-family="sans-serif" font-weight="normal" font-size="12" text-anchor="start" style="mix-blend-mode: normal"/></g></svg>