<svg version="1.1" xmlns="http://www.w3.org/2000/svg" xmlns:xlink="http://www.w3.org/1999/xlink" width="1260" height="594" viewBox="0,0,1260,594"><g transform="translate(259.74321,92.84357) scale(0.66226,0.66226)"><g id="wick_project_bg" fill-opacity="0" fill="#ffffff" fill-rule="nonzero" stroke="none" stroke-width="1" stroke-linecap="butt" stroke-linejoin="miter" stroke-miterlimit="10" stroke-dasharray="" stroke-dashoffset="0" font-family="none" font-weight="none" font-size="none" text-anchor="none" style="mix-blend-mode: normal"><rect x="0" y="0" width="720" height="480"/></g><g data-paper-data="{&quot;wickUUID&quot;:&quot;107190fd-1cf1-4c58-9f54-908ed9ebf972&quot;,&quot;wickType&quot;:&quot;clipsandpaths&quot;}" fill="#800040" fill-rule="evenodd" stroke="none" stroke-width="1" stroke-linecap="butt" stroke-linejoin="miter" stroke-miterlimit="10" stroke-dasharray="" stroke-dashoffset="0" font-family="none" font-weight="none" font-size="none" text-anchor="none" style="mix-blend-mode: normal"><path d="M647.16151,152.49008c-21.318,3.112 -51.487,17.786 -64.074,31.163c-5.57,5.919 -13.061,18.196 -16.337,26.775c-1.866,4.883 -0.951,33.404 1.376,42.907c2.99,12.214 8.145,24.187 14.245,33.086c3.526,5.145 14.111,11.004 29.208,16.166c5.468,1.87 11.008,4.357 12.311,5.526c5.456,4.896 21.357,3.033 34.259,-4.015c3.752,-2.049 8.595,-3.712 12.035,-4.132c3.166,-0.386 8.223,-1.414 11.237,-2.284c21.026,-6.065 32.203,-30.46 30.228,-65.978c-0.875,-15.724 -8.152,-53.741 -11.072,-57.842c-1.197,-1.682 -3.997,-4.499 -6.222,-6.261c-5.233,-4.145 -24.541,-12.382 -33.449,-14.27c-6.897,-1.462 -8.726,-1.574 -13.745,-0.841zM661.03251,164.77508c9.887,2.976 23.776,9.375 27.223,12.543c3.422,3.147 3.71,4.012 6.878,20.657c1.819,9.555 3.307,18.081 3.307,18.948c0,1.171 -1.704,1.733 -6.658,2.196c-9.041,0.844 -28.269,7.164 -40.866,13.432c-15.913,7.917 -29.77,19.604 -32.09,27.063c-0.675,2.173 -0.997,9.73 -0.792,18.577c0.191,8.203 0.303,14.914 0.25,14.913c-1.3,-0.02 -13.097,-4.743 -17.892,-7.163c-7.339,-3.705 -10.449,-7.28 -14.93,-17.162c-5.709,-12.592 -7.47,-20.861 -8.078,-37.944l-0.56,-15.698l4.373,-8.656c6.075,-12.029 13.131,-19.273 26.333,-27.038c22.653,-13.325 41.132,-18.391 53.502,-14.668zM698.33651,232.47408c2.453,2.042 2.497,2.359 1.84,13.308c-0.758,12.628 -2.284,19.26 -6.207,26.98c-5.227,10.287 -12.959,14.905 -27.971,16.704c-3.438,0.412 -8.074,1.991 -11.512,3.921c-6.409,3.599 -18.283,6.365 -21.024,4.898c-2.707,-1.449 -4.092,-9.18 -4.092,-22.833c0,-12.056 0.107,-12.665 2.791,-15.855c7.457,-8.861 24.848,-18.961 42.209,-24.511c4.893,-1.564 10.073,-3.228 11.512,-3.698c4.729,-1.543 9.831,-1.099 12.454,1.086z" data-paper-data="{&quot;wickUUID&quot;:&quot;685f81b8-3c42-488b-8455-13416ab9cd91&quot;,&quot;wickType&quot;:&quot;path&quot;,&quot;originalStyle&quot;:{&quot;strokeColor&quot;:null,&quot;fillColor&quot;:[&quot;Color&quot;,0.50196,0,0.25098],&quot;strokeWidth&quot;:1}}"/><path d="M683.63718,247.49467c-0.896,1.967 -0.635,5.294 1.172,14.913c2.32,12.356 4.01,16.044 7.352,16.044c2.299,0 5.233,-3.275 5.231,-5.838c-0.003,-3.896 -4.38,-25.051 -5.45,-26.343c-1.938,-2.339 -7.023,-1.589 -8.305,1.224z" data-paper-data="{&quot;wickUUID&quot;:&quot;da31290b-f799-4835-9d57-7d0696f287a0&quot;,&quot;wickType&quot;:&quot;path&quot;,&quot;originalStyle&quot;:{&quot;strokeColor&quot;:null,&quot;fillColor&quot;:[&quot;Color&quot;,0.50196,0,0.25098],&quot;strokeWidth&quot;:1}}"/><path d="M653.25719,268.02596c-4.027,2.35 -4.523,14.052 -0.885,20.85c0.587,1.098 1.068,3.1 1.068,4.448c0,3.513 2.858,7.104 5.653,7.104c5.447,0 7.689,-8.076 4.144,-14.931c-1.051,-2.032 -1.682,-5.653 -1.629,-9.349c0.072,-5.057 -0.281,-6.29 -2.181,-7.621c-2.614,-1.83 -3.735,-1.921 -6.17,-0.501z" data-paper-data="{&quot;wickUUID&quot;:&quot;7718cb4c-9eee-41b1-b90f-2cb83fb0c39f&quot;,&quot;wickType&quot;:&quot;path&quot;,&quot;originalStyle&quot;:{&quot;strokeColor&quot;:null,&quot;fillColor&quot;:[&quot;Color&quot;,0.50196,0,0.25098],&quot;strokeWidth&quot;:1}}"/><path d="M585.41669,209.38142c-1.151,1.151 -2.093,2.799 -2.093,3.663c0,1.796 3.639,5.756 5.29,5.756c1.127,0 14.232,10.802 18.561,15.3c2.911,3.024 6.576,3.202 9.076,0.44c3.16,-3.492 1.258,-6.654 -9.649,-16.039c-14.102,-12.134 -16.946,-13.359 -21.185,-9.12z" data-paper-data="{&quot;wickUUID&quot;:&quot;e5dd3bcf-080c-44a5-a7f6-bbc46ffea12d&quot;,&quot;wickType&quot;:&quot;path&quot;,&quot;originalStyle&quot;:{&quot;strokeColor&quot;:null,&quot;fillColor&quot;:[&quot;Color&quot;,0.50196,0,0.25098],&quot;strokeWidth&quot;:1}}"/><path d="M597.93772,215.39936c-5.313,5.612 -10.377,11.704 -11.253,13.539c-1.447,3.029 -1.432,3.584 0.163,6.018c2.681,4.091 5.555,3.361 10.997,-2.794c2.662,-3.011 7.709,-8.544 11.217,-12.296c3.507,-3.752 6.651,-7.592 6.985,-8.533c0.961,-2.706 -2.098,-6.138 -5.471,-6.138c-2.408,0 -4.824,1.95 -12.638,10.204z" data-paper-data="{&quot;wickUUID&quot;:&quot;fbc66836-be21-423d-8168-25ad06a56c01&quot;,&quot;wickType&quot;:&quot;path&quot;,&quot;originalStyle&quot;:{&quot;strokeColor&quot;:null,&quot;fillColor&quot;:[&quot;Color&quot;,0.50196,0,0.25098],&quot;strokeWidth&quot;:1}}"/><path d="M636.90104,188.88962c-11.486,2.856 -17.996,11.503 -17.996,23.905c0,12.332 3.919,16.513 16.185,17.266c8.454,0.519 16.108,-1.792 28.051,-8.47c9.093,-5.086 10.183,-6.765 10.183,-15.686c0,-6.756 -0.213,-7.411 -3.474,-10.672c-5.867,-5.867 -22.208,-9.013 -32.949,-6.343zM658.41104,201.04162c9.993,3.582 -4.529,16.403 -19.886,17.558c-7.251,0.545 -9.156,-0.693 -9.151,-5.945c0.005,-4.932 3.346,-10.317 7.604,-12.257c3.84,-1.75 15.754,-1.392 21.433,0.644z" data-paper-data="{&quot;wickUUID&quot;:&quot;4acb2b3a-b4f1-4e50-a80d-50087bd95176&quot;,&quot;wickType&quot;:&quot;path&quot;,&quot;originalStyle&quot;:{&quot;strokeColor&quot;:null,&quot;fillColor&quot;:[&quot;Color&quot;,0.50196,0,0.25098],&quot;strokeWidth&quot;:1}}"/><path d="M707.49783,217.57442c-0.952,1.053 -1.732,2.863 -1.732,4.024c0,2.527 3.103,5.574 5.677,5.574c4.342,0 8.065,4.49 14.619,17.631c3.632,7.283 8.177,17.123 10.101,21.867l3.497,8.627l-3.08,3.269c-3.564,3.782 -16.054,13.49 -17.356,13.49c-0.484,0 -3.234,-4.69 -6.11,-10.422c-2.877,-5.732 -6.195,-10.938 -7.375,-11.57c-4.339,-2.322 -9.22,1.835 -7.742,6.595c0.395,1.274 3.507,7.496 6.916,13.827c6.068,11.271 9.996,16.221 12.872,16.221c1.838,0 20.258,-13.866 27.636,-20.804c5.638,-5.301 5.643,-5.311 5.032,-10.463c-0.335,-2.836 -2.161,-9.087 -4.056,-13.892c-4.266,-10.817 -17.137,-36.373 -19.514,-38.746c-2.844,-2.839 -11.78,-7.142 -14.831,-7.142c-1.552,0 -3.601,0.861 -4.554,1.914z" data-paper-data="{&quot;wickUUID&quot;:&quot;10994ea9-d37c-4d93-b803-d71184861443&quot;,&quot;wickType&quot;:&quot;path&quot;,&quot;originalStyle&quot;:{&quot;strokeColor&quot;:null,&quot;fillColor&quot;:[&quot;Color&quot;,0.50196,0,0.25098],&quot;strokeWidth&quot;:1}}"/><path d="M682.90757,158.03566c-4.455,1.131 -5.659,2.371 -5.659,5.822c0,4.518 1.542,5.112 13.601,5.238c10.42,0.109 17.01,1.535 17.01,3.679c0,0.403 3.296,5.678 7.325,11.723c4.029,6.045 7.326,11.641 7.326,12.435c0,0.795 -2.885,5.614 -6.41,10.71c-6.717,9.709 -7.818,13.627 -4.509,16.047c4.221,3.087 6.334,1.579 14.39,-10.265c10.646,-15.652 10.617,-17.309 -0.606,-34.392c-10.19,-15.512 -11.877,-17.262 -18.67,-19.375c-6.618,-2.058 -18.809,-2.889 -23.798,-1.622z" data-paper-data="{&quot;wickUUID&quot;:&quot;dccf4467-3b8f-4f9a-ac68-21f37c54cbc9&quot;,&quot;wickType&quot;:&quot;path&quot;,&quot;originalStyle&quot;:{&quot;strokeColor&quot;:null,&quot;fillColor&quot;:[&quot;Color&quot;,0.50196,0,0.25098],&quot;strokeWidth&quot;:1}}"/><path d="M641.40565,138.63385c-7.951,3.495 -24.765,19.403 -26.698,25.258c-1.361,4.125 -0.147,7.291 3.201,8.354c2.273,0.722 7.276,-1.868 7.276,-3.765c0,-1.657 10.266,-12.148 16.022,-16.373c5.078,-3.728 5.16,-3.747 11.092,-2.644c3.288,0.612 9.128,2.54 12.978,4.286c6.422,2.912 7.001,3.44 7.001,6.38c0,3.272 3.077,7.391 5.523,7.391c0.735,0 2.383,-0.733 3.663,-1.629c3.571,-2.501 3.29,-10.669 -0.523,-15.2c-3.509,-4.171 -15.827,-9.935 -25.642,-12c-8.694,-1.829 -9.854,-1.833 -13.893,-0.058z" data-paper-data="{&quot;wickUUID&quot;:&quot;cf53a54d-a309-4da6-b8f9-94a20f8a3558&quot;,&quot;wickType&quot;:&quot;path&quot;,&quot;originalStyle&quot;:{&quot;strokeColor&quot;:null,&quot;fillColor&quot;:[&quot;Color&quot;,0.50196,0,0.25098],&quot;strokeWidth&quot;:1}}"/><path d="M690.66601,276.95644c-0.904,0.905 -1.644,2.105 -1.644,2.668c0,1.772 3.148,7.199 4.175,7.199c1.078,0 7.452,19.681 15.591,48.14c2.881,10.073 8.511,28.116 12.511,40.096c7.145,21.399 7.233,21.798 5.027,22.611c-1.235,0.455 -11.429,4.215 -22.653,8.356c-11.224,4.14 -26.086,10.319 -33.027,13.732c-9.317,4.58 -14.52,6.478 -19.883,7.253c-10.866,1.571 -25.42,1.306 -33.935,-0.617c-6.202,-1.401 -8.632,-2.601 -13.472,-6.655c-7.057,-5.912 -17.939,-17.232 -17.939,-18.662c0,-0.561 2.758,-4.063 6.13,-7.783c12.141,-13.398 16.525,-21.621 25.226,-47.313c3.386,-9.998 6.682,-19.161 7.326,-20.364c1.35,-2.524 5.271,-20.213 5.271,-23.783c0,-3.006 -4.317,-6.024 -7.275,-5.085c-2.837,0.901 -3.781,2.865 -5.288,11.005c-1.973,10.653 -15.345,48.65 -21.007,59.692c-3.661,7.141 -7.656,12.804 -14.029,19.884c-10.821,12.023 -11.004,12.714 -5.496,20.837c3.977,5.865 14.975,16.691 22.969,22.608c9.651,7.145 26.801,9.905 48.298,7.771c12.551,-1.245 12.873,-1.344 27.352,-8.405c8.058,-3.93 22.657,-10.042 32.442,-13.581c32.189,-11.643 33.943,-12.414 34.646,-15.214c0.398,-1.584 -0.192,-4.205 -1.571,-6.988c-2.977,-6.008 -16.147,-46.772 -25.274,-78.232c-8.19,-28.23 -10.244,-33.668 -14.332,-37.937c-3.117,-3.254 -7.575,-3.796 -10.139,-1.233z" data-paper-data="{&quot;wickUUID&quot;:&quot;9c76259d-ef4f-4c28-9aaf-9821c5f150e3&quot;,&quot;wickType&quot;:&quot;path&quot;,&quot;originalStyle&quot;:{&quot;strokeColor&quot;:null,&quot;fillColor&quot;:[&quot;Color&quot;,0.50196,0,0.25098],&quot;strokeWidth&quot;:1}}"/><path d="M729.3128,209.92894c-2.878,0.799 -5.55,1.474 -5.937,1.499c-0.388,0.026 -2.154,1.266 -3.925,2.756c-3.947,3.322 -4.222,7.051 -0.688,9.366c2.352,1.541 2.842,1.5 6.936,-0.589c2.422,-1.235 6.817,-2.494 9.765,-2.797c5.095,-0.524 5.593,-0.345 10.042,3.607c4.409,3.917 4.607,4.323 3.401,6.969c-0.704,1.545 -1.28,4.928 -1.28,7.518c0,6.324 3.258,9.741 9.209,9.659c2.311,-0.032 4.749,0.28 5.418,0.694c0.67,0.414 4.128,-0.68 7.685,-2.431c9.605,-4.73 12.647,-11.339 7.96,-17.298c-3.161,-4.018 -10.813,-8.155 -15.534,-8.398c-3.214,-0.165 -5.148,-1.178 -8.959,-4.69c-8.092,-7.459 -13.559,-8.79 -24.093,-5.865z" data-paper-data="{&quot;wickUUID&quot;:&quot;a918d960-f971-4c55-92cd-3196843a52ed&quot;,&quot;wickType&quot;:&quot;path&quot;,&quot;originalStyle&quot;:{&quot;strokeColor&quot;:null,&quot;fillColor&quot;:[&quot;Color&quot;,0.50196,0,0.25098],&quot;strokeWidth&quot;:1}}"/><path d="M655.60784,313.07635c-3.816,7.193 -6.782,13.904 -6.59,14.913c0.215,1.132 2.219,2.435 5.234,3.404c2.688,0.864 5.22,1.909 5.627,2.323c0.408,0.414 -1.869,6.065 -5.06,12.558c-7.465,15.188 -15.362,38.961 -13.546,40.777c1.952,1.952 2.739,0.464 7.57,-14.32c2.446,-7.483 7.276,-19.382 10.733,-26.442c6.107,-12.47 6.233,-12.896 4.403,-14.917c-1.035,-1.144 -3.691,-2.568 -5.902,-3.163c-2.211,-0.595 -4.02,-1.552 -4.02,-2.125c0,-0.574 2.59,-5.893 5.756,-11.822c5.923,-11.092 6.867,-14.264 4.244,-14.264c-0.867,0 -4.471,5.578 -8.449,13.078z" data-paper-data="{&quot;wickUUID&quot;:&quot;9adbfa53-9a11-4f99-9053-0309ec222523&quot;,&quot;wickType&quot;:&quot;path&quot;,&quot;originalStyle&quot;:{&quot;strokeColor&quot;:null,&quot;fillColor&quot;:[&quot;Color&quot;,0.50196,0,0.25098],&quot;strokeWidth&quot;:1}}"/><path d="M657.54009,349.79811c-0.443,1.154 1.543,3.629 6.509,8.111c7.345,6.629 8.866,7.433 9.643,5.103c0.424,-1.274 -12.957,-14.792 -14.697,-14.848c-0.45,-0.014 -1.105,0.721 -1.455,1.634z" data-paper-data="{&quot;wickUUID&quot;:&quot;b618a73e-4a4e-4d6a-b17d-d2aa7d7b4a82&quot;,&quot;wickType&quot;:&quot;path&quot;,&quot;originalStyle&quot;:{&quot;strokeColor&quot;:null,&quot;fillColor&quot;:[&quot;Color&quot;,0.50196,0,0.25098],&quot;strokeWidth&quot;:1}}"/><path d="M666.64619,346.30671c-3.573,6.229 -3.961,8.416 -1.408,7.924c1.974,-0.38 7.446,-8.753 7.573,-11.587c0.164,-3.642 -3.082,-1.713 -6.165,3.663z" data-paper-data="{&quot;wickUUID&quot;:&quot;8f69d925-1a9b-4dbb-9bbf-2d5a1b096fe3&quot;,&quot;wickType&quot;:&quot;path&quot;,&quot;originalStyle&quot;:{&quot;strokeColor&quot;:null,&quot;fillColor&quot;:[&quot;Color&quot;,0.50196,0,0.25098],&quot;strokeWidth&quot;:1}}"/><path d="M628.56565,358.36271c-0.712,1.152 13.871,16.985 15.644,16.985c3.171,0 1.146,-3.972 -5.469,-10.727c-6.495,-6.633 -8.994,-8.17 -10.175,-6.258z" data-paper-data="{&quot;wickUUID&quot;:&quot;b6e0ffd1-f23c-457d-b8b6-2e570ba7a507&quot;,&quot;wickType&quot;:&quot;path&quot;,&quot;originalStyle&quot;:{&quot;strokeColor&quot;:null,&quot;fillColor&quot;:[&quot;Color&quot;,0.50196,0,0.25098],&quot;strokeWidth&quot;:1}}"/><path d="M632.67465,374.22648c-2.568,2.631 -3.788,4.705 -3.384,5.756c0.965,2.516 2.21,2.015 6.33,-2.545c6.7,-7.416 4.017,-10.341 -2.946,-3.211z" data-paper-data="{&quot;wickUUID&quot;:&quot;4f62cfe3-675a-4586-9283-081422c57ee6&quot;,&quot;wickType&quot;:&quot;path&quot;,&quot;originalStyle&quot;:{&quot;strokeColor&quot;:null,&quot;fillColor&quot;:[&quot;Color&quot;,0.50196,0,0.25098],&quot;strokeWidth&quot;:1}}"/><path d="M610.26737,328.15552c-0.916,1.295 -3.105,4.597 -4.866,7.339l-3.2,4.985l-3.592,-3.153c-4.192,-3.681 -7.518,-3.952 -13.46,-1.095c-5.195,2.498 -6.962,3.943 -9.403,7.693c-2.72,4.178 -2.745,13.972 -0.047,18.046c1.609,2.431 1.971,4.534 1.728,10.049c-0.26,5.921 0.023,7.303 1.876,9.157c4.626,4.625 12.244,1.469 18.193,-7.536c4.627,-7.004 10.153,-17.404 10.153,-19.108c0,-0.727 1.718,-4.31 3.818,-7.963c9.878,-17.178 9.131,-15.307 7.25,-18.178c-2.155,-3.289 -6.21,-3.403 -8.45,-0.236z" data-paper-data="{&quot;wickUUID&quot;:&quot;a782cf74-97ba-4604-b5cb-893c233c9a52&quot;,&quot;wickType&quot;:&quot;path&quot;,&quot;originalStyle&quot;:{&quot;strokeColor&quot;:null,&quot;fillColor&quot;:[&quot;Color&quot;,0.50196,0,0.25098],&quot;strokeWidth&quot;:1}}"/><path d="M702.41036,409.87831c-3.245,2.373 -1.607,9.978 5.651,26.236c7.891,17.677 8.843,20.316 21.357,59.222c11.021,34.262 15.323,49.318 15.324,53.634c0.001,2.797 0.164,2.878 5.875,2.878h5.875l-0.732,-4.971c-1.142,-7.761 -4.201,-18.568 -13.259,-46.832c-13.029,-40.661 -16.38,-50.067 -24.079,-67.605c-3.942,-8.979 -7.168,-17.265 -7.168,-18.414c0,-2.38 -3.071,-5.551 -5.376,-5.551c-0.852,0 -2.413,0.631 -3.468,1.403z" data-paper-data="{&quot;wickUUID&quot;:&quot;39fcf562-d1d8-4160-a056-0dd0fa081085&quot;,&quot;wickType&quot;:&quot;path&quot;,&quot;originalStyle&quot;:{&quot;strokeColor&quot;:null,&quot;fillColor&quot;:[&quot;Color&quot;,0.50196,0,0.25098],&quot;strokeWidth&quot;:1}}"/><path d="M590.47789,423.38799c-23.134,30.154 -39.331,53.115 -44.11,62.53c-5.305,10.45 -3.73,17.29 11.634,50.543l7.109,15.387h5.572c3.064,0 5.571,-0.402 5.571,-0.893c0,-0.491 -3.111,-7.438 -6.913,-15.436c-8.481,-17.843 -14.951,-33.906 -15.253,-37.869c-0.397,-5.217 6.69,-16.791 25.769,-42.081c21.313,-28.253 22.452,-30.307 18.822,-33.937c-2.556,-2.557 -5.351,-1.958 -8.201,1.756z" data-paper-data="{&quot;wickUUID&quot;:&quot;860d43c5-18a6-492c-9b26-c7dd5580c430&quot;,&quot;wickType&quot;:&quot;path&quot;,&quot;originalStyle&quot;:{&quot;strokeColor&quot;:null,&quot;fillColor&quot;:[&quot;Color&quot;,0.50196,0,0.25098],&quot;strokeWidth&quot;:1}}"/></g><g fill="none" fill-rule="nonzero" stroke="none" stroke-width="1" stroke-linecap="butt" stroke-linejoin="miter" stroke-miterlimit="10" stroke-dasharray="" stroke-dashoffset="0" font-family="sans-serif" font-weight="normal" font-size="12" text-anchor="start" style="mix-blend-mode: normal"/><g id="wick_project_gui" fill="none" fill-rule="nonzero" stroke="none" stroke-width="1" stroke-linecap="butt" stroke-linejoin="miter" stroke-miterlimit="10" stroke-dasharray="" stroke-dashoffset="0" font-family="sans-serif" font-weight="normal" font-size="12" text-anchor="start" style="mix-blend-mode: normal"/></g></svg>