<svg version="1.1" xmlns="http://www.w3.org/2000/svg" xmlns:xlink="http://www.w3.org/1999/xlink" width="1260" height="594" viewBox="0,0,1260,594"><g transform="translate(259.74321,92.84357) scale(0.66226,0.66226)"><g id="wick_project_bg" fill-opacity="0" fill="#ffffff" fill-rule="nonzero" stroke="none" stroke-width="1" stroke-linecap="butt" stroke-linejoin="miter" stroke-miterlimit="10" stroke-dasharray="" stroke-dashoffset="0" font-family="none" font-weight="none" font-size="none" text-anchor="none" style="mix-blend-mode: normal"><rect x="0" y="0" width="720" height="480"/></g><g data-paper-data="{&quot;wickUUID&quot;:&quot;69cbe26b-5f60-49f1-bc9f-66b3e7f9b2b9&quot;,&quot;wickType&quot;:&quot;clipsandpaths&quot;}" fill="#800040" fill-rule="evenodd" stroke="none" stroke-width="1" stroke-linecap="butt" stroke-linejoin="miter" stroke-miterlimit="10" stroke-dasharray="" stroke-dashoffset="0" font-family="none" font-weight="none" font-size="none" text-anchor="none" style="mix-blend-mode: normal"><path d="M612.16723,139.67235c-15.778,0.807 -19.387,1.344 -26.839,3.997c-17.046,6.067 -28.799,14.471 -38.62,27.615c-12.731,17.039 -16.905,36.993 -11.985,57.299c5.169,21.335 11.164,31.337 22.068,36.815c19.13,9.61 40.117,13.886 54.86,11.176c13.68,-2.514 18.257,-4.647 34.652,-16.148c11.595,-8.134 10.784,-7.408 16.358,-14.636c6.859,-8.894 8.67,-12.954 11.4,-25.549c3.405,-15.708 3.788,-21.81 2.123,-33.761c-1.715,-12.311 -4.042,-18.703 -10.072,-27.673c-7.158,-10.646 -13.663,-17.371 -17.705,-18.301c-5.084,-1.171 -22.029,-1.561 -36.24,-0.834zM643.27623,148.67735c3.69,0.505 4.274,0.957 9.166,7.082c6.149,7.7 10.41,14.545 12.089,19.418c2.046,5.938 3.821,20.836 3.247,27.252c-0.778,8.689 -5.162,27.052 -7.304,30.592c-3.754,6.206 -9.352,12.876 -13.022,15.519c-2.07,1.491 -5.543,4.013 -7.718,5.605c-2.174,1.592 -6.906,4.69 -10.515,6.884c-7.656,4.653 -17.976,7.478 -27.326,7.478c-5.317,0 -6.034,-0.203 -7.238,-2.041c-1.842,-2.81 -4.375,-3.449 -6.961,-1.754c-2.822,1.849 -6.63,1.169 -16.931,-3.022c-15.504,-6.309 -18.371,-9.011 -22.94,-21.625c-4.688,-12.942 -6.131,-20.585 -5.675,-30.06c0.593,-12.358 4,-22.235 11.083,-32.137c7.196,-10.059 12.996,-15.188 22.956,-20.298c12.973,-6.656 17.491,-7.926 30.554,-8.584c16.053,-0.808 31.914,-0.943 36.535,-0.309z" data-paper-data="{&quot;wickUUID&quot;:&quot;cb0615e2-0bb8-40c8-8ab1-3bb9ed9632b0&quot;,&quot;wickType&quot;:&quot;path&quot;,&quot;originalStyle&quot;:{&quot;strokeColor&quot;:null,&quot;fillColor&quot;:[&quot;Color&quot;,0.50196,0,0.25098],&quot;strokeWidth&quot;:1}}" id="cb0615e2-0bb8-40c8-8ab1-3bb9ed9632b0"/><path d="M543.61024,185.17415c-3.1,3.099 -1.729,14.983 3.034,26.309c3.315,7.882 9.351,16.035 19.606,26.481c10.638,10.837 13.362,12.818 21.989,15.991c6.253,2.3 6.466,2.318 30.978,2.599c21.469,0.246 24.947,0.109 26.725,-1.056c2.595,-1.7 2.679,-4.97 0.174,-6.725c-1.586,-1.11 -5.491,-1.31 -25.654,-1.31c-23.269,0 -23.904,-0.045 -29.333,-2.089c-3.052,-1.148 -6.564,-2.819 -7.805,-3.713c-3.578,-2.575 -17.462,-16.892 -21.311,-21.976c-6.608,-8.726 -10.828,-20.205 -10.828,-29.455c0,-3.303 -0.371,-4.379 -1.871,-5.43c-2.472,-1.731 -3.678,-1.653 -5.704,0.374z" data-paper-data="{&quot;wickUUID&quot;:&quot;baf7ef8c-3191-4b3d-b00a-7a40697c7367&quot;,&quot;wickType&quot;:&quot;path&quot;,&quot;originalStyle&quot;:{&quot;strokeColor&quot;:null,&quot;fillColor&quot;:[&quot;Color&quot;,0.50196,0,0.25098],&quot;strokeWidth&quot;:1}}" id="baf7ef8c-3191-4b3d-b00a-7a40697c7367"/><path d="M546.81499,227.20769c-1.139,0.896 -3.292,3.918 -4.782,6.715c-2.187,4.103 -2.537,5.411 -1.81,6.769c2.142,4.004 6.563,3.635 8.824,-0.738c0.724,-1.4 2.259,-3.934 3.411,-5.632c2.587,-3.812 2.645,-5.738 0.224,-7.434c-2.432,-1.703 -3.36,-1.652 -5.867,0.32z" data-paper-data="{&quot;wickUUID&quot;:&quot;23f35cb2-4d43-4435-a282-e73430cd47f5&quot;,&quot;wickType&quot;:&quot;path&quot;,&quot;originalStyle&quot;:{&quot;strokeColor&quot;:null,&quot;fillColor&quot;:[&quot;Color&quot;,0.50196,0,0.25098],&quot;strokeWidth&quot;:1}}" id="23f35cb2-4d43-4435-a282-e73430cd47f5"/><path d="M586.68399,256.5117c-0.416,0.811 -1,3.648 -1.299,6.307c-0.466,4.155 -0.305,5.071 1.147,6.523c2.077,2.077 3.488,2.129 5.846,0.217c2.209,-1.79 3.353,-9.816 1.811,-12.698c-1.251,-2.337 -6.363,-2.574 -7.505,-0.349z" data-paper-data="{&quot;wickUUID&quot;:&quot;d3c9305d-d4e3-491a-b2d4-7adf1d4076a6&quot;,&quot;wickType&quot;:&quot;path&quot;,&quot;originalStyle&quot;:{&quot;strokeColor&quot;:null,&quot;fillColor&quot;:[&quot;Color&quot;,0.50196,0,0.25098],&quot;strokeWidth&quot;:1}}" id="d3c9305d-d4e3-491a-b2d4-7adf1d4076a6"/><path d="M575.18727,161.07112c-1.13,0.826 -1.754,2.78 -2.22,6.944c-0.356,3.187 -1.236,10.717 -1.955,16.732c-1.756,14.681 -1.755,29.718 0.002,32.226c1.589,2.269 4.662,2.424 6.556,0.331c1.143,-1.263 1.396,-3.493 1.41,-12.416c0.01,-5.982 0.766,-16.558 1.68,-23.502c2.174,-16.506 2.154,-18.505 -0.201,-20.155c-2.296,-1.608 -3.252,-1.637 -5.272,-0.16z" data-paper-data="{&quot;wickUUID&quot;:&quot;c0634af8-8014-44ef-9ecc-d2c0f3d8a33a&quot;,&quot;wickType&quot;:&quot;path&quot;,&quot;originalStyle&quot;:{&quot;strokeColor&quot;:null,&quot;fillColor&quot;:[&quot;Color&quot;,0.50196,0,0.25098],&quot;strokeWidth&quot;:1}}" id="c0634af8-8014-44ef-9ecc-d2c0f3d8a33a"/><path d="M561.26976,227.29292c-2.19,4.091 2.376,8.108 6.295,5.54c2.301,-1.508 2.648,-3.048 1.268,-5.627c-1.234,-2.305 -6.314,-2.247 -7.563,0.087z" data-paper-data="{&quot;wickUUID&quot;:&quot;eacf6cda-fe5d-4b7b-833b-535492f8700f&quot;,&quot;wickType&quot;:&quot;path&quot;,&quot;originalStyle&quot;:{&quot;strokeColor&quot;:null,&quot;fillColor&quot;:[&quot;Color&quot;,0.50196,0,0.25098],&quot;strokeWidth&quot;:1}}" id="eacf6cda-fe5d-4b7b-833b-535492f8700f"/><path d="M554.553,180.12364c-2.151,2.15 -2.121,3.426 0.149,6.312c2.059,2.617 6.851,4.917 19.201,9.216c4.642,1.616 9.195,3.342 10.118,3.835c2.018,1.08 4.549,-0.032 5.926,-2.604c1.338,-2.502 -0.84,-5.364 -5.267,-6.921c-14.941,-5.253 -21.153,-7.764 -23.516,-9.508c-3.323,-2.452 -4.434,-2.508 -6.611,-0.33z" data-paper-data="{&quot;wickUUID&quot;:&quot;acdb0d56-f56c-4cb1-a5a7-4fcb9a9363a9&quot;,&quot;wickType&quot;:&quot;path&quot;,&quot;originalStyle&quot;:{&quot;strokeColor&quot;:null,&quot;fillColor&quot;:[&quot;Color&quot;,0.50196,0,0.25098],&quot;strokeWidth&quot;:1}}" id="acdb0d56-f56c-4cb1-a5a7-4fcb9a9363a9"/><path d="M608.42428,191.30815c-2.588,1.302 -3.226,5.546 -1.406,9.357c2.823,5.911 3.553,22.389 1.205,27.22c-1.698,3.493 0.252,5.824 5.832,6.975c2.69,0.554 8.042,1.772 11.892,2.706c10.242,2.484 11.938,1.23 17.315,-12.801c3.036,-7.924 3.14,-11.119 0.453,-14.006c-3.868,-4.157 -18.89,-14.914 -24.745,-17.722c-6.486,-3.109 -7.48,-3.272 -10.546,-1.729zM628.62628,210.19315c8.009,6.486 7.998,6.455 4.813,14.387c-1.207,3.005 -2.382,4.729 -3.157,4.635c-0.679,-0.083 -3.653,-0.676 -6.609,-1.317l-5.374,-1.166l-0.152,-9.626c-0.084,-5.294 -0.467,-10.895 -0.851,-12.447l-0.699,-2.82l2.437,1.279c1.341,0.704 5.657,3.887 9.592,7.075z" data-paper-data="{&quot;wickUUID&quot;:&quot;f2d9e369-d34a-439c-81a1-b9f783b5b03b&quot;,&quot;wickType&quot;:&quot;path&quot;,&quot;originalStyle&quot;:{&quot;strokeColor&quot;:null,&quot;fillColor&quot;:[&quot;Color&quot;,0.50196,0,0.25098],&quot;strokeWidth&quot;:1}}" id="f2d9e369-d34a-439c-81a1-b9f783b5b03b"/><path d="M517.57546,285.96312c-4.953,2.545 -6.373,5.344 -6.373,12.558c0,5.783 0.189,6.486 2.212,8.228c3.458,2.977 9.463,3.451 14.162,1.117c2.105,-1.046 4.319,-2.848 4.919,-4.006c1.349,-2.603 0.781,-8.983 -1.165,-13.083c-2.372,-5 -8.928,-7.294 -13.755,-4.814z" data-paper-data="{&quot;wickUUID&quot;:&quot;64d447b0-6b48-4960-9acb-d090789c5e04&quot;,&quot;wickType&quot;:&quot;path&quot;,&quot;originalStyle&quot;:{&quot;strokeColor&quot;:null,&quot;fillColor&quot;:[&quot;Color&quot;,0.50196,0,0.25098],&quot;strokeWidth&quot;:1}}" id="64d447b0-6b48-4960-9acb-d090789c5e04"/><path d="M520.88297,291.23475c-0.926,0.925 -1.684,2.251 -1.684,2.946c0,1.541 2.963,4.629 4.442,4.629c2.078,0 4.817,-2.633 4.817,-4.629c0,-1.997 -2.739,-4.63 -4.817,-4.63c-0.591,0 -1.833,0.758 -2.758,1.684z" data-paper-data="{&quot;wickUUID&quot;:&quot;720d5c0c-1a92-4486-a5d3-1923771a0b3f&quot;,&quot;wickType&quot;:&quot;path&quot;,&quot;originalStyle&quot;:{&quot;strokeColor&quot;:null,&quot;fillColor&quot;:[&quot;Color&quot;,0.50196,0,0.25098],&quot;strokeWidth&quot;:1}}" id="720d5c0c-1a92-4486-a5d3-1923771a0b3f"/><path d="M532.66666,281.50649c-1.157,0.632 -6.46,5.813 -11.784,11.515c-5.324,5.702 -14.199,15.105 -19.721,20.897c-5.522,5.792 -13.811,15.274 -18.42,21.07c-4.609,5.796 -9.958,12.243 -11.887,14.327c-5.516,5.96 -10.719,14.168 -11.186,17.646c-0.389,2.9 -0.094,3.473 3.624,7.036c4.179,4.004 11.014,8.073 17.269,10.28c2.772,0.978 4.204,1.06 6.321,0.361c2.342,-0.773 3.095,-1.776 5.226,-6.96c1.37,-3.331 2.77,-7.004 3.111,-8.161c1.443,-4.899 16.872,-38.892 20.674,-45.548c2.276,-3.986 5.876,-11.183 7.998,-15.993c2.504,-5.674 4.723,-9.432 6.318,-10.701c1.351,-1.075 2.457,-2.47 2.457,-3.1c0,-0.63 1.705,-2.542 3.788,-4.249c4.276,-3.504 4.905,-6.232 1.917,-8.325c-2.249,-1.575 -2.969,-1.587 -5.705,-0.095zM504.70066,325.08849c-0.692,1.056 -2.216,4.193 -3.386,6.971c-1.171,2.777 -3.911,9.027 -6.089,13.889c-2.178,4.861 -5.667,13.194 -7.754,18.518c-2.086,5.324 -4.089,9.995 -4.451,10.38c-1.237,1.315 -13.485,-5.947 -13.485,-7.995c0,-1.265 5.512,-8.833 9.707,-13.328c1.944,-2.083 6.502,-7.575 10.129,-12.205c3.627,-4.63 8.696,-10.75 11.266,-13.6c4.626,-5.13 6.494,-6.34 4.063,-2.63z" data-paper-data="{&quot;wickUUID&quot;:&quot;296442f2-2cf3-4758-97c8-efdfbb34588f&quot;,&quot;wickType&quot;:&quot;path&quot;,&quot;originalStyle&quot;:{&quot;strokeColor&quot;:null,&quot;fillColor&quot;:[&quot;Color&quot;,0.50196,0,0.25098],&quot;strokeWidth&quot;:1}}" id="296442f2-2cf3-4758-97c8-efdfbb34588f"/><path d="M525.98594,192.4199c-6.102,1.334 -7.471,2.089 -12.294,6.78c-3.522,3.426 -12.382,16.929 -17.331,26.416l-2.835,5.433l0.016,18.098c0.015,17.347 0.107,18.347 2.198,24.106c2.376,6.545 10.287,18.967 14.986,23.531c3.296,3.202 5.84,3.628 7.922,1.329c1.999,-2.209 1.721,-4.598 -0.808,-6.942c-2.555,-2.369 -9.383,-12.251 -11.954,-17.301c-2.536,-4.982 -3.509,-12.411 -3.513,-26.828c-0.004,-12.624 -0.003,-12.626 2.777,-18.097c4.57,-8.992 12.017,-20.409 15.544,-23.828c2.867,-2.781 4.158,-3.353 9.754,-4.325c3.547,-0.616 7.012,-1.587 7.701,-2.159c1.843,-1.529 1.524,-4.756 -0.619,-6.257c-2.215,-1.551 -4.285,-1.543 -11.544,0.044z" data-paper-data="{&quot;wickUUID&quot;:&quot;2f2e01e2-44df-4e59-937b-ae4c12face80&quot;,&quot;wickType&quot;:&quot;path&quot;,&quot;originalStyle&quot;:{&quot;strokeColor&quot;:null,&quot;fillColor&quot;:[&quot;Color&quot;,0.50196,0,0.25098],&quot;strokeWidth&quot;:1}}" id="2f2e01e2-44df-4e59-937b-ae4c12face80"/><path d="M678.92496,205.83292c-4.905,1.566 -7.214,4.522 -5.856,7.501c1.225,2.689 3.764,3.346 6.821,1.765c5.124,-2.65 20.548,-0.911 29.109,3.282c2.323,1.137 5.911,3.789 7.973,5.891c3.114,3.176 3.763,4.394 3.833,7.194c0.21,8.349 10.554,13.74 17.84,9.297c3.567,-2.175 5.491,-6.111 5.618,-11.496c0.132,-5.551 -1.999,-8.704 -6.965,-10.308c-3.125,-1.01 -4.002,-0.976 -7.301,0.284l-3.75,1.432l-4.829,-4.42c-2.656,-2.432 -6.787,-5.32 -9.182,-6.419c-8.968,-4.116 -26.395,-6.21 -33.311,-4.003z" data-paper-data="{&quot;wickUUID&quot;:&quot;3d403293-84f1-4b20-9004-ca96d11fdcab&quot;,&quot;wickType&quot;:&quot;path&quot;,&quot;originalStyle&quot;:{&quot;strokeColor&quot;:null,&quot;fillColor&quot;:[&quot;Color&quot;,0.50196,0,0.25098],&quot;strokeWidth&quot;:1}}" id="3d403293-84f1-4b20-9004-ca96d11fdcab"/><path d="M729.63718,228.10344c-0.926,0.925 -1.684,2.251 -1.684,2.946c0,1.541 2.963,4.629 4.442,4.629c2.078,0 4.817,-2.633 4.817,-4.629c0,-1.997 -2.739,-4.63 -4.817,-4.63c-0.591,0 -1.833,0.758 -2.758,1.684z" data-paper-data="{&quot;wickUUID&quot;:&quot;3fb1a71b-0ccb-45d4-88dd-aab4c303f078&quot;,&quot;wickType&quot;:&quot;path&quot;,&quot;originalStyle&quot;:{&quot;strokeColor&quot;:null,&quot;fillColor&quot;:[&quot;Color&quot;,0.50196,0,0.25098],&quot;strokeWidth&quot;:1}}" id="3fb1a71b-0ccb-45d4-88dd-aab4c303f078"/><path d="M654.29704,246.08744c-0.937,1.429 -1.089,2.557 -0.541,3.999c0.961,2.526 8.188,9.343 11.986,11.304c1.577,0.815 14.347,13.015 28.377,27.111l25.51,25.629l-4.378,7.7c-4.878,8.58 -15.648,21.426 -26.207,31.261c-16.326,15.206 -28.535,19.793 -52.685,19.793h-12.541l-1.48,-5.682c-0.814,-3.125 -2.17,-8.767 -3.013,-12.539c-0.843,-3.771 -2.497,-10.021 -3.674,-13.889c-1.177,-3.867 -3.082,-11.198 -4.232,-16.291c-1.15,-5.093 -5.117,-19.297 -8.817,-31.566c-6.718,-22.281 -8.074,-25.252 -11.527,-25.252c-1.805,0 -4.739,3.356 -4.299,4.918c0.217,0.767 3.265,10.865 6.774,22.439c3.509,11.574 7.673,26.346 9.252,32.828c1.58,6.481 3.836,15.194 5.013,19.36c1.874,6.639 6.06,24.297 7.03,29.661c0.694,3.84 3.864,4.811 16.798,5.145c18.987,0.491 32.794,-2.142 45.805,-8.738c8.282,-4.197 21.619,-16.165 34.115,-30.612c7.283,-8.42 18.035,-26.053 18.059,-29.617c0.017,-2.528 1.741,-0.687 -31.19,-33.3c-14.51,-14.369 -26.167,-25.23 -28.139,-26.218c-1.852,-0.928 -4.997,-3.431 -6.991,-5.561c-4.144,-4.431 -6.951,-5.018 -9.005,-1.883z" data-paper-data="{&quot;wickUUID&quot;:&quot;25d1a206-28b4-4579-9d07-c50a1ccac33c&quot;,&quot;wickType&quot;:&quot;path&quot;,&quot;originalStyle&quot;:{&quot;strokeColor&quot;:null,&quot;fillColor&quot;:[&quot;Color&quot;,0.50196,0,0.25098],&quot;strokeWidth&quot;:1}}" id="25d1a206-28b4-4579-9d07-c50a1ccac33c"/><path d="M719.05721,327.01835c-4.449,0.928 -7.186,4.058 -6.217,7.111c0.956,3.012 3.715,4.011 7.398,2.679c3.527,-1.275 20.955,0.389 61.267,5.85c11.404,1.545 22.703,2.756 25.111,2.691c3,-0.081 4.377,0.253 4.377,1.06c0,1.54 -5.554,13.105 -8.647,18.004c-1.333,2.111 -3.631,6.849 -5.107,10.528c-1.476,3.679 -4.133,9.799 -5.903,13.601c-1.771,3.801 -4.945,12.094 -7.053,18.43c-2.109,6.335 -5.359,14.136 -7.222,17.335c-6.096,10.466 -6.611,11.651 -6.612,15.224c-0.002,4.535 3.275,17.394 5.588,21.928c2.087,4.091 4.153,5.41 8.472,5.41c3.564,0 6.525,-2.59 8.088,-7.075c0.762,-2.183 0.661,-4.13 -0.429,-8.339c-1.756,-6.774 -4.653,-13.45 -6.505,-14.987c-1.979,-1.641 -1.766,-3.01 1.464,-9.408c1.572,-3.113 4.69,-11.01 6.93,-17.549c2.239,-6.538 5.103,-13.923 6.363,-16.41c1.261,-2.487 3.142,-6.708 4.18,-9.379c1.039,-2.671 5.46,-12.031 9.824,-20.8c9.051,-18.186 9.909,-22.059 5.608,-25.309c-2.028,-1.534 -4.04,-1.907 -11.058,-2.054c-4.718,-0.098 -20.189,-1.676 -34.38,-3.507c-22.551,-2.908 -36.811,-4.549 -48.379,-5.569c-1.773,-0.156 -4.995,0.085 -7.158,0.535z" data-paper-data="{&quot;wickUUID&quot;:&quot;f2383894-4438-459c-99d9-500e5128a806&quot;,&quot;wickType&quot;:&quot;path&quot;,&quot;originalStyle&quot;:{&quot;strokeColor&quot;:null,&quot;fillColor&quot;:[&quot;Color&quot;,0.50196,0,0.25098],&quot;strokeWidth&quot;:1}}" id="f2383894-4438-459c-99d9-500e5128a806"/><path d="M649.73108,374.7196c-1.013,1.014 -1.843,2.365 -1.843,3.003c0,0.639 1.226,6.755 2.724,13.592c5.375,24.531 7.564,38.658 10.205,65.879c1.475,15.204 3.896,36.353 5.38,46.996c4.349,31.207 4.217,29.029 1.766,29.013c-2.762,-0.018 -3.641,-0.703 -6.095,-4.742c-3.923,-6.459 -11.273,-6.596 -14.396,-0.27c-2.299,4.658 -2.482,12.462 -0.347,14.834c0.848,0.941 1.677,3.121 1.843,4.845c0.203,2.103 1.114,3.737 2.769,4.967c2.319,1.724 2.978,1.768 11.058,0.74c10.449,-1.329 13.99,-3.374 17.723,-10.233l2.656,-4.88l-1.911,-3.775c-1.397,-2.76 -2.437,-8.361 -3.867,-20.823c-1.076,-9.376 -2.74,-22.231 -3.698,-28.567c-0.958,-6.335 -2.43,-20.226 -3.273,-30.87c-2.382,-30.102 -11.125,-77.667 -14.765,-80.328c-2.309,-1.689 -3.774,-1.536 -5.929,0.619z" data-paper-data="{&quot;wickUUID&quot;:&quot;26a482a9-8699-4952-b817-9771389251fe&quot;,&quot;wickType&quot;:&quot;path&quot;,&quot;originalStyle&quot;:{&quot;strokeColor&quot;:null,&quot;fillColor&quot;:[&quot;Color&quot;,0.50196,0,0.25098],&quot;strokeWidth&quot;:1}}" id="26a482a9-8699-4952-b817-9771389251fe"/><path d="M645.26098,78.80913c-52.62,19.01 -80.379,30.82 -83.448,35.505c-1.28,1.953 -1.344,3.357 -0.48,10.459c1.524,12.541 8.378,29.803 12.596,31.725c2.623,1.195 6.827,-1.136 6.827,-3.785c0,-0.931 -1.67,-5.307 -3.711,-9.725c-3.489,-7.551 -4.701,-11.731 -5.854,-20.186l-0.483,-3.54l9.401,-4.405c11.174,-5.235 43.793,-18.025 68.309,-26.784l17.576,-6.279l0.634,2.462c0.658,2.552 3.513,30.17 3.513,33.977c0,2.462 0.257,2.331 -15.205,7.739c-16.865,5.898 -20.924,8.778 -19.352,13.73c1.058,3.334 4.631,3.258 12.274,-0.259c3.893,-1.792 11.501,-4.791 16.906,-6.664c6.874,-2.383 10.612,-4.23 12.44,-6.145c2.547,-2.67 2.608,-2.975 2.446,-12.112c-0.092,-5.155 -1.037,-16.404 -2.101,-24.997c-2.071,-16.732 -2.934,-18.958 -7.321,-18.902c-1.315,0.016 -12.55,3.7 -24.967,8.186z" data-paper-data="{&quot;wickUUID&quot;:&quot;3bfb9c08-7780-4057-a412-c2ab5a89cc0b&quot;,&quot;wickType&quot;:&quot;path&quot;,&quot;originalStyle&quot;:{&quot;strokeColor&quot;:null,&quot;fillColor&quot;:[&quot;Color&quot;,0.50196,0,0.25098],&quot;strokeWidth&quot;:1}}"/><path d="M716.21609,138.76078c-14.008,1.131 -27.115,4.296 -35.256,8.512c-9.125,4.727 -11.223,7.259 -13.134,15.845c-1.661,7.469 -1.115,10.055 2.359,11.157c2.375,0.754 6.406,-1.772 6.406,-4.015c0,-0.91 0.623,-3.752 1.385,-6.316c1.306,-4.399 1.735,-4.846 7.62,-7.938c7.108,-3.736 20.275,-6.622 34.043,-7.464l8.492,-0.519l0.886,3.443c1.61,6.258 2.751,16.168 3.409,29.619c0.625,12.766 0.583,13.254 -1.1,12.738c-0.962,-0.296 -6.499,-2.248 -12.305,-4.339c-6.673,-2.404 -14.058,-4.294 -20.08,-5.139c-5.238,-0.736 -11.269,-1.74 -13.402,-2.232c-8.47,-1.955 -12.864,-0.576 -12.864,4.038c0,3.498 1.301,4.492 6.908,5.279c2.663,0.373 9.61,1.346 15.438,2.161c11.993,1.678 15.723,2.734 29.762,8.427c5.472,2.219 10.778,4.035 11.791,4.035c1.013,0 2.922,-1.081 4.243,-2.402l2.402,-2.402l-0.625,-16.658c-0.344,-9.161 -1.252,-20.831 -2.017,-25.934c-3.084,-20.557 -4.262,-21.519 -24.361,-19.896z" data-paper-data="{&quot;wickUUID&quot;:&quot;32edfc0a-4485-4921-94e4-4ce68a6baf40&quot;,&quot;wickType&quot;:&quot;path&quot;,&quot;originalStyle&quot;:{&quot;strokeColor&quot;:null,&quot;fillColor&quot;:[&quot;Color&quot;,0.50196,0,0.25098],&quot;strokeWidth&quot;:1}}"/><path d="M687.64898,110.27897c-11.938,8.665 -35.938,30.415 -35.938,32.57c0,0.692 0.759,2.197 1.688,3.343c2.453,3.03 5.747,1.841 12.498,-4.513c6.164,-5.801 21.391,-18.762 26.123,-22.234c2.894,-2.124 3.232,-2.161 10.675,-1.165c9.535,1.276 16.58,3.708 24.684,8.522l6.265,3.722l-1.803,4.206c-3.358,7.835 -2.021,13.268 3.265,13.268c3.324,0 5.069,-1.85 5.069,-5.375c0,-0.995 1.244,-4.174 2.764,-7.065c3.157,-6.002 3.456,-8.794 1.152,-10.78c-0.887,-0.764 -6.446,-3.945 -12.353,-7.069c-11.861,-6.272 -20.498,-8.904 -32.28,-9.835c-7.599,-0.6 -7.696,-0.58 -11.809,2.405z" data-paper-data="{&quot;wickUUID&quot;:&quot;4eb5a6ea-be5e-45df-ad0c-64e4b44c0cb5&quot;,&quot;wickType&quot;:&quot;path&quot;,&quot;originalStyle&quot;:{&quot;strokeColor&quot;:null,&quot;fillColor&quot;:[&quot;Color&quot;,0.50196,0,0.25098],&quot;strokeWidth&quot;:1}}"/><path d="M666.91545,156.20724c-6.026,0.756 -6.911,1.419 -6.911,5.175c0,3.789 1.881,5.047 7.542,5.042c5.197,-0.004 9.966,-2.837 9.966,-5.92c0,-2.207 -3.088,-5.272 -5.042,-5.004c-0.521,0.071 -3.021,0.389 -5.555,0.707z" data-paper-data="{&quot;wickUUID&quot;:&quot;3c67d18e-d765-4b2c-bb6c-affee3d48396&quot;,&quot;wickType&quot;:&quot;path&quot;,&quot;originalStyle&quot;:{&quot;strokeColor&quot;:null,&quot;fillColor&quot;:[&quot;Color&quot;,0.50196,0,0.25098],&quot;strokeWidth&quot;:1}}"/></g><g fill="none" fill-rule="nonzero" stroke="none" stroke-width="1" stroke-linecap="butt" stroke-linejoin="miter" stroke-miterlimit="10" stroke-dasharray="" stroke-dashoffset="0" font-family="sans-serif" font-weight="normal" font-size="12" text-anchor="start" style="mix-blend-mode: normal"/><g id="wick_project_gui" fill="none" fill-rule="nonzero" stroke="none" stroke-width="1" stroke-linecap="butt" stroke-linejoin="miter" stroke-miterlimit="10" stroke-dasharray="" stroke-dashoffset="0" font-family="sans-serif" font-weight="normal" font-size="12" text-anchor="start" style="mix-blend-mode: normal"/></g></svg>