<svg version="1.1" xmlns="http://www.w3.org/2000/svg" xmlns:xlink="http://www.w3.org/1999/xlink" width="1260" height="594" viewBox="0,0,1260,594"><g transform="translate(259.74321,92.84357) scale(0.66226,0.66226)"><g id="wick_project_bg" fill-opacity="0" fill="#ffffff" fill-rule="nonzero" stroke="none" stroke-width="1" stroke-linecap="butt" stroke-linejoin="miter" stroke-miterlimit="10" stroke-dasharray="" stroke-dashoffset="0" font-family="none" font-weight="none" font-size="none" text-anchor="none" style="mix-blend-mode: normal"><rect x="0" y="0" width="720" height="480"/></g><g data-paper-data="{&quot;wickUUID&quot;:&quot;94055329-1829-4773-9ef1-e3efbe059dbd&quot;,&quot;wickType&quot;:&quot;clipsandpaths&quot;}" fill="#800040" fill-rule="none" stroke="none" stroke-width="1" stroke-linecap="butt" stroke-linejoin="miter" stroke-miterlimit="10" stroke-dasharray="" stroke-dashoffset="0" font-family="none" font-weight="none" font-size="none" text-anchor="none" style="mix-blend-mode: normal"><path d="M642.70744,158.94501c1.151,-0.264 6.027,-0.262 10.834,0.004c12.971,0.718 21.573,4.607 31.129,14.072c8.281,8.202 11.623,14.114 15.456,27.341c5.202,17.95 7.246,30.758 6.704,42.011l-0.504,10.466l-8.121,15.812c-11.901,23.175 -17.725,31.462 -28.896,41.116c-10.984,9.493 -12.263,10.286 -19.276,11.943c-5.187,1.226 -5.4,1.445 -24.274,24.902c-19.99,24.844 -35.534,45.209 -43.226,56.631c-5.078,7.542 -6.941,9.336 -9.745,9.385c-2.298,0.04 -23.924,-10.707 -34.663,-17.226c-4.274,-2.594 -8.44,-4.717 -9.258,-4.717c-0.817,0 -3.355,1.354 -5.639,3.008c-6.37,4.614 -7.801,4.755 -12.651,1.241c-7.589,-5.497 -29.964,-15.915 -69.67,-32.44c-9.687,-4.032 -20.519,-9.294 -24.07,-11.695c-7.909,-5.346 -27.084,-18.48 -31.15,-21.336c-4.202,-2.951 -5.356,-6.316 -4.231,-12.334c1.281,-6.854 3.554,-9.119 9.149,-9.119c5.573,0 19.634,4.36 28.671,8.89c6.426,3.221 87.555,35.892 99.005,39.87c5.112,1.776 5.51,1.776 9.246,0.003c5.947,-2.822 8.632,-1.624 11.65,5.201c2.922,6.607 3.204,11.494 0.972,16.837c-0.864,2.066 -1.57,3.89 -1.57,4.053c0,0.6 16.473,9.859 24.461,13.749c7.839,3.818 8.298,3.918 9.419,2.047c3.389,-5.656 28.22,-38.329 43.203,-56.845c9.407,-11.626 17.103,-21.362 17.103,-21.637c0,-0.274 -9.038,-5.126 -20.084,-10.781c-25.994,-13.308 -30.751,-17.515 -34.705,-30.69c-3.772,-12.567 -8.002,-38.299 -8.002,-48.675c0,-18.897 3.665,-27.39 17.952,-41.6c15.412,-15.328 31.32,-24.774 46.932,-27.867c3.166,-0.627 6.698,-1.356 7.849,-1.62zM664.71944,172.15701c-11.646,-4.457 -30.465,-2.26 -45.051,5.258c-8.184,4.219 -17.327,11.553 -26.553,21.3c-10.503,11.096 -12.124,15.417 -11.951,31.853c0.203,19.231 7.061,50.51 12.106,55.212c1.289,1.201 11.338,6.944 22.33,12.763c24.236,12.828 30.138,14.402 37.598,10.03c2.491,-1.46 8.45,-6.54 13.241,-11.289c7.823,-7.755 9.616,-10.339 17.606,-25.36c11.135,-20.937 11.263,-21.239 12.085,-28.532c1.191,-10.559 -5.008,-39.787 -11.081,-52.248c-3.993,-8.193 -12.232,-15.888 -20.33,-18.987zM392.49544,320.41501c0.304,0.491 7.907,5.956 16.897,12.144c16.826,11.583 23.64,15.147 47.035,24.6c7.483,3.023 21.705,9.213 31.605,13.755c9.9,4.543 18.376,8.25 18.837,8.24c1.248,-0.028 7.416,-7.738 7.816,-9.771c0.281,-1.424 -9.059,-5.524 -48.839,-21.438c-27.052,-10.823 -51.541,-20.886 -54.419,-22.364c-2.878,-1.478 -7.79,-3.445 -10.917,-4.373c-6.338,-1.881 -8.84,-2.128 -8.015,-0.793z" data-paper-data="{&quot;wickUUID&quot;:&quot;0a1458db-20f7-433e-9be7-035e158c45ae&quot;,&quot;wickType&quot;:&quot;path&quot;,&quot;originalStyle&quot;:{&quot;strokeColor&quot;:null,&quot;fillColor&quot;:[&quot;Color&quot;,0.50196,0,0.25098],&quot;strokeWidth&quot;:1}}" fill-rule="nonzero"/><path d="M609.15639,286.50492c-2.24,3.419 -1.258,6.008 3.975,10.487c4.855,4.156 7.014,4.559 9.53,1.778c2.753,-3.041 2.068,-5.341 -3.052,-10.246c-5.433,-5.206 -8.035,-5.708 -10.453,-2.019z" data-paper-data="{&quot;wickUUID&quot;:&quot;bbe9e2c9-aeae-42b3-986b-48dee84e5e65&quot;,&quot;wickType&quot;:&quot;path&quot;,&quot;originalStyle&quot;:{&quot;strokeColor&quot;:null,&quot;fillColor&quot;:[&quot;Color&quot;,0.50196,0,0.25098],&quot;strokeWidth&quot;:1}}" fill-rule="evenodd"/><path d="M595.54869,225.812c-1.58,2.412 -1.523,2.978 0.927,9.157c5.309,13.388 13.154,40.061 12.591,42.809c-0.79,3.856 4.931,10.348 9.119,10.348c2.998,0 5.161,-2.35 5.161,-5.604c0,-3.359 -18.155,-55.091 -20.046,-57.121c-2.689,-2.885 -5.697,-2.726 -7.752,0.411z" data-paper-data="{&quot;wickUUID&quot;:&quot;7f364105-8287-4200-8e31-ac3c5f123d83&quot;,&quot;wickType&quot;:&quot;path&quot;,&quot;originalStyle&quot;:{&quot;strokeColor&quot;:null,&quot;fillColor&quot;:[&quot;Color&quot;,0.50196,0,0.25098],&quot;strokeWidth&quot;:1}}" fill-rule="evenodd"/><path d="M611.11423,231.87609c-0.868,1.344 -11.134,27.89 -13.17,34.055c-0.988,2.991 -0.85,3.733 1.049,5.632c3.322,3.321 6.857,1.937 9.092,-3.56c5.009,-12.316 12.122,-31.543 12.122,-32.765c0,-3.708 -7.16,-6.356 -9.093,-3.362z" data-paper-data="{&quot;wickUUID&quot;:&quot;732fbd69-633c-4778-8d26-3faf7d2531a1&quot;,&quot;wickType&quot;:&quot;path&quot;,&quot;originalStyle&quot;:{&quot;strokeColor&quot;:null,&quot;fillColor&quot;:[&quot;Color&quot;,0.50196,0,0.25098],&quot;strokeWidth&quot;:1}}" fill-rule="evenodd"/><path d="M748.6572,122.93576c12.13,3.985 16.453,5.88 18.052,7.914c4.7,5.975 1.269,9.315 -16.543,16.104c-7.665,2.921 -17.319,7.218 -21.453,9.549c-12.255,6.907 -34.347,22.32 -42.43,29.599c-1.08097,0.97358 -2.06623,1.85768 -2.96714,2.65855c-0.53224,-0.81222 -1.14313,-1.68092 -1.84321,-2.63513c-2.16297,-2.94815 -3.97228,-4.92395 -5.64303,-5.96542c1.39662,-1.06396 3.09432,-2.42212 4.85538,-3.897c17.38,-14.558 44.465,-31.41 60.877,-37.879l8.854,-3.49l-12.486,-4.052c-15.939,-5.172 -33.27,-9.04 -43.943,-9.807c-15.222,-1.094 -47.744,7.472 -70.33,18.524c-11.645,5.699 -14.62,8.395 -16.511,14.965c-1.48,5.141 -1.429,5.811 1.044,13.776c3.792,12.218 3.26,16.221 -2.158,16.221c-3.49,0 -5.186,-2.844 -8.265,-13.862c-2.503,-8.955 -2.715,-10.836 -1.733,-15.414c2.524,-11.769 5.791,-15.987 17.85,-23.047c10.009,-5.86 39.916,-16.465 55.91,-19.826c21.99,-4.621 39.975,-2.211 78.863,10.564z" data-paper-data="{&quot;wickUUID&quot;:&quot;28c21dbc-ea82-4ef3-afe9-431107c009b7&quot;,&quot;wickType&quot;:&quot;path&quot;,&quot;originalStyle&quot;:{&quot;strokeColor&quot;:null,&quot;fillColor&quot;:[&quot;Color&quot;,0.50196,0,0.25098],&quot;strokeWidth&quot;:1}}" fill-rule="evenodd"/><path d="M763.02835,151.39937c-1.135,0.778 -4.184,1.696 -6.774,2.04c-6.891,0.916 -14.99,4.558 -25.639,11.53c-11.027,7.22 -28.881,16.412 -31.876,16.412c-1.148,0 -2.859,1.177 -3.802,2.616c-1.588,2.424 -1.588,2.809 0,5.233c3.041,4.641 8.308,3.671 22.769,-4.195c6.888,-3.747 14.232,-7.973 16.319,-9.391c2.088,-1.419 3.984,-2.392 4.213,-2.163c0.229,0.229 -2.62,4.102 -6.33,8.606c-8.411,10.209 -29.904,39.268 -32.999,44.616c-1.268,2.191 -2.299,5.252 -2.29,6.802c0.035,6.191 -1.687,5.949 43.115,6.056c22.612,0.055 42.745,0.542 44.738,1.082c3.129,0.848 4.237,2.124 8.091,9.32c2.457,4.585 4.475,8.731 4.486,9.212c0.011,0.481 -6.358,-2.462 -14.154,-6.541c-7.795,-4.078 -15.144,-7.416 -16.331,-7.416c-5.046,0 -17.008,4.12 -49.309,16.984c-29.964,11.933 -34.369,13.972 -34.921,16.169c-0.748,2.982 2.057,6.615 5.108,6.615c1.115,0 16.7,-5.839 34.635,-12.975c32.513,-12.937 39.08,-15.264 43.106,-15.275c1.169,-0.003 10.311,4.273 20.316,9.503c15.857,8.289 18.507,9.365 20.657,8.385c3.708,-1.69 4.928,-5.891 3.525,-12.138c-1.539,-6.852 -12.4,-27.531 -15.765,-30.015c-4.226,-3.12 -18.874,-4.357 -52.051,-4.397c-16.836,-0.02 -30.611,-0.23 -30.611,-0.467c0,-0.744 15.834,-22.206 24.453,-33.145c4.535,-5.755 12.299,-14.585 17.252,-19.622c7.459,-7.583 9.562,-9.157 12.233,-9.157c4.475,0 7.807,-3.367 7.807,-7.889c0,-6.24 -5.266,-9.617 -9.971,-6.395z" data-paper-data="{&quot;wickUUID&quot;:&quot;9cdadf88-81f1-4163-b7f5-91d21e9bd120&quot;,&quot;wickType&quot;:&quot;path&quot;,&quot;originalStyle&quot;:{&quot;strokeColor&quot;:null,&quot;fillColor&quot;:[&quot;Color&quot;,0.50196,0,0.25098],&quot;strokeWidth&quot;:1}}" fill-rule="evenodd"/><path d="M684.64354,282.44536c-2.163,2.162 -2.087,4.98 0.186,6.915c1.008,0.857 5.454,3.248 9.881,5.313c12.304,5.741 29.938,18.52 44.298,32.101l5.796,5.482l-3.119,3.552c-7.119,8.109 -4.851,21.388 3.654,21.388c2.715,0 4.231,-0.931 7.428,-4.563c5.595,-6.356 9.093,-13.66 8.241,-17.206c-1.354,-5.641 -31.197,-32.343 -49.178,-44.003c-8.067,-5.231 -19.749,-10.552 -23.263,-10.596c-1.254,-0.015 -3.02,0.712 -3.924,1.617z" data-paper-data="{&quot;wickUUID&quot;:&quot;6d0c2d4f-e410-4580-b8af-4cf20003f807&quot;,&quot;wickType&quot;:&quot;path&quot;,&quot;originalStyle&quot;:{&quot;strokeColor&quot;:null,&quot;fillColor&quot;:[&quot;Color&quot;,0.50196,0,0.25098],&quot;strokeWidth&quot;:1}}" fill-rule="evenodd"/><path d="M681.50311,281.39885c-0.904,0.904 -1.644,2.4 -1.644,3.325c0,0.924 5.419,12.546 12.043,25.826c10.656,21.363 12.524,25.943 16.216,39.737c5.82,21.748 7.371,31.852 7.625,49.687l0.221,15.467l-4.186,8.266c-5.633,11.123 -11.651,19.105 -22.567,29.929c-28.424,28.185 -47.614,38.561 -71.316,38.561c-9.874,0 -14.501,-1.452 -16.494,-5.175c-2.743,-5.126 0.304,-24.029 6.421,-39.825c1.226,-3.166 8.455,-18.236 16.064,-33.489c7.609,-15.253 17.686,-36.115 22.394,-46.361c4.708,-10.245 12.305,-26.188 16.883,-35.429c4.578,-9.241 8.324,-17.919 8.324,-19.284c0,-1.495 -1.044,-3.166 -2.622,-4.201c-2.25,-1.474 -2.913,-1.514 -4.676,-0.285c-2.202,1.534 -12.78,22.419 -25.762,50.86c-4.405,9.652 -14.315,30.153 -22.021,45.558c-16.764,33.512 -20.224,41.694 -23.931,56.592c-3.755,15.087 -3.507,26.443 0.716,32.821c1.764,2.665 4.684,5.166 7.849,6.725c4.493,2.212 6.345,2.464 17.074,2.327c26.453,-0.339 45.357,-9.861 74.303,-37.427c16.849,-16.046 27.968,-31.348 32.528,-44.768c2.058,-6.056 2.197,-8.082 1.675,-24.395c-0.627,-19.596 -1.959,-27.294 -9.193,-53.108c-3.709,-13.236 -6.058,-19.012 -14.694,-36.142c-13.698,-27.17 -16.476,-30.546 -21.23,-25.792z" data-paper-data="{&quot;wickUUID&quot;:&quot;50282d29-eb33-4632-9312-3c779bc18fdb&quot;,&quot;wickType&quot;:&quot;path&quot;,&quot;originalStyle&quot;:{&quot;strokeColor&quot;:null,&quot;fillColor&quot;:[&quot;Color&quot;,0.50196,0,0.25098],&quot;strokeWidth&quot;:1}}" fill-rule="evenodd"/><path d="M593.40018,494.01827c-1.617,1.1 -4.563,7.148 -10.189,20.913c-2.641,6.46 -6.062,14.23 -7.603,17.267c-1.541,3.037 -5.341,11.879 -8.444,19.65c-5.888,14.745 -6.251,17.834 -2.339,19.928c3.444,1.843 6.563,-1.037 9.301,-8.589c1.321,-3.647 5.218,-12.988 8.659,-20.758c17.538,-39.606 19.412,-44.498 17.949,-46.834c-1.232,-1.969 -5.431,-2.871 -7.334,-1.577z" data-paper-data="{&quot;wickUUID&quot;:&quot;3ad4bb64-5e7b-49f9-8923-5795fbda580c&quot;,&quot;wickType&quot;:&quot;path&quot;,&quot;originalStyle&quot;:{&quot;strokeColor&quot;:null,&quot;fillColor&quot;:[&quot;Color&quot;,0.50196,0,0.25098],&quot;strokeWidth&quot;:1}}" fill-rule="evenodd"/><path d="M575.20718,428.07457c-1.617,2.055 -2.044,3.593 -1.525,5.494c0.396,1.452 0.941,15.237 1.211,30.634l0.491,27.994h-2.542c-3.12,0 -5.741,2.749 -7.084,7.431c-3.045,10.62 8.735,17.849 17.02,10.445l3.418,-3.054l-0.34,-32.266c-0.187,-17.746 -0.591,-33.325 -0.898,-34.62c-0.658,-2.773 -0.484,-2.792 6.993,-0.785c11.2,3.006 18.838,1.556 18.838,-3.575c0,-3.077 -3.264,-4.872 -11.201,-6.164c-4.146,-0.674 -9.562,-1.931 -12.035,-2.792c-6.727,-2.343 -9.757,-2.035 -12.346,1.258z" data-paper-data="{&quot;wickUUID&quot;:&quot;a24e062b-1748-4529-8119-7684c92228e3&quot;,&quot;wickType&quot;:&quot;path&quot;,&quot;originalStyle&quot;:{&quot;strokeColor&quot;:null,&quot;fillColor&quot;:[&quot;Color&quot;,0.50196,0,0.25098],&quot;strokeWidth&quot;:1}}" fill-rule="evenodd"/></g><g fill="none" fill-rule="nonzero" stroke="none" stroke-width="1" stroke-linecap="butt" stroke-linejoin="miter" stroke-miterlimit="10" stroke-dasharray="" stroke-dashoffset="0" font-family="sans-serif" font-weight="normal" font-size="12" text-anchor="start" style="mix-blend-mode: normal"/><g id="wick_project_gui" fill="none" fill-rule="nonzero" stroke="none" stroke-width="1" stroke-linecap="butt" stroke-linejoin="miter" stroke-miterlimit="10" stroke-dasharray="" stroke-dashoffset="0" font-family="sans-serif" font-weight="normal" font-size="12" text-anchor="start" style="mix-blend-mode: normal"/></g></svg>