<svg version="1.1" xmlns="http://www.w3.org/2000/svg" xmlns:xlink="http://www.w3.org/1999/xlink" width="1260" height="594" viewBox="0,0,1260,594"><g transform="translate(259.74321,92.84357) scale(0.66226,0.66226)"><g id="wick_project_bg" fill-opacity="0" fill="#ffffff" fill-rule="nonzero" stroke="none" stroke-width="1" stroke-linecap="butt" stroke-linejoin="miter" stroke-miterlimit="10" stroke-dasharray="" stroke-dashoffset="0" font-family="none" font-weight="none" font-size="none" text-anchor="none" style="mix-blend-mode: normal"><rect x="0" y="0" width="720" height="480"/></g><g data-paper-data="{&quot;wickUUID&quot;:&quot;00ce16d7-0096-4469-b214-a4e490b40ec9&quot;,&quot;wickType&quot;:&quot;clipsandpaths&quot;}" fill="#800040" fill-rule="none" stroke="none" stroke-width="1" stroke-linecap="butt" stroke-linejoin="miter" stroke-miterlimit="10" stroke-dasharray="" stroke-dashoffset="0" font-family="none" font-weight="none" font-size="none" text-anchor="none" style="mix-blend-mode: normal"><path d="M535.09111,256.57972c1.439,-0.276 7.561,-0.38 13.604,-0.231c9.509,0.234 12.491,0.787 22.146,4.107c27.603,9.493 43.619,20.337 49.618,33.596c3.059,6.758 7.475,32.962 9.007,53.435c1.001,13.383 0.933,16.875 -0.46,23.679c-1.996,9.747 -5.346,18.226 -11.348,28.715c-6.632,11.591 -10.268,15.319 -23.303,23.89c-13.893,9.135 -22.138,13.416 -34.148,17.732c-8.481,3.047 -9.606,3.19 -24.165,3.061c-16.201,-0.142 -30.32,-2.564 -39.266,-6.735c-5.517,-2.571 -20.104,-15.978 -20.919,-19.226c-0.343,-1.366 -1.29,-3.036 -2.104,-3.713c-2.939,-2.439 -11.904,-18.555 -15.123,-27.187l-3.289,-8.82l0.55,-16.221c0.489,-14.453 1.003,-17.989 4.712,-32.442c2.289,-8.922 5.113,-18.614 6.275,-21.538c7.606,-19.147 24.908,-36.83 43.813,-44.78c5.897,-2.479 17.841,-6.064 24.4,-7.322zM524.54711,270.50672c-16.912,5.107 -32.271,15.93 -40.366,28.444c-6.594,10.193 -8.472,14.881 -13.146,32.811c-3.492,13.396 -4.186,17.895 -4.686,30.376c-0.584,14.54 -0.563,14.716 2.666,23.05c6.096,15.727 17.106,29.156 31.541,38.469c4.154,2.681 13.485,3.62 26.877,2.706c15.212,-1.039 23.638,-2.571 28.903,-5.257c5.594,-2.854 9.315,-2.247 10.612,1.73c0.563,1.727 1.117,3.292 1.23,3.479c0.787,1.291 28.996,-16.999 32.977,-21.381c4.819,-5.305 12.398,-19.484 15.213,-28.461c2.573,-8.204 2.692,-9.545 2.139,-24.07c-0.896,-23.505 -5.472,-50.467 -9.655,-56.879c-5.597,-8.58 -20.563,-17.604 -40.273,-24.283c-16.549,-5.608 -27.3,-5.787 -44.032,-0.734z" data-paper-data="{&quot;wickUUID&quot;:&quot;542dff60-43a2-4562-9059-99834d9956dc&quot;,&quot;wickType&quot;:&quot;path&quot;,&quot;originalStyle&quot;:{&quot;strokeColor&quot;:null,&quot;fillColor&quot;:[&quot;Color&quot;,0.50196,0,0.25098],&quot;strokeWidth&quot;:1}}" id="542dff60-43a2-4562-9059-99834d9956dc" fill-rule="nonzero"/><path d="M410.86761,151.22313c-1.842,1.123 -4.139,3.594 -5.104,5.49c-0.964,1.896 -1.853,3.567 -1.974,3.714c-0.121,0.146 -1.657,-0.451 -3.413,-1.327c-3.938,-1.964 -7.738,-0.793 -10.347,3.188c-1.664,2.54 -1.676,3.109 -0.151,7.634c0.907,2.689 3.288,8.657 5.291,13.262c4.343,9.982 11.922,18.234 21.178,23.061c5.959,3.107 6.145,3.338 8.409,10.465c1.273,4.008 4.778,17.648 7.789,30.311c3.01,12.663 8.715,33.029 12.677,45.259c3.962,12.229 8.832,28.234 10.821,35.566c3.563,13.129 5.162,15.978 8.968,15.978c0.952,0 2.574,-0.931 3.604,-2.069c1.806,-1.996 1.752,-2.527 -1.518,-14.913c-1.865,-7.064 -6.664,-22.922 -10.664,-35.241c-5.729,-17.642 -21.225,-75.47 -22.147,-82.647c-0.104,-0.814 1.613,-2.073 3.955,-2.898c4.845,-1.707 8.752,-5.064 10.176,-8.744c2.235,-5.778 -1.093,-14.219 -6.885,-17.46c-1.745,-0.977 -1.652,-1.459 1.366,-7.116c4.782,-8.961 3.986,-15.855 -2.124,-18.385c-3.665,-1.518 -6.414,-0.006 -11.508,6.333c-3.766,4.686 -5.039,4.166 -5.124,-2.093c-0.054,-4.049 -1.433,-6.363 -4.885,-8.202c-3.138,-1.671 -4.505,-1.535 -8.39,0.834z" data-paper-data="{&quot;wickUUID&quot;:&quot;220e24f3-5597-47b0-a333-0f4195d2c70f&quot;,&quot;wickType&quot;:&quot;path&quot;,&quot;originalStyle&quot;:{&quot;strokeColor&quot;:null,&quot;fillColor&quot;:[&quot;Color&quot;,0.50196,0,0.25098],&quot;strokeWidth&quot;:1}}" id="220e24f3-5597-47b0-a333-0f4195d2c70f" fill-rule="evenodd"/><path d="M487.16012,304.26561c-2.036,2.037 -1.461,5.647 1.93,12.116c2.832,5.403 13.298,44.355 16.765,62.397c1.218,6.341 2.496,7.953 6.304,7.953c3.142,0 5.141,-2.385 5.141,-6.132c0,-1.146 -3.258,-15.316 -7.239,-31.49c-6.937,-28.181 -11.039,-40.159 -15.167,-44.286c-2.099,-2.099 -5.917,-2.375 -7.734,-0.558z" data-paper-data="{&quot;wickUUID&quot;:&quot;7b7e8421-b0dc-4ec5-8a93-e2c04d4229c1&quot;,&quot;wickType&quot;:&quot;path&quot;,&quot;originalStyle&quot;:{&quot;strokeColor&quot;:null,&quot;fillColor&quot;:[&quot;Color&quot;,0.50196,0,0.25098],&quot;strokeWidth&quot;:1}}" id="7b7e8421-b0dc-4ec5-8a93-e2c04d4229c1" fill-rule="evenodd"/><path d="M523.33194,306.95452c-1.01,0.216 -3.68,3.956 -6.015,8.426c-2.31,4.42 -8.031,12.746 -12.714,18.502c-4.684,5.756 -10.879,13.997 -13.769,18.314c-2.889,4.317 -7.299,10.065 -9.8,12.775c-2.502,2.709 -4.548,5.548 -4.548,6.308c0,2.491 3.212,6.033 5.471,6.033c2.85,0 9.663,-7.127 16.506,-17.267c2.95,-4.373 9.613,-13.225 14.805,-19.673c11.197,-13.903 18.123,-26.53 16.661,-30.375c-0.987,-2.596 -3.429,-3.723 -6.597,-3.043z" data-paper-data="{&quot;wickUUID&quot;:&quot;41fe7d86-ef52-40e4-accd-960b58232cc6&quot;,&quot;wickType&quot;:&quot;path&quot;,&quot;originalStyle&quot;:{&quot;strokeColor&quot;:null,&quot;fillColor&quot;:[&quot;Color&quot;,0.50196,0,0.25098],&quot;strokeWidth&quot;:1}}" id="41fe7d86-ef52-40e4-accd-960b58232cc6" fill-rule="evenodd"/><path d="M548.91961,349.62052c10.178,-5.152 21.294,-2.327 28.616,7.272c7.173,9.404 4.205,23.867 -6.166,30.043c-2.227,1.327 -5.256,3.707 -6.732,5.29c-5.013,5.376 -14.473,3.313 -21.937,-4.784c-4.788,-5.194 -7.011,-9.041 -8.071,-13.966c-1.721,-7.998 4.943,-19.123 14.29,-23.855zM553.93661,359.74852c-4.448,2.261 -9.427,7.965 -9.427,10.798c0,1.801 6.417,11.082 8.572,12.399c1.309,0.8 2.264,0.65 3.663,-0.574c1.041,-0.91 3.695,-2.234 5.898,-2.941c4.513,-1.45 8.02,-6.154 8.026,-10.767c0.002,-1.83 -1.247,-4.221 -3.397,-6.504c-4.539,-4.818 -7.534,-5.359 -13.335,-2.411z" data-paper-data="{&quot;wickUUID&quot;:&quot;7cca3520-8001-486f-9dfc-8dc52bebf48c&quot;,&quot;wickType&quot;:&quot;path&quot;,&quot;originalStyle&quot;:{&quot;strokeColor&quot;:null,&quot;fillColor&quot;:[&quot;Color&quot;,0.50196,0,0.25098],&quot;strokeWidth&quot;:1}}" id="7cca3520-8001-486f-9dfc-8dc52bebf48c" fill-rule="nonzero"/><path d="M572.38241,349.31845c-3.979,-2.755 -4.712,-2.88 -17.122,-2.913c-9.32757,-0.02562 -12.9107,-0.29032 -14.21947,-1.79374c1.41509,-0.46549 2.96894,-1.13033 4.66219,-1.99424c3.29,-1.678 10.23,-3.448 15.421,-3.933c9.071,-0.847 9.548,-0.72 12.271,3.261c2.80816,4.10456 5.64515,7.41086 8.03897,9.49215c-1.87043,1.21799 -5.14626,0.5835 -9.05169,-2.11917z" data-paper-data="{&quot;wickUUID&quot;:&quot;9a16e16b-b1a1-4042-b273-b0602215950b&quot;,&quot;wickType&quot;:&quot;path&quot;,&quot;originalStyle&quot;:{&quot;strokeColor&quot;:null,&quot;fillColor&quot;:[&quot;Color&quot;,0.50196,0,0.25098],&quot;strokeWidth&quot;:1}}" id="9a16e16b-b1a1-4042-b273-b0602215950b" fill-rule="evenodd"/><path d="M556.54484,206.36947c-1.152,0.243 -3.181,0.676 -4.51,0.96c-4.872,1.045 -12.595,9.436 -30.752,33.413c-7.769,10.259 -18.634,28.978 -18.634,32.105c0,4.25 7.514,6.566 9.579,2.953c0.494,-0.863 3.068,-5.559 5.721,-10.434c5.168,-9.499 23.995,-34.903 31.879,-43.015l4.795,-4.934l10.379,-0.78c10.378,-0.779 33.472,-0.07 37.78,1.16c2.327,0.664 4.776,6.983 7.825,20.192c1.484,6.431 1.309,6.687 -7.179,10.51c-6.677,3.007 -19.094,9.795 -23.598,12.901c-4.679,3.226 -3.508,10.214 1.712,10.214c1.143,0 6.641,-2.583 12.218,-5.741c5.576,-3.157 13.141,-7.1 16.811,-8.762c9.424,-4.267 11.937,-7.284 11.776,-14.135c-0.071,-2.991 -1.301,-9.427 -2.733,-14.301c-1.432,-4.875 -3.143,-10.809 -3.801,-13.187c-1.552,-5.608 -2.666,-6.423 -11.272,-8.246c-6.738,-1.428 -42.313,-2.075 -47.996,-0.873z" data-paper-data="{&quot;wickUUID&quot;:&quot;e2786995-5516-4190-8a7c-ac65607db5fc&quot;,&quot;wickType&quot;:&quot;path&quot;,&quot;originalStyle&quot;:{&quot;strokeColor&quot;:null,&quot;fillColor&quot;:[&quot;Color&quot;,0.50196,0,0.25098],&quot;strokeWidth&quot;:1}}" id="e2786995-5516-4190-8a7c-ac65607db5fc" fill-rule="evenodd"/><path d="M633.88495,260.0763c-6.053,2.447 -24.491,23.011 -24.491,27.315c0,1.081 1.198,2.751 2.663,3.711c2.307,1.512 3.02,1.555 5.322,0.323c1.462,-0.783 3.28,-2.625 4.04,-4.094c1.701,-3.29 11.565,-13.639 15.361,-16.117c2.719,-1.775 3,-1.737 10.466,1.389c13.567,5.682 20.045,9.763 22.122,13.938c2.322,4.67 4.099,15.514 3.664,22.361l-0.324,5.096l-7.326,3.901c-13.121,6.986 -16.187,8.088 -28.432,10.214c-6.643,1.153 -13.324,2.691 -14.846,3.417c-3.492,1.666 -4.184,5.93 -1.374,8.472c1.921,1.739 2.675,1.703 16.009,-0.776c7.695,-1.43 15.876,-3.283 18.178,-4.117c6.759,-2.448 26.003,-13.09 27.994,-15.481c3.397,-4.078 1.155,-27.272 -3.65,-37.767c-3.086,-6.741 -8.244,-10.507 -24.565,-17.939c-10.67,-4.858 -15.912,-5.827 -20.811,-3.846z" data-paper-data="{&quot;wickUUID&quot;:&quot;d7faa638-a101-4c2d-a143-dedac7e6973e&quot;,&quot;wickType&quot;:&quot;path&quot;,&quot;originalStyle&quot;:{&quot;strokeColor&quot;:null,&quot;fillColor&quot;:[&quot;Color&quot;,0.50196,0,0.25098],&quot;strokeWidth&quot;:1}}" id="d7faa638-a101-4c2d-a143-dedac7e6973e" fill-rule="evenodd"/><path d="M648.11495,345.20417c-3.166,1.349 -9.288,4.6 -13.605,7.224c-7.202,4.378 -7.876,5.082 -8.173,8.542c-0.274,3.18 0.092,3.962 2.328,4.981c2.276,1.037 3.226,0.83 6.675,-1.453c5.244,-3.47 16.669,-9.224 20.497,-10.322c2.593,-0.744 3.441,-0.408 6.073,2.411c1.683,1.801 4.284,5.364 5.78,7.916l2.72,4.641l-1.856,5.915c-3.289,10.482 -4.121,11.123 -16.461,12.679c-13.842,1.744 -24.506,4.539 -33.926,8.892c-8.36,3.862 -10.048,6.315 -7.266,10.559c2.14,3.267 3.028,3.225 11.339,-0.543c8.714,-3.952 20.323,-6.85 34.073,-8.507c7.529,-0.908 11.584,-1.908 13.344,-3.293c3.716,-2.923 7.312,-9.678 9.949,-18.692l2.328,-7.961l-2.261,-4.597c-2.9,-5.897 -10.094,-15.533 -13.52,-18.11c-4.073,-3.064 -11.249,-3.176 -18.038,-0.282z" data-paper-data="{&quot;wickUUID&quot;:&quot;8e0b2524-bc5b-44a7-80a0-769d309a3d6d&quot;,&quot;wickType&quot;:&quot;path&quot;,&quot;originalStyle&quot;:{&quot;strokeColor&quot;:null,&quot;fillColor&quot;:[&quot;Color&quot;,0.50196,0,0.25098],&quot;strokeWidth&quot;:1}}" id="8e0b2524-bc5b-44a7-80a0-769d309a3d6d" fill-rule="evenodd"/><path d="M522.08403,434.42243c-2.1,2.1 -2.1,5.076 0,7.176c2.185,2.185 4.963,2.08 7.089,-0.269c2.251,-2.488 2.193,-4.67 -0.182,-6.82c-2.404,-2.175 -4.789,-2.205 -6.907,-0.087z" data-paper-data="{&quot;wickUUID&quot;:&quot;c8d68eb7-ee92-4c9c-942d-454348a6f861&quot;,&quot;wickType&quot;:&quot;path&quot;,&quot;originalStyle&quot;:{&quot;strokeColor&quot;:null,&quot;fillColor&quot;:[&quot;Color&quot;,0.50196,0,0.25098],&quot;strokeWidth&quot;:1}}" id="c8d68eb7-ee92-4c9c-942d-454348a6f861" fill-rule="evenodd"/><path d="M518.80706,436.38994c-2.692,4.108 -1.046,6.36 8.752,11.974c15.295,8.763 28.626,21.695 41.919,40.664c3.641,5.196 10.619,4.37 10.609,-1.256c-0.011,-5.925 -20.534,-29.947 -35.054,-41.03c-5.861,-4.473 -20.792,-12.917 -22.841,-12.917c-0.937,0 -2.461,1.154 -3.385,2.565z" data-paper-data="{&quot;wickUUID&quot;:&quot;5d7b05bb-89f8-495c-94b5-7579872ddc04&quot;,&quot;wickType&quot;:&quot;path&quot;,&quot;originalStyle&quot;:{&quot;strokeColor&quot;:null,&quot;fillColor&quot;:[&quot;Color&quot;,0.50196,0,0.25098],&quot;strokeWidth&quot;:1}}" id="5d7b05bb-89f8-495c-94b5-7579872ddc04" fill-rule="evenodd"/><path d="M603.23541,399.1684c-4.283,4.283 -1.979,8.023 5.847,9.492c2.995,0.562 9.231,2.925 13.858,5.251c4.628,2.327 12.067,5.681 16.532,7.453c17.839,7.082 39.368,19.991 53.119,31.85c4.029,3.475 12.035,9.923 17.791,14.329c5.756,4.406 12.98,10.571 16.054,13.7c5.555,5.653 5.58,5.708 4,8.763c-4.185,8.093 -13.44,14.353 -25.885,17.509c-32.526,8.25 -82.308,12.211 -101.932,8.111c-9.203,-1.923 -8.84,-1.566 -13.152,-12.957c-3.506,-9.261 -7.826,-15.473 -10.761,-15.473c-2.689,0 -5.941,2.92 -5.941,5.334c0,0.828 1.18,3.242 2.622,5.364c1.441,2.122 3.823,7.294 5.291,11.493c4.998,14.291 4.632,14.017 23.455,17.618c11.293,2.16 12.911,2.214 32.382,1.073c27.66,-1.622 63.21,-6.988 77.255,-11.662c14.539,-4.838 29.577,-20.472 29.577,-30.749c0,-3.493 -11.623,-15.57 -24.311,-25.261c-5.911,-4.514 -14.75,-11.567 -19.643,-15.673c-16.187,-13.586 -34.498,-24.712 -53.339,-32.408c-6.6,-2.696 -16.248,-7.048 -21.439,-9.67c-11.407,-5.762 -18.026,-6.841 -21.38,-3.487z" data-paper-data="{&quot;wickUUID&quot;:&quot;cc50a660-2f92-4bb0-a200-90872bbb7663&quot;,&quot;wickType&quot;:&quot;path&quot;,&quot;originalStyle&quot;:{&quot;strokeColor&quot;:null,&quot;fillColor&quot;:[&quot;Color&quot;,0.50196,0,0.25098],&quot;strokeWidth&quot;:1}}" id="cc50a660-2f92-4bb0-a200-90872bbb7663" fill-rule="evenodd"/><path d="M603.95522,399.55092c-1.305,1.034 -1.779,4.38 -2.259,15.96c-0.547,13.196 -3.084,36.583 -4.35,40.094c-0.362,1.003 -2.23,0.395 -6.936,-2.256c-5.265,-2.968 -6.69,-4.364 -7.813,-7.653c-2.767,-8.101 -9.878,-10.929 -16.829,-6.691c-4.811,2.933 -5.902,5.526 -4.699,11.165c0.552,2.589 0.768,5.606 0.48,6.706c-0.674,2.58 4.962,8.344 8.159,8.344c1.285,0 3.963,-1.241 5.951,-2.757l3.614,-2.757l8.12,4.327c13.165,7.014 18.419,5.32 20.764,-6.695c2.158,-11.064 4.63,-34.217 4.761,-44.601c0.108,-8.567 -0.174,-10.433 -1.861,-12.297c-2.257,-2.494 -4.69,-2.799 -7.102,-0.889z" data-paper-data="{&quot;wickUUID&quot;:&quot;309435e0-3783-4b6a-9db3-280608934062&quot;,&quot;wickType&quot;:&quot;path&quot;,&quot;originalStyle&quot;:{&quot;strokeColor&quot;:null,&quot;fillColor&quot;:[&quot;Color&quot;,0.50196,0,0.25098],&quot;strokeWidth&quot;:1}}" id="309435e0-3783-4b6a-9db3-280608934062" fill-rule="evenodd"/></g><g fill="none" fill-rule="nonzero" stroke="none" stroke-width="1" stroke-linecap="butt" stroke-linejoin="miter" stroke-miterlimit="10" stroke-dasharray="" stroke-dashoffset="0" font-family="sans-serif" font-weight="normal" font-size="12" text-anchor="start" style="mix-blend-mode: normal"/><g id="wick_project_gui" fill="none" fill-rule="nonzero" stroke="none" stroke-width="1" stroke-linecap="butt" stroke-linejoin="miter" stroke-miterlimit="10" stroke-dasharray="" stroke-dashoffset="0" font-family="sans-serif" font-weight="normal" font-size="12" text-anchor="start" style="mix-blend-mode: normal"/></g></svg>