<svg version="1.1" xmlns="http://www.w3.org/2000/svg" xmlns:xlink="http://www.w3.org/1999/xlink" width="1260" height="594" viewBox="0,0,1260,594"><g transform="translate(259.74321,92.84357) scale(0.66226,0.66226)"><g id="wick_project_bg" fill-opacity="0" fill="#ffffff" fill-rule="nonzero" stroke="none" stroke-width="1" stroke-linecap="butt" stroke-linejoin="miter" stroke-miterlimit="10" stroke-dasharray="" stroke-dashoffset="0" font-family="none" font-weight="none" font-size="none" text-anchor="none" style="mix-blend-mode: normal"><rect x="0" y="0" width="720" height="480"/></g><g data-paper-data="{&quot;wickUUID&quot;:&quot;557d09e7-9035-4c26-9802-93a7d1f4cc77&quot;,&quot;wickType&quot;:&quot;clipsandpaths&quot;}" fill="#800040" fill-rule="evenodd" stroke="none" stroke-width="1" stroke-linecap="butt" stroke-linejoin="miter" stroke-miterlimit="10" stroke-dasharray="" stroke-dashoffset="0" font-family="none" font-weight="none" font-size="none" text-anchor="none" style="mix-blend-mode: normal"><path d="M381.11867,230.22568c-7.563,3.725 -10.856,16.453 -6.585,25.454c2.275,4.794 11.348,11.22 15.842,11.22c9.123,0 17.648,-11.073 11.187,-14.53c-1.945,-1.042 -2.423,-2.539 -2.426,-7.611c-0.005,-7.376 -3.228,-13.633 -7.946,-15.426c-4.144,-1.576 -5.262,-1.477 -10.072,0.893z" data-paper-data="{&quot;wickUUID&quot;:&quot;eb9ced7a-773c-4474-b1c1-8f66848502d3&quot;,&quot;wickType&quot;:&quot;path&quot;}"/><path d="M397.4113,251.85051c-1.047,1.046 -1.903,2.642 -1.903,3.546c0,0.904 0.856,2.5 1.903,3.546c1.518,1.518 4.882,1.908 16.649,1.928c18.105,0.032 56.959,2.491 107.258,6.79c35.688,3.05 38.113,3.123 39.528,1.188c2.443,-3.342 0.732,-6.653 -4.128,-7.984c-8.801,-2.412 -124.045,-10.917 -147.914,-10.917c-7.013,0 -9.987,0.497 -11.393,1.903z" data-paper-data="{&quot;wickUUID&quot;:&quot;e26a970c-1881-4ff3-bde0-91bc809dabf7&quot;,&quot;wickType&quot;:&quot;path&quot;}"/><path d="M622.75111,260.92408c-0.963,1.375 -1.504,3.418 -1.201,4.54c0.663,2.46 26.423,23.232 28.811,23.232c2.085,0 5.486,-3.288 5.486,-5.304c0,-2.259 -2.129,-4.465 -12.517,-12.965c-15.828,-12.952 -17.593,-13.767 -20.579,-9.503z" data-paper-data="{&quot;wickUUID&quot;:&quot;84571765-01c6-4b69-844c-941a6cbbb7b5&quot;,&quot;wickType&quot;:&quot;path&quot;}"/><path d="M588.73036,265.16967c-2.771,2.771 -2.37,5.174 2.106,12.628c4.146,6.905 7.765,8.844 11.194,5.999c2.543,-2.111 2.155,-5.404 -1.278,-10.842c-1.665,-2.638 -3.027,-5.332 -3.027,-5.988c0,-1.267 -3.872,-3.699 -5.888,-3.699c-0.663,0 -2.061,0.856 -3.107,1.902z" data-paper-data="{&quot;wickUUID&quot;:&quot;7e7a6734-0289-4ce7-b6a7-23285ae347cf&quot;,&quot;wickType&quot;:&quot;path&quot;}"/><path d="M661.15097,205.74809c-2.745,0.866 -11.868,5.695 -20.276,10.731c-25.34,15.181 -63.986,35.671 -69.789,37.002c-2.997,0.688 -7.998,1.264 -11.114,1.28c-8.336,0.044 -12.007,4.586 -7.416,9.177c1.688,1.688 3.474,1.922 10.014,1.315c4.377,-0.407 10.673,-1.556 13.989,-2.552c7.08,-2.127 42.256,-20.693 66.985,-35.354c9.55,-5.662 18.901,-10.831 20.779,-11.485c4.512,-1.573 11.897,2.105 16.58,8.259c3.289,4.321 3.4,4.943 3.4,18.981c0,10.79 0.402,14.647 1.566,15.035c3.027,1.011 7.115,-0.899 8.519,-3.979c2.055,-4.512 1.777,-22.262 -0.448,-28.579c-2.397,-6.805 -10.399,-15.087 -18.113,-18.748c-6.803,-3.229 -7.674,-3.293 -14.676,-1.083z" data-paper-data="{&quot;wickUUID&quot;:&quot;7babec0c-975b-41b7-ac02-fb3ce3a0b86c&quot;,&quot;wickType&quot;:&quot;path&quot;}"/><path d="M599.54182,101.13256c-8.731,1.749 -23.9,9.42 -40.252,20.357c-21.42,14.326 -38.022,34.502 -44.145,53.647c-3.425,10.709 -4.292,32.706 -1.719,43.631c2.13,9.045 7.193,19.826 14.075,29.969c6.371,9.392 24.029,22.992 29.865,23.002c1.444,0.003 4.169,0.772 6.054,1.71c23.396,11.638 29.035,13.71 45.088,16.572c11.224,2 16.591,2.342 26.755,1.704c24.193,-1.518 36.205,-5.064 47.775,-14.1c10.628,-8.3 14.978,-18.928 20.004,-48.867c3.317,-19.764 3.089,-30.465 -1.098,-51.463c-3.836,-19.233 -7.657,-30.919 -14.65,-44.802c-7.181,-14.258 -15.468,-20.424 -36.881,-27.443c-12.066,-3.955 -14.831,-4.406 -29.075,-4.75c-8.658,-0.209 -18.466,0.166 -21.796,0.833zM628.60282,110.74056c4.662,0.664 13.653,2.91 19.979,4.992c21.451,7.056 27.063,13.083 36.133,38.797c4.659,13.211 9.881,39.649 9.881,50.031c0,8.243 -2.449,25.533 -5.656,39.938c-4.591,20.62 -13.021,29.385 -32.742,34.043c-11.693,2.761 -40.472,2.836 -52.325,0.136c-10.786,-2.457 -33.796,-12.973 -40.975,-18.726c-4.181,-3.351 -5.83,-3.989 -8.69,-3.36c-3.141,0.689 -4.379,-0.068 -11.238,-6.87c-8.991,-8.917 -17.164,-23.971 -19.273,-35.495c-1.935,-10.581 -0.57,-28.742 2.874,-38.23c5.914,-16.295 20.529,-33.489 38.996,-45.879c16.714,-11.214 28.675,-17.029 38.815,-18.872c10.66,-1.938 13.713,-2.001 24.221,-0.505z" data-paper-data="{&quot;wickUUID&quot;:&quot;2cba699b-6776-4ea5-b4eb-8a9ec8b2673e&quot;,&quot;wickType&quot;:&quot;path&quot;}"/><path d="M657.17962,237.61308c-1.392,2.599 -0.754,3.877 7.983,15.995c7.771,10.778 15.703,19.346 17.91,19.346c2.227,0 5.469,-3.355 5.469,-5.661c0,-1.02 -2.589,-4.981 -5.752,-8.802c-3.163,-3.821 -8.337,-10.576 -11.497,-15.011c-4.877,-6.844 -6.289,-8.063 -9.342,-8.063c-2.233,0 -4.041,0.832 -4.771,2.196z" data-paper-data="{&quot;wickUUID&quot;:&quot;883c6775-03e4-419f-8cb7-5658f3b6df42&quot;,&quot;wickType&quot;:&quot;path&quot;}"/><path d="M384.63987,225.24925c-3.647,0.98 -9.002,3.172 -11.9,4.87c-5.597,3.28 -12.382,12.515 -12.296,16.735c0.084,4.147 3.769,9.709 12.491,18.852l8.305,8.705l6.831,-0.813c18.659,-2.222 20.757,-4.483 20.757,-22.365c0,-11.518 -0.345,-13.611 -3.179,-19.299c-4.446,-8.923 -8.217,-10.122 -21.009,-6.685zM396.04487,236.89725c1.358,1.938 1.885,5.658 1.885,13.297c0,10.582 -0.007,10.607 -3.33,11.346c-1.831,0.408 -4.285,1 -5.452,1.317c-2.907,0.788 -16.646,-12.344 -16.646,-15.91c0,-3.552 4.476,-7.519 11.638,-10.316c7.732,-3.02 9.634,-2.977 11.905,0.266z" data-paper-data="{&quot;wickUUID&quot;:&quot;ccd9f384-5187-481a-b143-9ddca5bc6688&quot;,&quot;wickType&quot;:&quot;path&quot;}"/><path d="M559.67597,156.053c-3.121,3.322 -11.976,22.998 -14.077,31.28c-1.097,4.328 -3.056,14.164 -4.351,21.859c-1.914,11.366 -2.16,14.265 -1.312,15.455c0.574,0.805 1.383,2.237 1.797,3.182c2.172,4.963 5.852,4.794 17.225,-0.79c12.545,-6.159 12.836,-7.032 10.689,-32.073c-0.596,-6.944 -1.135,-18.344 -1.198,-25.333c-0.126,-13.866 -0.619,-15.492 -4.702,-15.492c-1.277,0 -3.063,0.839 -4.071,1.912zM559.83797,187.601c0.278,4.977 0.92,12.698 1.426,17.157c1.127,9.923 0.656,11.065 -5.718,13.884c-6.971,3.083 -7.173,2.608 -4.757,-11.206c3.023,-17.284 6.203,-28.884 7.918,-28.884c0.344,0 0.853,4.072 1.131,9.049z" data-paper-data="{&quot;wickUUID&quot;:&quot;e765e44a-4846-4d67-b241-a98034347f43&quot;,&quot;wickType&quot;:&quot;path&quot;}"/><path d="M582.45291,179.78736c-5.15,0.834 -7.249,3.87 -4.897,7.086c0.995,1.36 3.186,1.478 26.725,1.439c14.103,-0.024 26.125,-0.05 26.715,-0.059c1.352,-0.02 2.832,-3.781 2.168,-5.511c-1.278,-3.332 -4.396,-3.768 -26.137,-3.659c-11.481,0.058 -22.539,0.375 -24.574,0.704z" data-paper-data="{&quot;wickUUID&quot;:&quot;a26a23a6-285b-4a74-be06-a899102dd9a8&quot;,&quot;wickType&quot;:&quot;path&quot;}"/><path d="M623.1087,169.5521c-2.734,1.76 -8.987,5.35 -13.897,7.977c-15.971,8.546 -29.373,18.212 -29.373,21.183c0,1.626 2.959,4.677 4.537,4.677c0.644,0 3.432,-1.665 6.197,-3.701c5.788,-4.26 19.535,-12.665 26.303,-16.081c2.546,-1.285 6.902,-3.849 9.68,-5.697c7.608,-5.063 8.562,-6.784 5.472,-9.874c-2.311,-2.311 -3.212,-2.158 -8.919,1.516z" data-paper-data="{&quot;wickUUID&quot;:&quot;05e03b24-374e-4763-b820-b6a365fbbb4a&quot;,&quot;wickType&quot;:&quot;path&quot;}"/><path d="M724.6196,131.84756c-12.509,0.797 -24.38,4.214 -34.83,10.027c-3.549,1.974 -4.095,6.076 -1.072,8.057c1.986,1.301 2.392,1.21 9.43,-2.118c11.793,-5.577 17.38,-6.639 38.205,-7.265c15.602,-0.469 19.131,-0.338 24.898,0.929c7.312,1.607 13.629,4.596 20.187,9.552l4.209,3.18l0.216,6.282c0.119,3.455 -0.071,6.702 -0.421,7.217c-0.449,0.66 -2.464,0.714 -6.854,0.182c-4.558,-0.551 -8.939,-0.4 -16.414,0.566c-17.305,2.239 -21.437,5.032 -45.605,30.832c-20.228,21.594 -22.448,24.828 -19.246,28.03c2.017,2.017 5.18,1.613 7.311,-0.932c14.553,-17.382 38.858,-42.21 44.111,-45.059c5.33,-2.892 12.913,-4.269 24.057,-4.371c8.829,-0.081 9.091,-0.028 11.188,2.232c2.151,2.32 4.864,2.924 7.015,1.561c1.927,-1.22 3.633,-9.26 4.098,-19.301l0.441,-9.534l-4.965,-4.776c-14.488,-13.938 -30.153,-17.57 -65.959,-15.291z" data-paper-data="{&quot;wickUUID&quot;:&quot;5c913afb-0ae5-40ef-bc06-76e7aef6285c&quot;,&quot;wickType&quot;:&quot;path&quot;}"/><path d="M653.07073,10.89469c-13.359,5.751 -14.198,6.497 -21.763,19.358c-13.727,23.337 -17.796,38.046 -17.798,64.34c-0.001,7.506 0.218,8.847 1.683,10.312c2.026,2.026 3.232,2.105 5.704,0.373c1.742,-1.22 1.873,-1.963 1.893,-10.733c0.052,-22.713 2.844,-34.46 12.443,-52.351c7.22,-13.458 9.263,-16.391 13.228,-18.995c9.602,-6.305 15.792,-6.555 27.376,-1.106l8.267,3.888l6.676,8.948c8.607,11.536 15.322,21.472 15.322,22.67c0,0.519 -1.516,1.338 -3.367,1.819c-1.852,0.48 -4.971,1.291 -6.931,1.801c-4.985,1.297 -10.334,4.096 -22.782,11.922c-12.269,7.713 -13.173,8.83 -17.939,22.164c-3.246,9.084 -4.415,16.783 -2.96,19.502c1.309,2.446 4.001,3.123 6.333,1.595c1.575,-1.032 2.03,-2.281 2.443,-6.706c0.603,-6.451 5.854,-20.785 8.462,-23.098c2.312,-2.05 16.907,-11.293 22.221,-14.071c2.236,-1.169 7.255,-2.933 11.154,-3.918c5.982,-1.513 7.527,-1.634 9.898,-0.777c2.353,0.851 3.145,0.797 4.873,-0.335c1.134,-0.744 2.063,-2.15 2.063,-3.126c0,-2.981 -6.491,-14.174 -15.684,-27.046c-12.154,-17.019 -14.135,-18.929 -24.597,-23.719c-7.397,-3.386 -9.69,-4.044 -15.152,-4.347c-5.412,-0.3 -7.172,-0.039 -11.066,1.636z" data-paper-data="{&quot;wickUUID&quot;:&quot;843bdaf2-2c05-4710-8c55-33490629cca6&quot;,&quot;wickType&quot;:&quot;path&quot;}"/><path d="M689.74728,66.66525c-3.1,3.099 -0.222,7.961 5.451,9.207c1.367,0.301 2.486,1.043 2.486,1.649c0,1.039 -2.092,13.046 -2.96,16.992c-0.389,1.765 -0.671,1.803 -10.294,1.366c-15.387,-0.698 -18.062,1.153 -20.848,14.43c-1.721,8.204 -1.063,10.588 2.926,10.588c3.511,0 4.634,-1.584 5.908,-8.336c0.622,-3.297 1.646,-6.422 2.275,-6.944c1.145,-0.95 16.62,-0.518 21.346,0.596c4.34,1.023 5.67,-1.365 8.389,-15.07c3.935,-19.827 3.954,-20.16 1.244,-22.292c-1.479,-1.164 -2.968,-1.639 -4.181,-1.334c-1.035,0.26 -3.309,-0.123 -5.051,-0.851c-3.969,-1.658 -5.034,-1.659 -6.691,-0.001z" data-paper-data="{&quot;wickUUID&quot;:&quot;10389fbe-104e-41d1-90c1-af1b20da4ea3&quot;,&quot;wickType&quot;:&quot;path&quot;}"/><path d="M609.68922,92.48825c-7.14,7.697 -8.241,9.378 -7.557,11.534c0.69,2.173 3.379,3.655 5.443,2.999c0.868,-0.275 4.453,-3.666 7.965,-7.535c6.752,-7.437 7.951,-10.52 4.758,-12.229c-3.227,-1.727 -4.937,-0.884 -10.609,5.231z" data-paper-data="{&quot;wickUUID&quot;:&quot;3ff07960-c14f-4c05-b596-a43fcecfed7b&quot;,&quot;wickType&quot;:&quot;path&quot;}"/><path d="M598.56389,28.93646c-3.952,3.499 -14.545,18.909 -45.277,65.867c-27.796,42.471 -30.916,48.078 -31.386,56.391c-0.418,7.408 0.214,9.922 2.792,11.097c1.629,0.742 2.482,0.647 4.185,-0.469c1.964,-1.287 2.139,-1.9 2.141,-7.485c0.002,-5.416 0.361,-6.781 3.277,-12.444c3.337,-6.48 24.85,-39.732 49.254,-76.131c15.584,-23.243 15.093,-23.129 12.803,-2.98c-0.712,6.269 -1.546,18.497 -1.852,27.173c-0.488,13.833 -0.386,16.034 0.827,17.887c1.626,2.481 4.706,2.78 6.591,0.639c1.027,-1.166 1.415,-4.892 1.862,-17.887c0.311,-9.028 1.112,-21.28 1.78,-27.226c1.699,-15.131 1.643,-32.83 -0.109,-34.582c-1.746,-1.747 -4.822,-1.68 -6.888,0.15z" data-paper-data="{&quot;wickUUID&quot;:&quot;c9679f19-c820-4c4e-903e-e5cf16b64c90&quot;,&quot;wickType&quot;:&quot;path&quot;}"/><path d="M688.06489,266.29314c-0.914,0.915 -1.662,2.224 -1.662,2.91c0,2.233 3.168,4.572 6.193,4.572c10.372,0 35.77,10.155 79.009,31.59c22.872,11.339 34.835,18.394 48.403,28.544c6.773,5.067 6.841,5.155 6.876,8.858c0.072,7.643 5.612,14.963 11.325,14.963c4.923,0 7.453,-1.961 10.343,-8.017c2.319,-4.859 2.573,-6.069 2.106,-10.037c-1.003,-8.538 -5.722,-14.742 -11.212,-14.742c-2.757,0 -4.46,0.778 -8.773,4.009c-0.625,0.468 -4.038,-1.467 -9.711,-5.506c-13.846,-9.856 -24.522,-15.96 -47.695,-27.271c-43.556,-21.261 -69.979,-31.535 -81.1,-31.535c-1.341,0 -3.187,0.748 -4.102,1.662z" data-paper-data="{&quot;wickUUID&quot;:&quot;d39b16a4-e5d7-4bcf-b3d9-4a5c34608ed2&quot;,&quot;wickType&quot;:&quot;path&quot;}"/><path d="M688.54056,258.45575c-0.719,0.719 -1.306,1.935 -1.305,2.702c0.001,2.054 3.502,15.972 8.295,32.982c4.912,17.434 12.114,49.47 15.791,70.24c4.525,25.566 6.697,36.565 10.912,55.277c5.07,22.509 7.082,32.113 7.761,37.052l0.522,3.803l-10.126,1.553c-9.238,1.417 -11.665,1.467 -27.668,0.573c-9.648,-0.539 -19.89,-1.37 -22.761,-1.845c-18.298,-3.031 -43.235,-14.095 -60.07,-26.65c-18.131,-13.522 -25.1,-19.409 -33.973,-28.697c-9.342,-9.78 -16.695,-18.31 -16.695,-19.368c0,-0.363 0.796,-1.372 1.769,-2.243c0.974,-0.871 3.728,-4.202 6.121,-7.402c2.393,-3.2 6.553,-8.298 9.244,-11.328c8.436,-9.499 16.999,-25.504 19.956,-37.3c1.836,-7.324 2.013,-22.612 0.4,-34.496c-1.637,-12.054 -8.08,-21.633 -13.412,-19.941c-2.739,0.869 -3.83,4.104 -2.161,6.405c5.033,6.941 5.661,8.263 6.475,13.652c0.474,3.137 0.898,10.94 0.943,17.34c0.072,10.23 -0.171,12.458 -2.012,18.423c-2.638,8.546 -11.138,23.489 -17.329,30.462c-2.605,2.935 -6.549,7.725 -8.764,10.644c-2.215,2.919 -5.455,6.889 -7.2,8.822c-6.501,7.199 -4.392,11.257 17.548,33.761c9.171,9.406 16.825,15.862 33.962,28.642c16.33,12.179 43.663,24.418 61.462,27.522c24.806,4.326 67.486,2.835 71.922,-2.512c2.656,-3.202 1.523,-11.165 -6.847,-48.119c-2.33,-10.286 -5.539,-25.809 -7.13,-34.496c-6.055,-33.05 -7.338,-39.591 -11.338,-57.771c-2.264,-10.287 -6.654,-27.867 -9.757,-39.068c-3.104,-11.201 -5.912,-21.862 -6.241,-23.69c-0.328,-1.829 -1.185,-3.98 -1.903,-4.78c-1.622,-1.807 -4.662,-1.878 -6.391,-0.149z" data-paper-data="{&quot;wickUUID&quot;:&quot;9a2264c7-6ce6-4703-ac15-fe0eaa994729&quot;,&quot;wickType&quot;:&quot;path&quot;}"/><path d="M572.70527,408.48276c-2.461,1.213 -60.52,60.589 -63.439,64.879c-1.006,1.478 -1.829,2.974 -1.829,3.324c0,0.351 1.311,1.877 2.914,3.391c4.1,3.876 7.941,9.059 20.516,27.692c6.047,8.96 12.619,18.686 14.603,21.612c2.852,4.205 3.991,5.365 5.437,5.534c2.332,0.273 3.744,-0.899 3.744,-3.107c0,-2.213 -26.767,-42.267 -35.001,-52.376c-1.597,-1.961 -2.903,-3.759 -2.903,-3.997c0,-0.238 6.21,-6.751 13.8,-14.473c7.591,-7.722 20.533,-21.035 28.761,-29.584c8.228,-8.55 16.083,-16.259 17.454,-17.132c2.924,-1.862 3.335,-4.231 1.016,-5.856c-1.833,-1.284 -2.295,-1.275 -5.073,0.093z" data-paper-data="{&quot;wickUUID&quot;:&quot;eaac6fae-74e1-4c7e-b7da-d7c6994f0e2c&quot;,&quot;wickType&quot;:&quot;path&quot;}"/><path d="M690.3097,463.87898c-0.731,0.731 -1.33,1.785 -1.33,2.341c0,1.206 5.401,11.713 22.554,43.876c7.023,13.167 17.135,32.708 22.473,43.425l9.705,19.485l2.38,-0.201c1.861,-0.156 2.509,-0.569 2.972,-1.893c0.486,-1.391 -0.145,-3.289 -3.537,-10.64c-4.569,-9.902 -16.896,-33.709 -32.178,-62.146c-5.503,-10.241 -11.738,-22.061 -13.855,-26.267c-4.798,-9.536 -6.312,-10.852 -9.184,-7.98z" data-paper-data="{&quot;wickUUID&quot;:&quot;61306233-93f3-46bb-89d1-fb6bc42ff048&quot;,&quot;wickType&quot;:&quot;path&quot;}"/></g><g fill="none" fill-rule="nonzero" stroke="none" stroke-width="1" stroke-linecap="butt" stroke-linejoin="miter" stroke-miterlimit="10" stroke-dasharray="" stroke-dashoffset="0" font-family="sans-serif" font-weight="normal" font-size="12" text-anchor="start" style="mix-blend-mode: normal"/><g id="wick_project_gui" fill="none" fill-rule="nonzero" stroke="none" stroke-width="1" stroke-linecap="butt" stroke-linejoin="miter" stroke-miterlimit="10" stroke-dasharray="" stroke-dashoffset="0" font-family="sans-serif" font-weight="normal" font-size="12" text-anchor="start" style="mix-blend-mode: normal"/></g></svg>