<svg version="1.1" xmlns="http://www.w3.org/2000/svg" xmlns:xlink="http://www.w3.org/1999/xlink" width="1260" height="594" viewBox="0,0,1260,594"><g transform="translate(259.74321,92.84357) scale(0.66226,0.66226)"><g id="wick_project_bg" fill-opacity="0" fill="#ffffff" fill-rule="nonzero" stroke="none" stroke-width="1" stroke-linecap="butt" stroke-linejoin="miter" stroke-miterlimit="10" stroke-dasharray="" stroke-dashoffset="0" font-family="none" font-weight="none" font-size="none" text-anchor="none" style="mix-blend-mode: normal"><rect x="0" y="0" width="720" height="480"/></g><g data-paper-data="{&quot;wickUUID&quot;:&quot;780636ef-ba81-42b2-a0af-fdfd030fe5b7&quot;,&quot;wickType&quot;:&quot;clipsandpaths&quot;}" fill="#800040" fill-rule="evenodd" stroke="none" stroke-width="1" stroke-linecap="butt" stroke-linejoin="miter" stroke-miterlimit="10" stroke-dasharray="" stroke-dashoffset="0" font-family="none" font-weight="none" font-size="none" text-anchor="none" style="mix-blend-mode: normal"><path d="M616.60693,138.82797c-14.511,2.279 -31.098,8.219 -46.965,16.819c-12.097,6.557 -22.179,15.631 -26.214,23.593c-7.566,14.93 -12.168,56.091 -9.195,82.234c2.495,21.934 5.114,32.439 11.295,45.302c8.152,16.963 14.715,24.055 26.404,28.532c10.697,4.097 14.215,4.513 29.455,3.481c23.232,-1.572 38.127,-4.677 70.191,-14.633c6.76,-2.099 14.446,-4.904 17.081,-6.234c2.635,-1.33 5.524,-2.418 6.421,-2.418c2.764,0 9.481,-7.475 13.72,-15.269c2.205,-4.054 5.787,-9.334 7.959,-11.733c3.145,-3.473 4.816,-6.562 8.209,-15.178c6.692,-16.992 7.58,-29.912 3.014,-43.853c-4.864,-14.852 -15.62,-38.14 -22.651,-49.043c-7.802,-12.098 -20.537,-24.412 -30.761,-29.744c-5.494,-2.865 -18.006,-7.219 -25.698,-8.943c-3.555,-0.797 -25.251,-4.233 -25.506,-4.04c-0.06,0.045 -3.102,0.552 -6.759,1.127zM639.09593,148.84397c9.886,1.686 23.48,5.704 29.385,8.685c10.012,5.054 21.969,16.42 29.408,27.953c6.407,9.935 14.09,26.277 19.898,42.326c5.642,15.592 5.315,25.795 -1.371,42.749c-2.761,7 -4.573,10.275 -7.309,13.205c-2,2.142 -5.264,6.888 -7.253,10.545c-4.822,8.869 -5.929,9.97 -14.176,14.099c-7.77,3.889 -16.186,6.8 -35.888,12.412c-24.312,6.926 -37.304,9.019 -56.795,9.149c-12.221,0.082 -12.601,0.03 -19.149,-2.61c-10.73,-4.326 -16.605,-11.442 -24.591,-29.783c-7.234,-16.617 -10.472,-47.624 -7.849,-75.169c2.17,-22.783 5.618,-36.608 10.834,-43.438c9.059,-11.865 37.974,-26.646 60.704,-31.032c6.444,-1.243 12.979,-0.997 24.152,0.909z" data-paper-data="{&quot;wickUUID&quot;:&quot;ca0ea567-3e50-406d-b7a7-064e92202713&quot;,&quot;wickType&quot;:&quot;path&quot;,&quot;originalStyle&quot;:{&quot;strokeColor&quot;:null,&quot;fillColor&quot;:[&quot;Color&quot;,0.50196,0,0.25098],&quot;strokeWidth&quot;:1}}"/><path d="M552.18541,279.76025c-2.363,2.364 -2.076,3.969 1.26,7.024c4.204,3.852 18.74,12.268 27.161,15.728c9.878,4.058 22.103,5.484 33.721,3.933c4.454,-0.595 12.587,-1.376 18.073,-1.737c9.146,-0.6 10.117,-0.524 11.691,0.914c2.224,2.034 4.506,1.982 8.685,-0.196c4.158,-2.167 7.393,-6.259 8.025,-10.149c0.594,-3.661 -1.702,-6.235 -7.553,-8.47c-3.615,-1.38 -4.237,-1.41 -6.199,-0.3c-1.759,0.996 -2.18,1.849 -2.18,4.42c0,4.04 -0.529,4.235 -13.3,4.906c-5.486,0.288 -12.219,0.946 -14.963,1.462c-6.653,1.253 -22.912,0.514 -28.262,-1.283c-6.336,-2.129 -17.967,-8.213 -25.473,-13.324c-3.707,-2.525 -7.253,-4.59 -7.881,-4.59c-0.628,0 -1.89,0.748 -2.805,1.662z" data-paper-data="{&quot;wickUUID&quot;:&quot;ae9efa47-b766-47f7-b48d-3f6bae3112c4&quot;,&quot;wickType&quot;:&quot;path&quot;,&quot;originalStyle&quot;:{&quot;strokeColor&quot;:null,&quot;fillColor&quot;:[&quot;Color&quot;,0.50196,0,0.25098],&quot;strokeWidth&quot;:1}}"/><path d="M560.49779,209.93623c-0.914,0.915 -1.662,2.17 -1.662,2.79c0,0.62 4.021,6.466 8.936,12.99c4.915,6.525 9.778,13.118 10.808,14.651c2.399,3.571 4.947,4.167 10.841,2.536c8.343,-2.309 35.996,-7.069 46.305,-7.971c18.215,-1.593 36.938,-0.452 46.057,2.807c3.299,1.179 3.858,1.183 5.611,0.034c1.91,-1.251 2.532,-4.054 1.31,-5.901c-1.271,-1.921 -6.137,-3.661 -13.632,-4.876c-21.688,-3.514 -40.185,-2.386 -76.198,4.646c-10.473,2.045 -12.974,2.299 -14.027,1.426c-0.704,-0.585 -4.986,-6.021 -9.515,-12.081c-9.874,-13.214 -11.476,-14.408 -14.834,-11.051z" data-paper-data="{&quot;wickUUID&quot;:&quot;24facdbc-f035-43e1-912a-e4b0fdce6c03&quot;,&quot;wickType&quot;:&quot;path&quot;,&quot;originalStyle&quot;:{&quot;strokeColor&quot;:null,&quot;fillColor&quot;:[&quot;Color&quot;,0.50196,0,0.25098],&quot;strokeWidth&quot;:1}}"/><path d="M606.21604,232.79566c-0.569,0.686 -1.654,1.247 -2.41,1.247c-4.031,0 -7.883,7.588 -8.952,17.634c-0.898,8.435 3.89,11.692 10.159,6.911c3.081,-2.351 7.022,-9.65 7.022,-13.008c0,-1.246 0.437,-4.16 0.971,-6.474c0.863,-3.738 0.802,-4.394 -0.544,-5.882c-1.79,-1.977 -4.789,-2.183 -6.246,-0.428z" data-paper-data="{&quot;wickUUID&quot;:&quot;5095053f-d1cc-4d67-b683-8432eee963c6&quot;,&quot;wickType&quot;:&quot;path&quot;,&quot;originalStyle&quot;:{&quot;strokeColor&quot;:null,&quot;fillColor&quot;:[&quot;Color&quot;,0.50196,0,0.25098],&quot;strokeWidth&quot;:1}}"/><path d="M573.95742,228.79095c-1.401,0.561 -5.039,8.778 -5.602,12.652c-0.478,3.296 -0.105,4.081 2.926,6.155c3.217,2.202 5.55,1.71 9.601,-2.024c3.003,-2.768 3.722,-3.975 3.722,-6.252c0,-2.203 -0.456,-3.029 -2.078,-3.768c-1.334,-0.608 -2.078,-1.627 -2.078,-2.844c0,-2.901 -3.602,-5.076 -6.491,-3.919z" data-paper-data="{&quot;wickUUID&quot;:&quot;02ac76f1-2027-4640-a9d7-5da0a638539b&quot;,&quot;wickType&quot;:&quot;path&quot;,&quot;originalStyle&quot;:{&quot;strokeColor&quot;:null,&quot;fillColor&quot;:[&quot;Color&quot;,0.50196,0,0.25098],&quot;strokeWidth&quot;:1}}"/><path d="M518.31769,286.50839c-5.327,1.538 -6.587,7.21 -2.701,12.15c0.925,1.176 4.516,10.965 7.98,21.753c6.225,19.383 12.055,35.108 15.785,42.576c1.691,3.385 1.847,4.524 1.31,9.559c-1.243,11.674 1.643,18.029 11.205,24.673c4.715,3.276 6.823,4.215 10.191,4.538c5.547,0.533 13.647,-1.087 18.463,-3.693c4.844,-2.622 11.181,-8.819 13.448,-13.152c2.334,-4.46 2.464,-14.749 0.266,-21.089c-2.815,-8.118 -11.469,-14.354 -19.982,-14.401c-6.902,-0.037 -22.366,4.547 -24.66,7.311c-0.531,0.64 -1.396,1.164 -1.922,1.164c-1.393,0 -8.823,-19.363 -15.153,-39.484c-3.02,-9.601 -6.009,-18.466 -6.642,-19.701c-2.028,-3.955 -1.736,-4.115 7.106,-3.897c8.861,0.219 10.873,-0.472 10.849,-3.727c-0.019,-2.643 -1.043,-3.789 -4.196,-4.693c-3.533,-1.013 -17.708,-0.938 -21.347,0.113zM580.90269,360.52639c4.646,3.17 7.232,12.044 5.445,18.682c-1.627,6.041 -11.615,13.538 -18.097,13.582c-5.204,0.037 -9.46,-5.672 -14.045,-18.841c-2.36,-6.777 -2.363,-6.814 -0.742,-8.605c2.262,-2.5 5.352,-3.966 12.291,-5.833c7.083,-1.906 11.28,-1.625 15.148,1.015z" data-paper-data="{&quot;wickUUID&quot;:&quot;6d581934-11e0-4422-9bb8-c99cf220ae77&quot;,&quot;wickType&quot;:&quot;path&quot;,&quot;originalStyle&quot;:{&quot;strokeColor&quot;:null,&quot;fillColor&quot;:[&quot;Color&quot;,0.50196,0,0.25098],&quot;strokeWidth&quot;:1}}"/><path d="M560.64112,358.49263c-3.085,0.587 -8.136,6.403 -9.187,10.577c-2.012,7.987 -0.751,10.993 8.878,21.162c5.753,6.076 6.866,6.901 8.583,6.36c1.086,-0.342 4.289,-0.704 7.118,-0.804c4.041,-0.144 5.994,-0.708 9.103,-2.63c5.564,-3.44 7.218,-6.635 7.223,-13.956c0.012,-15.598 -6.23,-21.45 -22.605,-21.191c-3.948,0.062 -8.049,0.279 -9.113,0.482z" data-paper-data="{&quot;wickUUID&quot;:&quot;2394ac77-f3bb-4c3c-8d05-bbe559e1982b&quot;,&quot;wickType&quot;:&quot;path&quot;,&quot;originalStyle&quot;:{&quot;strokeColor&quot;:null,&quot;fillColor&quot;:[&quot;Color&quot;,0.50196,0,0.25098],&quot;strokeWidth&quot;:1}}"/><path d="M701.80913,292.22882c-0.915,0.915 -1.663,2.099 -1.663,2.632c0,0.533 11.083,22.883 24.628,49.666c22.204,43.906 42.702,87.84 42.702,91.525c0,2.578 -27.122,20.969 -43.737,29.658c-9.462,4.949 -17.523,7.356 -46.808,13.978c-15.848,3.584 -20.456,4.36 -20.989,3.536c-1.852,-2.864 -28.742,-71.866 -37.825,-97.065c-11.585,-32.138 -13.002,-35.595 -18.854,-46.007c-4.367,-7.772 -6.594,-9.67 -9.51,-8.109c-2.374,1.27 -2.991,3.834 -1.574,6.534c0.659,1.254 3.096,5.834 5.416,10.178c2.542,4.758 7.894,18.145 13.461,33.665c11.361,31.678 11.201,31.257 28.004,73.563c8.001,20.144 14.401,35.102 15.38,35.951c0.923,0.801 2.666,1.455 3.872,1.455c1.207,0.001 10.61,-1.905 20.897,-4.235c41.089,-9.305 45.467,-10.81 64.333,-22.117c18.732,-11.227 38.159,-25.369 39.153,-28.5c0.333,-1.048 -0.095,-2.725 -1.119,-4.386c-0.911,-1.479 -6.192,-13.147 -11.736,-25.928c-5.543,-12.782 -15.627,-33.916 -22.408,-46.965c-6.782,-13.049 -17.261,-33.639 -23.288,-45.754c-12.654,-25.438 -14.204,-27.406 -18.335,-23.275z" data-paper-data="{&quot;wickUUID&quot;:&quot;9f930b00-4cc0-4765-8f75-d33e98158dd0&quot;,&quot;wickType&quot;:&quot;path&quot;,&quot;originalStyle&quot;:{&quot;strokeColor&quot;:null,&quot;fillColor&quot;:[&quot;Color&quot;,0.50196,0,0.25098],&quot;strokeWidth&quot;:1}}"/><path d="M725.70731,258.99853c-0.927,0.57 -1.455,1.925 -1.455,3.734c0,3.463 1.691,4.56 7.034,4.56c2.616,0 5.449,0.816 8.991,2.592c2.844,1.426 5.296,2.704 5.449,2.84c0.152,0.136 -1.157,1.687 -2.91,3.446c-4.472,4.489 -9.531,16.396 -10.062,23.68c-0.332,4.565 -0.08,6.212 1.431,9.334c2.695,5.566 10.58,11.292 15.586,11.319c1.28,0.007 3.824,0.552 5.652,1.211c7.61,2.741 22.669,0.444 29.957,-4.57c9.756,-6.712 7.739,-21.303 -4.771,-34.517c-6.121,-6.465 -11.694,-9.965 -17.295,-10.861c-2.085,-0.333 -5.106,-1.687 -7.038,-3.153c-1.862,-1.412 -6.92,-4.239 -11.24,-6.281c-8.253,-3.902 -16.182,-5.269 -19.329,-3.334z" data-paper-data="{&quot;wickUUID&quot;:&quot;95e87b53-ad55-4906-970d-e120e526a6c3&quot;,&quot;wickType&quot;:&quot;path&quot;,&quot;originalStyle&quot;:{&quot;strokeColor&quot;:null,&quot;fillColor&quot;:[&quot;Color&quot;,0.50196,0,0.25098],&quot;strokeWidth&quot;:1}}"/><path d="M769.21098,440.11753c-4.027,4.028 -2.176,5.6 14.707,12.491c7.9,3.224 15.194,6.369 16.209,6.99c7.577,4.627 20.258,12.579 20.822,13.056c0.379,0.321 -0.23,2.405 -1.353,4.632c-5.58,11.065 -15.533,39.342 -15.543,44.157c-0.001,0.701 1.432,1.039 4.403,1.039h4.406l2.267,-8.105c1.973,-7.051 8.592,-24.191 14.785,-38.285c1.768,-4.025 1.831,-4.601 0.714,-6.575c-0.716,-1.266 -6.688,-5.589 -14.401,-10.424c-10.095,-6.329 -16.436,-9.593 -27.118,-13.956c-17.521,-7.157 -17.712,-7.205 -19.898,-5.02z" data-paper-data="{&quot;wickUUID&quot;:&quot;1da2f2ce-3ff9-44cb-acbc-548628ba9c5b&quot;,&quot;wickType&quot;:&quot;path&quot;,&quot;originalStyle&quot;:{&quot;strokeColor&quot;:null,&quot;fillColor&quot;:[&quot;Color&quot;,0.50196,0,0.25098],&quot;strokeWidth&quot;:1}}"/><path d="M652.87909,489.0253c-1.567,1.315 -4.957,8.332 -13.069,27.054l-2.808,6.482l4.993,-0.248l4.993,-0.247l5.003,-11.221c2.751,-6.172 5.734,-12.743 6.629,-14.602c2.093,-4.348 2.05,-5.789 -0.221,-7.379c-2.368,-1.659 -3.387,-1.629 -5.52,0.161z" data-paper-data="{&quot;wickUUID&quot;:&quot;8aa1ebdc-d659-47fd-93b2-2538caeb7f0b&quot;,&quot;wickType&quot;:&quot;path&quot;,&quot;originalStyle&quot;:{&quot;strokeColor&quot;:null,&quot;fillColor&quot;:[&quot;Color&quot;,0.50196,0,0.25098],&quot;strokeWidth&quot;:1}}"/><path d="M771.92224,165.85059c-23.139,3.606 -36.776,10.509 -54.934,27.81c-6.355,6.056 -7.276,8.246 -4.516,10.744c2.448,2.215 4.137,1.645 9.14,-3.081c17.869,-16.879 30.993,-23.689 51.47,-26.707c15.159,-2.234 25.579,-1.249 44.27,4.183c18,5.231 25.685,8.876 34.023,16.141l2.853,2.486l-0.96,9.788c-0.528,5.383 -1.206,12.5 -1.506,15.814c-0.3,3.315 -0.83,6.027 -1.178,6.027c-0.349,0 -2.264,-0.74 -4.257,-1.645c-2.301,-1.044 -5.452,-1.651 -8.632,-1.662c-7.302,-0.027 -31.674,4.408 -61.465,11.184c-40.267,9.158 -44.005,10.56 -51.908,19.475c-5.296,5.973 -5.764,7.107 -3.954,9.583c2.192,2.997 5.328,1.889 11.24,-3.973c6.529,-6.475 8.138,-7.13 30.772,-12.53c29.438,-7.022 54.147,-12.11 73.031,-15.04c4.315,-0.669 10.762,2.008 15.805,6.565c1.83,1.653 4.065,3.005 4.967,3.005c2.54,0 4.674,-2.873 4.145,-5.582c-0.463,-2.369 1.193,-24.485 2.723,-36.36c0.468,-3.638 0.651,-7.248 0.405,-8.023c-0.475,-1.496 -9.842,-9.317 -15.244,-12.727c-4.931,-3.113 -12.618,-6.138 -25.85,-10.171c-20.557,-6.267 -34.708,-7.755 -50.44,-5.304z" data-paper-data="{&quot;wickUUID&quot;:&quot;d3138aa2-2764-4ba2-8ee3-9a603208054e&quot;,&quot;wickType&quot;:&quot;path&quot;,&quot;originalStyle&quot;:{&quot;strokeColor&quot;:null,&quot;fillColor&quot;:[&quot;Color&quot;,0.50196,0,0.25098],&quot;strokeWidth&quot;:1}}"/><path d="M730.58411,59.52033c-5.616,1.415 -12.679,5.764 -23.59,14.525c-14.057,11.286 -20.261,17.58 -26.207,26.584c-9.237,13.989 -14.593,27.468 -18.106,45.571c-1.286,6.623 -0.658,8.329 3.209,8.716c3.419,0.342 4.846,-1.923 6.431,-10.205c1.904,-9.955 3.578,-15.091 7.964,-24.438c5.225,-11.134 11.758,-20.84 18.347,-27.255c7.936,-7.727 23.657,-19.956 29.241,-22.746c8.501,-4.248 19.064,-3.196 30.521,3.039c9.142,4.976 25.055,24.846 28.212,35.226c2.609,8.582 2.538,8.679 -3.959,5.411c-7.682,-3.865 -15.189,-5.686 -20.505,-4.976c-2.324,0.31 -7.591,1.984 -11.706,3.72c-4.115,1.735 -9.161,3.604 -11.214,4.152c-2.053,0.548 -4.775,1.739 -6.049,2.646c-3.56,2.535 -15.157,20.694 -18.116,28.366c-3.439,8.918 -6.454,22.41 -7.094,31.74c-0.532,7.77 0.745,22.713 2.169,25.374c1.226,2.29 3.916,2.814 6.329,1.233c2.06,-1.349 2.089,-1.509 1.414,-7.758c-2.488,-23.052 1.789,-43.611 12.569,-60.429c6.264,-9.772 8.195,-11.717 13.269,-13.361c2.326,-0.755 7.409,-2.673 11.295,-4.263c5.774,-2.363 7.825,-2.821 11.222,-2.506c7.108,0.66 13.583,3.698 18.627,8.743c6.769,6.769 9.825,6.129 11.664,-2.443c1.718,-8.012 0.366,-16.932 -3.788,-25.004c-5.356,-10.405 -18.591,-26.249 -26.135,-31.287c-7.815,-5.218 -16.917,-8.362 -25.509,-8.809c-4.003,-0.209 -8.73,-0.013 -10.505,0.434z" data-paper-data="{&quot;wickUUID&quot;:&quot;ad27878b-7d1a-47c9-b083-d636ddb08752&quot;,&quot;wickType&quot;:&quot;path&quot;,&quot;originalStyle&quot;:{&quot;strokeColor&quot;:null,&quot;fillColor&quot;:[&quot;Color&quot;,0.50196,0,0.25098],&quot;strokeWidth&quot;:1}}"/><path d="M619.93222,60.04933c-0.915,0.206 -8.209,2.195 -16.21,4.42c-8,2.226 -16.604,4.453 -19.118,4.95c-6.63,1.31 -12.91,5.184 -15.807,9.753c-1.331,2.097 -3.044,6.627 -3.811,10.075c-1.218,5.477 -1.267,7.444 -0.39,15.658c1.72,16.092 8.724,43.568 12.111,47.506c1.405,1.633 2.269,1.965 3.99,1.533c3.63,-0.911 4.261,-3.23 2.303,-8.463c-4.925,-13.164 -9.381,-35.32 -9.521,-47.346c-0.082,-7.066 0.184,-8.882 1.774,-12.108c2.076,-4.214 5.978,-6.904 11.429,-7.879c1.829,-0.328 9.004,-2.229 15.945,-4.226c21.287,-6.125 22.956,-6.415 28.189,-4.894c2.471,0.719 4.493,1.625 4.493,2.014c0,0.389 -1.135,1.178 -2.523,1.753c-5.65,2.34 -16.676,17.108 -20.584,27.568c-2.069,5.54 -3.492,15.799 -3.492,25.17v6.662l5.848,5.621c6.188,5.947 8.09,6.646 10.777,3.959c2.578,-2.579 2.048,-4.049 -3.325,-9.209c-2.743,-2.635 -4.987,-5.1 -4.987,-5.48c0.005,-5.097 2.071,-19.766 3.26,-23.15c1.761,-5.011 8.104,-15.26 11.994,-19.38c3.518,-3.727 5.667,-4.742 13.421,-6.344c3.622,-0.748 7.068,-1.761 7.658,-2.25c1.654,-1.373 1.272,-4.371 -0.798,-6.255c-1.868,-1.7 -12.247,-6.627 -18.917,-8.98c-3.329,-1.175 -10.03,-1.506 -13.709,-0.678z" data-paper-data="{&quot;wickUUID&quot;:&quot;ebcc8aab-6d67-4082-b339-30c1cea3da7e&quot;,&quot;wickType&quot;:&quot;path&quot;,&quot;originalStyle&quot;:{&quot;strokeColor&quot;:null,&quot;fillColor&quot;:[&quot;Color&quot;,0.50196,0,0.25098],&quot;strokeWidth&quot;:1}}"/><path d="M551.98021,136.16401c-1.816,1.394 -7.473,11.37 -20.476,36.113c-16.032,30.506 -19.191,39.592 -19.384,55.747c-0.129,10.828 0.883,15.02 5.315,22.015c2.326,3.67 10.257,10.733 14.625,13.023c2.327,1.22 4.869,0.515 6.042,-1.676c1.383,-2.585 0.355,-4.171 -5.82,-8.98c-4.278,-3.331 -6.483,-5.807 -8.515,-9.559c-2.689,-4.967 -2.738,-5.25 -2.606,-14.802c0.146,-10.562 1.046,-14.69 5.751,-26.368c3.054,-7.582 22.015,-44.079 22.909,-44.097c0.299,-0.006 0.302,1.578 0.005,3.521c-0.296,1.943 -0.541,5.386 -0.544,7.651c-0.005,3.603 0.273,4.275 2.223,5.375c3.378,1.906 5.193,-0.197 6.381,-7.389c1.296,-7.848 1.263,-29.305 -0.048,-30.615c-1.295,-1.295 -4.142,-1.275 -5.858,0.041z" data-paper-data="{&quot;wickUUID&quot;:&quot;401c72f9-1ee5-42ab-af45-8b6986fd2d00&quot;,&quot;wickType&quot;:&quot;path&quot;,&quot;originalStyle&quot;:{&quot;strokeColor&quot;:null,&quot;fillColor&quot;:[&quot;Color&quot;,0.50196,0,0.25098],&quot;strokeWidth&quot;:1}}"/></g><g fill="none" fill-rule="nonzero" stroke="none" stroke-width="1" stroke-linecap="butt" stroke-linejoin="miter" stroke-miterlimit="10" stroke-dasharray="" stroke-dashoffset="0" font-family="sans-serif" font-weight="normal" font-size="12" text-anchor="start" style="mix-blend-mode: normal"/><g id="wick_project_gui" fill="none" fill-rule="nonzero" stroke="none" stroke-width="1" stroke-linecap="butt" stroke-linejoin="miter" stroke-miterlimit="10" stroke-dasharray="" stroke-dashoffset="0" font-family="sans-serif" font-weight="normal" font-size="12" text-anchor="start" style="mix-blend-mode: normal"/></g></svg>