<svg version="1.1" xmlns="http://www.w3.org/2000/svg" xmlns:xlink="http://www.w3.org/1999/xlink" width="1260" height="594" viewBox="0,0,1260,594"><g transform="translate(259.74321,92.84357) scale(0.66226,0.66226)"><g id="wick_project_bg" fill-opacity="0" fill="#ffffff" fill-rule="nonzero" stroke="none" stroke-width="1" stroke-linecap="butt" stroke-linejoin="miter" stroke-miterlimit="10" stroke-dasharray="" stroke-dashoffset="0" font-family="none" font-weight="none" font-size="none" text-anchor="none" style="mix-blend-mode: normal"><rect x="0" y="0" width="720" height="480"/></g><g data-paper-data="{&quot;wickUUID&quot;:&quot;7988b74b-43d4-4c4b-b530-5aeed285f7fb&quot;,&quot;wickType&quot;:&quot;clipsandpaths&quot;}" fill="#800040" fill-rule="evenodd" stroke="none" stroke-width="1" stroke-linecap="butt" stroke-linejoin="miter" stroke-miterlimit="10" stroke-dasharray="" stroke-dashoffset="0" font-family="none" font-weight="none" font-size="none" text-anchor="none" style="mix-blend-mode: normal"><path d="M457.10369,40.19257c-6.053,0.63033 -12.78879,3.08093 -14.41712,5.21626c-1.286,1.68567 -2.65599,4.99452 -3.48966,8.96352c-0.40133,1.90967 -0.64069,3.46387 -0.79702,3.87554c-0.679,1.78567 -11.62455,10.37482 -18.03388,14.15449c-4.29167,2.531 -5.42468,4.26673 -5.02668,6.1664c0.32533,1.55267 7.73281,20.16879 9.06081,22.75912c1.71633,3.34733 2.29139,4.05791 5.17572,6.12324c1.46633,1.05 4.17122,3.19925 5.91289,4.69192c6.68767,5.732 10.63556,8.62098 12.66456,9.29065c1.108,0.36567 1.67749,0.43049 2.96816,-1.03551c2.396,-2.72233 4.31523,-2.72252 6.78256,0.01181l1.2282,1.3426l3.37848,-0.79696c4.362,-1.106 8.3032,-2.82022 11.18853,-4.71455c4.73333,-3.10733 7.29795,-7.2748 12.93495,-21.10913c5.01567,-12.30967 8.2565,-21.6551 9.06117,-25.94977c0.878,-4.686 -0.08878,-5.96004 -8.10078,-7.75504c-5.57933,-1.25 -7.91961,-2.27029 -8.67561,-3.78696c-0.219,-0.439 -1.84133,-2.42463 -3.82466,-4.6113c-5.15533,-5.684 -8.23548,-9.38884 -8.75615,-10.61084c-0.82367,-1.933 -4.1918,-2.75049 -9.23447,-2.22549z" data-paper-data="{&quot;wickUUID&quot;:&quot;ea46c287-ccfd-4bf8-884a-46939195fb2d&quot;,&quot;wickType&quot;:&quot;path&quot;,&quot;originalStyle&quot;:{&quot;strokeColor&quot;:null,&quot;fillColor&quot;:[&quot;Color&quot;,0.50196,0,0.25098],&quot;strokeWidth&quot;:1}}"/><path d="M452.4377,32.52246c-13.958,3.022 -18.16,6.576 -20.736,17.54c-0.871,3.707 -1.657,4.827 -5.723,8.16c-2.592,2.126 -7.699,5.803 -11.348,8.173c-3.87,2.514 -7.276,5.429 -8.173,6.997l-1.539,2.689l4.729,11.858c9.803,24.581 14.404,32.332 18.435,31.057c0.996,-0.315 3.3,0.924 6.899,3.71c11.001,8.515 12.766,9 25.728,7.062c6.32,-0.945 9.801,-1.964 13.607,-3.983c9.527,-5.054 13.439,-10.607 21.668,-30.752c7.987,-19.553 10.263,-29.741 7.754,-34.702c-1.429,-2.823 -6.53,-5.513 -12.641,-6.666c-4.602,-0.868 -5.456,-1.37 -8.658,-5.087c-2.826,-3.282 -3.354,-4.362 -2.586,-5.288c0.531,-0.64 0.845,-2.215 0.698,-3.5c-0.342,-2.978 -5.67,-5.679 -14.559,-7.38c-7.247,-1.386 -6.61,-1.392 -13.555,0.112zM463.8397,40.88046c1.013,0.272 2.087,1.265 2.386,2.207c0.299,0.942 2.869,4.189 5.711,7.215c2.843,3.026 5.826,6.507 6.63,7.734c1.2,1.831 2.648,2.486 8.081,3.653c9.411,2.022 9.625,2.248 8.304,8.722c-1.214,5.954 -10.769,30.517 -14.351,36.894c-1.292,2.3 -3.107,4.996 -4.034,5.991c-4.518,4.849 -14.707,8.423 -24.231,8.498c-4.007,0.032 -7.038,-1.877 -18.186,-11.456c-2.057,-1.767 -4.596,-3.667 -5.641,-4.221c-2.06,-1.092 -4.136,-5.297 -9.84,-19.926c-4.189,-10.743 -4.501,-9.539 3.712,-14.345c4.143,-2.424 14.785,-10.846 16.093,-12.735c0.32,-0.463 0.832,-2.346 1.138,-4.184c0.937,-5.632 2.899,-9.558 5.431,-10.868c5.421,-2.803 14.482,-4.335 18.797,-3.179z" data-paper-data="{&quot;wickUUID&quot;:&quot;1b166b6a-73e4-4674-bb5b-be089b13df87&quot;,&quot;wickType&quot;:&quot;path&quot;,&quot;originalStyle&quot;:{&quot;strokeColor&quot;:null,&quot;fillColor&quot;:[&quot;Color&quot;,0.50196,0,0.25098],&quot;strokeWidth&quot;:1}}" id="1b166b6a-73e4-4674-bb5b-be089b13df87"/><path d="M451.52947,119.40843c-1.182,1.182 -1.572,2.314 -1.218,3.533c1.411,4.853 2.068,13.062 2.935,36.705c0.973,26.511 3.535,57.329 5.091,61.217c0.483,1.209 2.41,3.429 4.282,4.933c1.871,1.504 9.042,8.184 15.936,14.845c22.718,21.95 38.201,34.963 41.6,34.963c2.798,0 5.068,-3.389 3.826,-5.71c-0.49,-0.917 -3.79,-4.01 -7.332,-6.875c-9.113,-7.37 -20.927,-18.084 -36.607,-33.201l-13.542,-13.054l-1.56,-15.259c-0.858,-8.393 -1.974,-26.668 -2.479,-40.612c-1.121,-30.903 -1.995,-38.595 -4.69,-41.29c-2.391,-2.392 -3.995,-2.442 -6.242,-0.195z" data-paper-data="{&quot;wickUUID&quot;:&quot;06fdc3b6-f0cc-458e-b0d6-66778af814eb&quot;,&quot;wickType&quot;:&quot;path&quot;,&quot;originalStyle&quot;:{&quot;strokeColor&quot;:null,&quot;fillColor&quot;:[&quot;Color&quot;,0.50196,0,0.25098],&quot;strokeWidth&quot;:1}}" id="06fdc3b6-f0cc-458e-b0d6-66778af814eb"/><path d="M562.16068,132.6623c-5.646,1.347 -17.938,5.985 -23.334,8.804c-6.556,3.423 -18.404,14.929 -24.077,23.38c-6.924,10.315 -15.917,33.837 -17.518,45.82c-1.557,11.653 -0.512,34.468 2.027,44.264c3.858,14.884 6.755,18.567 19.24,24.464c15.433,7.289 31.442,11.782 47.274,13.265c7.323,0.687 10.519,-0.572 10.519,-4.143c0,-2.79 -2.959,-4.599 -7.521,-4.599c-5.025,0 -20.652,-2.838 -27.824,-5.054c-10.617,-3.279 -23.11,-9.076 -26.399,-12.25c-3.64,-3.512 -6.543,-11.509 -8.012,-22.067c-1.241,-8.926 -1.077,-28.717 0.303,-36.455c1.323,-7.421 9.943,-29.419 14.423,-36.807c4.447,-7.335 15.822,-18.785 21.859,-22.003c4.915,-2.619 20.541,-8.337 22.784,-8.337c1.765,0 3.737,-2.419 3.737,-4.584c0,-1.695 -2.802,-4.73 -4.133,-4.477c-0.241,0.046 -1.748,0.397 -3.348,0.779z" data-paper-data="{&quot;wickUUID&quot;:&quot;1762850a-ae7f-47ce-8f88-82008e866897&quot;,&quot;wickType&quot;:&quot;path&quot;,&quot;originalStyle&quot;:{&quot;strokeColor&quot;:null,&quot;fillColor&quot;:[&quot;Color&quot;,0.50196,0,0.25098],&quot;strokeWidth&quot;:1}}" id="1762850a-ae7f-47ce-8f88-82008e866897"/><path d="M677.28703,71.51919c-30.855,8.179 -71.57,25.351 -91.043,38.398c-9.636,6.456 -11.955,8.457 -16.209,13.983c-2.731,3.548 -6.181,7.85 -7.666,9.562c-2.553,2.94 -2.702,3.47 -2.702,9.617c0,7.649 4.544,36.157 6.306,39.565c0.984,1.903 1.774,2.355 4.117,2.355c2.561,0 3.846,-0.947 10.993,-8.108c12.183,-12.206 34.269,-27.481 59.214,-40.954c14.203,-7.671 48.265,-24.506 53.199,-26.294c4.583,-1.661 6.65,-3.856 6.65,-7.061c0,-3.262 -10.492,-30.77 -12.238,-32.086c-1.762,-1.327 -1.749,-1.328 -10.621,1.023zM686.31203,89.36219c2.122,5.462 3.847,10.418 3.831,11.014c-0.015,0.596 -5.205,3.452 -11.532,6.347c-16.632,7.608 -52.03,26.264 -63.859,33.656c-12.603,7.876 -27.745,18.743 -35.967,25.812l-6.234,5.36l-1.833,-10.939c-2.818,-16.82 -2.682,-18.516 2.041,-25.374c6.15,-8.931 8.433,-11.102 19.391,-18.444c11.241,-7.53 28.537,-15.953 48.563,-23.649c13.708,-5.267 37.959,-13.364 40.819,-13.628c0.506,-0.047 2.657,4.384 4.78,9.845z" data-paper-data="{&quot;wickUUID&quot;:&quot;a29db78f-9a46-4567-9264-391daa745962&quot;,&quot;wickType&quot;:&quot;path&quot;,&quot;originalStyle&quot;:{&quot;strokeColor&quot;:null,&quot;fillColor&quot;:[&quot;Color&quot;,0.50196,0,0.25098],&quot;strokeWidth&quot;:1}}" id="a29db78f-9a46-4567-9264-391daa745962"/><path d="M560.81003,217.04406c-2.067,3.155 -1.299,14 3.933,55.546c0.913,7.256 1.419,14.295 1.124,15.641c-0.91,4.142 4.044,7.553 6.867,4.73c0.687,-0.687 2.2,0.034 5.777,2.755c2.666,2.028 7.764,5.686 11.329,8.129c6.696,4.587 27.506,25.314 34.174,34.036c3.06,4.002 19.477,29.896 24.23,38.216c0.887,1.553 2.6,3.559 3.807,4.459c1.893,1.411 2.59,1.506 5.063,0.69c4.655,-1.537 19.285,-17.191 39.689,-42.467c6.09,-7.544 13.074,-15.839 15.52,-18.434c6.875,-7.292 6.37,-9.446 -6.01,-25.646c-15.926,-20.839 -34.128,-41 -44.655,-49.461c-8.319,-6.687 -19.428,-13.083 -32.3,-18.597c-18.929,-8.109 -35.937,-11.717 -55.233,-11.717c-11.866,0 -11.933,0.011 -13.315,2.12zM595.05703,225.70706c12.16,2.196 20.405,4.757 32.356,10.05c17.422,7.716 25.259,12.913 37.286,24.722c12.894,12.661 42.097,47.963 42.097,50.89c0,1.89 -34.831,43.849 -45.093,54.321l-5.61,5.725l-5.26,-8.629c-17.748,-29.112 -20.148,-32.299 -38.153,-50.647c-8.679,-8.844 -14.211,-13.677 -20.595,-17.993c-4.8,-3.245 -9.663,-6.91 -10.806,-8.144c-1.143,-1.234 -3.024,-2.736 -4.18,-3.337c-1.979,-1.03 -2.189,-1.795 -3.575,-13.013c-2.295,-18.581 -4.711,-40.779 -4.712,-43.298l-0.001,-2.286h8.582c4.919,0 12.459,0.7 17.664,1.639z" data-paper-data="{&quot;wickUUID&quot;:&quot;102bdfd2-0682-442e-8fce-943eaae57f7d&quot;,&quot;wickType&quot;:&quot;path&quot;,&quot;originalStyle&quot;:{&quot;strokeColor&quot;:null,&quot;fillColor&quot;:[&quot;Color&quot;,0.50196,0,0.25098],&quot;strokeWidth&quot;:1}}" id="102bdfd2-0682-442e-8fce-943eaae57f7d"/><path d="M657.75365,138.53249c-8.832,1.82 -16.321,5.107 -21.154,9.285c-4.002,3.46 -4.071,4.677 -1.081,19.31c1.214,5.944 2.95,14.753 3.859,19.576c0.908,4.822 2.629,10.714 3.823,13.092c2.817,5.608 3.695,5.599 18.44,-0.187c12.77,-5.012 21.705,-7.103 52.216,-12.217c19.519,-3.272 27.484,-3.765 32.584,-2.016c1.373,0.47 2.348,0.1 3.949,-1.5c1.168,-1.169 2.129,-2.61 2.133,-3.202c0.016,-1.931 -23.513,-24.208 -31.605,-29.923c-6.271,-4.43 -9.676,-6.164 -16.615,-8.463c-17.281,-5.725 -31.442,-6.867 -46.549,-3.755zM686.60965,146.70949c14.23,2.816 21.967,5.961 30.487,12.393c4.164,3.143 9.978,7.943 12.92,10.665l5.349,4.948l-11.999,1.879c-15.902,2.489 -42.241,7.334 -48.989,9.01c-2.971,0.739 -9.496,2.952 -14.499,4.919c-5.003,1.966 -9.259,3.413 -9.457,3.215c-0.199,-0.198 -0.694,-1.965 -1.1,-3.926c-0.744,-3.586 -5.374,-27.868 -6.259,-32.821c-0.437,-2.445 -0.17,-2.849 3.373,-5.096c4.459,-2.828 12.418,-5.047 21.292,-5.937c9.729,-0.976 10.257,-0.955 18.882,0.751z" data-paper-data="{&quot;wickUUID&quot;:&quot;0c730569-7f26-4988-9d47-a43e968f562e&quot;,&quot;wickType&quot;:&quot;path&quot;,&quot;originalStyle&quot;:{&quot;strokeColor&quot;:null,&quot;fillColor&quot;:[&quot;Color&quot;,0.50196,0,0.25098],&quot;strokeWidth&quot;:1}}" id="0c730569-7f26-4988-9d47-a43e968f562e"/><path d="M650.29587,214.19694c-5.484,5.996 -6.607,10.531 -5.019,20.261c1.74,10.655 3.496,12.053 15.137,12.053c4.251,0 10.662,0.562 14.245,1.247c3.583,0.686 8.535,1.247 11.004,1.247c8.677,0 25.001,6.34 37.342,14.502c7.041,4.657 8.653,5.128 11.861,3.469c3.311,-1.712 5.031,-6.264 6.116,-16.193c1.607,-14.695 1.767,-18.952 0.782,-20.793c-1.259,-2.351 -10.944,-7.164 -18.516,-9.201c-15.282,-4.111 -33.527,-6.679 -62.746,-8.833l-7.641,-0.564l-2.565,2.805zM685.06187,222.89694c14.782,1.514 34.381,5.52 42.1,8.606l5.818,2.326l-0.056,3.64c-0.074,4.698 -1.697,18.969 -2.217,19.489c-0.22,0.22 -2.978,-1.17 -6.129,-3.089c-12.725,-7.748 -26.862,-12.831 -37.914,-13.632c-3.786,-0.275 -8.94,-0.893 -11.455,-1.373c-2.514,-0.481 -8.125,-1.108 -12.468,-1.393l-7.897,-0.519l-0.754,-5.303c-0.646,-4.54 -0.53,-5.72 0.805,-8.199l1.559,-2.896l8.339,0.561c4.586,0.308 13.707,1.11 20.269,1.782z" data-paper-data="{&quot;wickUUID&quot;:&quot;9ac91690-aefd-4a74-8e41-eda0968184ca&quot;,&quot;wickType&quot;:&quot;path&quot;,&quot;originalStyle&quot;:{&quot;strokeColor&quot;:null,&quot;fillColor&quot;:[&quot;Color&quot;,0.50196,0,0.25098],&quot;strokeWidth&quot;:1}}" id="9ac91690-aefd-4a74-8e41-eda0968184ca"/><path d="M675.0363,243.80966c-0.694,0.8 -1.5,2.719 -1.792,4.263c-0.291,1.545 -1.687,5.16 -3.102,8.033c-2.777,5.641 -2.717,8.027 0.241,9.61c1.186,0.635 2.281,0.657 3.568,0.07c2.46,-1.12 7.709,-11.56 8.389,-16.682c0.477,-3.599 0.326,-4.177 -1.405,-5.39c-2.5,-1.751 -4.323,-1.721 -5.899,0.096z" data-paper-data="{&quot;wickUUID&quot;:&quot;015fb24b-7a77-4ac5-92f4-25acd881726a&quot;,&quot;wickType&quot;:&quot;path&quot;,&quot;originalStyle&quot;:{&quot;strokeColor&quot;:null,&quot;fillColor&quot;:[&quot;Color&quot;,0.50196,0,0.25098],&quot;strokeWidth&quot;:1}}" id="015fb24b-7a77-4ac5-92f4-25acd881726a"/><path d="M662.31511,243.49952c-2.483,3.79 0.13,6.64 8.916,9.722c2.752,0.966 3.27,0.917 4.779,-0.449c2.007,-1.816 2.203,-4.803 0.412,-6.29c-1.977,-1.641 -9.506,-4.959 -11.251,-4.959c-0.859,0 -2.144,0.889 -2.856,1.976z" data-paper-data="{&quot;wickUUID&quot;:&quot;48b72acc-77b1-4e03-9a2d-3b5addd42194&quot;,&quot;wickType&quot;:&quot;path&quot;,&quot;originalStyle&quot;:{&quot;strokeColor&quot;:null,&quot;fillColor&quot;:[&quot;Color&quot;,0.50196,0,0.25098],&quot;strokeWidth&quot;:1}}" id="48b72acc-77b1-4e03-9a2d-3b5addd42194"/><path d="M673.95311,187.20531c-1.66,1.66 -1.311,4.067 2.161,14.921c1.331,4.162 2.42,8.931 2.42,10.598c0,1.923 0.608,3.639 1.662,4.694c2.001,2 3.193,2.078 5.634,0.368c2.728,-1.911 2.492,-8.217 -0.646,-17.274c-1.372,-3.959 -2.494,-7.778 -2.494,-8.487c0,-0.709 -0.57,-2.393 -1.268,-3.742c-1.47,-2.843 -5.17,-3.377 -7.469,-1.078z" data-paper-data="{&quot;wickUUID&quot;:&quot;2544aaa9-a78e-4872-b757-c65547828739&quot;,&quot;wickType&quot;:&quot;path&quot;,&quot;originalStyle&quot;:{&quot;strokeColor&quot;:null,&quot;fillColor&quot;:[&quot;Color&quot;,0.50196,0,0.25098],&quot;strokeWidth&quot;:1}}" id="2544aaa9-a78e-4872-b757-c65547828739"/><path d="M629.5751,133.99654c-1.097,0.768 -1.747,2.126 -1.747,3.65c0,2.794 2.116,4.504 7.649,6.181c1.965,0.596 4.953,1.745 6.639,2.554c2.879,1.382 3.195,1.386 5.195,0.076c4.247,-2.783 2.138,-6.889 -5.03,-9.792c-8.635,-3.497 -10.858,-3.964 -12.706,-2.669z" data-paper-data="{&quot;wickUUID&quot;:&quot;dbcaa777-e036-4a93-94bb-89cab96de82a&quot;,&quot;wickType&quot;:&quot;path&quot;,&quot;originalStyle&quot;:{&quot;strokeColor&quot;:null,&quot;fillColor&quot;:[&quot;Color&quot;,0.50196,0,0.25098],&quot;strokeWidth&quot;:1}}" id="dbcaa777-e036-4a93-94bb-89cab96de82a"/><path d="M669.8651,257.79254c-1.573,1.573 -1.678,3.727 -0.267,5.501c0.572,0.718 4.219,2.746 8.105,4.506c3.886,1.76 9.684,4.577 12.884,6.258c3.2,1.682 7.689,4.035 9.975,5.229c2.286,1.194 7.519,3.568 11.629,5.277c8.285,3.444 9.002,4.287 9.917,11.643l0.547,4.393l-2.842,1.187c-8.118,3.392 -10.706,8.6 -10.845,21.825c-0.081,7.763 0.149,9.388 1.763,12.405c1.021,1.91 2.697,3.739 3.724,4.065c1.028,0.327 2.831,1.305 4.008,2.176c6.567,4.854 19.668,4.704 25.717,-0.296c3.447,-2.849 5.55,-7.676 4.722,-10.841c-0.229,-0.877 -0.032,-4.067 0.439,-7.089c1.514,-9.73 -1.242,-14.706 -10.712,-19.336c-3.107,-1.519 -5.895,-3.135 -6.196,-3.592c-0.301,-0.456 -0.977,-3.767 -1.502,-7.357c-1.535,-10.499 -1.808,-10.941 -9.025,-14.644c-3.51,-1.802 -9.091,-4.292 -12.403,-5.535c-3.312,-1.243 -6.263,-2.652 -6.559,-3.131c-0.871,-1.41 -27.675,-13.95 -29.816,-13.95c-1.076,0 -2.544,0.587 -3.263,1.306z" data-paper-data="{&quot;wickUUID&quot;:&quot;28df4eb2-5a83-468d-9861-3347acf0cfb2&quot;,&quot;wickType&quot;:&quot;path&quot;,&quot;originalStyle&quot;:{&quot;strokeColor&quot;:null,&quot;fillColor&quot;:[&quot;Color&quot;,0.50196,0,0.25098],&quot;strokeWidth&quot;:1}}" id="28df4eb2-5a83-468d-9861-3347acf0cfb2"/><path d="M521.42959,276.43605c-2.411,2.411 -2.106,3.903 2.215,10.827c15.786,25.296 21.657,38.406 31.006,69.232c3.718,12.259 7.154,23.294 7.635,24.522c4.456,11.381 17.067,48.288 19.082,55.848c1.401,5.257 3.489,11.68 4.639,14.272c2.854,6.435 4.167,6.899 16.181,5.714c11.451,-1.13 19.609,-3.007 32.577,-7.495c19.167,-6.634 33.839,-15.216 63.304,-37.027c21.581,-15.976 31.171,-24.511 31.171,-27.745c0,-1.74 -12.239,-19.397 -17.679,-25.504c-2.004,-2.251 -6.202,-7.646 -9.329,-11.989c-3.127,-4.343 -6.256,-8.364 -6.953,-8.936c-2.036,-1.667 -4.947,-1.225 -6.384,0.969c-1.232,1.879 -1.181,2.274 0.786,6.157c1.157,2.281 2.418,4.277 2.804,4.434c0.385,0.157 2.328,2.53 4.318,5.273c1.99,2.743 4.971,6.483 6.625,8.312c3.867,4.276 15.006,19.877 15.006,21.018c0,1.854 -37.785,30.414 -52.784,39.897c-21.796,13.78 -44.864,22.232 -65.013,23.82c-7.171,0.566 -6.526,1.351 -10.182,-12.395c-1.456,-5.474 -7.062,-22.494 -12.459,-37.822c-5.396,-15.327 -12.485,-36.708 -15.752,-47.513c-3.268,-10.805 -8.119,-24.671 -10.782,-30.814c-4.461,-10.29 -14.471,-28.636 -20.173,-36.971c-1.308,-1.911 -2.377,-3.853 -2.377,-4.317c0,-1.041 -3.313,-3.43 -4.757,-3.43c-0.584,0 -1.81,0.748 -2.725,1.663z" data-paper-data="{&quot;wickUUID&quot;:&quot;4d1f8558-f727-489c-b3c5-1312eae46b41&quot;,&quot;wickType&quot;:&quot;path&quot;,&quot;originalStyle&quot;:{&quot;strokeColor&quot;:null,&quot;fillColor&quot;:[&quot;Color&quot;,0.50196,0,0.25098],&quot;strokeWidth&quot;:1}}" id="4d1f8558-f727-489c-b3c5-1312eae46b41"/><path d="M708.10274,394.11569c-0.719,0.718 -1.307,2.067 -1.307,2.998c0,2.174 7.702,10.135 29.094,30.076c9.372,8.736 23.691,22.342 31.82,30.235l14.779,14.352l7.664,-0.044c7.47,-0.042 7.612,-0.079 5.603,-1.454c-5.145,-3.522 -14.812,-12.168 -27.448,-24.55c-7.543,-7.391 -20.448,-19.675 -28.678,-27.298c-8.229,-7.622 -17.457,-16.505 -20.506,-19.74c-5.827,-6.181 -8.363,-7.234 -11.021,-4.575z" data-paper-data="{&quot;wickUUID&quot;:&quot;002dc374-8df6-430c-9a43-f281e8cfc4af&quot;,&quot;wickType&quot;:&quot;path&quot;,&quot;originalStyle&quot;:{&quot;strokeColor&quot;:null,&quot;fillColor&quot;:[&quot;Color&quot;,0.50196,0,0.25098],&quot;strokeWidth&quot;:1}}" id="002dc374-8df6-430c-9a43-f281e8cfc4af"/><path d="M528.96269,443.88624c-1.029,0.436 -1.882,1.087 -1.895,1.444c-0.014,0.358 -0.171,7.392 -0.348,15.633c-0.177,8.24 -0.591,18.994 -0.919,23.898l-0.597,8.916h4.567h4.567l0.52,-9.768c0.286,-5.371 0.766,-14.742 1.068,-20.824c0.482,-9.697 0.714,-10.99 1.885,-10.516c0.734,0.298 10.125,0.852 20.869,1.232c10.744,0.38 21.824,0.953 24.622,1.272c4.523,0.516 5.285,0.384 6.858,-1.189c2.172,-2.172 2.239,-3.793 0.239,-5.794c-1.754,-1.753 -7.175,-2.286 -35.46,-3.488c-9.6,-0.408 -18.952,-0.937 -20.781,-1.176c-1.828,-0.239 -4.166,-0.077 -5.195,0.36z" data-paper-data="{&quot;wickUUID&quot;:&quot;db0eeae3-c15c-44cc-b87f-1fa6257b09f4&quot;,&quot;wickType&quot;:&quot;path&quot;,&quot;originalStyle&quot;:{&quot;strokeColor&quot;:null,&quot;fillColor&quot;:[&quot;Color&quot;,0.50196,0,0.25098],&quot;strokeWidth&quot;:1}}" id="db0eeae3-c15c-44cc-b87f-1fa6257b09f4"/><path d="M783.27032,465.95763c-3.198,3.198 -2.102,4.928 6.966,10.992c8.669,5.797 10.176,6.985 18.984,14.967c7.264,6.584 8.319,8.498 5.698,10.334c-0.968,0.678 -2.838,3.357 -4.156,5.953c-2.881,5.676 -4.042,6.866 -10.269,10.529c-4.705,2.769 -4.875,2.802 -8.209,1.626c-7.379,-2.604 -14.01,-0.811 -15.676,4.238c-1.237,3.748 -0.5,12.772 1.333,16.316c2.128,4.115 4.562,4.426 14.464,1.851c4.805,-1.251 10.065,-2.928 11.688,-3.729c5.318,-2.622 9.867,-8.125 14.616,-17.682c2.479,-4.989 5.213,-10.061 6.075,-11.272c5.465,-7.675 1.364,-15.789 -14.996,-29.668c-6.806,-5.773 -22.082,-16.117 -23.803,-16.117c-0.579,0 -1.801,0.748 -2.715,1.662z" data-paper-data="{&quot;wickUUID&quot;:&quot;831b7f5d-d9f6-4c96-9d99-6abbb52a746c&quot;,&quot;wickType&quot;:&quot;path&quot;,&quot;originalStyle&quot;:{&quot;strokeColor&quot;:null,&quot;fillColor&quot;:[&quot;Color&quot;,0.50196,0,0.25098],&quot;strokeWidth&quot;:1}}"/><path d="M527.29506,487.52383c-0.889,0.889 -1.907,3.04 -2.262,4.78c-0.847,4.153 -0.865,33.603 -0.033,55.323c0.364,9.487 0.356,17.249 -0.017,17.249c-0.372,0 -5.532,-3.193 -11.466,-7.094c-9.39,-6.174 -16.442,-9.531 -20.021,-9.531c-0.567,0 -2.183,0.968 -3.589,2.152c-3.452,2.905 -3.5,7.399 -0.141,13.255c3.012,5.252 6.676,7.302 21.475,12.015c7.015,2.234 12.107,4.379 14.038,5.913c3.515,2.794 6.912,3.092 8.995,0.79c1.365,-1.508 1.403,-2.829 0.549,-19.327c-1.681,-32.465 -2.067,-58.687 -0.984,-66.738c0.978,-7.271 0.957,-7.508 -0.807,-8.936c-2.332,-1.889 -3.736,-1.852 -5.737,0.149z" data-paper-data="{&quot;wickUUID&quot;:&quot;b5481ecc-9880-47e3-ba8f-dffdf384d381&quot;,&quot;wickType&quot;:&quot;path&quot;,&quot;originalStyle&quot;:{&quot;strokeColor&quot;:null,&quot;fillColor&quot;:[&quot;Color&quot;,0.50196,0,0.25098],&quot;strokeWidth&quot;:1}}"/></g><g fill="none" fill-rule="nonzero" stroke="none" stroke-width="1" stroke-linecap="butt" stroke-linejoin="miter" stroke-miterlimit="10" stroke-dasharray="" stroke-dashoffset="0" font-family="sans-serif" font-weight="normal" font-size="12" text-anchor="start" style="mix-blend-mode: normal"/><g id="wick_project_gui" fill="none" fill-rule="nonzero" stroke="none" stroke-width="1" stroke-linecap="butt" stroke-linejoin="miter" stroke-miterlimit="10" stroke-dasharray="" stroke-dashoffset="0" font-family="sans-serif" font-weight="normal" font-size="12" text-anchor="start" style="mix-blend-mode: normal"/></g></svg>