<svg version="1.1" xmlns="http://www.w3.org/2000/svg" xmlns:xlink="http://www.w3.org/1999/xlink" width="1260" height="594" viewBox="0,0,1260,594"><g transform="translate(259.74321,92.84357) scale(0.66226,0.66226)"><g id="wick_project_bg" fill-opacity="0" fill="#ffffff" fill-rule="nonzero" stroke="none" stroke-width="1" stroke-linecap="butt" stroke-linejoin="miter" stroke-miterlimit="10" stroke-dasharray="" stroke-dashoffset="0" font-family="none" font-weight="none" font-size="none" text-anchor="none" style="mix-blend-mode: normal"><rect x="0" y="0" width="720" height="480"/></g><g data-paper-data="{&quot;wickUUID&quot;:&quot;001a2b87-cdf2-4b6e-a052-b5265f659153&quot;,&quot;wickType&quot;:&quot;clipsandpaths&quot;}" fill="#800040" fill-rule="evenodd" stroke="none" stroke-width="1" stroke-linecap="butt" stroke-linejoin="miter" stroke-miterlimit="10" stroke-dasharray="" stroke-dashoffset="0" font-family="none" font-weight="none" font-size="none" text-anchor="none" style="mix-blend-mode: normal"><path d="M846.25488,143.31475c-1.439,0.204 -6.611,0.911 -11.493,1.572c-8.979,1.216 -23.976,6.274 -38.538,12.999c-17.369,8.02 -37.294,34.093 -43.172,56.491c-4.683,17.845 -3.713,34.093 2.952,49.439c5.895,13.572 16.207,23.763 31.097,30.731c10.247,4.795 17.009,5.226 20.904,1.331c1.135,-1.135 4.895,-1.948 11.846,-2.561c5.601,-0.493 13.715,-1.65 18.032,-2.57c4.317,-0.921 13.5,-2.093 20.407,-2.606c23.138,-1.718 44.808,-12.252 54.082,-26.289c9.611,-14.547 12.367,-23.961 12.624,-43.134c0.153,-11.363 -0.126,-13.572 -2.572,-20.389c-6.084,-16.955 -17.201,-31.824 -33.593,-44.932c-12.775,-10.215 -14.134,-10.73 -27.925,-10.581c-6.619,0.071 -13.212,0.296 -14.651,0.499zM871.95488,154.47075c6.884,4.063 20.217,15.523 25.477,21.896c6.684,8.1 14.038,21.705 15.721,29.084c1.419,6.218 1.41,20.056 -0.018,27.777c-1.339,7.244 -5.624,16.989 -10.189,23.173c-8.197,11.104 -30.931,21.203 -47.822,21.245c-3.468,0.008 -12.927,1.177 -21.02,2.596c-8.093,1.42 -21.079,2.901 -28.857,3.291c-14.041,0.705 -14.179,0.689 -19.393,-2.148c-22.825,-12.424 -31.126,-43.234 -19.657,-72.962c3.759,-9.744 18.545,-30.056 26.041,-35.773c4.308,-3.286 12.552,-7.069 27.331,-12.543c7.52,-2.784 13.853,-4.281 22.5,-5.316c15.292,-1.831 27.112,-1.957 29.886,-0.32z" data-paper-data="{&quot;wickUUID&quot;:&quot;d690f8ac-fe49-49ac-8202-f9c2a86799ae&quot;,&quot;wickType&quot;:&quot;path&quot;,&quot;originalStyle&quot;:{&quot;strokeColor&quot;:null,&quot;fillColor&quot;:[&quot;Color&quot;,0.50196,0,0.25098],&quot;strokeWidth&quot;:1}}"/><path d="M870.06307,248.95686c-2.099,1.139 -2.878,2.367 -2.878,4.539c0,3.933 2.179,5.569 7.023,5.275c2.181,-0.132 5.094,-0.174 6.473,-0.094l2.508,0.147l-2.769,2.566c-1.523,1.411 -2.77,3.205 -2.77,3.986c0,2.524 2.535,4.915 5.913,5.578c2.766,0.543 3.904,0.082 7.067,-2.863c4.693,-4.371 5.624,-8.617 2.861,-13.049c-4.068,-6.526 -16.611,-9.783 -23.428,-6.085z" data-paper-data="{&quot;wickUUID&quot;:&quot;1dd069a6-c481-4bf5-953d-9e12ba48e035&quot;,&quot;wickType&quot;:&quot;path&quot;,&quot;originalStyle&quot;:{&quot;strokeColor&quot;:null,&quot;fillColor&quot;:[&quot;Color&quot;,0.50196,0,0.25098],&quot;strokeWidth&quot;:1}}"/><path d="M790.11365,209.20074c-1.715,2.617 -1.616,3.183 3.115,17.76c2.688,8.281 4.887,16.514 4.887,18.296c0,4.862 1.711,7.288 5.141,7.288c4.473,0 5.699,-2.224 5.059,-9.176c-0.729,-7.936 -9.739,-35.424 -11.88,-36.245c-3,-1.151 -4.538,-0.646 -6.322,2.077z" data-paper-data="{&quot;wickUUID&quot;:&quot;fa9d622e-8d24-4314-a15d-6f0fddf99bcb&quot;,&quot;wickType&quot;:&quot;path&quot;,&quot;originalStyle&quot;:{&quot;strokeColor&quot;:null,&quot;fillColor&quot;:[&quot;Color&quot;,0.50196,0,0.25098],&quot;strokeWidth&quot;:1}}"/><path d="M796.54542,214.72122c-11.661,9.995 -22.5,21.535 -22.5,23.955c0,2.448 3.131,5.496 5.647,5.496c1,0 6.614,-4.684 12.475,-10.409c5.862,-5.725 12.894,-12.145 15.628,-14.268c5.146,-3.995 6.505,-7.906 3.715,-10.695c-2.786,-2.786 -6.541,-1.3 -14.965,5.921z" data-paper-data="{&quot;wickUUID&quot;:&quot;5fc8e45c-7b70-4870-8640-8b1812258971&quot;,&quot;wickType&quot;:&quot;path&quot;,&quot;originalStyle&quot;:{&quot;strokeColor&quot;:null,&quot;fillColor&quot;:[&quot;Color&quot;,0.50196,0,0.25098],&quot;strokeWidth&quot;:1}}"/><path d="M853.05738,192.29252c-0.576,0.23 -4.424,1.403 -8.552,2.607c-6.372,1.86 -7.846,2.742 -9.764,5.846c-3.082,4.986 -5.518,19.176 -4.832,28.143c1.388,18.159 14.551,29.044 28.083,23.225c1.891,-0.813 5.556,-2.222 8.146,-3.13c7.816,-2.741 17.517,-9.727 20.444,-14.722c4.362,-7.442 5.305,-14.356 3.23,-23.682c-2.08,-9.348 -4.697,-12.445 -13.305,-15.746c-5.159,-1.979 -20.655,-3.658 -23.45,-2.541zM868.79638,203.92752c8.441,2.186 10.001,3.962 10.657,12.131c0.77,9.586 -1.114,13.433 -9.106,18.599c-7.392,4.777 -20.946,8.596 -23.906,6.735c-4.168,-2.62 -5.947,-7.831 -5.838,-17.104c0.057,-4.892 0.661,-10.888 1.343,-13.324c1.162,-4.151 1.581,-4.524 6.699,-5.952c11.18,-3.119 12.108,-3.169 20.151,-1.085z" data-paper-data="{&quot;wickUUID&quot;:&quot;28e77767-9337-43bf-8b29-3a91f325ecf7&quot;,&quot;wickType&quot;:&quot;path&quot;,&quot;originalStyle&quot;:{&quot;strokeColor&quot;:null,&quot;fillColor&quot;:[&quot;Color&quot;,0.50196,0,0.25098],&quot;strokeWidth&quot;:1}}"/><path d="M894.39449,93.96099c-3.741,1.333 -11.982,4.65 -18.314,7.371c-6.331,2.72 -15.135,6.487 -19.564,8.37c-4.429,1.882 -11.963,5.555 -16.744,8.161c-4.781,2.606 -11.282,5.754 -14.448,6.996c-7.802,3.061 -18.366,10.364 -37.674,26.048c-41.964,34.086 -44.581,39.423 -37.782,77.044c4.799,26.556 5.655,28.669 11.066,27.311c3.809,-0.956 4.149,-4.217 1.721,-16.478c-1.18,-5.958 -2.866,-15.071 -3.747,-20.251c-4.101,-24.133 -1.835,-28.268 29.93,-54.62c22.823,-18.933 28.673,-22.856 49.568,-33.242c22.503,-11.185 56.169,-25.789 60.032,-26.041c2.241,-0.146 2.748,0.5 3.972,5.065c3.494,13.033 4.646,24.186 5.529,53.527c0.563,18.713 1.371,31.349 2.089,32.691c1.707,3.189 6.082,4.001 8.436,1.565c1.788,-1.85 1.849,-3.636 1.024,-29.701c-1.009,-31.869 -2.136,-43.306 -5.752,-58.4c-4.522,-18.869 -6.107,-20.133 -19.342,-15.416z" data-paper-data="{&quot;wickUUID&quot;:&quot;82367d1b-0a5b-4deb-8f1d-90590b009bab&quot;,&quot;wickType&quot;:&quot;path&quot;,&quot;originalStyle&quot;:{&quot;strokeColor&quot;:null,&quot;fillColor&quot;:[&quot;Color&quot;,0.50196,0,0.25098],&quot;strokeWidth&quot;:1}}"/><path d="M904.91224,99.16705c-1.969,2.372 -11.685,38.519 -11.053,41.123c0.91,3.75 8.253,4.6 9.383,1.086c2.667,-8.295 9.99,-36.577 9.99,-38.583c0,-1.442 -0.565,-3.186 -1.256,-3.877c-1.717,-1.717 -5.544,-1.581 -7.064,0.251z" data-paper-data="{&quot;wickUUID&quot;:&quot;122a94d3-1adf-4470-b2d1-481d1922d89c&quot;,&quot;wickType&quot;:&quot;path&quot;,&quot;originalStyle&quot;:{&quot;strokeColor&quot;:null,&quot;fillColor&quot;:[&quot;Color&quot;,0.50196,0,0.25098],&quot;strokeWidth&quot;:1}}"/><path d="M895.21185,103.99005c-6.619,3.417 -24.362,19.975 -25.4,23.704c-0.716,2.571 2.51,6.594 5.287,6.594c0.899,0 5.695,-3.996 10.656,-8.88c5.785,-5.694 11.405,-10.106 15.666,-12.296c7.419,-3.815 9.162,-6.787 6.017,-10.262c-2.503,-2.765 -5.136,-2.52 -12.226,1.14z" data-paper-data="{&quot;wickUUID&quot;:&quot;a5fd35ad-1594-4caa-8769-6979584ea345&quot;,&quot;wickType&quot;:&quot;path&quot;,&quot;originalStyle&quot;:{&quot;strokeColor&quot;:null,&quot;fillColor&quot;:[&quot;Color&quot;,0.50196,0,0.25098],&quot;strokeWidth&quot;:1}}"/><path d="M683.42348,179.4465c-1.206,0.584 -2.961,2.79 -3.902,4.9c-0.94,2.11 -5.347,8.664 -9.794,14.564c-6.537,8.673 -8.595,10.728 -10.75,10.731c-7.898,0.011 -13.592,9.106 -10.181,16.26c1.892,3.967 7.225,7.796 10.868,7.802c6.697,0.011 10.772,-5.011 10.782,-13.287c0.005,-4.483 0.596,-5.764 5.494,-11.905c3.019,-3.785 6.881,-9.089 8.584,-11.788c1.703,-2.698 3.442,-4.782 3.866,-4.63c0.766,0.275 31.274,26.389 52.166,44.653c11.99,10.481 14.665,11.825 17.833,8.957c3.28,-2.967 2.542,-6.026 -2.396,-9.931c-2.447,-1.934 -8.216,-6.886 -12.82,-11.005c-30.854,-27.595 -54.805,-47.027 -57.255,-46.455c-0.167,0.039 -1.29,0.549 -2.495,1.134z" data-paper-data="{&quot;wickUUID&quot;:&quot;cc2f1c2c-b726-4483-ac84-e4cb70e7cdd7&quot;,&quot;wickType&quot;:&quot;path&quot;,&quot;originalStyle&quot;:{&quot;strokeColor&quot;:null,&quot;fillColor&quot;:[&quot;Color&quot;,0.50196,0,0.25098],&quot;strokeWidth&quot;:1}}"/><path d="M909.30809,251.602c-0.72,0.749 -1.309,2.622 -1.309,4.163c0,3.761 1.53,4.762 8.582,5.615c8.089,0.977 28.971,6.209 33.653,8.431c3.676,1.744 3.778,1.945 3.131,6.135c-0.96,6.217 -2.186,9.04 -3.926,9.04c-2.043,0 -5.858,4.99 -5.858,7.66c0,3.157 4.042,10.958 6.61,12.757c3.754,2.629 8.839,1.97 12.419,-1.61c2.763,-2.763 3.084,-3.67 2.503,-7.064c-1.811,-10.58 -1.88,-17.86 -0.192,-20.27c2.563,-3.659 2.069,-5.752 -2.537,-10.749c-4.913,-5.33 -10.475,-7.805 -26.129,-11.629c-13.686,-3.342 -25.107,-4.393 -26.947,-2.479z" data-paper-data="{&quot;wickUUID&quot;:&quot;579a017a-0576-4924-9bcc-b8880d3a1017&quot;,&quot;wickType&quot;:&quot;path&quot;,&quot;originalStyle&quot;:{&quot;strokeColor&quot;:null,&quot;fillColor&quot;:[&quot;Color&quot;,0.50196,0,0.25098],&quot;strokeWidth&quot;:1}}"/><path d="M770.28316,283.76431c-10.937,7.097 -49.438,39.549 -74.298,62.624c-23.158,21.496 -68.575,67.578 -69.716,70.739c-1.396,3.865 -0.269,5.466 14.713,20.902c13.384,13.788 31.798,30.578 50.389,45.943c32.098,26.529 42.055,31.692 71.686,37.174c17.233,3.188 27.166,2.964 46.57,-1.053c10.137,-2.099 13.315,-3.27 20.153,-7.428c4.465,-2.715 8.531,-5.724 9.036,-6.685c0.505,-0.962 1.797,-7.4 2.87,-14.307c1.597,-10.273 1.909,-17.51 1.711,-39.768c-0.134,-14.965 -0.369,-55.474 -0.524,-90.02l-0.281,-62.811l-3.663,-6.153c-2.014,-3.385 -4.931,-7.098 -6.481,-8.251c-2.669,-1.986 -2.958,-2.004 -5.494,-0.343c-3.559,2.332 -3.379,4.471 0.987,11.721c3.042,5.052 3.683,7.157 3.783,12.423c0.137,7.158 0.907,152.568 0.86,162.272c-0.028,5.952 -2.605,26.374 -3.669,29.083c-0.273,0.696 -3.252,2.782 -6.62,4.634c-7.616,4.19 -26.843,7.981 -39.878,7.863c-16.549,-0.149 -40.889,-6.26 -52.846,-13.267c-14.679,-8.603 -47.474,-36.061 -72.717,-60.884l-19.341,-19.019l29.807,-29.671c32.613,-32.463 43.842,-42.932 70.62,-65.839c22.717,-19.431 34.261,-28.683 39.956,-32.02c5.312,-3.113 6.766,-6.718 3.96,-9.819c-2.636,-2.913 -4.569,-2.586 -11.573,1.96z" data-paper-data="{&quot;wickUUID&quot;:&quot;16459e2e-f579-49cb-8732-57cfef1cc663&quot;,&quot;wickType&quot;:&quot;path&quot;,&quot;originalStyle&quot;:{&quot;strokeColor&quot;:null,&quot;fillColor&quot;:[&quot;Color&quot;,0.50196,0,0.25098],&quot;strokeWidth&quot;:1}}"/><path d="M647.26514,459.2894c-37.94,28.551 -65.58,53.47 -81.151,73.162c-6.979,8.825 -7.865,11.652 -4.586,14.619c3.044,2.756 5.512,1.342 12.284,-7.04c15.981,-19.781 42.813,-44.049 78.384,-70.895c9.171,-6.922 17.101,-13.516 17.623,-14.655c1.426,-3.109 -0.842,-7.284 -3.956,-7.284c-1.602,0 -8.423,4.435 -18.598,12.093z" data-paper-data="{&quot;wickUUID&quot;:&quot;a85e111b-7a7c-4470-9068-56c65ba11514&quot;,&quot;wickType&quot;:&quot;path&quot;,&quot;originalStyle&quot;:{&quot;strokeColor&quot;:null,&quot;fillColor&quot;:[&quot;Color&quot;,0.50196,0,0.25098],&quot;strokeWidth&quot;:1}}"/><path d="M798.90014,516.34993c-4.124,2.402 -1.63,10.38 5.747,18.383l4.261,4.623l-2.652,2.845c-4.345,4.66 -11.28,16.484 -11.28,19.231c0,3.33 1.829,5.067 5.333,5.067c2.378,0 3.587,-1.227 7.678,-7.791c2.671,-4.286 6.723,-9.27 9.004,-11.077c6.048,-4.79 5.805,-8.582 -1.036,-16.136c-2.851,-3.148 -5.968,-7.273 -6.928,-9.168c-3.464,-6.835 -6.041,-8.357 -10.127,-5.977z" data-paper-data="{&quot;wickUUID&quot;:&quot;138a0b81-d02a-44f3-8761-ddad83d1dc27&quot;,&quot;wickType&quot;:&quot;path&quot;,&quot;originalStyle&quot;:{&quot;strokeColor&quot;:null,&quot;fillColor&quot;:[&quot;Color&quot;,0.50196,0,0.25098],&quot;strokeWidth&quot;:1}}"/></g><g fill="none" fill-rule="nonzero" stroke="none" stroke-width="1" stroke-linecap="butt" stroke-linejoin="miter" stroke-miterlimit="10" stroke-dasharray="" stroke-dashoffset="0" font-family="sans-serif" font-weight="normal" font-size="12" text-anchor="start" style="mix-blend-mode: normal"/><g id="wick_project_gui" fill="none" fill-rule="nonzero" stroke="none" stroke-width="1" stroke-linecap="butt" stroke-linejoin="miter" stroke-miterlimit="10" stroke-dasharray="" stroke-dashoffset="0" font-family="sans-serif" font-weight="normal" font-size="12" text-anchor="start" style="mix-blend-mode: normal"/></g></svg>