<svg version="1.1" xmlns="http://www.w3.org/2000/svg" xmlns:xlink="http://www.w3.org/1999/xlink" width="1260" height="594" viewBox="0,0,1260,594"><g transform="translate(224.40741,-63.33482) scale(0.70248,0.70248)"><g id="wick_project_bg" fill-opacity="0" fill="#ffffff" fill-rule="nonzero" stroke="none" stroke-width="1" stroke-linecap="butt" stroke-linejoin="miter" stroke-miterlimit="10" stroke-dasharray="" stroke-dashoffset="0" font-family="none" font-weight="none" font-size="none" text-anchor="none" style="mix-blend-mode: normal"><rect x="0" y="0" width="720" height="480"/></g><g data-paper-data="{&quot;wickUUID&quot;:&quot;323206e6-356d-4ae5-b6ed-61ba5950e223&quot;,&quot;wickType&quot;:&quot;clipsandpaths&quot;}" fill="none" fill-rule="evenodd" stroke="none" stroke-width="1" stroke-linecap="butt" stroke-linejoin="miter" stroke-miterlimit="10" stroke-dasharray="" stroke-dashoffset="0" font-family="none" font-weight="none" font-size="none" text-anchor="none" style="mix-blend-mode: normal"><path d="M562.21597,427.34432c-6.05333,5.14833 -19.82178,13.65043 -32.05878,19.79043c-8.745,4.38833 -13.8931,6.11778 -21.57143,7.20411c-8.001,1.13167 -42.23789,1.00984 -52.13656,-0.18816c-11.89567,-1.43967 -21.13301,-4.9359 -35.58634,-13.41423c-2.72267,-1.597 -5.19617,-2.87802 -5.28617,-2.78802c-0.09033,0.09 -0.89785,2.00755 -0.61452,2.98355c0.28333,0.976 2.24096,8.54354 4.34463,16.79354c4.229,16.587 7.68751,28.83775 11.06351,39.19342c2.88533,8.85067 6.3469,18.2384 7.1389,19.35807c2.57867,3.64533 11.89391,24.94829 17.28991,39.54029c3.127,8.456 3.89596,10.792 6.24663,18.94167c1.21633,4.21667 2.44963,8.04109 2.49296,8.08742c0.04367,0.04633 3.59926,0.93941 7.25026,1.67708c12.16367,2.45733 22.79269,3.16935 43.14202,2.89202c14.15633,-0.19267 18.58188,-0.47821 24.68321,-1.59588c4.86833,-0.89167 8.25253,-2.44609 9.29053,-3.55376c6.364,-6.793 13.09904,-50.4351 15.76437,-102.16877c0.704,-13.66433 1.23741,-34.90123 1.11741,-44.6279l-0.11546,-8.54054z" data-paper-data="{&quot;wickUUID&quot;:&quot;fa013903-eb24-4801-9dd1-69a2838af050&quot;,&quot;wickType&quot;:&quot;path&quot;}" fill="#0000ff"/><path d="M386.94515,303.44116c0.12567,1.72467 0.44699,4.98391 0.71666,7.27558c0.97,8.24367 1.2054,13.05568 1.3894,28.41901l0.18991,15.65116l2.08263,0.5719c3.89167,-0.64833 10.85503,-0.86267 37.69436,-1.16134c16.40833,-0.18233 38.45984,-0.49136 49.00151,-0.68603c16.687,-0.30867 24.75516,-0.57227 46.33049,-1.51494c4.16167,-0.182 4.16422,-0.24501 5.16622,0.38999c1.282,0.813 1.37083,0.14211 0.2945,1.15344c-0.713,0.67 -1.00687,0.67682 -7.03854,1.10249c-20.86767,1.473 -72.46527,2.63572 -109.03727,2.45705l-23.76393,-0.11566l-0.76093,1.45044c0,0.95967 -8.53413,21.77854 -12.15946,29.66287l-2.17411,4.97983l2.99535,2.91053c15.67133,13.56467 49.52774,35.32994 65.42907,42.06961c6.49933,2.75467 17.05799,4.45205 32.22632,5.12072c15.54267,0.68533 31.68706,-0.74576 40.28573,-3.55009c7.00967,-2.286 25.51286,-12.55242 35.87986,-19.91375c6.94567,-4.93167 16.95902,-16.52292 26.19902,-30.35792c6.048,-9.05567 6.97164,-10.65797 6.89964,-12.07297c-0.063,-1.24233 1.06505,-4.23049 2.13338,-5.62182c0.45533,-0.593 0.31927,-1.2879 -0.84506,-2.76057c-2.193,-2.77433 -6.58213,-11.53292 -7.86146,-15.68692l-1.09196,-2.20652l-6.4994,-0.06378c-9.64767,-0.06233 -14.2816,-0.71131 -15.04727,-2.14198c-0.53133,-0.993 0.17069,-0.13288 2.38069,-0.57655c3.929,-0.78933 13.77676,-0.33354 17.64409,0.81346c0.69933,0.20733 1.55892,-0.54591 1.55892,-1.93991c0,-2.21167 0.81912,-6.59482 2.66445,-14.26082c2.795,-11.61167 4.32024,-18.73017 6.37357,-29.7465c0.23,-1.235 -0.02296,-3.2087 -0.14529,-3.33137c-0.12267,-0.12233 -2.00925,-0.05502 -3.52392,0.33965c-4.053,1.05567 -9.93212,1.38026 -31.24112,1.72493c-19.62933,0.31767 -26.57947,0.62744 -34.18014,1.52177c-10.44733,1.22933 -13.14398,1.49731 -21.32765,2.11698c-16.74933,1.26867 -22.90339,1.50162 -40.24772,1.51029c-25.88767,0.013 -39.41108,-1.29988 -58.26308,-5.65288c-3.62667,-0.83733 -7.19978,-1.60414 -8.03078,-1.71814l-2.45746,0.28534z" data-paper-data="{&quot;wickUUID&quot;:&quot;1a20d945-8945-4b32-beea-9f2a2f3410cc&quot;,&quot;wickType&quot;:&quot;path&quot;}" fill="#ffffff"/><path d="M403.68284,133.16398c-4.48533,0.85667 -7.38262,1.83105 -9.91929,3.24972c-5.93567,3.31933 -23.24397,18.25734 -32.11797,27.71467c-13.21467,14.08367 -23.93148,28.63849 -32.61215,44.28482c-4.79967,8.651 -9.88759,21.77235 -15.88259,41.00268c-5.20333,16.68967 -7.20241,26.71235 -6.88241,33.18368c0.65367,13.21567 21.42186,51.51155 45.07953,83.09155c2.37967,3.17667 5.03601,6.07292 5.17768,5.92125c0.14167,-0.15133 1.86703,-2.82967 2.62803,-5.09767c3.98067,-11.86333 5.85877,-24.84161 6.55544,-45.29561c0.126,-3.696 0.11744,-7.26694 0.00011,-7.57294c-0.182,-0.47433 -1.49697,-1.00553 -2.64264,-0.0252c-1.829,1.56567 -3.76901,2.47711 -6.34801,2.24344c-4.62033,-0.419 -5.99888,-3.22888 -4.23755,-9.03155c1.918,-6.31867 11.10278,-21.58121 13.81811,-22.96488c1.36067,-0.69333 4.89366,-1.31656 11.70799,-2.38256c2.56667,-0.40133 6.69224,-1.23066 9.23557,-1.85399c8.77233,-2.151 14.33257,-2.80097 18.79657,-2.1243c4.81333,0.72967 5.88357,1.77962 6.0789,5.72095c0.13467,2.70867 -0.37178,3.10993 -2.80411,4.7006c-0.91933,0.601 -1.16069,2.49035 -1.16402,2.60068c-0.01267,0.42167 13.54171,2.43065 21.19504,3.14465c20.45967,1.90867 55.36413,0.9294 81.52113,-2.28827c8.40233,-1.03333 24.37415,-1.96907 43.52082,-2.5494c12.029,-0.36433 16.98537,-0.74235 17.5667,-1.32368c0.209,-0.209 0.84138,-1.61519 0.57705,-2.79552c-0.70167,-3.136 0.11062,-6.52602 2.41962,-8.95602c2.13233,-2.24433 7.00623,-3.1038 11.03223,-1.89247c4.913,1.47867 10.46902,6.3182 17.77902,15.38987c1.26533,1.57 2.61474,3.49341 3.28241,4.75308c1.67333,3.15733 1.6533,4.37001 -0.01537,7.55534c-0.69067,1.31833 -1.47516,3.4238 -1.73849,4.63913c-0.45067,2.07933 -0.71592,22.29758 -0.46092,24.50291c0.235,2.029 5.24112,-15.54147 6.31812,-23.1858c1.95767,-13.89367 2.14652,-34.23584 0.51952,-56.21651c-0.67933,-9.178 -1.5917,-17.40005 -3.1967,-28.79605c-4.535,-32.19833 -7.5585,-45.5874 -12.62383,-55.92073c-2.209,-4.50633 -6.24892,-10.89302 -7.79959,-12.27502c-0.56633,-0.50433 -1.5497,-1.74827 -2.11837,-2.67494c-1.15267,-1.87767 -5.47195,-6.98258 -7.69595,-9.09725c-0.79533,-0.75633 -2.31617,-1.72325 -2.80584,-1.83758c-0.48967,-0.11433 -4.84298,-0.36705 -9.55531,-0.54772c-4.71267,-0.18033 -10.33843,-0.55887 -12.5611,-0.84654c-3.80933,-0.493 -4.98679,-0.70735 -10.73012,-1.96668c-4.33067,-0.94967 -10.9656,-1.27861 -21.26393,-1.05661c-21.01233,0.45333 -41.11907,1.43297 -51.8534,2.52764c-17.17267,1.75133 -47.10898,2.91761 -50.58031,1.96794c-1.802,-0.493 -3.54803,-2.65644 -4.33303,-4.88011c-0.333,-0.94333 -1.36355,-2.27339 -1.73422,-2.60906c-0.955,-0.86433 -4.96404,-0.92627 -9.13237,-0.12994zM439.39101,185.62383c3.55633,1.21167 6.20988,4.9744 7.32288,10.26007c0.818,3.883 0.47295,9.97453 -0.81505,15.08286c-1.87233,7.424 -6.15161,19.51148 -9.18661,25.93215c-2.96833,6.27967 -4.20442,7.56377 -8.27809,7.57844c-3.79633,0.01367 -5.59473,-1.52552 -8.61173,-6.63185c-2.15867,-3.654 -2.64554,-5.40989 -2.64554,-9.74956c0,-8.45333 4.14152,-25.57406 8.33652,-34.47706c1.94267,-4.12267 2.41543,-4.84347 4.44043,-6.2368c3.185,-2.19133 6.25252,-2.84325 9.43719,-1.75825zM555.20693,204.2632c8.08633,1.495 14.31968,10.30135 16.47068,23.42868c1.64433,10.03533 -0.6698,17.02833 -6.35247,19.80866c-1.56033,0.76333 -1.38048,0.46394 -3.64015,0.46227c-3.30233,-0.002 -5.23188,-0.74087 -7.75488,-3.10087c-2.234,-2.08967 -3.06695,-3.99166 -3.46928,-7.50566c-0.37233,-3.25133 -0.45535,-3.57035 -2.04568,-7.83102c-2.65933,-7.124 -3.85768,-15.99845 -2.60435,-19.56945c1.118,-3.18567 2.74543,-4.48996 5.94043,-5.34663c2.28733,-0.61367 1.10003,-0.78131 3.4557,-0.34598z" data-paper-data="{&quot;wickUUID&quot;:&quot;fc2c61fc-eebd-40fe-b00e-c18228195d5f&quot;,&quot;wickType&quot;:&quot;path&quot;}" fill="#ffffff"/><path d="M673.3228,-2.84235c0.47167,2.905 5.04596,12.79839 21.80096,47.14939c20.318,41.656 23.40242,48.44876 23.40242,51.61476c0,2.091 -1.63469,3.68105 -4.20136,5.00805c-0.55567,0.28733 -1.74507,0.69162 -2.86307,1.05795c-5.15567,1.68933 -22.43678,11.31875 -28.75745,16.02342c-7.90967,5.887 -13.38198,8.21445 -30.29031,12.88378c-10.50967,2.90233 -24.17658,7.40355 -32.38291,10.66455c-6.21567,2.47033 -17.54817,7.88183 -17.54817,8.37016c0,0.14467 0.72742,2.79972 1.87709,4.54339c1.14933,1.74333 2.50168,3.95521 3.12768,5.22754c5.99833,12.184 14.25474,54.71648 17.15241,88.37915c2.05433,23.87033 1.15919,52.40608 -2.19414,70.18275c-0.81533,4.32167 -3.80217,15.98772 -5.45917,21.36172c-1.38867,4.503 -1.49705,6.21333 -1.22972,6.21333c0.10233,0 2.90072,-0.90493 4.79072,-2.24826c1.89,-1.34333 5.29972,-3.7408 7.49972,-5.26847c9.79067,-6.79867 14.10302,-10.55296 36.42402,-31.71329c11.56233,-10.96133 17.59278,-16.35332 38.77811,-34.67065c33.41967,-28.89567 66.51805,-60.81653 85.28405,-82.24853c7.206,-8.22967 24.31021,-29.65686 35.62921,-44.64019l5.35064,-7.14341l-2.12026,-2.94759c-31.76533,-33.91167 -79.16927,-81.61488 -101.47227,-102.11288c-8.21633,-7.55133 -12.65294,-11.275 -19.79027,-16.60633c-12.997,-9.708 -30.12825,-21.28792 -31.49425,-21.28792c-0.14667,0 -1.41535,1.57925 -1.31368,2.20758z" data-paper-data="{&quot;wickUUID&quot;:&quot;76e953be-2434-425e-9830-50d4841084bf&quot;,&quot;wickType&quot;:&quot;path&quot;}" fill="#ff0080"/><path d="M268.47098,-23.39233c-11.64667,23.52567 -14.99203,31.92216 -32.7727,82.25483c-25.019,70.82333 -35.75075,99.53362 -49.65142,132.83162c-5.65667,13.55067 -7.4028,19.02494 -7.4028,19.75894c0,3.915 54.59443,59.75977 80.97376,82.8221c4.64833,4.06367 9.60944,7.9559 18.32411,14.3599c11.24267,8.26133 33.68481,24.11691 33.87948,23.93758c0.05133,-0.04733 0.0015,-3.50314 -1.57483,-6.32447c-3.57967,-6.40567 -8.87102,-17.1122 -11.14302,-22.54953c-1.95367,-4.67533 -4.74172,-12.398 -5.44939,-15.39067c-3.05033,-12.901 7.28449,-51.41811 21.95749,-81.82344c6.78133,-14.052 15.62806,-27.19268 27.52906,-40.94935c7.15333,-8.26867 14.15467,-15.27882 25.88667,-25.93849l1.34773,-2.31089l-4.50367,-2.66675c-2.33933,-1.35233 -8.17204,-4.48587 -12.95071,-6.95787c-4.77867,-2.47167 -11.39637,-5.95469 -14.78804,-7.78836c-19.54133,-10.56467 -38.172,-23.56051 -45.28033,-31.59018c-4.16333,-4.70333 -5.06493,-6.41619 -5.82693,-10.93319c-1.23967,-7.34633 -4.62958,-44.22055 -7.18058,-78.09288c-1.19833,-15.91067 -2.97238,-35.60154 -3.19171,-35.83021c-0.036,-0.03733 -4.57884,5.90231 -8.18217,13.18131z" data-paper-data="{&quot;wickUUID&quot;:&quot;8e9725fe-fa61-4358-9ce0-f7f764b804c6&quot;,&quot;wickType&quot;:&quot;path&quot;}" fill="#ff0080"/><path d="M403.29742,120.07818c-11.429,1.666 -15.395,3.326 -23.505,9.837c-25.389,20.388 -44.945,41.991 -58.304,64.408c-12.498,20.972 -25.627,58.065 -28.241,79.791c-1.247,10.355 -1.126,11.575 2.08,21.126c6.721,20.023 24.384,50.667 45.74,79.358c19.629,26.37 30.205,35.853 62.812,56.323c37.069,23.272 41.635,24.682 80.262,24.774c28.057,0.067 32.727,-0.891 50.715,-10.403c29.039,-15.356 41.547,-27.233 59.035,-56.058c16.408,-27.042 20.988,-37.704 27.685,-64.453c3.914,-15.63 5.611,-42.095 4.283,-66.794c-1.825,-33.947 -11.133,-85.129 -17.919,-98.53c-4.602,-9.089 -19.966,-27.456 -24.941,-29.816c-2.812,-1.335 -10.484,-2.604 -20.231,-3.347c-8.636,-0.658 -19.457,-1.826 -24.048,-2.595c-11.811,-1.978 -55.667,-0.19 -81.226,3.312c-4.148,0.568 -4.816,0.311 -4.816,-1.851c0,-5.332 -4.437,-6.52 -23.722,-6.352c-9.908,0.086 -21.454,0.657 -25.659,1.27zM414.34742,136.63818c0.867,2.487 2.515,4.153 4.633,4.685c3.854,0.967 37.766,-0.433 51.677,-2.134c5.297,-0.648 22.345,-1.568 37.884,-2.045c23.98,-0.736 29.482,-0.549 36.382,1.235c4.472,1.157 12.851,2.144 18.621,2.194c5.77,0.049 11.464,0.483 12.654,0.963c1.189,0.48 5.963,5.74 10.609,11.69c12.029,15.405 15.384,26.887 21.983,75.224c3.745,27.435 4.55,60.231 1.931,78.715c-2.163,15.274 -8.437,36.319 -14.818,49.705c-12.252,25.703 -30.828,52.046 -43.467,61.64c-8.437,6.404 -29.126,18.128 -36.19,20.507c-14.651,4.935 -47.716,5.149 -67.42,0.435c-13.711,-3.279 -61.24,-33.75 -75.612,-48.474c-24.574,-25.177 -56.435,-74.842 -64.998,-101.317c-1.912,-5.912 -2.017,-8.204 -0.764,-16.695c1.66,-11.255 13.696,-48.035 19.446,-59.426c11.12,-22.029 29.428,-45.364 48.756,-62.142c15.918,-13.818 19.042,-15.91 25.722,-17.219c10.215,-2.003 11.501,-1.759 12.971,2.459z" data-paper-data="{&quot;wickUUID&quot;:&quot;c96a819f-75ba-4aa2-9897-8ea0ce9b1578&quot;,&quot;wickType&quot;:&quot;path&quot;,&quot;originalStyle&quot;:{&quot;strokeColor&quot;:null,&quot;fillColor&quot;:[&quot;Color&quot;,0,0,0],&quot;strokeWidth&quot;:1}}" fill="#000000"/><path d="M277.58442,-71.63024c-1.169,1.292 -2.125,2.95 -2.125,3.686c0,0.736 -6.608,14.271 -14.684,30.078c-16.648,32.582 -17.975,35.884 -43.806,109.002c-19.793,56.026 -33.922,93.382 -45.991,121.601c-7.563,17.683 -8.246,20.903 -5.484,25.882c0.918,1.655 18.229,19.951 38.469,40.658c40.161,41.086 49.804,49.295 94.611,80.541c30.059,20.962 30.854,21.378 35.263,18.489c4.641,-3.041 4.276,-7.626 -0.91,-11.43c-2.296,-1.684 -14.865,-10.479 -27.932,-19.544c-13.067,-9.065 -30.114,-21.433 -37.884,-27.484c-21.216,-16.523 -89.239,-85.285 -88.227,-89.186c0.211,-0.812 3.779,-9.566 7.93,-19.454c11.657,-27.771 25.348,-64.04 41.69,-110.441c24.085,-68.391 27.491,-77.31 37.477,-98.127c5.221,-10.885 9.767,-19.517 10.102,-19.181c0.335,0.335 1.776,16.175 3.201,35.201c2.457,32.785 5.519,66.34 7.188,78.765c0.606,4.513 2.092,7.06 7.394,12.67c8.469,8.963 30.23,23.424 51.582,34.277c16.872,8.576 23.186,12.14 29.547,16.676c3.174,2.262 3.807,2.317 6.879,0.599c1.861,-1.041 3.577,-3.241 3.813,-4.887c0.743,-5.172 -6.776,-11.19 -25.471,-20.391c-26.839,-13.209 -49.839,-27.793 -56.712,-35.962c-2.985,-3.547 -3.388,-5.807 -6.03,-33.826c-3.481,-36.909 -7.889,-97.404 -7.889,-108.27c0,-6.158 -0.55,-8.537 -2.349,-10.165c-3.081,-2.789 -7.009,-2.698 -9.652,0.223z" data-paper-data="{&quot;wickUUID&quot;:&quot;cd096114-6a66-4c07-a044-1166773da038&quot;,&quot;wickType&quot;:&quot;path&quot;,&quot;originalStyle&quot;:{&quot;strokeColor&quot;:null,&quot;fillColor&quot;:[&quot;Color&quot;,0,0,0],&quot;strokeWidth&quot;:1}}" fill="#000000"/><path d="M654.29823,-23.89543c-1.413,1.413 -2.569,3.371 -2.569,4.351c0,4.117 30.203,69.841 43.49,94.64c3.627,6.768 6.587,13.125 6.579,14.126c-0.008,1.001 -3.62,3.772 -8.026,6.158c-4.406,2.386 -12.69,7.42 -18.407,11.186c-7.392,4.868 -13.331,7.629 -20.548,9.551c-39.437,10.504 -69.866,24.855 -69.866,32.95c0,6.633 8.138,9.271 13.401,4.345c6.386,-5.975 30.144,-15.607 54.489,-22.089c15.77,-4.199 22.359,-6.989 29.709,-12.579c6.941,-5.278 24.854,-15.214 29.687,-16.466c2.546,-0.66 5.095,-2.475 6.173,-4.396c1.753,-3.123 0.805,-5.383 -20.854,-49.737c-21.376,-43.775 -25.381,-52.777 -23.481,-52.777c1.898,0 24.421,15.397 37.357,25.537c14.137,11.081 52.122,48.162 94.767,92.511c12.513,13.012 22.75,23.87 22.75,24.128c0,0.85 -20.838,27.687 -34.191,44.033c-19.46,23.823 -57.771,60.966 -100.65,97.583c-10.241,8.745 -25.556,22.622 -34.031,30.837c-16.852,16.333 -24.144,22.498 -36.173,30.585c-4.356,2.929 -10.713,7.664 -14.126,10.522c-3.413,2.858 -10.153,8.504 -14.976,12.545c-10.171,8.521 -12.138,12.047 -9.213,16.511c3.271,4.992 7.475,3.889 16.571,-4.347c12.347,-11.181 24.716,-21.002 35.826,-28.446c5.508,-3.691 18.8,-15.111 29.537,-25.379c10.737,-10.268 25.819,-23.956 33.515,-30.419c44.504,-37.371 87.667,-79.474 108.814,-106.139c32.359,-40.803 34.507,-43.821 34.507,-48.454c0,-3.975 -3.482,-7.918 -40.345,-45.69c-67.376,-69.034 -76.252,-77.163 -106.369,-97.414c-11.253,-7.567 -35.779,-20.335 -39.06,-20.335c-0.945,0 -2.875,1.156 -4.287,2.568z" data-paper-data="{&quot;wickUUID&quot;:&quot;d17d65c3-8d74-41a6-aa17-e0c0ccd3d63d&quot;,&quot;wickType&quot;:&quot;path&quot;,&quot;originalStyle&quot;:{&quot;strokeColor&quot;:null,&quot;fillColor&quot;:[&quot;Color&quot;,0,0,0],&quot;strokeWidth&quot;:1}}" fill="#000000"/><path d="M576.44323,274.02018c-3.307,1.335 -5.636,7.377 -4.269,11.074c0.986,2.664 0.715,2.702 -24.897,3.448c-14.242,0.415 -31.962,1.61 -39.378,2.657c-7.416,1.046 -25.331,2.286 -39.81,2.754c-31.807,1.029 -52.942,-1.144 -76.169,-7.829c-11.258,-3.241 -15.81,-4.042 -17.582,-3.093c-2.555,1.367 -4.461,5.672 -3.325,7.51c1.644,2.66 4.719,35.185 4.734,50.067l0.016,16.262l-5.724,13.631c-3.148,7.497 -6.693,15.505 -7.878,17.796c-2.649,5.121 -1.663,9.908 2.423,11.77c6.343,2.89 8.05,0.519 19.543,-27.144l5.602,-13.484l0.008,-17.979c0.005,-9.889 -0.618,-23.082 -1.382,-29.32c-0.765,-6.237 -1.117,-11.615 -0.781,-11.95c0.336,-0.336 3.997,0.239 8.136,1.277c21.289,5.341 45.617,7.142 78.468,5.81c13.955,-0.565 31.687,-1.919 39.402,-3.007c8.67,-1.223 23.391,-1.978 38.535,-1.978c13.478,0 26.486,-0.568 28.907,-1.263c2.42,-0.694 4.576,-1.087 4.79,-0.873c0.589,0.589 -2.869,17.889 -6.663,33.332c-3.768,15.336 -3.624,16.669 3.299,30.509c4.843,9.684 10.901,12.538 16.678,7.86c3.644,-2.951 5.246,-15.916 5.666,-45.855c0.243,-17.366 0.651,-21.149 2.606,-24.131c2.902,-4.43 1.803,-7.221 -6.74,-17.122c-9.506,-11.016 -16.18,-13.974 -24.215,-10.729z" data-paper-data="{&quot;wickUUID&quot;:&quot;96d1788e-7759-474b-ab12-fdeff702f4e9&quot;,&quot;wickType&quot;:&quot;path&quot;,&quot;originalStyle&quot;:{&quot;strokeColor&quot;:null,&quot;fillColor&quot;:[&quot;Color&quot;,0,0,0],&quot;strokeWidth&quot;:1}}" fill="#000000"/><path d="M388.46863,278.79859c-3.885,1.049 -10.315,2.299 -14.289,2.78c-3.974,0.48 -8.084,1.585 -9.133,2.456c-1.049,0.871 -4.588,6.122 -7.864,11.669c-5.986,10.137 -7.383,16.205 -4.415,19.173c2.24,2.24 7.506,1.887 10.359,-0.694c2.426,-2.196 2.459,-1.985 1.872,11.879c-0.762,18.01 -2.855,30.799 -6.854,41.884c-3.439,9.536 -2.931,13.021 2.133,14.628c4.15,1.317 8.481,-2.51 11.241,-9.933c1.822,-4.898 3.278,-6.895 5.244,-7.192c3.843,-0.579 9.227,-8.177 10.875,-15.344c2.806,-12.201 1.847,-21.788 -3.306,-33.044c-7.408,-16.182 -7.586,-15.11 3.075,-18.604c9.806,-3.215 22.909,-9.673 24.479,-12.064c1.548,-2.359 1.114,-5.618 -1.035,-7.767c-2.543,-2.543 -12.61,-2.465 -22.382,0.173z" data-paper-data="{&quot;wickUUID&quot;:&quot;0e605f99-2df6-407d-8ae8-f3fbf86cc121&quot;,&quot;wickType&quot;:&quot;path&quot;,&quot;originalStyle&quot;:{&quot;strokeColor&quot;:null,&quot;fillColor&quot;:[&quot;Color&quot;,0,0,0],&quot;strokeWidth&quot;:1}}" fill="#000000"/><path d="M501.47843,352.44639c-12.361,0.495 -42.122,0.98 -66.136,1.077c-39.602,0.159 -49.151,0.855 -46.61,3.397c2.227,2.227 137.212,-0.278 140.996,-2.617c2.083,-1.288 0.149,-3.236 -2.963,-2.985c-1.548,0.126 -12.927,0.633 -25.287,1.128z" data-paper-data="{&quot;wickUUID&quot;:&quot;57a6ae90-547a-4b48-95c1-63fbd44214ba&quot;,&quot;wickType&quot;:&quot;path&quot;,&quot;originalStyle&quot;:{&quot;strokeColor&quot;:null,&quot;fillColor&quot;:[&quot;Color&quot;,0,0,0],&quot;strokeWidth&quot;:1}}" fill="#000000"/><path d="M555.41424,349.02879c0,1.341 2.659,1.931 10.595,2.349c11.232,0.593 15.241,-0.6 9.436,-2.807c-5.445,-2.07 -20.031,-1.737 -20.031,0.458z" data-paper-data="{&quot;wickUUID&quot;:&quot;9c0dfab2-2c78-4cd9-a652-8dc5523380c5&quot;,&quot;wickType&quot;:&quot;path&quot;,&quot;originalStyle&quot;:{&quot;strokeColor&quot;:null,&quot;fillColor&quot;:[&quot;Color&quot;,0,0,0],&quot;strokeWidth&quot;:1}}" fill="#000000"/><path d="M430.39599,186.43211c-2.669,1.547 -3.809,3.182 -6.364,9.13c-3.624,8.436 -7.501,25.307 -7.489,32.588c0.006,3.997 0.556,6.016 2.615,9.606c3.064,5.343 5.539,7.302 9.223,7.302c5.285,0 7.258,-2.754 12.892,-17.99c5.954,-16.104 7.431,-23.707 6.021,-31.002c-1.939,-10.037 -9.131,-14.137 -16.898,-9.634z" data-paper-data="{&quot;wickUUID&quot;:&quot;2a21431d-ac98-4bd0-b483-f8f6e8682a78&quot;,&quot;wickType&quot;:&quot;path&quot;,&quot;originalStyle&quot;:{&quot;strokeColor&quot;:null,&quot;fillColor&quot;:[&quot;Color&quot;,0,0,0],&quot;strokeWidth&quot;:1}}" fill="#000000"/><path d="M549.1409,205.03762c-2.958,1.64 -4.422,4.72 -4.422,9.306c0.001,4.459 1.698,11.999 3.796,16.865c0.774,1.794 1.407,4.48 1.407,5.967c0,6.043 5.367,11.395 11.409,11.376c4.363,-0.013 7.121,-1.684 9.416,-5.704c4.462,-7.816 0.926,-25.89 -6.665,-34.067c-4.469,-4.814 -10.35,-6.287 -14.941,-3.743z" data-paper-data="{&quot;wickUUID&quot;:&quot;b6b77f5a-f4e7-4b7b-8d8b-dcc4229595e8&quot;,&quot;wickType&quot;:&quot;path&quot;,&quot;originalStyle&quot;:{&quot;strokeColor&quot;:null,&quot;fillColor&quot;:[&quot;Color&quot;,0,0,0],&quot;strokeWidth&quot;:1}}" fill="#000000"/><path d="M400.16994,417.23639c-1.805,1.805 -1.088,7.36 2.591,20.056c1.983,6.842 6.164,22.876 9.29,35.63c3.261,13.302 9.357,32.59 14.295,45.234l8.611,22.044h5.588c3.073,0 5.588,-0.664 5.588,-1.474c0,-0.811 -3.854,-11.221 -8.564,-23.133c-5.498,-13.905 -11.34,-32.614 -16.319,-52.264c-10.881,-42.948 -12.016,-46.169 -16.453,-46.686c-1.987,-0.232 -4.069,0.035 -4.627,0.593z" data-paper-data="{&quot;wickUUID&quot;:&quot;1b769b84-5db4-4181-8f38-a666f377aa6a&quot;,&quot;wickType&quot;:&quot;path&quot;}" fill="#000000"/><path d="M565.67468,404.34505c-0.764,2.008 -1.388,17.201 -1.388,33.761c0,55.435 -6.525,119.485 -14.149,138.894c-2.453,6.245 -2.81,6.513 -10.92,8.225c-12.415,2.619 -50.088,2.436 -63.932,-0.312l-11.417,-2.267l-4.002,-13.749c-3.817,-13.115 -17.274,-45.659 -21.76,-52.628c-2.39,-3.711 -7.199,-3.769 -9.489,-0.114c-1.088,1.736 0.824,7.415 7.909,23.488c7.608,17.26 12.611,31.918 17.465,51.17c0.855,3.39 22.616,5.602 54.065,5.494c32.307,-0.111 45.289,-1.197 47.473,-3.97c5.578,-7.086 13.297,-45.374 15.889,-78.824c0.835,-10.768 2.134,-25.452 2.887,-32.632c2.036,-19.421 1.79,-76.35 -0.339,-78.479c-2.869,-2.869 -6.814,-1.944 -8.292,1.943z" data-paper-data="{&quot;wickUUID&quot;:&quot;7f570008-9af0-4b4b-8d58-2d33fe4274ee&quot;,&quot;wickType&quot;:&quot;path&quot;}" fill="#000000"/></g><g fill="none" fill-rule="nonzero" stroke="none" stroke-width="1" stroke-linecap="butt" stroke-linejoin="miter" stroke-miterlimit="10" stroke-dasharray="" stroke-dashoffset="0" font-family="sans-serif" font-weight="normal" font-size="12" text-anchor="start" style="mix-blend-mode: normal"/><g id="wick_project_gui" fill="none" fill-rule="nonzero" stroke="none" stroke-width="1" stroke-linecap="butt" stroke-linejoin="miter" stroke-miterlimit="10" stroke-dasharray="" stroke-dashoffset="0" font-family="sans-serif" font-weight="normal" font-size="12" text-anchor="start" style="mix-blend-mode: normal"/></g></svg>