<svg version="1.1" xmlns="http://www.w3.org/2000/svg" xmlns:xlink="http://www.w3.org/1999/xlink" width="1107" height="504" viewBox="0,0,1107,504"><g transform="translate(455.06213,71.06519) scale(0.33539,0.33539)"><g id="wick_project_bg" fill-opacity="0" fill="#ffffff" fill-rule="nonzero" stroke="none" stroke-width="1" stroke-linecap="butt" stroke-linejoin="miter" stroke-miterlimit="10" stroke-dasharray="" stroke-dashoffset="0" font-family="none" font-weight="none" font-size="none" text-anchor="none" style="mix-blend-mode: normal"><rect x="0" y="0" width="720" height="480"/></g><g data-paper-data="{&quot;wickUUID&quot;:&quot;f6fa6488-dc37-4e02-904c-bc2d75adc5fa&quot;,&quot;wickType&quot;:&quot;clipsandpaths&quot;}" fill="none" fill-rule="evenodd" stroke="none" stroke-width="1" stroke-linecap="butt" stroke-linejoin="miter" stroke-miterlimit="10" stroke-dasharray="" stroke-dashoffset="0" font-family="none" font-weight="none" font-size="none" text-anchor="none" style="mix-blend-mode: normal"><path d="M388.82382,253.74981c-0.41967,0.44667 -3.8165,1.11136 -5.85717,2.56769c-4.18367,2.98533 -5.96331,4.75931 -9.58598,9.55164c-4.24933,5.62167 -7.70203,8.5345 -11.03436,9.1595c-1.27767,0.23967 -5.40418,-0.74797 -9.28785,-2.06864c-1.274,-0.43333 -2.55359,-0.80989 -2.62559,-0.80989c-0.07167,0 -0.85569,1.39691 -0.71802,1.80924c0.13733,0.41233 0.47822,1.56922 0.69322,2.39055c0.29233,1.118 1.23344,2.03285 1.83111,2.20018c1.259,0.35267 8.15799,0.26361 10.13732,-0.10339c4.73733,-0.87833 14.96335,-7.59055 18.93168,-12.42722c4.47933,-5.45867 10.78364,-15.74799 7.51564,-12.26966z" data-paper-data="{&quot;wickUUID&quot;:&quot;58b309a4-9ca5-4410-abc3-2d5ff68bbb84&quot;,&quot;wickType&quot;:&quot;path&quot;,&quot;originalStyle&quot;:{&quot;strokeColor&quot;:null,&quot;fillColor&quot;:[&quot;Color&quot;,1,1,1],&quot;strokeWidth&quot;:1}}" id="58b309a4-9ca5-4410-abc3-2d5ff68bbb84" fill="#ffffff"/><path d="M323.04228,153.04315c-2.53167,0.72433 -11.62278,4.26399 -14.41778,5.60999c-5.452,2.625 -10.3594,7.71437 -15.07073,15.6267c-3.677,6.175 -6.77047,13.60169 -8.22747,19.69469c-2.80533,11.72833 -3.26585,37.74943 -0.80218,45.3361c0.90267,2.78033 2.29797,4.75523 6.34097,8.35356c7.217,6.42267 16.12928,12.66928 26.82595,18.79728l6.91922,3.93507l9.01326,0.42503c4.85833,0.218 9.42173,0.47366 10.15506,0.56866l2.13138,-1.08756l-2.16679,-1.40667c-9.048,-5.30233 -12.41903,-7.14552 -18.34603,-10.03152c-3.75833,-1.83 -7.48984,-3.65081 -8.30184,-4.05081c-0.812,-0.40033 -1.35599,-0.10953 -1.70299,-0.58386c-2.67233,-3.64867 1.09076,-10.29894 5.84509,-10.33061c1.47167,-0.01 3.08488,-0.83626 6.02855,-3.19793c2.649,-2.12467 8.75376,-8.24038 13.56276,-13.59071c4.22533,-4.70067 8.56846,-8.76956 14.37246,-13.46456c5.273,-4.26567 7.55826,-6.56296 9.34559,-9.33996c1.58267,-2.459 2.16643,-3.99978 2.94876,-8.14578c0.38633,-2.04733 0.8004,-3.97677 1.0324,-4.53144c0.51233,-1.22333 2.14949,-2.86014 3.94449,-3.77581c3.12367,-1.59367 4.3969,-1.51498 6.6129,1.13602c2.256,2.699 2.19252,2.7324 2.42085,12.89207c0.25567,11.38267 0.03527,10.66864 5.7366,18.58297c3.073,4.26567 6.10047,11.40571 7.38714,17.61304c0.26667,1.28633 1.79297,0.76518 4.30864,-6.72749c1.769,-5.26767 2.58101,-8.49966 2.45768,-9.11099c-0.247,-1.223 -7.46582,-22.28035 -9.62815,-28.07968c-4.87567,-13.07733 -8.20465,-19.01469 -13.66432,-24.52836c-4.306,-4.34867 -13.98314,-10.01026 -22.42581,-13.07793c-4.40367,-1.6 -7.28408,-2.22983 -13.58741,-2.91916c-4.70467,-0.51433 -17.89658,-0.91968 -19.04825,-0.59035zM349.00582,163.51899c2.99433,0.433 3.92559,0.9529 5.99959,3.27857c2.528,2.83533 3.24925,4.38651 3.26792,7.31751c0.01967,3.07133 -0.81458,4.95288 -3.19525,7.27188c-2.10233,2.04733 -5.91595,3.95069 -9.28662,4.66436c-3.44467,0.729 -7.96265,0.81121 -9.26798,0.10954c-1.42067,-0.76367 -5.76738,-5.40125 -7.45605,-7.90892c-1.94367,-2.88533 -2.15512,-3.14414 -1.43979,-5.31914c0.78467,-2.387 4.92248,-6.53415 8.11981,-8.12715c3.15133,-1.57033 8.0907,-2.03398 13.25837,-1.28665zM311.2555,199.20724c2.94267,0.61567 4.93038,1.77491 6.51571,3.92824c3.15,4.279 4.0564,8.38036 2.74507,12.74269c-1.55267,5.16533 -4.06651,8.36564 -7.18218,9.18764c-2.818,0.74333 -10.78418,1.51676 -12.75685,1.27043c-1.65467,-0.20667 -1.32731,-0.05981 -3.14631,-1.95981c-2.39833,-2.506 -4.05954,-5.38946 -5.51987,-9.62546c-1.3,-3.77 -1.45804,-5.18596 -0.45804,-7.91429c1.17733,-3.21233 2.85313,-4.48563 8.45846,-6.59563c3.657,-1.37633 7.87968,-1.75881 11.34401,-1.03381z" data-paper-data="{&quot;wickUUID&quot;:&quot;e4163afe-a12c-49f4-bda0-666bb4539318&quot;,&quot;wickType&quot;:&quot;path&quot;,&quot;originalStyle&quot;:{&quot;strokeColor&quot;:null,&quot;fillColor&quot;:[&quot;Color&quot;,1,1,1],&quot;strokeWidth&quot;:1}}" id="e4163afe-a12c-49f4-bda0-666bb4539318" fill="#ffffff"/><path d="M368.94008,214.51495c-0.85433,1.077 -3.72489,3.4461 -9.12822,7.6241c-4.274,3.30467 -10.35998,9.12299 -13.69398,13.09199c-4.41467,5.25533 -8.90928,9.94329 -11.50861,12.00429c-1.38767,1.1 -2.46037,3.32714 -2.45904,3.41881c0.005,0.32233 15.002,9.28591 18.45033,11.02524c3.58133,1.80633 8.53298,3.50056 10.00631,3.50056c1.08167,0 2.0734,-0.73113 5.01273,-4.9138c3.25033,-4.62567 6.82996,-8.17828 12.35329,-12.26028c4.913,-3.631 6.7574,-5.82614 7.0834,-7.56314c0.50867,-2.71133 -2.05501,-9.29005 -5.85868,-14.77205c-1.22167,-1.76033 -2.73055,-3.96132 -3.29188,-4.77999c-0.56133,-0.81867 -1.73225,-2.83251 -2.46825,-4.30551c-1.55,-3.10267 -3.22807,-3.66922 -4.4974,-2.07022z" data-paper-data="{&quot;wickUUID&quot;:&quot;ee5c1e95-c70b-427b-bf94-b4c1741ad713&quot;,&quot;wickType&quot;:&quot;path&quot;,&quot;originalStyle&quot;:{&quot;strokeColor&quot;:null,&quot;fillColor&quot;:[&quot;Color&quot;,0.1451,0.00784,0.17255],&quot;strokeWidth&quot;:1}}" id="ee5c1e95-c70b-427b-bf94-b4c1741ad713" fill="#25022c"/><path d="M410.08062,219.33284c0.732,4.06767 0.10607,7.54091 -3.2836,18.04691c-3.10933,9.63733 -5.77385,15.73998 -9.91885,22.63065c-7.701,12.80233 -12.61796,17.89875 -22.58429,23.45675l-3.76767,2.21916l2.27788,2.18635c1.07467,0.57433 2.29343,1.27192 2.9311,1.72225c4.39733,3.10433 28.94397,28.90154 34.36964,36.12421c7.29767,9.71467 12.94269,20.82419 18.04869,35.46652c1.21867,3.49533 2.48698,6.63629 2.67965,6.76762c0.19267,0.131 2.48129,1.09532 4.68129,1.84899c4.382,1.50133 11.30234,4.37221 14.87467,6.17121c4.86533,2.45033 13.51193,5.5139 19.8776,7.0449c3.22433,0.77567 4.45993,0.87876 7.5376,0.69809c9.65567,-0.566 32.61386,-5.26564 45.94653,-9.40164c12.95367,-4.01833 21.59803,-8.31 26.03303,-12.894c5.42733,-5.60967 19.06053,-23.75129 19.06053,-25.29962c0,-1.345 -6.99532,-12.49537 -13.70065,-21.50537c-2.852,-3.83233 -7.94436,-8.8917 -19.59903,-19.4647c-21.751,-19.73167 -39.08254,-33.65475 -56.09187,-45.06642c-18.14567,-12.174 -41.6884,-25.45726 -49.7904,-28.09026c-2.89,-0.939 -8.22362,-2.31397 -16.03562,-4.09664l-3.1948,-0.61697z" data-paper-data="{&quot;wickUUID&quot;:&quot;4d75541b-ffd1-417f-948b-2d60f3bf14f3&quot;,&quot;wickType&quot;:&quot;path&quot;,&quot;originalStyle&quot;:{&quot;strokeColor&quot;:null,&quot;fillColor&quot;:[&quot;Color&quot;,0,0.8,0],&quot;strokeWidth&quot;:1}}" id="4d75541b-ffd1-417f-948b-2d60f3bf14f3" fill="#00cc00"/><path d="M309.19219,38.47138c-0.68,2.607 -1.88891,13.16572 -5.86991,51.26739c-1.015,9.71667 -2.9049,27.12183 -4.1989,38.67183c-2.80267,25.01533 -2.78862,24.89591 -2.52229,24.89591c0.11567,0 2.06477,0.28496 2.92344,-0.37071c4.69133,-3.58067 19.09441,-8.77136 25.86408,-9.32069l3.05436,-0.35991l1.47716,-3.16879c1.30833,-3.04767 6.78231,-13.80996 9.57764,-18.82863c4.65267,-8.353 11.37311,-19.13751 16.98478,-27.25684l3.32149,-4.99679l-2.83945,-2.60456c-8.683,-6.438 -21.97084,-19.7034 -28.13184,-28.08473c-0.96933,-1.319 -2.56402,-3.79252 -3.60169,-5.56485c-3.51167,-5.996 -9.92218,-13.58749 -12.87251,-15.24382l-2.23442,-1.01248z" data-paper-data="{&quot;wickUUID&quot;:&quot;991b907f-9acb-4e03-a078-6a40cda61de7&quot;,&quot;wickType&quot;:&quot;path&quot;,&quot;originalStyle&quot;:{&quot;strokeColor&quot;:null,&quot;fillColor&quot;:[&quot;Color&quot;,1,0,0.50196],&quot;strokeWidth&quot;:1}}" id="991b907f-9acb-4e03-a078-6a40cda61de7" fill="#ff0080"/><path d="M422.95049,17.46104c-0.47433,0.663 -3.39258,4.66215 -6.47925,8.87882c-11.207,15.311 -44.7705,62.5128 -54.1685,76.1798c-5.177,7.52833 -10.73417,16.69639 -15.28284,25.21739c-1.56567,2.93333 -3.97935,7.44655 -5.33968,9.98688c-1.36033,2.54033 -2.49631,5.27081 -2.43931,5.32281c0.05667,0.052 2.32353,0.94131 4.3402,1.24664c10.35167,1.56667 22.06099,5.4057 29.50899,9.68337c4.72767,2.715 6.61184,4.21081 11.59484,9.19648c7.344,7.34733 9.56805,11.04221 14.28438,23.66421c0.804,2.15133 2.21602,4.335 2.32935,4.33767c0.11333,0.00267 2.22234,-1.76362 3.92334,-3.68195c5.21433,-5.87967 10.93019,-10.55496 20.77519,-16.99229l4.86219,-3.38141l-0.13041,-9.6611c-0.15867,-8.26067 -0.89174,-20.98141 -1.87274,-32.49441c-1.15667,-13.579 -1.66764,-28.5868 -2.00331,-58.82347c-0.29133,-26.26733 -0.74566,-43.21233 -1.27466,-47.53833l-0.63506,-2.57146z" data-paper-data="{&quot;wickUUID&quot;:&quot;9f8607b2-ae79-46fa-8667-1e5649eb8095&quot;,&quot;wickType&quot;:&quot;path&quot;,&quot;originalStyle&quot;:{&quot;strokeColor&quot;:null,&quot;fillColor&quot;:[&quot;Color&quot;,1,0,0.50196],&quot;strokeWidth&quot;:1}}" id="9f8607b2-ae79-46fa-8667-1e5649eb8095" fill="#ff0080"/><path d="M323.45241,143.32375c-3.459,0.463 -10.255,2.485 -15.102,4.494c-7.197,2.983 -9.78,4.675 -14.089,9.227c-2.903,3.066 -6.408,7.137 -7.79,9.047c-4.439,6.133 -9.531,19.059 -11.681,29.652c-3.278,16.152 -2.57,40.601 1.455,50.234c1.631,3.903 21.536,21.932 30.539,27.661c15.077,9.592 16.177,10.095 28.296,12.92c10.247,2.389 13.508,2.741 21.504,2.323c8.163,-0.427 10.25,-0.925 15.597,-3.717c10.539,-5.506 15.236,-9.591 20.931,-18.206c7.498,-11.344 10.766,-18.264 14.839,-31.423c3.017,-9.752 3.405,-12.058 2.667,-15.877c-1.299,-6.72 -12.674,-38.375 -16.138,-44.911c-3.534,-6.667 -11.117,-14.818 -17.945,-19.289c-13.952,-9.136 -36.673,-14.33 -53.083,-12.135zM350.57541,155.61775c9.626,2.53 21.721,8.983 27.122,14.47c6.603,6.708 9.854,13.28 17.105,34.576l6.209,18.235l-3.274,10.039c-3.704,11.356 -7.532,19.445 -12.967,27.4c-4.689,6.861 -7.854,9.808 -15.346,14.29c-5.132,3.071 -6.806,3.562 -12.153,3.564c-5.321,0.002 -6.2,-0.252 -6.2,-1.792c0,-0.987 -0.633,-2.661 -1.406,-3.72c-1.214,-1.663 -3.009,-1.993 -13.168,-2.422l-11.763,-0.496l-10.889,-6.268c-5.989,-3.447 -14.759,-9.59 -19.49,-13.65c-7.891,-6.774 -8.688,-7.795 -9.672,-12.383c-1.794,-8.365 -1.306,-31.925 0.865,-41.743c2.381,-10.766 8.325,-22.709 14.859,-29.859c4.087,-4.471 6.453,-6.058 12.714,-8.525c4.231,-1.667 8.585,-3.258 9.676,-3.536c3.693,-0.94 21.789,0.246 27.778,1.82z" data-paper-data="{&quot;wickUUID&quot;:&quot;557e9d41-0fac-4834-b9f0-f443204209be&quot;,&quot;wickType&quot;:&quot;path&quot;,&quot;originalStyle&quot;:{&quot;strokeColor&quot;:null,&quot;fillColor&quot;:[&quot;Color&quot;,0,0,0],&quot;strokeWidth&quot;:1}}" id="557e9d41-0fac-4834-b9f0-f443204209be" fill="#000000"/><path d="M401.70456,207.71981c-1.112,1.112 -2.022,2.607 -2.022,3.321c0,3.57 2.842,4.927 16.933,8.086c15.293,3.429 17.625,4.418 37.874,16.053c25.746,14.794 43.731,27.833 69.608,50.467c13.394,11.716 26.395,23.872 28.891,27.014c6.311,7.945 15.345,21.697 15.345,23.359c0,1.882 -14.672,21.058 -20.001,26.141c-5.046,4.814 -17.167,9.911 -34.067,14.327c-12.749,3.332 -32.618,6.865 -38.603,6.865c-4.758,0 -18.281,-4.323 -26.377,-8.432c-3.001,-1.523 -8.354,-3.784 -11.896,-5.023l-6.44,-2.254l-3.037,-8.763c-5.418,-15.63 -13.854,-30.472 -22.73,-39.985c-24.99,-26.784 -28.108,-29.807 -32.903,-31.895c-2.661,-1.158 -6.803,-2.986 -9.203,-4.06c-6.462,-2.894 -9.862,-0.954 -9.072,5.174c0.284,2.204 3.79,4.611 10.267,7.046c5.158,1.94 7.39,3.87 21.33,18.45c8.563,8.956 17.467,19.141 19.786,22.633c4.893,7.367 11.086,20.994 14.023,30.856c2.676,8.984 3.771,10.314 9.356,11.357c2.569,0.48 9.464,3.071 15.323,5.757c16.76,7.685 23.263,9.569 32.478,9.407c22.507,-0.396 67.034,-13.094 77.944,-22.228c2.581,-2.161 9.09,-9.814 14.466,-17.007c9.418,-12.604 9.772,-13.264 9.772,-18.2c0,-4.657 -0.593,-6.011 -6.543,-14.939c-10.97,-16.46 -16.348,-22.199 -40.938,-43.692c-29.788,-26.035 -52.574,-41.891 -85.368,-59.403c-8.776,-4.686 -12.879,-6.201 -22.758,-8.405c-19.513,-4.351 -19.148,-4.317 -21.438,-2.027z" data-paper-data="{&quot;wickUUID&quot;:&quot;1f0ba03b-3354-480c-92c6-44c9afda7082&quot;,&quot;wickType&quot;:&quot;path&quot;,&quot;originalStyle&quot;:{&quot;strokeColor&quot;:null,&quot;fillColor&quot;:[&quot;Color&quot;,0,0,0],&quot;strokeWidth&quot;:1}}" id="1f0ba03b-3354-480c-92c6-44c9afda7082" fill="#000000"/><path d="M198.52224,224.17789c-3.163,2.215 -4.469,5.047 -5.697,12.35l-1.083,6.448l-9.869,0.496c-10.21,0.514 -12.86,1.382 -17.545,5.752c-6.196,5.777 -3.815,14.087 5.139,17.939c6.898,2.967 12.423,2.711 20.223,-0.939c9.535,-4.462 14.564,-4.62 30.429,-0.957c21.438,4.95 85.401,14.912 95.745,14.912c4.688,0 5.617,-0.333 7.051,-2.521c1.308,-1.996 1.426,-3.018 0.565,-4.907c-1.187,-2.606 -2.703,-3.003 -15.068,-3.951c-11.203,-0.858 -61.619,-8.989 -81.597,-13.159c-19.445,-4.06 -18.792,-3.606 -16.121,-11.177c1.768,-5.01 1.836,-7.138 0.397,-12.322c-1.227,-4.421 -5.79,-9.503 -8.532,-9.503c-1.012,0 -2.829,0.693 -4.037,1.539z" data-paper-data="{&quot;wickUUID&quot;:&quot;4a7374a3-14f8-42a2-a8cf-e4d07a8932db&quot;,&quot;wickType&quot;:&quot;path&quot;,&quot;originalStyle&quot;:{&quot;strokeColor&quot;:null,&quot;fillColor&quot;:[&quot;Color&quot;,0,0,0],&quot;strokeWidth&quot;:1}}" id="4a7374a3-14f8-42a2-a8cf-e4d07a8932db" fill="#000000"/><path d="M458.58175,101.59408c-3.168,1.279 -6.305,12.641 -6.493,23.517c-0.122,7.052 0.338,10.165 2.384,16.132l2.535,7.394l-5.736,13.936c-3.154,7.664 -9.087,20.855 -13.184,29.312c-10.002,20.644 -10.512,22.189 -8.18,24.765c2.244,2.48 5.675,2.607 7.649,0.284c0.811,-0.954 2.5,-4.191 3.752,-7.192c1.252,-3.001 5.084,-11.067 8.515,-17.924c3.432,-6.857 8.579,-18.389 11.439,-25.627l5.201,-13.159l3.564,0.825c6.51,1.508 16.102,0.835 22.615,-1.585c11.999,-4.458 24.101,-20.831 24.103,-32.609c0.001,-7.167 -2.105,-10.838 -7.612,-13.274c-5.163,-2.284 -8.603,-1.954 -16.626,1.595c-7.16,3.166 -11.939,7.69 -15.033,14.23l-2.645,5.591l-1.805,-2.229c-0.993,-1.226 -2.072,-4.33 -2.399,-6.899c-1.317,-10.351 -1.712,-11.529 -4.95,-14.767c-3.522,-3.523 -3.845,-3.628 -7.094,-2.316z" data-paper-data="{&quot;wickUUID&quot;:&quot;624e4b23-ec5e-4b22-965e-405f408ce2e4&quot;,&quot;wickType&quot;:&quot;path&quot;,&quot;originalStyle&quot;:{&quot;strokeColor&quot;:null,&quot;fillColor&quot;:[&quot;Color&quot;,0,0,0],&quot;strokeWidth&quot;:1}}" id="624e4b23-ec5e-4b22-965e-405f408ce2e4" fill="#000000"/><path d="M427.8119,-3.77565c-1.171,0.184 -2.793,1.091 -3.606,2.016c-2.458,2.796 -56.722,78.854 -69.147,96.918c-7.043,10.24 -14.841,23.207 -19.849,33.007c-7.214,14.119 -8.112,16.439 -7.166,18.515c1.312,2.88 4.402,4.019 7.052,2.6c1.077,-0.576 5.393,-7.829 9.591,-16.118c4.199,-8.29 11.605,-20.901 16.458,-28.026c13.068,-19.185 62.75,-88.733 63.431,-88.794c0.87,-0.078 1.892,32.514 1.894,60.374c0,15.185 0.745,33.945 1.973,49.692c1.084,13.914 1.977,28.703 1.983,32.866l0.011,7.567l-5.682,3.841c-11.009,7.443 -14.712,10.533 -20.465,17.076c-7.569,8.608 -8.334,10.273 -6.213,13.511c2.806,4.283 5.164,3.206 14.879,-6.798c4.976,-5.125 11.663,-10.973 14.858,-12.995c3.196,-2.022 7.548,-5.247 9.673,-7.166c3.787,-3.421 3.862,-3.625 3.862,-10.419c0,-3.811 -0.901,-18.379 -2.004,-32.374c-1.41,-17.907 -2.242,-41.024 -2.807,-78.025c-0.55,-35.968 -1.161,-53.246 -1.933,-54.688c-1.219,-2.275 -3.42,-3.111 -6.793,-2.58z" data-paper-data="{&quot;wickUUID&quot;:&quot;15d31d83-36b6-4f3e-9ec0-82a89e226275&quot;,&quot;wickType&quot;:&quot;path&quot;,&quot;originalStyle&quot;:{&quot;strokeColor&quot;:null,&quot;fillColor&quot;:[&quot;Color&quot;,0,0,0],&quot;strokeWidth&quot;:1}}" id="15d31d83-36b6-4f3e-9ec0-82a89e226275" fill="#000000"/><path d="M368.66542,214.85367c-0.93167,0.932 -4.27929,3.68489 -7.14896,5.93156c-5.958,4.66467 -11.73134,10.08095 -15.39467,14.44195c-4.41467,5.25533 -8.91319,9.94715 -11.51252,12.00815c-1.38767,1.1 -2.46037,3.32714 -2.45904,3.41881c0.005,0.32233 15.00237,9.2861 18.4507,11.02543c3.61267,1.822 8.54559,3.49938 10.04959,3.49938c1.056,0 2.46673,-1.18947 5.1194,-5.10147c2.76933,-4.08367 6.90642,-8.18329 12.25342,-12.13062c6.78767,-5.011 7.71863,-6.73054 6.69863,-10.89621c-0.82933,-3.385 -2.9226,-7.60644 -6.81827,-13.29811c-1.94467,-2.841 -4.09453,-6.28783 -4.61953,-7.44583c-1.44933,-3.19667 -2.60842,-3.46304 -4.61875,-1.45304z" data-paper-data="{&quot;wickUUID&quot;:&quot;17ce08ea-4fad-4199-981e-ebd8857351d9&quot;,&quot;wickType&quot;:&quot;path&quot;,&quot;originalStyle&quot;:{&quot;strokeColor&quot;:null,&quot;fillColor&quot;:[&quot;Color&quot;,0.1451,0.00784,0.17255],&quot;strokeWidth&quot;:1}}" id="17ce08ea-4fad-4199-981e-ebd8857351d9" fill="#25022c"/><path d="M304.73317,25.46606c-5.225,5.715 -5.358,6.452 -11.194,62.014c-2.192,20.876 -5.088,47.155 -6.435,58.398c-1.674,13.967 -2.143,21.012 -1.484,22.244c2.13,3.98 8.372,3.106 9.386,-1.315c0.767,-3.345 4.955,-39.889 8.894,-77.601c4.628,-44.314 5.599,-52.083 6.512,-52.083c2.411,0 11.275,9.864 14.561,16.203c5.897,11.374 32.959,37.368 38.904,37.368c3.367,0 5.051,-1.656 5.051,-4.964c0,-2.854 -3.273,-6.316 -11.607,-12.276c-7.142,-5.108 -20.504,-20.266 -24.041,-27.273c-2.095,-4.15 -5.572,-8.277 -12.116,-14.383c-9.987,-9.32 -12.732,-10.377 -16.431,-6.332z" data-paper-data="{&quot;wickUUID&quot;:&quot;eed4df0a-431b-4015-986a-a7087d5610d2&quot;,&quot;wickType&quot;:&quot;path&quot;,&quot;originalStyle&quot;:{&quot;strokeColor&quot;:null,&quot;fillColor&quot;:[&quot;Color&quot;,0,0,0],&quot;strokeWidth&quot;:1}}" id="eed4df0a-431b-4015-986a-a7087d5610d2" fill="#000000"/><path d="M371.18702,187.86887c-3.1,1.91 -3.475,2.701 -4.675,9.855c-0.916,5.457 -4.252,9.735 -12.472,15.992c-4.258,3.242 -10.128,8.659 -13.044,12.039c-8.92,10.34 -17.003,17.674 -19.504,17.696c-3.444,0.032 -5.725,1.596 -7.074,4.854c-1.462,3.528 -0.195,6.581 3.17,7.641c3.786,1.192 14.742,6.851 22.95,11.854c4.443,2.708 10.806,5.568 14.735,6.621c6.657,1.786 7.051,1.789 10.524,0.086c2.255,-1.105 5.238,-4.119 7.95,-8.03c2.388,-3.444 6.092,-7.366 8.231,-8.716c6.719,-4.241 11.354,-9.083 12.752,-13.321c1.214,-3.678 1.128,-4.809 -0.895,-11.696c-1.401,-4.773 -3.634,-9.48 -5.97,-12.585c-5.756,-7.652 -5.985,-8.391 -5.755,-18.628c0.184,-8.264 -0.054,-9.828 -1.872,-12.286c-2.611,-3.529 -4.974,-3.888 -9.051,-1.376zM372.88002,216.64587c0.669,1.615 2.943,5.251 5.053,8.079c4.683,6.276 7.32,12.846 6.488,16.162c-0.34,1.354 -2.449,3.717 -4.686,5.252c-6.925,4.75 -10.8,8.374 -14.023,13.112c-1.706,2.507 -3.51,4.836 -4.011,5.175c-1.582,1.073 -9.153,-1.787 -16.215,-6.124c-3.748,-2.303 -8.317,-5.093 -10.152,-6.2l-3.337,-2.014l4.092,-3.399c2.25,-1.87 6.798,-6.711 10.105,-10.759c3.308,-4.048 9.45,-9.975 13.649,-13.171c4.199,-3.197 8.239,-6.54 8.978,-7.43c1.896,-2.285 2.671,-2.034 4.059,1.317z" data-paper-data="{&quot;wickUUID&quot;:&quot;6bdfbeb4-c995-4c3a-bfb2-1ded7426a019&quot;,&quot;wickType&quot;:&quot;path&quot;,&quot;originalStyle&quot;:{&quot;strokeColor&quot;:null,&quot;fillColor&quot;:[&quot;Color&quot;,0,0,0],&quot;strokeWidth&quot;:1}}" id="6bdfbeb4-c995-4c3a-bfb2-1ded7426a019" fill="#000000"/><path d="M299.17949,199.7393c-6.104,2.454 -7.291,3.485 -8.608,7.473c-0.887,2.69 -0.713,4.237 0.995,8.801c1.14,3.046 3.31,6.863 4.823,8.483c2.623,2.808 3.051,2.923 9.124,2.45c3.504,-0.272 7.623,-0.97 9.152,-1.551c2.92,-1.109 5.904,-5.904 7.087,-11.388c0.881,-4.081 -2.228,-11.375 -5.863,-13.757c-3.903,-2.558 -11.074,-2.777 -16.71,-0.511z" data-paper-data="{&quot;wickUUID&quot;:&quot;23d01842-ae8e-4769-a0b1-74f1a0ab7341&quot;,&quot;wickType&quot;:&quot;path&quot;,&quot;originalStyle&quot;:{&quot;strokeColor&quot;:null,&quot;fillColor&quot;:[&quot;Color&quot;,0,0,0],&quot;strokeWidth&quot;:1}}" id="23d01842-ae8e-4769-a0b1-74f1a0ab7341" fill="#000000"/><path d="M338.43606,163.03202c-4.437,1.132 -9.643,5.316 -11.155,8.964c-1.155,2.79 -1.025,3.393 1.52,7.066c1.531,2.209 4.039,5.073 5.574,6.364c2.45,2.062 3.49,2.282 8.504,1.798c13.941,-1.344 20.712,-12.207 12.905,-20.702c-2.795,-3.041 -3.951,-3.562 -8.681,-3.909c-3.001,-0.22 -6.901,-0.032 -8.667,0.419z" data-paper-data="{&quot;wickUUID&quot;:&quot;1514e242-004d-48b5-ad05-ec77e2a4b99a&quot;,&quot;wickType&quot;:&quot;path&quot;,&quot;originalStyle&quot;:{&quot;strokeColor&quot;:null,&quot;fillColor&quot;:[&quot;Color&quot;,0,0,0],&quot;strokeWidth&quot;:1}}" id="1514e242-004d-48b5-ad05-ec77e2a4b99a" fill="#000000"/><path d="M560.22518,359.20605c-1.136,1.135 -2.064,2.482 -2.064,2.993c0,3.946 12.299,24.914 37.773,64.396c16.405,25.428 30.832,47.912 32.06,49.965c3.002,5.022 4.605,5.726 11.177,4.905c6.87,-0.859 9.039,-2.334 9.039,-6.149c0,-3.793 -2.915,-5.973 -7.11,-5.318c-3.877,0.606 -3.222,1.443 -23.302,-29.773c-36.043,-56.035 -42.596,-66.557 -45.742,-73.447c-4.314,-9.449 -7.753,-11.65 -11.831,-7.572z" data-paper-data="{&quot;wickUUID&quot;:&quot;2fcf15d0-b24f-4c7e-a4c1-217401bd7820&quot;,&quot;wickType&quot;:&quot;path&quot;,&quot;originalStyle&quot;:{&quot;strokeColor&quot;:null,&quot;fillColor&quot;:[&quot;Color&quot;,0,0,0],&quot;strokeWidth&quot;:1}}" fill="#000000"/><path d="M461.26943,389.39421c-7.159,6.028 -30.671,33.611 -39.957,46.875c-11.118,15.881 -11.261,15.298 6.836,27.861c10.8,7.497 14.312,10.458 13.816,11.651c-1.611,3.88 -1.521,5.151 0.507,7.18c1.821,1.821 3.418,2.159 10.187,2.159c9.76,0 12.614,-1.514 12.614,-6.691c0,-3.153 -0.554,-3.794 -5.934,-6.865c-5.427,-3.097 -21.722,-14.085 -29.947,-20.194l-3.371,-2.503l5.215,-7.544c6.032,-8.726 31.17,-38.336 37.793,-44.518c4.993,-4.66 5.497,-6.673 2.437,-9.733c-2.938,-2.938 -4.323,-2.622 -10.196,2.322z" data-paper-data="{&quot;wickUUID&quot;:&quot;a2b2ce59-1e2d-4ba6-9271-a367c032bb06&quot;,&quot;wickType&quot;:&quot;path&quot;,&quot;originalStyle&quot;:{&quot;strokeColor&quot;:null,&quot;fillColor&quot;:[&quot;Color&quot;,0,0,0],&quot;strokeWidth&quot;:1}}" fill="#000000"/></g><g fill="none" fill-rule="nonzero" stroke="none" stroke-width="1" stroke-linecap="butt" stroke-linejoin="miter" stroke-miterlimit="10" stroke-dasharray="" stroke-dashoffset="0" font-family="sans-serif" font-weight="normal" font-size="12" text-anchor="start" style="mix-blend-mode: normal"/><g id="wick_project_gui" fill="none" fill-rule="nonzero" stroke="none" stroke-width="1" stroke-linecap="butt" stroke-linejoin="miter" stroke-miterlimit="10" stroke-dasharray="" stroke-dashoffset="0" font-family="sans-serif" font-weight="normal" font-size="12" text-anchor="start" style="mix-blend-mode: normal"/></g></svg>