<svg version="1.1" xmlns="http://www.w3.org/2000/svg" xmlns:xlink="http://www.w3.org/1999/xlink" width="1107" height="504" viewBox="0,0,1107,504"><g transform="translate(455.06213,71.06519) scale(0.33539,0.33539)"><g id="wick_project_bg" fill-opacity="0" fill="#ffffff" fill-rule="nonzero" stroke="none" stroke-width="1" stroke-linecap="butt" stroke-linejoin="miter" stroke-miterlimit="10" stroke-dasharray="" stroke-dashoffset="0" font-family="none" font-weight="none" font-size="none" text-anchor="none" style="mix-blend-mode: normal"><rect x="0" y="0" width="720" height="480"/></g><g data-paper-data="{&quot;wickUUID&quot;:&quot;460de98c-f3c1-43fe-a75e-f31ccbac049a&quot;,&quot;wickType&quot;:&quot;clipsandpaths&quot;}" fill="none" fill-rule="evenodd" stroke="none" stroke-width="1" stroke-linecap="butt" stroke-linejoin="miter" stroke-miterlimit="10" stroke-dasharray="" stroke-dashoffset="0" font-family="none" font-weight="none" font-size="none" text-anchor="none" style="mix-blend-mode: normal"><path d="M468.06775,225.64804c-1.19167,0.234 -3.64706,0.60932 -5.11373,0.80399c-3.05,0.40467 -10.40816,2.45366 -23.35183,6.50333c-4.95,1.54867 -10.71999,3.22227 -12.82832,3.72027c-2.10833,0.49833 -7.83716,1.99997 -12.78716,3.35064c-13.164,3.59233 -13.02806,3.58276 -18.97939,3.55076c-8.157,-0.044 -12.61631,-0.79098 -23.66964,-3.92298c-11.97467,-3.393 -38.74751,-9.5002 -41.63018,-9.5002c-1.607,0 -2.58007,2.5549 -1.20574,6.59523c1.152,3.387 3.77874,8.34245 5.62541,10.67012c2.08533,2.629 7.29733,5.8057 12.145,7.41303c2.29033,0.75933 2.79387,0.80456 17.1892,0.84423c13.87667,0.03833 15.06614,0.08951 21.53147,0.93818c19.606,2.57333 27.17246,2.47809 38.67079,-0.44358c9.36433,-2.37933 14.78779,-4.75035 22.58879,-9.96102c2.734,-1.826 8.62563,-5.61509 12.98563,-8.35609c9.35733,-5.88267 12.19515,-7.9371 13.05048,-9.3441c1.196,-1.96633 -0.12178,-3.66748 -4.22078,-2.86181z" data-paper-data="{&quot;wickUUID&quot;:&quot;0e801651-80e6-427f-b8f6-5608be0bc045&quot;,&quot;wickType&quot;:&quot;path&quot;,&quot;originalStyle&quot;:{&quot;strokeColor&quot;:null,&quot;fillColor&quot;:[&quot;Color&quot;,1,1,1],&quot;strokeWidth&quot;:1}}" fill="#ffffff"/><path d="M492.2593,217.613c-3.022,2.49267 -5.46279,5.53452 -8.26846,10.29419c-5.536,9.39033 -6.60567,10.3933 -19.67334,18.4243c-3.65367,2.24533 -9.1414,5.7507 -12.36273,7.90237c-9.28233,6.19933 -13.27748,8.14323 -21.71148,10.42756c-12.76133,3.45667 -25.19789,3.98533 -43.58856,1.87466c-16.63267,-1.90867 -21.69994,-2.07784 -26.96794,-0.89551c-2.80133,0.62867 -6.40538,0.64683 -9.94771,0.02916c-2.901,-0.506 -8.62176,-2.36132 -10.91643,-3.53199c-0.71167,-0.363 -2.29536,0.78209 -2.40369,0.89042c-0.32,0.32 3.02219,3.36641 6.06852,5.66941c5.89167,4.45367 7.49442,4.51828 22.99242,0.75895c6.162,-1.49467 6.94546,-1.65707 8.00946,-1.31874c14.98033,4.76333 25.62425,7.30332 38.52258,9.19732c13.667,2.00667 26.78578,2.34317 32.29778,0.86917c5.728,-1.53167 11.49514,-5.55648 20.86981,-14.72815c5.81167,-5.686 14.00054,-14.40166 17.65087,-18.78733c4.363,-5.24233 7.6735,-10.81378 9.74983,-16.42078c1.236,-3.337 3.67453,-11.54142 3.48786,-11.72809c-0.057,-0.05733 -2.58646,0.06475 -3.80879,1.07308z" data-paper-data="{&quot;wickUUID&quot;:&quot;e2a4dc2e-6e23-44ef-92b6-de402dbbeef4&quot;,&quot;wickType&quot;:&quot;path&quot;,&quot;originalStyle&quot;:{&quot;strokeColor&quot;:null,&quot;fillColor&quot;:[&quot;Color&quot;,1,1,1],&quot;strokeWidth&quot;:1}}" fill="#ffffff"/><path d="M403.99935,90.97947c-0.739,1.35533 -6.85429,13.26585 -13.58796,26.46585c-6.73367,13.2 -12.51639,24.4795 -12.85139,25.0675l-0.67022,1.69246l1.30655,1.03016c1.741,1.076 3.23309,2.71421 3.48976,4.08254c0.40333,2.15 -0.13714,9.27926 -1.01281,13.59859c-1.031,5.087 -1.44415,11.42378 -1.84848,28.36678c-0.16867,7.05833 -0.44382,13.34846 -0.64182,14.17346c-0.62067,2.586 -3.98222,9.0526 -5.69155,10.9536c-2.12,2.35767 -4.05283,3.42321 -6.11016,3.42754c-1.423,0.00267 -0.83071,0.189 -2.04571,-1.063c-1.81367,-1.869 -2.95017,-3.8855 -6.8785,-12.15583l-3.23399,-6.72459l1.12812,-7.51021c0.62067,-4.268 1.22097,-8.27132 1.3353,-8.90165l-0.71786,-2.12137l-1.69678,1.35228c-2.01,1.81633 -3.45989,2.57193 -5.46456,2.3796c-2.36333,-0.22733 -3.30593,-1.42462 -4.33093,-4.79462l-1.06603,-1.64856l-1.00929,1.86539c-2.20367,13.29867 -4.51158,18.89572 -10.43391,25.13839c-4.398,4.636 -5.45482,5.12441 -8.33182,3.27008c-3.46833,-2.23533 -3.82912,-3.26167 -4.04512,-8.46267c-0.24,-5.79033 1.19836,-15.67573 3.88303,-26.7274c3.198,-13.165 8.70332,-26.48919 12.34565,-29.89586l1.6609,-1.68439l-0.63791,-3.85875c-0.35067,-1.94333 -2.11448,-4.06411 -2.19881,-4.14844c-0.31467,-0.315 -4.49607,6.17409 -7.11107,11.04942c-4.404,8.21033 -6.24089,14.69539 -7.85789,27.77272c-0.476,3.85 -1.18163,9.06452 -1.54463,11.44785c-1.33933,8.793 -1.69672,13.19133 -1.88172,23.12433c-0.144,7.72367 0.28498,10.83449 0.59131,10.83449c1.19267,0 12.65589,1.98519 20.33322,3.46386c15.10167,2.909 26.44478,5.58239 40.82911,9.62339c8.36133,2.349 11.85142,2.81667 16.99609,2.39334c8.04833,-0.66233 14.73673,-2.30014 40.2114,-9.87281c11.94667,-3.55167 20.35278,-5.78474 26.39378,-7.00807c7.392,-1.49733 8.98259,-2.20236 16.24592,-7.23503c8.501,-5.89067 10.83167,-6.75502 17.65567,-6.53902l3.87438,0.075l1.12189,-2.80255c8.18933,-27.68167 9.24048,-34.32397 8.91881,-56.2713c-0.195,-13.30167 -0.4744,-14.49563 -2.67607,-16.6353c-2.428,-2.35967 -9.97187,-6.85496 -20.88387,-12.34496c-16.63867,-8.37167 -29.70937,-13.82405 -50.90737,-21.23805c-11.87367,-4.15267 -16.50602,-5.22555 -24.64802,-5.68355l-4.53173,-0.17927z" data-paper-data="{&quot;wickUUID&quot;:&quot;05e21d48-5847-46ff-a956-08f440a5b171&quot;,&quot;wickType&quot;:&quot;path&quot;,&quot;originalStyle&quot;:{&quot;strokeColor&quot;:null,&quot;fillColor&quot;:[&quot;Color&quot;,1,1,1],&quot;strokeWidth&quot;:1}}" fill="#ffffff"/><path d="M385.68796,91.69347c-5.97833,0.91067 -7.52981,1.59663 -13.34814,5.7753c-6.81367,4.89333 -14.32154,11.34583 -21.53321,18.5165l-6.8793,7.05369l2.6109,15.7705c2.80467,16.613 4.37779,24.99999 4.98079,26.54966l1.05397,1.64279l1.45972,-1.23121c1.30033,-1.87433 9.49851,-17.39358 24.00084,-45.43325c10.503,-20.30667 14.50717,-28.42057 14.0285,-28.37024c-0.23,0.024 -3.69874,-0.68141 -6.37407,-0.27374z" data-paper-data="{&quot;wickUUID&quot;:&quot;8200fd4f-0ebc-4673-947c-7502e59ed225&quot;,&quot;wickType&quot;:&quot;path&quot;,&quot;originalStyle&quot;:{&quot;strokeColor&quot;:null,&quot;fillColor&quot;:[&quot;Color&quot;,1,1,1],&quot;strokeWidth&quot;:1}}" fill="#ffffff"/><path d="M368.04156,278.74629l-3.72428,1.15702l-0.16902,4.03082c-0.00133,1.94967 -0.1483,6.38315 -0.3273,9.86648c-0.179,3.48333 -0.47931,10.66308 -0.66831,15.97975c-0.385,10.82067 -0.73109,15.33911 -1.69442,21.90611c-1.77467,12.1 -1.15884,22.03615 3.52849,56.87715c0.814,6.05 1.65076,12.75739 1.86209,14.94806c0.52833,5.484 0.21326,15.77998 -0.65007,21.26231c-0.37533,2.38333 -1.04849,6.61689 -1.50416,9.48556c-0.45567,2.86833 -0.93536,6.5179 -1.06236,8.08157l-0.19265,3.21251l2.01712,0.91134c3.883,1.005 23.91816,2.88891 57.21516,5.38058l13.65805,1.01945l19.63359,-1.01338c56.82967,-2.93667 65.75124,-3.46703 66.17624,-3.89436c0.46267,-0.46533 0.59334,-5.11238 -0.49999,-8.88138c-1.14033,-3.932 -7.59178,-20.94596 -8.15645,-21.51096c-0.144,-0.14433 -1.43604,-0.61746 -1.93604,-0.42713c-1.371,0.52133 -4.17457,0.50623 -6.0189,-0.1221c-2.29567,-0.78233 -4.38189,-2.82507 -5.33489,-5.3724c-1.48,-3.955 -1.18384,-9.03254 0.73449,-13.22321c0.678,-1.481 1.73213,-2.57264 3.83913,-4.04864c0.067,-0.047 -0.39549,-2.65555 -1.05316,-5.27722c-0.65767,-2.622 -1.96191,-9.04789 -2.89691,-14.27289c-4.01933,-22.45733 -8.5979,-43.36838 -10.5979,-48.45071c-2.855,-7.25633 -16.96859,-33.19254 -23.33392,-42.86887c-1.53767,-2.33767 -3.24306,-4.59026 -3.35939,-4.59026c-0.11667,0 -1.80682,0.71221 -2.83982,1.60121c-5.147,4.42867 -10.08105,6.5747 -17.66938,7.63003c-3.726,0.51833 -15.01042,0.42736 -20.94375,-0.16031c-19.538,-1.93433 -30.1961,-3.94897 -44.11477,-8.33397c-3.16867,-0.99833 -5.96725,-1.8136 -6.11292,-1.79593c-0.14533,0.01767 -2.01593,0.43177 -3.8036,0.89377z" data-paper-data="{&quot;wickUUID&quot;:&quot;2c61bc98-a2ef-4fdb-8ab2-3dddccc5b1b1&quot;,&quot;wickType&quot;:&quot;path&quot;,&quot;originalStyle&quot;:{&quot;strokeColor&quot;:null,&quot;fillColor&quot;:[&quot;Color&quot;,1,0,0.50196],&quot;strokeWidth&quot;:1}}" fill="#ff0080"/><path d="M486.56648,203.56966c-1.629,0.592 -5.956,3.316 -9.617,6.052c-4.951,3.702 -8.157,5.262 -12.52,6.094c-8.626,1.646 -15.802,3.503 -29.087,7.528c-37.277,11.293 -43.082,12.051 -57.486,7.508c-18.86,-5.948 -64.039,-14.801 -67.924,-13.31c-2.273,0.872 -3.827,4.225 -3.067,6.617c0.356,1.124 2.457,2.965 4.667,4.093c4.515,2.303 5.559,3.848 6.614,9.784c1.904,10.718 7.899,18.596 18.029,23.689c9.424,4.739 17.297,6.26 24.035,4.643c5.491,-1.317 9.843,-1.109 31.386,1.502c22.485,2.725 44.822,-1.54 57.853,-11.045c3.31,-2.415 10.99,-7.342 17.066,-10.949c11.21,-6.656 12.662,-8.115 18.695,-18.793c3.058,-5.414 8.218,-10.289 14.023,-13.251c5.611,-2.863 6.646,-5.887 3.195,-9.339c-2.321,-2.32 -10.571,-2.749 -15.862,-0.823zM470.93048,229.18366c-0.978,1.081 -6.251,4.643 -11.717,7.915c-5.466,3.272 -12.361,7.746 -15.322,9.942c-6.916,5.128 -21.112,9.759 -32.521,10.609c-5.785,0.43 -13.198,0.021 -22.988,-1.269c-13.847,-1.826 -16.724,-1.941 -33.027,-1.323c-7.396,0.281 -11.291,-0.924 -18.383,-5.689c-4.498,-3.021 -10.681,-16.961 -8.203,-18.492c1.207,-0.746 33.798,6.613 44.648,10.081c5.412,1.73 12.133,3.003 17.545,3.323c7.864,0.466 10.103,0.137 21.62,-3.171c7.066,-2.029 13.452,-3.69 14.192,-3.69c0.74,0 8.544,-2.322 17.341,-5.16c8.797,-2.839 17.504,-5.207 19.35,-5.264c1.845,-0.056 4.517,-0.435 5.936,-0.84c3.2,-0.916 3.88,0.43 1.529,3.028z" data-paper-data="{&quot;wickUUID&quot;:&quot;63faafe0-889c-4aa8-a5ef-29da462a23d6&quot;,&quot;wickType&quot;:&quot;path&quot;,&quot;originalStyle&quot;:{&quot;strokeColor&quot;:null,&quot;fillColor&quot;:[&quot;Color&quot;,0,0,0],&quot;strokeWidth&quot;:1}}" fill="#000000"/><path d="M409.44874,58.46249c-2.003,2.414 -2.712,3.756 -15.747,29.821c-10.813,21.622 -39.539,76.805 -40.518,77.836c-1.08,1.137 -1.905,-2.698 -6.122,-28.454c-4.246,-25.937 -11.418,-63.401 -13.901,-72.624c-1.192,-4.427 -4.063,-6.659 -7.26,-5.644c-4.276,1.357 -4.197,3.365 1.16,29.509c2.838,13.848 7.199,37.719 9.692,53.045c6.856,42.151 7.349,43.864 12.613,43.864c6.471,0 10.908,-7.445 47.877,-80.335c9.597,-18.924 18.381,-35.59 19.518,-37.036c1.138,-1.446 2.068,-3.888 2.068,-5.427c0,-5.155 -6.33,-8.23 -9.38,-4.555z" data-paper-data="{&quot;wickUUID&quot;:&quot;cd74994f-7420-48c8-8da0-5a7214ffc6f3&quot;,&quot;wickType&quot;:&quot;path&quot;,&quot;originalStyle&quot;:{&quot;strokeColor&quot;:null,&quot;fillColor&quot;:[&quot;Color&quot;,0,0,0],&quot;strokeWidth&quot;:1}}" fill="#000000"/><path d="M591.64954,29.38384c-0.45833,0.07833 -5.52262,0.82371 -11.11429,1.64371c-21.21633,3.111 -71.20085,10.98046 -93.02585,14.64513c-13.348,2.24133 -24.4985,4.96635 -51.06983,12.48502l-11.73444,3.32253l-3.7758,2.39302c-3.45967,2.20567 -3.67922,2.43682 -5.41555,5.42549c-2.745,4.72533 -4.32012,7.67402 -4.32012,8.06969c0,0.20633 1.28749,1.46802 2.12216,1.46802c1.942,0 8.20632,1.06716 12.46299,2.13949c19.778,4.98233 55.39834,19.95854 78.30501,32.92321c10.44,5.90867 12.18231,7.32899 13.44698,11.20432c0.914,2.80067 2.17354,11.65348 2.42521,16.73348c0.36133,7.287 -0.57976,19.34126 -2.32643,29.80959c-1.25733,7.53667 -2.03432,10.74011 -6.27765,25.97844c-1.53167,5.5 -3.07513,11.08115 -3.43546,12.42348l-0.37421,3.32361l4.04725,-0.03113c4.505,-0.28433 8.14795,-0.95853 11.74462,-2.1742c3.795,-1.283 8.45359,-2.25979 19.66859,-4.12479c4.95,-0.823 14.55004,-2.71901 21.33337,-4.21301c6.78333,-1.494 25.69441,-5.39733 42.01108,-8.67133c58.93867,-11.82633 79.31628,-16.4868 81.01128,-18.1818c1.092,-1.092 -14.01052,-22.20736 -24.93019,-34.02536c-18.99767,-20.56133 -24.45405,-28.84065 -43.20072,-65.55665c-18.72067,-36.66533 -21.8816,-42.69295 -23.72993,-45.23462c-1.12567,-1.54833 -2.10807,-2.07367 -3.84807,-1.77534z" data-paper-data="{&quot;wickUUID&quot;:&quot;d872e02e-3592-4b44-b76b-51c8630dfc22&quot;,&quot;wickType&quot;:&quot;path&quot;,&quot;originalStyle&quot;:{&quot;strokeColor&quot;:null,&quot;fillColor&quot;:[&quot;Color&quot;,1,0.50196,0],&quot;strokeWidth&quot;:1}}" fill="#ff8000"/><path d="M335.33152,143.24149c-4.077,3.36 -11.209,22.034 -14.02,36.707c-3.428,17.893 -3.443,24.722 -0.062,28.104c1.394,1.393 3.467,2.533 4.609,2.533c3.2,0 8.702,-5.475 12.318,-12.261c4.337,-8.137 6.616,-24.201 5.361,-37.795c-0.492,-5.321 -0.465,-10.032 0.062,-11.027c1.361,-2.573 1.143,-3.715 -1.145,-6.003c-2.538,-2.538 -4.28,-2.601 -7.123,-0.258z" data-paper-data="{&quot;wickUUID&quot;:&quot;2a407527-1e69-47be-a932-7cfed117e139&quot;,&quot;wickType&quot;:&quot;path&quot;,&quot;originalStyle&quot;:{&quot;strokeColor&quot;:null,&quot;fillColor&quot;:[&quot;Color&quot;,0,0,0],&quot;strokeWidth&quot;:1}}" fill="#000000"/><path d="M369.07265,145.10088c-3.356,1.821 -9.532,14.198 -10.532,21.105c-0.369,2.554 -1.099,7.431 -1.621,10.837c-0.522,3.406 -1.485,9.981 -2.142,14.611l-1.193,8.418l4.64,9.795c4.921,10.389 6.976,12.191 11.283,9.896c3.116,-1.66 4.55,-3.496 7.568,-9.693c2.355,-4.836 2.517,-6.267 2.561,-22.706c0.031,-11.631 0.551,-19.633 1.542,-23.738c0.822,-3.406 1.502,-8.365 1.511,-11.02c0.013,-3.997 -0.452,-5.196 -2.703,-6.967c-3.166,-2.49 -6.972,-2.678 -10.914,-0.538z" data-paper-data="{&quot;wickUUID&quot;:&quot;e8b2ca16-9a3b-445f-8561-4c7eb76155a5&quot;,&quot;wickType&quot;:&quot;path&quot;,&quot;originalStyle&quot;:{&quot;strokeColor&quot;:null,&quot;fillColor&quot;:[&quot;Color&quot;,0,0,0],&quot;strokeWidth&quot;:1}}" fill="#000000"/><path d="M398.18771,78.09031c-7.606,2.362 -12.758,3.537 -17.755,4.049c-5.398,0.554 -6.894,1.352 -18.061,9.631c-8.335,6.179 -15.84,12.99 -23.789,21.588c-17.788,19.241 -24.883,31.777 -27.573,48.719c-4.93,31.041 -5.619,39.257 -4.773,56.858c0.742,15.423 1.1,17.725 3.607,23.201c3.744,8.178 14.952,24.793 20.052,29.726c3.519,3.404 4.053,4.478 3.606,7.237c-0.394,2.424 0.018,3.733 1.636,5.197c1.893,1.713 2.659,1.808 6.149,0.762c2.193,-0.657 5.057,-1.195 6.364,-1.195c1.308,0 7.336,-1.204 13.396,-2.675l11.019,-2.676l8.159,2.566c11.547,3.632 22.469,5.682 39.157,7.351c17.778,1.778 27.785,0.916 35.745,-3.08c7.003,-3.514 33.246,-29.206 39.47,-38.641c6.88,-10.428 7.886,-12.876 12.089,-29.414c2.164,-8.515 5.587,-21.021 7.606,-27.792c5.31,-17.8 7.822,-41.932 5.728,-55.027c-2.346,-14.666 -0.942,-13.09 -21.993,-24.692c-21.864,-12.051 -59.367,-27.062 -75.937,-30.395c-8.975,-1.806 -20.291,-2.42 -23.902,-1.298zM419.77671,89.95931c3.736,0.639 17.707,5.354 31.047,10.478c28.119,10.801 55.014,24.719 57.002,29.497c1.54,3.702 1.592,26.398 0.086,37.82c-0.673,5.108 -2.891,14.862 -4.929,21.673c-2.037,6.812 -5.273,18.554 -7.192,26.094c-4.787,18.816 -8.363,24.568 -26.864,43.201c-15.695,15.807 -19.907,18.63 -29.257,19.607c-12.541,1.311 -40.521,-2.757 -58.618,-8.521l-8.539,-2.72l-9.14,2.258c-5.027,1.242 -10.619,2.3 -12.426,2.352c-6.871,0.195 -17.74,-10.759 -27.569,-27.786c-4.032,-6.984 -5.044,-9.794 -5.763,-15.997c-1.33,-11.482 -1.116,-28.164 0.495,-38.488c0.798,-5.108 1.749,-12.075 2.114,-15.481c1.712,-15.975 4.254,-23.384 12.4,-36.142c5.697,-8.922 25.388,-29.009 36.432,-37.163c9.874,-7.291 10.657,-7.665 17.413,-8.329c3.891,-0.383 8.235,-1.311 9.654,-2.063c3.195,-1.693 14.619,-1.833 23.654,-0.29z" data-paper-data="{&quot;wickUUID&quot;:&quot;f216b8f4-2c30-4a99-a088-05cc95ac633a&quot;,&quot;wickType&quot;:&quot;path&quot;,&quot;originalStyle&quot;:{&quot;strokeColor&quot;:null,&quot;fillColor&quot;:[&quot;Color&quot;,0,0,0],&quot;strokeWidth&quot;:1}}" fill="#000000"/><path d="M572.09365,21.82027c-85.116,13.021 -102.616,16.23 -128.077,23.491l-24.809,7.075l-13.865,9.291c-13.568,9.093 -23.669,18.226 -23.669,21.401c0,2.041 3.657,5.721 5.686,5.721c0.856,0 4.223,-2.45 7.482,-5.444c3.259,-2.995 11.321,-8.991 17.915,-13.326l11.99,-7.882l22.363,-6.323c12.3,-3.477 27.34,-7.211 33.423,-8.298c12.677,-2.265 83.672,-13.506 101.295,-16.038l11.797,-1.696l1.907,2.411c1.049,1.326 10.303,19.099 20.565,39.496c20.645,41.034 27.698,51.857 46.789,71.801c8.885,9.282 24.286,29.432 24.286,31.776c0,0.597 -3.354,1.848 -7.453,2.78c-22.723,5.168 -56.968,12.334 -78.726,16.474c-13.624,2.592 -30.576,6.118 -37.672,7.835c-7.095,1.718 -17.777,3.761 -23.738,4.541c-5.96,0.78 -13.292,2.392 -16.293,3.581c-3.657,1.449 -7.775,2.162 -12.483,2.162c-5.497,0 -7.399,0.411 -8.735,1.888c-2.241,2.476 -2.168,5.633 0.18,7.757c3.146,2.848 15.523,2.319 23.833,-1.018c3.735,-1.5 10.273,-3.083 14.531,-3.518c4.257,-0.435 14.939,-2.449 23.738,-4.474c8.798,-2.025 27.143,-5.811 40.767,-8.412c38.184,-7.291 85.548,-17.741 91.102,-20.1c3.367,-1.431 4.649,-5.515 3.223,-10.274c-1.689,-5.638 -17.278,-26.902 -27.643,-37.707c-18.091,-18.859 -25.092,-29.557 -44.578,-68.118c-24.259,-48.006 -25.61,-50.126 -31.831,-49.954c-2.029,0.055 -12.514,1.451 -23.3,3.101z" data-paper-data="{&quot;wickUUID&quot;:&quot;b9b2a8d0-9d3f-498e-886f-2ee9feb09118&quot;,&quot;wickType&quot;:&quot;path&quot;,&quot;originalStyle&quot;:{&quot;strokeColor&quot;:null,&quot;fillColor&quot;:[&quot;Color&quot;,0,0,0],&quot;strokeWidth&quot;:1}}" fill="#000000"/><path d="M465.27269,271.4787c-2.399,2.399 -2.584,4.055 -0.736,6.582c0.945,1.292 4.739,2.398 13.155,3.834c10.285,1.755 14.085,3.041 29.154,9.871c17.187,7.789 41.738,21.327 45.567,25.127c1.921,1.905 1.945,2.608 0.665,19.307c-1.48,19.308 -4.489,32.096 -9.165,38.956c-3.9,5.722 -14.59,17.051 -18.129,19.214c-2.841,1.736 -3.094,1.73 -6.192,-0.159c-6.035,-3.68 -15.779,-1.956 -19.113,3.382c-0.694,1.112 -1.529,4.273 -1.855,7.023c-0.984,8.309 4.402,14.62 11.539,13.521c3.637,-0.56 9.446,-4.035 11.187,-6.693c0.931,-1.42 4.601,-4.267 8.157,-6.327c6.532,-3.783 12.354,-9.441 21.07,-20.474c7.478,-9.465 11.094,-22.027 13.236,-45.983c1.977,-22.101 1.625,-25.834 -2.786,-29.545c-8.094,-6.811 -37.826,-22.687 -60.773,-32.452c-6.428,-2.736 -25.669,-7.248 -30.905,-7.248c-1.106,0 -2.941,0.929 -4.076,2.064z" data-paper-data="{&quot;wickUUID&quot;:&quot;8754ce92-47fc-4a56-b131-d6568eb361e5&quot;,&quot;wickType&quot;:&quot;path&quot;,&quot;originalStyle&quot;:{&quot;strokeColor&quot;:null,&quot;fillColor&quot;:[&quot;Color&quot;,0,0,0],&quot;strokeWidth&quot;:1}}" fill="#000000"/><path d="M462.17613,270.44639c-2.88,2.881 -2.622,4.265 1.863,9.97c5.149,6.551 23.452,39.899 26.088,47.534c2.175,6.299 8.007,34.072 10.765,51.261c1.81,11.286 5.578,22.908 14.345,44.245c6.233,15.171 8.422,23.356 6.424,24.026c-0.644,0.216 -20.083,1.366 -43.196,2.556l-42.025,2.163l-28.157,-2.135c-27.095,-2.054 -42.524,-3.673 -44.063,-4.624c-0.401,-0.248 0.315,-6.632 1.591,-14.187c3.038,-17.992 3.002,-20.485 -0.691,-46.972c-4.014,-28.788 -4.828,-43.127 -2.983,-52.516c0.771,-3.925 1.485,-12.013 1.586,-17.973c0.102,-5.96 0.513,-16.712 0.915,-23.893c0.692,-12.398 0.62,-13.165 -1.439,-15.223c-2.543,-2.544 -4.13,-2.707 -6.872,-0.705c-1.719,1.255 -2.132,3.418 -2.91,15.223c-0.499,7.569 -0.984,18.638 -1.079,24.598c-0.095,5.96 -0.802,14.864 -1.57,19.787c-1.762,11.287 -0.738,22.872 6.598,74.649c0.241,1.703 -1.011,12.054 -2.782,23.003l-3.221,19.907l2.085,2.085c2.866,2.866 13.712,4.546 46.287,7.169c33.094,2.664 39.655,2.662 89.264,-0.034c41.45,-2.253 43.426,-2.567 44.876,-7.136c1.485,-4.679 -2.462,-19.621 -10.203,-38.623c-7.896,-19.381 -11.258,-30.031 -12.438,-39.398c-1.187,-9.427 -8.759,-45.468 -10.795,-51.386c-4.087,-11.878 -24.945,-48.438 -30.119,-52.792c-3.783,-3.183 -5.423,-3.3 -8.144,-0.579z" data-paper-data="{&quot;wickUUID&quot;:&quot;88981973-fd33-47b2-94ba-17cf647dbd13&quot;,&quot;wickType&quot;:&quot;path&quot;,&quot;originalStyle&quot;:{&quot;strokeColor&quot;:null,&quot;fillColor&quot;:[&quot;Color&quot;,0,0,0],&quot;strokeWidth&quot;:1}}" fill="#000000"/><path d="M354.17074,273.39856c-3.702,2.681 -8.788,7.974 -30.81,32.063c-9.438,10.324 -13.42,18.129 -13.24,25.955c0.172,7.494 2.213,11.298 8.878,16.546c7.59,5.978 14.506,14.469 19.198,23.572c5.996,11.632 6.07,12.156 2.177,15.406l-3.315,2.767l1.216,9.777c1.498,12.055 2.562,15.592 5.5,18.28c3.394,3.106 6.608,3.727 11.784,2.278c6.87,-1.924 7.452,-4.072 4.112,-15.163c-1.496,-4.969 -3.649,-13.584 -4.783,-19.144c-1.472,-7.21 -3.419,-12.733 -6.791,-19.262c-5.216,-10.1 -15.8,-23.268 -21.565,-26.831c-6.492,-4.012 -7.209,-7.558 -3.15,-15.568c2.756,-5.439 16.411,-21.046 32.232,-36.84c5.251,-5.242 9.547,-10.235 9.547,-11.095c0,-1.94 -3.64,-5.693 -5.522,-5.693c-0.766,0 -3.227,1.328 -5.468,2.952z" data-paper-data="{&quot;wickUUID&quot;:&quot;661f641b-5a90-4287-b3d7-39ab02acbb63&quot;,&quot;wickType&quot;:&quot;path&quot;,&quot;originalStyle&quot;:{&quot;strokeColor&quot;:null,&quot;fillColor&quot;:[&quot;Color&quot;,0,0,0],&quot;strokeWidth&quot;:1}}" fill="#000000"/><path d="M389.68805,454.26562c-4.719,2.566 -8.261,12.767 -14.659,42.213c-3.264,15.021 -6.457,31.985 -7.096,37.698c-0.639,5.713 -2.089,17.083 -3.221,25.268c-1.332,9.624 -2.265,23.116 -2.642,38.194c-0.5,20.026 -0.792,23.264 -2.07,22.96c-5.916,-1.408 -9.085,-1.3 -10.935,0.374c-3.679,3.33 -1.29,9.404 3.699,9.404c1.119,0 3.636,0.67 5.595,1.488c5.052,2.112 7.14,1.867 10.6,-1.24l3.039,-2.728l0.414,-23.087c0.231,-12.921 1.087,-27.916 1.943,-34.052c0.841,-6.03 2.4,-18.631 3.466,-28.003c1.941,-17.078 11.395,-64.512 14.567,-73.092c0.908,-2.455 2.697,-5.726 3.976,-7.268c2.845,-3.43 2.917,-5.038 0.342,-7.613c-2.317,-2.318 -3.539,-2.407 -7.018,-0.516z" data-paper-data="{&quot;wickUUID&quot;:&quot;f6c74467-2d64-4fae-959d-283dcf470d89&quot;,&quot;wickType&quot;:&quot;path&quot;,&quot;originalStyle&quot;:{&quot;strokeColor&quot;:null,&quot;fillColor&quot;:[&quot;Color&quot;,0,0,0],&quot;strokeWidth&quot;:1}}" fill="#000000"/><path d="M484.91405,452.88349c-2.496,2.496 -2.094,4.784 2.021,11.511c5.531,9.042 12.78,29.166 13.931,38.672c0.583,4.818 1.53,11.426 2.105,14.685c1.783,10.106 -1.52,73.093 -4.711,89.808c-0.781,4.092 -1.836,11.235 -2.345,15.873c-0.822,7.489 -0.724,8.71 0.879,10.913c1.624,2.23 2.743,2.552 11.127,3.195c5.126,0.393 12.177,1.155 15.667,1.693c7.276,1.121 9.672,0.329 10.638,-3.519c1.167,-4.651 -1.682,-6.089 -15,-7.566l-11.905,-1.32l0.044,-4.922c0.024,-2.707 1.054,-11.396 2.288,-19.307c1.518,-9.729 2.538,-22.413 3.15,-39.187c1.403,-38.391 1.335,-42.614 -0.939,-58.036c-1.815,-12.307 -2.917,-16.391 -7.625,-28.273c-9.543,-24.088 -13.943,-29.602 -19.325,-24.22z" data-paper-data="{&quot;wickUUID&quot;:&quot;6d96f3ef-c4df-4d3f-96a9-76017629212f&quot;,&quot;wickType&quot;:&quot;path&quot;,&quot;originalStyle&quot;:{&quot;strokeColor&quot;:null,&quot;fillColor&quot;:[&quot;Color&quot;,0,0,0],&quot;strokeWidth&quot;:1}}" fill="#000000"/></g><g fill="none" fill-rule="nonzero" stroke="none" stroke-width="1" stroke-linecap="butt" stroke-linejoin="miter" stroke-miterlimit="10" stroke-dasharray="" stroke-dashoffset="0" font-family="sans-serif" font-weight="normal" font-size="12" text-anchor="start" style="mix-blend-mode: normal"/><g id="wick_project_gui" fill="none" fill-rule="nonzero" stroke="none" stroke-width="1" stroke-linecap="butt" stroke-linejoin="miter" stroke-miterlimit="10" stroke-dasharray="" stroke-dashoffset="0" font-family="sans-serif" font-weight="normal" font-size="12" text-anchor="start" style="mix-blend-mode: normal"/></g></svg>