<svg version="1.1" xmlns="http://www.w3.org/2000/svg" xmlns:xlink="http://www.w3.org/1999/xlink" width="1260" height="594" viewBox="0,0,1260,594"><g transform="translate(278.32,-18.12) scale(1.188,1.188)"><g id="wick_project_bg" fill-opacity="0" fill="#ffffff" fill-rule="nonzero" stroke="none" stroke-width="1" stroke-linecap="butt" stroke-linejoin="miter" stroke-miterlimit="10" stroke-dasharray="" stroke-dashoffset="0" font-family="none" font-weight="none" font-size="none" text-anchor="none" style="mix-blend-mode: normal"><rect x="0" y="0" width="720" height="480"/></g><g data-paper-data="{&quot;wickUUID&quot;:&quot;9eea4f12-06ba-4278-8a39-512596005f26&quot;,&quot;wickType&quot;:&quot;clipsandpaths&quot;}" fill="none" fill-rule="evenodd" stroke="none" stroke-width="1" stroke-linecap="butt" stroke-linejoin="miter" stroke-miterlimit="10" stroke-dasharray="" stroke-dashoffset="0" font-family="none" font-weight="none" font-size="none" text-anchor="none" style="mix-blend-mode: normal"><path d="M327.10443,131.17034c-2.43233,0.31633 -6.25614,1.31356 -7.66714,2.00623c-1.55933,0.76533 -4.203,2.76139 -8.61933,6.50739c-5.923,5.02333 -9.03159,8.88135 -12.75726,15.84502l-1.84133,4.00789l4.17602,3.33164c2.14867,1.624 4.67842,3.68373 5.82409,4.79406c2.346,2.27367 2.40828,2.69203 1.36928,5.41303l-0.47128,1.78703l2.98549,2.83429l3.65541,2.80686l0.83348,-4.33777c0.13467,-1.97833 0.1546,-3.62704 0.25527,-4.21204c0.365,-2.11767 2.92794,-3.53749 4.29627,-2.29916c0.75367,0.682 1.02216,1.88114 1.40249,3.49681c1.20333,5.11467 2.78878,17.92877 2.44378,19.7691c-0.26467,1.41033 -0.90989,1.73178 -2.02822,1.73178l-1.20369,0.6539l0.87297,0.7522c2.88133,3.42433 0.07407,9.71385 -3.3066,7.34585c-1.203,-0.84233 -0.5868,-1.6568 -0.61613,-3.90013c-0.03267,-2.48267 0.55754,-3.30767 2.35321,-3.76367l1.23541,-1.28869l-3.02793,-2.58812c-1.57967,-1.32233 -5.57194,-4.91796 -8.87194,-7.99029c-7.34033,-6.83433 -15.85581,-14.16357 -16.06881,-13.95024c-0.455,0.455 -1.83324,5.68546 -1.83491,10.90446c-0.004,11.782 2.37458,22.70164 5.90258,27.30331c1.79367,2.33933 6.97477,6.53583 14.75044,11.77716l2.86919,1.8495l8.07706,0.22617c9.27533,0.25 12.22644,0.60365 13.64211,1.63298c0.932,0.67767 1.47464,0.73169 6.44464,0.71369c4.89733,-0.01767 5.88436,-0.16892 8.26036,-0.99192c5.747,-1.991 11.85325,-5.64417 18.93458,-11.32884c5.854,-4.69933 6.98369,-5.98269 8.94836,-9.97336c3.28,-6.66167 4.56724,-11.428 5.03257,-18.79833l0.21505,-4.25701l-2.47343,-0.32316c-18.35367,2.823 -36.25199,7.28542 -42.28266,10.54142c-0.995,0.53733 -1.86326,0.97747 -2.44526,0.97747c-1.44833,0 -2.61563,-0.63089 -3.11996,-2.02922c-0.49467,-1.372 -0.24983,-8.2133 0.44184,-12.89163c0.373,-2.52133 0.28182,-2.55237 1.01715,-3.18504c1.01233,-0.87067 0.99661,-1.00763 2.33761,-0.31396c1.229,0.63533 1.46175,1.59318 1.69842,5.29651c0.10567,1.65 0.83811,3.75378 1.01911,3.98278c0.502,0.635 1.70105,0.57124 6.14105,-0.83676c4.54667,-1.442 18.25596,-4.36367 29.26763,-6.237c3.94167,-0.67033 7.56344,-1.4176 7.60811,-1.45293c0.04467,-0.03567 0.14721,-2.77788 -0.13312,-5.04255c-0.97867,-7.90567 -2.64425,-13.90223 -4.61358,-16.7959c-1.48567,-2.18233 -10.21425,-11.05381 -12.30992,-12.49714c-1.407,-0.969 -2.49937,-1.39993 -4.69304,-1.66593c-2.90167,-0.35167 -6.64166,-1.19773 -14.57166,-3.30173c-8.33767,-2.21233 -13.69216,-2.77334 -19.35383,-2.03601zM354.75745,187.79644c1.751,0.90533 1.73186,2.26653 0.67953,7.37453c-0.51367,2.49233 -0.81212,2.71173 -2.68245,2.71173c-1.17767,0 -0.64174,0.09463 -1.42374,-0.68704c-0.924,-0.924 -0.81514,-0.67445 -0.80114,-3.30678c0.008,-1.52667 0.02383,-2.75098 0.2735,-3.45065c0.99233,-2.78267 1.79497,-3.75846 3.9543,-2.64179zM358.67286,208.86106c2.28333,0.63433 2.77913,1.94513 1.41246,3.55646c-0.784,0.924 -8.5485,4.77929 -9.58883,4.77929c-0.46833,0 -0.1562,0.13443 -0.70887,-0.41824c-1.33767,-1.33767 -1.57333,-2.2204 -0.23366,-4.06973c2.44833,-3.37967 5.72523,-4.79011 9.1189,-3.84778z" data-paper-data="{&quot;wickUUID&quot;:&quot;2c7db9a8-7110-4e20-b8b1-ab8ed3bcd9fe&quot;,&quot;wickType&quot;:&quot;path&quot;,&quot;originalStyle&quot;:{&quot;strokeColor&quot;:null,&quot;fillColor&quot;:[&quot;Color&quot;,1,1,1],&quot;strokeWidth&quot;:1}}" fill="#ffffff"/><path d="M341.79047,85.29975c-0.73333,0.27933 -2.01593,0.88609 -2.0396,0.88876c-0.116,0.01367 -0.92504,2.29818 -1.22004,3.47818c-0.18333,0.73333 -1.01274,5.91379 -1.84174,11.50546c-1.71967,11.59933 -2.62598,15.87582 -4.26798,20.13382l-0.94681,3.77794l4.73718,0.48554c2.31233,0.12333 5.31824,0.50766 6.78491,0.86999c1.46667,0.36267 6.2164,1.5683 10.59007,2.68663c4.37367,1.11867 8.40194,2.02529 8.99061,2.02529c1.765,0 3.96422,0.74083 6.19822,2.18516c4.137,2.67367 13.42938,12.33663 15.17871,15.80163c1.96033,3.88333 4.39764,13.62794 4.76797,18.94094l0.52657,3.54337l4.36271,0.2788c3.581,0.1 3.66369,0.05945 4.35236,0.74945c0.60067,0.602 0.48029,-0.06555 0.46029,1.28645c-0.034,2.27833 -0.26093,2.39839 -3.99693,2.91972c-1.624,0.22667 -3.11466,0.41577 -3.58999,0.50477l-1.56305,0.82331l-0.40625,5.75785c-0.565,8.06633 -1.86483,13.90664 -4.06016,18.24597l-0.50163,1.88587l2.63781,1.73995c1.32467,0.82833 3.26932,2.22569 4.22899,3.04836c1.883,1.614 3.03446,2.09369 5.87379,2.43136c1.00667,0.12 3.57906,0.85638 5.50573,1.58638c4.45267,1.68667 5.74903,1.70533 8.20436,0.19633c3.79467,-2.33133 15.63978,-5.45638 24.23045,-6.39171c6.83533,-0.74433 38.97692,-5.30408 46.15392,-6.54775c17.64633,-3.05833 40.01905,-7.37078 49.25105,-9.49411c7.42167,-1.707 15.61933,-4.0312 16.019,-4.4052c0.449,-0.42033 -1.14992,-7.24145 -2.80192,-10.91745c-5.97067,-13.285 -19.08614,-37.65441 -28.58647,-53.11708c-7.669,-12.48233 -8.93639,-15.89438 -10.01906,-26.90671c-0.24867,-2.52967 -0.96872,-5.16455 -1.04305,-5.23888c-0.07433,-0.07433 -5.30632,-0.36642 -11.25765,-0.55809c-19.28467,-0.62167 -29.99571,-1.27551 -36.66438,-2.23818c-2.738,-0.39533 -9.32367,-0.56765 -30.186,-0.78932c-14.66667,-0.15567 -32.96718,-0.51802 -40.66718,-0.80535c-7.7,-0.28733 -20.31139,-0.60184 -28.01139,-0.69917c-12.03167,-0.152 -14.23742,-0.10461 -15.38342,0.33172z" data-paper-data="{&quot;wickUUID&quot;:&quot;85514fac-865f-4ae5-82a7-f882b18de86f&quot;,&quot;wickType&quot;:&quot;path&quot;,&quot;originalStyle&quot;:{&quot;strokeColor&quot;:null,&quot;fillColor&quot;:[&quot;Color&quot;,0.04314,0.04314,0.04314],&quot;strokeWidth&quot;:1}}" fill="#0b0b0b"/><path d="M318.04877,239.32068c-0.51333,5.72933 -1.52954,15.6747 -2.25754,22.09137c-3.76067,33.14867 -4.70159,42.12482 -5.31159,50.66915c-0.36667,5.13333 -0.82668,10.53898 -1.02001,11.98431c-0.19333,1.44533 0.50725,3.65606 0.65792,3.80673c1.307,1.307 22.27845,2.34638 34.92912,1.72938c6.19333,-0.302 8.71406,-0.57232 11.63373,-1.25165c4.18367,-0.97367 10.54724,-3.00617 12.51691,-3.99417c2.382,-1.195 5.53638,-3.61927 6.51705,-5.0346l1.25051,-2.09124l-1.57402,-6.53243c-0.85433,-3.51867 -2.22697,-9.20279 -3.04097,-12.59446c-3.207,-13.36333 -11.20148,-40.6639 -12.89815,-44.04657c-0.33333,-0.66467 -0.75329,-2.42649 -0.94562,-3.96182c-0.19233,-1.53567 -1.10312,-5.35466 -2.02079,-8.47133c-0.91733,-3.11667 -1.99522,-7.09892 -2.39255,-8.84059c-0.39767,-1.74167 -1.08178,-3.6889 -1.13178,-3.75623c-0.05,-0.06733 -1.91325,-0.02453 -3.52658,0.29747c-3.59067,0.71667 -11.59854,0.53269 -21.93254,-0.50364c-3.649,-0.366 -7.53307,-0.37845 -7.81007,-0.37978c-0.41833,-0.00167 -0.86703,2.22177 -1.64303,10.8801z" data-paper-data="{&quot;wickUUID&quot;:&quot;05c24cb3-6b52-40de-98de-d4f31f30acfc&quot;,&quot;wickType&quot;:&quot;path&quot;,&quot;originalStyle&quot;:{&quot;strokeColor&quot;:null,&quot;fillColor&quot;:[&quot;Color&quot;,0.04314,0.04314,0.04314],&quot;strokeWidth&quot;:1}}" fill="#0b0b0b"/><path d="M320.34997,125.837c-4.125,0.887 -5.722,1.91 -12.707,8.136c-9.096,8.107 -13.184,13.648 -18.917,25.64l-4.025,8.417l-0.313,10.696c-0.301,10.297 0.54,17.285 3.238,26.905c1.238,4.412 7.552,11.025 15.567,16.303c8.851,5.829 10.003,6.235 20.612,7.262c16.611,1.609 22.737,1.76 26.797,0.658c11.754,-3.19 28.733,-15.798 33.593,-24.945c4.162,-7.833 5.483,-14.321 5.538,-27.199c0.039,-9.227 -0.317,-12.787 -1.893,-18.939c-2.424,-9.457 -3.424,-11.403 -8.795,-17.12c-7.164,-7.625 -12.014,-11.079 -15.558,-11.079c-1.702,0 -7.601,-1.325 -13.107,-2.946c-8.386,-2.467 -11.256,-2.934 -17.663,-2.875c-4.207,0.038 -9.773,0.527 -12.367,1.086zM348.21597,134.36c5.629,1.621 11.601,2.946 13.27,2.946c2.681,0 3.844,0.811 9.96,6.945c5.895,5.911 7.127,7.646 8.286,11.662c3.013,10.449 3.924,25.087 2.144,34.472c-1.105,5.831 -5.617,15.577 -7.904,17.076c-0.985,0.645 -3.869,2.949 -6.409,5.119c-5.3,4.53 -12.188,8.517 -17.664,10.226c-5.02,1.567 -12.955,1.57 -14.254,0.006c-0.732,-0.882 -3.691,-1.268 -11.302,-1.473l-10.311,-0.278l-7.53,-5.149c-4.141,-2.832 -8.57,-6.62 -9.843,-8.418c-3.505,-4.949 -5.875,-16.99 -5.533,-28.118c0.264,-8.619 0.38,-9.081 4.327,-17.256c5.886,-12.191 8.112,-15.255 16.192,-22.288c5.903,-5.138 8.063,-6.494 11.601,-7.285c7.987,-1.784 13.986,-1.348 24.97,1.813z" data-paper-data="{&quot;wickUUID&quot;:&quot;cc761b1f-8689-4760-bbaa-e93f29dc6f9e&quot;,&quot;wickType&quot;:&quot;path&quot;,&quot;originalStyle&quot;:{&quot;strokeColor&quot;:null,&quot;fillColor&quot;:[&quot;Color&quot;,0,0,0],&quot;strokeWidth&quot;:1}}" fill="#000000"/><path d="M333.50857,79.08339c-1.463,1.463 -1.724,2.438 -1.314,4.918c0.281,1.701 -0.272,8.964 -1.228,16.14c-1.408,10.566 -2.323,14.464 -4.811,20.495c-3.244,7.867 -3.176,9.952 0.343,10.48c2.165,0.325 2.882,-0.645 6.096,-8.247c1.96,-4.636 3.109,-9.444 4.324,-18.098c2.771,-19.728 2.296,-18.366 6.676,-19.156c2.161,-0.39 19.872,-0.086 41.246,0.708c20.602,0.766 43.518,1.209 50.926,0.986c9.495,-0.286 15.826,-0.041 21.464,0.832c4.399,0.681 16.709,1.481 27.357,1.779l19.361,0.541l0.561,6.734c0.719,8.629 2.988,14.585 9.1,23.894c8.544,13.01 30.136,53.929 31.465,59.628l1.196,5.124l-9.377,2.544c-11.896,3.227 -49.385,10.353 -69.141,13.143c-8.333,1.177 -19.129,2.714 -23.99,3.415c-4.861,0.702 -9.785,1.272 -10.942,1.268c-3.978,-0.013 -19.539,4.218 -21.667,5.892c-2.667,2.098 -4.15,2.099 -8.755,0.01c-2.018,-0.916 -4.854,-1.674 -6.302,-1.684c-1.448,-0.01 -3.136,-0.625 -3.751,-1.366c-2.18,-2.626 -10.139,-7.149 -11.706,-6.651c-3.73,1.183 -2.2,6.064 2.73,8.711c1.427,0.765 3.723,2.434 5.104,3.707c1.523,1.405 3.458,2.315 4.926,2.315c1.329,0 4.748,0.947 7.596,2.104c6.65,2.702 8.474,2.649 12.748,-0.375c3.808,-2.695 12.469,-4.691 30.861,-7.111c40.529,-5.334 76.594,-11.749 95.817,-17.046c14.486,-3.991 14.504,-4.014 11.637,-14.762c-1.698,-6.37 -4.426,-12.195 -14.509,-30.992c-6.83,-12.732 -14.699,-26.554 -17.486,-30.716c-6.587,-9.837 -8.164,-14.146 -8.847,-24.178c-0.33,-4.829 -1,-8.62 -1.638,-9.259c-0.788,-0.789 -6.377,-1.218 -20.612,-1.583c-11.913,-0.305 -23.305,-1.08 -29.21,-1.987c-7.639,-1.174 -12.523,-1.382 -23.163,-0.986c-7.531,0.28 -27.409,-0.068 -45.033,-0.788c-17.354,-0.709 -36.287,-1.23 -42.074,-1.158c-5.787,0.072 -11.339,-0.135 -12.338,-0.46c-1.289,-0.419 -2.345,-0.061 -3.64,1.235z" data-paper-data="{&quot;wickUUID&quot;:&quot;16a706e4-3c53-427f-8f3d-3ab3f0f5c225&quot;,&quot;wickType&quot;:&quot;path&quot;,&quot;originalStyle&quot;:{&quot;strokeColor&quot;:null,&quot;fillColor&quot;:[&quot;Color&quot;,0,0,0],&quot;strokeWidth&quot;:1}}" fill="#000000"/><path d="M270.53077,147.44816c-2.154,2.154 -1.125,4.838 2.93,7.635c6.319,4.361 26.845,21.918 36.734,31.422c5.01,4.815 9.794,8.754 10.63,8.754c3.281,0 3.551,-1.775 1.991,-13.098c-1.699,-12.333 -2.911,-14.82 -6.438,-13.213c-1.918,0.874 -2.191,1.55 -2.414,5.982l-0.251,4.996l-3.211,-2.78c-2.852,-2.471 -3.092,-2.969 -2.155,-4.47c0.716,-1.147 0.801,-2.24 0.264,-3.403c-1.287,-2.789 -16.977,-14.084 -25.873,-18.625c-8.588,-4.384 -10.517,-4.89 -12.207,-3.2z" data-paper-data="{&quot;wickUUID&quot;:&quot;f97929c6-bc05-4576-8beb-08ea12ffedb8&quot;,&quot;wickType&quot;:&quot;path&quot;,&quot;originalStyle&quot;:{&quot;strokeColor&quot;:null,&quot;fillColor&quot;:[&quot;Color&quot;,0,0,0],&quot;strokeWidth&quot;:1}}" fill="#000000"/><path d="M333.70406,171.90073c-0.461,0.579 -1.027,4.541 -1.258,8.805c-0.357,6.58 -0.204,7.95 1.011,9.049c1.597,1.446 3.894,1.704 4.625,0.521c0.263,-0.426 4.547,-2.116 9.519,-3.755c9.156,-3.019 27.343,-6.597 42.711,-8.403c7.779,-0.915 8.438,-1.135 8.692,-2.913c0.541,-3.778 -1.26,-4.627 -8.677,-4.09c-8.909,0.645 -37.413,5.937 -43.708,8.115c-7.053,2.44 -7.233,2.382 -7.233,-2.32c0,-2.223 -0.455,-4.495 -1.01,-5.051c-1.312,-1.312 -3.611,-1.291 -4.672,0.042z" data-paper-data="{&quot;wickUUID&quot;:&quot;ceea0280-73d0-4945-b270-814b68b550ae&quot;,&quot;wickType&quot;:&quot;path&quot;,&quot;originalStyle&quot;:{&quot;strokeColor&quot;:null,&quot;fillColor&quot;:[&quot;Color&quot;,0,0,0],&quot;strokeWidth&quot;:1}}" fill="#000000"/><path d="M351.19785,188.07173c-1.55,1.868 -2.11,7.798 -0.876,9.284c1.452,1.75 4.848,1.621 5.348,-0.202c1.216,-4.433 1.411,-8.012 0.498,-9.113c-1.285,-1.548 -3.672,-1.534 -4.97,0.031z" data-paper-data="{&quot;wickUUID&quot;:&quot;3eca9ff4-9b78-4f04-95d8-3506e4915263&quot;,&quot;wickType&quot;:&quot;path&quot;,&quot;originalStyle&quot;:{&quot;strokeColor&quot;:null,&quot;fillColor&quot;:[&quot;Color&quot;,0,0,0],&quot;strokeWidth&quot;:1}}" fill="#000000"/><path d="M316.70381,196.46701c-1.398,1.686 -0.765,6.432 1.007,7.542c2.159,1.352 4.363,-0.354 4.687,-3.628c0.435,-4.39 -3.216,-6.899 -5.694,-3.914z" data-paper-data="{&quot;wickUUID&quot;:&quot;669ad8a7-7149-404e-8bac-e5c6af4218e4&quot;,&quot;wickType&quot;:&quot;path&quot;,&quot;originalStyle&quot;:{&quot;strokeColor&quot;:null,&quot;fillColor&quot;:[&quot;Color&quot;,0,0,0],&quot;strokeWidth&quot;:1}}" fill="#000000"/><path d="M350.49181,210.50126c-3.009,2.821 -3.303,5.402 -0.795,6.974c1.091,0.684 1.856,0.65 2.947,-0.13c0.81,-0.58 2.42,-1.471 3.577,-1.98c4.076,-1.793 4.632,-2.202 4.91,-3.612c0.882,-4.488 -6.286,-5.331 -10.639,-1.252z" data-paper-data="{&quot;wickUUID&quot;:&quot;501b9246-6330-4771-8ae4-6af314ca3452&quot;,&quot;wickType&quot;:&quot;path&quot;,&quot;originalStyle&quot;:{&quot;strokeColor&quot;:null,&quot;fillColor&quot;:[&quot;Color&quot;,0,0,0],&quot;strokeWidth&quot;:1}}" fill="#000000"/><path d="M314.0868,224.35628c-0.669,0.806 -1.376,5.471 -1.817,11.995c-0.398,5.872 -2.225,22.987 -4.06,38.033c-1.835,15.046 -3.336,29.251 -3.335,31.565c0.001,2.315 -0.439,8.279 -0.978,13.254c-0.746,6.882 -0.745,9.56 0.001,11.197c2.246,4.93 13.296,6.632 36.33,5.598c20.046,-0.9 28.554,-3.01 36.699,-9.102c2.714,-2.03 5.185,-3.691 5.492,-3.691c1.606,0 1.44,-3.909 -0.573,-13.43c-1.227,-5.808 -2.523,-11.14 -2.878,-11.85c-0.356,-0.709 -2.041,-6.77 -3.744,-13.468c-1.703,-6.697 -4.181,-15.587 -5.506,-19.753c-1.324,-4.167 -2.996,-9.659 -3.713,-12.206c-0.718,-2.546 -2.111,-7.47 -3.095,-10.942c-0.985,-3.473 -2.166,-8.208 -2.626,-10.522c-1.26,-6.34 -4.75,-9.121 -7.415,-5.91c-1.175,1.415 -0.449,5.432 3.014,16.685c1.112,3.612 2.022,7.608 2.022,8.881c0,1.272 0.32,2.673 0.711,3.113c1.576,1.772 11.875,37.807 14.905,52.146c0.684,3.241 1.656,7.153 2.16,8.693c0.809,2.474 0.687,3.043 -1.051,4.892c-3.263,3.473 -6.777,5.203 -15.103,7.433c-7.213,1.933 -9.445,2.127 -24.519,2.128c-9.12,0.002 -18.541,-0.417 -20.935,-0.931l-4.352,-0.933l0.509,-3.712c0.28,-2.041 0.741,-7.966 1.026,-13.166c0.285,-5.2 1.813,-20.06 3.397,-33.023c4.121,-33.718 5.623,-51.715 4.436,-53.145c-1.274,-1.535 -3.654,-1.454 -5.002,0.171z" data-paper-data="{&quot;wickUUID&quot;:&quot;b13fea0f-4f42-4034-8ea0-c3054c3538a7&quot;,&quot;wickType&quot;:&quot;path&quot;,&quot;originalStyle&quot;:{&quot;strokeColor&quot;:null,&quot;fillColor&quot;:[&quot;Color&quot;,0,0,0],&quot;strokeWidth&quot;:1}}" fill="#000000"/><path d="M352.6461,226.10204c-0.952,2.092 -0.789,2.404 2.754,5.26c9.609,7.745 15.541,14.416 24.802,27.893c11.314,16.465 14.819,23.244 14.15,27.364c-0.616,3.801 0.158,6.484 2.768,9.586c2.803,3.331 4.79,3.273 7.452,-0.216c3.625,-4.753 3.655,-7.402 0.13,-11.304c-1.67,-1.849 -4.373,-6.032 -6.005,-9.295c-7.897,-15.784 -28.547,-41.864 -38.84,-49.053c-4.349,-3.038 -5.91,-3.089 -7.211,-0.235z" data-paper-data="{&quot;wickUUID&quot;:&quot;dc4d8de0-fdf0-4449-9500-21a7dcf4f843&quot;,&quot;wickType&quot;:&quot;path&quot;,&quot;originalStyle&quot;:{&quot;strokeColor&quot;:null,&quot;fillColor&quot;:[&quot;Color&quot;,0,0,0],&quot;strokeWidth&quot;:1}}" fill="#000000"/><path d="M302.61727,237.72554c-6.413,6.689 -13.358,14.811 -15.434,18.048c-3.932,6.133 -5.036,7.09 -5.036,4.365c0,-0.89 -0.981,-2.784 -2.18,-4.208c-1.743,-2.072 -2.832,-2.59 -5.441,-2.59c-2.824,0 -3.548,0.421 -5.396,3.141c-1.174,1.728 -2.135,3.76 -2.135,4.516c0,1.94 3.214,5.794 5.582,6.695c1.853,0.704 1.994,1.204 1.994,7.092c0,5.211 0.298,6.632 1.683,8.017c0.926,0.926 1.978,1.684 2.338,1.684c2.212,0 4.463,-3.285 6.919,-10.095c1.514,-4.199 4.024,-9.744 5.576,-12.323c2.865,-4.757 16.015,-20.014 23.819,-27.635c2.353,-2.297 4.278,-4.778 4.278,-5.513c0,-1.753 -1.655,-3.357 -3.464,-3.357c-0.794,0 -6.69,5.473 -13.103,12.163z" data-paper-data="{&quot;wickUUID&quot;:&quot;8fb8e384-be98-42ed-a90a-71b0d8443238&quot;,&quot;wickType&quot;:&quot;path&quot;,&quot;originalStyle&quot;:{&quot;strokeColor&quot;:null,&quot;fillColor&quot;:[&quot;Color&quot;,0,0,0],&quot;strokeWidth&quot;:1}}" fill="#000000"/><path d="M325.13227,331.97607c-0.692,0.834 -1.229,11.076 -1.777,33.881c-0.431,17.977 -1.16,35.147 -1.619,38.157c-1.186,7.769 -1.037,16.971 0.405,25.128c0.684,3.867 1.034,7.371 0.777,7.786c-0.257,0.416 -2.316,0.756 -4.576,0.756c-2.26,0 -4.344,0.378 -4.63,0.841c-0.333,0.54 2.517,0.842 7.947,0.842h8.467v-2.798c0,-1.538 -0.614,-6.368 -1.365,-10.732c-0.935,-5.433 -1.191,-9.925 -0.811,-14.248c0.306,-3.472 0.94,-10.479 1.41,-15.572c1.224,-13.261 1.678,-62.864 0.588,-64.183c-1.162,-1.406 -3.591,-1.334 -4.816,0.142z" data-paper-data="{&quot;wickUUID&quot;:&quot;8b58ccdd-6842-4e38-98f2-5b77bddb624d&quot;,&quot;wickType&quot;:&quot;path&quot;,&quot;originalStyle&quot;:{&quot;strokeColor&quot;:null,&quot;fillColor&quot;:[&quot;Color&quot;,0,0,0],&quot;strokeWidth&quot;:1}}" fill="#000000"/><path d="M320.27031,435.9845c-6.314,0.719 -7.995,1.909 -7.653,5.415c0.226,2.315 0.528,2.578 2.779,2.424c5.923,-0.408 12.126,-1.659 13.38,-2.7c2.445,-2.029 1.064,-6.118 -1.975,-5.85c-0.717,0.064 -3.657,0.383 -6.531,0.711z" data-paper-data="{&quot;wickUUID&quot;:&quot;1dac15aa-511c-4971-911c-31caf661ef59&quot;,&quot;wickType&quot;:&quot;path&quot;,&quot;originalStyle&quot;:{&quot;strokeColor&quot;:null,&quot;fillColor&quot;:[&quot;Color&quot;,0,0,0],&quot;strokeWidth&quot;:1}}" fill="#000000"/><path d="M358.7081,330.40689c-0.889,1.071 -0.832,4.317 0.317,17.887c0.772,9.118 1.801,24.912 2.286,35.097c0.486,10.185 1.241,20.791 1.678,23.569c0.437,2.778 0.826,10.353 0.864,16.835c0.096,16.519 0.542,18.849 4.066,21.222c3.277,2.207 6.16,2.473 7.629,0.704c1.386,-1.671 0.304,-4.609 -2.022,-5.493c-2.496,-0.949 -2.974,-3.995 -2.986,-19.014c-0.005,-6.512 -0.366,-13.899 -0.801,-16.414c-0.435,-2.516 -1.195,-13.097 -1.689,-23.513c-1.131,-23.863 -3.398,-49.76 -4.477,-51.137c-1.134,-1.447 -3.557,-1.319 -4.865,0.257z" data-paper-data="{&quot;wickUUID&quot;:&quot;e51d4dab-ea22-4de4-9047-94a766624004&quot;,&quot;wickType&quot;:&quot;path&quot;,&quot;originalStyle&quot;:{&quot;strokeColor&quot;:null,&quot;fillColor&quot;:[&quot;Color&quot;,0,0,0],&quot;strokeWidth&quot;:1}}" fill="#000000"/></g><g fill="none" fill-rule="nonzero" stroke="none" stroke-width="1" stroke-linecap="butt" stroke-linejoin="miter" stroke-miterlimit="10" stroke-dasharray="" stroke-dashoffset="0" font-family="sans-serif" font-weight="normal" font-size="12" text-anchor="start" style="mix-blend-mode: normal"/><g id="wick_project_gui" fill="none" fill-rule="nonzero" stroke="none" stroke-width="1" stroke-linecap="butt" stroke-linejoin="miter" stroke-miterlimit="10" stroke-dasharray="" stroke-dashoffset="0" font-family="sans-serif" font-weight="normal" font-size="12" text-anchor="start" style="mix-blend-mode: normal"/></g></svg>