<svg version="1.1" xmlns="http://www.w3.org/2000/svg" xmlns:xlink="http://www.w3.org/1999/xlink" width="1260" height="594" viewBox="0,0,1260,594"><g transform="translate(216.10044,52.77655) scale(0.89906,0.89906)"><g id="wick_project_bg" fill="#333333" fill-rule="nonzero" stroke="none" stroke-width="1" stroke-linecap="butt" stroke-linejoin="miter" stroke-miterlimit="10" stroke-dasharray="" stroke-dashoffset="0" font-family="none" font-weight="none" font-size="none" text-anchor="none" style="mix-blend-mode: normal"><rect x="0" y="0" width="720" height="480"/></g><g data-paper-data="{&quot;wickUUID&quot;:&quot;9b8fa961-292a-4bf6-be92-26864deee254&quot;,&quot;wickType&quot;:&quot;clipsandpaths&quot;}" fill="none" fill-rule="evenodd" stroke="none" stroke-width="1" stroke-linecap="butt" stroke-linejoin="miter" stroke-miterlimit="10" stroke-dasharray="" stroke-dashoffset="0" font-family="none" font-weight="none" font-size="none" text-anchor="none" style="mix-blend-mode: normal"><path d="M397.76935,284.16311c-2.178,0.6 -3.699,1.509 -5.152,3.079c-3.133,3.383 -3.638,8.415 -1.251,12.464c2.17,3.682 6.685,5.702 10.879,4.865c5.16,-1.029 8.727,-5.613 8.44,-10.847c-0.15,-2.74 -1.092,-4.795 -3.131,-6.825c-2.087,-2.079 -3.913,-2.863 -6.906,-2.965c-1.468,-0.051 -2.023,-0.006 -2.879,0.229z" data-paper-data="{&quot;wickUUID&quot;:&quot;d4ab984d-7ce0-4bd6-a15b-e5acf9946773&quot;,&quot;wickType&quot;:&quot;path&quot;,&quot;originalStyle&quot;:{&quot;strokeColor&quot;:null,&quot;fillColor&quot;:[&quot;Color&quot;,1,0,0],&quot;strokeWidth&quot;:1}}" id="d4ab984d-7ce0-4bd6-a15b-e5acf9946773" fill="#ff0000"/><path d="M386.9824,208.98851c-0.906,0.268 -2.407,0.701 -3.337,0.961c-2.806,0.787 -5.488,3.396 -6.533,6.358c-0.642,1.82 -0.819,12.412 -0.268,16.013c0.222,1.45 0.492,6.045 0.599,10.212c0.215,8.339 0.515,10.075 2.12,12.291c3.807,5.256 11.505,5.799 16.046,1.132c1.89,-1.942 2.738,-4.325 2.738,-7.693c0,-2.361 0.062,-2.627 0.576,-2.482c1.471,0.414 3.113,0.588 10.953,1.161c13.225,0.966 21.194,0.624 24.837,-1.068c2.689,-1.248 6.891,-5.122 7.995,-7.37c0.845,-1.721 0.944,-2.289 1.046,-6.018c0.115,-4.191 0.046,-4.708 -1.517,-11.328c-1.278,-5.407 -3.476,-8.108 -7.57,-9.298c-3.74,-1.087 -7.377,-0.135 -10.297,2.696l-1.483,1.438l-2.47,-0.619c-2.636,-0.661 -7.042,-2.091 -10.541,-3.42c-1.177,-0.448 -2.734,-1.039 -3.459,-1.314c-2.266,-0.86 -4.853,-1.525 -7.247,-1.863c-3.427,-0.485 -10.235,-0.367 -12.188,0.211z" data-paper-data="{&quot;wickUUID&quot;:&quot;c37cd1ff-66a5-4407-9e83-72388fefde16&quot;,&quot;wickType&quot;:&quot;path&quot;,&quot;originalStyle&quot;:{&quot;strokeColor&quot;:null,&quot;fillColor&quot;:[&quot;Color&quot;,1,0,0],&quot;strokeWidth&quot;:1}}" id="c37cd1ff-66a5-4407-9e83-72388fefde16" fill="#ff0000"/><path d="M458.94277,271.80962c-2.035,0.575 -3.669,1.636 -5.203,3.379c-0.744,0.845 -2.032,1.801 -3.057,2.268c-2.004,0.913 -6.824,2.193 -10.5,2.788c-8.503,1.377 -10.466,1.714 -13.835,2.378c-4.905,0.966 -6.871,1.467 -9.883,2.516c-1.54,0.537 -3.689,1.273 -4.776,1.636c-3.005,1.004 -5.339,1.947 -6.512,2.632c-1.451,0.848 -5.271,5.333 -6.17,7.245c-1.54,3.277 -1.104,7.472 1.077,10.366c1.43,1.896 6.626,5.373 8.688,5.812c1.122,0.24 4.916,0.201 12.958,-0.13c10.534,-0.435 11.577,-0.532 14.171,-1.32c3.753,-1.14 4.629,-1.473 5.6,-2.129c0.453,-0.307 1.512,-0.859 2.355,-1.227c0.842,-0.369 2.152,-1.292 2.91,-2.05c1.429,-1.429 2.961,-4.26 2.967,-5.482c0.004,-0.997 0.573,-1.353 3.084,-1.936c2.425,-0.562 3.66,-1.064 8.671,-3.529c2.896,-1.424 3.736,-2.04 6.165,-4.523c3.468,-3.543 4.253,-5.118 4.278,-8.582c0.03,-4.232 -1.899,-7.446 -5.545,-9.241c-2.43,-1.197 -5.162,-1.516 -7.443,-0.871z" data-paper-data="{&quot;wickUUID&quot;:&quot;c7b7d50d-c571-417e-9328-7060bcedea64&quot;,&quot;wickType&quot;:&quot;path&quot;,&quot;originalStyle&quot;:{&quot;strokeColor&quot;:null,&quot;fillColor&quot;:[&quot;Color&quot;,1,0,0],&quot;strokeWidth&quot;:1}}" id="c7b7d50d-c571-417e-9328-7060bcedea64" fill="#ff0000"/><path d="M385.96516,197.55324c-4.609,0.426 -7.692,2.368 -9.589,6.037c-1.224,2.37 -1.282,6.161 -0.133,8.725c0.998,2.225 3.742,4.774 5.917,5.496c1.76,0.585 2.317,0.618 9.105,0.541c2.536,-0.028 5.427,0.102 6.423,0.289c4.362,0.82 9.029,1.102 12.189,0.736c2.083,-0.241 4.23,-0.262 6.423,-0.062c4.251,0.388 8.779,0.974 9.109,1.178c0.143,0.088 2.45,0.163 5.128,0.168c2.678,0.004 5.37,0.164 5.983,0.355l1.113,0.349l-0.281,2.019c-0.361,2.601 -0.364,9.808 -0.004,11.783l0.279,1.529l-1.275,0.182c-0.701,0.1 -2.535,0.347 -4.075,0.548c-1.54,0.202 -3.467,0.516 -4.283,0.698c-0.815,0.181 -2.149,0.48 -2.964,0.664c-0.816,0.184 -6.673,0.389 -13.016,0.455c-7.03,0.074 -12.111,0.266 -13.012,0.492c-0.813,0.204 -2.213,0.522 -3.111,0.706c-1.364,0.279 -5.013,1.877 -10.998,4.817c-1.539,0.756 -3.517,2.755 -4.359,4.405c-0.513,1.005 -0.795,2.409 -1.012,5.037c-0.277,3.345 -0.127,12.153 0.216,12.708c0.127,0.206 0.676,5.182 1.816,16.466c0.174,1.721 0.547,5.798 0.83,9.059c0.528,6.092 0.872,8.778 1.458,11.365c0.184,0.815 0.5,2.668 0.702,4.117c0.201,1.45 0.5,3.451 0.664,4.448c0.164,0.996 0.42,3.664 0.569,5.929c0.229,3.479 0.407,4.383 1.145,5.826c2.306,4.51 6.957,6.719 11.737,5.573c3.856,-0.924 7.047,-1.546 9.735,-1.899c1.45,-0.19 3.377,-0.457 4.283,-0.593c6.904,-1.04 9.164,-1.413 11.035,-1.824c1.178,-0.259 3.325,-0.628 4.771,-0.819c1.446,-0.192 3.373,-0.558 4.282,-0.813c0.909,-0.255 2.246,-0.631 2.971,-0.835c7.297,-2.061 9.154,-2.47 14.988,-3.305c2.627,-0.376 5.295,-0.814 5.929,-0.975c0.635,-0.16 1.992,-0.457 3.016,-0.659c2.266,-0.449 4.671,-1.982 5.947,-3.792c0.522,-0.74 1.477,-2.526 2.124,-3.968c1.137,-2.537 1.184,-2.802 1.44,-8.058c0.398,-8.185 0.983,-14.176 1.527,-15.648c1.298,-3.505 1.473,-4.345 1.337,-6.423c-0.181,-2.759 -1.322,-5.033 -3.515,-7.005c-2.019,-1.815 -4.031,-2.553 -6.911,-2.534c-2.46,0.017 -4.098,0.512 -5.96,1.802c-1.884,1.306 -2.918,2.84 -4.19,6.216c-1.319,3.502 -1.588,5.075 -2.333,13.64c-0.42,4.836 -0.67,6.427 -1.044,6.657c-0.27,0.166 -1.307,0.39 -2.305,0.498c-3.051,0.329 -9.432,1.774 -14.725,3.334c-2.028,0.598 -4.771,1.231 -6.095,1.408c-1.324,0.177 -3.519,0.54 -4.878,0.806c-1.358,0.267 -3.582,0.647 -4.941,0.846c-1.359,0.199 -3.656,0.58 -5.106,0.846c-1.449,0.267 -3.1,0.488 -3.667,0.491l-1.033,0.007l-0.223,-2.224c-0.123,-1.223 -0.431,-3.113 -0.684,-4.2c-0.838,-3.598 -1.141,-5.865 -1.65,-12.353c-0.495,-6.319 -0.972,-11.315 -2.107,-22.071c-0.421,-3.988 -0.476,-5.543 -0.209,-5.843c0.694,-0.775 3.659,-1.028 9.81,-0.835c6.628,0.207 15.949,-0.314 19.034,-1.063c5.873,-1.428 12.133,-2.053 14.829,-1.481c3.953,0.839 7.715,-0.145 10.25,-2.68c1.592,-1.592 2.302,-3.048 3.221,-6.606c0.682,-2.641 0.725,-3.353 0.555,-9.224c-0.101,-3.499 -0.273,-7.429 -0.381,-8.734c-0.186,-2.238 -0.056,-3.334 1.243,-10.475c0.164,-0.906 0.38,-2.88 0.479,-4.386c0.17,-2.59 0.123,-2.855 -0.865,-4.861c-0.66,-1.34 -1.915,-3.013 -3.411,-4.544c-2.568,-2.628 -3.123,-2.894 -8.296,-3.968c-1.45,-0.301 -3.154,-0.689 -3.789,-0.863c-4.992,-1.364 -6.781,-1.593 -10.974,-1.402c-4.049,0.184 -5.364,0.067 -10.896,-0.97c-1.083,-0.203 -4.434,-0.324 -7.577,-0.274c-8.888,0.141 -11.001,0.094 -12.144,-0.269c-0.587,-0.187 -2.624,-0.422 -4.527,-0.522c-1.902,-0.1 -4.57,-0.239 -5.929,-0.31c-1.359,-0.07 -3.669,-0.017 -5.135,0.119z" data-paper-data="{&quot;wickUUID&quot;:&quot;a502b540-e3c7-436d-bc4c-c7ddab55d340&quot;,&quot;wickType&quot;:&quot;path&quot;,&quot;originalStyle&quot;:{&quot;strokeColor&quot;:null,&quot;fillColor&quot;:[&quot;Color&quot;,1,0,0],&quot;strokeWidth&quot;:1}}" id="a502b540-e3c7-436d-bc4c-c7ddab55d340" fill="#ff0000"/><path d="M302.74997,201.13867c-4.822,0.76467 -7.65724,1.65646 -8.09457,2.18346c-0.55833,0.673 -1.72629,6.19831 -2.44862,12.02364c-0.36333,2.93333 -1.11608,7.37062 -1.67141,9.85295c-1.5,6.70967 -3.84339,19.74746 -5.21006,28.99046c-0.66433,4.49167 -1.73023,11.26658 -2.3639,15.02491c-2.80667,16.64533 -4.5184,29.28206 -5.12973,37.86439c-0.295,4.14567 -0.27456,5.61771 0.13977,7.96204c0.276,1.56033 0.50302,4.83415 0.50669,7.29815l0.40499,5.15265l7.21642,-0.12114c3.71267,-0.13733 18.74535,-0.36959 33.41202,-0.51626c14.66667,-0.147 26.76326,-0.28786 26.78393,-0.30719c0.02067,-0.01933 0.89507,-1.94392 1.02374,-3.36459c0.12833,-1.42067 0.52695,-4.68877 0.88462,-7.25544c0.90133,-6.46533 1.52993,-12.39056 1.97926,-18.66023c0.553,-7.709 1.80685,-17.58435 3.30085,-25.99602c1.76433,-9.934 1.54079,-10.40414 0.92279,-10.64114c-0.285,-0.10933 -5.51047,-0.70762 -10.9408,-0.97762c-12.837,-0.639 -12.71768,-0.60075 -14.07101,-1.95408c-1.26833,-1.26833 -1.19455,-0.8727 -0.21055,-2.1237c0.917,-1.166 1.9327,-1.32561 7.41603,-1.60261l5.13529,-0.51019l-0.00513,-5.38255c-0.119,-2.618 -0.51082,-7.45062 -0.86882,-10.71729c-0.35833,-3.26633 -0.89171,-8.5087 -1.18304,-11.62537c-0.29167,-3.11667 -0.97372,-8.41295 -1.51572,-11.76528c-0.58467,-3.61467 -0.98239,-7.32486 -0.98239,-9.16386l-0.52323,-3.81923l-8.38347,-0.28418c-13.26733,-0.36233 -21.36995,-0.22335 -25.52395,0.43532zM323.33033,216.26191c1.40367,3.128 2.0578,5.16066 4.1808,13.18366c2.63567,9.96133 2.61308,11.12523 -0.18159,13.81023l-0.44581,0.39778l-11.35385,-0.00322c-11.11,0 -10.94152,0.19691 -11.85385,-0.48076c-1.54133,-1.14467 -1.34258,-1.54197 -0.53158,-10.4893c1.244,-13.724 1.36985,-14.93502 2.94352,-16.40935c1.197,-1.12167 4.4096,-1.3573 11.19893,-1.3933l5.72403,-0.05975zM334.65897,272.81589c7.617,0.72533 9.14458,1.06313 10.03258,2.41846c0.813,1.241 0.28814,2.00164 -0.72186,2.94397c-2.22533,2.07567 -2.91951,4.82305 -3.43151,13.57305c-0.54667,9.34033 -1.03514,11.42314 -4.23047,12.42714c-3.73533,1.17333 -17.05456,2.07849 -26.97789,1.88816c-8.01967,-0.15367 -9.32481,-0.38092 -10.73314,-1.78892l-0.17882,-0.09253l0.18437,-5.51478c0.338,-10.232 2.32301,-22.26135 4.03834,-24.29968c0.851,-1.01133 2.00213,-1.10375 7.27946,-2.03408c3.61533,-0.63733 15.42127,-0.40812 24.73894,0.47921z" data-paper-data="{&quot;wickUUID&quot;:&quot;df805c38-d0f1-48a7-bd2d-ffbff67ff36d&quot;,&quot;wickType&quot;:&quot;path&quot;,&quot;originalStyle&quot;:{&quot;strokeColor&quot;:null,&quot;fillColor&quot;:[&quot;Color&quot;,1,0.50196,0],&quot;strokeWidth&quot;:1}}" id="df805c38-d0f1-48a7-bd2d-ffbff67ff36d" fill="#ff8000"/><path d="M239.05805,198.4875c-1.48833,0.15433 -6.43379,0.9734 -10.90379,1.80907c-11.73333,2.19333 -24.70071,4.35696 -33.08404,5.51929c-4.012,0.55633 -7.41337,1.0291 -7.45837,1.0291c-0.045,0 -0.91981,1.3174 -1.17148,1.9134c-0.75867,1.798 -0.48229,11.34257 0.83338,28.78457c0.664,8.8 1.7335,24.41884 2.3755,34.68551c1.33,21.266 1.8606,28.17953 2.99427,39.00786c0.44167,4.21667 0.90014,8.62389 1.02147,9.83822c0.18433,1.842 0.11808,2.28057 -0.46992,3.61057c-0.38767,0.87633 0.0281,2.64971 0.10743,2.72871c0.29967,0.29967 15.25455,1.75857 18.07555,1.76257l3.47534,-0.12553l0.19456,-2.477c-0.41267,-3.61533 -0.57536,-28.14236 -0.26136,-39.43936c0.35967,-12.93433 0.46324,-13.54349 2.48691,-14.50382c0.83067,-0.39433 -0.48895,-0.3256 0.46205,0.12807c1.558,0.74267 1.72405,1.60028 2.09438,10.32295c0.364,8.56767 1.18482,22.9037 1.64949,28.8007c0.17367,2.2 0.41748,6.30442 0.54215,9.12509l0.39935,5.59695l4.29348,0.14624c1.944,-0.102 5.95719,-0.56449 8.89052,-1.02549c2.93333,-0.46067 6.5637,-0.95028 7.9987,-1.07695c2.44033,-0.21533 3.28676,-1.08847 3.12943,-1.75114c-0.383,-1.61533 -0.58012,-67.28707 -0.25012,-83.3864c0.37067,-18.09767 0.65729,-23.66413 1.71762,-33.44146c0.446,-4.11333 0.24287,-6.95491 0.01854,-7.17924c-0.44567,-0.44567 -5.79104,-0.75248 -9.16104,-0.40248zM227.13351,219.31909c0.54733,0.283 0.49778,0.36463 0.79078,1.0983c0.92433,2.31567 1.65485,7.41099 1.70185,12.39132c0.066,6.988 0.06587,6.9991 -6.83246,10.41877c-5.28567,2.62033 -13.73286,5.58961 -15.91919,5.58961c-2.269,0 -3.8225,-1.75526 -4.3755,-4.50193c-0.68867,-3.42 -1.3361,-9.17795 -1.53477,-13.46795c-0.23033,-4.97833 -0.33507,-5.4745 1.52026,-6.87317c2.016,-1.52 6.92783,-2.72739 18.3395,-4.60472c3.77567,-0.621 5.1752,-0.6369 6.30953,-0.05023z" data-paper-data="{&quot;wickUUID&quot;:&quot;7c980b73-155b-49f7-bf8a-f41b8cb11271&quot;,&quot;wickType&quot;:&quot;path&quot;,&quot;originalStyle&quot;:{&quot;strokeColor&quot;:null,&quot;fillColor&quot;:[&quot;Color&quot;,1,1,0],&quot;strokeWidth&quot;:1}}" id="7c980b73-155b-49f7-bf8a-f41b8cb11271" fill="#ffff00"/><path d="M81.17285,217.02834c-0.48733,0.79967 -1.57954,3.43554 -2.41054,5.81887c-0.831,2.38333 -2.5306,6.63473 -3.75427,9.38473c-4.93933,11.10233 -6.07053,14.72404 -9.97586,31.92971c-1.371,6.03967 -0.99217,7.72433 -0.15817,7.462c6.538,-2.056 9.19132,-2.23291 11.52299,-1.14058c0.73333,0.34367 2.05976,1.53321 3.49209,2.88154l2.31753,1.959l-0.36925,9.25701c-0.627,16.61033 -0.88196,19.28391 -2.55763,20.22258c-2.312,1.295 -2.02552,-0.26618 -4.31052,-8.22685c-1.712,-5.96567 -2.62525,-10.53446 -3.13725,-15.56979c-0.40433,-3.98 -1.3902,-4.85128 -2.1462,-4.85128c-1.30833,0 -17.21466,5.27251 -19.94399,6.61318c-4.26233,2.09433 -4.74095,2.8343 -3.95728,5.89797c0.34933,1.36567 1.66976,5.49657 2.90476,8.88257c3.69467,10.13 3.86719,10.94194 4.05252,19.14994l0.17963,7.1568l2.69634,0.89159c2.682,0.38433 24.66139,0.2456 28.35606,-0.17873c2.42,-0.278 3.68174,-0.6169 5.44641,-1.51623c4.529,-2.30833 4.34639,-2.28621 19.85372,-2.45521l14.18396,-0.17581l1.49764,-4.25421c0.47967,-1.978 1.47416,-7.30389 2.21349,-11.84989c1.52567,-9.384 2.80256,-14.96234 5.44623,-23.79467c1.01267,-3.38367 2.4531,-8.45115 3.20943,-11.29282c0.756,-2.84167 1.51864,-5.62011 1.68664,-6.14544c0.168,-0.52533 -0.50351,-2.11968 -0.58918,-2.25768c-0.43267,-0.70033 -6.22579,-0.86793 -16.91679,-0.48526l-6.4373,0.2363l-0.46318,0.43208c-2.69667,-2.26933 -0.84264,-4.29155 5.97769,-6.24222c3.08567,-0.88267 8.89588,-1.10088 15.57721,-0.63121c6.287,0.44167 8.18334,0.82678 9.44001,1.88411c0.525,0.442 2.01464,0.33359 2.11097,0.33359c0.286,0 1.14709,-2.89204 2.73676,-9.25737c1.68733,-6.756 3.75619,-12.85295 7.17419,-21.14228c2.83667,-6.879 2.60729,-8.15273 1.81496,-8.45673c-1.28867,-0.49467 -8.76025,-1.36954 -15.42158,-1.69154c-3.83833,-0.18567 -18.85469,-0.42638 -33.33802,-0.53438l-26.38297,-0.19582z" data-paper-data="{&quot;wickUUID&quot;:&quot;9bb8740b-cb9d-4164-b53a-4ba3acff65b1&quot;,&quot;wickType&quot;:&quot;path&quot;,&quot;originalStyle&quot;:{&quot;strokeColor&quot;:null,&quot;fillColor&quot;:[&quot;Color&quot;,0,1,0],&quot;strokeWidth&quot;:1}}" id="9bb8740b-cb9d-4164-b53a-4ba3acff65b1" fill="#00ff00"/><path d="M78.55707,210.75527c-1.322,0.89 -5.203,9.021 -5.203,10.9c0,0.724 -1.372,4.19 -3.048,7.702c-4.765,9.985 -6.724,15.756 -8.737,25.746c-1.027,5.092 -2.805,11.608 -3.952,14.479c-1.83,4.579 -2.464,5.342 -5.17,6.218c-5.213,1.688 -12.523,5.661 -13.078,7.108c-0.911,2.374 -0.629,3.551 3.681,15.37c4.023,11.031 4.209,11.917 4.209,20.147c0.001,11.998 -0.775,11.593 22.269,11.593c17.495,0 17.78,-0.028 22.95,-2.314c4.644,-2.054 6.25,-2.315 14.213,-2.315c4.937,0 11.369,0.441 14.293,0.979c4.073,0.751 5.597,0.747 6.514,-0.014c1.233,-1.023 3.981,-13.095 5.672,-24.922c0.527,-3.685 2.793,-12.844 5.034,-20.353c2.241,-7.509 4.314,-14.926 4.606,-16.482c0.49,-2.616 0.737,-2.805 3.28,-2.508c1.7,0.198 3.234,-0.164 4.019,-0.949c0.699,-0.699 2.468,-6.151 3.932,-12.117c1.701,-6.931 4.33,-14.535 7.283,-21.069c2.543,-5.623 4.622,-10.954 4.622,-11.847c0,-2.474 -1.539,-3.276 -8.417,-4.39c-7.612,-1.232 -77.31,-2.081 -78.972,-0.962zM149.21307,216.85427c4.784,0.491 8.869,1.064 9.079,1.273c0.209,0.209 -1.425,4.534 -3.63,9.61c-2.206,5.077 -4.946,13.121 -6.089,17.877c-2.847,11.846 -2.57,11.246 -4.426,9.567c-1.204,-1.09 -3.847,-1.519 -11.556,-1.873c-8.459,-0.389 -10.765,-0.208 -15.009,1.176c-5.668,1.849 -7.294,3.517 -5.516,5.66c1.005,1.21 2.348,1.317 10.205,0.807c4.976,-0.322 10.358,-0.34 11.96,-0.04l2.913,0.547l-1.648,6.502c-0.906,3.577 -2.94,10.612 -4.52,15.635c-1.58,5.023 -3.461,13.356 -4.179,18.519c-0.718,5.162 -1.787,11.258 -2.375,13.545l-1.069,4.16l-14.688,0.049c-14.026,0.047 -14.859,0.144 -18.476,2.144c-3.522,1.948 -4.756,2.116 -17.57,2.389c-7.581,0.162 -14.967,0.072 -16.415,-0.2l-2.631,-0.494l-0.106,-7.787c-0.095,-7.084 -0.46,-8.731 -4.035,-18.237c-2.161,-5.748 -3.742,-10.939 -3.513,-11.536c0.57,-1.485 6.25,-4.286 11.626,-5.734c2.445,-0.659 6.265,-1.836 8.489,-2.616c2.224,-0.781 4.246,-1.218 4.492,-0.971c0.246,0.246 0.572,2.656 0.724,5.355c0.36,6.391 4.753,22.116 6.443,23.062c0.811,0.454 1.828,0.342 2.683,-0.294c1.139,-0.848 1.468,-3.488 1.912,-15.335l0.536,-14.309l-3.192,-3.157c-3.559,-3.52 -6.032,-3.92 -11.717,-1.895c-1.835,0.653 -3.437,1.086 -3.562,0.961c-0.125,-0.125 0.668,-3.991 1.762,-8.59c1.095,-4.6 2.598,-10.96 3.341,-14.134c0.742,-3.174 3.102,-9.424 5.244,-13.889c2.142,-4.465 4.251,-9.633 4.688,-11.485c0.437,-1.852 1.35,-4.219 2.029,-5.261l1.235,-1.894h28.932c15.912,0 32.845,0.402 37.629,0.893z" data-paper-data="{&quot;wickUUID&quot;:&quot;1a756536-2e4f-4f14-a497-c54c97322b2d&quot;,&quot;wickType&quot;:&quot;path&quot;,&quot;originalStyle&quot;:{&quot;strokeColor&quot;:null,&quot;fillColor&quot;:[&quot;Color&quot;,0,0,0],&quot;strokeWidth&quot;:1}}" id="1a756536-2e4f-4f14-a497-c54c97322b2d" fill="#000000"/><path d="M241.58923,192.29706c-0.253,0.243 -12.504,2.526 -33.535,6.249c-8.845,1.566 -22.255,3.109 -23.002,2.648c-0.323,-0.2 -1.238,0.063 -2.033,0.583c-1.105,0.724 -1.446,1.464 -1.45,3.14c-0.002,1.207 -0.277,3.876 -0.611,5.933c-0.419,2.583 -0.415,5.495 0.011,9.415c0.34,3.122 1.01,11.767 1.488,19.211c0.479,7.443 1.13,17.109 1.448,21.478c0.318,4.369 0.998,15.359 1.511,24.421c0.513,9.062 1.315,19.511 1.782,23.219c1.084,8.611 1.069,12.064 -0.073,17.086c-1.031,4.531 -0.599,6.265 1.674,6.731c3.414,0.698 19.112,2.1 23.517,2.1c4.432,0 5.084,-0.144 6.246,-1.382c1.188,-1.264 1.661,-1.358 5.585,-1.106c2.864,0.184 6.864,-0.157 12.054,-1.026c5.077,-0.851 8.737,-1.168 10.564,-0.917c2.445,0.336 2.95,0.214 4.025,-0.976c1.226,-1.357 1.228,-1.426 0.745,-31.666c-0.737,-46.23 0.535,-87.534 3.039,-98.708c0.973,-4.343 0.134,-5.077 -6.505,-5.682c-1.78,-0.162 -3.902,-0.459 -4.715,-0.661c-0.813,-0.201 -1.607,-0.242 -1.765,-0.09zM248.01023,199.50006c0.134,0.133 -0.068,2.827 -0.447,5.986c-1.643,13.671 -1.989,26.082 -1.961,70.321c0.017,25.16 0.199,46.278 0.406,46.929c0.333,1.048 0.111,1.183 -1.947,1.183c-1.277,0 -5.334,0.527 -9.014,1.171c-3.68,0.643 -7.949,1.173 -9.486,1.176l-2.795,0.007v-4.11c0,-2.26 -0.376,-8.417 -0.836,-13.682c-0.46,-5.264 -1.011,-15.132 -1.226,-21.929c-0.316,-10.014 -0.565,-12.553 -1.315,-13.387c-1.223,-1.362 -2.667,-1.303 -3.994,0.163c-0.957,1.058 -1.107,2.606 -1.327,13.681c-0.45,22.63 -0.43,31.845 0.079,36.763l0.503,4.854l-2.857,-0.006c-1.571,-0.003 -6.298,-0.395 -10.506,-0.871c-4.207,-0.476 -7.863,-0.87 -8.124,-0.877c-0.261,-0.006 -0.008,-0.802 0.563,-1.768c0.997,-1.688 0.986,-2.19 -0.276,-12.799c-0.722,-6.073 -1.696,-17.397 -2.164,-25.165c-1.853,-30.748 -2.384,-38.615 -4.167,-61.787c-0.838,-10.877 -0.674,-16.543 0.512,-17.729c0.174,-0.173 3.57,-0.694 7.547,-1.157c6.721,-0.783 25.922,-4.024 39.651,-6.693c5.209,-1.013 12.295,-1.16 13.181,-0.274z" data-paper-data="{&quot;wickUUID&quot;:&quot;068a9ba9-921b-47ee-b71c-7a8d3ec72505&quot;,&quot;wickType&quot;:&quot;path&quot;,&quot;originalStyle&quot;:{&quot;strokeColor&quot;:null,&quot;fillColor&quot;:[&quot;Color&quot;,0,0,0],&quot;strokeWidth&quot;:1}}" id="068a9ba9-921b-47ee-b71c-7a8d3ec72505" fill="#000000"/><path d="M221.58913,218.58603c-1.457,0.238 -4.502,0.73 -6.767,1.094c-4.951,0.795 -9.49,1.984 -11.801,3.093c-3.411,1.635 -3.621,3.466 -1.95,16.997c0.803,6.497 1.365,7.879 3.721,9.148c1.928,1.038 2.012,1.029 7.755,-0.865c8.029,-2.648 15.038,-6.021 16.577,-7.976c1.08,-1.374 1.292,-2.397 1.292,-6.247c0,-6.652 -1.12,-13.422 -2.438,-14.74c-1.145,-1.145 -2.032,-1.215 -6.389,-0.504zM224.15013,227.55903c0.204,1.7 0.373,4.438 0.376,6.086l0.005,2.997l-4.56,2.096c-4.733,2.175 -11.915,4.76 -12.263,4.413c-0.109,-0.11 -0.624,-3.47 -1.144,-7.468c-0.779,-5.99 -0.809,-7.353 -0.169,-7.751c1.091,-0.679 13.195,-3.269 15.847,-3.391c1.427,-0.066 1.563,0.15 1.908,3.018z" data-paper-data="{&quot;wickUUID&quot;:&quot;a210dc7c-d4d9-4737-a0cb-eb8e9d328755&quot;,&quot;wickType&quot;:&quot;path&quot;,&quot;originalStyle&quot;:{&quot;strokeColor&quot;:null,&quot;fillColor&quot;:[&quot;Color&quot;,0,0,0],&quot;strokeWidth&quot;:1}}" id="a210dc7c-d4d9-4737-a0cb-eb8e9d328755" fill="#000000"/><path d="M300.76806,195.93733c-6.666,1.089 -8.683,1.762 -10.177,3.393c-1.352,1.477 -2.332,5.781 -3.179,13.959c-0.319,3.075 -1.205,7.974 -1.971,10.886c-1.341,5.104 -4.553,23.909 -6.483,37.956c-0.512,3.722 -1.573,10.209 -2.357,14.417c-2.117,11.344 -2.532,14.342 -3.505,25.314c-1.023,11.539 -1.17,22.408 -0.312,22.939c0.324,0.2 0.589,1.393 0.589,2.65c0,1.549 0.444,2.803 1.379,3.889l1.378,1.603l24.8,-0.728c14.046,-0.412 29.654,-0.545 35.994,-0.307c10.491,0.394 11.272,0.351 12.426,-0.694c1.879,-1.7 2.716,-3.718 3.15,-7.59c0.217,-1.942 0.888,-6.973 1.49,-11.18c0.602,-4.208 1.266,-10.828 1.476,-14.712c0.453,-8.417 2.039,-19.72 4.127,-29.422c2.301,-10.695 2.282,-10.498 1.067,-11.549c-1.234,-1.066 -6.849,-2.28 -10.545,-2.28h-2.503l-0.334,-3.972c-0.184,-2.185 -0.639,-7.018 -1.011,-10.739c-0.373,-3.722 -0.763,-8.886 -0.868,-11.475c-0.105,-2.59 -0.791,-7.886 -1.525,-11.769c-0.733,-3.884 -1.355,-9.313 -1.382,-12.064c-0.065,-6.726 0.055,-6.395 -2.771,-7.642c-3.543,-1.564 -30.987,-2.186 -38.953,-0.883zM325.65106,201.31933l10.686,0.387v3.344c0,1.839 0.537,5.914 1.193,9.055c0.656,3.142 1.442,9.473 1.747,14.07c0.305,4.597 0.81,9.859 1.123,11.694c0.312,1.834 0.627,5.542 0.7,8.238l0.131,4.903l-5.732,0.294c-4.789,0.246 -5.871,0.482 -6.567,1.436c-1.092,1.498 -1.051,2.292 0.197,3.785c0.955,1.143 1.893,1.268 12.934,1.721c6.548,0.269 12.069,0.652 12.269,0.852c0.2,0.2 -0.312,3.89 -1.137,8.201c-2.148,11.219 -3.195,19.135 -3.642,27.551c-0.215,4.045 -0.771,9.871 -1.235,12.946c-0.702,4.644 -1.928,14.598 -1.966,15.963c-0.006,0.204 -7.756,0.336 -17.223,0.294c-9.467,-0.041 -24.561,0.138 -33.542,0.398l-16.33,0.474v-5.139c0,-2.827 -0.3,-5.971 -0.668,-6.987c-1.023,-2.831 0.79,-20.856 3.848,-38.251c1.423,-8.091 2.767,-16.433 2.986,-18.536c0.632,-6.052 4.902,-30.003 5.927,-33.248c0.511,-1.618 1.175,-5.458 1.475,-8.533c0.607,-6.226 1.658,-11.71 2.442,-12.741c0.284,-0.373 2.822,-0.992 5.641,-1.376c2.818,-0.383 5.521,-0.775 6.007,-0.871c1.691,-0.335 8.122,-0.309 18.736,0.076z" data-paper-data="{&quot;wickUUID&quot;:&quot;ab63eeac-cb97-4b20-9e21-009833e82043&quot;,&quot;wickType&quot;:&quot;path&quot;,&quot;originalStyle&quot;:{&quot;strokeColor&quot;:null,&quot;fillColor&quot;:[&quot;Color&quot;,0,0,0],&quot;strokeWidth&quot;:1}}" id="ab63eeac-cb97-4b20-9e21-009833e82043" fill="#000000"/><path d="M307.79796,271.9659c-2.59,0.49 -5.15,1.279 -5.689,1.754c-1.649,1.45 -3.754,13.393 -4.344,24.636c-0.37,7.046 -0.094,7.475 5.325,8.272c7.3,1.075 31.2,-0.458 34.566,-2.217c2.399,-1.253 3.464,-5.484 3.69,-14.662c0.157,-6.377 1.169,-9.775 3.481,-11.694c1.238,-1.027 1.168,-2.496 -0.188,-3.952c-0.876,-0.94 -2.167,-1.278 -6.032,-1.578c-2.705,-0.211 -7.433,-0.642 -10.508,-0.959c-7.694,-0.793 -14.721,-0.654 -20.301,0.4zM332.72196,278.0219c2.058,0.283 3.888,0.662 4.068,0.842c0.18,0.18 -0.01,1.057 -0.421,1.948c-0.412,0.892 -0.843,4.401 -0.959,7.8c-0.116,3.398 -0.37,7.142 -0.565,8.32l-0.354,2.141l-4.226,0.627c-9.845,1.46 -20.044,2.017 -23.566,1.286l-3.418,-0.71l0.382,-3.626c0.868,-8.235 2.118,-16.435 2.66,-17.446c0.399,-0.746 1.716,-1.266 4.262,-1.681c3.892,-0.636 15.846,-0.366 22.137,0.499z" data-paper-data="{&quot;wickUUID&quot;:&quot;202ff146-7f3f-43ee-af25-eb9694311400&quot;,&quot;wickType&quot;:&quot;path&quot;,&quot;originalStyle&quot;:{&quot;strokeColor&quot;:null,&quot;fillColor&quot;:[&quot;Color&quot;,0,0,0],&quot;strokeWidth&quot;:1}}" id="202ff146-7f3f-43ee-af25-eb9694311400" fill="#000000"/><path d="M311.91713,214.16186c-0.324,0.116 -1.852,0.382 -3.395,0.59c-3.767,0.508 -4.643,1.932 -5.198,8.455c-0.238,2.799 -0.721,8.257 -1.073,12.129c-0.878,9.652 -1.651,9.088 12.714,9.283c10.643,0.144 11.358,0.085 12.936,-1.08c0.927,-0.685 1.898,-2.133 2.183,-3.256c0.521,-2.049 0.512,-2.089 -3.409,-16.696c-0.695,-2.589 -1.785,-5.766 -2.421,-7.061l-1.157,-2.354l-5.296,-0.111c-2.913,-0.061 -5.561,-0.016 -5.884,0.101zM319.75613,221.38086c0.595,1.537 3.285,11.243 4.232,15.268c0.409,1.738 0.313,1.909 -1.264,2.256c-0.939,0.206 -4.615,0.186 -8.169,-0.044l-6.463,-0.419l-0.007,-2.131c-0.004,-1.172 0.316,-5.23 0.711,-9.017l0.717,-6.887l2.085,-0.223c1.146,-0.123 3.31,-0.268 4.808,-0.323c2.467,-0.089 2.782,0.054 3.35,1.52z" data-paper-data="{&quot;wickUUID&quot;:&quot;774ea46a-a284-4072-b0ae-28c47f1309f8&quot;,&quot;wickType&quot;:&quot;path&quot;,&quot;originalStyle&quot;:{&quot;strokeColor&quot;:null,&quot;fillColor&quot;:[&quot;Color&quot;,0,0,0],&quot;strokeWidth&quot;:1}}" id="774ea46a-a284-4072-b0ae-28c47f1309f8" fill="#000000"/><path d="M376.40133,195.66987c-4.378,0.787 -4.953,1.377 -4.532,4.648c0.189,1.47 0.502,5.984 0.695,10.029c0.193,4.046 0.846,12.52 1.451,18.831c0.605,6.311 1.39,15.976 1.744,21.478c0.999,15.51 2.797,31.729 5.088,45.9c2.086,12.897 3.451,30.573 2.453,31.747c-0.795,0.935 -0.534,2.441 0.601,3.469c0.757,0.685 2.155,0.974 4.714,0.974c3.363,0 14.497,-1.505 15.438,-2.087c0.227,-0.14 3.421,-0.663 7.098,-1.163c3.678,-0.499 10.659,-1.69 15.514,-2.644c4.855,-0.955 11.475,-2.145 14.711,-2.643c4.969,-0.766 19.57,-3.285 24.349,-4.201c0.77,-0.148 2.16,-1.029 3.09,-1.959c1.43,-1.43 1.69,-2.162 1.69,-4.77c0,-6.563 3.214,-38.456 4.188,-41.557c0.724,-2.305 -0.089,-4.13 -2.062,-4.625c-1.723,-0.432 -15.088,2.823 -20.635,5.027c-2.295,0.912 -11.316,3.566 -20.045,5.898c-8.729,2.332 -17.584,4.862 -19.678,5.622c-2.094,0.76 -3.92,1.269 -4.058,1.131c-0.138,-0.138 -1.137,-5.211 -2.218,-11.272c-1.52,-8.514 -1.802,-11.126 -1.242,-11.481c0.399,-0.254 3.109,-0.467 6.022,-0.475c2.912,-0.007 10.592,-0.405 17.065,-0.883c6.473,-0.479 15.381,-0.874 19.795,-0.878c11.618,-0.012 10.786,1.234 10.88,-16.286c0.071,-13.436 0.691,-22.278 2.02,-28.841c0.487,-2.403 1.044,-3.37 2.644,-4.591c2.767,-2.11 2.522,-4.366 -0.657,-6.059c-2.514,-1.339 -18.674,-4.429 -31.151,-5.956c-16.422,-2.011 -49.151,-3.43 -54.972,-2.383zM402.85533,201.81787c19.986,1.283 26.175,1.877 37.05,3.554c12.887,1.987 16.246,2.798 15.948,3.851c-1.38,4.885 -1.814,7.171 -2.458,12.946c-0.412,3.693 -0.766,12.342 -0.787,19.219l-0.038,12.505h-7.718c-4.245,0 -11.007,0.267 -15.026,0.593c-4.019,0.327 -12.141,0.83 -18.048,1.119c-12.378,0.605 -13.653,1.029 -13.653,4.537c0,1.953 2.524,17.578 4.354,26.953c0.777,3.978 1.877,5.636 3.739,5.636c0.443,0 2.71,-0.922 5.036,-2.049c2.653,-1.285 10.704,-3.798 21.59,-6.738c9.547,-2.579 18.815,-5.266 20.596,-5.971c3.531,-1.398 12.748,-4.073 14.035,-4.073c0.547,0 0.694,0.437 0.46,1.369c-0.322,1.284 -1.305,11.626 -2.915,30.67l-0.694,8.206l-3.825,0.676c-2.104,0.372 -9.518,1.638 -16.477,2.814c-6.958,1.175 -15.829,2.779 -19.713,3.564c-3.884,0.785 -9.577,1.738 -12.652,2.117c-3.074,0.38 -6.607,0.952 -7.849,1.272c-2.641,0.68 -11.984,2.248 -13.482,2.263c-0.913,0.009 -1.03,-0.657 -1.03,-5.844c0,-6.205 -0.917,-14.246 -3.243,-28.425c-1.837,-11.203 -3.545,-27.277 -4.704,-44.274c-0.508,-7.441 -1.296,-17.106 -1.752,-21.479c-0.455,-4.372 -1.012,-11.832 -1.238,-16.577l-0.409,-8.628l1.407,-0.266c2.873,-0.543 10.063,-0.402 23.496,0.46z" data-paper-data="{&quot;wickUUID&quot;:&quot;9ea4f058-3534-46e6-87c5-919b53ed33fa&quot;,&quot;wickType&quot;:&quot;path&quot;,&quot;originalStyle&quot;:{&quot;strokeColor&quot;:null,&quot;fillColor&quot;:[&quot;Color&quot;,0,0,0],&quot;strokeWidth&quot;:1}}" id="9ea4f058-3534-46e6-87c5-919b53ed33fa" fill="#000000"/></g><g fill="none" fill-rule="nonzero" stroke="none" stroke-width="1" stroke-linecap="butt" stroke-linejoin="miter" stroke-miterlimit="10" stroke-dasharray="" stroke-dashoffset="0" font-family="sans-serif" font-weight="normal" font-size="12" text-anchor="start" style="mix-blend-mode: normal"/><g id="wick_project_gui" fill="none" fill-rule="nonzero" stroke="none" stroke-width="1" stroke-linecap="butt" stroke-linejoin="miter" stroke-miterlimit="10" stroke-dasharray="" stroke-dashoffset="0" font-family="sans-serif" font-weight="normal" font-size="12" text-anchor="start" style="mix-blend-mode: normal"/></g></svg>