<svg version="1.1" xmlns="http://www.w3.org/2000/svg" xmlns:xlink="http://www.w3.org/1999/xlink" width="1260" height="594" viewBox="0,0,1260,594"><g transform="translate(186.82869,14.49462) scale(1.05768,1.05768)"><g id="wick_project_bg" fill="#333333" fill-rule="nonzero" stroke="none" stroke-width="1" stroke-linecap="butt" stroke-linejoin="miter" stroke-miterlimit="10" stroke-dasharray="" stroke-dashoffset="0" font-family="none" font-weight="none" font-size="none" text-anchor="none" style="mix-blend-mode: normal"><rect x="0" y="0" width="720" height="480"/></g><g data-paper-data="{&quot;wickUUID&quot;:&quot;c5345d4d-1f63-4522-9b22-52eb4e20946a&quot;,&quot;wickType&quot;:&quot;clipsandpaths&quot;}" fill="none" fill-rule="nonzero" stroke="none" stroke-width="1" stroke-linecap="butt" stroke-linejoin="miter" stroke-miterlimit="10" stroke-dasharray="" stroke-dashoffset="0" font-family="sans-serif" font-weight="normal" font-size="12" text-anchor="start" opacity="0.35" style="mix-blend-mode: normal"/><g data-paper-data="{&quot;wickUUID&quot;:&quot;1d17a68e-89b7-46f3-846c-8e48cbdcaea3&quot;,&quot;wickType&quot;:&quot;clipsandpaths&quot;}" fill="#ff0000" fill-rule="evenodd" stroke="none" stroke-width="1" stroke-linecap="butt" stroke-linejoin="miter" stroke-miterlimit="10" stroke-dasharray="" stroke-dashoffset="0" font-family="none" font-weight="none" font-size="none" text-anchor="none" style="mix-blend-mode: normal"><path d="M34.34236,12.95918c-3.782,1.523 -16.998,15.681 -20.526,21.99c-2.814,5.033 -3.272,6.562 -2.541,8.486c0.491,1.29 1.598,2.617 2.46,2.948c3.772,1.447 5.247,0.541 9.413,-5.781c2.313,-3.51 5.247,-7.614 6.521,-9.12l2.316,-2.738l0.506,17.866c0.278,9.826 0.783,19.397 1.123,21.269l0.617,3.403l-9.574,0.527c-10.586,0.584 -14.236,2.065 -14.236,5.778c0,4.544 1.993,5.083 20.8,5.628c9.62,0.278 21.959,0.958 27.419,1.511c9.09,0.921 10.127,0.859 12.291,-0.735c4.657,-3.43 2.905,-8.939 -3.132,-9.85c-7.536,-1.136 -21.983,-4.765 -22.544,-5.662c-1.74,-2.784 -2.925,-21.082 -2.353,-36.317l0.611,-16.241l-2.492,-1.959c-2.716,-2.137 -3.551,-2.262 -6.679,-1.003z" data-paper-data="{&quot;wickUUID&quot;:&quot;5f930104-5920-476a-8155-a9066688f852&quot;,&quot;wickType&quot;:&quot;path&quot;}"/><path d="M110.64036,11.22225c-7.379,2.097 -13.543,10.043 -14.778,19.05c-0.635,4.634 1.09,7.258 4.772,7.258c2.948,0 5.021,-2.571 6.739,-8.355c1.952,-6.573 4.326,-8.061 12.015,-7.531c4.021,0.277 7.678,1.293 11.455,3.182c4.922,2.463 5.759,3.31 7.409,7.503c2.217,5.634 1.77,10.139 -1.337,13.455c-3.924,4.187 -13.411,8.657 -25.843,12.176c-6.738,1.907 -12.994,4.113 -13.904,4.902c-2.133,1.848 -2.125,6.095 0.014,8.031c1.385,1.253 5.536,1.622 24.346,2.163c22.072,0.636 22.723,0.602 24.402,-1.28c2.39,-2.678 1.759,-6.931 -1.253,-8.447c-1.3,-0.654 -4.703,-1.205 -7.563,-1.224l-5.201,-0.035l4.882,-2.846c13.102,-7.639 16.687,-19.039 10.435,-33.177c-2.787,-6.302 -6.262,-8.992 -16.941,-13.117c-7.646,-2.954 -13.48,-3.461 -19.649,-1.708z" data-paper-data="{&quot;wickUUID&quot;:&quot;0b1fc4f8-73a3-463c-a847-1e20cdc5dd83&quot;,&quot;wickType&quot;:&quot;path&quot;}"/><path d="M176.24339,16.54558c-5.155,2.123 -6.984,3.764 -6.984,6.265c0,3.93 2.115,5.58 6.223,4.852c16.641,-2.947 26.869,-0.126 26.869,7.411c0,2.318 -1.155,3.969 -5.854,8.372c-3.22,3.017 -6.943,5.715 -8.273,5.995c-1.33,0.281 -3.908,1.029 -5.728,1.661c-2.869,0.997 -3.348,1.609 -3.599,4.6c-0.381,4.536 1.954,5.888 8.711,5.044c4.146,-0.518 5.363,-0.283 8.071,1.56c4.146,2.821 6.357,6.061 7.091,10.392c0.808,4.766 -1.194,5.717 -13.529,6.43c-10.53,0.608 -12.418,1.567 -12.418,6.307c0,4.07 3.685,5.346 13.971,4.837c18.689,-0.925 25.747,-8.437 21.535,-22.924c-1.11,-3.818 -2.822,-6.763 -5.756,-9.9l-4.176,-4.464l3.402,-3.236c3.794,-3.61 7.885,-11.437 7.867,-15.054c-0.018,-3.771 -3.167,-9.691 -6.896,-12.966c-6.852,-6.016 -22.182,-8.618 -30.527,-5.182z" data-paper-data="{&quot;wickUUID&quot;:&quot;560de72d-d3b5-48f8-9182-f598dd1f7204&quot;,&quot;wickType&quot;:&quot;path&quot;}"/><path d="M259.19607,22.99385c-2.126,1.49 -2.174,1.826 -1.535,10.759c0.409,5.705 0.309,9.439 -0.26,9.791c-0.506,0.313 -3.987,0.854 -7.735,1.202l-6.815,0.634l0.655,-7.505c0.726,-8.319 -0.103,-10.036 -4.842,-10.036c-4.019,0 -5.001,1.976 -6.128,12.333c-1.35,12.412 -0.619,13.918 7.24,14.9c2.931,0.366 7.882,0.434 11.002,0.151l5.673,-0.514l-0.34,16.43c-0.303,14.613 -0.16,16.612 1.299,18.072c1.295,1.295 2.185,1.449 4.234,0.728c4.059,-1.428 4.968,-4.426 4.995,-16.481c0.014,-5.98 0.293,-12.496 0.621,-14.48l0.595,-3.606l5.913,0.633c5.234,0.561 6.141,0.405 7.903,-1.357c4.469,-4.469 1.029,-9.554 -6.463,-9.554c-2.57,0 -4.956,-0.46 -5.303,-1.021c-0.347,-0.561 -0.583,-4.196 -0.524,-8.076c0.113,-7.551 -1.33,-11.829 -4.577,-13.567c-2.429,-1.299 -3.034,-1.239 -5.608,0.564z" data-paper-data="{&quot;wickUUID&quot;:&quot;8ff294fb-20ad-4da1-8c7a-a17bd873e3a5&quot;,&quot;wickType&quot;:&quot;path&quot;}"/><path d="M321.02155,21.05445c-9.461,1.878 -11.284,3.506 -11.673,10.426c-0.173,3.067 -0.021,10.834 0.337,17.26c0.55,9.864 0.944,11.975 2.531,13.563c2.006,2.006 1.628,2.013 15.566,-0.271c8.393,-1.376 11.203,-0.718 13.578,3.178c3.688,6.048 1.983,10.544 -5.415,14.282c-3.775,1.907 -7.572,1.943 -11.956,0.111c-4.944,-2.066 -10.712,-1.868 -11.931,0.41c-2.094,3.913 0.138,8.572 4.106,8.572c0.895,0 2.989,0.71 4.653,1.578c1.772,0.924 5.378,1.609 8.699,1.653c6.879,0.092 14.25,-3.157 19.566,-8.622c2.911,-2.992 3.658,-4.614 4.473,-9.713c0.871,-5.448 0.767,-6.56 -0.952,-10.111c-2.84,-5.865 -5.306,-8.636 -9.667,-10.861c-3.479,-1.774 -4.869,-1.919 -13.057,-1.355l-9.163,0.631l-0.682,-9.09c-0.426,-5.689 -0.33,-9.441 0.256,-10.028c0.516,-0.515 4.292,-1.143 8.391,-1.395c10.933,-0.671 13.5,-1.208 15.542,-3.25c2.223,-2.223 2.361,-4.962 0.353,-6.971c-1.889,-1.889 -14.032,-1.887 -23.555,0.003z" data-paper-data="{&quot;wickUUID&quot;:&quot;18e652dd-375d-4ded-84f5-334b2b4e1bbb&quot;,&quot;wickType&quot;:&quot;path&quot;}"/><path d="M391.12197,20.94345c-4.443,1.585 -11.526,7.438 -15.087,12.469c-5.167,7.3 -7.048,28.808 -3.518,40.236c1.03,3.335 2.843,6.975 4.028,8.088c3.787,3.558 14.787,8.741 18.514,8.723c5.683,-0.026 19.916,-3.376 21.874,-5.148c2.376,-2.151 4.766,-9.28 4.766,-14.218c0,-4.983 -2.504,-12.585 -5.091,-15.453c-1.1,-1.22 -3.841,-3.301 -6.093,-4.625c-3.816,-2.245 -4.636,-2.366 -12.139,-1.789c-8.362,0.643 -10.681,1.4 -14.259,4.659l-2.127,1.938v-2.955c0,-1.625 0.472,-5.209 1.049,-7.965c0.866,-4.139 1.871,-5.79 5.78,-9.501c5.88,-5.581 7.983,-5.692 13.389,-0.709c4.514,4.161 7.856,4.823 10.363,2.053c2.452,-2.71 1.895,-4.617 -2.822,-9.66c-3.235,-3.459 -5.637,-5.061 -9.153,-6.105c-5.612,-1.666 -4.914,-1.664 -9.474,-0.038zM407.34397,61.95045c3.209,2.997 4.711,8.505 3.365,12.333c-1.636,4.651 -14.372,6.416 -21.193,2.937c-4.251,-2.169 -4.521,-2.823 -1.853,-4.489c1.347,-0.842 1.891,-2.205 1.891,-4.744c0,-4.688 2.115,-7.556 5.921,-8.029c7.566,-0.94 8.985,-0.702 11.869,1.992z" data-paper-data="{&quot;wickUUID&quot;:&quot;c3faaa40-52fb-4665-8e25-8637770b926a&quot;,&quot;wickType&quot;:&quot;path&quot;}"/><path d="M444.86345,17.82905c-2.08,0.5 -5.294,0.678 -7.143,0.396c-5.823,-0.889 -9.156,3.12 -6.586,7.922c1.502,2.807 5.846,3.79 12.501,2.827c8.493,-1.228 21.555,-1.144 21.555,0.139c0,0.571 -2.939,7.06 -6.533,14.419c-7.587,15.538 -14.529,30.828 -16.206,35.692c-1.566,4.54 -0.567,8.225 2.433,8.978c3.522,0.884 6.476,-1.604 8.705,-7.33c3.771,-9.69 13.249,-30.625 16.628,-36.733c1.873,-3.384 4.056,-7.997 4.851,-10.25c0.795,-2.252 2.514,-5.366 3.82,-6.918c2.711,-3.222 3.054,-6.592 0.89,-8.756c-1.233,-1.233 -4.006,-1.469 -16.31,-1.391c-8.153,0.053 -16.525,0.505 -18.605,1.005z" data-paper-data="{&quot;wickUUID&quot;:&quot;71a287f1-76fe-4308-b462-91af5af09ecb&quot;,&quot;wickType&quot;:&quot;path&quot;}"/><path d="M506.81979,10.66278c-4.321,1.874 -6.465,3.899 -8.638,8.156c-3.45,6.76 -1.373,13.432 5.421,17.414l4.13,2.42l-3.209,3.748c-3.103,3.626 -5.296,9.57 -5.296,14.357c0,5.148 3.845,14.809 7.248,18.212c7.103,7.103 11.315,8.289 19.516,5.494c7.013,-2.389 12.946,-11.265 12.946,-19.366c0,-4.842 -2.997,-12.584 -6.612,-17.082l-2.89,-3.597l3.724,-2.35c4.717,-2.978 6.723,-5.839 6.723,-9.59c0,-5.789 -1.763,-8.608 -7.875,-12.589c-10.143,-6.609 -18.164,-8.273 -25.188,-5.227zM524.54879,23.79178c2.227,1.476 3.904,3.15 3.726,3.72c-0.178,0.57 -2.236,2.06 -4.575,3.312l-4.252,2.276l-5.618,-3.282c-3.09,-1.806 -5.771,-4.078 -5.958,-5.05c-0.965,-5.012 9.653,-5.634 16.677,-0.976zM522.11079,48.63878c2.766,2.952 6.426,9.818 6.426,12.055c0,2.365 -3.547,8.69 -5.237,9.338c-6.641,2.549 -12.726,-4.197 -12.726,-14.108c0,-3.556 0.508,-4.866 2.763,-7.121c3.448,-3.448 5.658,-3.489 8.774,-0.164z" data-paper-data="{&quot;wickUUID&quot;:&quot;e82af8d8-acbd-4573-a90e-78f01eded600&quot;,&quot;wickType&quot;:&quot;path&quot;}"/><path d="M562.10121,17.34705c-8.02,4.206 -14.655,14.487 -14.655,22.707c0,4.364 3.71,7.985 13.153,12.84c5.46,2.807 7.959,3.545 11.999,3.545h5.103v7.417c0,6.166 0.313,7.7 1.853,9.094c2.188,1.98 6.149,1.364 7.448,-1.158c1.053,-2.045 2.448,-21.573 2.32,-32.485c-0.082,-6.963 -0.438,-8.683 -2.442,-11.818c-6.217,-9.722 -17.092,-14.173 -24.779,-10.142zM575.98021,30.81905c3.18,3.526 4.563,10.892 2.444,13.012c-0.774,0.774 -3.062,1.607 -5.084,1.851c-2.907,0.351 -4.723,-0.168 -8.686,-2.482c-2.756,-1.609 -5.251,-3.551 -5.544,-4.315c-0.818,-2.132 1.495,-6.795 4.716,-9.505c3.77,-3.172 8.501,-2.612 12.154,1.439z" data-paper-data="{&quot;wickUUID&quot;:&quot;259b3165-5721-446f-9800-42cb936827fc&quot;,&quot;wickType&quot;:&quot;path&quot;}"/><path d="M620.72002,14.36765c-6.829,2.415 -8.413,5.23 -11.227,19.956c-1.741,9.111 -2.457,15.74 -2.337,21.643l0.174,8.509l3.862,3.909c8.103,8.203 21.966,7.939 33.322,-0.636c5.67,-4.28 8.419,-9.016 9.398,-16.188c0.713,-5.231 -1.916,-20.596 -4.337,-25.342c-2.621,-5.138 -8.02,-9.241 -15.009,-11.408c-7.039,-2.183 -8.769,-2.238 -13.846,-0.443zM634.11902,26.12565c5.379,2.442 6.906,5.198 8.539,15.418c1.248,7.804 1.242,9.115 -0.048,12.127c-2.228,5.199 -8.092,8.759 -15.175,9.21c-6.746,0.429 -7.328,-0.007 -8.965,-6.714c-0.894,-3.666 -0.819,-6.185 0.395,-13.237c2.041,-11.857 3.387,-17.088 4.608,-17.913c1.82,-1.228 6.594,-0.731 10.646,1.109z" data-paper-data="{&quot;wickUUID&quot;:&quot;c343d594-2078-40f3-8c9b-f1ec17f5fa22&quot;,&quot;wickType&quot;:&quot;path&quot;}"/></g><g data-paper-data="{&quot;wickUUID&quot;:&quot;a21a4127-3b6e-443b-9e1e-3ee9abe57c38&quot;,&quot;wickType&quot;:&quot;clipsandpaths&quot;}" fill="none" fill-rule="evenodd" stroke="none" stroke-width="1" stroke-linecap="butt" stroke-linejoin="miter" stroke-miterlimit="10" stroke-dasharray="" stroke-dashoffset="0" font-family="none" font-weight="none" font-size="none" text-anchor="none" opacity="0.35" style="mix-blend-mode: normal"><path d="M580.61127,239.98911c-0.985,1.022 -2.544,3.739 -3.465,6.039c-0.921,2.299 -2.44,5.001 -3.376,6.003c-0.936,1.003 -2.296,2.689 -3.023,3.748l-1.321,1.925l-4.916,-0.406c-7.907,-0.653 -9.746,-0.545 -11.369,0.667c-2.93,2.187 -3.04,5.895 -0.257,8.659c1.966,1.954 5.134,6.641 6.181,9.147c1.917,4.588 0.392,15.509 -3.093,22.147c-2.909,5.539 -6.384,13.307 -6.384,14.271c0,1.73 1.678,4.116 3.393,4.827c3.954,1.638 6.613,-0.538 9.753,-7.977c1.565,-3.71 2.726,-5.729 3.292,-5.729c0.482,0 2.022,-0.573 3.423,-1.272l2.547,-1.272l2.089,2.338c11.404,12.761 14.72,17.904 15.449,23.958c0.39,3.244 0.733,4.109 2.09,5.277c2.136,1.837 5.649,1.5 7.563,-0.724c1.707,-1.986 1.745,-6.973 0.088,-11.886c-2.552,-7.569 -3.35,-12.857 -3.363,-22.283l-0.012,-9.008l2.201,-5.285c2.646,-6.354 5.138,-10.346 9.514,-15.241c3.073,-3.438 3.257,-3.807 2.97,-5.948c-0.185,-1.381 -0.882,-2.857 -1.765,-3.741c-1.356,-1.356 -1.961,-1.485 -8.547,-1.835c-3.898,-0.207 -7.347,-0.537 -7.666,-0.734c-0.318,-0.197 -0.885,-2.998 -1.26,-6.225c-0.936,-8.066 -1.014,-8.355 -2.7,-9.918c-2.298,-2.129 -5.719,-1.926 -8.036,0.478z" data-paper-data="{&quot;wickUUID&quot;:&quot;32bcf165-c094-4576-a42c-c095fd4f8d1f&quot;,&quot;wickType&quot;:&quot;path&quot;,&quot;originalStyle&quot;:{&quot;strokeColor&quot;:null,&quot;fillColor&quot;:[&quot;Color&quot;,1,1,0],&quot;strokeWidth&quot;:1}}" fill="#ffff00"/><path d="M585.16004,229.05267c-2.062,1.858 -4.82,5.399 -15.951,20.483l-2.141,2.902l-9.92,0.728c-5.455,0.4 -10.352,0.959 -10.881,1.243c-1.895,1.014 -1.756,2.661 0.638,7.584c1.279,2.63 2.325,5.196 2.325,5.703c0,0.507 0.763,2.588 1.696,4.625c3.345,7.302 3.498,7.814 2.914,9.704c-0.302,0.975 -1.352,5.375 -2.334,9.777c-0.982,4.403 -2.163,9.548 -2.626,11.435c-1.019,4.158 -2.058,16.44 -1.566,18.515c0.546,2.307 1.893,3.497 3.957,3.497c1.594,0 2.345,-0.56 5.175,-3.859c1.821,-2.122 5.971,-6.598 9.222,-9.946c5.698,-5.868 5.939,-6.043 6.675,-4.86c0.421,0.675 0.942,1.988 1.159,2.917c0.532,2.283 3.479,6.889 10.377,16.223c6.134,8.299 10.617,12.963 13.047,13.573c2.214,0.556 4.174,-1.006 4.891,-3.897c0.332,-1.338 0.876,-3.332 1.208,-4.433c0.789,-2.608 -0.054,-11.235 -1.955,-20.011c-1.873,-8.651 -2.775,-14.247 -3.096,-19.221l-0.263,-4.069l2.918,-3.621c1.604,-1.991 2.917,-3.878 2.917,-4.194c0,-0.315 0.753,-1.357 1.674,-2.315c0.921,-0.959 3.077,-4.367 4.791,-7.573c1.713,-3.207 4.264,-7.195 5.667,-8.863c3.18,-3.777 3.572,-4.825 2.447,-6.542c-0.857,-1.309 -1.124,-1.35 -9.018,-1.391c-4.474,-0.023 -9.292,-0.216 -10.707,-0.429c-2.883,-0.433 -2.465,0.47 -4.29,-9.248c-2.224,-11.845 -3.06,-15.106 -4.058,-15.836c-1.559,-1.14 -2.312,-0.925 -4.892,1.399zM587.73404,241.20267c0.494,2.044 1.069,5.131 1.277,6.861c0.415,3.441 1.75,9.131 2.262,9.643c0.48,0.48 7.901,1.144 13.239,1.184l4.683,0.036l-2.631,5.003c-1.447,2.751 -3.357,6.032 -4.244,7.289c-0.888,1.258 -2.558,3.702 -3.712,5.432c-1.154,1.73 -3.114,4.261 -4.356,5.625l-2.258,2.481l0.273,6.667c0.296,7.214 1.44,15.129 3.313,22.905c1.39,5.774 1.994,12.193 1.43,15.201l-0.401,2.137l-1.461,-1.351c-1.925,-1.779 -12.091,-15.429 -14.204,-19.074c-0.912,-1.573 -2.098,-4.142 -2.636,-5.71c-1.148,-3.347 -4.863,-7.155 -6.98,-7.155c-1.739,0 -2.176,0.393 -10.354,9.291c-3.685,4.01 -6.934,7.29 -7.221,7.29c-0.857,0 -0.592,-4.35 0.568,-9.332c0.599,-2.572 1.906,-8.278 2.905,-12.68c0.999,-4.403 2.053,-8.751 2.342,-9.662c0.926,-2.923 0.578,-4.793 -1.955,-10.489c-2.19,-4.926 -5.062,-12.806 -4.771,-13.096c0.282,-0.283 11.594,-1.344 14.328,-1.344h3.119l3.29,-4.717c6.783,-9.725 12.441,-17.039 12.842,-16.603c0.228,0.248 0.819,2.124 1.313,4.168z" data-paper-data="{&quot;wickUUID&quot;:&quot;a71fd3ff-5635-495a-9a95-2a952fc916a6&quot;,&quot;wickType&quot;:&quot;path&quot;,&quot;originalStyle&quot;:{&quot;strokeColor&quot;:null,&quot;fillColor&quot;:[&quot;Color&quot;,0,0,0],&quot;strokeWidth&quot;:1}}" fill="#000000"/></g><g fill="none" fill-rule="nonzero" stroke="none" stroke-width="1" stroke-linecap="butt" stroke-linejoin="miter" stroke-miterlimit="10" stroke-dasharray="" stroke-dashoffset="0" font-family="sans-serif" font-weight="normal" font-size="12" text-anchor="start" style="mix-blend-mode: normal"/><g id="wick_project_gui" fill="none" fill-rule="nonzero" stroke="none" stroke-width="1" stroke-linecap="butt" stroke-linejoin="miter" stroke-miterlimit="10" stroke-dasharray="" stroke-dashoffset="0" font-family="sans-serif" font-weight="normal" font-size="12" text-anchor="start" style="mix-blend-mode: normal"/></g></svg>