<svg version="1.1" xmlns="http://www.w3.org/2000/svg" xmlns:xlink="http://www.w3.org/1999/xlink" width="1260" height="594" viewBox="0,0,1260,594"><g transform="translate(216.10044,52.77655) scale(0.89906,0.89906)"><g id="wick_project_bg" fill="#333333" fill-rule="nonzero" stroke="none" stroke-width="1" stroke-linecap="butt" stroke-linejoin="miter" stroke-miterlimit="10" stroke-dasharray="" stroke-dashoffset="0" font-family="none" font-weight="none" font-size="none" text-anchor="none" style="mix-blend-mode: normal"><rect x="0" y="0" width="720" height="480"/></g><g data-paper-data="{&quot;wickUUID&quot;:&quot;fa7dfe7a-ffb7-4149-b143-f683407de8a6&quot;,&quot;wickType&quot;:&quot;clipsandpaths&quot;}" fill="#000000" fill-rule="evenodd" stroke="none" stroke-width="1" stroke-linecap="butt" stroke-linejoin="miter" stroke-miterlimit="10" stroke-dasharray="" stroke-dashoffset="0" font-family="none" font-weight="none" font-size="none" text-anchor="none" opacity="0.35" style="mix-blend-mode: normal"><path d="M585.16004,229.05267c-2.062,1.858 -4.82,5.399 -15.951,20.483l-2.141,2.902l-9.92,0.728c-5.455,0.4 -10.352,0.959 -10.881,1.243c-1.895,1.014 -1.756,2.661 0.638,7.584c1.279,2.63 2.325,5.196 2.325,5.703c0,0.507 0.763,2.588 1.696,4.625c3.345,7.302 3.498,7.814 2.914,9.704c-0.302,0.975 -1.352,5.375 -2.334,9.777c-0.982,4.403 -2.163,9.548 -2.626,11.435c-1.019,4.158 -2.058,16.44 -1.566,18.515c0.546,2.307 1.893,3.497 3.957,3.497c1.594,0 2.345,-0.56 5.175,-3.859c1.821,-2.122 5.971,-6.598 9.222,-9.946c5.698,-5.868 5.939,-6.043 6.675,-4.86c0.421,0.675 0.942,1.988 1.159,2.917c0.532,2.283 3.479,6.889 10.377,16.223c6.134,8.299 10.617,12.963 13.047,13.573c2.214,0.556 4.174,-1.006 4.891,-3.897c0.332,-1.338 0.876,-3.332 1.208,-4.433c0.789,-2.608 -0.054,-11.235 -1.955,-20.011c-1.873,-8.651 -2.775,-14.247 -3.096,-19.221l-0.263,-4.069l2.918,-3.621c1.604,-1.991 2.917,-3.878 2.917,-4.194c0,-0.315 0.753,-1.357 1.674,-2.315c0.921,-0.959 3.077,-4.367 4.791,-7.573c1.713,-3.207 4.264,-7.195 5.667,-8.863c3.18,-3.777 3.572,-4.825 2.447,-6.542c-0.857,-1.309 -1.124,-1.35 -9.018,-1.391c-4.474,-0.023 -9.292,-0.216 -10.707,-0.429c-2.883,-0.433 -2.465,0.47 -4.29,-9.248c-2.224,-11.845 -3.06,-15.106 -4.058,-15.836c-1.559,-1.14 -2.312,-0.925 -4.892,1.399zM587.73404,241.20267c0.494,2.044 1.069,5.131 1.277,6.861c0.415,3.441 1.75,9.131 2.262,9.643c0.48,0.48 7.901,1.144 13.239,1.184l4.683,0.036l-2.631,5.003c-1.447,2.751 -3.357,6.032 -4.244,7.289c-0.888,1.258 -2.558,3.702 -3.712,5.432c-1.154,1.73 -3.114,4.261 -4.356,5.625l-2.258,2.481l0.273,6.667c0.296,7.214 1.44,15.129 3.313,22.905c1.39,5.774 1.994,12.193 1.43,15.201l-0.401,2.137l-1.461,-1.351c-1.925,-1.779 -12.091,-15.429 -14.204,-19.074c-0.912,-1.573 -2.098,-4.142 -2.636,-5.71c-1.148,-3.347 -4.863,-7.155 -6.98,-7.155c-1.739,0 -2.176,0.393 -10.354,9.291c-3.685,4.01 -6.934,7.29 -7.221,7.29c-0.857,0 -0.592,-4.35 0.568,-9.332c0.599,-2.572 1.906,-8.278 2.905,-12.68c0.999,-4.403 2.053,-8.751 2.342,-9.662c0.926,-2.923 0.578,-4.793 -1.955,-10.489c-2.19,-4.926 -5.062,-12.806 -4.771,-13.096c0.282,-0.283 11.594,-1.344 14.328,-1.344h3.119l3.29,-4.717c6.783,-9.725 12.441,-17.039 12.842,-16.603c0.228,0.248 0.819,2.124 1.313,4.168z" data-paper-data="{&quot;wickUUID&quot;:&quot;f9637a84-015b-4288-9c55-8b1b0395fe81&quot;,&quot;wickType&quot;:&quot;path&quot;,&quot;originalStyle&quot;:{&quot;strokeColor&quot;:null,&quot;fillColor&quot;:[&quot;Color&quot;,0,0,0],&quot;strokeWidth&quot;:1}}"/></g><g data-paper-data="{&quot;wickUUID&quot;:&quot;a21a4127-3b6e-443b-9e1e-3ee9abe57c38&quot;,&quot;wickType&quot;:&quot;clipsandpaths&quot;}" fill="none" fill-rule="evenodd" stroke="none" stroke-width="1" stroke-linecap="butt" stroke-linejoin="miter" stroke-miterlimit="10" stroke-dasharray="" stroke-dashoffset="0" font-family="none" font-weight="none" font-size="none" text-anchor="none" style="mix-blend-mode: normal"><path d="M580.61127,239.98911c-0.985,1.022 -2.544,3.739 -3.465,6.039c-0.921,2.299 -2.44,5.001 -3.376,6.003c-0.936,1.003 -2.296,2.689 -3.023,3.748l-1.321,1.925l-4.916,-0.406c-7.907,-0.653 -9.746,-0.545 -11.369,0.667c-2.93,2.187 -3.04,5.895 -0.257,8.659c1.966,1.954 5.134,6.641 6.181,9.147c1.917,4.588 0.392,15.509 -3.093,22.147c-2.909,5.539 -6.384,13.307 -6.384,14.271c0,1.73 1.678,4.116 3.393,4.827c3.954,1.638 6.613,-0.538 9.753,-7.977c1.565,-3.71 2.726,-5.729 3.292,-5.729c0.482,0 2.022,-0.573 3.423,-1.272l2.547,-1.272l2.089,2.338c11.404,12.761 14.72,17.904 15.449,23.958c0.39,3.244 0.733,4.109 2.09,5.277c2.136,1.837 5.649,1.5 7.563,-0.724c1.707,-1.986 1.745,-6.973 0.088,-11.886c-2.552,-7.569 -3.35,-12.857 -3.363,-22.283l-0.012,-9.008l2.201,-5.285c2.646,-6.354 5.138,-10.346 9.514,-15.241c3.073,-3.438 3.257,-3.807 2.97,-5.948c-0.185,-1.381 -0.882,-2.857 -1.765,-3.741c-1.356,-1.356 -1.961,-1.485 -8.547,-1.835c-3.898,-0.207 -7.347,-0.537 -7.666,-0.734c-0.318,-0.197 -0.885,-2.998 -1.26,-6.225c-0.936,-8.066 -1.014,-8.355 -2.7,-9.918c-2.298,-2.129 -5.719,-1.926 -8.036,0.478z" data-paper-data="{&quot;wickUUID&quot;:&quot;32bcf165-c094-4576-a42c-c095fd4f8d1f&quot;,&quot;wickType&quot;:&quot;path&quot;,&quot;originalStyle&quot;:{&quot;strokeColor&quot;:null,&quot;fillColor&quot;:[&quot;Color&quot;,1,1,0],&quot;strokeWidth&quot;:1}}" fill="#ffff00"/><path d="M585.16004,229.05267c-2.062,1.858 -4.82,5.399 -15.951,20.483l-2.141,2.902l-9.92,0.728c-5.455,0.4 -10.352,0.959 -10.881,1.243c-1.895,1.014 -1.756,2.661 0.638,7.584c1.279,2.63 2.325,5.196 2.325,5.703c0,0.507 0.763,2.588 1.696,4.625c3.345,7.302 3.498,7.814 2.914,9.704c-0.302,0.975 -1.352,5.375 -2.334,9.777c-0.982,4.403 -2.163,9.548 -2.626,11.435c-1.019,4.158 -2.058,16.44 -1.566,18.515c0.546,2.307 1.893,3.497 3.957,3.497c1.594,0 2.345,-0.56 5.175,-3.859c1.821,-2.122 5.971,-6.598 9.222,-9.946c5.698,-5.868 5.939,-6.043 6.675,-4.86c0.421,0.675 0.942,1.988 1.159,2.917c0.532,2.283 3.479,6.889 10.377,16.223c6.134,8.299 10.617,12.963 13.047,13.573c2.214,0.556 4.174,-1.006 4.891,-3.897c0.332,-1.338 0.876,-3.332 1.208,-4.433c0.789,-2.608 -0.054,-11.235 -1.955,-20.011c-1.873,-8.651 -2.775,-14.247 -3.096,-19.221l-0.263,-4.069l2.918,-3.621c1.604,-1.991 2.917,-3.878 2.917,-4.194c0,-0.315 0.753,-1.357 1.674,-2.315c0.921,-0.959 3.077,-4.367 4.791,-7.573c1.713,-3.207 4.264,-7.195 5.667,-8.863c3.18,-3.777 3.572,-4.825 2.447,-6.542c-0.857,-1.309 -1.124,-1.35 -9.018,-1.391c-4.474,-0.023 -9.292,-0.216 -10.707,-0.429c-2.883,-0.433 -2.465,0.47 -4.29,-9.248c-2.224,-11.845 -3.06,-15.106 -4.058,-15.836c-1.559,-1.14 -2.312,-0.925 -4.892,1.399zM587.73404,241.20267c0.494,2.044 1.069,5.131 1.277,6.861c0.415,3.441 1.75,9.131 2.262,9.643c0.48,0.48 7.901,1.144 13.239,1.184l4.683,0.036l-2.631,5.003c-1.447,2.751 -3.357,6.032 -4.244,7.289c-0.888,1.258 -2.558,3.702 -3.712,5.432c-1.154,1.73 -3.114,4.261 -4.356,5.625l-2.258,2.481l0.273,6.667c0.296,7.214 1.44,15.129 3.313,22.905c1.39,5.774 1.994,12.193 1.43,15.201l-0.401,2.137l-1.461,-1.351c-1.925,-1.779 -12.091,-15.429 -14.204,-19.074c-0.912,-1.573 -2.098,-4.142 -2.636,-5.71c-1.148,-3.347 -4.863,-7.155 -6.98,-7.155c-1.739,0 -2.176,0.393 -10.354,9.291c-3.685,4.01 -6.934,7.29 -7.221,7.29c-0.857,0 -0.592,-4.35 0.568,-9.332c0.599,-2.572 1.906,-8.278 2.905,-12.68c0.999,-4.403 2.053,-8.751 2.342,-9.662c0.926,-2.923 0.578,-4.793 -1.955,-10.489c-2.19,-4.926 -5.062,-12.806 -4.771,-13.096c0.282,-0.283 11.594,-1.344 14.328,-1.344h3.119l3.29,-4.717c6.783,-9.725 12.441,-17.039 12.842,-16.603c0.228,0.248 0.819,2.124 1.313,4.168z" data-paper-data="{&quot;wickUUID&quot;:&quot;a71fd3ff-5635-495a-9a95-2a952fc916a6&quot;,&quot;wickType&quot;:&quot;path&quot;,&quot;originalStyle&quot;:{&quot;strokeColor&quot;:null,&quot;fillColor&quot;:[&quot;Color&quot;,0,0,0],&quot;strokeWidth&quot;:1}}" fill="#000000"/></g><g fill="none" fill-rule="nonzero" stroke="none" stroke-width="1" stroke-linecap="butt" stroke-linejoin="miter" stroke-miterlimit="10" stroke-dasharray="" stroke-dashoffset="0" font-family="sans-serif" font-weight="normal" font-size="12" text-anchor="start" style="mix-blend-mode: normal"/><g id="wick_project_gui" fill="none" fill-rule="nonzero" stroke="none" stroke-width="1" stroke-linecap="butt" stroke-linejoin="miter" stroke-miterlimit="10" stroke-dasharray="" stroke-dashoffset="0" font-family="sans-serif" font-weight="normal" font-size="12" text-anchor="start" style="mix-blend-mode: normal"/></g></svg>