<svg version="1.1" xmlns="http://www.w3.org/2000/svg" xmlns:xlink="http://www.w3.org/1999/xlink" width="1107" height="504" viewBox="0,0,1107,504"><g transform="translate(190.62,10.08) scale(1.008,1.008)"><g id="wick_project_bg" fill="#ffffff" fill-rule="nonzero" stroke="none" stroke-width="1" stroke-linecap="butt" stroke-linejoin="miter" stroke-miterlimit="10" stroke-dasharray="" stroke-dashoffset="0" font-family="none" font-weight="none" font-size="none" text-anchor="none" style="mix-blend-mode: normal"><rect x="0" y="0" width="720" height="480"/></g><g data-paper-data="{&quot;wickUUID&quot;:&quot;3918c151-6735-410f-9cdf-01b521af53e5&quot;,&quot;wickType&quot;:&quot;clipsandpaths&quot;}" fill="none" fill-rule="evenodd" stroke="none" stroke-width="1" stroke-linecap="butt" stroke-linejoin="miter" stroke-miterlimit="10" stroke-dasharray="" stroke-dashoffset="0" font-family="none" font-weight="none" font-size="none" text-anchor="none" style="mix-blend-mode: normal"><path d="M325.28775,127.42712c-2.72367,1.75 -6.00285,7.62067 -8.86185,15.89c-2.31967,6.711 -6.69748,14.56087 -10.40215,18.65154c-0.90267,0.99633 -2.18847,2.63651 -2.7918,3.51318c-2.42867,3.53 -5.40687,11.83848 -8.04787,22.44481c-1.92933,7.74667 -2.88011,13.14752 -3.31044,18.85485c-0.16933,2.24967 -0.47036,4.31334 -0.66269,4.54467c-0.22067,0.266 -0.23819,0.79281 -0.04286,1.10181c0.17,0.26867 0.32364,0.86321 0.32664,1.62588c0.004,1.11467 -0.12738,1.4062 -1.16505,2.70287c-0.71,0.88733 -1.70416,1.97085 -2.29349,2.52085c-0.58967,0.55 -1.48724,1.85901 -1.74991,2.36234c-0.84333,1.61467 -1.21487,7.75155 -1.1532,19.12622l0.67412,4.18004l3.34651,-2.74451c6.97433,-6.75767 15.5279,-11.01548 26.56323,-13.18315c8.17133,-1.605 8.86813,-1.6281 29.81446,-1.69577c11,-0.03533 21.87879,-0.16115 24.17046,-0.27915c4.61133,-0.23733 14.77049,-1.11792 15.98916,-1.38625l1.54779,-1.0877l-0.93708,-1.38487c-2.18933,-2.87033 -3.78257,-7.61782 -5.41624,-16.24982c-3.54333,-18.724 -6.08382,-22.35105 -18.08182,-25.82138c-5.42967,-1.57033 -7.61828,-3.00057 -10.81161,-7.21624c-3.229,-4.262 -5.39169,-9.67958 -8.36902,-20.81291c-2.52733,-9.44867 -6.62152,-20.85671 -8.44452,-23.54871c-1.417,-2.092 -3.02033,-3.14724 -5.40466,-3.28857c-1.848,-0.10967 -3.12578,0.30597 -4.48611,1.17997z" data-paper-data="{&quot;wickUUID&quot;:&quot;6543f974-3220-4d10-a279-54c395406d49&quot;,&quot;wickType&quot;:&quot;path&quot;}" fill="#522a01"/><path d="M302.27104,244.58512c-5.03491,3.05745 -7.87846,5.51349 -13.90335,12.0218c-2.45224,2.64855 -5.72246,6.1083 -7.06971,7.43848c-5.85805,5.78372 -8.9736,13.27836 -8.35159,19.87179c0.56557,5.99678 2.18697,11.6694 6.85469,23.49879c2.03973,5.16947 4.23852,10.21114 4.94268,11.41247c2.86245,4.88506 16.73491,19.66784 24.28126,25.88094c4.80903,3.95899 5.72774,4.38187 18.34082,8.33956c24.19831,7.59234 33.66578,16.12348 39.98785,36.05956c2.1087,6.64997 4.09923,14.38506 4.71222,17.98272c1.19285,6.99983 0.54744,20.20218 -1.47313,30.28985c-0.28498,1.42459 1.11941,3.0394 1.35561,3.02676c0.61288,-0.03346 2.89033,-3.61329 3.84749,-6.071c0.47329,-1.21548 1.93553,-5.33978 3.21437,-9.07925c1.27871,-3.73978 3.26389,-9.25332 4.38574,-12.17245c2.99299,-7.78596 3.20306,-8.84274 3.09054,-15.66067c-0.17083,-10.3741 1.72271,-17.8374 5.615,-22.01943c2.09289,-2.24896 4.82575,-4.01248 6.45223,-4.35699c1.01231,-0.2145 1.65675,-1.0573 1.96129,-1.83341c0.65916,-1.67952 0.47814,-6.04711 -0.52564,-12.43386c-1.85661,-11.80957 -2.08621,-14.06277 -1.75273,-18.33203c0.60287,-7.71437 2.20308,-13.74503 5.86725,-21.94228c4.28304,-9.58132 6.13088,-11.59976 17.67285,-19.56437c10.36908,-7.15486 12.5975,-9.66496 15.69996,-17.20458c4.53141,-11.01332 6.36558,-22.47449 5.62125,-35.37343c-0.53326,-9.24361 -1.39871,-17.08006 -2.10126,-18.85903l-1.2752,-2.16445l-3.87411,0.78726c-1.95052,0.42697 -7.2872,1.69438 -11.8695,2.8188c-17.68614,4.34009 -34.30724,7.97707 -39.67566,8.67724c-7.73822,1.00924 -24.45363,1.54887 -38.23149,1.2383c-20.08648,-0.45294 -26.40366,0.28229 -36.17455,4.2066c-2.80705,1.12756 -6.43286,2.79206 -7.62518,3.51631z" data-paper-data="{&quot;wickUUID&quot;:&quot;eb2313e4-856a-423c-8b74-ee4010d5ff53&quot;,&quot;wickType&quot;:&quot;path&quot;}" fill="#cc6600"/><path d="M328.2573,363.79068c0.02657,0.06727 0.21908,2.48404 1.48432,3.69136c3.23918,3.09022 7.22999,7.93744 9.18557,11.16867c1.81528,2.99849 3.76091,6.84958 7.39882,14.61659c2.15176,4.59374 4.50412,8.35703 4.97798,8.56232c0.43,0.18678 1.81511,-1.5131 2.99445,-6.95647c0.68498,-3.16233 1.42704,-6.1765 1.61616,-6.5207c0.26862,-0.48956 -0.05683,-1.78651 -0.84236,-3.75382c-2.79365,-6.99589 -6.47763,-11.00912 -14.41219,-15.74324c-3.57133,-2.13082 -12.7228,-5.87513 -12.40275,-5.06471z" data-paper-data="{&quot;wickUUID&quot;:&quot;200c22fa-4f7f-4d99-a3e9-f6aa1281d2ae&quot;,&quot;wickType&quot;:&quot;path&quot;}" fill="#cc6600"/><path d="M298.30321,234.46181c-6.23672,3.65966 -9.90743,6.79836 -16.26775,13.91293c-3.05149,3.41347 -6.91241,7.3283 -8.57874,8.69812c-1.66689,1.37112 -4.43501,4.91136 -6.15082,7.8683c-7.19444,12.39938 -6.62244,22.42081 2.6176,45.84525l5.64261,14.3043l9.64401,10.70708c5.30497,5.88907 12.99657,13.5063 17.0942,16.92625c6.83444,5.70544 8.37774,6.47431 18.70619,9.3151c13.37059,3.67789 20.88703,7.27977 26.88368,12.88386c3.94623,3.68724 4.80607,5.15394 8.12772,13.85616c5.74537,15.05181 7.03167,22.42258 6.00909,34.43381c-0.49082,5.76207 -1.34309,10.65517 -1.89557,10.87335c-1.22122,0.48228 -3.64264,6.43589 -3.972,9.76455c-0.38051,3.85526 1.55812,7.46554 5.09531,9.49086c3.1295,1.79066 3.57536,1.74898 10.15384,-0.95544c8.78521,-3.61245 12.17991,-7.7141 15.74607,-19.02357c1.41577,-4.48989 4.27033,-12.581 6.34281,-17.98071c2.74984,-7.16383 3.67992,-11.29634 3.4397,-15.29137c-0.81075,-13.50634 0.45611,-16.98482 7.14537,-19.62655c4.52213,-1.78588 5.05606,-2.30423 6.0231,-5.84495c1.74689,-6.40112 1.8161,-10.83229 0.29627,-18.85699c-2.40823,-12.71633 -2.45375,-15.42066 -0.41842,-25.09342c2.81157,-13.36176 5.76131,-17.53926 17.79894,-25.20254c10.53598,-6.70685 16.77843,-14.04366 20.26002,-23.81128c5.15319,-14.45639 7.27758,-33.72354 5.02054,-45.51797c-0.55606,-2.90266 -1.12539,-8.06865 -1.26531,-11.47755c-0.13936,-3.4102 -0.69492,-7.31617 -1.23377,-8.68062c-2.07826,-5.26249 -6.53147,-4.92196 -36.75473,2.81104c-9.0577,2.31806 -19.82927,4.8184 -23.93772,5.55821c-10.05006,1.80899 -29.07177,2.78624 -42.33919,2.17374c-22.23403,-1.02583 -38.39572,1.57974 -49.23305,7.94005zM327.08573,237.67305c4.73786,-0.33576 12.92836,-0.4094 18.20108,-0.16399c12.7429,0.59386 31.22454,-0.07119 41.20155,-1.48255c4.44482,-0.62859 17.91968,-3.57722 29.94418,-6.55301c12.0245,-2.97579 22.40886,-5.42749 23.0782,-5.44777c1.20961,-0.03796 2.32033,8.20314 3.14058,23.30986c0.76133,14.01827 -3.9745,32.51799 -10.31071,40.27351c-1.83376,2.24446 -6.59709,6.09851 -10.70351,8.66206c-4.07067,2.53975 -9.18709,6.45799 -11.37184,8.70667c-6.98254,7.18612 -13.24853,25.35045 -12.936,37.49994c0.05015,1.98644 0.77347,7.22923 1.60605,11.65155c1.91561,10.17031 1.83175,16.20603 -0.22568,16.22616c-2.28157,0.02156 -7.49337,4.21829 -9.49033,7.64214c-2.46546,4.22494 -3.79504,12.13741 -3.36256,20.01417c0.27463,4.99961 -0.30856,8.23822 -2.29825,12.75586c-1.46713,3.33073 -3.99725,10.27231 -5.62354,15.427c-2.75334,8.72312 -5.63507,14.54025 -6.92859,13.97916c-0.3023,-0.13113 -0.16165,-1.54459 0.31294,-3.14155c0.47459,-1.59696 1.2971,-7.87493 1.82755,-13.95047c1.03529,-11.85928 0.14884,-17.42256 -5.68832,-35.72058c-6.09142,-19.09429 -16.62331,-28.13472 -41.08417,-35.2675c-10.52226,-3.06745 -12.44044,-4.01512 -18.40521,-9.09745c-3.66237,-3.12092 -10.31337,-9.75032 -14.77981,-14.73304c-7.97399,-8.89589 -8.2065,-9.27499 -12.91211,-21.03243c-2.73836,-6.84139 -5.37395,-15.09958 -6.14953,-19.26594c-1.16202,-6.23932 -1.03194,-8.16684 0.90093,-13.36197c1.54107,-4.14264 3.55965,-7.24496 6.35339,-9.76747c2.25158,-2.03316 5.72272,-5.64998 7.71329,-8.03916c9.53205,-11.4378 22.64225,-18.03772 37.99042,-19.1232z" data-paper-data="{&quot;wickUUID&quot;:&quot;dc8a8c66-9f8a-47e8-8062-fcf1348bd9fd&quot;,&quot;wickType&quot;:&quot;path&quot;}" fill="#000000"/><path d="M306.43115,352.44274c-1.7103,3.94283 0.70962,7.60389 12.14328,18.37508c11.53981,10.87119 15.07024,16.51385 20.85057,33.33124c3.63835,10.5877 4.18298,11.65098 6.47161,12.64373c7.41081,3.21461 17.80024,-9.4961 18.83345,-23.0404c0.30321,-3.97203 0.02667,-5.10786 -1.6298,-6.70506c-1.56383,-1.50692 -2.66807,-1.65679 -5.11422,-0.69075c-2.81261,1.11076 -3.22375,1.87198 -4.17564,7.71615c-0.5809,3.56562 -1.4562,6.80777 -1.94577,7.20431c-0.59635,0.4828 -2.48199,-2.80006 -5.7128,-9.9437c-6.48056,-14.32711 -9.44752,-18.50214 -20.02194,-28.17841c-4.94773,-4.52709 -9.42907,-9.32975 -9.9591,-10.67188c-0.95906,-2.42848 -4.96726,-4.18178 -7.379,-3.22933c-0.64828,0.25602 -1.71026,1.69144 -2.36064,3.18902z" data-paper-data="{&quot;wickUUID&quot;:&quot;44985dae-f621-40a3-b8fb-047cb7232495&quot;,&quot;wickType&quot;:&quot;path&quot;}" fill="#000000"/><path d="M324.27833,116.61738c-1.89,0.542 -4.617,1.827 -6.061,2.855c-2.982,2.123 -8.747,12.666 -11.363,20.782c-1.651,5.121 -8.155,15.979 -10.404,17.369c-5.253,3.247 -16.522,44.354 -14.437,52.662c0.912,3.631 4.778,5.09 7.962,3.003c1.98,-1.297 2.521,-2.474 2.521,-5.487c0,-8.887 5.514,-30.921 9.952,-39.77c0.958,-1.909 2.703,-4.342 3.879,-5.405c3.183,-2.879 8.5,-12.21 10.487,-18.404c2.601,-8.112 6.138,-14.64 8.916,-16.461c3.057,-2.003 6.872,-1.202 8.882,1.866c2.031,3.1 7.103,17.682 8.974,25.799c3.357,14.573 9.349,23.67 16.831,25.559c13.742,3.467 16.818,7.592 19.918,26.709c2.169,13.374 6.046,19.395 14.97,23.248c3.174,1.37 4.558,1.523 6.133,0.68c4.589,-2.456 3.214,-8.521 -2.467,-10.88c-4.639,-1.926 -6.918,-6.58 -8.786,-17.946c-3.307,-20.112 -7.928,-25.922 -25.269,-31.771c-3.888,-1.311 -4.799,-2.193 -7.061,-6.835c-1.429,-2.931 -3.134,-7.842 -3.79,-10.912c-0.655,-3.071 -2.835,-10.433 -4.843,-16.359c-6.086,-17.963 -13.126,-23.693 -24.944,-20.302z" data-paper-data="{&quot;wickUUID&quot;:&quot;bffb7875-63b6-4fdb-b994-ebf3db56ffee&quot;,&quot;wickType&quot;:&quot;path&quot;}" fill="#000000"/><path d="M283.98289,209.6671c-3.178,1.286 -7.195,6.628 -8.064,10.725c-0.431,2.03 -0.777,9.807 -0.768,17.281c0.015,12.204 0.227,13.873 2.082,16.369c2.716,3.652 6.703,4.158 8.703,1.103c1.211,-1.848 1.302,-3.157 0.47,-6.756c-0.567,-2.456 -0.853,-9.452 -0.634,-15.548c0.393,-10.972 0.43,-11.114 3.561,-14.039c3.665,-3.424 3.945,-5.346 1.179,-8.112c-2.138,-2.138 -3.316,-2.322 -6.529,-1.023z" data-paper-data="{&quot;wickUUID&quot;:&quot;52659157-c274-4b12-b9f6-ffd1e04fb6e2&quot;,&quot;wickType&quot;:&quot;path&quot;}" fill="#000000"/><path d="M328.75387,184.21832c-3.794,3.794 -4.216,5.977 -2.122,10.988c1.899,4.544 5.431,5.736 15.972,5.389c8.695,-0.287 8.802,-0.321 9.737,-3.133c1.258,-3.786 -0.696,-9.617 -4.417,-13.183c-2.371,-2.272 -3.931,-2.8 -9.267,-3.14c-6.24,-0.397 -6.511,-0.313 -9.903,3.079zM343.65187,185.12432c1.434,0.653 3.464,2.867 4.511,4.921c2.293,4.495 2.282,4.285 0.346,6.221c-1.098,1.097 -3.468,1.559 -8.002,1.559c-7.616,0 -9.576,-0.864 -11.277,-4.97c-1.177,-2.843 -1.068,-3.27 1.538,-5.99c3.106,-3.242 8.107,-3.918 12.884,-1.741z" data-paper-data="{&quot;wickUUID&quot;:&quot;7ed5c8a5-ea9c-4826-a605-96de9b984ccf&quot;,&quot;wickType&quot;:&quot;path&quot;}" fill="#1d010f"/><path d="M335.84751,189.55783c-0.363,0.364 -0.661,1.927 -0.661,3.473c0,2.526 0.336,2.81 3.318,2.81c4.237,0 7.512,-3.165 5.626,-5.437c-1.249,-1.506 -7.032,-2.096 -8.283,-0.846z" data-paper-data="{&quot;wickUUID&quot;:&quot;dea5cde0-da28-4762-9863-c59b9709f803&quot;,&quot;wickType&quot;:&quot;path&quot;}" fill="#1d010f"/></g><g fill="none" fill-rule="nonzero" stroke="none" stroke-width="1" stroke-linecap="butt" stroke-linejoin="miter" stroke-miterlimit="10" stroke-dasharray="" stroke-dashoffset="0" font-family="sans-serif" font-weight="normal" font-size="12" text-anchor="start" style="mix-blend-mode: normal"/><g id="wick_project_gui" fill="none" fill-rule="nonzero" stroke="none" stroke-width="1" stroke-linecap="butt" stroke-linejoin="miter" stroke-miterlimit="10" stroke-dasharray="" stroke-dashoffset="0" font-family="sans-serif" font-weight="normal" font-size="12" text-anchor="start" style="mix-blend-mode: normal"/></g></svg>