<svg version="1.1" xmlns="http://www.w3.org/2000/svg" xmlns:xlink="http://www.w3.org/1999/xlink" width="1260" height="594" viewBox="0,0,1260,594"><g transform="translate(202.32,11.88) scale(1.188,1.188)"><g id="wick_project_bg" fill-opacity="0" fill="#ffffff" fill-rule="nonzero" stroke="none" stroke-width="1" stroke-linecap="butt" stroke-linejoin="miter" stroke-miterlimit="10" stroke-dasharray="" stroke-dashoffset="0" font-family="none" font-weight="none" font-size="none" text-anchor="none" style="mix-blend-mode: normal"><rect x="0" y="0" width="720" height="480"/></g><g data-paper-data="{&quot;wickUUID&quot;:&quot;347c3533-5a73-404b-a541-b56c4ec35cb6&quot;,&quot;wickType&quot;:&quot;clipsandpaths&quot;}" fill="none" fill-rule="none" stroke="none" stroke-width="1" stroke-linecap="butt" stroke-linejoin="miter" stroke-miterlimit="10" stroke-dasharray="" stroke-dashoffset="0" font-family="none" font-weight="none" font-size="none" text-anchor="none" style="mix-blend-mode: normal"><path d="M252.86429,303.43166c-2.60233,1.95067 -6.02009,7.69098 -6.02042,10.06231c-0.00033,0.66333 0.765,4.15372 1.67633,7.15705c6.97833,23.00167 6.59928,21.96996 9.03495,24.15229c0.87433,0.78333 3.53861,2.61034 5.62294,3.71034c8.18567,4.32 11.93812,7.23213 22.30145,17.3088c7.60967,7.39933 10.70937,10.10955 11.77604,10.43922c0.66267,0.205 2.27591,-0.50105 5.23058,-3.46205c4.722,-4.73267 5.66204,-6.94553 4.48971,-8.61953c-0.27667,-0.395 -4.57511,-3.97152 -9.20244,-7.43719c-7.82233,-5.85833 -16.60456,-12.80072 -25.41723,-20.09172c-3.88,-3.21033 -8.3567,-6.59968 -11.56303,-8.75935c-2.57667,-1.73533 -4.11311,-3.41312 -4.67544,-5.35079c-0.53433,-1.84067 -0.5551,-5.70384 -0.1381,-13.79917c0.18833,-3.659 0.13826,-6.00406 -0.06541,-6.00406c-0.17633,0 -2.37726,0.18985 -3.04993,0.69385z" data-paper-data="{&quot;wickUUID&quot;:&quot;039112b0-5f75-4698-ad5e-b3fdd915fba3&quot;,&quot;wickType&quot;:&quot;path&quot;}" fill="#ff0000" fill-rule="evenodd"/><path d="M291.7165,200.04429c-9.471,1.48533 -13.95486,7.269 -18.69486,24.01367c-3.43533,12.13533 -3.27138,10.45461 -3.52971,30.01728c-0.25367,19.23333 -0.24908,19.18728 -2.70375,27.29095c-1.541,5.088 -1.70925,6.63638 -2.45392,22.55938c-0.279,5.95833 -0.58364,11.84188 -0.67497,13.04088l0.00656,2.74241l4.3912,3.31074c2.32933,1.73433 6.2274,4.79369 8.6774,6.81036c9.29233,7.64833 13.78568,11.2444 13.84301,11.1874c0.03233,-0.03267 1.58754,-3.06776 2.06421,-6.00109c2.45133,-15.08333 7.00753,-35.18578 10.12453,-44.66045c2.28567,-6.94733 6.23735,-16.32662 8.86935,-21.06162c1.092,-1.965 0.86264,-3.47467 1.86864,-3.47467c0.49033,0 0.6522,-0.87185 -2.4848,8.11948c-5.34533,15.322 -9.33247,29.84973 -10.84847,39.52606c-1.05133,6.71133 -2.63489,15.62176 -3.21089,18.07576c-0.315,1.341 -0.54202,4.19401 -0.58069,7.28901c-0.05267,4.20133 0.18215,5.65813 0.66915,6.54813c0.36867,0.674 3.69667,3.45895 8.84134,7.33095c4.44767,3.348 13.57823,10.30758 20.26623,15.44825c13.743,10.56333 17.24483,13.02249 19.65716,13.91549c3.36333,1.245 3.90856,1.24237 6.30589,-3.6853c2.46,-5.05667 13.81409,-25.74041 17.54709,-31.96774c1.37367,-2.29167 3.38167,-5.35377 4.44067,-6.76477c4.247,-5.659 7.40923,-12.43375 10.34223,-22.15942c0.927,-3.074 1.79495,-5.81295 1.88095,-5.95195c0.08567,-0.13867 0.13733,-0.81293 0.246,-1.78726c0.386,-3.46867 2.26307,-5.77919 4.71007,-5.77919c1.226,0 -0.07362,-0.60554 -0.23229,0.07713c-0.096,0.41267 -0.69109,2.92657 -1.36909,5.8599c-5.22667,22.623 -8.79557,33.68013 -13.27157,41.09046c-5.78867,9.58333 -17.96157,32.04797 -17.57424,32.4353c0.09867,0.09833 1.28987,1.4045 1.8552,1.4065c0.56533,0.002 5.10099,0.59176 10.05099,1.30709c12.29,1.77633 16.47639,2.12497 21.38839,1.93364c7.05933,-0.27567 8.42846,-0.99058 19.22779,-10.38691c5.61267,-4.88367 19.02612,-18.41859 22.16279,-22.35492c8.54133,-10.71867 12.66877,-19.45803 17.2711,-36.62636c2.45633,-9.16433 3.46948,-13.95792 3.30381,-15.66559c-0.08033,-0.825 -1.02681,-3.79422 -2.00414,-6.08589c-2.49767,-5.85533 -9.44038,-19.48262 -12.39405,-24.33395c-5.421,-8.90267 -12.60657,-18.33075 -18.34557,-24.09475c-5.37,-5.39333 -5.78854,-5.62332 -17.14487,-8.71865c-22.822,-6.22 -31.22166,-7.79378 -43.56466,-8.15011c-6.964,-0.20133 -8.83944,-0.43521 -13.05877,-1.69921c-5.688,-1.704 -18.83153,-7.04072 -25.3372,-10.29139c-7.64467,-3.82 -11.04717,-6.51396 -17.4055,-13.73029c-2.409,-2.734 -4.87269,-5.29391 -5.26136,-5.54824c-0.92533,-0.605 -5.49938,-0.7275 -7.86638,-0.3565z" data-paper-data="{&quot;wickUUID&quot;:&quot;c9d937df-65e5-4eae-a20c-a916ddd9f686&quot;,&quot;wickType&quot;:&quot;path&quot;}" fill="#ff0000" fill-rule="evenodd"/><path d="M288.28011,192.09987c11.299,-2.735 14.611,-1.628 22.309,7.46c6.904,8.151 10.649,10.781 22.196,15.592c18.887,7.869 18.525,7.771 29.882,8.09c10.483,0.294 19.002,1.889 42.087,7.882c12.492,3.243 13.7,3.717 18.472,7.242c8.637,6.38 25.463,30.132 33.064,46.673c1.809,3.935 4.08,8.658 5.047,10.495c2.407,4.569 2.176,8.192 -1.452,22.841c-6.636,26.788 -14.251,39.133 -37.397,60.628c-8.074,7.497 -15.351,13.502 -18.145,14.972c-6.339,3.336 -14.158,3.743 -28.208,1.47c-5.787,-0.936 -12.984,-1.945 -15.993,-2.242c-9.6,-0.947 -16.331,-2.277 -19.361,-3.826c-2.774,-1.417 -9.826,-6.561 -20.61,-15.033l-4.721,-3.708l-1.41,2.025c-3.319,4.766 -8.45,9.555 -11.866,11.076c-3.269,1.454 -4.097,1.517 -7.504,0.563c-3.173,-0.889 -5.506,-2.763 -13.611,-10.938c-8.997,-9.074 -21.319,-18.457 -24.24,-18.457c-1.707,-0.001 -7.79,-5.956 -9.4,-9.202c-0.819,-1.652 -2.139,-5.466 -2.932,-8.475c-0.794,-3.01 -2.776,-9.403 -4.404,-14.208l-2.96,-8.737l1.387,-4.311c1.87,-5.815 4.709,-9.764 10.122,-14.084c4.958,-3.956 7.255,-8.146 10.477,-19.108c1.622,-5.522 1.783,-7.813 1.563,-22.306l-0.244,-16.152l3.194,-12.205c3.6,-13.755 5.971,-19.547 10.355,-25.296c3.559,-4.667 7.514,-7.078 14.303,-8.721zM299.64311,201.07387c-2.258,-1.869 -10.767,-0.851 -14.761,1.766c-5.171,3.389 -8.444,10.022 -12.447,25.23c-2.65,10.063 -2.695,10.555 -2.485,26.666c0.215,16.406 -0.043,18.677 -3.247,28.62c-0.958,2.971 -1.115,4.849 -2.088,24.971l-0.536,11.082l6.154,4.595c3.385,2.528 8.617,6.76 11.626,9.405c3.009,2.645 10.906,8.848 17.548,13.784c6.642,4.936 17.718,13.33 24.613,18.654c19.023,14.689 19.782,15.212 23.829,16.43c2.073,0.624 6.539,1.386 9.925,1.693c3.385,0.306 10.789,1.279 16.453,2.16c14.235,2.216 21.715,2.132 26.164,-0.291c1.913,-1.042 8.628,-6.629 14.922,-12.416c16.789,-15.435 24.936,-26.029 30.101,-39.141c2.783,-7.065 7.955,-26.214 8.319,-30.799c0.201,-2.524 -9.271,-22.308 -15.278,-31.912c-9.323,-14.907 -20.83,-27.782 -25.9,-28.98c-1.281,-0.302 -7.064,-1.856 -12.851,-3.451c-18.108,-4.994 -29.814,-7.078 -39.146,-6.971c-9.245,0.106 -12.551,-0.817 -31.561,-8.817c-11.835,-4.98 -17.19,-8.559 -23.118,-15.453c-2.731,-3.175 -5.537,-6.246 -6.236,-6.825zM255.22511,302.73487c-2.559,0.066 -7.869,7.361 -7.875,10.819c-0.002,1.1 1.102,5.456 2.453,9.68c1.351,4.224 3.235,10.359 4.188,13.634c1.95,6.707 2.743,7.627 9.8,11.382c8.487,4.516 12.222,7.45 22.615,17.759c5.51,5.467 10.599,9.939 11.308,9.939c1.839,0 9.397,-8.09 9.397,-10.059c0,-0.906 -0.949,-2.327 -2.109,-3.159c-9.568,-6.86 -22.488,-16.872 -29.681,-23.001c-4.754,-4.051 -10.886,-8.827 -13.627,-10.615c-6.584,-4.294 -7.099,-5.681 -6.352,-17.118c0.334,-5.104 0.281,-9.272 -0.117,-9.261z" data-paper-data="{&quot;wickUUID&quot;:&quot;e60c0855-9912-4b6b-82db-80c82deaa106&quot;,&quot;wickType&quot;:&quot;path&quot;}" fill="#000000" fill-rule="nonzero"/><path d="M297.39041,348.6947c-2.323,1.523 -5.053,0.912 -6.295,-1.409c-1.447,-2.703 5.335,-38.076 10.629,-55.443c2.749,-9.018 9.225,-23.739 11.047,-25.112c0.57536,-0.43364 1.10035,-0.72594 1.60416,-0.87335c-0.29708,0.84468 -0.60349,1.71356 -0.91655,2.59879c-2.686,7.598 -5.181,14.898 -5.543,16.22c-0.362,1.323 -1.882,6.464 -3.378,11.424c-1.496,4.96 -3.37,13.618 -4.165,19.24c-0.795,5.622 -1.947,12.178 -2.56,14.57c-0.613,2.391 -1.114,6.825 -1.114,9.852c0,4.04596 0.50145,5.68969 2.28535,7.08921c-0.4075,0.85964 -0.9069,1.39325 -1.59396,1.84335z" data-paper-data="{&quot;wickUUID&quot;:&quot;3867d8b7-bfa5-49e8-bd84-f3d14e1d934e&quot;,&quot;wickType&quot;:&quot;path&quot;}" fill="#000000" fill-rule="evenodd"/><path d="M359.57743,382.6147c-1.079,2.046 -1.961,4.215 -1.961,4.82c0,0.606 -0.962,1.731 -2.139,2.502c-1.703,1.116 -2.556,1.212 -4.185,0.469c-4.375,-1.993 -3.407,-5.971 5.256,-21.613c1.282,-2.314 4.935,-8.943 8.119,-14.73c3.184,-5.787 6.832,-11.848 8.108,-13.468c4.621,-5.87 7.864,-12.384 10.635,-21.363c1.554,-5.036 2.826,-9.782 2.826,-10.545c0,-0.763 0.589,-2.229 1.31,-3.258c1.13747,-1.62436 2.73011,-2.11231 4.19136,-1.74669c-0.71587,2.42856 -1.51026,5.61506 -2.2192,9.0078c-2.91094,13.94072 -6.12397,24.61701 -10.91444,35.86005c-3.56047,5.33738 -9.34143,15.68961 -19.02672,34.06484z" data-paper-data="{&quot;wickUUID&quot;:&quot;b62ebbb3-ae2f-4cad-894d-4e20b52294c9&quot;,&quot;wickType&quot;:&quot;path&quot;}" fill="#000000" fill-rule="evenodd"/></g><g fill="none" fill-rule="nonzero" stroke="none" stroke-width="1" stroke-linecap="butt" stroke-linejoin="miter" stroke-miterlimit="10" stroke-dasharray="" stroke-dashoffset="0" font-family="sans-serif" font-weight="normal" font-size="12" text-anchor="start" style="mix-blend-mode: normal"/><g id="wick_project_gui" fill="none" fill-rule="nonzero" stroke="none" stroke-width="1" stroke-linecap="butt" stroke-linejoin="miter" stroke-miterlimit="10" stroke-dasharray="" stroke-dashoffset="0" font-family="sans-serif" font-weight="normal" font-size="12" text-anchor="start" style="mix-blend-mode: normal"/></g></svg>