<svg version="1.1" xmlns="http://www.w3.org/2000/svg" xmlns:xlink="http://www.w3.org/1999/xlink" width="1107" height="504" viewBox="0,0,1107,504"><g transform="translate(102.04854,-40.9663) scale(1.18038,1.18038)"><g id="wick_project_bg" fill-opacity="0" fill="#ffffff" fill-rule="nonzero" stroke="none" stroke-width="1" stroke-linecap="butt" stroke-linejoin="miter" stroke-miterlimit="10" stroke-dasharray="" stroke-dashoffset="0" font-family="none" font-weight="none" font-size="none" text-anchor="none" style="mix-blend-mode: normal"><rect x="0" y="0" width="720" height="480"/></g><g data-paper-data="{&quot;wickUUID&quot;:&quot;fe469c3e-9986-4c8d-bbdf-53fe54c18fee&quot;,&quot;wickType&quot;:&quot;clipsandpaths&quot;}" fill="none" fill-rule="evenodd" stroke="none" stroke-width="1" stroke-linecap="butt" stroke-linejoin="miter" stroke-miterlimit="10" stroke-dasharray="" stroke-dashoffset="0" font-family="none" font-weight="none" font-size="none" text-anchor="none" style="mix-blend-mode: normal"><path d="M506.53686,225.7366c-0.584,2.03133 0.35583,6.56285 0.7665,6.81652c0.754,0.46633 2.12545,-5.20139 1.60345,-6.95639l-1.51583,-1.86018z" data-paper-data="{&quot;wickUUID&quot;:&quot;63a42c90-94c0-49c1-882f-152fba704432&quot;,&quot;wickType&quot;:&quot;path&quot;,&quot;originalStyle&quot;:{&quot;strokeColor&quot;:null,&quot;fillColor&quot;:[&quot;Color&quot;,1,1,1],&quot;strokeWidth&quot;:1}}" fill="#ffffff"/><path d="M466.55339,207.47642c-3.437,0.632 -9.04158,4.45348 -9.69525,6.43315c-2.179,6.603 -2.58879,26.19326 -0.67346,32.40526c1.88067,6.09967 4.51262,9.84212 8.61062,11.95812c2.19167,1.13167 2.80741,1.38233 4.74508,0.982c1.08067,-0.223 3.09813,-0.431 4.18713,-0.43167c7.40733,-0.00333 16.82307,-2.72007 20.5744,-5.84907c2.226,-1.85667 4.61677,-7.63806 6.74644,-16.70139c1.45033,-6.17367 0.68573,-11.69012 -2.36727,-17.41812c-1.374,-2.578 -3.14167,-3.98788 -10.77634,-8.04788l-6.31554,-3.33785l-6.81952,-0.15664c-3.63133,-0.07067 -7.48296,0.02909 -8.21629,0.16409zM483.40784,218.3723c1.24567,0.402 1.96888,0.8452 3.32888,2.1042c2.58367,2.39233 3.16783,3.52746 3.3475,6.68013c0.13633,2.39067 0.18222,2.03621 -1.11611,4.61421c-1.676,3.32667 -3.36732,5.29907 -5.17999,6.0244c-0.75867,0.30333 -2.00234,0.47244 -3.42834,0.58244c-2.58367,0.19933 -2.21979,0.30265 -4.23546,-0.98935c-1.60833,-1.03133 -1.83876,-1.24793 -2.57409,-2.7056c-0.864,-1.71267 -0.87314,-1.8945 -0.98781,-6.53517c-0.076,-3.084 -0.06275,-5.02177 0.17025,-5.79977c0.44533,-1.486 3.07052,-4.04494 4.67485,-4.53894c1.38667,-0.42733 3.74432,-0.16522 6.00032,0.56345z" data-paper-data="{&quot;wickUUID&quot;:&quot;a6a5ab2d-590a-4556-b427-0a1f140c6d12&quot;,&quot;wickType&quot;:&quot;path&quot;,&quot;originalStyle&quot;:{&quot;strokeColor&quot;:null,&quot;fillColor&quot;:[&quot;Color&quot;,1,1,1],&quot;strokeWidth&quot;:1}}" fill="#ffffff"/><path d="M477.08084,222.66599c-1.09067,1.09067 -1.7282,3.89735 -1.4862,6.81668c0.21867,2.63567 1.6127,3.95196 4.53237,3.95196c1.16633,0 3.36999,-0.29502 3.68099,-0.41469c0.86067,-0.33 2.36638,-4.02478 2.37005,-5.75311c0.004,-1.89233 -1.03546,-3.43512 -3.22146,-4.68879c-2.23367,-1.281 -4.63075,-1.15705 -5.87575,0.08795z" data-paper-data="{&quot;wickUUID&quot;:&quot;b6407c83-6f6d-47fa-9c06-92518896ddf2&quot;,&quot;wickType&quot;:&quot;path&quot;,&quot;originalStyle&quot;:{&quot;strokeColor&quot;:null,&quot;fillColor&quot;:[&quot;Color&quot;,1,1,1],&quot;strokeWidth&quot;:1}}" fill="#ffffff"/><path d="M449.69169,252.86133c-4.381,2.01167 -9.62929,5.36502 -14.13062,9.02935c-2.31433,1.88367 -5.26033,4.24199 -6.30933,5.01666c-2.176,1.606 -2.39444,2.77281 -1.35944,5.53848c0.902,2.411 3.19352,5.26512 5.75652,7.17112c3.72533,2.771 10.5757,5.61754 15.34503,6.36221c1.02633,0.16033 2.08701,0.10777 2.93134,-0.2929c1.056,-0.501 1.61168,-0.52265 4.80568,-0.14432c5.56767,0.65933 6.70925,0.32742 9.72092,-2.11225c2.21367,-1.79267 7.63083,-9.24132 9.93716,-13.70332c1.86267,-3.604 1.73141,-5.15079 1.02208,-4.89446c-1.14233,0.41233 -5.66381,0.08015 -8.03048,-0.51185c-1.122,-0.28067 -3.53606,-1.26479 -5.75539,-2.35779c-4.76333,-2.34633 -6.58575,-4.04778 -8.36975,-7.78478c-0.62967,-1.31867 -1.69097,-2.63399 -1.8743,-2.64032c-0.18333,-0.006 -2.20142,0.64084 -3.68942,1.32417z" data-paper-data="{&quot;wickUUID&quot;:&quot;fd96df4b-3552-4dae-9ed9-150501960909&quot;,&quot;wickType&quot;:&quot;path&quot;,&quot;originalStyle&quot;:{&quot;strokeColor&quot;:null,&quot;fillColor&quot;:[&quot;Color&quot;,0.50196,0,1],&quot;strokeWidth&quot;:1}}" fill="#8000ff"/><path d="M389.17293,204.15557c-0.67967,2.44667 0.0795,6.16915 1.27717,6.81015c0.45933,0.246 2.71295,0.52565 5.90562,0.37198c11.10033,-0.535 45.77783,3.38003 53.22983,6.00936c1.528,0.53933 2.7934,0.05145 2.7934,-0.83288c0,-1.74333 1.19415,-4.78981 2.53715,-6.52414l1.52891,-2.14917l-1.86877,-1.27795c-2.845,-0.84567 -5.53996,-1.45216 -10.91863,-2.46783c-5.57933,-1.05367 -6.01946,-1.08614 -15.30246,-1.09881c-5.225,-0.007 -12.66777,0.11773 -16.51777,0.27706c-6.239,0.25867 -7.57964,0.21467 -12.69064,-0.41533c-3.15367,-0.38867 -6.50784,-0.70649 -7.33284,-0.70649c-1.44933,0 -2.30564,0.79605 -2.64097,2.00405z" data-paper-data="{&quot;wickUUID&quot;:&quot;e88819fc-3585-4317-9bce-9edb6741fd90&quot;,&quot;wickType&quot;:&quot;path&quot;,&quot;originalStyle&quot;:{&quot;strokeColor&quot;:null,&quot;fillColor&quot;:[&quot;Color&quot;,1,0.50196,0],&quot;strokeWidth&quot;:1}}" fill="#ff8000"/><path d="M407.12271,190.38034c-1.10233,0.216 -3.03774,2.02986 -4.63907,4.99119l-1.61832,3.35734l2.80613,0.92846c1.083,0.12267 5.85962,0.03041 10.58729,-0.20492c4.72767,-0.23533 11.51675,-0.42958 15.09175,-0.43158l7.32353,-0.97964l-7.47442,-2.92976c-11.88933,-3.87833 -18.86389,-5.36042 -22.07689,-4.73109z" data-paper-data="{&quot;wickUUID&quot;:&quot;1dee39db-44e1-4529-8b6d-c281a930feff&quot;,&quot;wickType&quot;:&quot;path&quot;,&quot;originalStyle&quot;:{&quot;strokeColor&quot;:null,&quot;fillColor&quot;:[&quot;Color&quot;,1,0.50196,0],&quot;strokeWidth&quot;:1}}" fill="#ff8000"/><path d="M465.01419,203.18058c-6.522,1.651 -11.502,5.644 -12.704,10.187c-0.926,3.5 -1.985,14.92 -1.98,21.349c0.008,9.899 3.756,21.723 7.872,24.835c4.234,3.201 9.981,5.637 14.239,6.034c3.758,0.351 4.267,0.246 5.832,-1.204c1.207,-1.119 3.107,-1.836 6.418,-2.422c7.258,-1.284 13.677,-5.153 15.954,-9.616c1.985,-3.89 5.183,-15.332 5.63,-20.142c0.321,-3.454 0.112,-5.32 -1.016,-9.102c-2.674,-8.957 -5.764,-11.894 -18.989,-18.052c-3.986,-1.855 -5.12,-2.077 -11.624,-2.268c-3.964,-0.117 -8.298,0.063 -9.632,0.401zM488.03919,211.56058c3.751,1.901 7.576,4.247 8.502,5.213c2.143,2.237 4.8,9.509 4.8,13.139c0,3.577 -2.718,14.32 -4.741,18.739c-1.285,2.806 -2.184,3.767 -5.084,5.426c-4.105,2.348 -11.098,3.98 -17.059,3.98c-2.309,0 -4.761,0.301 -5.451,0.67c-0.981,0.525 -1.855,0.318 -4.032,-0.958c-3.994,-2.341 -5.331,-4.006 -7.297,-9.089c-1.47,-3.802 -1.789,-5.791 -2.039,-12.71c-0.332,-9.161 0.668,-19.674 2.14,-22.521c0.908,-1.756 4.348,-3.978 8.046,-5.197c0.888,-0.293 4.715,-0.447 8.505,-0.341l6.89,0.191l6.82,3.458z" data-paper-data="{&quot;wickUUID&quot;:&quot;6ce4bf6c-eaa4-4c99-ae8f-43abf45e97ef&quot;,&quot;wickType&quot;:&quot;path&quot;,&quot;originalStyle&quot;:{&quot;strokeColor&quot;:null,&quot;fillColor&quot;:[&quot;Color&quot;,0,0,0],&quot;strokeWidth&quot;:1}}" fill="#000000"/><path d="M387.68729,198.15748c-2.135,1.119 -3.148,4.297 -3.193,10.015c-0.057,7.334 0.448,7.606 13.525,7.313c9.148,-0.205 41.907,3.474 48.853,5.487c6.353,1.841 8.222,1.83 8.462,-0.047c0.287,-2.245 -0.739,-2.892 -7.64,-4.816c-8.87,-2.474 -42.807,-6.195 -50.48,-5.535c-7.135,0.614 -7.59,0.379 -7.59,-3.919c0,-2.483 0.277,-3.635 0.934,-3.887c0.514,-0.197 4.219,0.126 8.234,0.719c6.406,0.946 8.641,0.983 18.268,0.296c10.929,-0.78 19.089,-0.548 24.664,0.701c1.613,0.362 4.572,0.908 6.575,1.213c2.002,0.306 5.34,1.182 7.416,1.946c4.184,1.541 5.589,1.132 5.589,-1.627c0,-2.923 -7.529,-5.151 -25.185,-7.453c-4.1,-0.534 -8.676,-0.517 -18.081,0.07c-8.994,0.561 -13.7,0.593 -16.467,0.112c-7.362,-1.28 -12.175,-1.484 -13.884,-0.588z" data-paper-data="{&quot;wickUUID&quot;:&quot;b2a64d3b-324f-4e61-bbc7-dd8e432ca730&quot;,&quot;wickType&quot;:&quot;path&quot;,&quot;originalStyle&quot;:{&quot;strokeColor&quot;:null,&quot;fillColor&quot;:[&quot;Color&quot;,0,0,0],&quot;strokeWidth&quot;:1}}" fill="#000000"/><path d="M405.446,186.17477c-2.689,0.425 -4.128,1.958 -7.075,7.534c-2.167,4.101 -2.419,4.972 -1.693,5.847c1.867,2.249 3.956,0.975 6.411,-3.909c1.966,-3.912 3.046,-4.75 6.116,-4.744c3.524,0.006 11.355,1.914 19.811,4.828c3.729,1.285 8.035,2.607 9.568,2.938c1.533,0.33 3.091,0.789 3.462,1.018c0.371,0.229 2.673,0.636 5.115,0.905c3.171,0.348 6.081,1.267 10.18,3.215c6.284,2.986 8.483,3.068 8.483,0.317c0,-1.224 -0.865,-2.023 -4.234,-3.907c-4.682,-2.618 -7.088,-3.383 -12.952,-4.119c-2.171,-0.272 -4.259,-0.687 -4.638,-0.921c-0.38,-0.235 -1.946,-0.685 -3.479,-1.001c-1.533,-0.315 -4.386,-1.191 -6.339,-1.946c-10.901,-4.216 -23.533,-6.878 -28.736,-6.055z" data-paper-data="{&quot;wickUUID&quot;:&quot;7e92cb44-95b9-48f6-b84a-7b9fbe7dd588&quot;,&quot;wickType&quot;:&quot;path&quot;,&quot;originalStyle&quot;:{&quot;strokeColor&quot;:null,&quot;fillColor&quot;:[&quot;Color&quot;,0,0,0],&quot;strokeWidth&quot;:1}}" fill="#000000"/><path d="M475.74771,217.92634c-3.422,2.156 -4.112,3.714 -4.112,9.299c0,5.477 1.155,9.268 3.039,9.975c0.637,0.239 1.479,0.862 1.87,1.384c0.895,1.193 6.77,0.636 9.05,-0.858c2.133,-1.398 5.401,-7.346 5.408,-9.846c0.016,-5.513 -4.458,-10.284 -10.226,-10.905c-2.282,-0.246 -3.493,-0.017 -5.029,0.951zM482.90471,223.25234c2.881,1.7 3.448,3.758 1.952,7.077c-1.105,2.449 -1.262,2.543 -4.255,2.543c-3.675,0 -4.445,-0.944 -4.445,-5.446c0,-2.088 0.377,-3.326 1.291,-4.24c1.635,-1.635 2.594,-1.623 5.457,0.066z" data-paper-data="{&quot;wickUUID&quot;:&quot;156a8bbf-ef7d-41e4-b85b-d5269eb732d2&quot;,&quot;wickType&quot;:&quot;path&quot;,&quot;originalStyle&quot;:{&quot;strokeColor&quot;:null,&quot;fillColor&quot;:[&quot;Color&quot;,0,0,0],&quot;strokeWidth&quot;:1}}" fill="#000000"/><path d="M504.03471,219.84662c-0.716,0.716 -1.511,3.106 -2.016,6.061c-1.042,6.088 -0.443,8.429 2.282,8.916c1.244,0.222 1.61,0.509 1.076,0.845c-0.443,0.28 -1.1,0.328 -1.458,0.106c-0.359,-0.221 -1.247,-0.214 -1.974,0.017c-1.996,0.634 -1.453,3.96 0.875,5.36c1.713,1.032 1.914,1.019 4.133,-0.264c4.4,-2.545 7.551,-11.127 6.379,-17.373c-0.759,-4.042 -6.613,-6.352 -9.297,-3.668zM508.44471,227.01862c0,1.397 -0.343,3.359 -0.761,4.359c-0.761,1.817 -0.761,1.817 -1.027,0.264c-0.372,-2.176 0.451,-7.164 1.182,-7.164c0.333,0 0.606,1.143 0.606,2.541z" data-paper-data="{&quot;wickUUID&quot;:&quot;91aa942a-9075-4e84-969f-347bcfcdc010&quot;,&quot;wickType&quot;:&quot;path&quot;,&quot;originalStyle&quot;:{&quot;strokeColor&quot;:null,&quot;fillColor&quot;:[&quot;Color&quot;,0,0,0],&quot;strokeWidth&quot;:1}}" fill="#000000"/><path d="M448.38848,248.58043c-5.767,2.551 -11.178,5.967 -16.467,10.396c-2.131,1.784 -4.02,3.4 -4.197,3.59c-0.178,0.19 -1.408,1.069 -2.735,1.954c-1.326,0.885 -2.555,1.98 -2.731,2.435c-0.518,1.338 1.459,7.953 3.121,10.439c2.798,4.186 4.733,5.738 11.156,8.951c6.818,3.41 11.878,4.646 19.023,4.646c5.416,0 12.634,-1.989 13.929,-3.839c0.54,-0.771 2.54,-3.238 4.445,-5.483c1.904,-2.245 4.943,-6.921 6.754,-10.392c1.81,-3.471 4.017,-6.882 4.905,-7.58c2.101,-1.652 1.94,-4.57 -0.268,-4.883c-2.684,-0.38 -5.461,2.56 -8.786,9.303c-1.856,3.763 -4.81,8.346 -7.289,11.308c-4.691,5.603 -6.423,6.399 -13.924,6.399c-6.264,0 -11.208,-1.152 -16.622,-3.874c-5.625,-2.828 -9.236,-6.42 -10.417,-10.359c-0.699,-2.335 -0.67,-2.767 0.22,-3.265c0.564,-0.316 3.204,-2.425 5.867,-4.688c5.801,-4.93 11.352,-8.443 17.524,-11.091c4.19,-1.797 4.564,-2.115 4.564,-3.875c0,-2.716 -2.086,-2.74 -8.072,-0.092z" data-paper-data="{&quot;wickUUID&quot;:&quot;354b00d8-6a4b-4f97-a7b5-4115ead581d1&quot;,&quot;wickType&quot;:&quot;path&quot;,&quot;originalStyle&quot;:{&quot;strokeColor&quot;:null,&quot;fillColor&quot;:[&quot;Color&quot;,0,0,0],&quot;strokeWidth&quot;:1}}" fill="#000000"/><path d="M406.82187,278.41042c-11.147,2.54 -29.13,8.534 -42.059,14.017c-10.488,4.448 -15.887,7.328 -19.681,10.497l-2.708,2.263l-1.967,-1.967c-4.072,-4.073 -7.676,-0.863 -3.944,3.514c1.003,1.176 2.123,2.656 2.489,3.288c1.126,1.945 3.935,1.394 7.281,-1.428c4.345,-3.663 9.338,-6.722 15.301,-9.375c22.424,-9.974 49.177,-17.88 60.582,-17.904c5.459,-0.012 7.546,-0.7 7.546,-2.488c0,-2.2 -1.369,-2.69 -7.394,-2.647c-4.202,0.03 -8.542,0.657 -15.446,2.23z" data-paper-data="{&quot;wickUUID&quot;:&quot;6152c4ec-884a-46f9-8288-5c9b2e2c8fa8&quot;,&quot;wickType&quot;:&quot;path&quot;,&quot;originalStyle&quot;:{&quot;strokeColor&quot;:null,&quot;fillColor&quot;:[&quot;Color&quot;,0,0,0],&quot;strokeWidth&quot;:1}}" fill="#000000"/><path d="M450.99487,285.78233c-0.865,1.615 -0.855,1.702 0.346,2.902c0.558,0.558 2.026,1.015 3.263,1.015c3.813,0 11.2,1.982 12.928,3.468l1.643,1.413l-2.639,2.564c-2.601,2.529 -4.938,3.911 -14.07,8.324c-6.353,3.07 -6.856,4.282 -3.577,8.609c2.683,3.541 5.751,2.521 4.92,-1.636c-0.319,-1.594 -0.061,-1.926 2.439,-3.138c11.077,-5.368 17.408,-10.401 18.323,-14.567c0.412,-1.877 0.201,-2.319 -2.045,-4.289c-3.157,-2.77 -5.665,-3.841 -11.701,-4.995c-6.673,-1.277 -9.012,-1.199 -9.83,0.33z" data-paper-data="{&quot;wickUUID&quot;:&quot;9d3fcb75-f916-4c9e-8d99-fddc7c6055f6&quot;,&quot;wickType&quot;:&quot;path&quot;,&quot;originalStyle&quot;:{&quot;strokeColor&quot;:null,&quot;fillColor&quot;:[&quot;Color&quot;,0,0,0],&quot;strokeWidth&quot;:1}}" fill="#000000"/><path d="M445.80535,244.94709c-12.686,2.163 -42.041,6.526 -57.721,8.58c-10.97,1.437 -20.559,2.765 -21.31,2.952c-1.062,0.264 -1.56,-0.102 -2.237,-1.646c-1.633,-3.722 -4.687,-6.297 -8.073,-6.805c-5.685,-0.852 -8.618,1.108 -9.742,6.51c-0.325,1.563 -0.007,2.526 1.537,4.659c3.715,5.127 7.965,6.441 13.26,4.099c3.441,-1.522 8.477,-2.377 31.011,-5.264c8.524,-1.092 24.593,-3.422 35.708,-5.177c11.116,-1.756 21.233,-3.193 22.483,-3.193c4.05,0 6.116,-2.271 3.996,-4.391c-0.739,-0.739 -5.468,-0.911 -8.912,-0.324z" data-paper-data="{&quot;wickUUID&quot;:&quot;096a8c26-463d-45d3-bfc3-500bbd1deb6d&quot;,&quot;wickType&quot;:&quot;path&quot;,&quot;originalStyle&quot;:{&quot;strokeColor&quot;:null,&quot;fillColor&quot;:[&quot;Color&quot;,0,0,0],&quot;strokeWidth&quot;:1}}" fill="#000000"/><path d="M394.34125,234.13538c-1.398,0.852 -2.316,2.102 -2.847,3.874c-1.086,3.626 -0.107,5.535 3.668,7.154c4.07,1.744 6.343,1.632 8.232,-0.404l1.552,-1.674l12.842,0.263c12.466,0.256 13.087,0.333 21.231,2.643c9.522,2.701 14.228,3.075 14.83,1.179c0.715,-2.253 -0.225,-3.132 -3.735,-3.494c-1.852,-0.192 -6.413,-1.227 -10.135,-2.302c-9.941,-2.87 -12.859,-3.224 -23.558,-2.857l-9.688,0.332l-0.799,-2.211c-1.327,-3.669 -7.495,-5.001 -11.593,-2.503z" data-paper-data="{&quot;wickUUID&quot;:&quot;7d23a902-b962-4cd4-ae67-16b75fe5e4ad&quot;,&quot;wickType&quot;:&quot;path&quot;,&quot;originalStyle&quot;:{&quot;strokeColor&quot;:null,&quot;fillColor&quot;:[&quot;Color&quot;,0,0,0],&quot;strokeWidth&quot;:1}}" fill="#000000"/></g><g fill="none" fill-rule="nonzero" stroke="none" stroke-width="1" stroke-linecap="butt" stroke-linejoin="miter" stroke-miterlimit="10" stroke-dasharray="" stroke-dashoffset="0" font-family="sans-serif" font-weight="normal" font-size="12" text-anchor="start" style="mix-blend-mode: normal"/><g id="wick_project_gui" fill="none" fill-rule="nonzero" stroke="none" stroke-width="1" stroke-linecap="butt" stroke-linejoin="miter" stroke-miterlimit="10" stroke-dasharray="" stroke-dashoffset="0" font-family="sans-serif" font-weight="normal" font-size="12" text-anchor="start" style="mix-blend-mode: normal"/></g></svg>