<svg version="1.1" xmlns="http://www.w3.org/2000/svg" xmlns:xlink="http://www.w3.org/1999/xlink" width="1107" height="504" viewBox="0,0,1107,504"><g transform="translate(102.04854,-40.9663) scale(1.18038,1.18038)"><g id="wick_project_bg" fill-opacity="0" fill="#ffffff" fill-rule="nonzero" stroke="none" stroke-width="1" stroke-linecap="butt" stroke-linejoin="miter" stroke-miterlimit="10" stroke-dasharray="" stroke-dashoffset="0" font-family="none" font-weight="none" font-size="none" text-anchor="none" style="mix-blend-mode: normal"><rect x="0" y="0" width="720" height="480"/></g><g data-paper-data="{&quot;wickUUID&quot;:&quot;b63f3d97-5894-44c0-8e87-897d135a6831&quot;,&quot;wickType&quot;:&quot;clipsandpaths&quot;}" fill="none" fill-rule="evenodd" stroke="none" stroke-width="1" stroke-linecap="butt" stroke-linejoin="miter" stroke-miterlimit="10" stroke-dasharray="" stroke-dashoffset="0" font-family="none" font-weight="none" font-size="none" text-anchor="none" style="mix-blend-mode: normal"><path d="M351.12993,196.29213c-2.2,0.41533 -5.42769,0.96724 -6.83802,1.15591c-2.79467,0.37367 -4.60329,1.42398 -9.32662,5.23298c-2.578,2.079 -2.93482,2.76788 -5.33282,11.07488c-2.902,10.05267 -3.22942,11.88162 -3.05475,16.73495c0.17167,4.76933 1.19321,8.90147 2.80488,11.26047c0.783,1.14633 1.71652,1.72551 3.83052,1.95184c3.36967,0.361 15.27592,-0.07847 19.45592,-0.71214c7.132,-1.081 11.05871,-2.87631 13.40371,-6.06131c1.63067,-2.21533 2.0513,-3.06335 4.29797,-10.52868c1.56433,-5.19867 1.60771,-5.89369 1.57571,-9.95536c-0.07333,-9.278 -3.75269,-16.78961 -9.51869,-19.55928c-2.63433,-1.26533 -5.98748,-1.59693 -11.29781,-0.59426zM337.69586,208.15494c0.70667,0.57233 0.57655,0.37614 0.71922,4.58281c0.19733,5.825 0.0017,7.74454 -1.03163,8.77787c-0.89433,0.89433 -0.95342,0.83 -1.93509,0.11333c-0.57367,-0.419 -0.44464,-0.38983 -0.54431,-4.3295c-0.154,-6.09067 0.05859,-8.17033 1.05559,-9.16733c0.944,-0.944 0.70255,-0.81418 1.73622,0.02282zM361.9557,230.49222c2.00067,1.78767 1.35148,3.32676 -1.63052,3.88376c-1.79333,0.335 -4.24595,1.47736 -7.83495,3.70736c-3.023,1.878 -4.10602,2.12254 -5.23669,1.06021c-0.54933,-0.516 -0.23945,0.22012 -0.23945,-0.51455c0,-1.84533 1.34269,-3.0208 6.23069,-5.47447c5.04233,-2.531 5.21937,-2.58753 7.3207,-2.62586c1.179,-0.02167 0.75755,-0.60145 1.39022,-0.03645z" data-paper-data="{&quot;wickUUID&quot;:&quot;b0136921-894c-4aed-ad23-dc5ed3c1ad04&quot;,&quot;wickType&quot;:&quot;path&quot;,&quot;originalStyle&quot;:{&quot;strokeColor&quot;:null,&quot;fillColor&quot;:[&quot;Color&quot;,1,1,1],&quot;strokeWidth&quot;:1}}" fill="#ffffff"/><path d="M370.79916,236.63921c-2.402,4.50633 -7.32505,7.91839 -13.57772,9.41006l-3.19132,1.12161l2.1345,2.71388c1.07533,1.02233 4.11262,4.42581 6.72929,7.54248c5.651,6.731 16.98788,17.99824 21.74721,21.61391c1.86633,1.418 4.49861,2.85502 4.78861,2.96602c0.67133,0.25767 2.44783,-1.51258 6.1865,-6.49391c2.85567,-3.805 9.7125,-14.19059 11.72117,-17.75492l1.18788,-2.42191l-1.74544,-1.86022c-1.79767,-1.624 -5.72764,-4.13902 -11.49231,-7.35402c-4.632,-2.58333 -6.50486,-3.74882 -9.70853,-6.04715c-2.45533,-1.76133 -5.27029,-3.1183 -9.11162,-4.3903c-1.879,-0.622 -3.97903,-1.18848 -4.0727,-1.18848c-0.09333,0 -1.01519,1.05428 -1.59552,2.14295z" data-paper-data="{&quot;wickUUID&quot;:&quot;3f40d3d5-d700-4f71-9734-d0c265e7e719&quot;,&quot;wickType&quot;:&quot;path&quot;,&quot;originalStyle&quot;:{&quot;strokeColor&quot;:null,&quot;fillColor&quot;:[&quot;Color&quot;,0.50196,0,1],&quot;strokeWidth&quot;:1}}" fill="#8000ff"/><path d="M421.01993,145.48888c-0.55,0.45833 -2.45046,1.75001 -4.29746,2.91701c-5.17033,3.26667 -32.37441,18.34034 -37.76474,20.92501c-2.63933,1.26567 -5.66605,2.88403 -6.69338,3.57736c-1.02733,0.69367 -3.58955,2.42427 -5.69788,3.84894c-2.31433,1.56367 -6.89105,4.09103 -11.55838,6.38336c-7.493,3.68 -7.86238,3.91102 -9.73871,6.03002c-1.06467,1.20267 -1.74286,3.84975 -1.81319,4.04875c-0.15,0.42367 2.06937,0.28124 8.30637,-0.70876c2.29167,-0.36367 5.1168,-0.76429 6.15313,-0.86829c1.68233,-0.16867 2.27722,-0.46844 2.63089,-1.32244c0.49933,-1.206 3.67695,-4.291 6.58728,-6.35433c3.69467,-2.61867 14.01557,-7.30293 31.20257,-14.16593c4.49167,-1.79367 10.76437,-4.17312 13.9727,-5.30145c13.89367,-4.886 13.83784,-4.87203 14.14751,-5.68636c0.17633,-0.46467 0.55716,-2.35062 0.34983,-3.29362c-0.51667,-2.34867 -3.12016,-10.54797 -3.34316,-10.5343c-0.10667,0.00667 -1.89338,0.04703 -2.44338,0.50503z" data-paper-data="{&quot;wickUUID&quot;:&quot;314f2e67-1c0e-42a1-93d1-f1e19098591d&quot;,&quot;wickType&quot;:&quot;path&quot;,&quot;originalStyle&quot;:{&quot;strokeColor&quot;:null,&quot;fillColor&quot;:[&quot;Color&quot;,1,0.50196,0],&quot;strokeWidth&quot;:1}}" fill="#ff8000"/><path d="M415.52801,167.1824c-9.73,3.46033 -19.42777,7.29182 -28.38344,11.21115c-13.17667,5.767 -16.2791,7.45291 -22.24043,12.09591c-0.435,0.33833 -0.17051,2.0303 0.36316,2.6203c0.609,0.673 1.087,0.64135 3.13733,-0.47432c4.22267,-2.29767 20.89231,-8.58784 38.88831,-14.67451c6.69167,-2.263 13.9049,-4.73239 16.04857,-5.49439l4.29314,-1.66955l-1.43835,-2.80385c-0.798,-0.97967 -1.52976,-2.064 -1.65009,-2.44367c-0.12067,-0.38 -1.22815,-1.03429 -1.35315,-1.02496c-0.12533,0.00933 -3.63172,1.22322 -7.66505,2.65789z" data-paper-data="{&quot;wickUUID&quot;:&quot;bf93ed39-1767-4893-ac62-896d1fd39e68&quot;,&quot;wickType&quot;:&quot;path&quot;,&quot;originalStyle&quot;:{&quot;strokeColor&quot;:null,&quot;fillColor&quot;:[&quot;Color&quot;,1,0.50196,0],&quot;strokeWidth&quot;:1}}" fill="#ff8000"/><path d="M350.8784,191.89387c-1.953,0.488 -4.798,0.899 -6.322,0.914c-2.885,0.028 -7.088,1.813 -9.428,4.004c-0.749,0.701 -2.277,1.842 -3.396,2.536c-2.705,1.678 -4.129,4.917 -7.343,16.704c-2.385,8.749 -2.667,10.513 -2.467,15.447c0.188,4.633 0.572,6.302 2.281,9.914c3.075,6.502 4.106,6.957 15.697,6.934c19.787,-0.04 29.112,-3.983 32.512,-13.748c2.376,-6.823 4.312,-14.576 4.301,-17.225c-0.032,-7.773 -3.546,-17.863 -7.423,-21.31c-0.998,-0.888 -2.615,-2.413 -3.592,-3.39c-1.629,-1.629 -2.171,-1.771 -6.522,-1.721c-2.611,0.03 -6.344,0.454 -8.298,0.941zM362.6064,197.65687c5.086,2.843 8.081,8.717 8.729,17.124c0.327,4.242 0.141,5.715 -1.274,10.077c-0.911,2.81 -1.838,6.017 -2.059,7.128c-0.52,2.615 -2.962,5.895 -5.568,7.48c-3.688,2.243 -12.335,3.71 -21.888,3.715c-4.795,0.002 -9.042,-0.21 -9.438,-0.471c-1.922,-1.265 -3.707,-6.412 -3.971,-11.452c-0.239,-4.556 0.044,-6.301 2.397,-14.781c1.468,-5.288 2.95,-10.141 3.294,-10.784c0.344,-0.643 2.575,-2.637 4.957,-4.43c3.498,-2.634 4.833,-3.267 6.937,-3.29c1.432,-0.015 4.348,-0.421 6.479,-0.902c5.843,-1.319 8.216,-1.197 11.405,0.586z" data-paper-data="{&quot;wickUUID&quot;:&quot;f16df151-33f4-4056-91a0-0edfbcacfb85&quot;,&quot;wickType&quot;:&quot;path&quot;,&quot;originalStyle&quot;:{&quot;strokeColor&quot;:null,&quot;fillColor&quot;:[&quot;Color&quot;,0,0,0],&quot;strokeWidth&quot;:1}}" fill="#000000"/><path d="M419.61135,140.57816c-1.043,1.093 -3.93,3.228 -6.417,4.745c-9.107,5.556 -34.36,19.467 -39.029,21.499c-2.642,1.15 -5.838,2.971 -7.103,4.046c-3.503,2.977 -11.251,7.449 -16.745,9.664c-5.529,2.23 -7.45,3.932 -15.236,13.494c-2.514,3.089 -2.761,4.067 -1.324,5.26c1.79,1.485 3.87,0.077 8.788,-5.949c4.88,-5.981 4.939,-6.026 11.946,-9.164c6.638,-2.972 11.87,-6.08 17.052,-10.129c1.243,-0.972 4.098,-2.53 6.346,-3.463c2.247,-0.934 8.349,-4.114 13.561,-7.067c5.211,-2.954 12.962,-7.282 17.224,-9.619c4.262,-2.336 9.202,-5.287 10.978,-6.557l3.229,-2.309l1.748,5.337c2.066,6.308 2.195,7.991 0.673,8.798c-0.621,0.33 -6.07,2.261 -12.108,4.291c-9.908,3.333 -31.36,12.108 -41.809,17.102c-4.598,2.198 -11.466,7.96 -11.466,9.619c0,1.339 1.216,2.659 2.448,2.659c0.494,0 2.799,-1.578 5.122,-3.506c3.539,-2.937 6.852,-4.653 20.444,-10.585c8.921,-3.893 21.306,-8.76 27.522,-10.814c12.088,-3.995 16.334,-6.181 16.68,-8.587c0.307,-2.139 -4.88,-17.992 -6.377,-19.489c-1.815,-1.815 -3.965,-1.561 -6.147,0.724z" data-paper-data="{&quot;wickUUID&quot;:&quot;d51d91aa-2955-4994-af5c-9e587064bbfb&quot;,&quot;wickType&quot;:&quot;path&quot;,&quot;originalStyle&quot;:{&quot;strokeColor&quot;:null,&quot;fillColor&quot;:[&quot;Color&quot;,0,0,0],&quot;strokeWidth&quot;:1}}" fill="#000000"/><path d="M423.60035,163.49358c-0.436,1.136 0.934,4.141 2.467,5.413c0.556,0.462 1.011,1.07 1.011,1.351c0,0.282 -7.773,3.046 -17.274,6.143c-17.551,5.721 -37.77,13.333 -42.459,15.984c-1.871,1.058 -2.583,1.88 -2.583,2.984c0,2.78 1.646,2.992 6.236,0.801c10.123,-4.831 38.399,-14.983 56.08,-20.134c4.97,-1.447 7.104,-2.743 7.104,-4.311c0,-0.491 -1.506,-2.771 -3.345,-5.066c-2.634,-3.288 -3.717,-4.174 -5.097,-4.174c-0.994,0 -1.92,0.437 -2.14,1.009z" data-paper-data="{&quot;wickUUID&quot;:&quot;4b538105-925c-4902-bf72-401dc1469812&quot;,&quot;wickType&quot;:&quot;path&quot;,&quot;originalStyle&quot;:{&quot;strokeColor&quot;:null,&quot;fillColor&quot;:[&quot;Color&quot;,0,0,0],&quot;strokeWidth&quot;:1}}" fill="#000000"/><path d="M355.39935,231.24158c-1.599,0.837 -4.13,2.106 -5.627,2.821c-2.968,1.417 -4.184,3.884 -2.761,5.599c1.047,1.261 2.316,1.212 4.416,-0.17c4.624,-3.044 8.03,-4.682 9.733,-4.682c2.551,0 3.574,-3.326 1.384,-4.498c-1.895,-1.014 -3.941,-0.748 -7.145,0.93z" data-paper-data="{&quot;wickUUID&quot;:&quot;fc75bf3b-1a57-4c6a-a394-3ee5dd2aa08a&quot;,&quot;wickType&quot;:&quot;path&quot;,&quot;originalStyle&quot;:{&quot;strokeColor&quot;:null,&quot;fillColor&quot;:[&quot;Color&quot;,0,0,0],&quot;strokeWidth&quot;:1}}" fill="#000000"/><path d="M334.75687,208.29115c-0.715,1.337 -0.928,11.528 -0.276,13.228c0.549,1.43 3.3,1.278 4.106,-0.228c0.946,-1.769 0.862,-12.506 -0.107,-13.474c-1.163,-1.164 -2.969,-0.934 -3.723,0.474z" data-paper-data="{&quot;wickUUID&quot;:&quot;ac1fa56b-01cf-41a4-9faa-c05f39d5308c&quot;,&quot;wickType&quot;:&quot;path&quot;,&quot;originalStyle&quot;:{&quot;strokeColor&quot;:null,&quot;fillColor&quot;:[&quot;Color&quot;,0,0,0],&quot;strokeWidth&quot;:1}}" fill="#000000"/><path d="M369.08963,229.77315c-1.008,1.008 -0.99,2.763 0.037,3.615c0.922,0.766 5.334,2.475 9.26,3.588c2.515,0.713 6.815,3.243 9.623,5.661c0.711,0.612 3.907,2.471 7.104,4.131c6.152,3.195 12.592,7.669 12.592,8.748c0,0.355 -1.256,2.597 -2.792,4.983c-1.535,2.386 -3.324,5.21 -3.976,6.276c-1.938,3.172 -6.958,10.027 -9.31,12.714c-2.163,2.471 -2.214,2.49 -3.552,1.312c-0.746,-0.658 -2.09,-1.648 -2.986,-2.202c-2.85,-1.761 -18.057,-16.75 -21.124,-20.821c-6.427,-8.532 -12.113,-13.282 -15.898,-13.282c-3.149,0 -2.934,3.663 0.299,5.094c2.97,1.315 6.042,4.223 10.271,9.722c5.819,7.566 21.735,23.366 24.386,24.207c0.681,0.216 1.563,1.106 1.96,1.977c1.421,3.118 6.011,2.701 9.339,-0.848c1.905,-2.031 5.9,-7.602 11.892,-16.582c2.371,-3.551 4.983,-7.279 5.806,-8.283c0.823,-1.004 1.497,-2.652 1.497,-3.663c0,-3.491 -5.921,-8.724 -15.22,-13.449c-2.817,-1.432 -7.156,-4.084 -9.642,-5.894c-2.486,-1.81 -5.683,-3.588 -7.103,-3.95c-1.421,-0.362 -4.273,-1.372 -6.339,-2.244c-4.259,-1.798 -5.034,-1.9 -6.124,-0.81z" data-paper-data="{&quot;wickUUID&quot;:&quot;4b3e14ba-2893-470d-9e09-6b291d9c209e&quot;,&quot;wickType&quot;:&quot;path&quot;,&quot;originalStyle&quot;:{&quot;strokeColor&quot;:null,&quot;fillColor&quot;:[&quot;Color&quot;,0,0,0],&quot;strokeWidth&quot;:1}}" fill="#000000"/><path d="M401.89348,215.43905c-18.091,2.884 -27.797,6.623 -31.481,12.127c-2.258,3.376 -2.538,4.608 -1.323,5.823c1.465,1.465 2.994,0.769 5.344,-2.433c1.725,-2.35 3.444,-3.744 6.424,-5.211c8.094,-3.985 28.392,-6.775 38.151,-5.244c4.933,0.774 7.135,0.495 7.7,-0.977c0.725,-1.889 -0.792,-3.297 -3.976,-3.69c-5.985,-0.739 -17.332,-0.954 -20.839,-0.395z" data-paper-data="{&quot;wickUUID&quot;:&quot;45a96810-88c2-48b9-bc98-bc7ec56ea263&quot;,&quot;wickType&quot;:&quot;path&quot;,&quot;originalStyle&quot;:{&quot;strokeColor&quot;:null,&quot;fillColor&quot;:[&quot;Color&quot;,0,0,0],&quot;strokeWidth&quot;:1}}" fill="#000000"/><path d="M427.82648,212.44724c-0.832,0.461 -2.503,2.09 -3.714,3.619c-1.753,2.216 -2.2,3.362 -2.2,5.639c0,1.571 0.299,3.416 0.665,4.1c0.991,1.851 4.069,3.193 7.325,3.193c5.077,0 9.225,-4.823 8.637,-10.04c-0.652,-5.781 -6.081,-9.081 -10.713,-6.511z" data-paper-data="{&quot;wickUUID&quot;:&quot;632a3521-42dd-40fc-90c3-880fec60597c&quot;,&quot;wickType&quot;:&quot;path&quot;,&quot;originalStyle&quot;:{&quot;strokeColor&quot;:null,&quot;fillColor&quot;:[&quot;Color&quot;,0,0,0],&quot;strokeWidth&quot;:1}}" fill="#000000"/><path d="M382.26463,223.60081c-5.523,1.696 -7.972,4.232 -6.176,6.397c1.043,1.256 2.332,1.181 4.395,-0.256c0.943,-0.656 3.078,-1.528 4.745,-1.937c3.77,-0.926 18.246,-0.981 19.936,-0.076c0.874,0.468 1.25,1.355 1.25,2.956c0,2.994 2.904,6.062 5.739,6.062c2.283,0 6.339,-3.212 6.906,-5.469c0.492,-1.962 -1.227,-5.873 -2.997,-6.821c-0.8,-0.428 -2.563,-0.62 -3.965,-0.431c-1.544,0.207 -3.202,-0.015 -4.266,-0.57c-2.495,-1.302 -21.2,-1.196 -25.567,0.145z" data-paper-data="{&quot;wickUUID&quot;:&quot;4631ac09-ff8d-482b-92c7-76d461700798&quot;,&quot;wickType&quot;:&quot;path&quot;,&quot;originalStyle&quot;:{&quot;strokeColor&quot;:null,&quot;fillColor&quot;:[&quot;Color&quot;,0,0,0],&quot;strokeWidth&quot;:1}}" fill="#000000"/><path d="M397.07977,272.819c-0.485,1.526 0.188,3.319 1.244,3.319c0.447,0 1.568,0.595 2.492,1.321c1.888,1.486 15.028,18.296 18.826,24.085c1.362,2.075 2.82,3.905 3.241,4.066c1.152,0.443 6.488,-1.817 19.596,-8.3l11.848,-5.859l1.42,1.78c1.559,1.956 3.362,2.021 4.519,0.164c0.997,-1.599 -1.419,-5.678 -3.982,-6.724c-1.827,-0.745 -2.689,-0.424 -15.087,5.628c-17.898,8.736 -16.105,8.355 -18.969,4.041c-3.186,-4.798 -12.856,-17.333 -15.751,-20.416c-3.916,-4.172 -8.571,-5.71 -9.397,-3.105z" data-paper-data="{&quot;wickUUID&quot;:&quot;78556805-902d-4c0c-93d4-37937ef966bd&quot;,&quot;wickType&quot;:&quot;path&quot;,&quot;originalStyle&quot;:{&quot;strokeColor&quot;:null,&quot;fillColor&quot;:[&quot;Color&quot;,0,0,0],&quot;strokeWidth&quot;:1}}" fill="#000000"/><path d="M400.63057,273.19785c-1.679,2.024 1.108,14.561 8.046,36.197c2.278,7.104 5.873,19.89 7.99,28.414c2.512,10.116 4.465,16.597 5.625,18.663l1.778,3.165l-1.574,-0.395c-5.239,-1.315 -8.592,-1.812 -9.939,-1.474c-1.858,0.466 -2.766,2.782 -1.527,3.893c1.072,0.962 9.398,2.52 13.789,2.58l3.229,0.044l0.199,-3.506c0.163,-2.869 -0.159,-4.219 -1.771,-7.426c-1.268,-2.524 -3.243,-9.196 -5.544,-18.727c-1.967,-8.144 -5.439,-20.665 -7.717,-27.824c-4.531,-14.243 -7.086,-23.88 -7.785,-29.372c-0.248,-1.953 -0.745,-3.915 -1.104,-4.359c-0.877,-1.085 -2.742,-1.021 -3.695,0.127z" data-paper-data="{&quot;wickUUID&quot;:&quot;02797ecf-208c-4376-acc9-c678fc3ac7e9&quot;,&quot;wickType&quot;:&quot;path&quot;,&quot;originalStyle&quot;:{&quot;strokeColor&quot;:null,&quot;fillColor&quot;:[&quot;Color&quot;,0,0,0],&quot;strokeWidth&quot;:1}}" fill="#000000"/></g><g fill="none" fill-rule="nonzero" stroke="none" stroke-width="1" stroke-linecap="butt" stroke-linejoin="miter" stroke-miterlimit="10" stroke-dasharray="" stroke-dashoffset="0" font-family="sans-serif" font-weight="normal" font-size="12" text-anchor="start" style="mix-blend-mode: normal"/><g id="wick_project_gui" fill="none" fill-rule="nonzero" stroke="none" stroke-width="1" stroke-linecap="butt" stroke-linejoin="miter" stroke-miterlimit="10" stroke-dasharray="" stroke-dashoffset="0" font-family="sans-serif" font-weight="normal" font-size="12" text-anchor="start" style="mix-blend-mode: normal"/></g></svg>