<svg version="1.1" xmlns="http://www.w3.org/2000/svg" xmlns:xlink="http://www.w3.org/1999/xlink" width="1260" height="594" viewBox="0,0,1260,594"><g transform="translate(224.40741,-63.33482) scale(0.70248,0.70248)"><g id="wick_project_bg" fill-opacity="0" fill="#ffffff" fill-rule="nonzero" stroke="none" stroke-width="1" stroke-linecap="butt" stroke-linejoin="miter" stroke-miterlimit="10" stroke-dasharray="" stroke-dashoffset="0" font-family="none" font-weight="none" font-size="none" text-anchor="none" style="mix-blend-mode: normal"><rect x="0" y="0" width="720" height="480"/></g><g data-paper-data="{&quot;wickUUID&quot;:&quot;0d87b1be-2ff2-4ff7-bbfd-665a740e804d&quot;,&quot;wickType&quot;:&quot;clipsandpaths&quot;}" fill="none" fill-rule="evenodd" stroke="none" stroke-width="1" stroke-linecap="butt" stroke-linejoin="miter" stroke-miterlimit="10" stroke-dasharray="" stroke-dashoffset="0" font-family="none" font-weight="none" font-size="none" text-anchor="none" style="mix-blend-mode: normal"><path d="M393.12623,100.7083c-0.55,0.068 -3.07215,0.36873 -5.45548,0.65006c-9.65633,1.14 -18.48883,3.01374 -25.5885,5.40507c-12.115,4.08067 -35.25611,15.57061 -47.09078,23.38294c-4.176,2.757 -10.86884,8.01838 -15.37751,12.06038c-8.59033,7.70267 -13.55108,16.38246 -17.05141,29.85613c-1.291,4.96967 -3.7341,16.0221 -3.7341,16.93343c0,0.25133 1.05406,1.52291 1.46639,1.62491c2.58633,0.64 11.05519,1.59363 16.58586,1.86796c7.487,0.371 9.37169,0.74026 13.59002,2.80293c3.71067,1.81467 6.50878,3.92715 13.07578,9.79482c8.586,7.67067 14.17993,11.76852 19.7836,14.50285c2.78733,1.36 3.93875,1.72714 8.55242,2.54014c1.08167,0.19067 2.83097,0.78464 3.93297,1.33531c1.102,0.55067 2.96938,0.93725 3.27838,0.93725c0.873,0 1.91103,-1.36654 3.30636,-4.58654c2.07533,-4.78933 6.69163,-17.01036 6.69163,-17.71036c0,-1.642 10.29972,-20.36558 28.06039,-51.01125c6.95067,-11.99333 17.45762,-28.97109 27.65762,-44.69209l1.67823,-3.99076l-6.21558,-0.40465c-10.65067,-0.40667 -19.04646,-0.87952 -21.22779,-1.19519c-2.15167,-0.31133 -3.99017,-0.34267 -5.9185,-0.10334z" data-paper-data="{&quot;wickUUID&quot;:&quot;a5dd3413-5061-43c5-9953-bfa53ae8ac65&quot;,&quot;wickType&quot;:&quot;path&quot;,&quot;originalStyle&quot;:{&quot;strokeColor&quot;:null,&quot;fillColor&quot;:[&quot;Color&quot;,1,1,1],&quot;strokeWidth&quot;:1}}" fill="#ffffff"/><path d="M473.15755,259.63502c0,0.287 0.14419,0.76816 0.32486,1.10549c0.92333,1.725 2.18223,16.0314 1.68623,19.21107c-0.29467,1.88967 -0.70461,2.54672 -3.77194,7.03705c-5.581,8.17067 -13.1877,17.22377 -16.02303,19.05644c-2.54667,1.64567 -6.26928,3.42294 -12.00561,5.80594c-6.35333,2.63933 -11.96263,5.98802 -19.60796,11.70669c-7.80767,5.84 -12.77354,9.2137 -18.23454,12.39003c-4.88367,2.84067 -6.70816,5.38778 -6.70816,5.74145c0,0.583 16.12156,6.0684 22.43756,7.61607c2.56667,0.629 6.50463,1.43016 8.5213,1.73883c4.91133,0.75167 13.35875,0.69713 17.52808,-0.04887c11.019,-1.97133 20.82678,-8.24004 29.70545,-18.95571c6.22933,-7.51833 19.56026,-28.09933 27.47159,-42.43766c2.72067,-4.93067 3.96687,-7.92521 4.56187,-10.16021c1.25767,-4.72267 -0.42907,-7.13959 -7.43774,-10.49092c-5.548,-2.653 -26.02718,-10.74689 -27.20185,-10.74689c-0.05833,0 -1.24611,1.1442 -1.24611,1.4312z" data-paper-data="{&quot;wickUUID&quot;:&quot;2b83aa33-63aa-4e66-b8e0-2565f2f57e2d&quot;,&quot;wickType&quot;:&quot;path&quot;,&quot;originalStyle&quot;:{&quot;strokeColor&quot;:null,&quot;fillColor&quot;:[&quot;Color&quot;,1,1,1],&quot;strokeWidth&quot;:1}}" fill="#ffffff"/><path d="M442.82813,111.90962c-1.27067,1.69567 -4.40588,6.0055 -6.97055,9.5805c-5.40767,7.53933 -9.00966,12.26086 -11.86399,15.54419c-9.45433,10.87533 -20.28055,28.29319 -31.34288,50.42719l-3.76973,7.54801l0.27686,2.07732c0.18,0.94967 0.33589,4.73659 0.33722,8.33226c0.00467,10.86 0.64797,14.42173 4.8303,26.7784c6.04567,17.86133 9.77402,31.1718 10.08135,35.99313c0.18033,2.824 0.54475,1.94007 -0.57525,3.4054c-2.329,3.047 -5.02825,4.02879 -7.91792,2.19112c-5.40667,-3.43767 -14.61432,-17.59901 -20.06499,-30.81868c-0.66267,-1.607 -1.60286,-3.33922 -1.68686,-3.47955c-0.08367,-0.14067 -1.75737,0.74419 -2.53737,1.80352c-1.77667,2.41333 -4.67602,5.01766 -6.93369,6.22666c-0.95233,0.51 -2.07084,1.4463 -2.12984,1.4923c-0.05867,0.046 0.27692,2.10303 0.76492,4.2747c2.72867,12.14367 3.97285,30.35363 2.48685,36.61396c-0.86367,3.63833 -2.57701,4.74862 -6.66968,4.74862c-3.779,0 -4.25473,-0.37567 -7.07506,-4.64634c-5.40833,-8.189 -14.41997,-27.65137 -19.29997,-41.67304l-1.95524,-5.57459l-2.38228,-1.55738c-1.16867,-0.707 -2.58783,-1.71596 -3.13783,-2.23129c-0.96333,-0.903 -4.68656,-3.2145 -10.45689,-6.49383c-1.51067,-0.85867 -8.88295,-4.70672 -16.35562,-8.53672c-7.47267,-3.83 -15.60826,-8.07688 -18.08326,-9.43988l-4.67253,-2.5465l-1.32282,1.87357c-0.34967,1.59867 -2.13737,14.17295 -2.60237,18.29628c-0.57467,5.09467 -0.79665,27.9111 -0.33198,33.9851c0.69333,9.06433 2.05187,15.51102 5.37887,25.48135c3.92733,11.76833 8.92528,24.54546 12.23728,31.28479c2.95433,6.01233 5.63415,9.65378 8.51915,11.54778c2.89533,1.90067 6.39033,4.84113 11.62566,9.76546c2.50667,2.358 6.54819,6.15538 8.97319,8.43171c5.125,4.811 10.8961,9.41965 12.9641,10.45232c2.14067,1.069 10.98021,1.92804 30.62354,2.93537c20.91333,1.07233 27.08165,1.24077 51.88665,1.41644c24.48267,0.17333 25.60907,0.15477 26.70974,-0.44323l1.2947,-2.30312l-5.02974,-0.21722c-8.23333,-0.348 -16.16882,-1.96319 -28.53415,-5.80752c-12.06433,-3.75067 -22.83073,-6.14233 -38.1094,-8.46666c-17.827,-2.71167 -24.36076,-3.93303 -27.22009,-5.1277c-2.77367,-1.15867 -4.58939,-3.97044 -4.55839,-6.68177c0.021,-1.84667 -0.43489,-2.29618 -4.02822,-3.92218c-2.562,-1.15933 -4.5075,-2.64889 -5.41817,-4.43456c-1.25,-2.45 -1.12481,-4.89503 0.90352,-6.78136c2.36567,-2.20067 5.10573,-1.89074 15.3084,1.37659c9.43,3.01967 24.32513,7.02714 31.60713,8.50981c4.18467,0.852 5.46455,0.59041 11.87888,-2.66259c9.03767,-4.58367 20.56485,-11.82111 28.94585,-18.17978c8.965,-6.802 13.66529,-9.56874 22.11696,-13.01874c6.03733,-2.46467 8.39715,-3.96614 11.06715,-6.95114c3.49667,-3.90933 11.86897,-15.15093 11.86897,-15.9086c0,-1.12767 -2.05186,-12.45391 -2.63953,-14.50091c-1.531,-5.331 -3.90509,-7.23133 -10.62876,-8.24533c-8.64167,-1.30367 -11.98892,-4.21044 -10.85759,-9.60444c0.46767,-2.229 1.31151,-2.76861 3.19751,-3.75828c1.20633,-0.63267 1.44662,-0.61016 7.71229,-0.60949c8.75333,0.001 14.81425,0.86883 22.14092,3.1985c9.93367,3.159 39.91034,15.70177 43.23167,18.0921c4.06767,2.928 7.51511,8.38756 8.26878,12.97256c0.46067,2.802 -0.18966,6.64069 -1.74799,10.96436c-1.276,3.54 -5.13757,11.21846 -8.54057,16.99213c-5.53667,9.39467 -15.54771,24.99404 -19.38604,30.20871c-0.70267,0.95467 -0.09449,2.99638 -0.09449,3.10805c0,0.36333 4.187,-3.06307 7.08333,-5.79474c3.013,-2.842 6.85762,-7.3942 10.59829,-12.55387c1.26267,-1.74167 2.88552,-3.97431 3.55419,-4.89098c2.73533,-3.75067 8.44382,-12.36829 10.19949,-15.37129c4.72867,-8.088 6.09963,-13.45824 7.31496,-28.66491c0.60133,-7.523 0.51426,-21.64431 -0.16341,-27.07431c-1.44133,-11.55033 -5.21552,-25.48118 -12.31785,-45.48551c-6.74833,-19.00733 -9.05311,-23.23942 -22.82378,-41.81442c-3.33,-4.49167 -7.89968,-10.73483 -9.99601,-13.66816c-7.32567,-10.25133 -15.04351,-16.99596 -28.56184,-24.95796c-3.455,-2.035 -11.59324,-6.43664 -11.88091,-6.43664c-0.07267,0 -2.04281,1.70928 -3.31314,3.40495z" data-paper-data="{&quot;wickUUID&quot;:&quot;46f000f8-631f-4541-9151-4ec3929529bf&quot;,&quot;wickType&quot;:&quot;path&quot;,&quot;originalStyle&quot;:{&quot;strokeColor&quot;:null,&quot;fillColor&quot;:[&quot;Color&quot;,1,1,1],&quot;strokeWidth&quot;:1}}" fill="#ffffff"/><path d="M451.03137,16.74425c-0.81533,1.146 -2.84615,4.25205 -4.26982,6.63538c-3.826,6.40467 -6.98032,11.41016 -12.81565,20.33649c-6.11,9.34667 -11.11071,17.40133 -15.00371,24.16833c-3.37667,5.869 -7.34404,12.23047 -9.05971,14.52614c-0.69767,0.93333 -1.1844,2.79184 -1.1844,2.88584c0,0.09433 1.91531,0.52206 3.70264,0.62639c4.82,0.28133 6.61198,0.75275 7.86331,2.07675l1.12788,1.13415l6.2277,0.71009c3.36433,0.37933 6.80443,0.63239 7.0481,0.67206c0.244,0.03967 2.87304,-3.30644 5.47071,-7.11044c2.598,-3.80433 9.40323,-13.71477 15.11356,-22.01044c10.655,-15.47867 23.88335,-35.2257 24.14535,-35.87037c0.23633,-0.582 -16.17198,-8.36815 -21.79565,-10.14448c-3.94,-1.24467 -4.83498,-1.07489 -6.57031,1.36411z" data-paper-data="{&quot;wickUUID&quot;:&quot;7f0ae0fe-b0c7-4596-bf8b-b461f9450d15&quot;,&quot;wickType&quot;:&quot;path&quot;,&quot;originalStyle&quot;:{&quot;strokeColor&quot;:null,&quot;fillColor&quot;:[&quot;Color&quot;,1,0.50196,0],&quot;strokeWidth&quot;:1}}" fill="#ff8000"/><path d="M490.38755,33.74428c-3.47167,8.94233 -10.82838,25.92681 -13.79071,31.82981c-2.64267,5.266 -9.72242,15.3696 -18.71309,26.71927c-2.01933,2.549 -3.66404,5.38485 -3.50537,5.54018c0.15767,0.155 2.64516,1.91275 5.14283,3.27942c16.647,9.10867 27.56952,17.84697 35.34852,28.30297c12.72633,17.10567 23.55128,32.33926 26.81495,37.72326c2.78467,4.59367 6.3431,13.19899 10.89077,26.29232c0.826,2.378 2.80045,3.00835 2.98012,2.57202c0.69167,-1.68 6.03322,-24.60053 8.73622,-37.49053c2.40233,-11.455 3.55309,-17.41557 5.21542,-27.01324c3.17867,-18.354 9.46973,-49.38777 11.7164,-57.79244c0.822,-3.075 0.35486,-4.20531 -2.54947,-6.48364c-3.02533,-2.373 -17.42953,-10.86214 -31.9312,-18.81414c-6.31067,-3.46067 -33.70912,-17.52415 -34.13945,-17.52415c-0.08967,0 -1.69994,1.52989 -2.21594,2.85889z" data-paper-data="{&quot;wickUUID&quot;:&quot;d04e6dce-d72c-4029-b762-acc03e1ec83a&quot;,&quot;wickType&quot;:&quot;path&quot;,&quot;originalStyle&quot;:{&quot;strokeColor&quot;:null,&quot;fillColor&quot;:[&quot;Color&quot;,1,0.50196,0],&quot;strokeWidth&quot;:1}}" fill="#ff8000"/><path d="M507.01768,340.52509c-5.71933,5.274 -11.98915,9.51942 -28.33782,19.18809c-6.064,3.58633 -13.67628,8.14932 -17.15461,10.25465c-16.66367,10.085 -19.02084,10.63605 -46.07651,10.61638c-24.426,-0.018 -56.81203,-1.42466 -75.7057,-3.28233c-2.82067,-0.27733 -6.01624,0.13613 -6.06091,0.18746c-0.08633,0.099 -2.94367,23.42853 -3.524,28.7942c-3.45067,31.902 -5.1314,72.29545 -4.4114,106.02378c0.20933,9.80833 0.58017,18.66706 0.69617,19.15406c0.29433,1.235 1.88473,1.79942 11.15006,1.88409c4.30833,0.03933 9.65864,0.26355 11.83964,0.49522c2.181,0.23133 5.78658,0.35298 7.91391,0.27098c3.21267,-0.124 4.32758,-0.31084 6.17258,-1.05984c3.707,-1.50433 6.2362,-1.88264 14.74387,-2.20164c4.4,-0.165 8.94547,-0.44915 10.13714,-0.63515c3.64267,-0.56833 16.3832,-1.65946 24.12687,-2.06513c8.13267,-0.426 25.66104,-0.22279 29.92771,0.34721c1.46667,0.196 5.09406,0.94295 8.22506,1.68195l5.95893,1.35857l7.3579,-2.6923c8.08067,-2.98733 14.47931,-5.05515 15.65198,-5.05515c1.31133,0 3.45249,-1.24757 6.08549,-3.5659c3.20833,-2.825 5.81271,-4.1174 8.29704,-4.11773c1.679,-0.00033 2.4708,-0.42661 5.79347,-2.42261c11.82533,-7.10233 15.21959,-12.0295 18.79726,-27.17983c1.645,-6.966 1.92249,-9.62854 1.91716,-20.82454c-0.01367,-29.159 -2.17781,-68.64843 -5.21981,-95.24476c-0.968,-8.463 -4.24261,-31.17174 -4.53328,-31.44174c-0.069,-0.064 -2.48487,0.34868 -3.7682,1.53201z" data-paper-data="{&quot;wickUUID&quot;:&quot;17434ca6-7606-48c2-87aa-30bc5c1f327c&quot;,&quot;wickType&quot;:&quot;path&quot;,&quot;originalStyle&quot;:{&quot;strokeColor&quot;:null,&quot;fillColor&quot;:[&quot;Color&quot;,1,0,0.50196],&quot;strokeWidth&quot;:1}}" fill="#ff0080"/><path d="M483.42563,20.08837c-1.155,0.883 -5.505,6.807 -9.667,13.164c-4.161,6.356 -16.184,23.982 -26.719,39.168c-21.224,30.595 -41.763,62.924 -55.485,87.336c-4.96,8.823 -11.94,21.058 -15.511,27.19c-3.571,6.132 -6.895,12.749 -7.386,14.705c-0.491,1.955 -2.689,8.01 -4.886,13.455c-3.968,9.836 -4.014,9.889 -7.18,8.136c-1.753,-0.97 -4.343,-1.79 -5.755,-1.822c-5.566,-0.126 -15.972,-6.54 -26.631,-16.415c-11.794,-10.926 -16.728,-13.155 -29.127,-13.155c-7.478,0 -25.656,-3.498 -32.852,-6.321c-3.532,-1.386 -13.356,-6.321 -21.832,-10.966c-8.475,-4.646 -16.657,-8.774 -18.18,-9.173c-3.455,-0.906 -7.629,1.229 -8.436,4.315c-1.174,4.491 1.434,7.911 8.91,11.685c9.702,4.898 34.499,19.411 45.942,26.889c4.953,3.237 18.655,10.679 30.448,16.538c11.792,5.86 23.426,12.397 25.853,14.527c2.427,2.131 5.781,3.882 7.453,3.891c1.673,0.009 7.542,1.453 13.043,3.21c13.112,4.188 16.758,4.084 22.733,-0.649c5.687,-4.504 10.199,-14.568 13.534,-30.188c3.466,-16.23 28.984,-63.398 41.686,-77.052c2.628,-2.825 8.41,-10.338 12.849,-16.695c4.439,-6.356 14.243,-19.359 21.787,-28.894c7.544,-9.535 15.469,-20.515 17.612,-24.4c4.845,-8.784 18.396,-41.205 18.396,-44.013c0,-2.128 -4.613,-6.071 -7.104,-6.071c-0.767,0 -2.34,0.723 -3.495,1.605z" data-paper-data="{&quot;wickUUID&quot;:&quot;c4f73f9e-d684-4e89-bcd6-5f1d2c9d728c&quot;,&quot;wickType&quot;:&quot;path&quot;,&quot;originalStyle&quot;:{&quot;strokeColor&quot;:null,&quot;fillColor&quot;:[&quot;Color&quot;,0,0,0],&quot;strokeWidth&quot;:1}}" id="c4f73f9e-d684-4e89-bcd6-5f1d2c9d728c" fill="#000000"/><path d="M329.64643,227.80778c-1.412,1.413 -2.568,3.114 -2.568,3.779c0,0.666 2.041,7.456 4.537,15.09c5.632,17.231 18.998,44.715 23.029,47.357c3.595,2.355 9.187,1.298 10.994,-2.079c2.487,-4.646 1.416,-25.39 -2.062,-39.933c-3.532,-14.771 -6.648,-20.361 -11.35,-20.361c-3.423,0 -7.127,3.651 -7.269,7.164c-0.054,1.357 -1.088,-0.341 -2.297,-3.773c-3.317,-9.414 -8.152,-12.106 -13.014,-7.244zM348.17343,248.35578c0.597,2.231 0.496,2.623 -0.331,1.284c-0.655,-1.06 -1.577,-3.371 -2.049,-5.137c-0.597,-2.231 -0.496,-2.623 0.331,-1.284c0.655,1.059 1.577,3.371 2.049,5.137z" data-paper-data="{&quot;wickUUID&quot;:&quot;ae397004-e205-45b8-a824-739dbbfee6f8&quot;,&quot;wickType&quot;:&quot;path&quot;,&quot;originalStyle&quot;:{&quot;strokeColor&quot;:null,&quot;fillColor&quot;:[&quot;Color&quot;,0,0,0],&quot;strokeWidth&quot;:1}}" id="ae397004-e205-45b8-a824-739dbbfee6f8" fill="#000000"/><path d="M378.44604,193.13438c-2.049,2.049 -2.568,4.281 -2.568,11.035c0,6.521 -0.59,9.215 -2.568,11.731c-1.807,2.297 -2.57,5.212 -2.571,9.834c-0.006,13.938 18.871,48.378 27.037,49.329c2.04,0.238 4.174,-0.609 5.652,-2.241c2.297,-2.539 2.299,-2.936 0.077,-12.373c-1.263,-5.363 -4.817,-17.068 -7.897,-26.012c-5.026,-14.591 -5.601,-17.473 -5.603,-28.067c-0.001,-10.743 -0.258,-11.986 -2.855,-13.805c-3.772,-2.642 -5.613,-2.522 -8.704,0.569z" data-paper-data="{&quot;wickUUID&quot;:&quot;aa72bdc1-229f-4e70-906c-129780284bea&quot;,&quot;wickType&quot;:&quot;path&quot;,&quot;originalStyle&quot;:{&quot;strokeColor&quot;:null,&quot;fillColor&quot;:[&quot;Color&quot;,0,0,0],&quot;strokeWidth&quot;:1}}" id="aa72bdc1-229f-4e70-906c-129780284bea" fill="#000000"/><path d="M441.06843,239.91038c-1.926,0.955 -3.04,2.812 -3.303,5.506c-0.485,4.972 2.752,7.406 11.485,8.635c7.724,1.087 9.592,3.365 11.432,13.937l1.518,8.718l-7.22,9.426c-6.736,8.794 -7.867,9.675 -16.836,13.114c-6.353,2.436 -13.211,6.514 -20.21,12.015c-11.631,9.144 -33.492,21.851 -37.591,21.851c-3.395,0 -24.377,-5.401 -36.428,-9.377c-10.488,-3.461 -13.842,-3.239 -15.794,1.046c-1.818,3.99 0.522,7.877 6.159,10.233c2.591,1.082 4.178,2.484 3.695,3.265c-0.464,0.752 0.056,2.741 1.156,4.421c2.258,3.445 5.016,4.131 34.178,8.493c11.458,1.714 24.637,4.721 34.26,7.818c20.715,6.668 33.525,7.711 46.457,3.783c22.154,-6.729 32.215,-16.652 55.469,-54.707c10.558,-17.277 14.066,-25.389 14.066,-32.528c0,-5.082 -3.878,-11.696 -8.931,-15.236c-3.087,-2.162 -30.23,-13.535 -42.437,-17.782c-9.626,-3.348 -26.756,-4.796 -31.125,-2.631zM490.07643,264.61438c18.78,7.563 20.315,8.873 18.294,15.617c-1.813,6.055 -16.756,30.988 -27.752,46.307c-17.46,24.325 -36.653,29.998 -67.492,19.947c-7.773,-2.533 -14.133,-5 -14.133,-5.482c0,-0.483 3.327,-2.706 7.393,-4.941c4.065,-2.235 12.097,-7.741 17.848,-12.235c6.982,-5.456 13.763,-9.432 20.405,-11.964c5.471,-2.086 11.369,-5.237 13.107,-7.003c6.279,-6.38 17.039,-20.838 17.818,-23.941c0.796,-3.171 -0.322,-16.974 -1.656,-20.451c-1.021,-2.659 -0.222,-2.455 16.168,4.146z" data-paper-data="{&quot;wickUUID&quot;:&quot;51e84eb9-dc42-4e51-9310-6fd9a2db698d&quot;,&quot;wickType&quot;:&quot;path&quot;,&quot;originalStyle&quot;:{&quot;strokeColor&quot;:null,&quot;fillColor&quot;:[&quot;Color&quot;,0,0,0],&quot;strokeWidth&quot;:1}}" id="51e84eb9-dc42-4e51-9310-6fd9a2db698d" fill="#000000"/><path d="M393.05502,89.84837c-1.11,1.11 -2.018,3.38 -2.018,5.045c0,5.9 2.296,6.619 23.594,7.397l19.952,0.728l13.864,7.204c17.809,9.255 29.249,17.959 35.695,27.156c2.825,4.031 9.077,12.59 13.893,19.021c12.336,16.469 15.014,21.756 23.157,45.725c10.138,29.839 11.945,41.85 10.07,66.94c-1.39,18.599 -2.892,22.275 -17.516,42.859c-13.343,18.78 -15.361,20.475 -46.941,39.432c-6.004,3.604 -14.672,8.631 -19.263,11.171l-8.347,4.618l-26.969,-0.098c-27.623,-0.099 -72.751,-2.32 -79.591,-3.916c-2.368,-0.553 -8.719,-5.616 -16.694,-13.311c-13.435,-12.962 -18.111,-16.707 -20.863,-16.707c-2.255,0 -6.777,4.71 -6.777,7.059c0,2.308 25.392,27.819 32.122,32.273c2.612,1.729 7.867,3.722 11.677,4.429c10.349,1.922 54.998,4.248 82.695,4.308c27.253,0.059 30.498,-0.668 46.308,-10.376c4.196,-2.576 13.708,-8.236 21.14,-12.578c24.451,-14.285 31.065,-20.635 48.657,-46.721c11.848,-17.569 13.034,-21.251 14.579,-45.265c1.445,-22.456 1.516,-21.628 -3.858,-45.42c-2.488,-11.015 -13.302,-42.184 -17.532,-50.531c-2.735,-5.398 -8.394,-13.468 -30.638,-43.695c-6.487,-8.816 -21.524,-19.903 -39.048,-28.792c-12.747,-6.467 -15.041,-7.187 -27.133,-8.518c-19.238,-2.119 -31.739,-1.913 -34.215,0.563z" data-paper-data="{&quot;wickUUID&quot;:&quot;c732bbd7-3211-4189-b9c7-d633046d2072&quot;,&quot;wickType&quot;:&quot;path&quot;,&quot;originalStyle&quot;:{&quot;strokeColor&quot;:null,&quot;fillColor&quot;:[&quot;Color&quot;,0,0,0],&quot;strokeWidth&quot;:1}}" fill="#000000"/><path d="M405.05602,85.76997c-0.294,0.279 -6.892,1.17 -14.661,1.979c-20.832,2.169 -35.799,6.653 -57.789,17.31c-21.19,10.27 -43.005,25.486 -49.707,34.671c-2.106,2.886 -6.075,9.87 -8.82,15.521c-4.363,8.98 -5.675,14.075 -10.422,40.452c-5.141,28.571 -5.433,31.513 -5.483,55.221c-0.058,27.875 0.59,31.572 9.89,56.505c9.636,25.834 16.871,37.572 25.315,41.07c3.302,1.367 4.387,1.292 7.114,-0.495c4.731,-3.099 4.016,-7.017 -2.41,-13.222c-6.304,-6.087 -8.886,-11.075 -17.11,-33.059c-7.846,-20.975 -9.401,-29.107 -9.391,-49.108c0.01,-18.896 0.696,-24.711 7.07,-59.93c6.31,-34.868 10.65,-42.837 32.123,-58.983c12.563,-9.447 41.921,-24.041 56.221,-27.948c9.986,-2.728 18.404,-3.942 40.736,-5.878c5.297,-0.459 10.642,-1.355 11.878,-1.99c3.216,-1.655 3.051,-9.535 -0.236,-11.295c-2.369,-1.267 -13.193,-1.888 -14.318,-0.821z" data-paper-data="{&quot;wickUUID&quot;:&quot;285a7b25-8847-4938-85f9-0160681d2854&quot;,&quot;wickType&quot;:&quot;path&quot;,&quot;originalStyle&quot;:{&quot;strokeColor&quot;:null,&quot;fillColor&quot;:[&quot;Color&quot;,0,0,0],&quot;strokeWidth&quot;:1}}" fill="#000000"/><path d="M445.96283,-1.00263c-1.222,0.484 -4.824,5.939 -8.005,12.121c-3.181,6.182 -9.74,17.158 -14.576,24.392c-4.836,7.233 -11.307,17.486 -14.381,22.783c-3.073,5.298 -8.374,13.873 -11.78,19.056c-7.097,10.802 -8.283,14.265 -6.209,18.139c1.174,2.194 2.447,2.68 6.198,2.367c4.143,-0.345 5.09,-1.102 7.728,-6.172c1.653,-3.179 4.294,-7.513 5.867,-9.632c1.573,-2.119 5.662,-8.765 9.087,-14.768c3.424,-6.004 10.074,-16.695 14.778,-23.758c4.703,-7.063 10.458,-16.209 12.788,-20.324c2.33,-4.115 4.963,-7.761 5.85,-8.101c3.982,-1.528 56.514,23.679 89.65,43.017c16.205,9.458 18.898,11.471 18.278,13.661c-2.446,8.63 -8.957,40.44 -12.337,60.265c-3.877,22.744 -11.597,57.069 -16.699,74.243c-2.802,9.432 -2.142,12.932 2.729,14.478c4.816,1.529 8.282,-2.303 11.238,-12.425c5.08,-17.392 11.66,-46.483 15.639,-69.141c4.488,-25.548 10.867,-56.486 13.702,-66.45c1.054,-3.704 1.557,-7.867 1.118,-9.25c-0.44,-1.384 -3.803,-4.177 -7.474,-6.207c-3.671,-2.029 -13.308,-7.604 -21.417,-12.389c-18.415,-10.866 -57.956,-30.668 -75.793,-37.957c-7.416,-3.031 -15.305,-6.298 -17.531,-7.26c-4.447,-1.922 -5.184,-1.982 -8.448,-0.688z" data-paper-data="{&quot;wickUUID&quot;:&quot;63c2a9d0-6037-43b4-8008-a86cac67f37b&quot;,&quot;wickType&quot;:&quot;path&quot;,&quot;originalStyle&quot;:{&quot;strokeColor&quot;:null,&quot;fillColor&quot;:[&quot;Color&quot;,0,0,0],&quot;strokeWidth&quot;:1}}" fill="#000000"/><path d="M322.97462,369.06997c-1.413,1.413 -2.571,3.291 -2.573,4.174c-0.003,0.883 -1.128,10.273 -2.5,20.868c-3.88,29.961 -6.298,74.993 -5.862,109.157c0.216,16.952 0.807,32.988 1.312,35.637l0.919,4.815h41.281c22.705,0 43.171,-0.541 45.48,-1.204c6.901,-1.979 40.418,-2.304 41.053,-0.398c0.385,1.155 4.597,1.602 15.081,1.602h14.547l12.391,-5.99c8.924,-4.314 12.908,-6.991 14.241,-9.568c2.399,-4.64 2.344,-8.164 -0.169,-10.676c-3.111,-3.111 -7.77,-2.405 -12.108,1.835c-2.167,2.119 -4.89,3.852 -6.051,3.852c-1.16,0 -6.92,1.772 -12.799,3.937l-10.69,3.938l-8.786,-2.136c-16.023,-3.894 -66.055,-0.5 -86.241,5.85c-2.472,0.778 -8.618,1.367 -13.657,1.309c-5.039,-0.058 -10.561,0.427 -12.271,1.077c-2.336,0.888 -3.854,0.62 -6.109,-1.081c-2.977,-2.246 -3.002,-2.496 -3.372,-32.941c-0.418,-34.406 1.877,-76.029 6.04,-109.556l2.779,-22.373l-2.9,-2.348c-3.723,-3.015 -5.853,-2.963 -9.036,0.22z" data-paper-data="{&quot;wickUUID&quot;:&quot;f2966b24-5e34-44c4-86a1-104e21accb51&quot;,&quot;wickType&quot;:&quot;path&quot;,&quot;originalStyle&quot;:{&quot;strokeColor&quot;:null,&quot;fillColor&quot;:[&quot;Color&quot;,0,0,0],&quot;strokeWidth&quot;:1}}" fill="#000000"/><path d="M513.34282,326.26239c-3.932,1.584 -4.233,5.385 -1.683,21.264c4.251,26.48 6.675,55.158 7.847,92.817c1.041,33.45 0.946,36.657 -1.366,45.982c-4.85,19.568 -6.721,21.405 -38.34,37.63l-19.752,10.135l-14.28,-0.18c-7.854,-0.099 -21.214,-0.808 -29.69,-1.575c-29.563,-2.677 -45.661,-2.768 -51.368,-0.29c-4.317,1.874 -6.981,2.065 -16.694,1.197c-6.357,-0.567 -12.544,-0.723 -13.749,-0.345c-1.205,0.378 -4.529,-0.013 -7.388,-0.87c-7.56,-2.265 -11.611,-0.188 -11.611,5.953c0,4.077 0.537,4.819 4.816,6.66c3.304,1.422 9.577,2.189 19.983,2.441c8.342,0.203 16.272,0.72 17.623,1.148c1.351,0.429 5.033,-0.36 8.184,-1.754c5.046,-2.232 7.841,-2.467 23.471,-1.976c9.759,0.307 22.367,1.157 28.017,1.89c13.914,1.803 39.866,1.787 46.608,-0.028c3.022,-0.814 15.076,-6.476 26.785,-12.583c31.626,-16.494 36.789,-22.38 42.139,-48.036c3.657,-17.539 -0.219,-93.687 -7.082,-139.146c-2.038,-13.504 -3.037,-17.124 -5.222,-18.942c-2.734,-2.274 -4.309,-2.576 -7.248,-1.392z" data-paper-data="{&quot;wickUUID&quot;:&quot;8e05f7d3-07c8-4005-9421-c06f1c524279&quot;,&quot;wickType&quot;:&quot;path&quot;,&quot;originalStyle&quot;:{&quot;strokeColor&quot;:null,&quot;fillColor&quot;:[&quot;Color&quot;,0,0,0],&quot;strokeWidth&quot;:1}}" fill="#000000"/></g><g fill="none" fill-rule="nonzero" stroke="none" stroke-width="1" stroke-linecap="butt" stroke-linejoin="miter" stroke-miterlimit="10" stroke-dasharray="" stroke-dashoffset="0" font-family="sans-serif" font-weight="normal" font-size="12" text-anchor="start" style="mix-blend-mode: normal"/><g id="wick_project_gui" fill="none" fill-rule="nonzero" stroke="none" stroke-width="1" stroke-linecap="butt" stroke-linejoin="miter" stroke-miterlimit="10" stroke-dasharray="" stroke-dashoffset="0" font-family="sans-serif" font-weight="normal" font-size="12" text-anchor="start" style="mix-blend-mode: normal"/></g></svg>