<svg version="1.1" xmlns="http://www.w3.org/2000/svg" xmlns:xlink="http://www.w3.org/1999/xlink" width="1107" height="504" viewBox="0,0,1107,504"><g transform="translate(455.06213,71.06519) scale(0.33539,0.33539)"><g id="wick_project_bg" fill-opacity="0" fill="#ffffff" fill-rule="nonzero" stroke="none" stroke-width="1" stroke-linecap="butt" stroke-linejoin="miter" stroke-miterlimit="10" stroke-dasharray="" stroke-dashoffset="0" font-family="none" font-weight="none" font-size="none" text-anchor="none" style="mix-blend-mode: normal"><rect x="0" y="0" width="720" height="480"/></g><g data-paper-data="{&quot;wickUUID&quot;:&quot;a7ef0fc3-a14d-4854-854d-dc693f380acc&quot;,&quot;wickType&quot;:&quot;clipsandpaths&quot;}" fill="none" fill-rule="evenodd" stroke="none" stroke-width="1" stroke-linecap="butt" stroke-linejoin="miter" stroke-miterlimit="10" stroke-dasharray="" stroke-dashoffset="0" font-family="none" font-weight="none" font-size="none" text-anchor="none" style="mix-blend-mode: normal"><path d="M537.91487,309.39813c-1.63,1.73267 -11.85161,11.37307 -18.01194,16.98507c-15.145,13.79633 -24.61535,20.69193 -40.84302,29.7286c-14.29967,7.96333 -33.02101,16.82134 -37.96734,17.96834c-1.72867,0.401 -2.06996,0.39962 -4.27563,0.10929c-7.554,-0.995 -22.11969,-6.15783 -44.97836,-15.94216c-4.98233,-2.13233 -7.97409,-2.33502 -7.86209,-1.94369c0.086,0.3 1.57622,5.72837 3.35322,11.4117c8.94533,28.613 19.03191,68.09597 21.66724,84.81564c0.27467,1.74167 0.63283,5.8427 0.81716,9.2337c0.403,7.40333 1.28671,14.27947 2.95804,23.0218l1.46771,6.9651l5.6222,0.14105c15.29033,-0.32933 19.61488,-1.37725 46.37021,-11.23025c8.34167,-3.072 19.91121,-7.23522 25.62388,-9.22255c15.27167,-5.31367 15.74999,-5.51263 16.28366,-6.7733c0.80967,-1.91233 1.66562,-2.38742 4.35129,-2.41542c2.33967,-0.02467 2.60717,-0.14268 5.33484,-1.92468c3.99,-2.60733 8.41926,-6.23383 9.71559,-7.95683c0.61033,-0.811 1.85797,-3.02951 2.47664,-4.34718c3.00133,-6.39133 3.88904,-13.81676 6.32704,-52.93543c0.46267,-7.425 1.22492,-18.71678 1.68992,-25.04178c2.39233,-32.55167 3.08526,-47.35196 2.61093,-55.78696l-0.3337,-5.55665z" data-paper-data="{&quot;wickUUID&quot;:&quot;cef68221-9ff3-442e-a632-edf14c2afc66&quot;,&quot;wickType&quot;:&quot;path&quot;}" fill="#130223"/><path d="M443.56219,79.22674c-13.91567,1.89833 -64.40827,23.23815 -90.91327,38.42515c-4.91267,2.81467 -9.44371,5.99629 -11.95138,8.33562c-10.82467,10.09767 -37.24468,49.36382 -45.28468,67.27982c-8.80033,19.61033 -13.35769,50.98088 -10.73536,74.04921c1.21367,10.67633 4.16418,19.17953 9.01485,26.4652c7.77467,11.679 22.31256,20.15102 74.35423,43.28469c36.28167,16.128 58.9219,25.0735 67.67323,26.73317c1.40867,0.26733 2.84087,0.19697 4.30087,-0.21636c8.14533,-2.30533 34.97853,-16.11874 50.36053,-25.92507c5.86467,-3.73833 6.40447,-4.13515 12.5088,-9.32582c9.34067,-7.94267 13.51041,-11.81736 23.90108,-22.20803c10.779,-10.779 15.98005,-16.3963 21.33538,-23.03863c3.779,-4.687 4.97112,-6.59717 7.68645,-12.25617c4.30867,-8.98033 7.01914,-17.86099 8.19847,-26.75766c1.48867,-11.22833 0.7271,-25.33173 -2.2209,-41.0524c-2.47933,-13.222 -8.30085,-33.96612 -13.31852,-47.44179c-2.28867,-6.146 -3.4268,-8.56802 -5.32647,-11.50469c-5.256,-8.12533 -12.06693,-14.72077 -18.29226,-17.7111c-2.37333,-1.14033 -2.79847,-1.27647 -6.30947,-1.32547c-5.79367,-0.08067 -6.47667,-0.53731 -18.37234,-12.21564c-12.26733,-12.043 -18.53428,-16.95308 -29.68728,-23.26508c-5.16133,-2.921 -8.52019,-4.58575 -13.67486,-6.75642c-7.92767,-3.33833 -10.58477,-3.93553 -13.2471,-3.57253z" data-paper-data="{&quot;wickUUID&quot;:&quot;32a8ce78-62cc-429d-9782-1e66b940fc10&quot;,&quot;wickType&quot;:&quot;path&quot;}" fill="#230012"/><path d="M422.34315,271.78798c-3.336,1.897 -6.789,9.049 -7.249,15.016c-0.339,4.404 -0.116,5.541 1.577,8.023c2.888,4.234 8.035,7.822 13.063,9.109c4.253,1.087 4.586,1.045 8.909,-1.142c9.737,-4.927 14.236,-12.61 11.659,-19.914c-1.478,-4.19 -3.757,-6.725 -8.606,-9.577c-2.97,-1.747 -4.999,-2.222 -10.452,-2.448c-4.811,-0.2 -7.384,0.07 -8.901,0.933z" data-paper-data="{&quot;wickUUID&quot;:&quot;caf47a65-1f9e-4c89-bf02-547c6c4f47b2&quot;,&quot;wickType&quot;:&quot;path&quot;}" fill="#ff00ff"/><path d="M302.35602,213.29599c-1.128,1.129 -2.052,2.718 -2.052,3.531c0,2.565 6.049,19.807 7.868,22.428c5.342,7.697 19.805,19.282 31.181,24.977c7.29,3.65 8.639,5.023 12.845,13.07c1.803,3.449 4.938,8.38 6.966,10.958c3.936,5.002 5.635,5.766 12.826,5.766c2.06,0 9.257,1.501 15.992,3.336c13.757,3.748 24.944,5.667 37.457,6.426c8.338,0.505 8.526,0.476 10.662,-1.659c2.627,-2.627 2.707,-3.855 0.44,-6.736c-1.587,-2.019 -2.241,-2.204 -7.798,-2.204c-5.452,0 -20.761,-1.764 -26.347,-3.036c-1.192,-0.272 -6.716,-1.752 -12.275,-3.29c-5.559,-1.539 -12.631,-3.056 -15.716,-3.372c-5.058,-0.518 -5.841,-0.857 -7.979,-3.45c-1.303,-1.581 -3.811,-5.676 -5.572,-9.099c-4.463,-8.677 -6.869,-11.284 -13.442,-14.571c-9.843,-4.921 -16.339,-9.498 -23.805,-16.772c-7.49,-7.298 -8.576,-9.264 -11.733,-21.248c-0.921,-3.493 -4.083,-7.108 -6.219,-7.108c-0.686,0 -2.17,0.924 -3.299,2.053z" data-paper-data="{&quot;wickUUID&quot;:&quot;26577601-c092-43ab-bbac-5730ea5a4467&quot;,&quot;wickType&quot;:&quot;path&quot;}" fill="#ff00ff"/><path d="M503.07902,131.44344c-3.984,2.065 -7.812,6.226 -9.826,10.68c-1.688,3.736 -2.883,4.794 -12.93,11.451c-10.374,6.873 -26.463,15.71 -31.178,17.124c-1.15,0.345 -6.23,2.85 -11.289,5.566c-6.665,3.58 -10.486,6.281 -13.879,9.812c-5.07,5.278 -5.759,7.117 -5.79,15.446c-0.026,7.322 -2.828,25.565 -4.389,28.584c-0.728,1.407 -2.891,7.616 -4.807,13.798c-3.374,10.883 -3.472,11.521 -3.091,20.168c0.301,6.843 0.812,9.797 2.188,12.639c2.139,4.417 10.851,13.969 12.741,13.969c2.175,0 5.739,-3.32 5.739,-5.346c0,-1.035 -2.068,-4.476 -4.595,-7.647c-4.882,-6.126 -5.859,-8.871 -5.796,-16.273c0.041,-4.864 3.953,-19.148 7.358,-26.866c2.123,-4.815 4.503,-18.863 5.292,-31.249c0.479,-7.519 0.483,-7.528 3.985,-10.87c3.315,-3.163 7.737,-5.573 30.548,-16.643c10.36,-5.028 24.777,-13.77 32.273,-19.571c3.232,-2.5 5.179,-4.802 6.364,-7.526c0.94,-2.157 3.543,-5.639 5.785,-7.736c4.606,-4.309 4.958,-5.834 2.024,-8.768c-2.397,-2.397 -3.334,-2.5 -6.727,-0.742z" data-paper-data="{&quot;wickUUID&quot;:&quot;a8400c1e-40ad-4092-9539-6056f0449ac8&quot;,&quot;wickType&quot;:&quot;path&quot;}" fill="#ff00ff"/><path d="M466.91505,131.59725c-2.287,2.031 -3.917,11.645 -2.726,16.069c0.985,3.659 5.499,9.73 10.744,14.451c4.014,3.614 4.945,3.778 7.965,1.403c3.289,-2.588 2.822,-5.091 -1.929,-10.338c-6.608,-7.297 -7.142,-8.37 -6.023,-12.107c2.272,-7.581 -3.07,-13.885 -8.031,-9.478z" data-paper-data="{&quot;wickUUID&quot;:&quot;98536104-3797-4bb8-8198-075249bea428&quot;,&quot;wickType&quot;:&quot;path&quot;}" fill="#ff00ff"/><path d="M423.37941,91.30869c-4.247,2.241 -5.532,5.273 -3.721,8.776c2.561,4.952 1.76,8.308 -4.184,17.543c-3.029,4.707 -7.485,11.346 -9.902,14.754c-15.287,21.553 -18.219,26.364 -18.219,29.901c0,2.572 0.659,4.246 2.498,6.339c1.373,1.565 5.741,10.204 9.706,19.199c5.91,13.408 7.12,16.903 6.715,19.397c-0.404,2.494 0,3.664 2.241,6.483c1.504,1.892 2.735,3.983 2.735,4.646c0,1.918 3.346,4.746 5.615,4.746c2.753,0 5.005,-2.622 5.005,-5.828c0,-1.425 -1.139,-5.973 -2.531,-10.108c-2.759,-8.196 -16.01,-38.522 -18.841,-43.118l-1.759,-2.858l11.786,-16.818c6.483,-9.25 13.778,-20.09 16.212,-24.09c4.134,-6.794 4.463,-7.77 4.997,-14.839c0.314,-4.162 0.851,-8.623 1.193,-9.914c0.466,-1.763 0.158,-2.81 -1.236,-4.204c-2.285,-2.285 -3.991,-2.286 -8.31,-0.007z" data-paper-data="{&quot;wickUUID&quot;:&quot;27df50a0-865b-4a38-a258-dcc18c29c0d9&quot;,&quot;wickType&quot;:&quot;path&quot;}" fill="#ff00ff"/><path d="M547.75804,223.61024c-4.165,3.715 -5.532,5.518 -5.536,7.297c-0.003,1.3 -0.42,3.856 -0.927,5.682c-0.841,3.029 -1.192,3.318 -4.028,3.318c-5.251,0 -10.832,1.759 -25.996,8.195c-8.022,3.403 -15.987,6.376 -17.7,6.605c-1.865,0.249 -5.327,-0.329 -8.619,-1.439c-6.617,-2.231 -11.738,-2.363 -15.56,-0.402c-4.274,2.193 -27.3,19.097 -27.805,20.412c-0.829,2.162 0.684,5.629 2.896,6.637c2.947,1.343 5.359,0.127 17.652,-8.895c13.744,-10.087 12.26,-9.609 21.099,-6.795c9.499,3.025 11.566,2.659 30.647,-5.427c14.98,-6.348 21.193,-8.271 26.723,-8.271c5.094,0 9.761,-4.732 11.346,-11.504c0.848,-3.622 2.128,-5.935 5,-9.034c4.376,-4.721 4.601,-5.718 2.027,-8.989c-2.709,-3.445 -5.039,-2.903 -11.219,2.61z" data-paper-data="{&quot;wickUUID&quot;:&quot;c4da8f47-7ecc-4af8-bcdb-70e86f7277b6&quot;,&quot;wickType&quot;:&quot;path&quot;}" fill="#ff00ff"/><path d="M537.23901,196.70218c-2.177,1.044 -3.515,3.635 -4.77,9.236c-0.488,2.175 -1.943,5.551 -3.234,7.502c-3.318,5.013 -3.012,7.544 1.765,14.622c5.578,8.264 6.755,9.666 10.293,12.263c3.677,2.699 5.666,2.815 8.014,0.468c2.797,-2.798 2.193,-5.412 -2.257,-9.772c-2.214,-2.17 -5.024,-5.729 -6.245,-7.908l-2.218,-3.962l1.775,-3.158c1.743,-3.102 3.39,-8.451 4.217,-13.698c0.704,-4.466 -3.311,-7.526 -7.34,-5.593z" data-paper-data="{&quot;wickUUID&quot;:&quot;659af706-8f10-4129-aefa-3219e3dd5cd0&quot;,&quot;wickType&quot;:&quot;path&quot;}" fill="#ff00ff"/><path d="M440.09589,282.53418c-2.001,2.857 -1.785,4.298 1.357,9.042c4.633,6.995 23.207,19.76 30.86,21.209c2.186,0.414 3.547,1.377 4.626,3.273c3.154,5.545 13.529,7.251 21.481,3.533c2.434,-1.138 6.81,-2.906 9.725,-3.928c7.474,-2.621 9.43,-7.517 4.337,-10.854c-1.874,-1.228 -2.568,-1.215 -7.183,0.137c-5.317,1.557 -7.15,2.309 -10.862,4.455c-3.998,2.313 -7.048,1.661 -10.365,-2.214c-2.063,-2.41 -4.183,-3.82 -6.722,-4.473c-8.486,-2.182 -22.7,-11.475 -27.635,-18.067c-3.316,-4.43 -7.372,-5.321 -9.619,-2.113z" data-paper-data="{&quot;wickUUID&quot;:&quot;fd7c94c0-9ede-49b5-a0af-c366d8bc17f2&quot;,&quot;wickType&quot;:&quot;path&quot;}" fill="#ff00ff"/><path d="M437.1566,292.7012c-0.597,0.241 -2.942,3.097 -5.212,6.346c-2.27,3.249 -4.829,6.4 -5.686,7.002c-0.857,0.601 -2.693,2.894 -4.08,5.095c-2.92,4.631 -4.084,5.19 -8.29,3.984c-1.689,-0.485 -4.866,-0.873 -7.06,-0.862c-5.938,0.028 -19.197,3.202 -22.143,5.3c-1.419,1.01 -4.585,2.074 -7.035,2.364c-7.196,0.853 -9.574,4.233 -6.092,8.659c1.823,2.319 2.247,2.436 7.333,2.027c3.377,-0.271 7.139,-1.314 10.043,-2.786c6.786,-3.439 17.042,-5.387 21.908,-4.161c2.115,0.532 5.135,0.968 6.713,0.968c4.205,0 10.325,-3.276 11.934,-6.387c0.758,-1.466 2.888,-4.313 4.732,-6.326c5.279,-5.76 10.656,-13.934 10.656,-16.196c0,-3.777 -4.145,-6.475 -7.721,-5.027z" data-paper-data="{&quot;wickUUID&quot;:&quot;f9b4d725-6965-4b8f-a96c-6d3f9e7a0bf3&quot;,&quot;wickType&quot;:&quot;path&quot;}" fill="#ff00ff"/><path d="M418.5246,321.81992c-4.418,3.095 -1.474,8.623 6.806,12.776c2.148,1.077 6.179,3.511 8.957,5.407c7.314,4.993 12.36,4.218 12.36,-1.896c0,-2.07 -0.903,-3.231 -4.683,-6.024c-2.575,-1.902 -6.856,-4.557 -9.513,-5.9c-2.657,-1.342 -5.781,-3.183 -6.942,-4.091c-2.572,-2.011 -4.4,-2.082 -6.985,-0.272z" data-paper-data="{&quot;wickUUID&quot;:&quot;8b90255a-3038-4939-8609-585e597e8ff0&quot;,&quot;wickType&quot;:&quot;path&quot;}" fill="#ff00ff"/><path d="M451.9689,286.39727c-6.094,1.899 -8.157,6.34 -4.488,9.66c1.383,1.252 2.579,1.437 6.13,0.948c3.72,-0.511 4.818,-0.307 6.99,1.299c2.854,2.11 7.834,3.499 12.66,3.532c3.755,0.025 11.252,-2.331 13.433,-4.221c2.089,-1.811 1.957,-5.734 -0.262,-7.743c-1.667,-1.508 -2.214,-1.543 -6.859,-0.445c-6.399,1.512 -10.57,1.408 -12.47,-0.312c-1.916,-1.733 -7.545,-4.09 -9.586,-4.014c-0.867,0.033 -3.364,0.616 -5.548,1.296z" data-paper-data="{&quot;wickUUID&quot;:&quot;6bd14eef-7410-4fc8-8183-9eac2a82e38d&quot;,&quot;wickType&quot;:&quot;path&quot;}" fill="#ff00ff"/><path d="M352.83902,280.00435c-3.386,1.283 -6.349,3.365 -9.735,6.839c-4.671,4.793 -5.022,4.979 -8.673,4.597c-4.533,-0.474 -7.257,1.443 -7.257,5.107c0,3.418 2.453,5.167 8.196,5.842c6.644,0.78 9.238,-0.4 14.709,-6.69c2.806,-3.226 5.365,-5.293 6.944,-5.609c6.456,-1.291 9.664,-7.732 5.354,-10.75c-2.443,-1.711 -3.456,-1.641 -9.538,0.664z" data-paper-data="{&quot;wickUUID&quot;:&quot;4abcac26-108e-47a2-866c-cb0c02d1c41d&quot;,&quot;wickType&quot;:&quot;path&quot;}" fill="#ff00ff"/><path d="M339.25023,208.48806c-0.729,0.729 -2.798,3.75 -4.598,6.712c-2.761,4.546 -3.566,5.297 -5.154,4.813c-1.035,-0.316 -4.47,-0.786 -7.634,-1.045c-5.138,-0.42 -6.272,-0.197 -10.614,2.091c-5.799,3.057 -7.321,5.945 -5,9.488c1.856,2.832 4.506,2.925 9.819,0.343c3.893,-1.891 4.101,-1.901 8.73,-0.442c5.841,1.841 9.373,1.896 11.816,0.185c2.032,-1.424 10.643,-14.364 10.94,-16.441c0.369,-2.576 -0.059,-4.28 -1.417,-5.638c-1.759,-1.759 -5.163,-1.791 -6.888,-0.066z" data-paper-data="{&quot;wickUUID&quot;:&quot;eeaf8c23-24e9-498b-aec8-c5de3ed65412&quot;,&quot;wickType&quot;:&quot;path&quot;}" fill="#ff00ff"/><path d="M366.6929,143.29172c-1.905,2.105 -1.847,3.897 0.257,8.021c0.954,1.869 1.501,4.216 1.228,5.261c-0.772,2.951 0.287,5.612 3.696,9.296l3.146,3.398l9.344,-0.301c8.566,-0.276 9.485,-0.475 11.034,-2.39c2.162,-2.672 2.144,-4.979 -0.054,-7.177c-1.551,-1.552 -2.53,-1.684 -8.85,-1.197l-7.105,0.548v-3.257c0,-9.495 -8.1,-17.28 -12.696,-12.202z" data-paper-data="{&quot;wickUUID&quot;:&quot;ee00bc1c-be2a-4cc3-844b-2a5439b7c4df&quot;,&quot;wickType&quot;:&quot;path&quot;}" fill="#ff00ff"/><path d="M392.98563,204.89972c-1.526,0.664 -4.061,3.077 -5.632,5.361c-2.619,3.806 -3.09,4.108 -5.633,3.609c-1.526,-0.299 -4.626,-0.783 -6.89,-1.074c-3.768,-0.486 -4.246,-0.33 -5.678,1.854c-3.636,5.55 2.575,9.986 14.199,10.142l5.29,0.071l5.037,-5.375c6.841,-7.303 8.662,-7.129 12.913,1.232c3.435,6.755 5.939,8.593 9.5,6.97c3.65,-1.663 3.749,-4.885 0.367,-11.931c-1.649,-3.435 -4.24,-7.57 -5.757,-9.19c-2.618,-2.794 -3.073,-2.944 -8.85,-2.911c-3.35,0.019 -7.34,0.578 -8.866,1.242z" data-paper-data="{&quot;wickUUID&quot;:&quot;0803cba7-813e-4aaf-ae45-26095d8e13d0&quot;,&quot;wickType&quot;:&quot;path&quot;}" fill="#ff00ff"/><path d="M477.81961,151.01663c-2.918,2.044 -2.442,4.606 2.474,13.319c2.442,4.328 4.769,8.468 5.172,9.198c0.977,1.772 6.365,5.685 15.193,11.033c3.991,2.418 7.471,5.007 7.732,5.753c1.613,4.602 6.978,6.014 9.449,2.487c3.475,-4.962 0.286,-10.412 -9.846,-16.83c-4.292,-2.718 -8.902,-5.441 -10.245,-6.051c-1.676,-0.761 -3.735,-3.481 -6.567,-8.675c-6.163,-11.308 -8.87,-13.381 -13.362,-10.234z" data-paper-data="{&quot;wickUUID&quot;:&quot;12a3ad09-ab3e-4a9c-b221-ba7017b18428&quot;,&quot;wickType&quot;:&quot;path&quot;}" fill="#ff00ff"/><path d="M427.73207,107.99406c-6.255,0.867 -8.388,4.396 -5.312,8.788c1.419,2.025 1.587,2.044 13.054,1.444c11.267,-0.589 11.763,-0.538 16.484,1.677c6.425,3.015 10.974,3.048 12.909,0.095c1.826,-2.786 1.021,-6.43 -1.65,-7.469c-1.082,-0.421 -4.406,-1.801 -7.388,-3.068c-4.762,-2.023 -6.535,-2.288 -14.602,-2.184c-5.05,0.065 -11.123,0.388 -13.495,0.717z" data-paper-data="{&quot;wickUUID&quot;:&quot;33d2287f-b854-41ec-afe9-2223f3e31c44&quot;,&quot;wickType&quot;:&quot;path&quot;}" fill="#ff00ff"/><path d="M473.00271,211.36701c-0.745,0.852 -1.867,3.598 -2.494,6.104c-0.994,3.976 -0.952,4.949 0.332,7.656c1.942,4.092 1.861,8.187 -0.228,11.579c-3.986,6.468 -9.37,23.412 -8.519,26.804c0.638,2.542 3.558,4.141 6.303,3.452c2.403,-0.603 4.022,-3.406 5.658,-9.797c0.623,-2.434 2.825,-8.009 4.894,-12.39c4.852,-10.271 5.261,-12.379 3.634,-18.71c-0.759,-2.953 -1.116,-6.759 -0.831,-8.843c0.406,-2.965 0.146,-4.013 -1.371,-5.531c-2.276,-2.276 -5.546,-2.419 -7.378,-0.324z" data-paper-data="{&quot;wickUUID&quot;:&quot;4971e0e1-659e-4375-b6fe-2c145963787f&quot;,&quot;wickType&quot;:&quot;path&quot;}" fill="#ff00ff"/><path d="M503.86655,253.03103c-2.68,2.962 -1.809,5.555 3.465,10.31c5.258,4.74 6.512,7.681 6.554,15.365c0.018,3.21 0.481,4.228 2.815,6.195c1.536,1.294 3.985,3.449 5.441,4.787c3.851,3.54 7.203,3.22 9.37,-0.895c1.375,-2.611 -0.968,-7.853 -4.387,-9.815c-2.039,-1.17 -2.462,-2.13 -2.937,-6.673c-0.769,-7.363 -3.318,-12.079 -9.099,-16.838c-5.376,-4.426 -8.757,-5.16 -11.222,-2.436z" data-paper-data="{&quot;wickUUID&quot;:&quot;4d77e24f-1341-4c04-a715-202aa2fba751&quot;,&quot;wickType&quot;:&quot;path&quot;}" fill="#ff00ff"/><path d="M345.07095,202.44711c-1.678,0.675 -4.101,5.944 -6.848,14.893c-1.345,4.381 -3.186,9.443 -4.092,11.249c-3.095,6.171 -1.313,12.204 3.605,12.204c4.048,0 4.23,-0.343 11.168,-21.024c2.164,-6.452 3.935,-12.503 3.935,-13.446c0,-2.97 -4.472,-5.201 -7.768,-3.876z" data-paper-data="{&quot;wickUUID&quot;:&quot;62c23495-f62d-4ffd-b01d-a34eab2a25f6&quot;,&quot;wickType&quot;:&quot;path&quot;}" fill="#230012"/><path d="M296.19933,209.81805c-2.284,2.284 -2.231,3.644 0.442,11.505c1.217,3.578 2.213,7.296 2.213,8.263c0,0.967 1.737,4.781 3.86,8.474c5.579,9.705 14.369,26.703 15.144,29.282c0.366,1.217 1.592,3.208 2.726,4.425c1.948,2.092 2.016,2.564 1.25,8.646c-0.446,3.538 -1.219,7.196 -1.718,8.128c-1.49,2.784 -1.05,7.587 0.927,10.099c1.486,1.889 2.575,2.332 5.736,2.332c5.419,0 17.473,-5.736 22.001,-10.469c2.966,-3.1 3.522,-4.311 3.863,-8.422c0.486,-5.867 -1.512,-8.544 -6.379,-8.544c-4.219,0 -6.01,2.058 -5.658,6.499c0.257,3.232 -0.015,3.792 -2.722,5.625c-5.467,3.702 -5.966,3.13 -5.042,-5.793c0.78,-7.542 0.726,-7.971 -1.478,-11.726c-1.258,-2.143 -5.29,-9.729 -8.962,-16.858c-3.671,-7.128 -8.08,-15.292 -9.799,-18.142c-1.719,-2.85 -3.126,-5.778 -3.127,-6.506c-0.005,-2.988 -4.73,-15.601 -6.383,-17.039c-2.34,-2.036 -4.713,-1.96 -6.894,0.221z" data-paper-data="{&quot;wickUUID&quot;:&quot;109e2ff9-087c-46fa-91c7-ba658d8dfad2&quot;,&quot;wickType&quot;:&quot;path&quot;}" fill="#230012"/><path d="M409.92088,306.32339c-1.46,0.421 -6.947,1.123 -12.193,1.559c-8.129,0.675 -9.862,1.096 -11.727,2.848c-1.28,1.203 -2.187,3.047 -2.187,4.447c0,2.3 -0.33,2.467 -8.629,4.366c-9.289,2.126 -11.726,3.537 -11.726,6.788c0,2.505 2.897,5.615 5.231,5.615c0.931,0 5.905,-0.995 11.055,-2.212c5.15,-1.217 10.835,-2.213 12.633,-2.213c4.224,0 15.718,-3.198 19.961,-5.554c3.979,-2.209 7.759,-7.619 7.759,-11.104c0,-4.68 -3.808,-6.379 -10.177,-4.54z" data-paper-data="{&quot;wickUUID&quot;:&quot;1623a47a-f2bf-4e7c-8bf6-caa313b80d52&quot;,&quot;wickType&quot;:&quot;path&quot;}" fill="#230012"/><path d="M456.78546,287.21427c-3.955,3.955 -2.152,9.236 3.804,11.145c1.823,0.585 7.08,3.005 11.681,5.378c4.601,2.373 8.982,4.346 9.735,4.385c0.784,0.04 0.931,0.249 0.344,0.489c-1.265,0.517 -17.571,-4.842 -24.197,-7.952c-2.677,-1.257 -5.962,-3.172 -7.299,-4.255c-3.162,-2.561 -6.571,-1.506 -9.067,2.806c-0.977,1.687 -4.175,5.462 -7.106,8.388c-8.956,8.941 -10.157,10.931 -10.157,16.825c0,4.849 0.202,5.335 3.541,8.512c1.985,1.888 5.389,3.948 7.744,4.687c2.311,0.725 9.976,3.379 17.034,5.899c7.058,2.519 13.888,4.768 15.179,4.998c4.724,0.841 8.01,-5.685 4.474,-8.885c-1.355,-1.226 -18.045,-7.53 -31.061,-11.733c-4.052,-1.308 -6.292,-2.73 -6.292,-3.992c0,-0.408 3.155,-3.952 7.011,-7.876l7.011,-7.135l4.716,2.08c2.593,1.144 9.195,3.597 14.671,5.451c8.925,3.021 9.956,3.587 9.956,5.462c0,2.897 3.211,5.933 5.618,5.313c15.21,-3.917 31.537,-12.791 32.801,-17.828c0.782,-3.116 -1.375,-6.452 -4.579,-7.083c-1.333,-0.263 -4.215,-0.864 -6.405,-1.337c-2.191,-0.472 -6.242,-1.112 -9.004,-1.421l-5.021,-0.561l2.587,-2.177c3.471,-2.92 3.584,-7.303 0.256,-9.921c-1.925,-1.514 -3.588,-1.834 -9.538,-1.834c-5.192,0 -7.775,0.398 -9.241,1.425c-1.87,1.31 -2.444,1.31 -7.113,0c-6.996,-1.963 -9.53,-1.806 -12.083,0.747z" data-paper-data="{&quot;wickUUID&quot;:&quot;e1a89cc6-fb93-4682-b3e3-2d815215cf34&quot;,&quot;wickType&quot;:&quot;path&quot;}" fill="#230012"/><path d="M507.06754,262.21852c-2.711,1.309 -3.182,3.396 -2.473,10.962c0.79,8.429 2.758,11.342 10.536,15.594c3.313,1.81 7.579,4.698 9.482,6.417c3.931,3.551 6.215,3.905 8.764,1.356c3.979,-3.979 0.723,-9.174 -9.735,-15.535l-7.522,-4.576l-0.961,-6.319c-0.529,-3.476 -1.126,-6.464 -1.328,-6.64c-0.59,-0.516 -4.206,-2.336 -4.511,-2.27c-0.154,0.033 -1.167,0.488 -2.252,1.011z" data-paper-data="{&quot;wickUUID&quot;:&quot;ce464b85-b5c0-4e5a-9e11-b3bfcb912421&quot;,&quot;wickType&quot;:&quot;path&quot;}" fill="#230012"/><path d="M537.14253,186.39628c-2.13,1.491 -5.273,10.768 -6.146,18.135c-0.287,2.421 -0.685,4.402 -0.884,4.402c-0.2,0 -1.542,-0.61 -2.982,-1.355c-2.092,-1.081 -3.019,-1.144 -4.603,-0.31c-2.716,1.431 -3.15,2.288 -3.801,7.499c-0.609,4.869 0.62,8.232 5.289,14.471c1.255,1.677 2.281,3.306 2.281,3.622c0,0.779 -13.458,7.047 -15.131,7.047c-0.734,0 -2.907,1.131 -4.828,2.513c-4.799,3.452 -10.301,5.452 -14.999,5.452c-3.374,0 -4.011,-0.289 -4.384,-1.991c-0.24,-1.095 -0.547,-10.226 -0.681,-20.292c-0.226,-16.994 -0.376,-18.478 -2.101,-20.797c-2.577,-3.464 -6.795,-3.854 -8.788,-0.811c-1.236,1.886 -1.313,2.929 -0.497,6.733c0.531,2.475 0.982,11.749 1.004,20.608c0.064,26.812 0.435,27.482 14.973,27.022c9.442,-0.298 12.809,-1.308 21.273,-6.381c6.228,-3.732 18.576,-8.516 21.984,-8.516c4.969,0 7.648,-2.57 6.78,-6.503c-1.453,-6.58 -1.438,-16.397 0.04,-25.602c0.843,-5.246 1.745,-9.325 2.005,-9.064c0.261,0.26 1.539,3.212 2.842,6.56c1.302,3.348 3.187,7.237 4.188,8.642l1.82,2.556l-2.602,3.815c-4.7,6.893 -7.098,27.338 -3.579,30.522c4.084,3.695 9.001,0.321 9.001,-6.177c0,-10.551 2.589,-17.978 8.196,-23.514c3.264,-3.223 3.061,-5.05 -1.12,-10.111c-1.949,-2.359 -4.58,-7.081 -5.846,-10.495c-4.058,-10.942 -5.975,-14.725 -8.567,-16.906c-2.928,-2.464 -7.253,-2.794 -10.137,-0.774z" data-paper-data="{&quot;wickUUID&quot;:&quot;32ec208f-bb49-473a-9f39-6f70efa141b1&quot;,&quot;wickType&quot;:&quot;path&quot;}" fill="#230012"/><path d="M480.27753,167.33847c-2.183,2.183 -2.285,5.498 -0.221,7.192c0.851,0.699 3.33,2.231 5.508,3.403c2.178,1.172 4.902,3.251 6.054,4.619c1.151,1.369 4.56,3.868 7.576,5.554c3.015,1.687 8.027,5.27 11.138,7.964c3.364,2.914 6.489,4.898 7.712,4.898c2.608,0 5.598,-2.942 5.598,-5.508c0,-2.553 -8.639,-10.748 -15.58,-14.781c-2.87,-1.667 -7.01,-4.691 -9.2,-6.72c-4.96,-4.593 -11.541,-8.391 -14.539,-8.391c-1.252,0 -3.073,0.796 -4.046,1.77z" data-paper-data="{&quot;wickUUID&quot;:&quot;db97c6e3-6385-4331-84cf-717859671bda&quot;,&quot;wickType&quot;:&quot;path&quot;}" fill="#230012"/><path d="M503.0875,127.24587c-0.838,0.926 -2.143,3.439 -2.9,5.584c-0.757,2.145 -2.548,5.727 -3.98,7.959c-3.589,5.593 -5.31,10.891 -5.31,16.346c0,5.197 1.702,7.549 5.464,7.549c3.322,0 5.259,-2.792 5.952,-8.577c0.371,-3.1 1.579,-6.776 3.041,-9.26l2.426,-4.118l2.708,1.35c2.507,1.251 2.88,1.222 5.054,-0.395c1.917,-1.427 2.396,-2.575 2.613,-6.267c0.24,-4.069 -0.028,-4.843 -2.685,-7.742c-3.688,-4.024 -9.846,-5.232 -12.383,-2.429z" data-paper-data="{&quot;wickUUID&quot;:&quot;2eda4c47-007d-4772-af20-0dbdbdcfee54&quot;,&quot;wickType&quot;:&quot;path&quot;}" fill="#230012"/><path d="M468.16364,127.47087c-3.403,2.075 -4.689,5.989 -4.696,14.293c-0.006,6.708 1.98,10.591 6.879,13.452c3.83,2.237 7.655,1.485 12.929,-2.542c4.868,-3.716 5.503,-7.099 1.869,-9.957c-1.881,-1.48 -2.212,-2.47 -2.212,-6.61c0,-4.466 -0.259,-5.097 -3.128,-7.616c-3.697,-3.246 -7.451,-3.575 -11.641,-1.02z" data-paper-data="{&quot;wickUUID&quot;:&quot;7bb71ebd-43f2-4c23-abfa-0e175eaf33ee&quot;,&quot;wickType&quot;:&quot;path&quot;}" fill="#230012"/><path d="M364.25665,203.70973c-1.376,1.377 -1.704,2.463 -1.266,4.204c0.324,1.291 0.955,5.491 1.403,9.335c1.073,9.225 3.046,13.28 6.633,13.631c1.788,0.175 3.218,-0.308 4.233,-1.43c1.5,-1.657 1.6,-1.628 4.513,1.284c4.21,4.211 7.801,4.079 13.592,-0.499c2.42,-1.913 5.296,-4.737 6.392,-6.276l1.992,-2.797l2.596,5.408c3.083,6.423 5.945,8.707 9.39,7.495c4.427,-1.557 4.377,-4.356 -0.251,-14.113c-4.885,-10.297 -6.901,-12.789 -10.352,-12.789c-2.855,0 -7.957,4.196 -11.739,9.654c-1.33,1.919 -3.044,3.729 -3.809,4.023c-1.958,0.751 -5.081,-2.446 -9.282,-9.501c-5.529,-9.286 -9.974,-11.7 -14.045,-7.629z" data-paper-data="{&quot;wickUUID&quot;:&quot;d5c59588-60d5-4f64-82d6-c0210976a0c7&quot;,&quot;wickType&quot;:&quot;path&quot;}" fill="#230012"/><path d="M360.80369,138.13377c-2.34,2.34 -2.237,5.679 0.432,13.962c1.211,3.76 2.636,9.139 3.167,11.955c1.176,6.242 3.402,8.844 9.17,10.72c6.695,2.176 12.507,1.887 15.148,-0.755c2.532,-2.531 2.685,-3.782 0.795,-6.48c-1.06,-1.514 -2.254,-1.967 -5.178,-1.967c-2.09,0 -5.021,-0.426 -6.512,-0.946c-2.419,-0.843 -2.78,-1.442 -3.336,-5.531c-0.344,-2.522 -1.572,-7.222 -2.73,-10.445c-1.158,-3.223 -2.106,-6.685 -2.106,-7.694c0,-2.033 -3.068,-4.589 -5.507,-4.589c-0.865,0 -2.37,0.796 -3.343,1.77z" data-paper-data="{&quot;wickUUID&quot;:&quot;505a7370-313b-4ff6-9477-f0c021384362&quot;,&quot;wickType&quot;:&quot;path&quot;}" fill="#230012"/><path d="M421.18046,83.75731c-1.658,1.161 -1.967,2.205 -1.967,6.637c0,4.609 -0.212,5.26 -1.711,5.26c-1.917,0 -6.813,5.667 -9.556,11.062c-10.056,19.776 -21.478,44.574 -21.478,46.632c0,2.381 3.94,6.025 6.516,6.025c3.302,0 9.321,-6.541 13.709,-14.897c2.118,-4.035 5.374,-8.806 7.235,-10.601c3.118,-3.009 7.94,-11.096 7.94,-13.318c0,-0.521 1.136,-2.255 2.525,-3.854c3.307,-3.807 4.555,-6.273 4.555,-9.002c0,-1.226 0.447,-3.212 0.995,-4.414c1.562,-3.429 0.164,-17.093 -1.967,-19.225c-2.043,-2.043 -4.179,-2.139 -6.796,-0.305z" data-paper-data="{&quot;wickUUID&quot;:&quot;051fb106-dba0-4eb4-84a9-07f56833239e&quot;,&quot;wickType&quot;:&quot;path&quot;}" fill="#230012"/><path d="M440.61321,68.80958c-24.035,5.076 -96.231,37.996 -107.891,49.194c-9.689,9.307 -40.779,55.982 -47.675,71.575c-7.028,15.893 -11.07,38.262 -11.484,63.565c-0.455,27.822 4.275,41.078 20.071,56.248c9.17,8.807 17.411,13.344 56.403,31.052c59.491,27.019 82.609,35.795 90.853,34.492c3.521,-0.557 18.082,-7.253 32.358,-14.88c21.756,-11.624 29.887,-17.446 50.246,-35.976c35.401,-32.22 46.047,-48.424 50.714,-77.194c3.413,-21.034 2.62,-29.689 -5.692,-62.131c-8.285,-32.338 -15.467,-49.258 -24.457,-57.62c-7.232,-6.727 -24.709,-18.123 -30.464,-19.862c-2.526,-0.764 -4.593,-2.2 -4.593,-3.19c0,-2.852 -24.139,-19.219 -39.808,-26.992c-15.458,-7.667 -22.217,-9.625 -28.581,-8.281zM466.91021,88.29558c11.718,6.135 20.874,13.032 31.254,23.546c12.137,12.294 15.511,14.661 19.479,13.665c6.463,-1.622 19.218,8.604 26.374,21.146c2.989,5.237 8.735,22.158 12.769,37.602c10.882,41.655 9.799,65.828 -4.092,91.35c-5.364,9.856 -33.599,38.78 -54.82,56.159c-10.498,8.598 -54.169,31.62 -59.979,31.62c-6.71,0 -35.746,-11.502 -82.745,-32.777c-49.364,-22.346 -59.695,-29.806 -66.512,-48.024c-8.078,-21.59 -3.622,-67.517 8.979,-92.538c10.686,-21.22 34.757,-56.072 44.776,-64.83c13.699,-11.974 89.409,-45.431 103.081,-45.552c2.674,-0.024 12.32,3.861 21.436,8.633z" data-paper-data="{&quot;wickUUID&quot;:&quot;49895016-bbcb-43a1-850e-0f200d74f17c&quot;,&quot;wickType&quot;:&quot;path&quot;}" fill="#000000"/><path d="M467.34514,264.79319c-1.892,1.518 -5.002,3.757 -6.912,4.975c-1.909,1.218 -5.394,4.013 -7.744,6.211c-3.882,3.631 -4.271,4.359 -4.271,7.983c0,3.59 0.429,4.417 4.298,8.286c2.467,2.467 5.107,4.299 6.195,4.299c2.511,0 5.436,-3.021 5.436,-5.615c0,-1.142 -0.796,-2.796 -1.769,-3.677c-0.974,-0.881 -1.767,-2.237 -1.763,-3.014c0.003,-0.778 3.228,-3.562 7.18,-6.202c9.817,-6.555 12.45,-11.435 8.041,-14.9c-2.292,-1.803 -5.033,-1.281 -8.691,1.654z" data-paper-data="{&quot;wickUUID&quot;:&quot;c7acbcad-92e2-47b2-980f-34183f62c5b5&quot;,&quot;wickType&quot;:&quot;path&quot;}" fill="#230012"/><path d="M433.37301,116.54498c-4.498,2.028 -6.195,3.84 -6.195,6.618c0,4.95 4.021,6.445 10.433,3.88c2.791,-1.117 4.745,-1.203 11.06,-0.485c4.219,0.48 8.45,1.289 9.403,1.799c0.953,0.51 3.29,0.927 5.193,0.927c3.864,0 6.391,-2.04 6.391,-5.159c0,-2.304 -2.93,-5.456 -5.089,-5.474c-0.852,-0.007 -3.172,-0.579 -5.157,-1.27c-1.984,-0.692 -7.957,-1.477 -13.274,-1.745c-7.694,-0.388 -10.3,-0.203 -12.765,0.909z" data-paper-data="{&quot;wickUUID&quot;:&quot;1e9ad4ad-c9c9-425b-b0e9-cdbca67665d7&quot;,&quot;wickType&quot;:&quot;path&quot;}" fill="#230012"/><path d="M536.20659,282.01089c-1.985,1.985 -1.392,8.457 1.385,15.103c3.058,7.319 3.32,26.669 0.789,58.332c-0.952,11.916 -2.478,34.535 -3.391,50.264c-2.159,37.21 -3.664,43.57 -11.829,49.986c-7.945,6.242 -14.143,9.368 -26.301,13.263c-5.243,1.68 -20.619,7.226 -34.168,12.325c-19.223,7.234 -27.191,9.375 -36.274,9.747l-11.64,0.476l-2.184,-11.266c-1.201,-6.197 -2.232,-16.125 -2.291,-22.064c-0.148,-14.987 -25.218,-107.117 -30.902,-113.564c-5.458,-6.192 -13.849,-1.376 -9.562,5.488c2.421,3.878 8.924,25.49 20.383,67.745c6.677,24.621 9.575,38.487 9.575,45.818c0,12.493 4.011,32.988 7.21,36.843c1.902,2.292 5.018,2.573 19.04,1.719c14.531,-0.886 19.732,-2.159 39.023,-9.552c12.241,-4.692 28.706,-10.648 36.588,-13.235c17.943,-5.889 34.284,-16.501 37.588,-24.409c1.331,-3.185 3.24,-11.49 4.243,-18.456c2.646,-18.369 7.715,-94.248 7.852,-117.527c0.105,-17.928 -0.319,-20.804 -4.216,-28.599c-4.061,-8.122 -8.107,-11.248 -10.918,-8.437z" data-paper-data="{&quot;wickUUID&quot;:&quot;64aef4b3-d3ec-4702-bfa6-6b7859a41cf3&quot;,&quot;wickType&quot;:&quot;path&quot;}" fill="#000000"/><path d="M360.96537,340.15789c-0.376,1.258 -2.363,26.467 -4.415,56.019c-2.051,29.553 -5.002,66.508 -6.556,82.124c-2.692,27.058 -2.68,28.498 0.258,30.646c4.954,3.623 7.41,1.187 8.509,-8.436c0.566,-4.952 1.807,-15.634 2.759,-23.737c3.414,-29.058 8.962,-110.35 8.458,-123.937c-0.478,-12.878 -0.79,-13.897 -4.422,-14.412c-2.149,-0.306 -4.215,0.474 -4.591,1.733z" data-paper-data="{&quot;wickUUID&quot;:&quot;a0e344ee-24d4-4c99-8d7d-eb3e74d9935d&quot;,&quot;wickType&quot;:&quot;path&quot;}" fill="#000000"/><path d="M548.35237,294.12976c-3.841,3.842 5.082,31.467 21.132,65.426c5.662,11.98 11.476,25.901 12.919,30.935c3.909,13.634 8.053,37.118 8.053,45.641c0,8.286 1.657,10.251 7.171,8.501c3.495,-1.109 3.629,-1.976 2.762,-17.878c-1.221,-22.376 -7.552,-45.078 -19.645,-70.443c-5.454,-11.439 -13.206,-30.159 -17.228,-41.598c-5.61,-15.958 -8.083,-20.917 -10.624,-21.306c-1.821,-0.278 -3.864,0.047 -4.54,0.722z" data-paper-data="{&quot;wickUUID&quot;:&quot;b8c5f90b-8937-43ad-8663-43ee429ce4b8&quot;,&quot;wickType&quot;:&quot;path&quot;}" fill="#000000"/><path d="M422.2804,500.48615c-0.983,2.688 -2.127,5.853 -2.541,7.034c-0.414,1.181 -1.982,14.051 -3.484,28.599c-1.502,14.549 -4.316,35.811 -6.254,47.251c-1.937,11.44 -5.409,34.449 -7.716,51.131c-2.307,16.683 -5.817,39.302 -7.799,50.265c-1.983,10.963 -4.143,23.443 -4.8,27.733c-1.043,6.811 -1.895,8.026 -6.724,9.593c-7.218,2.341 -7.986,3.261 -6.537,7.828c1.101,3.469 2.01,3.722 9.992,2.777c4.829,-0.572 9.469,-1.729 10.31,-2.57c0.841,-0.841 2.688,-8.077 4.104,-16.079c1.416,-8.002 4.097,-23.129 5.958,-33.615c1.862,-10.486 4.976,-30.765 6.922,-45.065c1.946,-14.299 5.132,-35.359 7.081,-46.798c3.471,-20.377 10.177,-73.801 10.77,-85.797c0.251,-5.08 -0.334,-6.156 -3.598,-6.62c-2.944,-0.418 -4.334,0.641 -5.684,4.333z" data-paper-data="{&quot;wickUUID&quot;:&quot;9c55b769-1362-471b-8eba-b03a64cf3b7f&quot;,&quot;wickType&quot;:&quot;path&quot;}" fill="#000000"/><path d="M507.8844,463.77778c-0.601,1.566 -0.254,8.055 0.77,14.421c2.051,12.747 4.828,50.238 6.89,93.039c1.136,23.575 0.742,33.058 -2.633,63.264c-3.073,27.502 -3.867,43.17 -3.511,69.331l0.459,33.798h7.799c6.842,0 7.87,-0.494 8.37,-4.026c0.41,-2.894 -0.442,-4.291 -3.033,-4.969c-3.458,-0.904 -3.601,-2.032 -3.547,-28.039c0.031,-14.903 0.801,-32.556 1.71,-39.23c6.696,-49.155 7.199,-58.272 5.26,-95.329c-4.557,-87.097 -6.702,-103.539 -13.639,-104.551c-2.307,-0.337 -4.232,0.564 -4.895,2.291z" data-paper-data="{&quot;wickUUID&quot;:&quot;cccaefe8-ae4e-493f-a537-70521de9bf69&quot;,&quot;wickType&quot;:&quot;path&quot;}" fill="#000000"/><path d="M407.05467,382.95608c-1.651,1.824 -1.899,4.791 -0.603,7.213c1.092,2.04 8.711,7.138 10.668,7.138c2.754,0 5.327,3.82 5.327,7.91c0,5.095 2.344,9.82 5.4,10.886c2.36,0.822 2.438,1.053 2.293,6.78c-0.144,5.69 0.018,6.18 4.03,12.206c5.66,8.501 6.115,11.806 2.587,18.793c-2.061,4.085 -3.625,5.911 -6.392,7.466c-6.241,3.507 -9.066,12.018 -5.256,15.828c2.498,2.498 6.237,2.207 10.4,-0.808c4.412,-3.196 6.365,-5.908 9.934,-13.794c1.536,-3.394 3.446,-6.893 4.244,-7.775c0.798,-0.882 7.276,-4.424 14.394,-7.872c7.119,-3.447 14.022,-7.293 15.341,-8.545c4.731,-4.494 4.043,-10.814 -1.797,-16.517c-6.03,-5.888 -11.833,-5.74 -16.223,0.415c-1.733,2.429 -2.126,4.077 -2.126,8.895v5.915l-4.679,2.294c-2.573,1.262 -4.82,2.295 -4.992,2.295c-0.172,0 -0.572,-1.294 -0.888,-2.875c-0.316,-1.581 -2.163,-5.138 -4.104,-7.906c-2.155,-3.072 -3.53,-6.038 -3.53,-7.616c0,-2.956 1.985,-9.184 4.496,-14.11c2.372,-4.652 2.158,-6.862 -1.014,-10.475c-2.996,-3.412 -7.485,-4.822 -10.396,-3.264c-1.516,0.812 -2.123,0.497 -4.138,-2.145c-2.214,-2.902 -8.014,-6.63 -10.316,-6.63c-0.565,0 -2.392,-1.198 -4.059,-2.662c-3.456,-3.034 -6.467,-3.398 -8.601,-1.04z" data-paper-data="{&quot;wickUUID&quot;:&quot;a94448eb-eac5-4d81-9ea1-e80cd14bf059&quot;,&quot;wickType&quot;:&quot;path&quot;}" fill="#5a0aa6"/><path d="M525.18667,339.60885c-2.861,1.812 -4.359,3.436 -4.71,5.108c-1.78,8.477 -2.842,11.82 -7.691,24.193c-5.19,13.243 -10.186,23.585 -12.969,26.844c-0.98,1.149 -2.668,1.553 -6.479,1.553c-6.574,0 -14.203,2.811 -17.157,6.321c-2.796,3.323 -4.592,9.474 -5.848,20.028c-0.688,5.784 -0.695,8.671 -0.025,9.924c1.871,3.495 7.157,3.434 9.051,-0.106c0.552,-1.029 1.328,-4.771 1.725,-8.313c1.662,-14.822 2.928,-16.25 15.301,-17.27c7.86,-0.648 8.245,-0.782 10.831,-3.766c5.644,-6.514 18.472,-35.055 22.282,-49.577c1.168,-4.453 2.091,-6.218 3.704,-7.081c3.281,-1.756 4.177,-5.036 2.127,-7.794c-2.341,-3.15 -5.239,-3.168 -10.142,-0.064z" data-paper-data="{&quot;wickUUID&quot;:&quot;7a0518e6-7a20-4f73-8c72-26d717419da8&quot;,&quot;wickType&quot;:&quot;path&quot;}" fill="#5a0aa6"/><path d="M482.79237,355.59785c-3.768,3.768 -1.323,15.03 3.639,16.76c1.907,0.664 3.209,0.473 5.809,-0.852c4.487,-2.288 5.663,-2.171 9.722,0.963c10.763,8.314 15.373,9.819 18.99,6.202c3.29,-3.29 1.252,-8.874 -3.239,-8.874c-0.971,0 -3.336,-1.343 -5.254,-2.984c-7.503,-6.418 -10.04,-7.665 -15.592,-7.665c-3.765,0 -5.201,-0.33 -5.201,-1.194c0,-1.764 -2.964,-4.131 -5.172,-4.131c-1.06,0 -2.726,0.799 -3.702,1.775z" data-paper-data="{&quot;wickUUID&quot;:&quot;40daf82b-a964-4cfa-91ae-2d8445d46f11&quot;,&quot;wickType&quot;:&quot;path&quot;}" fill="#5a0aa6"/><path d="M506.53137,402.38365c-0.854,0.946 -1.553,2.724 -1.553,3.952c0,2.883 2.26,4.864 6.434,5.638c1.83,0.34 3.327,0.793 3.327,1.007c0,1.007 -2.696,5.436 -3.934,6.464c-1.792,1.486 -1.789,5.735 0.004,7.528c3.836,3.836 9.181,0.338 13.323,-8.719c3.255,-7.116 2.467,-10.543 -3.23,-14.058c-5.41,-3.337 -12.218,-4.195 -14.371,-1.812z" data-paper-data="{&quot;wickUUID&quot;:&quot;97a01a81-2b24-425a-8fc4-4aefc087cdf7&quot;,&quot;wickType&quot;:&quot;path&quot;}" fill="#5a0aa6"/><path d="M407.1381,381.96108c-1.99,2.218 -1.99,5.815 0,7.553c0.855,0.746 4.124,1.635 7.265,1.975c3.142,0.341 6.82,1.192 8.175,1.893c3.409,1.763 6.743,7.869 7.473,13.687c0.712,5.674 2.365,7.987 5.707,7.987c4.474,0 5.325,-2.151 5.325,-13.466c0,-8.774 -0.23,-10.428 -1.623,-11.688c-0.893,-0.808 -2.317,-1.469 -3.165,-1.469c-0.849,0 -2.814,-0.959 -4.368,-2.131c-4.459,-3.365 -9.38,-5.017 -16.572,-5.564c-5.864,-0.447 -6.85,-0.3 -8.217,1.223z" data-paper-data="{&quot;wickUUID&quot;:&quot;78b50af0-fc49-474a-ad33-55a673fb335f&quot;,&quot;wickType&quot;:&quot;path&quot;}" fill="#130223"/><path d="M483.6801,421.26808c-0.977,0.976 -1.775,2.293 -1.775,2.926c0,2.853 -13.147,12.73 -23.313,17.515c-3.041,1.431 -7.526,3.997 -9.966,5.703c-2.44,1.705 -5.289,3.692 -6.329,4.414c-2.815,1.955 -12.176,16.252 -14.043,21.449c-1.942,5.405 -1.349,8.869 1.76,10.286c3.523,1.605 5.921,-0.129 8.361,-6.048c4.736,-11.484 13.2,-20.117 25.572,-26.083c10.382,-5.006 24.968,-15.938 27.311,-20.468c1.887,-3.649 1.627,-7.542 -0.646,-9.659c-2.455,-2.287 -4.669,-2.298 -6.932,-0.035z" data-paper-data="{&quot;wickUUID&quot;:&quot;0dea9575-38cd-44c5-8a69-00f59065dfe5&quot;,&quot;wickType&quot;:&quot;path&quot;}" fill="#130223"/><path d="M492.3859,402.16205c-5.805,1.599 -10.025,4.416 -13.571,9.06c-3.22,4.217 -3.572,5.743 -4.417,19.137c-0.439,6.961 -0.306,7.944 1.29,9.54c2.193,2.193 4.532,2.266 7.058,0.221c1.6,-1.296 1.999,-2.757 2.362,-8.653c0.66,-10.703 1.078,-12.463 3.549,-14.934c1.249,-1.249 4.164,-2.9 6.478,-3.669c3.717,-1.234 4.567,-1.247 7.292,-0.108l3.085,1.288l1.124,9.602c1.556,13.297 1.628,13.539 4.309,14.558c1.9,0.723 2.813,0.566 4.634,-0.797c2.06,-1.543 2.262,-2.256 2.207,-7.809c-0.033,-3.361 -0.399,-9.304 -0.814,-13.206c-0.642,-6.041 -1.11,-7.424 -3.149,-9.318c-6.642,-6.168 -12.229,-7.448 -21.437,-4.912z" data-paper-data="{&quot;wickUUID&quot;:&quot;555c6029-0748-42a7-9e52-1e61f4eab9cd&quot;,&quot;wickType&quot;:&quot;path&quot;}" fill="#130223"/><path d="M480.04307,357.45995c-1.373,1.372 -1.71,2.48 -1.283,4.215c1.483,6.036 2.156,10.751 2.204,15.443c0.058,5.552 1.985,8.653 5.378,8.653c2.106,0 5.325,-2.978 5.325,-4.926c0,-2.451 5.93,-4.185 12.061,-3.529c5.07,0.543 5.613,0.43 6.925,-1.444c2.011,-2.87 1.775,-4.917 -0.871,-7.563c-2.218,-2.219 -2.574,-2.281 -10.649,-1.859l-8.354,0.437v-2.139c0,-2.845 -2.267,-7.101 -4.388,-8.236c-2.563,-1.372 -4.285,-1.115 -6.348,0.948z" data-paper-data="{&quot;wickUUID&quot;:&quot;629034e2-46b1-4607-a0d1-34216a4d1e1e&quot;,&quot;wickType&quot;:&quot;path&quot;}" fill="#130223"/><path d="M527.8172,332.74625c-2.18,1.655 -3.316,5.497 -3.316,11.212c0,6.185 -1.859,12.751 -5.859,20.695c-4.977,9.882 -8.341,21.201 -8.326,28.008c0.015,6.508 0.346,7.419 3.256,8.951c2.68,1.41 5.645,0.115 8.969,-3.916c2.623,-3.183 3.431,-5.572 6.813,-20.167c0.787,-3.396 2.494,-7.539 3.913,-9.497c3.318,-4.581 4.866,-10.355 4.205,-15.69c-0.291,-2.358 -0.753,-6.684 -1.025,-9.612c-0.748,-8.033 -1.062,-8.926 -3.535,-10.053c-2.861,-1.304 -3.295,-1.298 -5.095,0.069z" data-paper-data="{&quot;wickUUID&quot;:&quot;875a52bb-48f8-4d3b-99bd-c06148c63cab&quot;,&quot;wickType&quot;:&quot;path&quot;}" fill="#130223"/></g><g fill="none" fill-rule="nonzero" stroke="none" stroke-width="1" stroke-linecap="butt" stroke-linejoin="miter" stroke-miterlimit="10" stroke-dasharray="" stroke-dashoffset="0" font-family="sans-serif" font-weight="normal" font-size="12" text-anchor="start" style="mix-blend-mode: normal"/><g id="wick_project_gui" fill="none" fill-rule="nonzero" stroke="none" stroke-width="1" stroke-linecap="butt" stroke-linejoin="miter" stroke-miterlimit="10" stroke-dasharray="" stroke-dashoffset="0" font-family="sans-serif" font-weight="normal" font-size="12" text-anchor="start" style="mix-blend-mode: normal"/></g></svg>