<svg version="1.1" xmlns="http://www.w3.org/2000/svg" xmlns:xlink="http://www.w3.org/1999/xlink" width="1260" height="594" viewBox="0,0,1260,594"><g transform="translate(479.91246,62.26383) scale(0.94565,0.94565)"><g id="wick_project_bg" fill="#999999" fill-rule="nonzero" stroke="none" stroke-width="1" stroke-linecap="butt" stroke-linejoin="miter" stroke-miterlimit="10" stroke-dasharray="" stroke-dashoffset="0" font-family="none" font-weight="none" font-size="none" text-anchor="none" style="mix-blend-mode: normal"><rect x="0" y="0" width="720" height="480"/></g><g data-paper-data="{&quot;wickUUID&quot;:&quot;39cca8e9-dcea-4158-a859-975ed6dcce0d&quot;,&quot;wickType&quot;:&quot;clipsandpaths&quot;}" fill="none" fill-rule="evenodd" stroke="none" stroke-width="1" stroke-linecap="butt" stroke-linejoin="miter" stroke-miterlimit="10" stroke-dasharray="" stroke-dashoffset="0" font-family="none" font-weight="none" font-size="none" text-anchor="none" style="mix-blend-mode: normal"><path d="M208.31573,101.82781c-7.306,0.57733 -17.74352,2.97504 -21.73152,4.87837c-6.476,3.09067 -11.88821,11.69621 -20.06221,32.06488c-4.857,12.10267 -7.87867,20.07596 -8.07867,21.34729c-0.10833,0.689 -0.52959,1.7833 -0.89459,2.2963c-1.685,2.366 -2.06392,4.43381 -2.06059,10.63548c0.00733,13.33233 1.805,27.63899 5.03467,40.09866c2.254,8.69633 3.69071,11.7087 7.80704,16.2087c6.70767,7.33333 12.22417,14.5019 14.33417,18.61823c1.728,3.37133 1.92991,3.56461 4.30658,5.10528c2.35867,1.52867 5.32476,2.70544 7.27443,2.85144c0.79267,0.05933 1.95484,0.38923 2.40851,0.68656c1.40333,0.91933 13.0132,2.85985 25.1902,4.21018c6.88367,0.76333 9.03864,1.26123 10.71931,2.50223c1.59233,1.17567 3.37729,1.08676 9.77996,-0.48091c6.596,-1.615 10.93927,-3.03014 13.90794,-4.52614c2.674,-1.347 9.73609,-5.96318 11.89176,-7.77851l1.81248,-1.65016l-2.12862,-0.89091c-1.471,0.32233 -9.30917,2.82235 -14.01784,4.46902c-4.62933,1.619 -5.19164,1.84108 -6.65864,0.60675c-2.19567,-1.84767 -2.6759,-3.27695 -1.0259,-5.15628c2.827,-3.21967 13.3813,-7.02053 29.4943,-10.65253c5.91,-1.332 6.74039,-1.63802 7.34472,-2.47402c0.36567,-0.506 2.67023,-3.10271 4.87123,-5.54071c9.70167,-10.74633 10.18745,-11.40353 13.05178,-17.3392c2.02733,-4.201 6.45677,-15.20782 8.0921,-20.12415c0.61,-1.83333 1.32528,-4.70348 1.52695,-6.07848c0.59333,-4.04 0.83807,-23.35194 0.34207,-26.44227c-1.057,-6.58233 -5.35421,-16.41947 -10.51588,-24.1918c-5.801,-8.735 -18.91546,-18.29762 -40.01646,-29.14429l-8.02938,-4.08463l-20.12124,-0.16786c-10.99867,-0.08733 -21.78033,-0.02019 -23.84866,0.14348zM297.04263,161.33169c1.476,1.127 2.77917,2.95737 2.77917,3.76537c0,0.43 -3.75114,5.04503 -4.71047,5.8387c-0.50767,0.42 -0.45437,1.2419 0.93763,2.73023c2.83433,3.03 4.46865,7.94819 4.53032,13.74919c0.04667,4.39433 -0.26654,5.71464 -2.13454,7.40231c-2.29333,2.07167 -3.20829,2.01492 -5.94929,-0.22641c-3.09767,-2.53267 -5.16837,-6.50799 -5.6827,-10.70799l-1.46713,-2.08041l-3.6238,4.44831c-4.697,5.831 -8.36188,9.52539 -10.41321,10.47139c-1.373,0.633 -1.53831,0.60526 -4.32364,0.59126c-3.918,-0.01933 -5.72172,-0.57276 -13.18805,-4.02076c-12.62867,-5.832 -20.34917,-8.93039 -31.9415,-12.81739c-9.39067,-3.14867 -10.11628,-3.32731 -11.07961,-4.38398c-2.152,-2.36133 -1.31326,-5.67957 1.47774,-6.84557c1.003,-0.41933 0.42804,-0.05567 2.39537,0.397c9.24067,2.12633 27.10226,8.66993 38.88593,14.24526c7.753,3.66833 10.26365,4.62228 12.18665,4.85861c2.09733,0.258 3.26017,-0.39286 6.6945,-4.68653c3.66333,-4.58 12.2173,-14.70751 15.83997,-18.74618c5.09167,-5.676 5.98133,-6.12441 8.78666,-3.98241zM236.92213,194.57704c2.131,1.08 3.10113,2.0437 4.23713,4.45237c2.546,5.39733 2.70985,12.13472 0.35618,15.84605c-1.26333,1.99167 -2.21835,2.28457 -5.30135,2.49324c-2.93067,0.198 -3.15117,0.10067 -5.29284,-2.80866c-2.339,-3.17733 -2.58018,-4.30326 -2.58151,-10.53326l0.00155,-5.07207l0.83428,-1.39561c0.86433,-1.53 1.03092,-1.77343 2.76425,-2.67743c2.48167,-1.29433 2.87598,-1.37196 4.98231,-0.30463z" data-paper-data="{&quot;wickUUID&quot;:&quot;93270f5d-0972-4ebb-a6ab-b80082c2f870&quot;,&quot;wickType&quot;:&quot;path&quot;}" fill="#ffffff"/><path d="M91.27653,148.34023c-6.67667,0.66033 -10.75938,1.37426 -12.69971,2.23093l-2.40546,1.52452l1.59688,2.63212c1.57867,2.26833 4.52916,7.54129 8.49849,15.18696c1.33233,2.56667 3.10472,5.58465 3.64372,6.37432c2.03967,2.98767 4.67552,4.18491 13.02585,5.84258c5.502,1.092 8.6955,2.11373 14.68417,4.70906c6.75033,2.92533 17.31845,8.43327 19.40845,10.11694c1.093,0.88033 4.08262,3.91788 6.82129,6.89555c2.73867,2.97767 5.72584,5.62116 5.77917,5.56816c0.053,-0.05333 0.41006,-3.58737 -0.12461,-6.7177c-2.30867,-13.51133 -3.58041,-27.47919 -2.95774,-32.49519c0.16833,-1.355 0.66592,-3.48776 1.13359,-5.03309c0.46767,-1.545 0.56793,-3.91003 0.60326,-4.18503c0.09533,-0.74167 -10.07218,-5.73864 -15.04918,-7.39164c-4.031,-1.339 -15.23099,-3.80112 -23.29566,-5.12079c-4.706,-0.77 -11.72251,-0.82403 -18.66251,-0.1377z" data-paper-data="{&quot;wickUUID&quot;:&quot;61b83752-1c15-4b90-9931-ee34522264f8&quot;,&quot;wickType&quot;:&quot;path&quot;,&quot;originalStyle&quot;:{&quot;strokeColor&quot;:null,&quot;fillColor&quot;:[&quot;Color&quot;,1,0.50196,0],&quot;strokeWidth&quot;:1}}" fill="#ff8000"/><path d="M105.86589,128.31429c-0.18333,0.06133 -1.54397,0.66501 -2.0603,0.77934c-1.525,0.33767 -2.10141,2.25764 -1.63474,5.44997c0.20833,1.42367 0.87358,3.58247 1.01725,3.8148c0.151,0.24433 2.99367,0.95281 6.34534,1.51448c8.079,1.35333 19.86688,3.76322 23.38421,4.78255c4.607,1.335 8.87365,3.01355 13.69332,5.37522c2.43733,1.19433 4.8459,2.17696 4.90123,2.10863c0.05533,-0.068 1.256,-1.75864 1.724,-2.98897c0.71767,-1.886 0.74717,-2.83242 0.3565,-3.15675c-0.255,-0.21133 -1.7895,-2.38213 -3.29183,-4.60713c-1.50267,-2.22467 -3.42237,-4.96294 -4.26404,-6.08227l-1.88076,-2.3201l-1.45108,0.79744c-1.85867,1.43333 -3.10059,1.25179 -6.82726,-1.00021c-3.98767,-2.40967 -5.01765,-2.80637 -8.08598,-3.2537c-5.12333,-0.74733 -20.73053,-1.61197 -21.92586,-1.2133z" data-paper-data="{&quot;wickUUID&quot;:&quot;e263b5f7-bcf6-4f5f-a1e4-d541552dbf9d&quot;,&quot;wickType&quot;:&quot;path&quot;,&quot;originalStyle&quot;:{&quot;strokeColor&quot;:null,&quot;fillColor&quot;:[&quot;Color&quot;,1,0.50196,0],&quot;strokeWidth&quot;:1}}" fill="#ff8000"/><path d="M88.21762,57.03186c-6.48,0.65867 -15.8877,2.23795 -19.6607,3.32495l-2.31794,0.83836l0.05798,2.26557c0.11533,0.859 0.76615,3.4185 1.43482,5.6455l1.43289,4.4235l3.58531,0.61342c8.05933,0.98467 13.29078,2.48212 19.48778,5.59245c3.78333,1.899 11.02547,6.4259 11.25614,7.02823c0.06133,0.15967 0.19193,0.24609 0.36893,0.24609c0.44233,0 5.48096,3.84352 16.14829,12.31852c4.968,3.947 10.90331,8.64635 13.26864,10.51102c7.05367,5.56033 16.45473,15.41374 21.9244,22.97741c1.08833,1.50533 3.07549,2.84394 3.10149,2.80527c0.02633,-0.03833 1.38234,-2.82951 2.62634,-5.76284c2.05867,-4.854 6.20773,-13.51057 7.70773,-16.07657c0.58933,-1.00833 0.56642,-1.74672 -0.17258,-3.56805c-0.99633,-2.455 -4.68808,-9.06475 -7.38275,-13.23208c-6.06833,-9.385 -14.88873,-19.3438 -20.6874,-23.36447c-4.01433,-2.78367 -13.24288,-8.28109 -16.68755,-9.94776c-7.64467,-3.699 -27.63182,-7.43719 -35.49182,-6.63852z" data-paper-data="{&quot;wickUUID&quot;:&quot;27ed4eb1-dc3a-4b3d-a1ef-669d7d45a3ea&quot;,&quot;wickType&quot;:&quot;path&quot;,&quot;originalStyle&quot;:{&quot;strokeColor&quot;:null,&quot;fillColor&quot;:[&quot;Color&quot;,1,0.50196,0],&quot;strokeWidth&quot;:1}}" fill="#ff8000"/><path d="M117.52426,35.67949c-0.21967,1.51267 -0.49249,5.7173 -0.60416,9.31097l-0.14267,6.89331l3.49555,1.19137c7.759,1.91333 25.89314,12.98916 33.36347,20.39049c6.84533,6.782 15.44743,18.52739 19.99743,27.26372l1.74479,3.00508l2.26984,-1.28896c3.614,-3.03733 6.00211,-4.07014 14.67178,-6.23347c12.56333,-3.135 16.0556,-3.44113 37.35127,-3.3058l17.16372,0.10548l-1.56076,-3.30157c-3.02867,-2.72567 -6.79125,-5.27684 -20.91625,-14.18717c-15.999,-10.09267 -20.50256,-12.68155 -37.62923,-21.63155c-15.668,-8.18767 -30.46028,-15.2386 -37.53928,-17.90027c-7.831,-2.94467 -13.20797,-3.82747 -23.61497,-3.8318l-7.11097,0.048z" data-paper-data="{&quot;wickUUID&quot;:&quot;28db0102-ece5-4074-bf01-063cbda025b1&quot;,&quot;wickType&quot;:&quot;path&quot;,&quot;originalStyle&quot;:{&quot;strokeColor&quot;:null,&quot;fillColor&quot;:[&quot;Color&quot;,1,0.50196,0],&quot;strokeWidth&quot;:1}}" fill="#ff8000"/><path d="M196.14626,268.08248c-1.28167,2.05833 -4.57354,9.86229 -8.80887,20.87029c-11.479,29.83667 -13.66883,38.08311 -16.15416,60.84711c-0.55033,5.04167 -1.23974,10.53432 -1.51107,12.09265c-0.27133,1.55833 -1.02321,7.33237 -1.67121,12.83237c-3.218,27.31067 -3.6335,30.55728 -4.16017,32.50395c-0.386,1.42667 -1.20938,8.60415 -1.68405,14.67848c-0.19333,2.475 -0.39026,5.11575 -0.46793,5.48242c-0.12933,0.611 0.60154,1.25521 2.64787,1.29721c2.434,0.05 4.64967,0.77011 17.19234,5.58844c3.65033,1.40233 10.39173,3.83101 14.9914,5.40068l8.4663,2.88332l4.10052,-0.19722c18.067,-0.999 38.1152,-3.12319 66.00787,-6.99352c7.24167,-1.00467 15.5234,-2.13828 18.31007,-2.50361c5.81567,-0.763 7.64472,-1.88893 7.93205,-3.46326c0.27033,-1.48267 -1.49715,-11.95533 -3.31182,-19.372c-3.009,-12.29833 -7.60546,-27.04496 -12.71313,-40.78129c-4.582,-12.32367 -6.46795,-18.45663 -11.15762,-36.2853c-3.094,-11.76133 -8.5784,-31.05111 -9.6724,-34.01944c-1.041,-2.824 -2.5026,-8.89326 -3.3196,-13.78293c-0.61433,-3.67667 -2.39064,-13.64273 -2.85331,-16.00773l-1.07997,-1.56018l-4.6716,1.2945c-10.60633,2.96967 -24.43097,5.78411 -30.05864,6.11878c-3.033,0.18067 -3.01293,0.2546 -4.0326,-0.3024c-1.46167,-0.79833 -3.34073,-3.49946 -3.34073,-4.80713c0,-1.416 -1.46942,-1.90954 -8.47775,-2.71721c-3.27967,-0.378 -6.78833,-0.78484 -7.52166,-0.88051c-1.284,-0.167 -2.0878,0.35086 -2.98013,1.78353z" data-paper-data="{&quot;wickUUID&quot;:&quot;40a6a019-717f-4e2a-9792-faab7973bf13&quot;,&quot;wickType&quot;:&quot;path&quot;,&quot;originalStyle&quot;:{&quot;strokeColor&quot;:null,&quot;fillColor&quot;:[&quot;Color&quot;,0.50196,0,1],&quot;strokeWidth&quot;:1}}" fill="#8000ff"/><path d="M261.48805,278.49345c-0.767,0.767 -1.394,2.065 -1.393,2.884c0.001,2.498 2.382,13.747 3.508,16.576c0.583,1.464 1.605,4.659 2.271,7.099c0.666,2.441 2.044,7.233 3.062,10.649c1.017,3.417 3.85,13.924 6.295,23.35c2.444,9.426 5.976,21.007 7.848,25.735c6.784,17.132 14.276,41.987 16.469,54.637c2.186,12.605 2.616,11.735 -6.398,12.942c-4.271,0.571 -14.554,1.986 -22.851,3.144c-20.37,2.844 -36.477,4.614 -51.98,5.714l-12.934,0.918l-10.139,-3.433c-5.576,-1.888 -14.24,-5.079 -19.253,-7.091c-10.777,-4.326 -13.999,-4.626 -15.451,-1.439c-2.024,4.442 -0.326,5.772 14.906,11.666c22.286,8.625 28.251,10.301 34.507,9.698c2.928,-0.282 11.314,-0.917 18.636,-1.411c11.349,-0.765 51.889,-5.834 71.635,-8.957c8.167,-1.292 10.45,-3.204 10.45,-8.754c0,-13.016 -8.728,-45.819 -19.414,-72.959c-1.477,-3.753 -4.494,-13.737 -6.705,-22.186c-2.21,-8.449 -5.869,-21.552 -8.13,-29.117c-2.262,-7.565 -4.866,-17.149 -5.789,-21.298c-1.671,-7.519 -3.098,-9.761 -6.214,-9.761c-0.848,0 -2.169,0.627 -2.936,1.394z" data-paper-data="{&quot;wickUUID&quot;:&quot;a9ebc96d-2cb0-49cc-8c43-9601a7ed03ad&quot;,&quot;wickType&quot;:&quot;path&quot;,&quot;originalStyle&quot;:{&quot;strokeColor&quot;:null,&quot;fillColor&quot;:[&quot;Color&quot;,0,0,0],&quot;strokeWidth&quot;:1}}" id="a9ebc96d-2cb0-49cc-8c43-9601a7ed03ad" fill="#000000"/><path d="M207.88548,92.68836c-7.384,0.774 -22.061,4.255 -25.735,6.105c-5.815,2.928 -10.731,8.575 -15.788,18.134c-4.74,8.961 -12.535,28.112 -17.698,43.483c-3.037,9.041 -3.115,9.607 -2.615,19.079c0.55,10.401 4.154,32.582 6.49,39.934c4.314,13.58 19.433,34.91 29.089,41.039c4.833,3.068 14.236,6.118 21.002,6.813c11.307,1.161 12.355,1.437 12.355,3.252c0,0.933 0.835,2.532 1.856,3.553c1.672,1.672 2.489,1.796 8.209,1.247c6.796,-0.652 28.566,-5.712 32.974,-7.664c9.742,-4.313 23.688,-16.029 31.542,-26.499c1.647,-2.196 6.22,-7.418 10.162,-11.604c7.595,-8.065 8.136,-9.082 16.955,-31.879c3.201,-8.274 3.269,-8.71 3.675,-23.516c0.41,-14.959 0.391,-15.157 -2.32,-23.517c-5.122,-15.794 -15.379,-29.53 -28.562,-38.245c-16.53,-10.928 -30.978,-18.201 -38.651,-19.458c-4.871,-0.798 -35.997,-0.984 -42.94,-0.257zM259.35548,106.02636c18.757,9.304 33.617,19.733 39.377,27.637c4.434,6.084 8.361,13.89 10.453,20.779c1.631,5.37 1.803,7.704 1.441,19.566c-0.405,13.25 -0.472,13.623 -4.126,23.085c-6.671,17.273 -8.444,20.498 -15.051,27.384c-3.421,3.565 -7.707,8.479 -9.524,10.919c-5.422,7.281 -11.982,13.645 -18.576,18.02c-8.039,5.334 -9.804,6.092 -20.3,8.71c-8.406,2.097 -8.834,2.122 -10.501,0.613c-1.139,-1.031 -3.928,-1.778 -8.097,-2.17c-12.938,-1.216 -26.045,-3.416 -31.652,-5.315c-4.681,-1.584 -6.787,-2.987 -11.175,-7.443c-5.852,-5.942 -13.059,-16.314 -17.313,-24.914c-3.969,-8.026 -8.054,-30.309 -8.2,-44.739l-0.112,-11.093l5.856,-15.086c8.066,-20.775 10.934,-27.346 14.681,-33.635c6.093,-10.229 8.672,-11.916 22.475,-14.705c7.157,-1.446 11.781,-1.677 30.616,-1.529l22.185,0.174l7.543,3.742z" data-paper-data="{&quot;wickUUID&quot;:&quot;21b3e24b-3ac5-40a6-bd8c-436c014a330e&quot;,&quot;wickType&quot;:&quot;path&quot;,&quot;originalStyle&quot;:{&quot;strokeColor&quot;:null,&quot;fillColor&quot;:[&quot;Color&quot;,0,0,0],&quot;strokeWidth&quot;:1}}" id="21b3e24b-3ac5-40a6-bd8c-436c014a330e" fill="#000000"/><path d="M191.76678,256.91671c-2.596,3.082 -8.666,16.552 -14.296,31.725c-10.13,27.299 -13.721,41.064 -15.28,58.569c-0.304,3.416 -1.108,10.005 -1.787,14.642c-0.678,4.637 -1.873,14.221 -2.654,21.298c-0.781,7.077 -2.163,17.659 -3.071,23.516c-0.909,5.857 -1.876,13.955 -2.15,17.996c-0.442,6.519 -0.301,7.544 1.251,9.096c2.156,2.157 3.655,2.205 6.12,0.196c1.646,-1.34 2.021,-2.972 2.748,-11.94c0.463,-5.714 1.221,-12.103 1.684,-14.199c0.462,-2.096 1.878,-12.996 3.146,-24.221c1.268,-11.226 2.478,-20.906 2.69,-21.512c0.211,-0.605 0.812,-5.397 1.335,-10.649c2.063,-20.718 4.477,-30.909 12.141,-51.256c7.635,-20.271 11.329,-29.296 13.019,-31.806c2.406,-3.573 2.957,-9.611 1.052,-11.517c-1.924,-1.924 -4.296,-1.899 -5.948,0.062z" data-paper-data="{&quot;wickUUID&quot;:&quot;2c2c6612-ddf4-4282-a1bd-7cca50260840&quot;,&quot;wickType&quot;:&quot;path&quot;,&quot;originalStyle&quot;:{&quot;strokeColor&quot;:null,&quot;fillColor&quot;:[&quot;Color&quot;,0,0,0],&quot;strokeWidth&quot;:1}}" id="2c2c6612-ddf4-4282-a1bd-7cca50260840" fill="#000000"/><path d="M258.05552,259.22386c-1.819,1.331 -1.795,1.703 1.178,17.793c2.021,10.936 4.33,13.363 9.068,9.527l2.042,-1.655l-1.672,-10.905c-1.331,-8.677 -2.108,-11.423 -3.798,-13.432c-2.335,-2.775 -4.312,-3.16 -6.818,-1.328z" data-paper-data="{&quot;wickUUID&quot;:&quot;501993ed-bdd1-43bc-a9e5-6d81921cee22&quot;,&quot;wickType&quot;:&quot;path&quot;,&quot;originalStyle&quot;:{&quot;strokeColor&quot;:null,&quot;fillColor&quot;:[&quot;Color&quot;,0,0,0],&quot;strokeWidth&quot;:1}}" id="501993ed-bdd1-43bc-a9e5-6d81921cee22" fill="#000000"/><path d="M289.12708,173.05608c-4.674,4.102 -3.744,15.334 1.723,20.8c3.419,3.42 5.875,3.711 8.405,0.996c3.563,-3.825 1.967,-16.672 -2.643,-21.283c-3.033,-3.032 -4.501,-3.133 -7.485,-0.513z" data-paper-data="{&quot;wickUUID&quot;:&quot;cc47efe4-1fd8-40b0-8703-e6815f19164d&quot;,&quot;wickType&quot;:&quot;path&quot;,&quot;originalStyle&quot;:{&quot;strokeColor&quot;:null,&quot;fillColor&quot;:[&quot;Color&quot;,0,0,0],&quot;strokeWidth&quot;:1}}" id="cc47efe4-1fd8-40b0-8703-e6815f19164d" fill="#000000"/><path d="M232.11985,194.13992c-3.575,1.44 -4.791,4.518 -4.451,11.264c0.259,5.142 0.735,6.735 2.827,9.479c2.259,2.961 2.877,3.27 6.059,3.031c2.645,-0.198 4,-0.879 5.342,-2.684c3.755,-5.048 1.33,-17.981 -3.876,-20.673c-2.866,-1.483 -3.197,-1.506 -5.901,-0.417z" data-paper-data="{&quot;wickUUID&quot;:&quot;a677abf2-0706-4d1b-b270-b0d179446a7f&quot;,&quot;wickType&quot;:&quot;path&quot;,&quot;originalStyle&quot;:{&quot;strokeColor&quot;:null,&quot;fillColor&quot;:[&quot;Color&quot;,0,0,0],&quot;strokeWidth&quot;:1}}" id="a677abf2-0706-4d1b-b270-b0d179446a7f" fill="#000000"/><path d="M291.04919,161.51971c-2.364,2.219 -15.496,17.621 -20.09,23.562c-3.651,4.722 -3.945,4.682 -19.211,-2.621c-12.094,-5.785 -37.135,-14.347 -39.637,-13.553c-3.67,1.165 -4.045,6.56 -0.585,8.412c0.96,0.514 7.152,2.695 13.76,4.847c6.608,2.153 17.569,6.563 24.358,9.802c9.58,4.569 13.324,5.917 16.728,6.022c5.634,0.173 7.421,-1.161 16.43,-12.261c3.866,-4.763 9.357,-11.069 12.202,-14.013c2.845,-2.943 5.172,-5.911 5.172,-6.595c0,-1.649 -4.005,-5.599 -5.678,-5.599c-0.727,0 -2.279,0.899 -3.449,1.997z" data-paper-data="{&quot;wickUUID&quot;:&quot;ae912a51-8111-43a4-beee-624357e1707e&quot;,&quot;wickType&quot;:&quot;path&quot;,&quot;originalStyle&quot;:{&quot;strokeColor&quot;:null,&quot;fillColor&quot;:[&quot;Color&quot;,0,0,0],&quot;strokeWidth&quot;:1}}" id="ae912a51-8111-43a4-beee-624357e1707e" fill="#000000"/><path d="M115.99017,23.80928c-4.23,1.229 -6.836,4.639 -7.59,9.928c-1.124,7.891 -0.921,23.218 0.33,24.929c0.656,0.896 3.648,2.063 7.192,2.805c4.756,0.995 8.452,2.731 17.084,8.027c9.581,5.878 11.952,7.834 18.211,15.023c6.445,7.404 13.924,19.066 17.169,26.774c1.49,3.537 4.239,4.488 7.257,2.51c1.945,-1.274 2.213,-1.97 1.82,-4.732c-0.988,-6.957 -12.432,-24.635 -23.434,-36.197c-5.347,-5.62 -25.777,-18.277 -32.129,-19.905l-4.53,-1.161v-5.477c0,-3.012 0.253,-7.329 0.564,-9.593l0.564,-4.118h8.266c9.753,0 15.286,1.052 24.327,4.625c12.351,4.88 50.049,24.245 62.563,32.137c6.833,4.31 16.457,10.375 21.387,13.479c8.428,5.306 13.435,9.857 19.25,17.496c2.813,3.697 5.682,4.232 8.138,1.517c2.178,-2.406 1.324,-5.042 -3.791,-11.706c-5.231,-6.814 -10.205,-10.572 -32.683,-24.695c-21.889,-13.753 -59.186,-32.839 -74.864,-38.311c-11.246,-3.926 -27.72,-5.5 -35.101,-3.355z" data-paper-data="{&quot;wickUUID&quot;:&quot;02531a5e-62df-4a1e-a4a6-fe2d90c18da1&quot;,&quot;wickType&quot;:&quot;path&quot;,&quot;originalStyle&quot;:{&quot;strokeColor&quot;:null,&quot;fillColor&quot;:[&quot;Color&quot;,0,0,0],&quot;strokeWidth&quot;:1}}" id="02531a5e-62df-4a1e-a4a6-fe2d90c18da1" fill="#000000"/><path d="M78.76722,49.00073c-2.44,0.646 -7.432,1.695 -11.093,2.332c-5.119,0.89 -7.218,1.716 -9.096,3.579c-3.039,3.017 -3.09,5.461 -0.303,14.617c1.175,3.862 2.37,8.019 2.654,9.239c1.039,4.454 1.646,4.73 10.596,4.825c8.25,0.087 8.632,0.186 16.717,4.314c4.774,2.438 12.214,7.411 17.591,11.758c5.125,4.143 12.912,10.284 17.305,13.646c12.397,9.488 18.722,16.261 27.416,29.351c2.924,4.402 4.4,5.836 6.231,6.054c4.686,0.559 6.345,-3.454 3.614,-8.736c-4.699,-9.087 -17.164,-23.241 -27.338,-31.041c-4.482,-3.436 -12.142,-9.478 -17.023,-13.425c-17.824,-14.417 -27.445,-19.643 -39.23,-21.307l-7.284,-1.029l-1.67,-5.413c-0.918,-2.978 -1.434,-5.69 -1.147,-6.027c1.166,-1.367 17.765,-4.267 24.422,-4.267c3.916,0 10.199,0.661 13.962,1.47c6.391,1.373 6.991,1.372 9.116,-0.021c2.558,-1.676 3.031,-5.041 0.952,-6.767c-2.118,-1.758 -17.123,-4.388 -24.856,-4.356c-3.904,0.016 -9.096,0.557 -11.536,1.204z" data-paper-data="{&quot;wickUUID&quot;:&quot;f067cce1-f122-48cf-8c6e-46642176c563&quot;,&quot;wickType&quot;:&quot;path&quot;,&quot;originalStyle&quot;:{&quot;strokeColor&quot;:null,&quot;fillColor&quot;:[&quot;Color&quot;,0,0,0],&quot;strokeWidth&quot;:1}}" id="f067cce1-f122-48cf-8c6e-46642176c563" fill="#000000"/><path d="M94.74034,138.82175c-3.416,0.138 -10.363,1.158 -15.436,2.267c-11.21,2.451 -14.887,5.032 -13.936,9.785c0.314,1.574 2.192,5.17 4.171,7.993c1.98,2.822 6.018,10.214 8.974,16.427c2.957,6.212 5.517,11.458 5.69,11.656c0.173,0.199 2.016,0.656 4.095,1.017c13.741,2.382 21.254,4.74 32.257,10.122c8.052,3.939 12.116,6.449 13.245,8.184c0.896,1.376 8.322,9.29 16.503,17.587c14.406,14.61 21.987,23.531 25.079,29.51c1.249,2.416 1.99,2.881 4.592,2.881c4.342,0 5.802,-3.107 3.614,-7.695c-2.859,-5.994 -11.607,-16.635 -23.205,-28.226c-6.36,-6.356 -14.147,-14.502 -17.305,-18.103c-5.431,-6.193 -6.425,-6.879 -18.366,-12.684c-8.411,-4.089 -14.779,-6.563 -19.08,-7.414c-14.273,-2.823 -13.786,-2.485 -19.447,-13.527c-2.767,-5.397 -6.076,-11.344 -7.353,-13.217l-2.323,-3.405l2.904,-1.215c1.597,-0.669 7.862,-1.604 13.922,-2.079c11.511,-0.902 11.344,-0.92 32.908,3.461c7.544,1.532 17.556,5.853 23.566,10.169c3.855,2.768 4.185,2.849 6.444,1.587c3.729,-2.083 3.581,-5.307 -0.406,-8.807c-4.594,-4.034 -16.23,-9.428 -24.723,-11.46c-9.275,-2.22 -27.143,-5.466 -28.841,-5.24c-0.732,0.097 -4.126,0.289 -7.543,0.426z" data-paper-data="{&quot;wickUUID&quot;:&quot;f954a8da-82db-4aaf-8d6c-a83ae1a4e383&quot;,&quot;wickType&quot;:&quot;path&quot;,&quot;originalStyle&quot;:{&quot;strokeColor&quot;:null,&quot;fillColor&quot;:[&quot;Color&quot;,0,0,0],&quot;strokeWidth&quot;:1}}" id="f954a8da-82db-4aaf-8d6c-a83ae1a4e383" fill="#000000"/><path d="M101.15913,120.22173c-2.327,0.776 -5.222,2.329 -6.434,3.452c-1.916,1.776 -2.203,2.804 -2.203,7.882c0,10.319 4.178,15.886 9.371,12.484c1.992,-1.305 2.256,-1.956 1.761,-4.341c-2.437,-11.721 -2.608,-11.592 14.02,-10.534c10.672,0.679 13.351,1.137 15.812,2.702c6.154,3.913 6.707,4.063 9.138,2.47c3.091,-2.025 2.867,-4.952 -0.629,-8.23c-4.366,-4.096 -9.644,-5.708 -21.52,-6.574c-13.743,-1.002 -14.303,-0.982 -19.316,0.689z" data-paper-data="{&quot;wickUUID&quot;:&quot;c7acb8c0-851a-4085-b319-f45def0edda8&quot;,&quot;wickType&quot;:&quot;path&quot;,&quot;originalStyle&quot;:{&quot;strokeColor&quot;:null,&quot;fillColor&quot;:[&quot;Color&quot;,0,0,0],&quot;strokeWidth&quot;:1}}" id="c7acb8c0-851a-4085-b319-f45def0edda8" fill="#000000"/><path d="M364.56096,255.03995c-1.722,0.635 -5.207,2.206 -7.745,3.492c-7.944,4.025 -9.34,10.376 -3.815,17.352l2.715,3.428l-2.211,4.75c-1.216,2.613 -5.483,14.635 -9.481,26.715c-3.998,12.08 -7.549,21.963 -7.89,21.963c-0.342,0 -10.424,-10.482 -22.405,-23.294c-32.855,-35.134 -45.265,-47.739 -46.98,-47.718c-1.899,0.023 -5.102,3.086 -5.102,4.88c0,1.478 5.343,7.407 33.346,36.999c10.776,11.386 24.345,25.894 30.154,32.239c8.11,8.858 11.147,11.602 13.079,11.819c3.315,0.372 4.848,-1.032 5.99,-5.488c2.5,-9.754 15.521,-47.87 18.657,-54.612c3.387,-7.285 3.677,-7.629 6.482,-7.686c6.52,-0.135 11.205,-6.725 11.205,-15.762c0,-8.7 -6.703,-12.503 -15.999,-9.077z" data-paper-data="{&quot;wickUUID&quot;:&quot;c4b013b2-0fba-4404-92c5-2b2d9098ad75&quot;,&quot;wickType&quot;:&quot;path&quot;,&quot;originalStyle&quot;:{&quot;strokeColor&quot;:null,&quot;fillColor&quot;:[&quot;Color&quot;,0,0,0],&quot;strokeWidth&quot;:1}}" fill="#000000"/><path d="M112.62417,348.44543c-10.731,5.641 -11.242,18.09 -0.958,23.337c10.13,5.168 15.781,5.665 19.713,1.733c2.482,-2.482 2.662,-3.058 2.15,-6.878c-0.707,-5.281 -5.615,-15.122 -8.621,-17.288c-3.379,-2.434 -8.637,-2.821 -12.284,-0.904z" data-paper-data="{&quot;wickUUID&quot;:&quot;d5ac47f1-791e-47b1-9a7b-1ca089adcb89&quot;,&quot;wickType&quot;:&quot;path&quot;,&quot;originalStyle&quot;:{&quot;strokeColor&quot;:null,&quot;fillColor&quot;:[&quot;Color&quot;,0,0,0],&quot;strokeWidth&quot;:1}}" fill="#000000"/><path d="M188.71271,259.12454c-1.622,0.946 -1.654,1.009 -12.108,23.921c-12.319,26.995 -17.389,38.775 -29.366,68.229c-12.259,30.147 -20.795,49.625 -22.404,51.123c-0.684,0.636 -0.807,-1.396 -0.43,-7.095c0.291,-4.392 0.794,-12.834 1.118,-18.758l0.59,-10.772l-2.375,-1.556c-2.919,-1.913 -6.448,-0.707 -7.131,2.437c-0.441,2.029 -1.726,23.459 -2.755,45.954c-0.584,12.766 -0.218,14.306 3.673,15.455c3.324,0.983 6.271,-2.7 13.986,-17.475c8.109,-15.53 12.949,-26.511 27.47,-62.318c8.567,-21.126 17.044,-40.527 31.557,-72.226c2.992,-6.535 5.44,-12.602 5.44,-13.482c0,-1.597 -3.126,-4.388 -4.856,-4.337c-0.501,0.015 -1.586,0.42 -2.409,0.9z" data-paper-data="{&quot;wickUUID&quot;:&quot;4a1ef44c-c838-4363-a5b8-c27d128f10f6&quot;,&quot;wickType&quot;:&quot;path&quot;,&quot;originalStyle&quot;:{&quot;strokeColor&quot;:null,&quot;fillColor&quot;:[&quot;Color&quot;,0,0,0],&quot;strokeWidth&quot;:1}}" fill="#000000"/><path d="M273.32365,237.24943c-16.253,3.756 -27.197,8.11 -28.181,11.211c-0.704,2.216 0.794,5.13 2.994,5.828c0.924,0.294 4.745,-0.701 8.557,-2.228c3.789,-1.517 11.998,-3.933 18.244,-5.369c13.529,-3.112 16.254,-5.377 11.813,-9.819c-2.144,-2.143 -2.576,-2.131 -13.427,0.377z" data-paper-data="{&quot;wickUUID&quot;:&quot;098c763a-3aa1-474a-934c-0f254894714f&quot;,&quot;wickType&quot;:&quot;path&quot;,&quot;originalStyle&quot;:{&quot;strokeColor&quot;:null,&quot;fillColor&quot;:[&quot;Color&quot;,0,0,0],&quot;strokeWidth&quot;:1}}" fill="#000000"/><path d="M182.67852,436.56516c-3.501,2.039 -10.857,20.593 -16.789,42.346c-2,7.334 -5.004,17.606 -6.676,22.826c-1.673,5.221 -3.678,11.997 -4.456,15.058c-0.779,3.061 -1.652,6.183 -1.942,6.937c-0.436,1.138 0.388,1.372 4.841,1.372h5.367l0.629,-3.357c0.346,-1.846 2.571,-9.6 4.946,-17.231c2.374,-7.631 5.804,-19.313 7.621,-25.959c3.663,-13.4 9.307,-29.103 12.063,-33.562c2.332,-3.772 2.27,-6.283 -0.196,-8.011c-2.304,-1.614 -3.232,-1.686 -5.408,-0.419z" data-paper-data="{&quot;wickUUID&quot;:&quot;11a4ed79-6c50-43c1-ae2d-cbc6c10e481a&quot;,&quot;wickType&quot;:&quot;path&quot;,&quot;originalStyle&quot;:{&quot;strokeColor&quot;:null,&quot;fillColor&quot;:[&quot;Color&quot;,0,0,0],&quot;strokeWidth&quot;:1}}" fill="#000000"/><path d="M276.00844,436.48603c-2.467,2.467 -2.247,4.226 0.897,7.163c2.342,2.188 13.207,18.107 31.775,46.556c2.954,4.526 5.714,8.701 6.134,9.277c0.799,1.098 -10.301,12.508 -20.274,20.839l-5.189,4.335l7.303,0.262l7.304,0.262l8.696,-8.439c4.783,-4.641 9.969,-9.097 11.524,-9.901c4.247,-2.196 4.594,-5.221 1.121,-9.773c-1.569,-2.057 -6.146,-8.775 -10.17,-14.929c-30.927,-47.291 -33.952,-50.821 -39.121,-45.652z" data-paper-data="{&quot;wickUUID&quot;:&quot;8536e141-4a21-4c4b-883f-635782df3d4a&quot;,&quot;wickType&quot;:&quot;path&quot;,&quot;originalStyle&quot;:{&quot;strokeColor&quot;:null,&quot;fillColor&quot;:[&quot;Color&quot;,0,0,0],&quot;strokeWidth&quot;:1}}" fill="#000000"/></g><g fill="none" fill-rule="nonzero" stroke="none" stroke-width="1" stroke-linecap="butt" stroke-linejoin="miter" stroke-miterlimit="10" stroke-dasharray="" stroke-dashoffset="0" font-family="sans-serif" font-weight="normal" font-size="12" text-anchor="start" style="mix-blend-mode: normal"/><g id="wick_project_gui" fill="none" fill-rule="nonzero" stroke="none" stroke-width="1" stroke-linecap="butt" stroke-linejoin="miter" stroke-miterlimit="10" stroke-dasharray="" stroke-dashoffset="0" font-family="sans-serif" font-weight="normal" font-size="12" text-anchor="start" style="mix-blend-mode: normal"/></g></svg>