<svg version="1.1" xmlns="http://www.w3.org/2000/svg" xmlns:xlink="http://www.w3.org/1999/xlink" width="1260" height="594" viewBox="0,0,1260,594"><g transform="translate(479.91246,62.26383) scale(0.94565,0.94565)"><g id="wick_project_bg" fill="#999999" fill-rule="nonzero" stroke="none" stroke-width="1" stroke-linecap="butt" stroke-linejoin="miter" stroke-miterlimit="10" stroke-dasharray="" stroke-dashoffset="0" font-family="none" font-weight="none" font-size="none" text-anchor="none" style="mix-blend-mode: normal"><rect x="0" y="0" width="720" height="480"/></g><g data-paper-data="{&quot;wickUUID&quot;:&quot;11390e5e-979f-4343-8732-6344747d7076&quot;,&quot;wickType&quot;:&quot;clipsandpaths&quot;}" fill="none" fill-rule="evenodd" stroke="none" stroke-width="1" stroke-linecap="butt" stroke-linejoin="miter" stroke-miterlimit="10" stroke-dasharray="" stroke-dashoffset="0" font-family="none" font-weight="none" font-size="none" text-anchor="none" style="mix-blend-mode: normal"><path d="M226.86604,72.70196c-21.809,1.56367 -37.51475,5.47692 -43.62775,10.85792c-2.30367,2.02733 -7.63377,9.92216 -7.15844,10.69116c0.11667,0.189 0.92289,1.51262 1.33422,1.51262c1.10133,0 5.75192,2.34807 7.67825,3.8774l1.90472,1.41553l1.88849,-0.64676c7.79867,-3.335 19.70106,-6.33854 37.24773,-9.39921c3.72367,-0.64967 9.18171,-1.70742 12.24138,-2.37109c9.85333,-2.137 9.91584,-2.15065 25.76184,-2.35098c24.77533,-0.31267 28.90116,0.22559 46.83349,6.08226c7.876,2.57233 9.27669,2.82116 10.13069,1.87783c0.396,-0.43767 1.3793,-2.18318 1.3093,-2.91085c-0.09033,-0.945 -0.84334,-1.77653 -2.33367,-2.6652c-2.19567,-1.309 -8.58505,-3.4331 -14.90472,-4.95943c-12.08667,-2.91933 -37.21082,-7.29583 -58.71949,-10.22883c-4.978,-0.67867 -15.34004,-1.0867 -19.58604,-0.78237z" data-paper-data="{&quot;wickUUID&quot;:&quot;419b653e-36f5-4329-a455-6a8f32595b58&quot;,&quot;wickType&quot;:&quot;path&quot;}" fill="#ff8000"/><path d="M188.38502,231.72669c-3.204,0.84767 -4.93453,1.94516 -6.63486,4.28049c-4.60767,6.329 -5.47071,7.07315 -8.03738,6.90482l-1.71531,-0.04025l-1.87226,3.40782c-1.45567,2.72367 -1.67076,3.41139 -1.34143,4.13406c0.20667,0.45367 0.44291,1.17955 0.44291,1.88988c0,1.65633 -1.57247,3.76443 -3.4598,4.6741c-1.27133,0.61267 -1.56709,1.08497 -3.84809,5.96997c-3.67333,7.86767 -9.08449,20.66196 -11.51916,27.20196c-6.30433,16.93467 -7.55603,25.48371 -8.5827,58.74204c-0.18967,6.14167 -0.35797,11.94538 -0.4483,12.35838c-0.26633,1.218 1.94417,2.4159 7.3575,3.4049c10.218,1.86667 17.7479,3.81806 31.56757,8.18073c4.921,1.55333 7.00146,1.69405 8.67546,1.55638c0.73033,-0.06033 1.05314,-0.85781 -0.22119,-8.05314c-3.436,-19.40233 -3.0283,-43.88474 0.96203,-57.15474c1.81533,-6.03733 3.70584,-9.47527 10.71384,-19.96094l4.98127,-7.49275l1.59211,-10.46196c0.853,-5.66633 2.00365,-12.7203 2.55398,-15.65363c1.503,-8.01267 1.40871,-8.17705 0.62004,-8.59938c-0.37467,-0.20033 -3.99669,-3.64388 -7.79769,-7.30921c-4.646,-4.48067 -7.59491,-7.03721 -8.72391,-7.59988c-1.919,-0.95633 -2.77796,-1.03732 -5.26463,-0.37965z" data-paper-data="{&quot;wickUUID&quot;:&quot;dae20d63-d5aa-413b-99e6-97602cd5585d&quot;,&quot;wickType&quot;:&quot;path&quot;}" fill="#ff8000"/><path d="M196.45698,162.46127c-0.825,0.323 -3.29178,1.598 -5.26611,2.752c-1.974,1.15367 -5.53907,2.93767 -7.84874,3.92234c-5.78,2.46467 -10.30123,5.58553 -14.83256,10.14586c-7.33533,7.38267 -12.36079,16.27029 -14.33979,25.38829c-0.652,3.004 -0.82546,4.83966 -0.82579,10.70466c-0.00067,7.40567 0.44167,10.82412 2.04967,15.95412c0.909,2.90033 3.04172,7.29057 4.31739,8.84624l1.99389,1.26633l1.44368,-2.42872c4.349,-7.79833 7.66514,-11.29441 11.93381,-12.57908c0.82967,-0.24967 1.76043,-0.6579 2.3551,-1.10023c0.59433,-0.44267 3.55607,-1.76908 6.7644,-3.01141c6.86267,-2.65733 7.83365,-2.88651 10.70865,-1.42251c2.732,1.391 9.38633,6.95264 15.29866,12.72731c1.609,1.57167 4.07822,2.54415 4.07822,2.26148c0,-0.89233 4.27951,-9.11884 6.37984,-12.29051c2.48233,-3.749 4.37717,-5.71323 6.57284,-6.73556c2.18433,-1.01733 2.07076,-1.05214 4.45376,0.13853c4.22533,2.11133 12.88122,10.84928 15.10155,15.25461c1.459,2.89433 1.34631,3.79418 0.00064,7.99485c-1.249,3.9 -1.53546,7.48796 -0.99646,12.12296c0.38067,3.27533 2.51727,14.18014 4.0766,20.84347c0.83533,3.56967 1.72539,4.01056 5.68106,2.91456c5.08767,-1.41 10.48109,-4.59535 13.90242,-8.07168c4.62633,-4.70067 7.31519,-14.29565 6.95019,-24.96298c-0.244,-7.12767 -0.47929,-9.43333 -1.60396,-15.16433c-2.916,-14.85867 -12.46321,-41.65609 -16.44388,-46.18976c-2.126,-2.42133 -10.24673,-7.2716 -17.8014,-10.51093c-7.114,-3.05 -24.84781,-7.22091 -37.82714,-8.89158c-4.659,-0.59967 -4.42887,-0.60166 -6.27654,0.12167z" data-paper-data="{&quot;wickUUID&quot;:&quot;ac91b72c-52d2-47aa-beee-5e32f6a7d0c7&quot;,&quot;wickType&quot;:&quot;path&quot;}" fill="#ffffff"/><path d="M228.07463,230.01882c-3.91733,4.65533 -9.03854,23.01552 -10.97854,39.37419c-0.807,6.80633 -0.4002,29.80747 0.7338,41.1728c0.697,6.98067 1.37846,10.63331 4.17713,22.24331c2.85267,11.83567 3.02727,13.0452 2.2726,15.7172c-1.00633,3.56233 -0.68093,4.96761 1.6354,9.77494c6.62767,13.75467 12.12775,19.08985 23.55642,23.02818c6.92667,2.387 11.01024,2.47869 25.73357,0.16069c7.178,-1.12967 8.31162,-2.03461 8.92129,-2.43228c0.528,-0.34433 -1.29886,-4.31117 -8.04486,-16.78017c-2.43,-4.49167 -6.86118,-12.67236 -9.88618,-18.26403c-15.53433,-28.716 -18.10776,-35.64316 -26.37809,-71.07383c-4.12,-17.65067 -4.93458,-27.38137 -2.94591,-34.76704l0.77375,-3.08089l-2.21702,-2.26131c-4.75067,-4.46433 -6.17436,-4.21309 -7.35336,-2.81176z" data-paper-data="{&quot;wickUUID&quot;:&quot;01778dc8-552a-41c1-8147-1ca203b3c297&quot;,&quot;wickType&quot;:&quot;path&quot;}" fill="#ff8000"/><path d="M271.31871,279.28381c-3.84467,2.79333 -14.45779,7.35692 -17.13912,7.35692c-0.53133,0 -0.7627,1.45208 0.27797,5.45441c4.03,15.50133 10.02604,28.39764 31.58604,67.93564c1.94933,3.575 4.99642,9.41421 6.77375,12.98188c2.96367,5.948 3.18132,6.49153 3.29799,8.55853c0.11,1.94433 0.39839,1.54877 -0.32561,2.77877c-1.627,2.76433 -5.44713,4.32332 -15.48746,6.32865c-9.63,1.92333 -12.6156,2.28072 -19.1346,2.29339c-6.72167,0.01267 -8.70718,-0.22932 -14.70185,-2.22032c-13.498,-4.48267 -20.16363,-10.64622 -28.2103,-26.03789l-2.65581,-5.1091l-1.26489,3.03257c0.64467,7.101 2.65427,18.97844 5.16227,30.50944c2.625,12.06733 6.6512,34.53234 8.29653,46.29767c1.17267,8.386 1.35451,12.04186 1.35584,26.93386l0.12287,14.92842l11.43884,3.95213c19.29867,6.30533 21.23133,6.72305 30.39966,6.71372c7.21267,-0.00767 12.22537,-0.56691 26.39037,-2.99091c20.47767,-3.50367 27.94877,-5.43434 40.42444,-10.44467c7.47133,-3.00067 7.53812,-3.03345 8.70412,-5.35245c1.37033,-2.72567 3.47361,-6.08097 4.51261,-7.0333c1.858,-1.70267 4.30069,-1.30026 6.53469,0.84007l1.85335,1.48609l4.21638,-2.32766c9.45033,-5.365 16.76205,-11.18058 16.76205,-12.92458c0,-1.11167 -7.82192,-19.46755 -11.27692,-26.32788c-0.63633,-1.264 -3.7922,-6.23322 -6.95887,-10.94722c-6.518,-9.702 -13.06382,-20.07124 -21.71882,-34.40457c-10.40533,-17.23133 -18.75147,-30.3871 -24.0058,-37.83877c-3.63967,-5.16233 -10.58477,-15.71928 -16.01077,-24.33761c-2.53933,-4.03333 -7.45988,-11.6759 -10.94088,-16.99257c-3.48067,-5.31667 -8.25681,-12.8877 -10.61648,-16.82937c-2.35967,-3.94167 -4.54671,-7.36929 -4.67604,-7.39829c-0.12933,-0.029 -1.97722,0.40233 -2.98555,1.135z" data-paper-data="{&quot;wickUUID&quot;:&quot;e0899cc8-f2d6-43d4-9499-4184f9d8a2b9&quot;,&quot;wickType&quot;:&quot;path&quot;}" fill="#8000ff"/><path d="M224.51696,217.9924c-2.953,2.485 -7.675,10.123 -10.208,16.513c-2.476,6.246 -5.054,17.934 -7.304,33.12l-2.055,13.874l-6.839,10.185c-7.555,11.251 -9.759,17.041 -11.277,29.625c-1.904,15.782 -1.073,33.981 2.278,49.927c0.554,2.637 0.412,2.909 -1.513,2.909c-1.169,0 -7.063,-1.645 -13.099,-3.657c-6.036,-2.011 -15.905,-4.544 -21.932,-5.629c-9.799,-1.763 -10.935,-2.158 -10.742,-3.728c0.119,-0.965 0.436,-9.207 0.705,-18.315c0.905,-30.648 2.633,-39.295 12.659,-63.372c5.848,-14.043 14.792,-32.57 18.755,-38.847c1.207,-1.912 3.191,-3.855 4.41,-4.318c3.054,-1.162 4.575,-4.688 3.263,-7.567c-2.163,-4.748 -8.819,-3.655 -13.9,2.281c-6.612,7.724 -25.224,48.3 -30.611,66.733c-3.189,10.913 -4.85,24.328 -4.917,39.719c-0.054,12.145 -0.816,21.866 -2.214,28.23c-0.436,1.982 -0.143,3.28 1.078,4.789c1.413,1.744 3.708,2.421 14.62,4.309c7.119,1.231 18.583,4.048 25.475,6.26c8.299,2.663 14.814,4.183 19.286,4.5c6.266,0.445 6.94,0.318 9.354,-1.758c2.931,-2.521 3.019,-1.071 -1.29,-21.266c-3.213,-15.054 -2.021,-44.447 2.196,-54.177l1.543,-3.559l2.524,11.636c1.389,6.401 3.759,15.753 5.268,20.784c1.509,5.031 2.743,11.109 2.743,13.507c0,3.455 0.916,6.159 4.41,13.022c7.822,15.364 13.435,21.245 24.682,25.857c12.262,5.029 20.319,5.335 39.289,1.492c13.267,-2.688 16.52,-5.009 15.393,-10.978c-0.292,-1.548 -4.588,-10.267 -9.546,-19.375c-24.023,-44.132 -28.532,-54.012 -32.882,-72.058c-8.68,-36.006 -9.372,-40.897 -6.842,-48.342c1.576,-4.635 1.576,-4.911 -0.002,-8.41c-0.9,-1.995 -4.627,-6.438 -8.314,-9.909c-7.567,-7.122 -9.954,-7.785 -14.444,-4.007zM233.97496,232.1344l3.274,3l-1.179,4.209c-1.579,5.639 -0.751,16.535 2.232,29.371c10.087,43.408 10.684,44.934 35.074,89.617c6.136,11.242 10.978,20.617 10.761,20.835c-0.516,0.515 -13.86,2.746 -20.953,3.502c-6.522,0.696 -13.146,-0.928 -21.187,-5.195c-6.142,-3.259 -9.915,-7.812 -14.981,-18.079c-3.268,-6.623 -3.457,-7.403 -2.438,-10.069c1.148,-3.003 0.933,-4.562 -2.557,-18.593c-3.177,-12.774 -3.969,-18.941 -4.652,-36.253c-0.768,-19.441 -0.199,-26.596 3.455,-43.414c2.389,-10.999 6.956,-21.931 9.163,-21.931c0.393,0 2.188,1.35 3.988,3z" data-paper-data="{&quot;wickUUID&quot;:&quot;ac7bbed8-3167-4608-8b66-ebe2ebfab202&quot;,&quot;wickType&quot;:&quot;path&quot;}" fill="#000000"/><path d="M185.9186,221.10345c-2.215,0.901 -5.288,2.098 -6.829,2.661c-2.62,0.956 -4.068,2.886 -9.068,12.082c-1.575,2.896 -0.08,6.49 3.025,7.27c3.143,0.789 4.691,-0.246 7.949,-5.312c2.157,-3.354 3.479,-4.412 6.714,-5.374c4.925,-1.464 5.371,-1.206 15.818,9.148c7.73,7.661 9.76,8.525 12.826,5.459c3.741,-3.741 1.319,-7.905 -10.671,-18.343c-11.866,-10.33 -12.46,-10.558 -19.764,-7.591z" data-paper-data="{&quot;wickUUID&quot;:&quot;2a07e924-0fc7-4c37-8c3f-d317d34e34d3&quot;,&quot;wickType&quot;:&quot;path&quot;}" fill="#000000"/><path d="M193.93375,152.1047c-1.254,0.381 -4.074,1.825 -6.266,3.209c-2.193,1.385 -6.267,3.412 -9.054,4.505c-6.549,2.567 -11.616,6.141 -17.894,12.623c-15.715,16.225 -21.438,38.298 -15.464,59.651c2.684,9.592 5.729,14.759 12.439,21.105c5.239,4.955 7.536,5.576 10.322,2.791c2.906,-2.907 2.225,-5.46 -2.755,-10.328c-2.5,-2.443 -5.488,-6.053 -6.639,-8.022c-4.91,-8.4 -6.443,-23.376 -3.548,-34.668c3.679,-14.349 15.834,-28.615 28.424,-33.361c2.362,-0.89 5.987,-2.692 8.056,-4.004c2.07,-1.312 4.77,-2.649 6.001,-2.971c3.65,-0.956 33.474,5.099 41.176,8.359c9.991,4.23 17.658,8.737 19.67,11.563c3.64,5.111 11.35,26.116 14.798,40.312c4.276,17.608 3.817,31.051 -1.409,41.294c-2.82,5.528 -11.659,11.074 -19.323,12.124c-6.884,0.944 -9.536,5.386 -5.578,9.344c2.766,2.766 9.437,1.987 18.061,-2.108c8.467,-4.021 14.084,-9.125 17.136,-15.572c6.533,-13.797 6.588,-29.211 0.191,-53.585c-2.083,-7.937 -8.716,-26.56 -11.699,-32.846c-2.621,-5.523 -7.491,-10.339 -14.199,-14.041c-12.994,-7.172 -20.346,-9.705 -37.858,-13.041c-16.953,-3.23 -20.52,-3.568 -24.588,-2.333z" data-paper-data="{&quot;wickUUID&quot;:&quot;2045ed46-b377-43ff-a595-f9388a002b55&quot;,&quot;wickType&quot;:&quot;path&quot;}" fill="#000000"/><path d="M161.80568,96.50162c-3.518,1.887 -6.327,6.533 -6.308,10.434c0.025,5.041 2.673,14.009 5.062,17.141c3.849,5.046 10.074,7.157 14.406,4.883c0.855,-0.448 3.367,-1.454 5.583,-2.235c6.406,-2.257 9.69,-4.694 11.234,-8.334c3.009,-7.093 -0.88,-16.286 -8.814,-20.836c-4.031,-2.312 -5.564,-2.673 -11.386,-2.681c-4.818,-0.006 -7.592,0.456 -9.777,1.628z" data-paper-data="{&quot;wickUUID&quot;:&quot;5e78eb5b-9f4d-49a1-93a9-e7b59c45108b&quot;,&quot;wickType&quot;:&quot;path&quot;}" fill="#000000"/><path d="M220.38145,62.61288c-18.128,1.424 -33.94,5.807 -41.795,11.584c-5.963,4.385 -11.017,12.016 -14.555,21.974c-1.756,4.944 -3.189,9.492 -3.184,10.108c0.013,1.745 3.394,4.699 5.379,4.699c2.926,0 5.006,-2.928 7.588,-10.68c2.235,-6.713 6.701,-14.052 10.245,-16.836c6.391,-5.022 22.494,-8.96 41.245,-10.088c10.603,-0.638 13.914,-0.459 27.005,1.459c47.491,6.957 70.59,12.576 69.818,16.984c-0.559,3.192 -1.767,3.24 -10.135,0.405c-17.636,-5.975 -21.686,-6.59 -43.274,-6.568c-16.86,0.017 -20.852,0.291 -27.749,1.911c-4.431,1.04 -13.091,2.711 -19.245,3.713c-18.033,2.935 -34.944,8.197 -39.61,12.326c-1.755,1.553 -2.036,4.823 -0.64,7.433c1,1.868 5.076,2.348 7.813,0.921c8.899,-4.642 17.73,-7.104 37.275,-10.394c7.338,-1.235 15.797,-2.885 18.798,-3.667c4.043,-1.054 9.974,-1.434 22.91,-1.468c15.899,-0.042 18.311,0.164 27.049,2.304c5.276,1.293 13.272,3.771 17.768,5.507c9.997,3.861 11.674,3.917 14.56,0.486c2.18,-2.591 5.622,-10.591 6.548,-15.222c0.553,-2.766 -2.184,-6.562 -6.254,-8.674c-12.186,-6.324 -21.96,-8.683 -62.716,-15.137c-21.896,-3.468 -31.509,-4.128 -44.844,-3.08z" data-paper-data="{&quot;wickUUID&quot;:&quot;eacdcdd3-8c58-4100-be8a-088a35b80383&quot;,&quot;wickType&quot;:&quot;path&quot;}" fill="#000000"/><path d="M180.54801,104.71178c-3.594,3.594 -1.43,7.951 5.146,10.361c28.564,10.468 40.716,16.329 54.828,26.442c8.901,6.379 28.541,23.667 31.622,27.834c1.028,1.39 2.287,5.402 2.951,9.399c0.636,3.835 1.574,9.39 2.084,12.344c1.584,9.169 1.146,22.791 -1.383,43.1c-0.537,4.311 -0.418,4.713 1.838,6.191c3.573,2.341 6.865,0.91 8.357,-3.634c3.445,-10.488 3.738,-37.068 0.613,-55.516c-3.063,-18.079 -2.373,-17.071 -25.494,-37.271c-16.921,-14.783 -35.066,-25.472 -57.288,-33.748c-6.647,-2.476 -13.582,-5.129 -15.413,-5.897c-4.36,-1.828 -5.705,-1.761 -7.861,0.395z" data-paper-data="{&quot;wickUUID&quot;:&quot;98ef79b8-aee8-4db2-8d38-e36849a1c3a4&quot;,&quot;wickType&quot;:&quot;path&quot;}" fill="#000000"/><path d="M271.54283,266.57725c-0.815,0.9 -1.482,2.343 -1.482,3.206c0,2.032 9.09,17.79 17.844,30.937c3.78,5.675 10.262,15.757 14.405,22.403c4.143,6.646 10.829,16.717 14.858,22.378c4.029,5.662 13.851,21.17 21.827,34.463c7.976,13.292 17.037,27.808 20.136,32.257c3.1,4.449 6.829,10.114 8.288,12.589c2.902,4.921 12.782,27.2 12.678,28.587c-0.035,0.474 -1.391,1.962 -3.012,3.307c-12.325,10.22 -42.465,24.328 -59.811,27.996c-18.196,3.848 -37.691,6.856 -44.975,6.941c-8.68,0.1 -13.236,-0.865 -29.763,-6.311l-12.756,-4.202v-16.81c0,-15.431 -0.294,-18.582 -3.593,-38.446c-1.977,-11.901 -4.81,-26.897 -6.295,-33.325c-3.488,-15.092 -5.769,-32.028 -7.542,-55.997c-0.782,-10.585 -1.813,-21.178 -2.29,-23.541c-0.477,-2.363 -0.867,-6.895 -0.867,-10.07c0,-6.26 -1.778,-9.355 -5.371,-9.355c-3.661,0 -5.373,3.08 -5.349,9.622c0.012,3.324 0.393,7.654 0.847,9.623c0.453,1.969 1.462,12.04 2.241,22.378c1.897,25.165 4.394,43.764 8.052,59.974c1.666,7.385 4.469,22.203 6.228,32.929c2.96,18.052 3.198,20.926 3.198,38.664c0,18.605 0.059,19.229 2.014,21.427c2.574,2.894 27.893,11.464 40.057,13.559c11.38,1.959 23.986,0.644 55.498,-5.792c24.615,-5.027 55.735,-19.94 70.471,-33.771c6.988,-6.559 6.981,-6.048 0.292,-20.917c-8.093,-17.991 -9.825,-21.207 -17.709,-32.881c-4.245,-6.285 -14.117,-22.069 -21.937,-35.076c-7.82,-13.006 -17.566,-28.312 -21.656,-34.014c-4.091,-5.702 -11.18,-16.41 -15.754,-23.795c-4.575,-7.384 -11.407,-18.059 -15.183,-23.72c-3.776,-5.662 -8.407,-13.114 -10.291,-16.56c-1.884,-3.447 -4.238,-7.172 -5.231,-8.28c-2.189,-2.443 -6.035,-2.622 -8.067,-0.377z" data-paper-data="{&quot;wickUUID&quot;:&quot;0d8a3239-52b3-402f-93c1-96d679746a1f&quot;,&quot;wickType&quot;:&quot;path&quot;}" fill="#000000"/><path d="M180.20424,375.822c-2.018,2.23 -6.762,13.447 -6.793,16.061c-0.033,2.859 1.386,5.369 5.408,9.564c1.888,1.969 5.226,5.982 7.417,8.916l3.984,5.336l-1.744,4.424c-2.265,5.745 -1.587,8.633 3.195,13.625c4.214,4.397 7.049,5.002 11.703,2.493c1.477,-0.796 4.968,-2.601 7.759,-4.011c4.129,-2.086 5.273,-3.169 6.146,-5.812c1.672,-5.068 0.668,-11.194 -2.696,-16.435c-4.488,-6.994 -8.683,-8.583 -14.872,-5.631l-3.276,1.562l-2.349,-3.122c-1.292,-1.717 -4.047,-4.965 -6.123,-7.217l-3.774,-4.095l2.655,-5.615c3.089,-6.531 3.256,-8.213 1.018,-10.238c-2.176,-1.97 -5.782,-1.878 -7.658,0.195z" data-paper-data="{&quot;wickUUID&quot;:&quot;1cd498cf-e321-4548-ad1a-9585e45dd42a&quot;,&quot;wickType&quot;:&quot;path&quot;}" fill="#000000"/><path d="M202.38901,312.17128c-1.546,1.033 -3.062,4.378 -4.485,9.897c-0.721,2.796 -2.77,8.206 -4.553,12.023c-2.766,5.922 -3.094,7.264 -2.234,9.15c1.193,2.62 4.627,3.709 7.255,2.303c3.421,-1.831 10.416,-18.293 11.437,-26.919c0.372,-3.14 0.13,-4.474 -1.023,-5.627c-1.567,-1.567 -4.685,-1.97 -6.397,-0.827z" data-paper-data="{&quot;wickUUID&quot;:&quot;1ea2f9c1-7d24-44c7-93dc-ffeedac7ef44&quot;,&quot;wickType&quot;:&quot;path&quot;}" fill="#000000"/><path d="M350.45309,466.12028c-3.051,3.559 -7.363,12.533 -11.061,23.019c-3.887,11.022 -12.004,29.707 -14.391,33.125c-0.678,0.972 -1.232,2.079 -1.232,2.462c0,0.383 2.76,0.696 6.134,0.696h6.134l4.564,-10.076c2.511,-5.543 6.538,-15.53 8.949,-22.196c2.412,-6.665 5.444,-13.718 6.738,-15.673c3.413,-5.158 3.924,-8.705 1.589,-11.04c-2.292,-2.292 -5.611,-2.434 -7.424,-0.317z" data-paper-data="{&quot;wickUUID&quot;:&quot;fb419e58-6b8e-43a1-ba45-7b35918fa4fb&quot;,&quot;wickType&quot;:&quot;path&quot;}" fill="#000000"/><path d="M379.71838,456.83132c-1.217,0.89 -2.139,3.792 -3.34,10.518c-3.293,18.435 -3.229,20.337 0.739,22.145c1.942,0.885 2.75,0.83 4.483,-0.305c1.162,-0.762 2.305,-2.286 2.539,-3.388c1.665,-7.836 3.14,-16.249 3.667,-20.92c0.549,-4.869 0.405,-5.705 -1.275,-7.385c-2.19,-2.19 -4.428,-2.409 -6.813,-0.665z" data-paper-data="{&quot;wickUUID&quot;:&quot;ce2eb126-b55d-434b-b2ce-f10c60aead0f&quot;,&quot;wickType&quot;:&quot;path&quot;}" fill="#000000"/></g><g fill="none" fill-rule="nonzero" stroke="none" stroke-width="1" stroke-linecap="butt" stroke-linejoin="miter" stroke-miterlimit="10" stroke-dasharray="" stroke-dashoffset="0" font-family="sans-serif" font-weight="normal" font-size="12" text-anchor="start" style="mix-blend-mode: normal"/><g id="wick_project_gui" fill="none" fill-rule="nonzero" stroke="none" stroke-width="1" stroke-linecap="butt" stroke-linejoin="miter" stroke-miterlimit="10" stroke-dasharray="" stroke-dashoffset="0" font-family="sans-serif" font-weight="normal" font-size="12" text-anchor="start" style="mix-blend-mode: normal"/></g></svg>