<svg version="1.1" xmlns="http://www.w3.org/2000/svg" xmlns:xlink="http://www.w3.org/1999/xlink" width="1260" height="594" viewBox="0,0,1260,594"><g transform="translate(479.91246,62.26383) scale(0.94565,0.94565)"><g id="wick_project_bg" fill="#999999" fill-rule="nonzero" stroke="none" stroke-width="1" stroke-linecap="butt" stroke-linejoin="miter" stroke-miterlimit="10" stroke-dasharray="" stroke-dashoffset="0" font-family="none" font-weight="none" font-size="none" text-anchor="none" style="mix-blend-mode: normal"><rect x="0" y="0" width="720" height="480"/></g><g data-paper-data="{&quot;wickUUID&quot;:&quot;9a970e39-7bc1-4b94-88c6-17ea2eb352e2&quot;,&quot;wickType&quot;:&quot;clipsandpaths&quot;}" fill="none" fill-rule="evenodd" stroke="none" stroke-width="1" stroke-linecap="butt" stroke-linejoin="miter" stroke-miterlimit="10" stroke-dasharray="" stroke-dashoffset="0" font-family="none" font-weight="none" font-size="none" text-anchor="none" style="mix-blend-mode: normal"><path d="M80.0401,266.15148c-0.71,2.42967 -1.20196,5.27425 -1.21763,5.42025c-0.02733,0.25367 6.02888,2.91686 6.66621,2.91686c0.169,0 1.24023,-1.47598 1.11956,-1.98031c-0.296,-1.23667 -3.28225,-10.09102 -3.57025,-10.61569c-0.126,-0.23 -2.28789,1.82889 -2.99789,4.25889z" data-paper-data="{&quot;wickUUID&quot;:&quot;cbe94789-6385-44ab-b5eb-ec2b1a3194e2&quot;,&quot;wickType&quot;:&quot;path&quot;}" fill="#ff8000"/><path d="M91.4457,251.19484c-1.711,1.71133 -1.70872,1.90313 1.19328,10.87746c2.797,8.651 4.11974,13.26883 4.39074,15.31716l0.5171,2.113l5.14358,2.50165c3.089,1.48967 5.57629,2.30852 5.71096,2.09019c0.21767,-0.35167 7.39391,-5.1031 8.01958,-5.31177c0.18333,-0.061 -0.22128,-2.11737 -1.07595,-3.57537c-2.66067,-4.53933 -4.54604,-10.30187 -5.05271,-15.44587l-0.30856,-2.45841l-1.67198,-0.5557c-0.732,-0.117 -1.54065,-0.5431 -2.10165,-1.09943c-2.03267,-2.01567 -8.82164,-5.8948 -10.99531,-6.29013c-1.153,-0.21 -2.50375,0.57222 -3.76908,1.83722z" data-paper-data="{&quot;wickUUID&quot;:&quot;d817476b-a27e-4b6c-b930-18d889cc28e2&quot;,&quot;wickType&quot;:&quot;path&quot;}" fill="#ff8000"/><path d="M74.21454,287.66951c-5.61233,20.44733 -16.20092,54.53877 -20.63325,66.43377c-1.269,3.405 -2.56007,7.22814 -2.86974,8.49814c-0.30967,1.27 -0.15811,3.61142 -0.25078,3.93209c-0.15767,0.54533 0.72794,0.64939 9.29694,0.64939l9.68799,-0.16004l3.96285,-9.62893c2.01767,-5.08767 5.47744,-13.94404 7.69044,-19.68604c4.732,-12.27833 9.73097,-24.669 11.97397,-29.67933l1.65875,-3.83257l-1.1637,-3.62282c-0.621,-1.82533 -1.77598,-5.83627 -2.56965,-8.9236c-0.79333,-3.08767 -1.86067,-6.17187 -2.018,-6.3282c-0.197,-0.19567 -12.07072,-4.86904 -12.25605,-4.82671c-0.00667,0.00167 -1.51644,3.55552 -2.50977,7.17485z" data-paper-data="{&quot;wickUUID&quot;:&quot;e4cfcec2-701f-4e5e-a60f-f7e090f1f352&quot;,&quot;wickType&quot;:&quot;path&quot;}" fill="#ff8000"/><path d="M21.82549,272.94615c-0.20333,0.512 -1.22937,3.38575 -2.2897,6.41075c-2.43067,6.93567 -4.20797,11.37277 -9.40364,23.4701c-9.72333,22.638 -22.42065,50.9398 -29.23165,65.15613c-7.02267,14.65767 -11.04891,23.38713 -11.24491,24.36746c-0.17,0.85 0.38526,2.10925 2.09093,3.33092c2.53533,1.81533 12.73339,6.95031 21.61239,10.88231c11.53033,5.10567 24.38355,10.31461 25.86655,10.48228l2.18969,0.04103l0.55289,-1.98983c0.38033,-2.379 0.99587,-16.49776 1.71754,-39.39476c0.92,-29.19267 1.45868,-42.18645 2.82635,-68.16712c0.55467,-10.533 1.33791,-29.12413 1.33791,-31.7248c0,-0.608 -0.77418,-1.75391 -2.29118,-2.78424l-2.41309,-1.55815z" data-paper-data="{&quot;wickUUID&quot;:&quot;1fc2de48-684e-4887-ae6c-24b3469affaf&quot;,&quot;wickType&quot;:&quot;path&quot;}" fill="#ff8000"/><path d="M77.26125,89.12406c-4.32033,0.616 -6.91429,1.99113 -7.96362,4.02713c-0.50367,0.977 -1.1261,6.72443 -1.13677,11.1711l0.11874,4.06185l3.05474,0.92324c13.95933,3.03567 27.2448,7.19523 33.88013,10.6089c1.46667,0.75467 3.68005,2.17997 5.14838,3.2833c3.82367,2.87367 6.6474,4.82224 8.48507,5.87857c5.498,3.16067 17.81476,15.86946 23.98976,24.75179c1.131,1.62667 2.56197,2.6687 2.89397,2.5697c6.14333,-1.833 12.29153,-2.97561 23.50186,-4.36694c24.835,-3.082 43.06325,-3.71475 56.92358,-1.97842l2.24195,-0.08179l-0.07874,-2.67238c-0.522,-4.07133 -1.29676,-5.75758 -5.39909,-11.94825c-4.196,-6.332 -8.11639,-10.7516 -13.43939,-15.21127c-6.158,-5.15867 -7.1922,-5.66002 -24.40187,-11.77869c-34.237,-12.17233 -50.8088,-16.25666 -76.59713,-18.88199c-4.29333,-0.437 -28.69057,-0.71685 -31.22157,-0.35585z" data-paper-data="{&quot;wickUUID&quot;:&quot;dad969e4-04fd-4eab-ac8c-5bc21bd3d443&quot;,&quot;wickType&quot;:&quot;path&quot;}" fill="#ff8000"/><path d="M192.93643,158.17768c-2.32333,0.16667 -5.50693,0.41895 -6.99493,0.55728l-3.25501,1.67894l8.88209,6.33254c8.312,5.90633 28.5804,20.80408 49.09507,36.08541c11.203,8.34533 14.447,10.38656 15.32467,10.87423c0.83867,0.46633 1.30523,0.25566 9.1859,-15.47067c3.30733,-6.6 7.42326,-14.70143 9.13593,-17.9831c1.71267,-3.28167 2.90867,-7.04855 2.90867,-7.10955c0,-0.619 -10.41449,-4.81402 -19.47716,-7.80635c-11.33033,-3.74133 -20.27043,-5.79928 -29.8151,-6.87328c-4.24667,-0.478 -29.4198,-0.68445 -34.99013,-0.28545z" data-paper-data="{&quot;wickUUID&quot;:&quot;6cb7656f-0705-499c-9055-f201c379e3e4&quot;,&quot;wickType&quot;:&quot;path&quot;}" fill="#ffffff"/><path d="M128.37686,239.29512c-0.399,0.29 -2.28733,2.54663 -3.44666,4.6053c-1.96567,3.49067 -4.87483,7.11499 -6.02883,7.47032c-0.43833,0.135 -0.50968,1.16886 -0.01768,5.55686c0.307,2.73533 0.90931,5.78149 1.03898,6.11882c0.17,0.44167 1.97248,-0.64566 2.96315,-3.37533c2.03567,-5.609 2.62969,-7.23567 4.03536,-7.98834c2.88967,-1.54733 6.24252,0.73706 6.23152,4.22573c-0.00533,1.73233 -2.31138,8.34525 -4.77171,13.97192c-1.04233,2.38333 -2.01883,4.86869 -2.10916,5.15336c-0.097,0.30367 1.0826,2.41416 2.4856,4.26349c4.40533,5.80733 6.46819,7.55751 13.76219,11.66984c2.31367,1.30433 5.08751,2.49889 5.17484,2.49889c0.087,0 0.77909,-2.39973 0.89376,-4.6454c0.459,-9.00967 2.13073,-13.98538 5.2714,-15.47571c1.58,-0.74967 1.44298,-0.37463 3.49331,1.24604c1.99133,1.574 1.98951,1.83423 1.32718,5.11723c-0.812,4.02533 -1.14672,7.41608 -1.25705,12.88341l-0.03888,5.5511l3.22685,1.40161c1.47433,0.50467 3.91907,1.13304 5.25374,1.36204c2.25533,0.38667 2.78504,0.35959 4.69971,-0.32508c1.13267,-0.405 3.02393,-0.83886 4.16226,-0.95686l2.4304,-0.37536l0.53502,-2.08058c0.117,-0.84567 0.58905,-3.79198 1.04838,-6.54198c0.459,-2.75 0.9358,-6.11116 1.0618,-7.48616c0.12633,-1.375 0.34958,-2.63765 0.65358,-3.20632c0.69367,-1.297 2.11591,-2.68966 3.18258,-2.95766c1.21867,-0.30567 2.34564,0.24038 3.81497,1.63838c1.26233,1.20067 1.02989,0.6915 1.02956,2.7435c-0.00033,2.233 -0.72631,9.12132 -1.44598,13.75899l-0.29565,3.2611l2.86277,0.21399c1.111,-0.09567 2.33235,-0.33129 2.69902,-0.52096c0.36633,-0.18967 1.70969,-0.37128 2.99336,-0.40528c1.28333,-0.03367 3.50631,-0.40468 4.88431,-0.81401l2.99415,-1.04578l0.18018,-2.9025c-0.003,-1.31333 0.12822,-7.19469 0.29155,-13.07602l0.29652,-10.74972l-1.24556,-1.44612c-1.71767,-1.60033 -19.94349,-10.32867 -24.62082,-11.79134c-8.16267,-2.55267 -28.10641,-10.10302 -35.64074,-13.49302c-6.36033,-2.862 -12.50995,-4.17906 -14.05928,-3.05239z" data-paper-data="{&quot;wickUUID&quot;:&quot;de23409f-0a58-40d7-9ce6-f74b46114777&quot;,&quot;wickType&quot;:&quot;path&quot;}" fill="#ffffff"/><path d="M163.50787,161.3703c-5.41267,0.805 -12.13427,2.18769 -14.30227,2.93836c-1.118,0.387 -1.57273,0.74452 -1.81206,1.95519c-0.54933,2.77867 -3.51777,4.66036 -5.91777,3.75469c-0.89867,-0.33933 -1.28583,-0.00576 -2.5905,1.62991c-4.34467,5.44633 -10.56824,16.3072 -12.14224,21.17353c-1.38433,4.28033 -4.77982,18.2791 -6.38315,26.34277c-1.33133,6.69767 -2.49377,15.30129 -2.11977,15.67529c0.07667,0.077 2.11392,0.02273 2.95125,-1.04327c2.501,-3.18333 4.36723,-4.25307 8.11956,-4.2714c2.73767,-0.01333 11.16755,2.57683 16.40522,5.01116c6.11233,2.841 24.30478,9.78525 30.80211,11.75758c4.49867,1.36567 8.60599,3.12769 17.47932,7.50802c12.89567,6.36633 16.24681,8.42446 17.44248,11.00846c0.67,1.44833 0.5484,1.64709 0.64507,14.17842l0.10956,13.22181l2.91365,0.48856c3.15933,-0.326 10.43807,-3.29294 30.05074,-12.24827c3.3,-1.50667 8.06123,-3.58203 10.53623,-4.5917c5.72967,-2.338 8.17227,-3.62423 11.1506,-5.67723c5.03233,-3.468 6.81534,-6.38009 10.25234,-16.76876c3.54067,-10.70267 5.4122,-19.22719 6.1152,-27.84752c0.69633,-8.54433 -0.037,-35.7641 -1.01333,-37.60343c-0.13033,-0.246 -3.13011,1.93541 -4.93878,5.57308c-2.76067,5.55167 -3.137,6.67771 -2.75333,7.28271c1.01633,1.60333 1.34845,2.83827 2.65878,9.1606c1.80933,8.731 2.13073,11.34961 1.6864,15.33328c-0.74733,6.70067 -2.62311,9.35673 -6.64178,9.35673c-2.12133,0 -3.36917,-0.95753 -4.5675,-2.61153c-0.93733,-1.294 -2.47496,-5.05916 -3.18429,-7.69283l-0.91667,-1.859l-1.77382,0.94514c-0.88667,0.67633 -1.1912,0.87323 -2.6372,0.9779c-2.56033,0.185 -3.57681,-0.20628 -6.84914,-2.54528c-1.508,-1.07767 -2.92871,-1.97015 -2.97804,-1.92082c-0.04933,0.04933 -0.98689,1.45977 -0.79656,2.0891c0.664,2.19533 0.84054,8.21942 0.24954,10.72309c-1.53633,6.50833 -5.37199,10.56824 -9.15399,9.43524c-2.75033,-0.824 -3.55111,-2.39832 -5.08244,-7.17999c-2.45733,-7.67067 -1.86448,-16.17983 1.48419,-21.73916c0.65133,-1.08133 0.87194,-2.71212 0.82294,-2.74479c-0.049,-0.033 -7.81111,-5.74352 -17.16111,-12.61819c-21.21367,-15.59767 -36.46388,-26.67412 -41.66455,-30.26145c-4.299,-2.96567 -6.48229,-4.65172 -7.80596,-6.02772l-1.34963,-1.0518z" data-paper-data="{&quot;wickUUID&quot;:&quot;7fbf154c-7100-470d-aee6-faec58776e0e&quot;,&quot;wickType&quot;:&quot;path&quot;}" fill="#ffffff"/><path d="M116.61387,288.94619c-2.538,1.815 -5.34945,4.01108 -6.05278,4.69541c-0.932,0.907 -2.42231,3.52575 -5.17831,9.14042c-5.449,11.101 -9.14651,19.92524 -17.29018,41.26791c-4.893,12.82267 -9.02176,23.09744 -13.05176,32.48044c-1.89367,4.40833 -3.80916,9.12761 -4.19816,10.28161c-4.025,11.94867 -10.07397,54.56766 -8.8773,62.54833c0.21,1.39967 0.92281,2.5474 1.89648,2.9544c1.59833,0.66767 6.52327,1.94289 13.60127,3.51256c3.39167,0.75233 8.72341,1.99897 11.84008,2.76797l5.81134,1.41983l16.58726,-0.0358c25.875,-0.05767 46.15952,-1.11238 61.03752,-3.17305c5.11067,-0.708 11.75571,-2.03457 18.10138,-3.6229l4.07162,-1.04803l-2.39253,-1.65073c-1.1,-0.03167 -6.79089,-0.15518 -12.74922,-0.28185c-12.27333,-0.261 -11.88248,-0.14697 -13.72581,-2.92597c-1.249,-1.88333 -1.29115,-1.11173 0.05118,-2.88806c2.11067,-2.79367 1.72787,-2.70748 16.13087,-2.70748c8.03867,0 13.98535,0.15512 16.52402,0.42745c4.517,0.48467 14.56146,2.10675 18.70079,3.01808c1.51267,0.33333 3.71825,-0.50068 3.71825,-0.64268c0,-0.51 -3.02463,-8.765 -5.31596,-14.48167c-5.76067,-14.372 -12.10571,-28.72522 -17.89638,-40.48389c-7.925,-16.09333 -10.81018,-24.3107 -12.76718,-36.39237c-1.31367,-8.11167 -1.50737,-10.82193 -1.5007,-20.2686c0.00767,-10.40433 0.22577,-11.9863 2.66277,-19.67597c0.65933,-2.08067 0.86194,-4.61234 0.77661,-4.69767c-0.30967,-0.31 -3.19401,0.35076 -4.28734,1.15743c-5.232,3.86 -22.6367,-0.04832 -40.21203,-9.03865c-9.358,-4.78667 -14.46629,-8.38293 -18.01562,-12.60026c-1.06833,-1.26967 -2.65972,-2.47672 -2.78005,-2.48905c-0.12033,-0.01233 -2.68213,1.61817 -5.22013,3.43284z" data-paper-data="{&quot;wickUUID&quot;:&quot;88cfe596-1a7e-4934-9f64-1093aaa913db&quot;,&quot;wickType&quot;:&quot;path&quot;,&quot;originalStyle&quot;:{&quot;strokeColor&quot;:null,&quot;fillColor&quot;:[&quot;Color&quot;,0.50196,0,1],&quot;strokeWidth&quot;:1}}" fill="#8000ff"/><path d="M24.71299,243.10933c-2.592,1.177 -4.669,3.084 -6.559,6.023c-2.476,3.849 -2.711,4.796 -2.239,9.024c0.375,3.353 0.131,5.491 -0.841,7.37c-0.753,1.456 -3.122,7.387 -5.265,13.18c-7.097,19.19 -24.736,59.379 -38.247,87.143c-7.328,15.059 -13.324,28.382 -13.324,29.607c0,2.091 3.228,6.12 4.902,6.12c0.418,0 3.816,1.784 7.551,3.964c7.087,4.135 15.85,8.169 35.436,16.312c6.401,2.661 12.797,5.682 14.214,6.715c2.766,2.015 6.381,2.452 7.88,0.953c2.424,-2.424 3.478,-15.866 5.174,-65.987c0.967,-28.555 2.169,-55.744 2.671,-60.421c0.502,-4.677 0.919,-13.779 0.928,-20.226c0.022,-16.993 -1.826,-16.474 25.349,-7.128c12.12,4.169 27.329,10.029 33.798,13.023c7.428,3.438 12.389,5.244 13.464,4.903c2.263,-0.718 3.731,-3.621 2.999,-5.928c-1.011,-3.183 -21.971,-12.491 -47.191,-20.957l-22.822,-7.661l-0.577,-3.607c-0.935,-5.85 -3.738,-10.377 -7.666,-12.381c-4.316,-2.202 -4.87,-2.204 -9.635,-0.041zM26.91099,287.83533c-0.241,7.172 -0.909,20.894 -1.485,30.494c-0.575,9.6 -1.584,35.179 -2.241,56.841c-0.657,21.662 -1.471,40.056 -1.808,40.876c-0.539,1.31 -1.88,0.969 -11.064,-2.816c-25.406,-10.472 -40.438,-17.993 -40.438,-20.235c0,-0.605 4.873,-11.107 10.829,-23.337c9.343,-19.186 35.975,-79.697 37.954,-86.239c0.372,-1.231 1.457,-4.345 2.411,-6.92l1.734,-4.682l2.274,1.49l2.273,1.489l-0.439,13.039z" data-paper-data="{&quot;wickUUID&quot;:&quot;be9f9794-55b5-4291-b5ae-7ffb1a09f01d&quot;,&quot;wickType&quot;:&quot;path&quot;,&quot;originalStyle&quot;:{&quot;strokeColor&quot;:null,&quot;fillColor&quot;:[&quot;Color&quot;,0,0,0],&quot;strokeWidth&quot;:1}}" fill="#000000"/><path d="M28.29652,114.13575c-4.881,0.33967 -7.44043,0.88421 -10.69676,2.25754c-4.78333,2.01733 -7.63557,4.15455 -8.7329,6.30555c-1.147,2.248 -1.22839,5.19034 -0.10039,12.52801c0.56367,3.66667 1.41884,10.09016 1.89417,14.21516c1.09267,9.47867 2.35081,19.43757 3.06314,24.24824c0.48267,3.258 1.0691,4.36556 1.67343,4.51323c0.38067,0.093 3.99894,0.62606 7.84894,1.10239c18.50933,2.29067 28.21288,5.62353 41.43521,14.3082c13.44833,8.83333 23.74277,18.36216 40.8081,37.71649l2.96584,3.09279l1.21276,-3.09042c0.39433,-4.261 1.51145,-11.53146 2.53378,-16.47679c1.528,-7.393 4.7962,-20.10968 6.29287,-24.44968c2.98267,-8.65033 9.99818,-20.52065 15.64318,-26.48432l2.72004,-3.09977l-2.19001,-3.6147c-4.15633,-6.21367 -12.42279,-14.88065 -18.54912,-19.45565c-5.495,-4.10333 -15.3538,-10.52925 -18.02813,-11.76492c-8.194,-3.78567 -30.26198,-9.34777 -44.28165,-11.1581c-6.16933,-0.797 -18.9805,-1.14825 -25.5125,-0.69325z" data-paper-data="{&quot;wickUUID&quot;:&quot;88c49c91-8f37-4621-b5d4-3d0cd42e82e6&quot;,&quot;wickType&quot;:&quot;path&quot;}" fill="#ff8000"/><path d="M192.3139,149.20799c-12.526,0.805 -31.416,3.129 -40.076,4.931c-11.966,2.489 -18.322,7.136 -25.401,18.572c-7.089,11.449 -8.708,15.367 -12.339,29.851c-4.973,19.837 -6.191,29.808 -5.564,45.558c0.684,17.185 2.231,22.51 9.512,32.746c7.537,10.596 10.59,13.192 23.461,19.955c17.562,9.226 36.061,13.387 40.854,9.187c0.823,-0.721 3.914,-1.58 6.868,-1.91c2.954,-0.329 10.204,-1.954 16.112,-3.611c5.908,-1.657 12.614,-3.437 14.902,-3.956c2.288,-0.519 9.941,-3.609 17.007,-6.868c7.066,-3.259 15.792,-7.103 19.39,-8.544c20.015,-8.011 24.076,-12.365 30.029,-32.191c4.752,-15.827 5.208,-18.851 5.659,-37.538c0.496,-20.582 -1.708,-41.293 -4.845,-45.537c-3.286,-4.446 -15.594,-9.81 -36.49,-15.903c-8.121,-2.368 -14.127,-3.439 -24.616,-4.388c-15.059,-1.362 -18.273,-1.395 -34.463,-0.354zM227.3379,158.97899c10.065,0.908 19.104,3.008 32.367,7.518c12.129,4.125 19.75,7.657 20.27,9.394c0.239,0.801 1.056,6.273 1.815,12.16c1.599,12.402 1.795,31.671 0.433,42.579c-1.278,10.241 -7.29,29.855 -10.547,34.408c-2.652,3.708 -8.255,7.356 -15.36,10.002c-2.216,0.825 -9.667,4.107 -16.56,7.294c-15.049,6.956 -23.008,10.037 -25.936,10.037c-1.196,0 -5.718,1.236 -10.05,2.748c-6.714,2.343 -9.592,2.818 -19.512,3.225c-7.485,0.307 -12.323,0.91 -13.562,1.69c-3.385,2.132 -13.907,-1.531 -28.956,-10.08c-6.727,-3.821 -8.29,-5.227 -13.485,-12.132c-3.62,-4.812 -6.469,-9.695 -7.423,-12.72c-2.161,-6.854 -2.957,-26.649 -1.502,-37.344c1.178,-8.66 6.058,-29.629 8.47,-36.394c2.04,-5.721 9.726,-18 13.653,-21.811c4.46,-4.329 8.613,-5.702 23.9,-7.903c23.703,-3.412 44.047,-4.289 61.985,-2.671z" data-paper-data="{&quot;wickUUID&quot;:&quot;5d7d3592-7915-48cd-83e9-c40ce54e4103&quot;,&quot;wickType&quot;:&quot;path&quot;,&quot;originalStyle&quot;:{&quot;strokeColor&quot;:null,&quot;fillColor&quot;:[&quot;Color&quot;,0,0,0],&quot;strokeWidth&quot;:1}}" fill="#000000"/><path d="M125.89431,229.44253c-2.679,0.52 -6.873,5.485 -10.202,12.081c-3.028,5.998 -2.743,8.936 0.979,10.117c2.792,0.887 5.236,-1.178 8.519,-7.198c2.809,-5.149 3.023,-5.325 6.258,-5.122c1.843,0.115 6.624,1.657 10.625,3.426c9.104,4.025 28.968,11.566 35.402,13.44c5.338,1.555 24.254,10.747 25.416,12.35c0.401,0.555 0.483,7.2 0.182,14.767c-0.484,12.181 -0.372,13.952 0.975,15.441c1.959,2.164 5.021,2.149 6.998,-0.035c1.337,-1.477 1.576,-3.897 1.705,-17.257c0.132,-13.628 -0.048,-15.845 -1.465,-18.019c-1.131,-1.737 -5.919,-4.611 -15.982,-9.597c-7.902,-3.915 -14.909,-7.117 -15.572,-7.117c-1.805,0 -27.926,-9.735 -33.064,-12.322c-4.747,-2.391 -15.21,-5.663 -17.458,-5.459c-0.74,0.067 -2.232,0.294 -3.316,0.504z" data-paper-data="{&quot;wickUUID&quot;:&quot;82621812-1f1b-4661-b54a-aceef2e96d7b&quot;,&quot;wickType&quot;:&quot;path&quot;,&quot;originalStyle&quot;:{&quot;strokeColor&quot;:null,&quot;fillColor&quot;:[&quot;Color&quot;,0,0,0],&quot;strokeWidth&quot;:1}}" fill="#000000"/><path d="M181.12542,278.0482c-0.985,0.985 -1.784,2.697 -1.776,3.805c0.008,1.107 -0.656,5.879 -1.475,10.603c-0.818,4.724 -1.217,9.673 -0.884,10.996c0.83,3.309 4.308,4.833 6.981,3.059c2.054,-1.365 3.301,-6.958 4.869,-21.84c0.531,-5.048 0.415,-5.574 -1.532,-6.937c-2.748,-1.925 -4.008,-1.861 -6.183,0.314z" data-paper-data="{&quot;wickUUID&quot;:&quot;92299d19-d981-45a3-a34c-085d41de9927&quot;,&quot;wickType&quot;:&quot;path&quot;,&quot;originalStyle&quot;:{&quot;strokeColor&quot;:null,&quot;fillColor&quot;:[&quot;Color&quot;,0,0,0],&quot;strokeWidth&quot;:1}}" fill="#000000"/><path d="M126.26408,251.41448c-2.132,1.588 -8.074,19.145 -7.395,21.851c0.755,3.008 4.324,4.54 6.757,2.899c1.755,-1.185 8.057,-17.247 8.057,-20.538c0,-3.482 -4.766,-6.189 -7.419,-4.212z" data-paper-data="{&quot;wickUUID&quot;:&quot;1ce0ce89-bc9d-4ea3-9218-b80ae572aafe&quot;,&quot;wickType&quot;:&quot;path&quot;,&quot;originalStyle&quot;:{&quot;strokeColor&quot;:null,&quot;fillColor&quot;:[&quot;Color&quot;,0,0,0],&quot;strokeWidth&quot;:1}}" fill="#000000"/><path d="M151.67985,274.37348c-2.171,2.172 -3.675,9.21 -3.675,17.205c0,7.946 0.909,9.743 4.924,9.743c3.957,0 4.923,-1.803 4.923,-9.19c0,-3.151 0.471,-8.073 1.046,-10.938c0.999,-4.971 0.953,-5.287 -0.994,-6.863c-2.589,-2.096 -4.095,-2.086 -6.224,0.043z" data-paper-data="{&quot;wickUUID&quot;:&quot;6cbd3963-f24c-4a91-8ef5-c169c32c28b6&quot;,&quot;wickType&quot;:&quot;path&quot;,&quot;originalStyle&quot;:{&quot;strokeColor&quot;:null,&quot;fillColor&quot;:[&quot;Color&quot;,0,0,0],&quot;strokeWidth&quot;:1}}" fill="#000000"/><path d="M170.38332,156.31088c-3.34,3.341 -2.226,5.321 6.157,10.94c3.753,2.515 21.928,15.709 40.39,29.32c18.462,13.612 34.838,25.629 36.391,26.707c3.408,2.363 6.656,2.504 9.038,0.392c0.971,-0.862 5.678,-9.818 10.46,-19.903c4.782,-10.086 10.618,-21.566 12.97,-25.512c5.496,-9.222 5.777,-10.102 4.059,-12.724c-1.094,-1.67 -2.065,-2.101 -4.251,-1.888c-2.483,0.243 -3.314,1.105 -6.738,6.99c-2.148,3.693 -7.917,14.871 -12.819,24.84c-4.903,9.97 -9.198,18.12 -9.543,18.112c-0.346,-0.008 -4.258,-2.727 -8.693,-6.042c-52.259,-39.064 -71.846,-53.022 -74.403,-53.022c-0.675,0 -2.033,0.806 -3.018,1.79z" data-paper-data="{&quot;wickUUID&quot;:&quot;1d37fdef-9293-4c1e-ad54-5b10571ff3d2&quot;,&quot;wickType&quot;:&quot;path&quot;,&quot;originalStyle&quot;:{&quot;strokeColor&quot;:null,&quot;fillColor&quot;:[&quot;Color&quot;,0,0,0],&quot;strokeWidth&quot;:1}}" fill="#000000"/><path d="M237.10037,211.15291c-5.145,5.144 -6.179,17.222 -2.255,26.315c2.928,6.783 8.195,7.336 12.029,1.262c3.032,-4.803 3.643,-10.814 1.826,-17.97c-0.812,-3.2 -1.696,-6.736 -1.963,-7.858c-0.519,-2.177 -3.446,-4.673 -5.48,-4.673c-0.678,0 -2.549,1.316 -4.157,2.924z" data-paper-data="{&quot;wickUUID&quot;:&quot;fd5fcc20-a93a-49fe-a4b0-194412b6e8ea&quot;,&quot;wickType&quot;:&quot;path&quot;,&quot;originalStyle&quot;:{&quot;strokeColor&quot;:null,&quot;fillColor&quot;:[&quot;Color&quot;,0,0,0],&quot;strokeWidth&quot;:1}}" fill="#000000"/><path d="M266.97414,200.25517c-1.782,1.782 -1.842,2.831 -0.37,6.407c0.44,1.069 0.232,1.566 -0.655,1.566c-1.958,0 -4.263,2.985 -4.263,5.522c0,4.125 3.472,15.886 5.498,18.627c2.181,2.95 6.358,3.688 8.987,1.586c3.105,-2.482 4.292,-11.108 2.595,-18.849c-0.453,-2.064 -1.288,-6.074 -1.857,-8.911c-0.855,-4.267 -1.479,-5.389 -3.608,-6.49c-3.38,-1.748 -4.098,-1.686 -6.327,0.542z" data-paper-data="{&quot;wickUUID&quot;:&quot;34b08120-244e-4dec-999e-878c21f94763&quot;,&quot;wickType&quot;:&quot;path&quot;,&quot;originalStyle&quot;:{&quot;strokeColor&quot;:null,&quot;fillColor&quot;:[&quot;Color&quot;,0,0,0],&quot;strokeWidth&quot;:1}}" fill="#000000"/><path d="M24.72089,105.3167c-6.876,0.723 -16.795,4.699 -20.726,8.308c-2.976,2.733 -5.434,8.457 -5.453,12.7c-0.009,1.969 0.567,7.205 1.279,11.636c0.712,4.431 1.912,13.897 2.666,21.036c1.809,17.114 3.069,23.817 4.904,26.083c1.273,1.572 3.264,2.047 12.656,3.015c19.268,1.987 28.866,5.4 42.866,15.242c12.103,8.509 24.89,21.089 41.56,40.885c4.941,5.868 6.918,6.814 10.009,4.789c4.442,-2.91 3.695,-4.171 -14.792,-24.978c-15.158,-17.061 -30.622,-29.686 -45.682,-37.294c-6.308,-3.187 -18.756,-6.621 -27.292,-7.53c-2.954,-0.314 -6.837,-0.789 -8.628,-1.055l-3.257,-0.483l-1.009,-6.876c-0.554,-3.781 -1.633,-12.498 -2.396,-19.37c-0.763,-6.873 -1.764,-14.481 -2.224,-16.906c-2.005,-10.571 -0.73,-13.503 7.476,-17.195c4.942,-2.224 6.858,-2.545 17.199,-2.891c13.694,-0.457 25.865,1.104 43.642,5.597c14.509,3.667 20.792,5.98 25.866,9.522c2.141,1.494 6.51,4.47 9.71,6.613c11.28,7.554 25.064,23.948 25.064,29.81c0,2.154 2.73,4.658 5.079,4.658c4.239,0 5.936,-5.317 3.532,-11.071c-3.431,-8.21 -19.57,-26.193 -27.856,-31.039c-1.97,-1.152 -5.192,-3.378 -7.161,-4.947c-4.765,-3.798 -9.052,-5.847 -19.246,-9.199c-11.137,-3.663 -25.653,-6.884 -38.76,-8.6c-11.153,-1.46 -18.415,-1.575 -29.026,-0.46z" data-paper-data="{&quot;wickUUID&quot;:&quot;173200e2-d71f-48ab-bf0e-6a237e4639fa&quot;,&quot;wickType&quot;:&quot;path&quot;,&quot;originalStyle&quot;:{&quot;strokeColor&quot;:null,&quot;fillColor&quot;:[&quot;Color&quot;,0,0,0],&quot;strokeWidth&quot;:1}}" fill="#000000"/><path d="M73.79649,80.65211c-6.483,1.478 -12.314,4.922 -13.467,7.953c-0.426,1.123 -1.06,6.046 -1.407,10.941c-0.499,7.037 -0.346,9.583 0.731,12.159c1.585,3.793 4.357,5.04 7.123,3.203c1.762,-1.169 1.927,-2.098 2.013,-11.281c0.105,-11.277 0.562,-12.255 6.361,-13.6c5.385,-1.249 25.549,-0.995 37.95,0.478c22.165,2.633 36.547,6.08 61.727,14.795c13.03,4.509 24.907,8.827 26.395,9.597c5.162,2.669 14.982,11.329 17.963,15.842c1.649,2.495 4.172,6.218 5.607,8.273c1.953,2.8 2.741,5.161 3.138,9.41c0.291,3.12 0.799,6.377 1.129,7.236c1.209,3.152 7.867,3.031 8.88,-0.16c0.282,-0.889 0.142,-4.935 -0.312,-8.991c-0.718,-6.417 -1.273,-8.015 -4.271,-12.303c-1.896,-2.71 -4.857,-6.989 -6.58,-9.509c-6.025,-8.809 -18.643,-17.792 -31.325,-22.301c-37.447,-13.311 -52.434,-17.353 -77.12,-20.794c-14.544,-2.027 -37.647,-2.519 -44.535,-0.948z" data-paper-data="{&quot;wickUUID&quot;:&quot;67317b28-a1bc-44b0-b09a-965b785d2ea7&quot;,&quot;wickType&quot;:&quot;path&quot;,&quot;originalStyle&quot;:{&quot;strokeColor&quot;:null,&quot;fillColor&quot;:[&quot;Color&quot;,0,0,0],&quot;strokeWidth&quot;:1}}" fill="#000000"/><path d="M114.38559,279.44511c-13.627,8.164 -16.746,13.746 -36.738,65.738c-4.259,11.077 -9.859,24.974 -12.444,30.882c-4.268,9.754 -4.994,12.429 -7.898,29.092c-5.031,28.875 -6.158,48.953 -2.984,53.178c0.577,0.768 5.808,2.546 11.779,4.005c5.908,1.443 14.569,3.567 19.246,4.721c7.953,1.962 10.009,2.085 31.777,1.9c35.195,-0.298 55.373,-2.151 75.638,-6.946c9.108,-2.155 20.789,-4.82 25.959,-5.921c5.169,-1.102 10.104,-2.603 10.965,-3.336c1.043,-0.886 1.567,-2.62 1.567,-5.183c0,-5.364 -13.145,-38.255 -23.825,-59.615c-8.983,-17.967 -11.303,-24.706 -13.337,-38.749c-2.543,-17.563 -1.804,-26.017 3.522,-40.281c2.089,-5.597 1.812,-9.097 -0.859,-10.847c-3.37,-2.208 -6.305,-0.572 -7.6,4.235c-0.557,2.069 -2.188,7.36 -3.625,11.758c-2.913,8.914 -3.415,18.517 -1.721,32.921c1.855,15.776 5.159,26.068 13.784,42.943c8.136,15.917 24.148,54.552 23.065,55.653c-0.326,0.332 -5.427,1.62 -11.335,2.863c-5.908,1.243 -15.777,3.515 -21.931,5.049c-14.396,3.588 -31.839,5.194 -64.54,5.941c-22.164,0.506 -26.37,0.386 -31.329,-0.891c-3.15,-0.811 -10.561,-2.517 -16.469,-3.789c-5.908,-1.273 -11.309,-2.863 -12.002,-3.533c-1.815,-1.755 0.057,-22.649 4.035,-45.046c2.579,-14.519 3.72,-18.857 6.711,-25.5c4.304,-9.557 10.259,-24.401 17.845,-44.479c6.957,-18.416 16.236,-38.894 18.949,-41.822c1.131,-1.222 4.978,-4.201 8.547,-6.621c7.114,-4.824 8.287,-7.461 4.5,-10.113c-2.738,-1.918 -3.212,-1.827 -9.252,1.793z" data-paper-data="{&quot;wickUUID&quot;:&quot;646d5578-a21c-4ad7-a987-a9c875d72391&quot;,&quot;wickType&quot;:&quot;path&quot;,&quot;originalStyle&quot;:{&quot;strokeColor&quot;:null,&quot;fillColor&quot;:[&quot;Color&quot;,0,0,0],&quot;strokeWidth&quot;:1}}" fill="#000000"/><path d="M166.80275,442.75228c-0.984,0.985 -1.79,2.394 -1.79,3.133c0,0.738 0.806,2.148 1.79,3.133c1.648,1.647 2.986,1.79 16.784,1.793c15.292,0.003 24.351,1.081 37.924,4.515c3.75,0.949 12.008,2.711 18.35,3.916c14.442,2.743 24.804,4.988 25.296,5.479c0.207,0.208 -1.308,2.499 -3.368,5.093c-2.06,2.593 -8.346,10.803 -13.969,18.244c-5.624,7.44 -12.729,15.698 -15.79,18.35c-7.574,6.561 -12.414,12.835 -12.414,16.091c0,2.523 0.138,2.605 4.402,2.605c3.999,0 4.57,-0.268 6.218,-2.909c0.998,-1.6 4.838,-5.637 8.534,-8.971c3.752,-3.384 10.809,-11.487 15.981,-18.35c5.094,-6.759 12.332,-16.201 16.084,-20.982c7.882,-10.044 8.566,-11.578 6.544,-14.664c-1.77,-2.702 -4.56,-3.842 -11.659,-4.766c-6.545,-0.851 -26.172,-4.757 -38.943,-7.75c-19.323,-4.529 -28.405,-5.723 -43.638,-5.737c-13.362,-0.012 -14.691,0.132 -16.336,1.777z" data-paper-data="{&quot;wickUUID&quot;:&quot;6aebff9d-e1d6-4bf0-8576-08e9c5f710b8&quot;,&quot;wickType&quot;:&quot;path&quot;,&quot;originalStyle&quot;:{&quot;strokeColor&quot;:null,&quot;fillColor&quot;:[&quot;Color&quot;,0,0,0],&quot;strokeWidth&quot;:1}}" fill="#000000"/><path d="M76.20691,459.8115c-2.028,1.182 -3.378,6.313 -3.401,12.927c-0.01,2.954 -0.34,5.877 -0.732,6.495c-0.444,0.699 -10.18,2.491 -25.722,4.734c-27.374,3.952 -30.761,4.769 -63.278,15.252c-30.62,9.871 -44.399,15.019 -45.448,16.979c-1.131,2.113 0.277,5.895 2.45,6.585c0.909,0.289 9.171,-2.095 18.625,-5.374c50.099,-17.373 62.026,-20.44 98.896,-25.429c8.124,-1.1 16.18,-2.461 17.903,-3.025c4.681,-1.533 6.781,-6.666 7.449,-18.207c0.503,-8.692 0.431,-9.22 -1.421,-10.518c-2.255,-1.579 -3.203,-1.654 -5.321,-0.419z" data-paper-data="{&quot;wickUUID&quot;:&quot;e532696b-b860-4cff-8fe3-8bfefd289197&quot;,&quot;wickType&quot;:&quot;path&quot;,&quot;originalStyle&quot;:{&quot;strokeColor&quot;:null,&quot;fillColor&quot;:[&quot;Color&quot;,0,0,0],&quot;strokeWidth&quot;:1}}" fill="#000000"/><path d="M75.68491,231.95779c-2.092,0.909 -3.466,2.454 -4.737,5.327c-1.563,3.533 -1.653,4.506 -0.709,7.659c1.197,3.993 6.873,9.817 11.91,12.219c2.872,1.369 3.246,1.367 5.38,-0.031c1.261,-0.826 2.306,-1.997 2.323,-2.601c0.016,-0.604 0.811,-2.035 1.765,-3.181c1.3,-1.56 2.247,-1.924 3.775,-1.452c2.827,0.874 9.271,4.688 10.576,6.261c1.308,1.575 5.464,1.712 6.948,0.228c1.869,-1.869 1.223,-5.614 -1.387,-8.039c-3.304,-3.069 -9.656,-6.592 -14.382,-7.977c-2.644,-0.774 -4.262,-1.902 -5.125,-3.571c-2.782,-5.381 -10.103,-7.551 -16.337,-4.842z" data-paper-data="{&quot;wickUUID&quot;:&quot;5752b552-032f-4e5f-af0c-54c6b7f96555&quot;,&quot;wickType&quot;:&quot;path&quot;,&quot;originalStyle&quot;:{&quot;strokeColor&quot;:null,&quot;fillColor&quot;:[&quot;Color&quot;,0,0,0],&quot;strokeWidth&quot;:1}}" fill="#000000"/><path d="M80.23554,244.94371c-3.674,1.478 -8.616,14.073 -13.297,33.884c-3.046,12.893 -15.166,52.442 -22.392,73.069c-3.277,9.354 -5.947,18.001 -5.935,19.215c0.013,1.214 0.91,2.926 1.995,3.804c1.702,1.378 3.863,1.597 15.792,1.597c15.844,0 19.101,-0.889 19.101,-5.215c0,-4.225 -1.2,-4.631 -13.677,-4.631h-11.528l0.625,-2.849c0.344,-1.567 2.183,-6.995 4.086,-12.061c4.188,-11.149 17.749,-55.691 21.488,-70.575c4.17,-16.603 7.133,-25.458 9.434,-28.192c2.64,-3.138 2.68,-5.766 0.115,-7.563c-2.231,-1.562 -2.974,-1.624 -5.807,-0.483z" data-paper-data="{&quot;wickUUID&quot;:&quot;fcb2c9d6-8a81-44d2-b69d-539dfe2ac020&quot;,&quot;wickType&quot;:&quot;path&quot;,&quot;originalStyle&quot;:{&quot;strokeColor&quot;:null,&quot;fillColor&quot;:[&quot;Color&quot;,0,0,0],&quot;strokeWidth&quot;:1}}" fill="#000000"/><path d="M81.64577,243.25833c-1.69,1.69 -1.851,2.592 -1.4,7.832c0.289,3.351 1.862,9.641 3.624,14.484c1.713,4.708 3.761,12.31 4.552,16.894c1.364,7.9 3.828,16.767 6.4,23.029c1.328,3.232 3.945,4.426 6.592,3.009c2.734,-1.463 2.968,-4.298 0.926,-11.212c-2.532,-8.57 -4.153,-15.335 -4.841,-20.207c-0.318,-2.251 -2.173,-8.696 -4.123,-14.322c-2.167,-6.25 -3.547,-11.862 -3.55,-14.429c-0.003,-3.324 -0.419,-4.492 -1.993,-5.595c-2.659,-1.862 -3.912,-1.757 -6.187,0.517z" data-paper-data="{&quot;wickUUID&quot;:&quot;293fe475-394c-446c-8cc0-14372018115e&quot;,&quot;wickType&quot;:&quot;path&quot;,&quot;originalStyle&quot;:{&quot;strokeColor&quot;:null,&quot;fillColor&quot;:[&quot;Color&quot;,0,0,0],&quot;strokeWidth&quot;:1}}" fill="#000000"/></g><g fill="none" fill-rule="nonzero" stroke="none" stroke-width="1" stroke-linecap="butt" stroke-linejoin="miter" stroke-miterlimit="10" stroke-dasharray="" stroke-dashoffset="0" font-family="sans-serif" font-weight="normal" font-size="12" text-anchor="start" style="mix-blend-mode: normal"/><g id="wick_project_gui" fill="none" fill-rule="nonzero" stroke="none" stroke-width="1" stroke-linecap="butt" stroke-linejoin="miter" stroke-miterlimit="10" stroke-dasharray="" stroke-dashoffset="0" font-family="sans-serif" font-weight="normal" font-size="12" text-anchor="start" style="mix-blend-mode: normal"/></g></svg>