<svg version="1.1" xmlns="http://www.w3.org/2000/svg" xmlns:xlink="http://www.w3.org/1999/xlink" width="1260" height="594" viewBox="0,0,1260,594"><g transform="translate(479.91246,62.26383) scale(0.94565,0.94565)"><g id="wick_project_bg" fill="#999999" fill-rule="nonzero" stroke="none" stroke-width="1" stroke-linecap="butt" stroke-linejoin="miter" stroke-miterlimit="10" stroke-dasharray="" stroke-dashoffset="0" font-family="none" font-weight="none" font-size="none" text-anchor="none" style="mix-blend-mode: normal"><rect x="0" y="0" width="720" height="480"/></g><g data-paper-data="{&quot;wickUUID&quot;:&quot;0bdb7ad8-e928-4b2b-b8b0-6c7796be6de2&quot;,&quot;wickType&quot;:&quot;clipsandpaths&quot;}" fill="none" fill-rule="none" stroke="none" stroke-width="1" stroke-linecap="butt" stroke-linejoin="miter" stroke-miterlimit="10" stroke-dasharray="" stroke-dashoffset="0" font-family="none" font-weight="none" font-size="none" text-anchor="none" style="mix-blend-mode: normal"><path d="M130.328,116.18025c-6.91733,0.387 -10.52697,1.50039 -18.55797,5.71706c-5.48733,2.88133 -10.12353,5.6524 -15.32686,9.1784c-2.22767,1.51 -5.15487,3.3315 -6.4392,4.00517c-2.649,1.389 -4.20766,2.85311 -5.05433,4.40211c-0.52467,0.95967 -0.63197,2.43637 -0.6223,11.6817c0.00867,8.54667 0.10182,10.60519 0.52515,11.56586l1.86033,1.77842l2.20967,-3.2195c1.09867,-1.647 3.1144,-4.82426 4.57007,-7.18059c3.50933,-5.68 6.31422,-8.39595 11.13689,-10.77328c1.86333,-0.91833 4.08875,-1.78784 5.50775,-2.14417c7.216,-1.81167 16.14973,-1.71598 22.54773,0.32202c6.099,1.943 10.44101,6.26404 14.92634,14.63837l2.31594,3.33418l3.60041,-3.68903c2.335,-2.632 3.13539,-3.82116 3.34006,-4.89983c0.144,-0.75733 0.54827,-2.74546 0.82994,-4.21213c0.28133,-1.46667 1.11725,-4.95644 1.85758,-7.75411c0.74033,-2.799 1.20381,-5.95572 1.09814,-6.36705c-0.29333,-1.13933 -4.84226,-7.06457 -9.22726,-11.98024l-4.24999,-4.65077l-6.35847,-0.04203c-3.3,0.01633 -8.10629,0.15644 -10.48962,0.28944z" data-paper-data="{&quot;wickUUID&quot;:&quot;4a9d6feb-17e7-428b-ae96-a014a2b3f450&quot;,&quot;wickType&quot;:&quot;path&quot;}" fill="#ff8000" fill-rule="evenodd"/><path d="M154.32241,53.19907c-5.94,0.21933 -7.96652,0.45724 -14.16452,1.66957c-10.45833,2.046 -34.10037,7.7964 -40.32637,9.80907l-4.07617,1.39905l-0.26585,2.90703c0.01,4.77433 1.21397,19.25989 1.5603,19.87889c0.295,0.52667 5.70761,-1.16525 14.93694,-5.56725c13.107,-6.25167 32.88212,-14.28722 38.89612,-15.80455c1.42267,-0.359 3.50255,-0.7581 4.93655,-0.95343c3.31267,-0.45133 11.17465,-0.53971 13.52232,-0.09438c5.802,1.10033 10.88057,5.97303 13.34157,12.7217c0.63267,1.73533 0.54726,1.77761 0.38926,4.25861c-0.214,3.364 -3.21526,15.64525 -7.74493,31.69758c-3.64967,12.934 -7.16447,25.73836 -7.16447,26.08669c0,0.14833 2.37316,0.51889 3.88216,-0.32944c8.17667,-4.59833 17.24907,-7.97694 26.4854,-9.84594c11.25333,-2.27733 34.77868,-5.17785 42.17001,-5.19885c0.97733,-0.003 1.67957,-0.61846 3.95257,-5.17413c1.30367,-2.61267 2.74997,-5.89544 3.15897,-7.17877c1.172,-3.67533 4.04452,-11.21929 6.96552,-18.28929c3.19067,-7.723 3.85578,-10.36752 3.66311,-14.03785c-0.183,-3.487 -1.10034,-5.53598 -4.16301,-8.89065c-3.88067,-4.25067 -7.18522,-6.96347 -10.12855,-8.38847c-7.00933,-3.39267 -25.70124,-8.62568 -35.33424,-9.89701c-5.819,-0.768 -41.09502,-1.27351 -54.49269,-0.77818z" data-paper-data="{&quot;wickUUID&quot;:&quot;b6298cc2-e495-4ada-8de9-0ae64d69d868&quot;,&quot;wickType&quot;:&quot;path&quot;}" fill="#ff8000" fill-rule="evenodd"/><path d="M281.59068,170.44024c-6.581,8.53967 -6.73446,8.8265 -6.73446,9.69883c0,0.44 1.12107,2.85579 2.47407,4.65812c3.22467,4.29633 8.27046,11.95821 13.93979,21.16721c2.596,4.21667 5.01857,7.98421 5.23824,8.19488c0.21933,0.211 2.62948,1.10811 5.07115,1.79678c4.74267,1.338 6.18173,1.95667 7.33673,3.851c1.43633,2.35533 0.5228,3.79502 -2.5172,5.25135c-1.06967,0.51233 -2.05213,1.78227 -2.11013,1.8226c-0.208,0.14467 5.27525,8.17547 7.70492,11.27614c1.365,1.74167 3.68823,4.87388 5.14556,6.93621c1.45733,2.06267 4.11157,3.74605 4.23224,3.74605c0.247,0 0.6138,-1.34859 2.4568,-11.08492c0.826,-4.36133 1.21734,-7.75178 1.09934,-8.55478c-0.33067,-2.251 -4.07612,-9.71889 -8.29779,-16.50922c-1.56733,-2.521 -2.0087,-2.98178 -3.2127,-3.14345c-0.71333,-0.09567 -1.40041,-0.24839 -1.75141,-0.56572c-0.75633,-0.68467 -2.66107,-3.95872 -5.75274,-9.87339c-1.238,-2.36767 -2.90531,-5.40666 -3.72931,-6.79733c-2.27033,-3.83167 -5.12795,-9.69392 -7.07862,-14.52025c-2.504,-6.19633 -4.60763,-10.39133 -6.03863,-12.04466l-2.51837,-1.69734z" data-paper-data="{&quot;wickUUID&quot;:&quot;ccd1ea8d-f8a5-4250-9850-ab30ec11d72e&quot;,&quot;wickType&quot;:&quot;path&quot;}" fill="#ff8000" fill-rule="evenodd"/><path d="M153.52846,232.61114c-1.17967,0.36233 -2.18111,1.57825 -2.14111,2.44658c0.06533,1.41333 2.91713,9.11081 5.0378,13.58648l2.31369,4.31886l2.3528,-2.98835c1.546,-3.042 1.69019,-3.39568 3.04752,-4.09768c1.29933,-0.672 1.68184,-0.91639 3.52617,0.35261c2.847,1.959 2.72072,3.39361 -0.71561,12.08028l-1.82725,4.77372l2.45851,3.39614c2.218,2.84467 6.30721,7.63748 9.85354,11.54915l2.46224,2.26961l1.46898,-2.50215c0.57633,-1.58 0.53694,-1.79098 1.32494,-2.19831c1.29167,-0.668 2.93242,-0.97305 4.23075,-0.30172c2.714,1.40367 3.05741,3.64908 1.75108,9.83008c-0.21667,1.02467 0.30696,1.60042 2.20696,2.31109c2.31767,0.867 6.89761,2.20404 8.65528,2.52171l2.25888,-0.94951l-3.12634,-4.21879c-4.097,-5.49167 -9.61864,-13.84635 -11.01964,-16.68735c-1.45767,-2.956 -4.4826,-12.28957 -6.38427,-19.6759c-1.644,-6.38567 -2.51114,-8.0407 -4.95181,-9.81803c-2.16433,-1.576 -4.11847,-2.54026 -8.54514,-4.06693c-6.57167,-2.26567 -11.1313,-2.88559 -14.23797,-1.93159z" data-paper-data="{&quot;wickUUID&quot;:&quot;15536388-f32d-42c4-bb63-19ffac7e08d1&quot;,&quot;wickType&quot;:&quot;path&quot;}" fill="#ffffff" fill-rule="evenodd"/><path d="M238.09885,134.71238c-13.39133,0.67233 -30.73973,2.87361 -39.73906,5.01128c-17.5,4.15633 -32.30605,13.47575 -42.61505,26.85708c-1.13633,1.475 -2.14574,3.05817 -2.14574,3.5585c0,1.36833 -1.03815,3.13064 -2.36015,4.00564c-1.356,0.89733 -3.09946,4.29285 -4.99346,9.66618c-1.83667,5.20967 -2.19878,7.70218 -2.00178,13.66651c0.18433,5.57633 0.68929,9.20375 2.82329,20.09642l1.26523,6.42294l1.83243,0.37422c0.46667,-0.10033 1.78717,-0.40718 3.16217,-0.70551c3.045,-0.66 4.82232,-0.54447 10.24899,0.78586c10.77,2.64033 17.17294,5.67021 21.18661,10.06188c2.266,2.47933 3.95611,6.19211 4.63778,9.83078c2.16267,11.54267 5.3328,19.28599 11.8118,28.90299c7.62567,11.31933 10.49895,14.59167 13.59228,15.61434c2.24333,0.74167 10.1403,1.43443 14.08363,1.16976c4.00533,-0.26867 10.88567,-1.49525 17.10267,-3.04492c7.63,-1.902 21.8441,-7.50743 33.9771,-13.40076c5.18533,-2.51867 7.39666,-3.81657 10.64199,-6.2619c5.29833,-3.99267 10.04442,-7.83506 10.04442,-8.11139c0,-0.12133 -1.71591,-1.77798 -3.22858,-2.00098c-1.51267,-0.223 -4.64985,-0.8576 -6.84985,-1.39227c-5.49867,-1.33567 -9.51216,-1.59375 -31.03749,-1.99475c-22.12,-0.41233 -37.03286,-0.91202 -39.09453,-1.31469c-1.92867,-0.37667 -2.94492,-1.49489 -2.94292,-3.09222c0.00133,-1.29 0.25731,-1.99069 1.41564,-2.74969c1.53767,-1.00767 7.15192,-1.19315 32.24192,-1.08748l24.49052,0.10115l0.70627,-2.01532c0.63,-6.109 7.1531,-11.56145 16.73977,-13.99445l1.71316,-1.1525l-2.05352,-3.38902l-2.10952,-3.26707l-2.79172,-0.75001c-22.71733,-5.36467 -37.09675,-9.21199 -65.30475,-17.47266c-3.394,-0.994 -5.16594,-1.3446 -6.92094,-1.4086c-0.898,-0.03267 -3.29208,-1.81534 -4.00641,-2.97101c-0.37367,-0.605 -0.49566,-0.56991 -0.49566,-1.02491c0,-1.06433 1.00475,-2.89101 2.38575,-3.73301c2.125,-1.29567 6.45812,-0.64986 15.95745,2.32014c11.00367,3.44067 52.8622,14.61398 53.24087,14.23531c0.261,-0.261 -9.24698,-16.89713 -13.48065,-22.68846c-1.206,-1.65 -2.68273,-3.98664 -3.35606,-5.32931c-1.16333,-2.31933 -1.19154,-1.84116 -0.81921,-3.23216c0.556,-2.07867 2.53982,-5.25325 6.89649,-11.06925c6.241,-8.33133 8.309,-10.58593 11.956,-12.9516c3.08267,-1.99967 2.64941,-2.12464 5.49241,-0.81397c4.80467,2.21433 9.70368,9.02896 13.55535,18.80429c1.851,4.69733 5.36166,11.82204 8.43599,17.10904l2.65137,4.52241l1.46559,-2.3031c0.00033,-5.36033 -2.00502,-17.34915 -3.75502,-22.57915c-2.34733,-7.015 -7.0624,-13.57036 -14.40807,-19.99269c-3.958,-3.46 -6.2994,-4.93976 -13.5204,-8.48143c-10.93367,-5.362 -15.22849,-6.62344 -24.53682,-7.21711c-4.82367,-0.30767 -16.13658,-0.3767 -21.18758,-0.12337z" data-paper-data="{&quot;wickUUID&quot;:&quot;e05bb122-4832-40f2-b665-6e45628037e0&quot;,&quot;wickType&quot;:&quot;path&quot;}" fill="#ffffff" fill-rule="evenodd"/><path d="M238.09885,134.71238c-13.39133,0.67233 -30.73973,2.87361 -39.73906,5.01128c-17.5,4.15633 -32.30605,13.47575 -42.61505,26.85708c-1.13633,1.475 -2.14574,3.05817 -2.14574,3.5585c0,1.36833 -1.03815,3.13064 -2.36015,4.00564c-1.356,0.89733 -3.09946,4.29285 -4.99346,9.66618c-1.83667,5.20967 -2.19878,7.70218 -2.00178,13.66651c0.18433,5.57633 0.68929,9.20375 2.82329,20.09642l1.26523,6.42294l1.83243,0.37422c0.46667,-0.10033 1.78717,-0.40718 3.16217,-0.70551c3.045,-0.66 4.82232,-0.54447 10.24899,0.78586c10.77,2.64033 17.17294,5.67021 21.18661,10.06188c2.266,2.47933 3.95611,6.19211 4.63778,9.83078c2.16267,11.54267 5.3328,19.28599 11.8118,28.90299c7.62567,11.31933 10.49895,14.59167 13.59228,15.61434c2.24333,0.74167 10.1403,1.43443 14.08363,1.16976c4.00533,-0.26867 10.88567,-1.49525 17.10267,-3.04492c7.63,-1.902 21.8441,-7.50743 33.9771,-13.40076c5.18533,-2.51867 7.39666,-3.81657 10.64199,-6.2619c5.29833,-3.99267 10.04442,-7.83506 10.04442,-8.11139c0,-0.12133 -1.71591,-1.77798 -3.22858,-2.00098c-1.51267,-0.223 -4.64985,-0.8576 -6.84985,-1.39227c-5.49867,-1.33567 -9.51216,-1.59375 -31.03749,-1.99475c-22.12,-0.41233 -37.03286,-0.91202 -39.09453,-1.31469c-1.92867,-0.37667 -2.94492,-1.49489 -2.94292,-3.09222c0.00133,-1.29 0.25731,-1.99069 1.41564,-2.74969c1.53767,-1.00767 7.15192,-1.19315 32.24192,-1.08748l24.49052,0.10115l0.70627,-2.01532c0.63,-6.109 7.1531,-11.56145 16.73977,-13.99445l1.71316,-1.1525l-2.05352,-3.38902l-2.10952,-3.26707l-2.79172,-0.75001c-22.71733,-5.36467 -37.09675,-9.21199 -65.30475,-17.47266c-3.394,-0.994 -5.16594,-1.3446 -6.92094,-1.4086c-0.898,-0.03267 -3.29208,-1.81534 -4.00641,-2.97101c-0.37367,-0.605 -0.49566,-0.56991 -0.49566,-1.02491c0,-1.06433 1.00475,-2.89101 2.38575,-3.73301c2.125,-1.29567 6.45812,-0.64986 15.95745,2.32014c11.00367,3.44067 52.8622,14.61398 53.24087,14.23531c0.261,-0.261 -9.24698,-16.89713 -13.48065,-22.68846c-1.206,-1.65 -2.68273,-3.98664 -3.35606,-5.32931c-1.16333,-2.31933 -1.19154,-1.84116 -0.81921,-3.23216c0.556,-2.07867 2.53982,-5.25325 6.89649,-11.06925c6.241,-8.33133 8.309,-10.58593 11.956,-12.9516c3.08267,-1.99967 2.64941,-2.12464 5.49241,-0.81397c4.80467,2.21433 9.70368,9.02896 13.55535,18.80429c1.851,4.69733 5.36166,11.82204 8.43599,17.10904l2.65137,4.52241l1.46559,-2.3031c0.00033,-5.36033 -2.00502,-17.34915 -3.75502,-22.57915c-2.34733,-7.015 -7.0624,-13.57036 -14.40807,-19.99269c-3.958,-3.46 -6.2994,-4.93976 -13.5204,-8.48143c-10.93367,-5.362 -15.22849,-6.62344 -24.53682,-7.21711c-4.82367,-0.30767 -16.13658,-0.3767 -21.18758,-0.12337z" data-paper-data="{&quot;wickUUID&quot;:&quot;84fb5ffb-a2f9-44aa-bda8-62f75eade5c2&quot;,&quot;wickType&quot;:&quot;path&quot;}" fill="#ffffff" fill-rule="evenodd"/><path d="M361.17359,146.60246c-0.50033,0.63033 -1.56351,2.98392 -2.15718,6.30525c-1.70633,9.55033 -5.03472,19.75931 -13.10772,40.20498c-6.95067,17.60333 -9.76851,26.85 -12.39584,40.669c-2.09733,11.03233 -4.23391,21.38796 -5.50558,26.69296c-0.63467,2.648 -1.12414,5.16049 -1.08347,5.17949c0.04067,0.01933 1.81133,0.66911 2.85333,0.59811l2.35341,-0.29632l4.81758,-4.93664c10.06267,-10.29333 16.32593,-20.4507 24.73693,-40.11137c4.14933,-9.69933 6.87453,-15.75413 12.91753,-28.7238l3.62997,-7.84291l-0.16281,-8.70619c-0.09933,-4.675 -0.39187,-9.46925 -0.57254,-10.29692c-1.02467,-4.69333 -3.40978,-8.33246 -9.79211,-14.88413c-3.84833,-3.95033 -5.7385,-4.85084 -6.5315,-3.85151z" data-paper-data="{&quot;wickUUID&quot;:&quot;253140b0-3c6e-4c75-8b44-fd86d370947e&quot;,&quot;wickType&quot;:&quot;path&quot;}" fill="#ff8000" fill-rule="evenodd"/><path d="M201.17297,300.46826c0,0.30767 16.13834,11.45293 16.31201,11.2656c0.06033,-0.065 1.60095,-2.45603 1.99862,-4.56436c0.398,-2.10833 0.78594,-4.55179 0.88061,-4.94146c0.161,-0.66333 -0.6835,-1.33285 -3.12617,-1.54552c-4.76533,-0.41467 -14.45152,-1.5388 -14.96752,-1.7368c-0.27967,-0.10733 -1.09755,1.42321 -1.09755,1.52254z" data-paper-data="{&quot;wickUUID&quot;:&quot;a30b7248-9a90-4c45-852b-c0cc0389c732&quot;,&quot;wickType&quot;:&quot;path&quot;}" fill="#8000ff" fill-rule="evenodd"/><path d="M172.81516,288.0759c-0.47533,0.4 -3.08565,2.51695 -5.72698,4.64795c-2.641,2.13067 -6.63994,5.56856 -8.90394,7.65456c-8.26567,7.61467 -14.34366,12.37755 -24.99833,19.58788c-9.70267,6.566 -11.25973,7.98868 -25.80606,23.58768c-3.59,3.85 -9.6838,10.26264 -13.49647,14.20431c-6.65133,6.87667 -10.0235,10.70138 -10.85983,12.31038c-0.27167,0.52233 -0.46521,1.73378 -0.24721,2.60178c0.17267,0.68667 0.48208,2.48906 0.68208,3.95573c0.19967,1.46667 0.60346,4.4203 0.89113,6.52863c0.57533,4.219 1.92682,10.64647 2.69582,12.8258c0.271,0.76833 1.16017,2.23708 1.63717,2.73508c0.836,0.87233 1.34323,1.07712 2.30723,0.57845c1.52667,-0.78933 2.70796,-0.79122 4.25129,0.27845c2.01167,1.394 2.07555,1.72281 1.85622,3.84948l-0.12918,1.93558l2.09819,1.66699c9.12467,6.81233 21.69124,17.32506 30.40224,25.43406c4.553,4.23833 8.18547,6.76818 10.76047,7.51685c1.64567,0.47833 2.63146,0.57849 5.46413,0.21749c2.83767,-0.36167 3.05233,-0.45019 4.48666,0.02614c2.38367,0.79167 3.71463,2.39198 3.71463,4.40098c0,0.53633 -0.39311,0.85279 -0.86044,1.54179c-0.46767,0.68867 -0.49034,2.34598 -0.40134,2.43465c0.08867,0.089 2.43258,0.86329 4.91858,1.57529c2.486,0.712 5.51386,1.69017 6.57553,2.13684c4.579,1.92733 14.76306,3.1641 28.30539,3.43643l9.87011,0.19176l1.96697,-2.01446c2.03733,-2.44 3.54463,-5.10599 4.0613,-6.96932c0.51467,-1.85533 0.99979,-11.91346 1.52279,-31.72779c0.77233,-29.28 3.5671,-65.68577 6.84177,-89.13177c0.26667,-1.90967 0.23481,-4.13344 0.18914,-4.16911c-0.04567,-0.03567 -4.11084,-2.77592 -8.87751,-5.94592c-15.33933,-10.202 -18.06908,-12.31497 -19.39741,-15.05897c-0.72067,-1.48867 -0.74581,-3.33651 -0.22414,-4.31151c0.27367,-0.51167 -0.50413,-1.1535 -4.0298,-2.92583c-2.236,-1.12433 -5.09557,-2.83263 -6.36157,-3.8013c-1.26567,-0.96867 -2.66656,-2.0056 -2.95923,-2.22227c-0.428,-0.31733 -1.5234,-0.16843 -2.2194,0.41724z" data-paper-data="{&quot;wickUUID&quot;:&quot;2b6cab38-2c25-4de2-b7aa-34d732f999ed&quot;,&quot;wickType&quot;:&quot;path&quot;}" fill="#8000ff" fill-rule="evenodd"/><path d="M283.6173,155.30576c-3.538,2.205 -6.241,5.196 -13.347,14.771c-3.873,5.219 -5.898,8.783 -5.898,10.381c0,1.608 1.972,5.049 5.809,10.136c3.195,4.236 10.214,15.072 15.598,24.081c12.222,20.451 21.857,34.42 24.272,35.186c2.442,0.775 6.238,-1.752 6.238,-4.153c0,-1.026 -2.6,-5.595 -5.779,-10.154c-3.178,-4.559 -10.41,-15.989 -16.071,-25.401c-5.66,-9.411 -12.324,-19.797 -14.809,-23.078c-2.484,-3.282 -4.517,-6.315 -4.517,-6.741c0,-0.426 1.807,-3.085 4.016,-5.909c2.209,-2.824 4.903,-6.296 5.986,-7.716l1.97,-2.582l2.076,2.582c1.141,1.42 3.516,6.286 5.276,10.813c1.761,4.526 4.617,10.569 6.347,13.426c1.73,2.858 4.568,8.016 6.306,11.462c1.739,3.447 3.614,6.562 4.166,6.924c2.021,1.322 5.018,0.645 6.386,-1.442c1.282,-1.957 1.242,-2.513 -0.502,-6.937c-1.043,-2.646 -3.837,-8.033 -6.21,-11.971c-2.372,-3.939 -5.588,-10.48 -7.146,-14.535c-3.658,-9.52 -8.99,-17.514 -12.926,-19.382c-3.797,-1.802 -3.975,-1.796 -7.241,0.239z" data-paper-data="{&quot;wickUUID&quot;:&quot;2f61dc6e-e6b0-48d5-8e39-84d56842b3c2&quot;,&quot;wickType&quot;:&quot;path&quot;}" fill="#000000" fill-rule="evenodd"/><path d="M359.25541,266.90081c1.988,1.985 2.272,3.12 2.546,10.143c0.331,8.485 -1.027,12.868 -5.136,16.584c-1.53602,1.38991 -2.09111,2.28585 -1.47298,5.9467c-3.35233,2.80812 -6.66207,5.83666 -8.8438,8.15227l-1.1762,1.24869c-0.5076,-1.48201 -0.95101,-2.82491 -1.27002,-3.85766c-0.975,-3.156 -2.828,-6.725 -4.24,-8.17c-2.196,-2.246 -2.587,-3.5 -3.133,-10.046c-0.489,-5.868 -0.358,-7.675 0.609,-8.39c0.678,-0.501 1.501,-1.987 1.828,-3.303c0.864,-3.472 4.515,-7.434 8.878,-9.635c4.571,-2.306 8.196,-1.885 11.411,1.327z" data-paper-data="{&quot;wickUUID&quot;:&quot;5b667a2d-7966-441b-9f6b-a37075188b47&quot;,&quot;wickType&quot;:&quot;path&quot;}" fill="#000000" fill-rule="evenodd"/><path d="M212.5533,194.7028c-1.039,1.039 -1.889,2.493 -1.889,3.232c0,2.077 3.336,4.923 5.772,4.923c1.206,0 5.334,0.984 9.175,2.187c13.633,4.269 40.342,11.463 57.091,15.377c9.343,2.183 17.38,4.361 17.858,4.839c1.329,1.329 5.245,1.038 7.525,-0.559c3.082,-2.159 2.31,-5.78 -1.642,-7.705c-1.723,-0.84 -10.182,-3.165 -18.798,-5.168c-16.461,-3.826 -42.923,-10.882 -57.288,-15.274c-12.579,-3.846 -15.505,-4.151 -17.804,-1.852z" data-paper-data="{&quot;wickUUID&quot;:&quot;1e39e6d1-dc3c-4466-a67a-5f5521830655&quot;,&quot;wickType&quot;:&quot;path&quot;}" fill="#000000" fill-rule="evenodd"/><path d="M288.87953,230.50573c-7.962,2.716 -12.871,7.949 -12.871,13.721c0,5.449 4.979,8.949 14.322,10.069c4.304,0.516 5.543,0.273 9.847,-1.927l4.923,-2.517l0.263,-5.976c0.337,-7.664 -1.226,-11.565 -5.435,-13.562c-3.851,-1.828 -5.197,-1.804 -11.049,0.192z" data-paper-data="{&quot;wickUUID&quot;:&quot;f55d2ec4-0f72-482f-95df-87d7eacd07ce&quot;,&quot;wickType&quot;:&quot;path&quot;}" fill="#000000" fill-rule="evenodd"/><path d="M218.41119,246.56556c-1.907,2.108 -1.879,4.002 0.085,5.73c1.326,1.166 6.531,1.453 33.792,1.862c25.62,0.384 33.233,0.774 37.147,1.901c6.408,1.844 24.933,4.314 27.509,3.668c1.182,-0.297 2.241,-1.448 2.582,-2.809c0.838,-3.337 -1.768,-5.422 -8.16,-6.529c-7.675,-1.33 -19.981,-3.668 -24.168,-4.592c-1.97,-0.434 -17.919,-0.807 -35.443,-0.829c-29.759,-0.036 -31.96,0.069 -33.344,1.598z" data-paper-data="{&quot;wickUUID&quot;:&quot;9a53f9a9-0d3b-43cf-934d-fa2e13832b5c&quot;,&quot;wickType&quot;:&quot;path&quot;}" fill="#000000" fill-rule="evenodd"/><path d="M235.72739,125.60765c-9.108,0.546 -28.127,3.02 -36.944,4.805c-9.9,2.006 -14.24,3.575 -25.453,9.208c-15.797,7.935 -30.564,25.257 -36.204,42.468c-2.908,8.875 -3.137,13.67 -1.251,26.14c4.132,27.327 11.464,47.304 22.604,61.591c19.533,25.05 26.91,28.855 61.197,31.564c10.896,0.861 13.087,0.778 21.318,-0.809c5.34,-1.029 9.898,-2.423 10.905,-3.334c2.37,-2.145 2.194,-5.42 -0.382,-7.108c-1.909,-1.251 -2.621,-1.247 -7.385,0.042c-7.634,2.066 -18.183,2.559 -29.44,1.378c-22.324,-2.344 -28.985,-5.066 -38.618,-15.784c-18.338,-20.405 -24.272,-33.437 -29.879,-65.615c-2.264,-12.992 -2.23,-18.11 0.166,-25.248c7.134,-21.249 26.459,-38.201 50.496,-44.299c13.96,-3.541 39.517,-6.072 55.878,-5.533c15.558,0.512 17.725,1.046 31.777,7.828c7.282,3.515 10.177,5.543 15.524,10.879c6.965,6.951 9.799,11.543 12.057,19.538c1.983,7.023 3.456,20.328 2.782,25.124c-0.658,4.677 0.909,7.101 4.59,7.101c3.323,0 5.253,-3.746 5.254,-10.198c0.002,-14.372 -3.059,-28.477 -8.018,-36.938c-3.596,-6.137 -16.906,-18.614 -23.58,-22.106c-18.596,-9.728 -31.957,-12.218 -57.394,-10.694z" data-paper-data="{&quot;wickUUID&quot;:&quot;cbbf4073-ec7f-4e1f-9c8c-f3756ccd13a2&quot;,&quot;wickType&quot;:&quot;path&quot;}" fill="#000000" fill-rule="evenodd"/><path d="M150.51642,223.80304c-6.598,1.776 -9.44,4.943 -7.951,8.861c1.166,3.065 4.145,3.554 8.409,1.379c4.389,-2.239 9.296,-1.807 18.587,1.637c6.458,2.394 9.422,5.031 10.308,9.17c1.44,6.735 5.181,18.978 6.998,22.905c2.325,5.022 13.308,20.682 17.942,25.581c2.518,2.663 4.179,3.456 9.838,4.7c7.895,1.734 14.513,1.896 21.236,0.519c12.288,-2.517 20.01,-4.719 27.722,-7.904c23.625,-9.758 26.689,-11.245 31.829,-15.447c2,-1.636 5.762,-4.585 8.36,-6.554c12.096,-9.17 14,-12.261 9.406,-15.271c-3.026,-1.983 -5.226,-1.093 -12.128,4.908c-3.2,2.783 -6.68,5.648 -7.732,6.368c-1.052,0.72 -3.35,2.451 -5.106,3.846c-4.921,3.909 -32.791,15.791 -42.175,17.98c-12.301,2.869 -16.888,3.44 -23.81,2.966c-10.088,-0.692 -9.7,-0.363 -22.15,-18.734c-5.148,-7.595 -8.568,-16.686 -10.41,-27.67c-0.297,-1.775 -1.769,-5.082 -3.27,-7.348c-3.198,-4.828 -10.295,-8.624 -21.315,-11.402c-7.864,-1.982 -8.916,-2.017 -14.588,-0.49z" data-paper-data="{&quot;wickUUID&quot;:&quot;7a5704f9-758d-4927-a7a4-95e5071395e9&quot;,&quot;wickType&quot;:&quot;path&quot;}" fill="#000000" fill-rule="evenodd"/><path d="M162.90642,246.06415c-1.283,0.939 -6.538,12.171 -8.329,17.803c-0.531,1.671 2.577,5.23 4.567,5.23c2.658,0 5.9,-4.247 8.528,-11.169c3.239,-8.531 3.317,-9.788 0.722,-11.606c-2.413,-1.69 -3.462,-1.739 -5.488,-0.258z" data-paper-data="{&quot;wickUUID&quot;:&quot;4ad57c79-1114-47bd-a396-30628b514683&quot;,&quot;wickType&quot;:&quot;path&quot;}" fill="#000000" fill-rule="evenodd"/><path d="M182.23821,275.20902c-1.473,0.936 -3.991,10.67 -3.312,12.808c0.597,1.883 3.902,2.996 6.474,2.179c3.561,-1.13 6.031,-11.56 3.369,-14.222c-1.595,-1.595 -4.658,-1.953 -6.531,-0.765z" data-paper-data="{&quot;wickUUID&quot;:&quot;f9d110a0-1a3d-41c6-a25d-896ca05062ea&quot;,&quot;wickType&quot;:&quot;path&quot;}" fill="#000000" fill-rule="evenodd"/><path d="M112.64747,51.52742c-23.839,5.964 -25.806,7.399 -26.252,19.162c-0.392,10.334 1.874,27.46 3.935,29.738c1.653,1.827 5.708,2.309 7.166,0.852c2.134,-2.135 29.95,-15.087 43.537,-20.273c13.324,-5.086 15.657,-5.71 21.348,-5.71c5.993,0 6.55,0.172 8.986,2.78c1.428,1.529 2.597,3.521 2.597,4.428c0,2.165 -4.953,21.188 -11.139,42.778c-6.668,23.276 -7.507,27.965 -5.544,30.961c1.763,2.69 5.024,3.03 7.035,0.733c0.755,-0.861 1.657,-3.54 2.004,-5.952c0.348,-2.412 3.44,-14.294 6.871,-26.406c7.367,-26.007 10.616,-38.988 10.618,-42.42c0.001,-3.166 -2.664,-8.428 -5.916,-11.68c-4.267,-4.267 -7.834,-5.261 -17.356,-4.834c-7.822,0.35 -9.653,0.823 -22.826,5.896c-7.877,3.033 -20.045,8.322 -27.039,11.753c-6.999,3.434 -12.955,5.854 -13.247,5.382c-0.291,-0.471 -0.77,-5.645 -1.064,-11.498l-0.535,-10.642l4.382,-1.451c6.094,-2.017 28.376,-7.451 40.188,-9.8c9.046,-1.799 12.158,-1.943 38.266,-1.761c26.986,0.188 28.945,0.315 38.834,2.533c5.727,1.285 14.489,3.744 19.47,5.465c7.757,2.681 9.739,3.794 13.824,7.761c2.622,2.547 5.341,5.719 6.042,7.048c1.988,3.773 1.533,9.218 -1.319,15.783c-3.287,7.564 -6.763,16.571 -8.177,21.186c-0.603,1.969 -2.485,6.089 -4.181,9.156c-3.292,5.95 -3.334,8.447 -0.172,10.14c0.97,0.519 2.549,0.694 3.51,0.389c2.456,-0.779 7.879,-9.287 9.828,-15.419c2.023,-6.364 7.223,-19.889 9.728,-25.302c2.566,-5.546 2.565,-14.178 -0.003,-19.484c-1.048,-2.165 -4.17,-6.388 -6.937,-9.384c-5.662,-6.13 -10.404,-8.647 -24.689,-13.105l-8.915,-2.783l-48.82,0.087l-48.821,0.087l-15.217,3.806z" data-paper-data="{&quot;wickUUID&quot;:&quot;313e56d0-7d56-486a-949c-5303a4229052&quot;,&quot;wickType&quot;:&quot;path&quot;}" fill="#000000" fill-rule="evenodd"/><path d="M127.8648,107.02196c-2.461,0.402 -6.288,1.215 -8.504,1.806c-8.642,2.307 -32.623,16.116 -39.968,23.016c-3.257,3.059 -3.796,4.132 -4.365,8.692c-1.079,8.635 1.236,38.971 3.15,41.277c1.544,1.861 4.164,2.481 6.102,1.444c1.636,-0.876 12.699,-16.888 17.458,-25.268c3.231,-5.69 8.448,-8.182 18.121,-8.655c5.102,-0.25 8.16,0.044 10.457,1.003c4.015,1.678 8.765,7.981 11.921,15.821c1.288,3.2 2.974,6.523 3.747,7.384c3.225,3.598 9.066,0.317 7.876,-4.425c-1.144,-4.56 -6.712,-15.695 -10.012,-20.021c-5.029,-6.595 -10.577,-9.188 -20.617,-9.634c-13.94,-0.621 -24.147,3.965 -29.535,13.269c-1.568,2.707 -3.972,6.534 -5.342,8.503l-2.49,3.581l-0.6,-2.685c-0.331,-1.477 -0.648,-7.016 -0.707,-12.308c-0.116,-10.598 0.269,-11.5 6.219,-14.577c1.562,-0.808 4.706,-2.792 6.985,-4.41c6.43,-4.564 17.955,-10.791 23.391,-12.639c3.68,-1.252 7.561,-1.68 15.373,-1.696l10.45,-0.022l5.215,5.735c2.868,3.154 6.284,7.548 7.592,9.764c2.879,4.878 4.366,5.821 7.373,4.678c5.651,-2.149 3.635,-7.958 -6.835,-19.702c-5.293,-5.937 -8.047,-8.314 -10.425,-8.997c-4.505,-1.294 -16.673,-1.81 -22.03,-0.934z" data-paper-data="{&quot;wickUUID&quot;:&quot;39ee40ff-f3cf-4d2b-b268-898213851d6a&quot;,&quot;wickType&quot;:&quot;path&quot;}" fill="#000000" fill-rule="evenodd"/><path d="M167.44794,281.14784c-3.128,1.631 -8.825,6.304 -17.559,14.399c-7.672,7.11 -13.225,11.332 -24.27,18.45c-5.664,3.651 -10.368,7.867 -18.35,16.451c-5.903,6.348 -15.652,16.622 -21.663,22.832c-6.011,6.209 -11.351,12.401 -11.868,13.759c-0.645,1.698 -0.657,4.263 -0.036,8.21c0.497,3.157 1.297,8.257 1.779,11.334c1.336,8.527 3.397,14.616 5.992,17.699c1.291,1.535 5.41,5.047 9.153,7.804c10.714,7.895 24.898,19.637 33.448,27.691c5.738,5.404 8.865,7.668 11.637,8.425c5.367,1.466 13.797,1.211 16.404,-0.498c4.937,-3.234 0.86,-9.328 -5.448,-8.144c-6.189,1.161 -9.058,-0.152 -17.309,-7.922c-8.486,-7.992 -22.664,-19.703 -33.447,-27.627c-3.79,-2.785 -7.257,-5.782 -7.704,-6.658c-1.311,-2.574 -2.925,-9.974 -3.755,-17.227c-0.425,-3.71 -1.044,-7.449 -1.376,-8.308c-0.455,-1.18 2.215,-4.46 10.933,-13.426c6.344,-6.526 15.55,-16.267 20.458,-21.646c6.423,-7.041 11.054,-11.163 16.531,-14.714c10.302,-6.68 20.007,-14.096 26.057,-19.911c2.761,-2.655 7.344,-6.64 10.184,-8.855c9.442,-7.366 10.011,-8.351 6.725,-11.637c-2.128,-2.127 -3.207,-2.207 -6.516,-0.481z" data-paper-data="{&quot;wickUUID&quot;:&quot;b8d465a2-7a1c-438b-be6a-2bf47939aaba&quot;,&quot;wickType&quot;:&quot;path&quot;}" fill="#000000" fill-rule="evenodd"/><path d="M224.39744,292.79384c-3.048,2.135 -4.589,7.471 -6.981,24.181c-4.556,31.83 -7.567,69.272 -8.208,102.056c-0.27,13.785 -0.892,26.383 -1.384,27.996c-0.492,1.612 -1.903,4.13 -3.135,5.594l-2.24,2.663l-10.439,-0.003c-10.479,-0.004 -24.447,-1.733 -27.592,-3.417c-0.927,-0.496 -4.264,-1.57 -7.417,-2.386c-9.792,-2.538 -21.58,-9.678 -29.155,-17.659c-3.638,-3.833 -7.147,-6.969 -7.798,-6.969c-2.333,0 -5.163,2.783 -5.163,5.077c0,4.01 11.998,15.34 22.674,21.413c8.106,4.61 12.508,6.313 27.465,10.625c9.079,2.617 31.709,3.967 38.824,2.316c4.89,-1.134 10.384,-6.806 12.807,-13.219c1.801,-4.767 1.993,-7.265 2.425,-31.583c0.258,-14.523 0.887,-31.24 1.397,-37.148c3.129,-36.217 4.014,-44.806 6.353,-61.669c1.551,-11.18 3.142,-19.538 3.956,-20.78c1.914,-2.921 1.693,-5.387 -0.628,-7.013c-2.47,-1.73 -3.382,-1.741 -5.761,-0.075z" data-paper-data="{&quot;wickUUID&quot;:&quot;285d02d9-e5c5-4d07-969c-7a5a9f145a90&quot;,&quot;wickType&quot;:&quot;path&quot;}" fill="#000000" fill-rule="evenodd"/><path d="M87.01548,401.95077c-4.899,4.035 -19.814,20.044 -38.848,41.697c-5.842,6.646 -15.346,17.356 -21.119,23.799c-10.16,11.339 -20.496,25.974 -29.827,42.231c-2.336,4.07 -5.014,7.81 -5.951,8.312c-1.171,0.627 -1.703,1.88 -1.703,4.013v3.101h4.32c5.361,0 5.708,-0.364 14.922,-15.665c10.615,-17.628 15.247,-24.184 23.689,-33.53c4.243,-4.698 15.001,-16.798 23.907,-26.891c19.549,-22.153 31.519,-35.096 37.221,-40.247c4.753,-4.295 5.443,-7.154 2.262,-9.382c-2.875,-2.014 -3.555,-1.818 -8.873,2.562z" data-paper-data="{&quot;wickUUID&quot;:&quot;a4eadb9a-0926-4978-963d-ddb3b03fbeb8&quot;,&quot;wickType&quot;:&quot;path&quot;}" fill="#000000" fill-rule="evenodd"/><path d="M275.87048,419.99073c-53.217,6.122 -71.05,11.546 -63.333,19.264c1.081,1.081 2.5,1.659 3.357,1.366c7.818,-2.669 23.48,-6.236 33.708,-7.675c26.45,-3.724 45.204,-5.448 45.204,-4.156c0,0.197 -1.766,4.93 -3.924,10.517c-2.158,5.588 -6.21,16.604 -9.004,24.481c-2.794,7.877 -7.149,18.149 -9.677,22.826c-9.876,18.27 -14.768,30.485 -13.637,34.05c0.326,1.025 1.513,2.284 2.639,2.797c3.07,1.398 5.459,-0.351 7.217,-5.284c3.691,-10.36 5.29,-13.872 10.647,-23.375c3.476,-6.167 7.506,-15.215 10.352,-23.241c7.748,-21.849 15.448,-41.7 16.784,-43.271c1.985,-2.334 1.099,-7.22 -1.551,-8.553c-2.847,-1.433 -15.051,-1.326 -28.782,0.254z" data-paper-data="{&quot;wickUUID&quot;:&quot;b1a0c08c-6933-4d14-b94f-622b5983dd57&quot;,&quot;wickType&quot;:&quot;path&quot;}" fill="#000000" fill-rule="evenodd"/><path d="M354.57396,136.77606c2.37,-2.408 5.204,-2.155 11.75,1.049c3.95,1.933 15.297,13.331 17.551,17.631c2.237,4.264 4.025,13.181 4.025,20.072c0,7.917 -2.39,16.06 -7.972,27.162c-1.922,3.823 -5.583,11.949 -8.136,18.06c-12.764,30.55 -22.489,44.456 -40.062,57.283c-6.285,4.588 -6.489,4.857 -6.489,8.52c0,2.928 -0.557,4.345 -2.462,6.268c-2.796,2.824 -7.908,5.256 -9.272,4.413c-0.502,-0.311 -3.159,0.926 -5.903,2.749c-8.349,5.543 -42.941,22.129 -55.552,26.635c-14.748,5.27 -18.873,5.497 -26.098,1.434c-7.173,-4.034 -32.309,-20.783 -35.173,-23.437c-3.267,-3.028 -4.058,-6.443 -2.015,-8.7c2.077,-2.295 5.409,-2.233 7.361,0.136c1.514,1.837 24.06,17.293 32.703,22.419c2.444,1.449 5.595,2.545 7.32,2.545c8.6,0 66.761,-27.015 65.267,-30.315c-0.364,-0.804 -0.833,-3.4 -1.041,-5.768c-0.291,-3.305 0.006,-4.731 1.276,-6.134c2.345,-2.592 6.043,-4.33 9.21,-4.33c2.285,0 2.95,-0.535 4.175,-3.357c2.4,-5.532 5.53,-18.444 8.928,-36.829c3.446,-18.649 4.997,-23.674 15.294,-49.536c6.153,-15.453 8.975,-24.81 12.084,-40.072c0.746,-3.664 1.942,-6.588 3.231,-7.898zM359.25296,154.52106c-1.483,8.165 -5.538,20.514 -12.051,36.7c-8.111,20.162 -10.783,29.042 -13.867,46.099c-1.514,8.37 -3.71,18.943 -4.882,23.497c-1.171,4.554 -1.764,8.28 -1.318,8.28c0.446,0 4.068,-3.112 8.05,-6.916c9.992,-9.546 18.422,-22.839 25.415,-40.078c1.798,-4.431 6.359,-14.702 10.137,-22.826l6.869,-14.769v-8.952c0,-12.147 -1.005,-14.899 -8.264,-22.634c-8.152,-8.686 -8.223,-8.674 -10.089,1.599z" data-paper-data="{&quot;wickUUID&quot;:&quot;43944676-9c71-42d7-b46a-dbad987867c3&quot;,&quot;wickType&quot;:&quot;path&quot;}" fill="#000000" fill-rule="nonzero"/><path d="M326.72228,267.15379c-3.319,3.667 -1.247,6.94 8.274,13.074c2.515,1.62 6.338,3.883 8.497,5.028c3.766,1.998 4.019,2.02 6.263,0.55c2.935,-1.924 3.088,-5.36 0.324,-7.29c-1.107,-0.774 -4.632,-3.085 -7.832,-5.136c-3.2,-2.051 -6.957,-4.659 -8.349,-5.796c-3.051,-2.492 -5.195,-2.621 -7.177,-0.43z" data-paper-data="{&quot;wickUUID&quot;:&quot;867c9ff4-9e0b-44cf-b1b7-fae7cf0da506&quot;,&quot;wickType&quot;:&quot;path&quot;}" fill="#000000" fill-rule="evenodd"/><path d="M303.04112,234.36592c-1.823,1.823 -1.197,5.298 1.645,9.133c1.495,2.017 4.742,6.608 7.215,10.201c5.271,7.659 7.707,9.2 11.065,7c1.251,-0.82 2.275,-2.262 2.275,-3.206c0,-1.601 -5.544,-10.098 -13.018,-19.95c-3.346,-4.411 -6.765,-5.594 -9.182,-3.178z" data-paper-data="{&quot;wickUUID&quot;:&quot;faa6e0b6-fb2a-4058-b86d-30dac73f7c58&quot;,&quot;wickType&quot;:&quot;path&quot;}" fill="#000000" fill-rule="evenodd"/><path d="M313.60412,201.96243c-2.473,2.473 -2.301,3.409 1.801,9.755c4.3,6.652 8.94,15.675 8.94,17.382c0,1.755 2.954,4.193 5.079,4.193c2.339,0 4.768,-2.715 4.768,-5.329c0,-2.583 -5.8,-14.247 -10.595,-21.309c-4.678,-6.889 -6.8,-7.885 -9.993,-4.692z" data-paper-data="{&quot;wickUUID&quot;:&quot;4d30d740-14ce-48d2-8146-4bf102ca2287&quot;,&quot;wickType&quot;:&quot;path&quot;}" fill="#000000" fill-rule="evenodd"/><path d="M341.18059,259.47489c-0.775,0.615 -2.731,3.548 -4.345,6.517c-2.195,4.037 -2.784,6.006 -2.332,7.807c1.18,4.698 6.868,5.363 8.841,1.033c0.934,-2.051 1.076,-2.086 2.658,-0.654c1.28,1.158 2.218,1.317 4.012,0.677c4.045,-1.441 4.495,-3.287 2.067,-8.47c-3.252,-6.945 -7.481,-9.625 -10.901,-6.91z" data-paper-data="{&quot;wickUUID&quot;:&quot;33a23c9b-ebe3-4130-89be-b28f6c551242&quot;,&quot;wickType&quot;:&quot;path&quot;}" fill="#000000" fill-rule="evenodd"/><path d="M351.89525,292.86851c4.426,3.101 1.935,6.733 -10.258,14.959c-16.508,11.136 -21.329,12.295 -34.616,8.321c-18.638,-5.575 -26.601,-7.714 -40.411,-10.856c-3.031,-0.69 -10.637,-1.242 -17.455,-1.267c-13.943,-0.051 -16.415,-0.804 -16.836,-5.126c-0.446,-4.571 1.468,-5.033 18.55,-4.475c13.906,0.453 15.837,0.741 30.51,4.548c20.374,5.287 28.548,7.606 30.512,8.657c2.765,1.479 9.629,0.961 13.512,-1.02c3.45,-1.76 15.59,-9.812 20.322,-13.48c2.602,-2.016 3.604,-2.058 6.17,-0.261z" data-paper-data="{&quot;wickUUID&quot;:&quot;f70b19bf-ad31-4b89-840d-83bea17f3a4b&quot;,&quot;wickType&quot;:&quot;path&quot;}" fill="#000000" fill-rule="evenodd"/><path d="M303.76731,245.98912c-3.14,3.469 -0.609,9.104 4.088,9.104c2.137,0 5.172,-3.151 5.172,-5.37c0,-2.43 -3.111,-5.371 -5.68,-5.371c-1.154,0 -2.765,0.737 -3.58,1.637z" data-paper-data="{&quot;wickUUID&quot;:&quot;28553886-a465-420c-ae5b-06985791d707&quot;,&quot;wickType&quot;:&quot;path&quot;}" fill="#000000" fill-rule="evenodd"/></g><g fill="none" fill-rule="nonzero" stroke="none" stroke-width="1" stroke-linecap="butt" stroke-linejoin="miter" stroke-miterlimit="10" stroke-dasharray="" stroke-dashoffset="0" font-family="sans-serif" font-weight="normal" font-size="12" text-anchor="start" style="mix-blend-mode: normal"/><g id="wick_project_gui" fill="none" fill-rule="nonzero" stroke="none" stroke-width="1" stroke-linecap="butt" stroke-linejoin="miter" stroke-miterlimit="10" stroke-dasharray="" stroke-dashoffset="0" font-family="sans-serif" font-weight="normal" font-size="12" text-anchor="start" style="mix-blend-mode: normal"/></g></svg>