<svg version="1.1" xmlns="http://www.w3.org/2000/svg" xmlns:xlink="http://www.w3.org/1999/xlink" width="1260" height="594" viewBox="0,0,1260,594"><g transform="translate(479.91246,62.26383) scale(0.94565,0.94565)"><g id="wick_project_bg" fill="#999999" fill-rule="nonzero" stroke="none" stroke-width="1" stroke-linecap="butt" stroke-linejoin="miter" stroke-miterlimit="10" stroke-dasharray="" stroke-dashoffset="0" font-family="none" font-weight="none" font-size="none" text-anchor="none" style="mix-blend-mode: normal"><rect x="0" y="0" width="720" height="480"/></g><g data-paper-data="{&quot;wickUUID&quot;:&quot;c040d7ef-5b40-47f8-93a2-2b5273081685&quot;,&quot;wickType&quot;:&quot;clipsandpaths&quot;}" fill="none" fill-rule="evenodd" stroke="none" stroke-width="1" stroke-linecap="butt" stroke-linejoin="miter" stroke-miterlimit="10" stroke-dasharray="" stroke-dashoffset="0" font-family="none" font-weight="none" font-size="none" text-anchor="none" style="mix-blend-mode: normal"><path d="M81.22745,73.35757c-1.65033,0.833 -5.92149,5.20654 -7.81416,7.99687c-1.19933,1.76833 -10.24208,16.39577 -10.24008,16.55344c0.00067,0.03533 3.54747,1.12794 6.98547,1.15761c7.42067,0.064 11.30273,0.6285 16.5174,2.40317c2.01667,0.686 4.05149,1.37901 4.37049,1.52234c0.46933,0.21067 1.44513,-0.40889 1.98246,-1.66256c0.36567,-0.85267 1.08315,-2.17023 1.67515,-3.03223c1.619,-2.35733 6.36933,-7.15328 9.174,-9.26428l2.72177,-2.27512l-2.02211,-2.38803c-4.13967,-3.66467 -16.84741,-11.04638 -20.03374,-11.63805c-0.66133,-0.12267 -2.39332,0.16084 -3.31665,0.62684z" data-paper-data="{&quot;wickUUID&quot;:&quot;60923311-eb70-4cab-81e2-85493af3bbfe&quot;,&quot;wickType&quot;:&quot;path&quot;}" fill="#ff8000"/><path d="M7.59359,102.96735c-2.43767,0.579 -12.15245,7.94941 -15.50178,11.76074c-1.03133,1.17367 -3.30153,3.33315 -4.92853,4.68915c-6.674,5.56367 -8.76775,7.97943 -12.49042,14.40143c-2.478,4.274 -5.82775,9.39165 -9.41808,14.39498c-2.332,3.25 -6.75684,10.59842 -8.56951,14.19809c-3.058,6.072 -6.70678,21.12443 -8.59878,35.47076c-0.56333,4.27233 -0.5644,21.63 -0.00007,26.21333c1.38833,11.275 2.89483,17.99282 6.04983,27.06715c4.58967,13.20033 7.88276,18.37942 13.53409,21.39175c3.551,1.89267 5.64566,2.35714 12.76499,2.13481c3.48333,-0.10867 7.15103,-0.27939 8.0097,-0.38039l2.33524,-1.23837l-2.40206,-3.04782c-6.83467,-8.36133 -15.43483,-23.93819 -19.7065,-35.72186c-3.65633,-10.08667 -5.20857,-19.41148 -6.13357,-36.73681c-0.52533,-9.83433 0.04168,-13.15864 3.97535,-23.12164c5.57733,-14.127 14.58879,-29.58271 22.48312,-38.57138c2.36167,-2.689 7.53213,-7.14191 12.68046,-10.96291c4.43967,-3.29533 16.67116,-11.53784 19.34183,-13.03517l2.06623,-1.88759l-2.80692,-2.08175c-4.97033,-3.23033 -9.54882,-5.52311 -10.61315,-5.31711c-0.09167,0.01767 -1.47947,0.23994 -2.07147,0.38061z" data-paper-data="{&quot;wickUUID&quot;:&quot;1a7fb407-7df2-4e71-86b2-1732fd5385af&quot;,&quot;wickType&quot;:&quot;path&quot;}" fill="#ff8000"/><path d="M65.0467,107.68951c-14.35467,1.087 -23.99516,3.30823 -32.05149,7.36523c-6.75833,3.40333 -17.99358,10.52299 -25.69758,16.29532c-9.06167,6.78967 -12.83706,10.77526 -18.81906,19.84093c-6.67033,10.10933 -11.04132,18.78732 -15.72932,31.27132l-1.96034,5.30491l0.71005,10.40817c1.64333,24.06433 3.07715,29.92175 11.19215,46.11008c7.197,14.357 14.85888,24.59383 22.85721,30.57616c12.762,9.54567 31.28818,17.64714 40.34218,17.63414c3.30633,-0.00467 17.25843,-3.4197 20.30876,-5.01037c2.91067,-1.51767 5.00259,-2.39876 9.52059,-4.02476c6.46733,-2.32733 12.97323,-5.58 16.43056,-8.20067c3.079,-2.33333 6.90458,-6.15982 9.93458,-9.96115c2.132,-2.67533 9.98087,-13.62698 9.85554,-13.75198c-0.04367,-0.04367 -1.67804,-1.14058 -2.56971,-0.87225c-0.89133,0.26833 -2.27092,0.4775 -3.31425,0.4775c-1.56167,0 -1.47264,0.22337 -2.56531,-0.56796c-2.20967,-1.60067 -2.42727,-2.31671 -2.2206,-7.40004c0.21067,-5.17867 0.74051,-8.01931 2.07418,-10.12198c1.81567,-2.86333 5.32532,-4.43712 9.14265,-4.13045c3.32533,0.26667 5.0626,1.57672 6.17193,4.23139l1.75261,1.17301l1.78258,-4.46079c4.738,-12.057 7.4793,-23.06011 9.3523,-37.53578c0.52933,-4.09067 0.64492,-6.792 0.51459,-10.37133c-0.28933,-7.93467 -2.05832,-13.06682 -9.85132,-28.71582c-9.802,-19.68333 -17.4831,-30.32125 -27.21677,-37.69792c-4.00167,-3.03267 -11.11461,-6.53034 -14.73561,-7.19734c-2.75167,-0.507 -11.96677,-0.91324 -15.2111,-0.66757zM99.73959,144.41584c2.90567,1.90367 2.79876,8.49655 -0.22557,17.90388c-0.56633,1.76067 -0.86437,3.84433 -0.86437,3.95433c0,0.11 2.79731,1.7005 6.05131,3.3585c10.152,5.173 12.75553,7.72382 11.04353,11.03449c-0.584,1.12933 -2.60211,1.81795 -3.70878,1.81795c-0.43567,0 -3.88732,-1.64538 -8.04865,-3.75371c-4.16167,-2.10833 -7.99237,-3.91065 -8.17004,-3.91065c-0.17733,0 -1.6556,1.66452 -2.33927,3.26852c-3.32967,7.811 -5.24741,10.47781 -7.87608,10.47781c-2.62833,0 -3.75867,-1.43016 -3.75867,-3.77449c0,-1.29933 1.14387,-4.4297 3.13554,-9.04803c1.00433,-2.32867 1.67829,-5.04739 1.62129,-5.10472c-0.05733,-0.057 -3.60023,-1.96938 -7.52123,-3.93005c-5.704,-2.85233 -7.38543,-3.84412 -8.80043,-5.21479c-1.366,-1.323 -1.48857,-0.94652 -1.48857,-1.72285c0,-1.80267 2.36594,-4.58886 4.08761,-4.58886c0.77133,0 6.85861,2.57877 12.94761,5.4141c1.82,0.84733 4.33341,1.24088 4.46808,1.09921c0.239,-0.251 1.92232,-5.37347 2.35299,-7.2928c0.118,-0.52633 0.33753,-2.44415 0.50186,-4.31715c0.36633,-4.17 0.42418,-4.63505 2.16185,-5.45105c1.587,-0.74533 3.11032,-1.08464 4.42999,-0.21964zM28.04193,167.05795c1.61767,0.79 2.43829,1.73933 2.66362,3.486c0.18133,1.40567 -1.37397,6.84251 -3.41597,12.05984c-1.182,3.01933 -3.3356,10.8926 -3.53193,12.79627c-0.10533,1.022 0.3292,1.70723 4.9872,3.63323c9.73567,4.02533 13.65868,6.17002 14.60401,7.99769c0.275,0.53233 0.19456,0.63246 0.19456,1.46046c0,1.765 -0.58948,2.89294 -2.59115,3.84261c-1.51167,0.71733 -1.77871,0.56008 -7.63071,-2.10792c-6.153,-2.80467 -11.08046,-4.41367 -11.32113,-4.17334c-0.34567,0.346 -2.15197,9.40643 -2.38564,12.54143c-0.14333,1.92033 0.07936,2.61943 -0.32597,3.28576c-1.85967,3.05833 -6.12948,3.18727 -8.08548,0.20194c-0.492,-0.751 -0.09485,-0.62949 0.08782,-4.28982c0.18133,-3.629 1.11886,-11.42286 1.73119,-14.24953c0.18433,-0.851 -0.4433,-1.6007 -3.96763,-2.58537c-1.97967,-0.55333 -4.33411,-1.09317 -5.43411,-1.2985c-3.576,-0.66767 -5.82324,-2.8114 -5.29257,-5.22773c0.26667,-1.21433 1.21322,-2.09933 2.52722,-2.779c1.628,-0.842 5.34824,-0.40364 10.71624,1.19503c1.311,0.39033 3.08977,0.46397 3.17344,0.37997c0.084,-0.084 0.79909,-1.99736 1.24309,-3.74703c0.444,-1.74967 1.53908,-5.16401 2.43975,-7.60568c0.90067,-2.442 1.87127,-5.26687 2.19094,-6.36687c1.948,-6.70033 2.40817,-7.69761 4.32917,-8.66261c1.50133,-0.75467 1.42704,-0.60083 3.09404,0.21317z" data-paper-data="{&quot;wickUUID&quot;:&quot;28db4a11-884b-4ed8-a8dd-2d4960f94fd7&quot;,&quot;wickType&quot;:&quot;path&quot;}" fill="#ffffff"/><path d="M115.33576,262.02089c-9.708,13.711 -15.2059,19.15003 -24.53657,24.25236c-3.54333,1.93767 -8.67797,4.10316 -12.0823,5.14049c-4.86967,1.484 -8.55042,3.45415 -7.83775,4.16648c0.11133,0.11133 1.60412,1.72744 2.93979,1.81977c2.68833,0.18567 4.84089,1.01969 5.80689,2.24802c0.389,0.49433 2.20942,1.42164 4.89242,2.49064c2.35833,0.93933 8.04449,3.51582 12.62782,5.72182c10.409,5.00933 26.94684,12.61467 27.42184,12.61467c0.28633,0 1.88165,-3.39919 1.88165,-4.57552c0,-1.58 -0.95415,-2.982 -5.90348,-8.52333c-4.97567,-5.57133 -6.11684,-6.24742 -4.74184,-7.49175c1.455,-1.31667 1.16318,-0.77089 7.05651,5.78944c1.39967,1.55833 3.27989,2.89497 3.41756,2.76264c0.13767,-0.132 1.08069,-2.09694 1.22169,-3.61494c0.40233,-4.328 1.62986,-8.44827 3.07119,-10.04094c1.33967,-1.48033 1.5789,-0.76874 1.5789,1.63859c0,1.82933 -1.19146,9.58475 -2.80746,18.37908c-0.65,3.53767 -0.94157,7.22038 -0.94157,7.28305c0,0.194 12.67769,5.43855 13.53336,5.59388c0.62067,0.11233 1.4774,-0.06393 1.71107,-0.6786c0.764,-2.00967 4.669,-3.58652 9.03833,-3.63419c2.48,-0.027 2.45887,-0.12439 3.5612,0.47028c2.87767,1.553 4.27,3.8447 4.51233,7.5557c0.20767,3.181 -0.26494,5.2036 -1.94761,8.5846c-1.777,3.56967 -2.14508,3.85465 -5.35141,3.85465c-2.67,0 -2.60891,-0.11642 -5.00658,-2.29709c-1.21167,-1.102 -3.29933,-2.35489 -6.52433,-3.92122c-5.797,-2.81567 -14.84475,-6.63834 -15.07008,-6.41301c-0.35433,0.35433 -1.79633,6.1018 -1.58433,6.9458c0.162,0.645 0.74264,1.5114 1.30131,1.5114c1.60733,0 7.90904,4.78286 7.90904,6.10653c0,1.17267 -6.76585,10.15282 -8.06385,10.75115c-0.99333,0.458 -0.87377,0.69816 -1.10244,-0.21351c-0.22033,-0.87833 0.71742,-2.6678 3.58609,-7.1218c1.60567,-2.49367 1.46444,-3.44917 0.84711,-4.1475c-0.64433,-0.72867 -5.17141,-3.02835 -7.52674,-3.78168c-2.14967,-0.68733 -4.04225,-1.55529 -4.60558,-2.35962c-1.10833,-1.58233 -0.71822,-1.29354 2.04111,-1.74254c0.69767,-0.11367 1.73222,-0.71954 2.06322,-1.05054c0.56667,-0.56667 1.81875,-6.18145 1.49708,-6.50278c-0.082,-0.082 -4.0605,-2.04684 -8.42583,-4.01817c-4.365,-1.97167 -11.05384,-5.06714 -14.81217,-6.85681c-17.91833,-8.53367 -29.52477,-12.87452 -38.8621,-14.53452c-2.2,-0.391 -4.5579,-0.93648 -5.1539,-1.18481l-2.1231,0.16332l-0.01636,4.97076c0.01467,8.017 0.61729,22.21985 1.16296,27.47652c1.67367,16.12667 7.81337,54.97869 12.19904,77.19669c1.10367,5.59167 2.76237,14.39775 3.6787,19.53108c2.333,13.068 2.76202,14.60573 3.48035,15.3404c0.57667,0.58933 2.0478,0.99079 10.04947,1.26246c10.52867,0.35767 37.97667,0.07752 43.566,-0.43948c11.444,-1.05833 34.87743,-7.61747 49.51843,-13.8648c6.96767,-2.97333 18.63232,-8.70117 25.77165,-12.6625c7.158,-3.972 9.22711,-6.07911 9.22711,-6.89811c0,-1.94967 -10.30464,-21.19876 -24.72864,-46.14509c-5.15433,-8.91433 -8.74299,-15.41331 -14.17999,-25.67931c-6.07,-11.46033 -11.86644,-21.57478 -19.77511,-34.50545c-6.10967,-9.98967 -13.65099,-22.91628 -19.55399,-33.51861c-5.48067,-9.844 -6.9302,-12.03698 -10.44887,-15.80398c-1.33433,-1.42867 -3.42789,-3.054 -3.42789,-3.22967c0,-0.85767 -1.14102,0.3376 -5.02935,5.8296z" data-paper-data="{&quot;wickUUID&quot;:&quot;76f1765e-410d-4e45-af2b-79673697f5e5&quot;,&quot;wickType&quot;:&quot;path&quot;}" fill="#8000ff"/><path d="M63.41563,98.6728c-1.477,0.217 -7.116,1.017 -12.531,1.778c-12.742,1.792 -22.708,5.869 -36.253,14.83c-16.297,10.782 -23.798,16.955 -29.089,23.939c-7.596,10.026 -14.738,22.81 -19.426,34.771c-4.835,12.338 -4.981,13.795 -3.376,33.884c1.234,15.456 4.128,25.701 11.301,40.017c10.339,20.633 19.702,31.382 35,40.185c16.55,9.523 24.363,12.361 37.814,13.736c3.2,0.327 9.242,1.316 13.427,2.198c13.072,2.754 15.983,2.972 18.41,1.382c4.556,-2.985 1.474,-8.547 -4.735,-8.547c-5.75,0 -2.957,-2.618 5.417,-5.078c2.546,-0.748 7.247,-2.73 10.447,-4.404c10.254,-5.363 15.261,-10.063 24.397,-22.898c10.108,-14.2 9.919,-13.845 16.192,-30.397c5.855,-15.45 7.082,-19.943 9.504,-34.792c2.268,-13.907 2.298,-20.312 0.13,-27.751c-3.199,-10.982 -12.337,-30.337 -19.017,-40.282c-14.84,-22.091 -29.029,-31.977 -46.87,-32.658c-4.431,-0.169 -9.265,-0.13 -10.742,0.087zM83.74663,109.8078c14.065,5.45 25.189,17.91 36.977,41.419c11.766,23.463 12.654,27.982 9.352,47.603c-2.277,13.533 -3.761,18.931 -8.733,31.777c-5.452,14.085 -7.075,17.088 -15.807,29.259c-9.61,13.395 -16.06,18.353 -30.087,23.123c-3.591,1.222 -7.453,2.826 -8.581,3.566c-1.129,0.739 -6.193,2.394 -11.256,3.677c-9.202,2.333 -9.205,2.334 -16.331,0.809c-10.992,-2.351 -30.474,-12.896 -38.563,-20.871c-6.148,-6.061 -13.085,-16.566 -18.738,-28.373c-6.821,-14.245 -8.401,-20.592 -9.624,-38.658l-1.042,-15.384l2.955,-7.889c5.656,-15.105 15.707,-32.076 23.775,-40.142c8.609,-8.608 30.778,-23.063 41.118,-26.809c13.137,-4.76 36.175,-6.365 44.585,-3.107z" data-paper-data="{&quot;wickUUID&quot;:&quot;b59fd946-ef82-45c6-b406-395b19f18129&quot;,&quot;wickType&quot;:&quot;path&quot;,&quot;originalStyle&quot;:{&quot;strokeColor&quot;:null,&quot;fillColor&quot;:[&quot;Color&quot;,0,0,0],&quot;strokeWidth&quot;:1}}" fill="#000000"/><path d="M107.80874,229.0576c-4.777,1.726 -6.546,4.884 -7.039,12.569c-0.381,5.93 -0.218,6.871 1.483,8.572c1.584,1.584 2.556,1.812 5.705,1.336c2.087,-0.315 4.697,-1.392 5.8,-2.394c2.331,-2.118 5.603,-10.289 5.603,-13.993c0,-5.408 -5.466,-8.29 -11.552,-6.09z" data-paper-data="{&quot;wickUUID&quot;:&quot;eb3e1d6e-846c-4a8e-a9ca-d6163b203495&quot;,&quot;wickType&quot;:&quot;path&quot;,&quot;originalStyle&quot;:{&quot;strokeColor&quot;:null,&quot;fillColor&quot;:[&quot;Color&quot;,0,0,0],&quot;strokeWidth&quot;:1}}" fill="#000000"/><path d="M-0.60123,192.13101c-3.542,3.542 -0.993,7.412 5.469,8.305c4.381,0.605 19.461,6.101 28.801,10.496c5.77,2.715 6.165,2.782 8.28,1.396c2.614,-1.712 2.922,-4.996 0.655,-6.992c-4.141,-3.646 -29.247,-13.39 -37.163,-14.423c-3.53,-0.461 -4.573,-0.25 -6.042,1.218z" data-paper-data="{&quot;wickUUID&quot;:&quot;7fb7980d-6fe6-44f6-90ec-e9da612d18b0&quot;,&quot;wickType&quot;:&quot;path&quot;,&quot;originalStyle&quot;:{&quot;strokeColor&quot;:null,&quot;fillColor&quot;:[&quot;Color&quot;,0,0,0],&quot;strokeWidth&quot;:1}}" fill="#000000"/><path d="M22.37056,168.61929c-0.692,1.354 -1.544,3.791 -1.894,5.416c-0.35,1.625 -1.627,5.39 -2.837,8.368c-3.644,8.969 -8.303,36.944 -6.663,40.009c2.187,4.086 9.025,2.541 9.025,-2.04c0,-5.062 4.851,-30.04 6.747,-34.739c1.14,-2.827 2.729,-7.395 3.531,-10.152c1.329,-4.573 1.333,-5.202 0.045,-7.168c-2.048,-3.125 -6.284,-2.962 -7.954,0.306z" data-paper-data="{&quot;wickUUID&quot;:&quot;f4beeb58-31c4-46aa-a20e-42ab8e6f886c&quot;,&quot;wickType&quot;:&quot;path&quot;,&quot;originalStyle&quot;:{&quot;strokeColor&quot;:null,&quot;fillColor&quot;:[&quot;Color&quot;,0,0,0],&quot;strokeWidth&quot;:1}}" fill="#000000"/><path d="M70.12923,156.31088c-4.186,4.186 -2.342,5.819 16.56,14.663c8.862,4.147 18.173,8.668 20.691,10.047c4.477,2.452 4.633,2.472 6.992,0.927c4.127,-2.704 2.921,-5.715 -3.962,-9.89c-5.642,-3.423 -35.94,-17.537 -37.645,-17.537c-0.465,0 -1.651,0.806 -2.636,1.79z" data-paper-data="{&quot;wickUUID&quot;:&quot;ccea5710-95ee-4e2a-a77d-8aef35f41eb6&quot;,&quot;wickType&quot;:&quot;path&quot;,&quot;originalStyle&quot;:{&quot;strokeColor&quot;:null,&quot;fillColor&quot;:[&quot;Color&quot;,0,0,0],&quot;strokeWidth&quot;:1}}" fill="#000000"/><path d="M93.4337,145.51122c-0.509,0.952 -0.926,3.53 -0.926,5.728c0,3.897 -3.172,13.26 -9.083,26.816c-2.912,6.676 -2.77,9.118 0.62,10.662c3.471,1.582 5.837,-0.813 9.57,-9.686c8.357,-19.867 10.409,-28.669 7.812,-33.52c-1.281,-2.395 -6.711,-2.395 -7.993,0z" data-paper-data="{&quot;wickUUID&quot;:&quot;e171bf89-e4a0-4145-87eb-1545a9b14adf&quot;,&quot;wickType&quot;:&quot;path&quot;,&quot;originalStyle&quot;:{&quot;strokeColor&quot;:null,&quot;fillColor&quot;:[&quot;Color&quot;,0,0,0],&quot;strokeWidth&quot;:1}}" fill="#000000"/><path d="M121.65844,250.59322c-2.769,2.024 -2.018,5.674 1.926,9.363c1.954,1.828 5.073,6.142 6.933,9.589c6.716,12.445 15.259,27.152 24.702,42.518c5.294,8.616 13.003,22.11 17.131,29.987c4.129,7.877 9.845,18.35 12.703,23.273c17.401,29.975 27.728,49.322 26.977,50.538c-0.833,1.347 -14.513,8.923 -25.402,14.068c-12.828,6.061 -20.944,9.108 -33.7,12.654c-20.647,5.738 -22.775,5.987 -51.202,5.987c-16.238,0 -26.473,-0.339 -27.023,-0.895c-0.487,-0.492 -1.721,-5.93 -2.744,-12.084c-1.022,-6.154 -3.26,-18.037 -4.973,-26.406c-1.713,-8.37 -5.166,-28.913 -7.673,-45.652c-4.17,-27.845 -4.582,-32.032 -4.837,-49.212c-0.265,-17.758 -0.379,-18.843 -2.11,-19.992c-1.02,-0.677 -2.646,-0.957 -3.672,-0.631c-3.662,1.162 -4.085,3.527 -3.925,21.946c0.141,16.172 0.518,19.903 5.14,50.778c2.744,18.328 5.827,37.058 6.85,41.623c1.024,4.566 3.394,16.93 5.267,27.477c2.56,14.41 3.793,19.459 4.96,20.313c2.614,1.911 10.659,2.497 34.92,2.54c26.59,0.048 35.103,-1.077 56.862,-7.511c15.039,-4.448 19.905,-6.428 37.93,-15.44c16.606,-8.303 26.323,-14.491 27.002,-17.197c0.502,-1.999 -5.734,-14.881 -14.344,-29.63c-2.586,-4.431 -6.849,-12.085 -9.473,-17.008c-2.624,-4.923 -6.684,-12.028 -9.023,-15.788c-2.338,-3.761 -6.919,-12.16 -10.178,-18.665c-3.26,-6.504 -10.055,-18.533 -15.102,-26.729c-12.001,-19.494 -18.282,-30.224 -24.862,-42.474c-5.525,-10.287 -9.237,-15.039 -13.48,-17.262c-2.983,-1.563 -3.539,-1.571 -5.58,-0.078z" data-paper-data="{&quot;wickUUID&quot;:&quot;91c2d4f7-6643-4841-823a-68fc770f9278&quot;,&quot;wickType&quot;:&quot;path&quot;,&quot;originalStyle&quot;:{&quot;strokeColor&quot;:null,&quot;fillColor&quot;:[&quot;Color&quot;,0,0,0],&quot;strokeWidth&quot;:1}}" fill="#000000"/><path d="M134.55208,244.96071c-3.707,0.34 -7.635,0.901 -8.728,1.248c-3.972,1.261 -4.708,6.632 -1.169,8.526c1.025,0.548 4.468,0.489 9.652,-0.165c12.626,-1.594 29.856,0.074 52.636,5.095c13.753,3.032 22.882,4.486 34.015,5.418c17.765,1.487 27.488,3.082 41.459,6.801c10.69,2.846 27.718,4.745 31.08,3.467c4.897,-1.862 7.704,-9.153 5.875,-15.259c-1.326,-4.424 -3.926,-6.212 -9.033,-6.212c-4.966,0 -9.658,2.905 -12.604,7.803c-1.121,1.863 -2.094,3.479 -2.162,3.592c-0.069,0.113 -4.531,-0.971 -9.915,-2.409c-12.97,-3.465 -28.366,-5.982 -44.252,-7.234c-8.707,-0.687 -18.899,-2.311 -30.961,-4.932c-24.415,-5.307 -41.474,-7.059 -55.893,-5.739z" data-paper-data="{&quot;wickUUID&quot;:&quot;3095d571-2d23-455d-9407-26e611f41a4d&quot;,&quot;wickType&quot;:&quot;path&quot;,&quot;originalStyle&quot;:{&quot;strokeColor&quot;:null,&quot;fillColor&quot;:[&quot;Color&quot;,0,0,0],&quot;strokeWidth&quot;:1}}" fill="#000000"/><path d="M54.49672,296.80989c-1.049,1.159 -1.402,2.492 -1.041,3.93c0.605,2.412 1.98,3.145 7.274,3.879c7.754,1.077 21.343,6.076 37.148,13.668c9.108,4.375 21.998,10.251 28.645,13.058c15.922,6.726 20.735,9.162 22.487,11.382c0.944,1.197 2.426,1.812 4.24,1.761c3.749,-0.107 4.506,-0.693 6.466,-5.01c3.935,-8.666 0.651,-16.728 -6.856,-16.83c-3.741,-0.051 -9.33,2.202 -9.33,3.761c0,0.479 -0.429,0.872 -0.954,0.872c-1.806,0 -30.85,-12.773 -43.982,-19.343c-21.439,-10.725 -40.181,-15.455 -44.097,-11.128z" data-paper-data="{&quot;wickUUID&quot;:&quot;60418f4e-21cd-4871-8990-07679343c4f1&quot;,&quot;wickType&quot;:&quot;path&quot;,&quot;originalStyle&quot;:{&quot;strokeColor&quot;:null,&quot;fillColor&quot;:[&quot;Color&quot;,0,0,0],&quot;strokeWidth&quot;:1}}" fill="#000000"/><path d="M6.12717,93.98503c-6.828,2.184 -11.23,5.322 -23.039,16.427c-3.811,3.582 -7.32,6.513 -7.799,6.513c-1.032,0 -7,8.628 -9.865,14.262c-1.11,2.182 -4.149,6.814 -6.754,10.294c-2.604,3.479 -6.745,10.153 -9.202,14.83c-3.84,7.311 -4.913,10.576 -7.644,23.273c-4.149,19.285 -4.774,32.122 -2.419,49.68c2.678,19.962 10.202,40.071 17.648,47.165c1.39,1.324 5.181,3.648 8.425,5.163l5.897,2.755l15.349,-0.603c13.175,-0.518 15.557,-0.832 16.811,-2.218c2.051,-2.267 0.952,-5.971 -2.132,-7.187c-1.591,-0.627 -7.017,-0.765 -15.63,-0.396c-12.776,0.548 -13.329,0.496 -17.507,-1.621c-5.406,-2.739 -8.378,-6.963 -12.275,-17.445c-4.259,-11.456 -5.611,-16.949 -7.117,-28.924c-1.891,-15.037 -1.079,-28.205 2.803,-45.473c2.691,-11.969 3.734,-14.966 7.593,-21.819c2.461,-4.37 6.062,-9.954 8.004,-12.41c1.941,-2.456 5.427,-7.874 7.747,-12.039c3.335,-5.99 5.495,-8.62 10.325,-12.571c3.359,-2.748 6.589,-5.677 7.178,-6.509c2.093,-2.954 12.414,-10.907 15.186,-11.702c2.457,-0.705 3.621,-0.332 9.12,2.919c3.468,2.05 7.227,4.665 8.355,5.809c4.831,4.906 11.495,0.1 8.255,-5.953c-0.486,-0.908 -2.198,-2.424 -3.804,-3.369c-18.059,-10.625 -18.016,-10.608 -23.509,-8.851z" data-paper-data="{&quot;wickUUID&quot;:&quot;8c12b507-dd05-4200-95ce-8af76ef0985b&quot;,&quot;wickType&quot;:&quot;path&quot;,&quot;originalStyle&quot;:{&quot;strokeColor&quot;:null,&quot;fillColor&quot;:[&quot;Color&quot;,0,0,0],&quot;strokeWidth&quot;:1}}" fill="#000000"/><path d="M79.23449,64.4138c-3.956,1.186 -11.251,7.848 -14.242,13.006c-1.323,2.281 -4.742,7.725 -7.598,12.097c-2.856,4.372 -5.436,8.92 -5.734,10.106c-0.664,2.648 1.782,5.666 4.594,5.666c2.944,0 3.122,-0.234 15.395,-20.308c4.341,-7.101 9.194,-11.917 12.009,-11.917c2.271,0 15.358,7.255 19.59,10.861l3.133,2.669l-2.685,1.914c-4.346,3.099 -9.525,8.809 -10.838,11.949c-0.67,1.606 -1.628,3.172 -2.128,3.481c-1.255,0.776 -1.142,5.235 0.166,6.543c2.924,2.925 7.778,0.373 10.844,-5.7c0.762,-1.51 3.98,-5.024 7.152,-7.809c6.061,-5.321 9.154,-10.256 8.238,-13.143c-0.787,-2.481 -11.26,-10.438 -20.13,-15.295c-8.117,-4.443 -12.948,-5.564 -17.766,-4.12z" data-paper-data="{&quot;wickUUID&quot;:&quot;a19aa4e7-abd4-4267-9ba7-a47bf2ab40a9&quot;,&quot;wickType&quot;:&quot;path&quot;,&quot;originalStyle&quot;:{&quot;strokeColor&quot;:null,&quot;fillColor&quot;:[&quot;Color&quot;,0,0,0],&quot;strokeWidth&quot;:1}}" fill="#000000"/><path d="M202.60785,425.7447c-0.984,0.985 -1.79,2.414 -1.79,3.176c0,1.615 4.219,5.775 5.856,5.775c2.766,0 16.783,7.586 35.32,19.113c23.664,14.716 52.728,33.938 60.634,40.102c10.654,8.305 13.784,9.457 16.762,6.166c2.005,-2.216 1.239,-5.841 -1.545,-7.302c-1.101,-0.578 -5.628,-3.764 -10.059,-7.08c-16.985,-12.708 -71.628,-47.622 -85.209,-54.444c-6.988,-3.51 -16.07,-7.295 -17.507,-7.296c-0.369,0 -1.477,0.805 -2.462,1.79z" data-paper-data="{&quot;wickUUID&quot;:&quot;e5965212-8686-4244-b534-8042c0c70349&quot;,&quot;wickType&quot;:&quot;path&quot;,&quot;originalStyle&quot;:{&quot;strokeColor&quot;:null,&quot;fillColor&quot;:[&quot;Color&quot;,0,0,0],&quot;strokeWidth&quot;:1}}" fill="#000000"/><path d="M113.09506,450.80809c-0.984,0.985 -1.79,2.41 -1.79,3.168c0,0.758 9.365,10.53 20.812,21.716c29.287,28.621 34.892,33.926 44.532,42.149l8.504,7.254l7.564,0.005c4.168,0.002 7.182,-0.334 6.713,-0.749c-0.467,-0.414 -4.878,-4.112 -9.801,-8.218c-12.979,-10.823 -14.646,-12.364 -40.729,-37.647c-32.46,-31.465 -32.21,-31.272 -35.805,-27.678z" data-paper-data="{&quot;wickUUID&quot;:&quot;bdb608a6-8661-48e3-93e3-e1b6fee7162c&quot;,&quot;wickType&quot;:&quot;path&quot;,&quot;originalStyle&quot;:{&quot;strokeColor&quot;:null,&quot;fillColor&quot;:[&quot;Color&quot;,0,0,0],&quot;strokeWidth&quot;:1}}" fill="#000000"/><path d="M129.91901,294.80233c-1.467,1.874 -2.949,7.017 -2.949,10.234c0,1.649 -0.354,2.999 -0.787,2.999c-0.432,0 -2.69,-2.229 -5.018,-4.954c-3.362,-3.935 -4.485,-4.744 -5.461,-3.934c-1.628,1.352 -0.705,2.982 5.457,9.639c2.703,2.919 4.914,5.926 4.914,6.683c0,0.757 -0.816,4.932 -1.814,9.279c-0.997,4.347 -2.005,8.783 -2.24,9.858c-0.29,1.331 -1.211,2.045 -2.886,2.238c-4.187,0.482 -2.92,2.805 2.595,4.758c2.781,0.985 5.883,2.395 6.894,3.133c1.823,1.332 1.812,1.382 -1.378,6.094c-2.256,3.333 -2.934,5.033 -2.272,5.696c0.52,0.519 1.392,0.668 1.938,0.33c1.396,-0.863 8.114,-10.07 8.114,-11.121c0,-1.144 -6.366,-6.369 -7.76,-6.369c-2.114,0 -2.102,-1.793 0.079,-11.807c2.318,-10.65 5.211,-27.428 5.357,-31.072c0.098,-2.454 -1.447,-3.389 -2.783,-1.684z" data-paper-data="{&quot;wickUUID&quot;:&quot;c8971846-701c-4712-9e66-9cffb5ed6289&quot;,&quot;wickType&quot;:&quot;path&quot;,&quot;originalStyle&quot;:{&quot;strokeColor&quot;:null,&quot;fillColor&quot;:[&quot;Color&quot;,0,0,0],&quot;strokeWidth&quot;:1}}" fill="#000000"/></g><g fill="none" fill-rule="nonzero" stroke="none" stroke-width="1" stroke-linecap="butt" stroke-linejoin="miter" stroke-miterlimit="10" stroke-dasharray="" stroke-dashoffset="0" font-family="sans-serif" font-weight="normal" font-size="12" text-anchor="start" style="mix-blend-mode: normal"/><g id="wick_project_gui" fill="none" fill-rule="nonzero" stroke="none" stroke-width="1" stroke-linecap="butt" stroke-linejoin="miter" stroke-miterlimit="10" stroke-dasharray="" stroke-dashoffset="0" font-family="sans-serif" font-weight="normal" font-size="12" text-anchor="start" style="mix-blend-mode: normal"/></g></svg>