<svg version="1.1" xmlns="http://www.w3.org/2000/svg" xmlns:xlink="http://www.w3.org/1999/xlink" width="1260" height="594" viewBox="0,0,1260,594"><g transform="translate(479.91246,62.26383) scale(0.94565,0.94565)"><g id="wick_project_bg" fill="#999999" fill-rule="nonzero" stroke="none" stroke-width="1" stroke-linecap="butt" stroke-linejoin="miter" stroke-miterlimit="10" stroke-dasharray="" stroke-dashoffset="0" font-family="none" font-weight="none" font-size="none" text-anchor="none" style="mix-blend-mode: normal"><rect x="0" y="0" width="720" height="480"/></g><g data-paper-data="{&quot;wickUUID&quot;:&quot;7f6acfa8-9231-4922-813b-38a8a5505bb2&quot;,&quot;wickType&quot;:&quot;clipsandpaths&quot;}" fill="none" fill-rule="evenodd" stroke="none" stroke-width="1" stroke-linecap="butt" stroke-linejoin="miter" stroke-miterlimit="10" stroke-dasharray="" stroke-dashoffset="0" font-family="none" font-weight="none" font-size="none" text-anchor="none" style="mix-blend-mode: normal"><path d="M232.72426,85.47906c-0.13533,0.219 -0.81019,1.96166 -0.61019,2.72633c0.509,1.94433 1.04027,6.24803 1.04027,8.42736l0.14733,2.23084l5.16286,5.60489c14.70333,15.93767 25.25774,29.49492 33.31707,42.81225c4.65367,7.68967 11.40318,22.40499 19.53318,42.55732c4.193,10.39367 4.94556,12.47292 4.72656,13.34559c-0.10667,0.42467 -1.21414,1.49475 -2.58614,3.01242c-5.40733,5.98167 -10.06898,14.65469 -16.52498,30.74702c-3.48533,8.68733 -7.8524,17.62002 -11.2254,22.95069c-4.78233,7.55767 -15.77762,23.379 -20.23429,29.118l-2.10501,3.59008l7.52185,6.38458c4.03433,3.39167 8.3829,6.98046 9.65523,7.96913l2.56193,1.93842l1.96139,-0.67841c4.95133,-2.361 17.77137,-12.68889 23.6537,-19.04222c10.36633,-11.19633 21.03201,-26.41059 25.49901,-36.35292c4.75833,-10.59033 7.73498,-23.56574 8.63431,-37.73407c0.563,-8.87233 -0.11891,-17.74934 -2.05724,-26.58534c-3.41067,-15.54933 -10.57885,-42.65013 -12.81885,-48.46213c-1.06867,-2.772 -2.80772,-5.89555 -3.29439,-5.89555c-0.79167,0 -5.01519,-4.59355 -8.32352,-9.05255c-6.50733,-8.77067 -12.12264,-13.69645 -28.73497,-25.21145c-9.08967,-6.30067 -13.37786,-8.94894 -15.33986,-9.45994c-0.95967,-0.25 -3.41883,-1.17341 -5.33283,-1.99074c-1.91433,-0.81733 -4.5848,-1.85782 -5.77647,-2.26582c-2.548,-0.872 -8.06155,-1.31345 -8.45055,-0.68378z" data-paper-data="{&quot;wickUUID&quot;:&quot;a19467d5-e808-4fff-8f71-24240cda8e6a&quot;,&quot;wickType&quot;:&quot;path&quot;}" fill="#ff8000"/><path d="M205.29489,89.07228c0,0.09333 0.05498,5.54377 0.70298,11.0881c4.368,37.382 5.4058,49.86365 5.71013,68.83832c0.347,21.669 -1.20653,39.27287 -5.91186,67.02587c-0.74467,4.39167 -1.14852,5.13479 -6.29219,12.84346c-1.258,1.885 -2.43797,4.23084 -2.53564,4.48517c-0.37033,0.965 4.77668,13.91266 8.99368,22.60799c4.43967,9.15433 5.87522,13.41788 6.66222,19.78755l0.52722,3.57029l2.85804,0.17545c5.91233,-0.388 15.43229,-4.88896 15.43229,-7.29329c0,-0.89367 2.84914,-4.19286 3.88414,-4.52119c0.932,-0.296 11.43347,-14.83896 18.62747,-25.79429c8.06,-12.274 9.85958,-15.67228 14.63691,-27.67028c5.54667,-13.931 8.09395,-19.26739 13.30062,-27.84506c3.34333,-5.508 3.55953,-7.14392 1.96286,-11.63559c-1.82667,-5.13767 -12.07081,-28.8389 -15.27014,-35.3279c-5.51967,-11.19567 -12.20604,-20.57665 -27.88171,-39.10598c-12.92233,-15.27433 -20.03567,-22.81614 -23.94667,-25.38881c-6.589,-4.334 -11.46035,-6.59948 -11.46035,-5.83981z" data-paper-data="{&quot;wickUUID&quot;:&quot;99d5a8e7-b925-4a72-b3e2-ec11cfa19b9d&quot;,&quot;wickType&quot;:&quot;path&quot;}" fill="#ff8000"/><path d="M187.21838,196.67442c-4.92333,0.89367 -12.6932,3.41962 -16.5152,5.35662c-1.928,0.977 -3.23117,2.33112 -6.1885,6.58712c-7.221,10.39133 -17.08771,28.91657 -20.41971,38.3319c-2.297,6.49033 -5.60322,20.99238 -5.60855,24.54305c-0.00867,5.87133 5.1778,30.08445 8.2118,38.31978c2.50733,6.805 9.58308,20.49136 14.05208,27.17736c4.123,6.16833 4.8323,6.74009 11.6353,9.07276c6.083,2.08567 18.04034,5.61635 19.99367,5.89668c0.79833,0.11467 1.91924,0.42784 2.40424,0.67484c2.50633,1.27633 18.60142,4.37351 19.98742,3.84651c1.13333,-0.43067 3.79064,-0.36635 5.95364,0.13965c2.14267,0.50133 3.72079,0.25759 6.10346,-0.94974c0.90967,-0.461 1.65743,-0.8646 2.19943,-0.8646c1.20867,0 3.38697,1.62853 4.08664,3.0152l0.87933,1.17728l3.59825,-0.25004c4.599,-0.33033 7.73529,-1.49031 17.25329,-6.31098c20.719,-10.49367 30.86362,-17.73334 36.26995,-25.86534c2.661,-4.003 3.72902,-7.36759 3.73035,-12.54659c0.001,-4.50333 -1.73175,-13.23596 -2.75508,-13.86829c-0.18933,-0.117 -2.49246,0.24153 -3.53579,1.23186c-4.24933,4.033 -19.92132,15.8204 -23.38065,17.5854c-0.72,0.367 -0.95729,0.52971 -1.37696,0.52638c-0.42,-0.003 -1.72233,-0.76825 -3.28066,-1.88425c-3.28333,-2.35133 -13.89828,-10.86301 -18.96461,-15.20668l-3.81342,-3.1511l-2.54705,1.61337c-6.90267,5.29067 -21.36507,9.3927 -26.83407,7.56803c-3.075,-1.026 -3.83442,-3.39048 -4.28809,-9.22915c-0.506,-6.51233 -2.15123,-11.94678 -5.86056,-19.35411c-4.849,-9.68233 -9.19873,-21.03804 -10.53006,-27.49937c-0.77533,-3.76333 -0.7351,-5.67101 0.1919,-7.04701c0.95967,-1.42367 3.12907,-2.89112 4.2364,-2.90545c2.58467,-0.03333 4.24501,-4.56732 6.36668,-17.38699c1.452,-8.77167 3.84076,-27.15884 3.58476,-27.41484c-0.165,-0.16467 -8.7635,-1.44783 -10.3735,-1.42216c-1.00833,0.01567 -3.1538,0.2549 -4.46613,0.4929z" data-paper-data="{&quot;wickUUID&quot;:&quot;31625aa4-7b2a-400e-be57-db5560532927&quot;,&quot;wickType&quot;:&quot;path&quot;}" fill="#ffffff"/><path d="M138.18145,315.98385c-0.01467,0.275 -0.50967,2.37771 -0.685,3.93604c-0.17533,1.55833 -0.55199,5.67975 -0.83799,9.16308c-0.667,8.13 -1.8142,19.51549 -3.71487,36.85516c-1.68467,15.37 -2.08815,24.36649 -1.63448,36.44716l0.30892,6.92513l3.18065,-0.95985c1.034,-0.72567 4.35151,-3.27714 7.37651,-5.67347c8.742,-6.92567 13.7954,-10.65706 19.69373,-14.53873c6.03867,-3.974 10.46952,-8.0186 14.23019,-12.99227l2.22354,-3.03088l0.0277,-5.18519c0.00267,-4.73733 0.04047,-5.0406 0.8668,-6.8086l0.76187,-2.50139l-2.97832,-1.09201c-3.94433,-1.15767 -12.12184,-4.15921 -14.77084,-5.43321c-2.75633,-1.32567 -4.38349,-2.97129 -7.65516,-7.68596c-4.32067,-6.22667 -10.29704,-16.96192 -13.91604,-24.98959c-0.661,-1.46667 -2.46254,-2.71042 -2.47721,-2.43542z" data-paper-data="{&quot;wickUUID&quot;:&quot;cfe9e307-9b53-4c57-b459-23d03df53b99&quot;,&quot;wickType&quot;:&quot;path&quot;}" fill="#8000ff"/><path d="M120.94584,272.86948c-3.81767,1.27233 -7.94547,2.85841 -8.8798,3.36641c-1.998,1.087 -6.69878,6.17342 -11.14411,12.05909c-4.03033,5.33633 -5.14605,7.68396 -8.79905,18.46629c-3.33567,9.84567 -4.23082,14.55896 -6.28349,33.01296c-2.76433,24.85167 -2.71583,30.39157 0.44984,50.52457c1.18333,7.52567 1.8869,10.87534 4.8909,23.07701c3.04433,12.36467 6.94833,26.14443 9.16666,32.3521c2.327,6.51267 9.31547,31.81945 9.31547,33.81578c0,0.971 17.8582,7.3682 23.83387,8.4982c5.19933,0.98333 15.57466,0.29519 35.62899,-2.38548c17.87067,-2.38867 44.83196,-7.98018 49.38963,-10.24385c1.354,-0.67267 2.13522,-1.8757 2.03589,-2.77003c-0.192,-1.73267 -1.69842,-5.86918 -4.91075,-13.44185c-1.71067,-4.03333 -3.6263,-8.92947 -4.3013,-11.0348c-3.55967,-11.101 -5.88108,-25.57247 -6.82275,-42.5598c-0.53367,-9.62967 0.13777,-16.61231 2.15444,-22.66798l0.77844,-2.48264l-1.12245,-1.51854c-1.08667,-1.23767 -2.63382,-4.25582 -2.63915,-5.16449c-0.009,-1.55067 -1.57436,-1.81428 -2.47136,-0.40128c-1.334,2.102 -3.96678,4.37167 -6.05511,5.153c-2.299,0.86033 -4.11955,0.81179 -6.82255,-0.02954l-2.6176,-0.53173l-4.73676,4.9189c-5.37067,5.618 -9.43478,9.10406 -15.01211,12.87539c-5.719,3.867 -10.62071,7.46059 -15.97638,11.71426c-6.74267,5.35567 -8.16357,6.42716 -11.92257,8.88883c-6.89967,4.51833 -9.57376,5.92734 -12.20076,4.38834c-3.126,-1.83167 -3.19636,-3.25823 -3.16969,-25.47956l0.02238,-17.72045l2.04593,-18.29177c1.127,-10.08333 2.58067,-24.10529 3.23034,-31.16362c1.329,-14.43433 1.91711,-19.37825 2.85911,-24.04192c0.35767,-1.77033 0.63662,-3.7307 0.63662,-4.4537c0,-1.51067 0.53389,-3.31003 1.33022,-4.43636c0.517,-0.73133 0.50333,-1.22337 -0.209,-4.55604c-1.252,-5.86 -2.77914,-15.48238 -2.77914,-17.51071c0,-1.30433 -1.01735,-2.60578 -1.30335,-2.59678c-0.229,0.00733 -3.7715,1.09979 -7.5895,2.37179z" data-paper-data="{&quot;wickUUID&quot;:&quot;06a96dab-4d70-4b5a-98ca-b1fbd477494b&quot;,&quot;wickType&quot;:&quot;path&quot;}" fill="#8000ff"/><path d="M185.15362,187.7475c-6.133,1.409 -17.656,5.442 -20.73,7.256c-5.018,2.961 -16.45,20.66 -24.885,38.529c-5.297,11.221 -10.337,29.906 -10.323,38.277c0.01,6.329 4.547,28.537 7.979,39.053c4.306,13.199 17.761,36.518 22.902,39.696c5.87,3.628 30.825,11.229 45.197,13.766c12.236,2.161 18.23,2.564 22.207,1.493c6.268,-1.688 8.573,-7.557 4.115,-10.478c-2.195,-1.438 -2.488,-1.432 -5.351,0.11c-3.598,1.938 -10.711,1.541 -23.995,-1.337c-10.98,-2.379 -32.959,-9.149 -35.848,-11.042c-4.473,-2.93 -16.563,-24.657 -20.244,-36.378c-3.128,-9.96 -7.124,-29.683 -7.124,-35.162c0,-2.101 1.2,-8.732 2.666,-14.735c2.081,-8.525 4.02,-13.616 8.856,-23.251c6.234,-12.422 15.397,-27.197 18.553,-29.915c2.576,-2.219 14.267,-6.127 20.178,-6.744c2.933,-0.307 8.188,-0.044 11.939,0.598c7.644,1.308 9.419,0.634 9.419,-3.577c0,-3.339 -1.427,-4.303 -8.627,-5.828c-6.87,-1.456 -11.584,-1.548 -16.884,-0.331z" data-paper-data="{&quot;wickUUID&quot;:&quot;ab4f87a1-4f46-4153-91a7-540e7e3043b0&quot;,&quot;wickType&quot;:&quot;path&quot;,&quot;originalStyle&quot;:{&quot;strokeColor&quot;:null,&quot;fillColor&quot;:[&quot;Color&quot;,0,0,0],&quot;strokeWidth&quot;:1}}" fill="#000000"/><path d="M178.06929,70.66757c-2.25,2.25 -2.339,3.974 -0.34,6.572c0.441,0.573 3.5,2.118 6.798,3.434c7.248,2.891 8.837,4.22 10.057,8.413c1.345,4.627 5.106,35.338 6.68,54.539c2.288,27.931 1.848,46.303 -1.697,70.869c-3.131,21.699 -4.846,27.749 -7.866,27.749c-0.894,0 -2.48,0.855 -3.525,1.9c-1.625,1.625 -1.821,2.568 -1.349,6.49c0.655,5.436 5.231,18.03 9.961,27.415c4.658,9.241 6.715,15.605 6.715,20.773c0,5.412 1.982,9.451 5.011,10.211c6.089,1.528 19.356,-2.153 26.404,-7.326c4.532,-3.327 13.331,-14.792 27.482,-35.811c7.39,-10.976 9.854,-15.779 15.843,-30.879c5.03,-12.682 11.079,-23.921 14.922,-27.726c1.887,-1.868 3.431,-3.975 3.431,-4.681c0,-1.572 -8.489,-22.468 -16.264,-40.033c-8.811,-19.905 -23.649,-40.036 -48.996,-66.473c-8.323,-8.68 -17.843,-14.824 -29.467,-19.016c-3.606,-1.301 -8.271,-3.573 -10.365,-5.049c-2.094,-1.476 -5.457,-2.905 -7.473,-3.176c-3.108,-0.417 -4.015,-0.142 -5.962,1.805zM211.89029,92.44857c3.018,1.8 6.452,4.116 7.63,5.147c6.122,5.357 31.3,34.899 38.305,44.944c8.105,11.622 10.111,15.513 19.784,38.388c8.623,20.393 8.293,17.818 3.332,25.99c-4.728,7.788 -8.094,14.887 -12.551,26.465c-1.629,4.235 -4.255,10.277 -5.834,13.427c-5.082,10.139 -27.48,42.248 -32.539,46.647c-3.084,2.682 -8.222,4.819 -13.196,5.489l-3.243,0.436l-0.567,-4.829c-0.633,-5.386 -2.791,-11.405 -7.2,-20.084c-1.626,-3.201 -4.24,-9.254 -5.809,-13.452l-2.852,-7.633l4.066,-6.192c2.237,-3.405 4.255,-6.818 4.485,-7.584c0.23,-0.766 1.694,-10.053 3.254,-20.637c4.842,-32.86 4.587,-58.862 -1.046,-106.883c-1.439,-12.261 -2.616,-22.432 -2.616,-22.602c0,-0.754 1.466,-0.096 6.597,2.963z" data-paper-data="{&quot;wickUUID&quot;:&quot;e2def860-ac87-4a38-85e2-8ee98f2d2f46&quot;,&quot;wickType&quot;:&quot;path&quot;,&quot;originalStyle&quot;:{&quot;strokeColor&quot;:null,&quot;fillColor&quot;:[&quot;Color&quot;,0,0,0],&quot;strokeWidth&quot;:1}}" fill="#000000"/><path d="M223.49883,76.6436c-2.928,1.181 -3.174,3.463 -1.205,11.164c0.989,3.864 1.797,8.398 1.797,10.075c0,4.454 1.404,6.511 4.444,6.511c4.447,0 5.692,-2.164 5.121,-8.899c-0.274,-3.229 -0.772,-6.777 -1.108,-7.885c-0.563,-1.862 -0.33,-2.014 3.095,-2.014c2.204,0 6.105,1.089 9.627,2.686c3.258,1.477 6.507,2.685 7.221,2.685c0.714,0 5.794,3.105 11.289,6.899c22.088,15.251 26.063,18.719 33.203,28.966c1.91,2.741 4.719,5.801 6.243,6.801c2.242,1.472 3.253,3.305 5.309,9.63c3.066,9.433 10.639,39.254 12.603,49.624c3.625,19.139 0.065,44.896 -8.614,62.328c-5.117,10.278 -16.57,25.926 -26.006,35.532c-7.216,7.346 -21.613,18.142 -23.296,17.47c-1,-0.399 -4.691,-3.421 -20.121,-16.474c-3.084,-2.609 -6.206,-4.743 -6.937,-4.743c-1.63,0 -4.912,3.157 -4.912,4.724c0,0.629 0.614,2.02 1.365,3.091c2.333,3.332 29.174,25.305 30.911,25.305c1.593,0 6.75,-3.558 20.358,-14.045c12.96,-9.989 30.405,-31.878 37.928,-47.591c6.482,-13.541 10.543,-31.864 10.569,-47.695c0.022,-13.129 -0.929,-18.789 -7.68,-45.702c-6.944,-27.682 -9.076,-33.32 -14.489,-38.315c-2.401,-2.215 -5.601,-5.854 -7.111,-8.086c-3.795,-5.61 -13.55,-14.568 -23.102,-21.216c-4.411,-3.07 -10.871,-7.591 -14.356,-10.047c-5.677,-4.001 -11.032,-6.365 -23.57,-10.402c-4.317,-1.39 -15.5,-1.617 -18.576,-0.377z" data-paper-data="{&quot;wickUUID&quot;:&quot;e7b988cb-11aa-4cf6-a891-c8812456ad15&quot;,&quot;wickType&quot;:&quot;path&quot;,&quot;originalStyle&quot;:{&quot;strokeColor&quot;:null,&quot;fillColor&quot;:[&quot;Color&quot;,0,0,0],&quot;strokeWidth&quot;:1}}" fill="#000000"/><path d="M289.61455,290.75955c-1.481,1.481 -1.349,5.64 0.221,6.943c4.171,3.461 5.996,19.014 2.95,25.126c-4.703,9.435 -14.972,17.41 -36.468,28.319c-12.377,6.281 -14.013,6.874 -20.051,7.261c-5.121,0.329 -7.972,-0.011 -12.904,-1.537c-6.843,-2.118 -9.367,-1.707 -10.449,1.704c-1.014,3.194 1.078,5.255 7.276,7.169c14.598,4.509 22.594,3.212 41.981,-6.811c7.133,-3.688 16.159,-8.903 20.059,-11.589c12.677,-8.733 20.947,-19.815 22.109,-29.629c1.027,-8.669 -2.855,-23.094 -7.117,-26.444c-2.291,-1.8 -6.065,-2.054 -7.607,-0.512z" data-paper-data="{&quot;wickUUID&quot;:&quot;0003c31f-ae64-4069-996d-91dd70362e5f&quot;,&quot;wickType&quot;:&quot;path&quot;,&quot;originalStyle&quot;:{&quot;strokeColor&quot;:null,&quot;fillColor&quot;:[&quot;Color&quot;,0,0,0],&quot;strokeWidth&quot;:1}}" fill="#000000"/><path d="M132.47947,294.90313c-0.815,0.9 -1.491,2.813 -1.503,4.251c-0.012,1.439 -0.425,4.227 -0.918,6.196c-0.494,1.969 -1.474,10.227 -2.18,18.35c-0.705,8.123 -1.881,20.208 -2.612,26.854c-0.731,6.646 -1.84,16.716 -2.464,22.378c-0.649,5.886 -1.02,17.577 -0.866,27.301c0.291,18.409 0.746,20.328 5.082,21.416c3.13,0.785 11.487,-4.127 22.898,-13.46c4.611,-3.771 11.807,-9.042 15.991,-11.714c4.461,-2.848 10.202,-7.616 13.875,-11.524l6.266,-6.667l3.259,1.025c6.706,2.108 14.196,-4.482 14.196,-12.493c0,-12.697 -11.694,-19.978 -20.155,-12.549c-4.753,4.173 -6.116,7.366 -5.474,12.824c0.534,4.544 0.493,4.639 -4.464,10.537c-3.304,3.932 -7.172,7.258 -11.399,9.803c-3.519,2.118 -10.426,7.091 -15.349,11.051c-4.923,3.96 -10.212,8.082 -11.753,9.16l-2.801,1.959l-0.45,-11.397c-0.269,-6.818 0.042,-15.894 0.773,-22.587c3.252,-29.768 4.085,-38.016 4.923,-48.784c0.499,-6.4 1.488,-14.803 2.198,-18.673c1.651,-8.992 1.627,-11.746 -0.115,-13.488c-1.886,-1.886 -5.14,-1.778 -6.958,0.231z" data-paper-data="{&quot;wickUUID&quot;:&quot;0b5640c9-cc8e-4ec2-82cd-fcffd9acfe5e&quot;,&quot;wickType&quot;:&quot;path&quot;,&quot;originalStyle&quot;:{&quot;strokeColor&quot;:null,&quot;fillColor&quot;:[&quot;Color&quot;,0,0,0],&quot;strokeWidth&quot;:1}}" fill="#000000"/><path d="M204.69988,358.65964c-2.05,0.274 -4.387,1.045 -5.193,1.714c-2.099,1.743 -1.464,6.504 1.013,7.592c1.404,0.616 2.104,1.952 2.538,4.845c0.906,6.04 4.362,9.073 10.341,9.073c3.055,0 5.633,-0.6 7.477,-1.74l2.815,-1.739l11.867,8.316c6.526,4.574 12.674,9.183 13.662,10.243c2.112,2.267 5.497,2.503 7.48,0.521c1.944,-1.945 1.766,-4.255 -0.782,-10.118c-1.203,-2.77 -3.44,-8.258 -4.97,-12.197c-5.059,-13.015 -9.28,-17.416 -13.841,-14.428c-2.856,1.872 -2.877,4.153 -0.076,8.405c3.048,4.628 5.42,10.432 3.89,9.518c-5.572,-3.329 -10.564,-7.972 -10.564,-9.826c0,-3.567 -1.904,-6.498 -5.271,-8.111c-3.585,-1.718 -14.62,-2.837 -20.386,-2.068z" data-paper-data="{&quot;wickUUID&quot;:&quot;3b58bc41-cdb8-4ef3-8bfc-dc7299ca7b0c&quot;,&quot;wickType&quot;:&quot;path&quot;,&quot;originalStyle&quot;:{&quot;strokeColor&quot;:null,&quot;fillColor&quot;:[&quot;Color&quot;,0,0,0],&quot;strokeWidth&quot;:1}}" fill="#000000"/><path d="M125.62667,261.66802c-2.215,0.712 -7.843,2.776 -12.507,4.586c-8.24,3.198 -8.664,3.505 -15.061,10.899c-7.206,8.331 -9.63,12.492 -13.715,23.551c-4.316,11.684 -5.957,20.223 -8.291,43.136c-2.381,23.385 -2.337,25.155 1.232,49.093c1.897,12.727 10.756,47.034 14.828,57.425c1.158,2.956 3.541,11.154 5.295,18.22c3.577,14.406 4.175,15.88 6.779,16.706c2.288,0.727 6.223,-1.714 6.223,-3.86c0,-2.573 -7.025,-29.147 -9.32,-35.252c-4.13,-10.992 -12.084,-41.62 -13.962,-53.767c-3.588,-23.212 -3.642,-25.212 -1.291,-47.898c1.187,-11.449 2.744,-23.331 3.46,-26.406c1.689,-7.256 6.474,-20.89 8.651,-24.65c3.017,-5.212 11.772,-15.463 14.344,-16.792c3.542,-1.832 18.723,-6.667 20.932,-6.667c2.833,0 5.83,-2.531 5.83,-4.923c0,-4.535 -5.54,-5.939 -13.427,-3.401z" data-paper-data="{&quot;wickUUID&quot;:&quot;9661685d-7eb5-43e7-ad7f-8c89d636676c&quot;,&quot;wickType&quot;:&quot;path&quot;,&quot;originalStyle&quot;:{&quot;strokeColor&quot;:null,&quot;fillColor&quot;:[&quot;Color&quot;,0,0,0],&quot;strokeWidth&quot;:1}}" fill="#000000"/><path d="M214.68377,367.76202c-10.516,13.99 -12.371,22.977 -9.934,48.136c1.665,17.187 4.635,30.377 9.147,40.61c5.018,11.382 6.871,16.781 6.038,17.589c-2.378,2.307 -31.637,8.64 -51.342,11.113c-27.439,3.444 -31.18,3.579 -38.951,1.411c-3.931,-1.097 -10.663,-3.379 -14.96,-5.071c-8.361,-3.294 -10.688,-3.17 -11.894,0.631c-1.074,3.383 1.665,5.763 10.455,9.09c13.96,5.284 20.155,6.423 31.541,5.801c31.823,-1.738 78.574,-11.179 85.042,-17.173c2.78,-2.576 2.895,-4.516 0.57,-9.598c-11.224,-24.535 -14.455,-36.339 -16.235,-59.326c-0.988,-12.747 -0.946,-15.047 0.381,-20.916c1.44,-6.367 6.089,-15.522 9.192,-18.096c4.235,-3.516 2.78,-9.772 -2.273,-9.772c-2.129,0 -3.332,0.989 -6.777,5.571z" data-paper-data="{&quot;wickUUID&quot;:&quot;55dd9e23-a665-4796-bdd8-4acd18be97c2&quot;,&quot;wickType&quot;:&quot;path&quot;,&quot;originalStyle&quot;:{&quot;strokeColor&quot;:null,&quot;fillColor&quot;:[&quot;Color&quot;,0,0,0],&quot;strokeWidth&quot;:1}}" fill="#000000"/></g><g fill="none" fill-rule="nonzero" stroke="none" stroke-width="1" stroke-linecap="butt" stroke-linejoin="miter" stroke-miterlimit="10" stroke-dasharray="" stroke-dashoffset="0" font-family="sans-serif" font-weight="normal" font-size="12" text-anchor="start" style="mix-blend-mode: normal"/><g id="wick_project_gui" fill="none" fill-rule="nonzero" stroke="none" stroke-width="1" stroke-linecap="butt" stroke-linejoin="miter" stroke-miterlimit="10" stroke-dasharray="" stroke-dashoffset="0" font-family="sans-serif" font-weight="normal" font-size="12" text-anchor="start" style="mix-blend-mode: normal"/></g></svg>