<svg version="1.1" xmlns="http://www.w3.org/2000/svg" xmlns:xlink="http://www.w3.org/1999/xlink" width="1260" height="594" viewBox="0,0,1260,594"><g transform="translate(479.91246,62.26383) scale(0.94565,0.94565)"><g id="wick_project_bg" fill="#999999" fill-rule="nonzero" stroke="none" stroke-width="1" stroke-linecap="butt" stroke-linejoin="miter" stroke-miterlimit="10" stroke-dasharray="" stroke-dashoffset="0" font-family="none" font-weight="none" font-size="none" text-anchor="none" style="mix-blend-mode: normal"><rect x="0" y="0" width="720" height="480"/></g><g data-paper-data="{&quot;wickUUID&quot;:&quot;68a20d11-a754-4a41-a90a-758f40367f0c&quot;,&quot;wickType&quot;:&quot;clipsandpaths&quot;}" fill="none" fill-rule="evenodd" stroke="none" stroke-width="1" stroke-linecap="butt" stroke-linejoin="miter" stroke-miterlimit="10" stroke-dasharray="" stroke-dashoffset="0" font-family="none" font-weight="none" font-size="none" text-anchor="none" style="mix-blend-mode: normal"><path d="M78.12239,186.37782c-6.55333,0.32967 -12.76153,1.43385 -18.16186,3.24318l-3.87524,1.53368l-0.35362,5.87098c-0.20567,4.47 -0.13666,18.9286 0.12634,26.4696c0.032,0.91667 -0.10008,2.67511 -0.29508,3.95844c-0.19467,1.28333 -0.40547,5.79276 -0.46714,9.99876l-0.05406,7.98448l4.02043,1.12328c4.44967,0.787 8.23724,1.20745 14.41124,1.60712c8.41933,0.54533 19.93565,3.15216 31.54498,7.14049c2.93233,1.00733 6.28536,2.24826 7.55169,2.78859c1.26667,0.54 3.36362,0.58923 3.43095,0.5219c0.06733,-0.067 -0.05804,-2.23732 -0.44337,-4.21799c-1.694,-8.705 -1.83378,-14.23831 -0.71545,-28.53898c0.76333,-9.761 2.22465,-25.06717 2.53298,-26.54217c0.139,-0.66533 -0.23291,-1.62998 -0.58224,-1.62998c-0.465,0 -3.25932,-2.1538 -7.58132,-5.8488c-2.56833,-2.19567 -5.12569,-3.47012 -8.50936,-4.33245c-4.388,-1.11833 -13.61354,-1.58113 -22.57987,-1.13013z" data-paper-data="{&quot;wickUUID&quot;:&quot;1c4f1952-2cd9-40b4-bfa8-852266932be9&quot;,&quot;wickType&quot;:&quot;path&quot;}" fill="#ff8000"/><path d="M51.34105,81.47018c-4.31067,6.07733 -7.38225,12.09718 -9.94592,19.46985c-4.145,11.92 -7.12217,22.66873 -6.58084,23.6804c0.41333,0.772 2.35331,2.04262 5.97464,2.53095c9.11333,1.22933 20.28645,3.95765 28.23112,6.92098c16.365,6.10467 22.99555,10.63201 31.78288,21.70868c7.139,8.99833 9.59737,12.86727 14.4357,22.50294c1.47267,2.93333 4.07621,5.22658 4.08454,5.00991c0.06,-1.60633 1.92101,-9.97298 2.59501,-11.76331c3.034,-8.06067 9.34299,-17.0196 15.03032,-21.29127c6.31633,-4.74433 31.07222,-19.40306 35.51889,-21.03739c0.79633,-0.29267 2.60203,-0.80615 4.22136,-1.22915c1.61933,-0.423 3.46656,-2.17502 3.56989,-2.27835c0.90233,-0.902 -12.40769,-15.24274 -19.35102,-20.84774c-3.82667,-3.08933 -5.56918,-4.17669 -10.68185,-6.63302c-8.35867,-4.01567 -20.81859,-8.56561 -29.20892,-10.67528c-11.177,-2.81 -51.10793,-8.94463 -62.26426,-9.5643l-4.6884,-0.16235z" data-paper-data="{&quot;wickUUID&quot;:&quot;8e9869fa-4a5d-431c-ac4b-b2779a2d5b70&quot;,&quot;wickType&quot;:&quot;path&quot;}" fill="#ff8000"/><path d="M160.17522,58.28881c0,0.303 0.97618,3.51912 2.15351,6.58679c2.97067,7.742 9.90829,30.47802 11.56862,37.91535c0.43133,1.93233 0.71984,2.37559 4.48084,6.00259c2.14133,2.065 4.15984,4.30968 4.47651,4.97735c0.317,0.66767 1.38688,2.06967 2.45155,3.214c2.03867,2.19133 3.17781,3.9493 3.87581,6.28563c0.49867,1.66933 0.73163,1.79798 6.21063,0.93465c6.79233,-1.07 8.16051,-1.12464 14.11784,-0.39497c8.45233,1.035 17.50376,3.45898 37.55143,10.05398c14.84267,4.88233 19.26807,6.80183 26.32174,11.44883c4.47167,2.946 10.06364,8.55733 13.02197,13.03866c2.17967,3.30233 5.223,9.07753 6.65733,12.6032l1.76783,2.24683l2.16895,-3.035c2.494,-3.888 4.03939,-6.9097 4.63339,-8.94837c0.65833,-2.26033 0.57165,-7.1607 -0.06068,-11.3317c-1.78433,-11.768 -5.99587,-17.27013 -34.4512,-44.9878c-16.094,-15.67667 -19.86354,-18.96419 -26.07554,-22.81752c-9.111,-5.65133 -32.6954,-15.4647 -47.31673,-19.68337c-10.424,-3.00733 -18.80593,-4.48746 -28.85693,-5.07579c-3.353,-0.19633 -4.69687,0.47433 -4.69687,0.96666z" data-paper-data="{&quot;wickUUID&quot;:&quot;7c7037b2-e7c8-4b1b-9ebb-38cf6f998820&quot;,&quot;wickType&quot;:&quot;path&quot;}" fill="#ff8000"/><path d="M259.94124,259.34044c-4.87333,0.905 -9.50536,3.46025 -14.02536,7.75392c-2.65333,2.52033 -4.44747,5.51761 -5.27947,8.78261c-0.71967,2.82333 -1.05912,17.09127 -0.51245,21.72427c0.31067,2.63433 2.24313,10.22659 2.63513,10.74492c0.21567,0.28533 8.62618,-3.70451 8.62618,-4.10084c0,-0.23267 -0.4712,-3.37502 -1.2052,-6.35269c-2.80533,-11.382 -2.88336,-12.08142 -0.24769,-14.51075c2.424,-2.23467 2.56811,-1.80109 5.34411,0.39324c1.67833,1.32667 1.44672,1.22485 1.72472,3.48218c0.229,1.861 2.95845,11.06167 3.23112,11.35467c0.62,0.667 6.001,-4.25959 10.26567,-9.79826l2.2734,-3.11965l-1.55958,-2.39654c-0.76033,-0.95533 -2.29309,-2.85032 -3.46776,-4.29665c-2.24067,-2.75833 -3.55499,-4.87845 -3.56032,-6.23445c-0.00833,-2.057 1.68092,-3.91974 3.72492,-3.91974c1.69333,0 4.28702,2.11486 7.22969,5.60753c1.00833,1.19667 3.13154,1.93324 3.25754,1.80557c0.57833,-0.58567 2.87955,-6.43857 3.56888,-9.13457l0.72564,-3.65034l-3.44174,-2.03008c-1.676,-0.902 -4.07273,-1.9204 -4.9894,-2.16673c-2.14,-0.57567 -11.14203,-0.52729 -14.31803,0.06238z" data-paper-data="{&quot;wickUUID&quot;:&quot;c734d9e4-9f00-4c25-800e-bbacada8a96d&quot;,&quot;wickType&quot;:&quot;path&quot;}" fill="#ffffff"/><path d="M195.36623,132.65571c-4.61167,0.58467 -11.23086,1.92441 -15.20353,3.06008c-5.932,1.696 -19.0954,8.8426 -31.4744,17.0866c-8.70367,5.79633 -11.6643,8.728 -15.45463,15.003c-3.979,6.587 -5.23878,12.65265 -7.73311,37.60665c-3.10033,31.01967 -3.27269,38.01827 -1.18869,47.88794c1.43033,6.77567 3.10121,10.97239 6.10488,15.05806c0.87633,1.19167 1.89106,2.50455 2.10973,2.68788c0.21833,0.18333 1.58895,1.75968 2.99862,3.45101c3.438,4.124 14.04834,14.97564 17.20467,17.59731c3.53167,2.93333 5.34129,4.00332 7.43229,4.34365c0.99333,0.16167 3.18931,0.87459 4.79298,1.54692c1.60367,0.67233 3.86334,1.6152 4.93934,2.06853c2.90367,1.223 7.22718,2.22566 15.17318,3.54499c15.78,2.62033 16.99578,3.32701 16.00178,9.23701l0.09951,1.77879l11.60477,-0.20172c11.68033,-0.21133 13.8733,-0.40502 18.4453,-1.62569c2.15067,-0.57433 3.29446,-1.66347 3.09546,-2.1108c-1.896,-4.26233 -2.67071,-9.13967 -3.17671,-20.093c-0.54767,-11.84933 -0.04375,-15.66913 3.14425,-21.9878c3.738,-7.41 10.97939,-13.68969 18.78839,-16.34602c4.625,-1.573 7.43489,-1.86989 15.74889,-1.88522c8.65667,-0.01567 9.2979,0.11753 12.83257,2.44653c1.09367,0.72067 3.09439,0.59722 3.20639,0.47089c0.247,-0.279 3.51531,-18.42788 5.21964,-28.99221c1.173,-7.272 1.24447,-8.18612 1.2218,-15.29979c-0.024,-7.555 -0.67085,-15.27873 -1.70152,-20.7164c-1.764,-9.30533 -8.75384,-23.82829 -14.76884,-30.83862c-5.49533,-6.40467 -16.53767,-11.54286 -41.51034,-19.20719c-11.14167,-3.41933 -15.52917,-4.64209 -18.91084,-5.27442c-3.919,-0.73333 -14.31216,-0.89696 -19.04183,-0.29696zM273.18263,176.89715c3.247,0.84867 5.13602,1.87645 6.09469,3.30612c0.821,1.22467 0.83121,2.07081 0.23321,3.23748c-0.69233,1.35 -1.86208,2.40059 -2.89041,2.58892c-0.56833,0.104 -2.41548,-0.21713 -4.60148,-0.69213c-2.234,-0.48567 -4.7635,-0.69153 -5.25117,-0.5692c-1.348,0.33833 -5.84715,4.13406 -7.75415,6.53039c-5.21567,6.55467 -11.50415,19.26233 -14.29348,28.888c-1.32167,4.56033 -2.21944,9.35147 -2.22811,12.0328c-0.01033,3.09967 -0.21004,4.74301 -1.14137,5.75634c-1.79733,1.95567 -5.33663,2.50733 -7.0283,1.177c-0.467,-0.36733 -3.41705,-1.55548 -6.87072,-2.72148c-16.06533,-5.42467 -27.82185,-10.59681 -54.73952,-24.08714c-21.20233,-10.62567 -24.16306,-12.47437 -24.16306,-15.12504c0,-1.44 0.64051,-1.45913 1.82951,-2.5698c0.74033,-0.69167 0.20121,-0.58311 1.89188,-0.45344c2.86033,0.219 6.30528,1.72476 25.38461,11.08543c23.76,11.65733 42.44831,20.03546 52.07631,23.34613l2.96956,0.75364l1.08421,-2.75175c0.35733,-1.22533 1.20246,-4.20916 1.93179,-6.77583c3.35333,-11.80167 10.83205,-27.0653 17.53705,-35.77897c1.55967,-2.02667 4.69325,-4.27163 8.70392,-6.29696c4.15033,-2.09567 6.04003,-2.23584 11.22503,-0.88051zM257.42429,220.0161c6.35867,1.65633 9.26482,7.14489 7.58282,14.70489c-1.30367,5.86067 -4.48894,9.84746 -9.65961,12.51779c-2.722,1.406 -2.43985,1.32239 -4.00552,1.19272c-2.54967,-0.21133 -4.17288,-1.20398 -5.03388,-3.15098c-0.614,-1.38833 -0.5359,-1.46303 -0.36423,-5.69403c0.21367,-5.27833 1.12122,-11.20452 2.18789,-14.05552c1.18167,-3.15767 2.94966,-4.65662 6.17766,-5.41729c1.80467,-0.425 1.00487,-0.64725 3.11487,-0.09758zM178.70502,226.89735c2.50467,1.267 4.50733,2.95055 5.411,5.36622c2.913,7.78533 -3.21867,19.29654 -11.53934,21.68787c-2.68,0.77033 -2.68441,0.41294 -4.72441,-1.49539c-2.512,-2.34967 -3.1223,-3.63987 -3.11197,-6.90787c0.01367,-4.28 2.77378,-14.14802 4.69278,-16.79735c0.92633,-1.27833 2.10344,-1.98122 4.07611,-2.62522c1.43967,-0.46967 3.25883,-0.20859 5.19583,0.77174z" data-paper-data="{&quot;wickUUID&quot;:&quot;473c6607-ab82-4c5c-8012-08f336421c0e&quot;,&quot;wickType&quot;:&quot;path&quot;}" fill="#ffffff"/><path d="M254.58639,312.59186c-9.968,5.00867 -22.07849,9.20239 -29.54482,10.22206c-3.247,0.44367 -8.72039,0.43107 -16.25806,-0.0056c-9.34367,-0.541 -15.65482,-1.62742 -21.57749,-3.70842c-1.53133,-0.538 -3.67498,-0.55991 -3.70198,-0.50224c-2.98333,6.34967 -9.75986,18.78955 -17.24353,31.66188c-13.35833,22.978 -18.17879,31.80237 -26.96579,49.35704c-8.49667,16.97533 -13.89137,28.77668 -19.1547,41.89968c-4.83933,12.06667 -9.39346,26.17054 -9.43813,29.23121c-0.025,1.68667 0.47263,2.8112 1.76396,3.95787c2.10433,1.86833 23.47986,11.97052 35.39286,16.73085c17.78133,7.10533 31.95409,10.2746 51.09576,11.43593c9.78367,0.59367 16.32891,0.11595 43.11991,-3.20805c5.225,-0.64833 11.04073,-1.41523 12.87406,-1.6989l4.00338,-1.03188l0.14693,-8.02558c0.04533,-4.246 0.30758,-13.06979 0.58258,-19.57812c0.809,-19.14633 0.69171,-24.627 -0.84229,-39.36233c-0.35333,-3.39167 -0.87937,-9.13767 -1.1657,-12.71267c-0.286,-3.575 -0.62769,-7.17031 -0.75802,-7.97664l-0.54385,-2.03524l-5.1158,-2.89636c-15.122,-8.51833 -32.80909,-18.6659 -38.61342,-22.15357c-3.63833,-2.186 -6.90075,-4.09512 -7.11942,-4.17912c-0.22267,-0.08533 -1.32938,0.40189 -1.55738,1.03222c-1.216,3.36267 -6.90989,6.80815 -11.77389,6.80815c-5.854,0 -10.61,-5.29524 -12.88433,-14.25991c-1.82733,-7.20367 -0.49842,-13.13965 3.79125,-17.54365c2.16567,-2.22333 3.15096,-2.63888 6.55629,-2.82421c6.51133,-0.35467 12.46774,3.30876 14.11441,8.63976c0.37167,1.203 0.50213,2.78852 0.62213,4.07919c0.14067,1.514 0.7846,3.07253 1.14493,3.43286c1.01333,1.01333 30.7705,18.69056 46.5305,27.64156l4.27207,1.10987l0.21423,-21.36136c0.21667,-22.645 0.30357,-25.10933 1.32857,-37.559c0.63067,-7.658 1.91091,-25.73292 1.83458,-25.83459c-0.02,-0.02667 -2.95347,0.12364 -5.1298,1.21731z" data-paper-data="{&quot;wickUUID&quot;:&quot;7052cf37-f0dc-420e-878c-f81d31c8d0b0&quot;,&quot;wickType&quot;:&quot;path&quot;,&quot;originalStyle&quot;:{&quot;strokeColor&quot;:null,&quot;fillColor&quot;:[&quot;Color&quot;,0.50196,0,1],&quot;strokeWidth&quot;:1}}" fill="#8000ff"/><path d="M200.81831,122.94527c-7.722,0.778 -23.667,3.999 -28.213,5.7c-5.475,2.048 -29.739,16.405 -36.669,21.697c-5.31,4.054 -11.733,13.366 -14.554,21.097c-2.221,6.091 -5.545,32.528 -7.369,58.615c-0.776,11.095 -0.699,14.663 0.458,21.334c2.693,15.52 5.087,19.839 19.418,35.039c12.638,13.405 19.475,18.742 26.981,21.06c3.06,0.945 9.575,3.952 14.476,6.681c11.914,6.633 20.29,8.762 36.662,9.318c11.363,0.386 13.326,0.215 21.041,-1.839c4.679,-1.245 13.555,-4.649 19.723,-7.565c13.708,-6.479 20.627,-12.499 29.001,-25.234c7.498,-11.402 10.243,-20.1 14.761,-46.774c4.564,-26.945 4.965,-32.47 3.398,-46.825c-1.06,-9.711 -1.883,-13.194 -4.973,-21.045c-7.123,-18.102 -14.551,-26.654 -29.713,-34.206c-8.074,-4.022 -44.946,-15.507 -52.393,-16.32c-2.927,-0.32 -6.128,-0.686 -7.112,-0.815c-0.985,-0.128 -3.2,-0.092 -4.923,0.082zM219.61531,134.67827c32.38,9.331 46.421,14.933 53.013,21.152c4.349,4.103 9.508,12.63 13.097,21.647c2.99,7.515 3.672,10.534 4.603,20.394c0.601,6.366 0.816,14.019 0.478,17.008c-1.478,13.075 -7.879,48.096 -9.924,54.299c-2.686,8.147 -9.634,19.081 -16.529,26.013c-5.887,5.918 -18.516,12.684 -30.498,16.339c-6.664,2.032 -9.203,2.323 -20.272,2.323h-12.653l0.494,-3.044c0.704,-4.338 -1.381,-5.325 -16.271,-7.701c-9.177,-1.465 -13.903,-2.69 -17.653,-4.579c-2.817,-1.418 -6.097,-2.578 -7.288,-2.578c-2.949,0 -8.836,-5.051 -20.798,-17.842c-11.152,-11.924 -12.929,-15.218 -15.243,-28.257c-1.357,-7.642 -0.955,-17.01 1.939,-45.204c2.874,-28.001 3.641,-31.154 9.704,-39.891c2.926,-4.216 5.66,-6.616 13.239,-11.623c13.508,-8.923 25.8,-15.555 31.668,-17.088c15.452,-4.035 28.097,-4.48 38.894,-1.368z" data-paper-data="{&quot;wickUUID&quot;:&quot;04f40572-da5d-48e1-ab32-6b710af9e6f5&quot;,&quot;wickType&quot;:&quot;path&quot;,&quot;originalStyle&quot;:{&quot;strokeColor&quot;:null,&quot;fillColor&quot;:[&quot;Color&quot;,0,0,0],&quot;strokeWidth&quot;:1}}" fill="#000000"/><path d="M72.36744,177.76909c-13.698,1.649 -24.037,5.545 -25.596,9.646c-0.607,1.598 -0.725,7.65 -0.334,17.233c0.535,13.138 -0.398,34.146 -1.889,42.519c-0.783,4.396 1.059,5.798 9.962,7.58c4.406,0.882 11.805,1.873 16.443,2.202c10.37,0.736 19.857,2.898 32.93,7.503c9.715,3.422 15.344,6.702 22.865,13.324c1.848,1.627 3.873,2.958 4.5,2.958c2.143,0 5.12,-2.784 5.12,-4.788c0,-2.379 -5.343,-7.706 -13.023,-12.982c-9.754,-6.701 -37.898,-15.2 -51.151,-15.446c-2.859,-0.054 -7.816,-0.557 -11.017,-1.119l-5.818,-1.023l0.212,-4.028c0.116,-2.215 0.316,-14.356 0.443,-26.98l0.232,-22.951l4.032,-1.4c6.693,-2.323 14.088,-3.272 25.517,-3.272c13.991,0 19.125,1.415 24.645,6.79c4.266,4.154 6.959,4.89 9.304,2.545c2.365,-2.364 1.635,-5.331 -2.397,-9.745c-5.651,-6.184 -12.754,-8.505 -27.441,-8.967c-6.201,-0.194 -14.093,-0.014 -17.539,0.401z" data-paper-data="{&quot;wickUUID&quot;:&quot;26ad5ae9-783f-4b40-a4b2-ec8a916dd483&quot;,&quot;wickType&quot;:&quot;path&quot;,&quot;originalStyle&quot;:{&quot;strokeColor&quot;:null,&quot;fillColor&quot;:[&quot;Color&quot;,0,0,0],&quot;strokeWidth&quot;:1}}" fill="#000000"/><path d="M49.98836,69.78257c-4.372,1.984 -11.47,13.1 -16.906,26.477c-2.696,6.637 -9.5,31.391 -9.5,34.566c0,3.063 2.528,4.069 12.416,4.941c12.304,1.084 20.296,2.974 32.106,7.592c14.004,5.475 18.894,9.251 28.333,21.874c5.673,7.587 8.904,13.046 12.39,20.931c5.229,11.829 6.977,13.582 10.945,10.982c1.251,-0.819 2.274,-2.328 2.274,-3.352c0,-3.359 -9.032,-22.349 -13.74,-28.889c-13.768,-19.124 -18.793,-23.316 -36.251,-30.24c-10.185,-4.04 -19.301,-6.322 -33.479,-8.381c-2.412,-0.351 -3.357,-0.928 -3.357,-2.051c0,-3.21 6.249,-23.227 9.397,-30.102c1.796,-3.921 4.72,-9.112 6.498,-11.534l3.234,-4.405l7.666,0.516c8.181,0.552 41.465,5.664 55.557,8.535c11.082,2.257 31.922,10.222 38.848,14.847c8.385,5.599 23.811,21.724 23.811,24.89c0,1.819 2.914,4.268 5.078,4.268c2.31,0 4.768,-2.704 4.768,-5.246c0,-2.855 -2.226,-7.748 -4.177,-9.183c-0.925,-0.68 -2.075,-2.125 -2.557,-3.212c-1.263,-2.853 -15.004,-15.045 -22.514,-19.975c-9.842,-6.462 -30.435,-13.703 -48.181,-16.94c-35.241,-6.429 -58.148,-8.955 -62.659,-6.909z" data-paper-data="{&quot;wickUUID&quot;:&quot;fa6d6158-8afe-408f-a07b-08506990b4cb&quot;,&quot;wickType&quot;:&quot;path&quot;,&quot;originalStyle&quot;:{&quot;strokeColor&quot;:null,&quot;fillColor&quot;:[&quot;Color&quot;,0,0,0],&quot;strokeWidth&quot;:1}}" fill="#000000"/><path d="M156.3257,48.94562c-6.19,1.889 -7.168,7.665 -3.058,18.053c2.26,5.713 4.484,12.801 11.775,37.522c0.987,3.346 2.373,6.183 3.172,6.489c3.063,1.176 5.787,0.547 6.745,-1.556c0.781,-1.714 0.032,-5.319 -4.077,-19.612c-2.769,-9.632 -5.98,-19.864 -7.135,-22.739c-1.154,-2.875 -2.396,-6.196 -2.759,-7.379l-0.66,-2.152l8.384,0.54c15.712,1.011 35.45,7.004 60.302,18.308c12.821,5.832 17.331,9.063 30.849,22.103c37.001,35.694 40.223,39.935 41.696,54.886c0.67,6.801 -0.142,9.145 -6.518,18.802c-3.557,5.388 -3.5,8.76 0.161,9.679c3.683,0.924 5.677,-0.413 9.188,-6.159c7.037,-11.517 7.721,-13.605 7.102,-21.665c-0.717,-9.326 -2.251,-14.303 -6.735,-21.851c-4.255,-7.163 -16.379,-21.032 -23.9,-27.341c-2.913,-2.443 -9.929,-8.917 -15.591,-14.386c-5.661,-5.468 -12.509,-11.593 -15.217,-13.611c-4.993,-3.72 -19.247,-10.607 -35.615,-17.206c-18.347,-7.397 -49.919,-13.224 -58.109,-10.725z" data-paper-data="{&quot;wickUUID&quot;:&quot;8a17d6a4-67f4-4449-bdc9-2d76b56898b6&quot;,&quot;wickType&quot;:&quot;path&quot;,&quot;originalStyle&quot;:{&quot;strokeColor&quot;:null,&quot;fillColor&quot;:[&quot;Color&quot;,0,0,0],&quot;strokeWidth&quot;:1}}" fill="#000000"/><path d="M257.04612,250.64383c-10.883,1.941 -21.383,11.022 -24.874,21.511c-1.808,5.434 -1.97,7.302 -1.586,18.281c0.498,14.218 2.208,21.145 5.599,22.69c1.707,0.778 2.628,0.672 4.429,-0.508c2.626,-1.721 2.807,-3.658 0.922,-9.872c-0.868,-2.861 -1.316,-8.013 -1.284,-14.769c0.064,-13.567 1.297,-16.914 8.316,-22.568c5.997,-4.832 10.266,-6.17 19.557,-6.13c5.355,0.023 7.19,0.428 10.121,2.233c1.97,1.213 4.084,2.208 4.7,2.21c1.59,0.007 4.699,-3.307 4.699,-5.007c0,-1.912 -4.916,-6.411 -8.761,-8.017c-3.685,-1.54 -13.374,-1.564 -21.838,-0.054z" data-paper-data="{&quot;wickUUID&quot;:&quot;0cb9cd7a-0b78-4378-b127-70ab36156a35&quot;,&quot;wickType&quot;:&quot;path&quot;,&quot;originalStyle&quot;:{&quot;strokeColor&quot;:null,&quot;fillColor&quot;:[&quot;Color&quot;,0,0,0],&quot;strokeWidth&quot;:1}}" fill="#000000"/><path d="M264.85174,269.95625c-2.186,2.417 -1.354,4.937 3.512,10.638c2.235,2.619 4.064,5.14 4.064,5.603c0,0.462 0.991,1.292 2.202,1.844c1.762,0.803 2.654,0.706 4.475,-0.487c4.05,-2.654 2.639,-6.832 -5.098,-15.1c-4.303,-4.598 -6.67,-5.243 -9.155,-2.498z" data-paper-data="{&quot;wickUUID&quot;:&quot;b7c7efc9-c426-4d23-b0fb-d4331582c8c8&quot;,&quot;wickType&quot;:&quot;path&quot;,&quot;originalStyle&quot;:{&quot;strokeColor&quot;:null,&quot;fillColor&quot;:[&quot;Color&quot;,0,0,0],&quot;strokeWidth&quot;:1}}" fill="#000000"/><path d="M249.15455,283.41905c-2.151,2.151 -2.188,3.105 -0.418,10.685c2.448,10.483 3.257,13.01 4.673,14.603c1.855,2.085 4.937,1.983 6.939,-0.23c1.575,-1.739 1.55,-2.113 -0.772,-11.86c-1.32,-5.536 -2.391,-10.545 -2.382,-11.133c0.019,-1.245 -3.438,-3.855 -5.106,-3.855c-0.629,0 -1.949,0.806 -2.934,1.79z" data-paper-data="{&quot;wickUUID&quot;:&quot;4fa2399a-1fb7-4e0c-aef1-11e68a956958&quot;,&quot;wickType&quot;:&quot;path&quot;,&quot;originalStyle&quot;:{&quot;strokeColor&quot;:null,&quot;fillColor&quot;:[&quot;Color&quot;,0,0,0],&quot;strokeWidth&quot;:1}}" fill="#000000"/><path d="M171.17862,226.57824c-2.462,1.338 -3.411,3.198 -5.674,11.128c-2.194,7.69 -1.857,11.366 1.334,14.557c2.264,2.264 3.192,2.627 5.52,2.162c6.316,-1.264 11.823,-8.111 12.912,-16.056c0.659,-4.807 -1.254,-8.907 -5.308,-11.379c-3.365,-2.052 -5.575,-2.156 -8.784,-0.412z" data-paper-data="{&quot;wickUUID&quot;:&quot;95546871-71f4-4b62-9146-e82ccae715af&quot;,&quot;wickType&quot;:&quot;path&quot;,&quot;originalStyle&quot;:{&quot;strokeColor&quot;:null,&quot;fillColor&quot;:[&quot;Color&quot;,0,0,0],&quot;strokeWidth&quot;:1}}" fill="#000000"/><path d="M252.03001,220.29812c-3.729,1.646 -5.108,4.919 -6.337,15.029c-1.11,9.14 -0.494,11.544 3.371,13.145c2.433,1.007 3.231,0.896 7.008,-0.979c10.223,-5.076 13.481,-20.972 5.372,-26.216c-3.181,-2.057 -6.248,-2.376 -9.414,-0.979z" data-paper-data="{&quot;wickUUID&quot;:&quot;f6323962-0bb4-4e2e-b73e-d570dffe3de4&quot;,&quot;wickType&quot;:&quot;path&quot;,&quot;originalStyle&quot;:{&quot;strokeColor&quot;:null,&quot;fillColor&quot;:[&quot;Color&quot;,0,0,0],&quot;strokeWidth&quot;:1}}" fill="#000000"/><path d="M260.90432,177.74883c-6.369,3.569 -6.878,4.036 -10.986,10.086c-5.756,8.475 -12.091,22.145 -14.664,31.643c-1.325,4.89 -2.527,9.02 -2.672,9.177c-0.961,1.051 -31.064,-11.979 -52.844,-22.873c-27.11,-13.559 -28.703,-14.074 -30.888,-9.991c-2.082,3.889 -0.527,4.982 25.856,18.174c24.545,12.273 38.863,18.518 52.518,22.906c3.446,1.108 6.648,2.367 7.116,2.798c1.315,1.213 4.362,0.93 6.559,-0.609c1.619,-1.134 1.992,-2.261 2.001,-6.042c0.016,-6.751 3.683,-18.964 8.486,-28.264c5.125,-9.923 8.3,-14.389 12.514,-17.603c3.168,-2.416 3.326,-2.441 8.162,-1.281c4.676,1.122 5.032,1.083 6.856,-0.741c2.827,-2.827 1.344,-6.506 -3.229,-8.007c-7.159,-2.352 -9.658,-2.246 -14.785,0.627z" data-paper-data="{&quot;wickUUID&quot;:&quot;fb0d485d-05dc-4811-a61d-915896f2aebd&quot;,&quot;wickType&quot;:&quot;path&quot;,&quot;originalStyle&quot;:{&quot;strokeColor&quot;:null,&quot;fillColor&quot;:[&quot;Color&quot;,0,0,0],&quot;strokeWidth&quot;:1}}" fill="#000000"/><path d="M186.04855,351.40835c-5.234,2.164 -8.926,9.758 -8.028,16.506c1.43,10.743 7.24,18.445 13.913,18.445c4.672,0 10.284,-2.914 11.999,-6.23c2.027,-3.921 1.817,-17.296 -0.347,-22.062c-2.626,-5.78 -11.508,-9.153 -17.537,-6.659z" data-paper-data="{&quot;wickUUID&quot;:&quot;1cf76609-aa33-48b4-8a20-939fbdbb09cb&quot;,&quot;wickType&quot;:&quot;path&quot;,&quot;originalStyle&quot;:{&quot;strokeColor&quot;:null,&quot;fillColor&quot;:[&quot;Color&quot;,0,0,0],&quot;strokeWidth&quot;:1}}" fill="#000000"/><path d="M262.76109,301.50054c-1.364,1.364 -1.399,5.781 -0.053,6.613c2.082,1.287 11.519,22.818 13.19,30.095c3.748,16.319 8.253,32.187 12.028,42.362c4.095,11.041 9.918,30.414 10.998,36.597l0.614,3.507l-7.961,-4.296c-34.537,-18.639 -74.522,-41.85 -93.878,-54.495c-4.258,-2.782 -6.932,-2.657 -8.568,0.402c-2.096,3.915 1.084,6.772 21.533,19.342c13.073,8.036 74.212,42.341 83.695,46.96c8.549,4.165 12.612,4.333 14.694,0.607c1.147,-2.054 1.163,-3.362 0.116,-9.847c-1.54,-9.541 -6.95,-28.534 -11.732,-41.19c-3.367,-8.909 -8.911,-28.386 -12.062,-42.373c-0.665,-2.954 -1.799,-7.027 -2.519,-9.052c-2.554,-7.175 -9.735,-21.418 -12.022,-23.844c-2.46,-2.608 -6.208,-3.253 -8.073,-1.388z" data-paper-data="{&quot;wickUUID&quot;:&quot;d24bc8ac-a1b3-4b52-ae62-d8e127d6e0a2&quot;,&quot;wickType&quot;:&quot;path&quot;,&quot;originalStyle&quot;:{&quot;strokeColor&quot;:null,&quot;fillColor&quot;:[&quot;Color&quot;,0,0,0],&quot;strokeWidth&quot;:1}}" fill="#000000"/><path d="M260.17326,305.12625c-0.399,0.615 -0.999,5.953 -1.334,11.86c-0.336,5.908 -1.126,16.381 -1.756,23.274c-0.63,6.892 -1.161,24.616 -1.18,39.385c-0.029,22.134 0.336,30.377 2.077,46.892c1.954,18.549 2.047,21.61 1.24,41.176c-0.479,11.626 -0.825,22.944 -0.769,25.15l0.102,4.012l-4.028,0.648c-2.215,0.356 -13.091,1.726 -24.168,3.045c-16.236,1.934 -22.223,2.29 -30.882,1.839c-25.502,-1.329 -43.487,-6.646 -76.086,-22.493c-14.572,-7.083 -13.594,-5.457 -10.248,-17.048c7.088,-24.557 27.336,-67.629 49.641,-105.599c14.879,-25.33 22.818,-40.429 22.818,-43.398c0,-0.971 -1.023,-2.435 -2.274,-3.255c-3.737,-2.448 -6.025,-0.649 -10.038,7.89c-1.921,4.088 -9.853,18.31 -17.626,31.602c-23.628,40.406 -45.515,86.457 -51.478,108.311c-1.075,3.938 -2.563,8.814 -3.307,10.835c-2.454,6.665 -1.668,8.244 6.534,13.129c4.013,2.389 15.7,8.089 25.972,12.665c25.272,11.259 41.732,15.456 66.987,17.078c7.333,0.472 13.726,-0.009 35.358,-2.656c14.523,-1.778 27.305,-3.424 28.404,-3.658c3.398,-0.723 5.001,-5.201 4.449,-12.425c-0.266,-3.478 -0.074,-15.536 0.427,-26.794c0.844,-18.965 0.756,-21.959 -1.191,-40.728c-1.715,-16.52 -2.097,-25.132 -2.071,-46.665c0.018,-14.676 0.545,-31.576 1.186,-38.043c1.796,-18.102 2.253,-33.055 1.078,-35.25c-1.155,-2.158 -6.595,-2.698 -7.837,-0.779z" data-paper-data="{&quot;wickUUID&quot;:&quot;09fb9c1f-bdad-439f-84f6-5ab1896f9271&quot;,&quot;wickType&quot;:&quot;path&quot;,&quot;originalStyle&quot;:{&quot;strokeColor&quot;:null,&quot;fillColor&quot;:[&quot;Color&quot;,0,0,0],&quot;strokeWidth&quot;:1}}" fill="#000000"/><path d="M42.67241,219.41599c-3.538,1.611 -5.663,4.555 -5.663,7.847c0,3.513 2.352,14.601 5.428,25.594c2.341,8.364 2.465,9.457 1.269,11.165c-2.076,2.964 -1.576,7.122 1.594,13.246c2.225,4.298 3.912,6.254 7.088,8.218c4.901,3.03 6.195,2.807 11.347,-1.949c3.335,-3.078 3.708,-3.847 3.708,-7.624c0,-7.061 -3.379,-11.871 -12.02,-17.11c-1.432,-0.868 -6.659,-18.578 -7.992,-27.077l-0.597,-3.805h3.86c2.123,0 4.343,-0.483 4.934,-1.074c1.512,-1.512 1.336,-5.65 -0.299,-7.006c-2.021,-1.678 -9.364,-1.924 -12.657,-0.425z" data-paper-data="{&quot;wickUUID&quot;:&quot;506da513-ce42-47e1-8107-18d396062431&quot;,&quot;wickType&quot;:&quot;path&quot;,&quot;originalStyle&quot;:{&quot;strokeColor&quot;:null,&quot;fillColor&quot;:[&quot;Color&quot;,0,0,0],&quot;strokeWidth&quot;:1}}" fill="#000000"/></g><g fill="none" fill-rule="nonzero" stroke="none" stroke-width="1" stroke-linecap="butt" stroke-linejoin="miter" stroke-miterlimit="10" stroke-dasharray="" stroke-dashoffset="0" font-family="sans-serif" font-weight="normal" font-size="12" text-anchor="start" style="mix-blend-mode: normal"/><g id="wick_project_gui" fill="none" fill-rule="nonzero" stroke="none" stroke-width="1" stroke-linecap="butt" stroke-linejoin="miter" stroke-miterlimit="10" stroke-dasharray="" stroke-dashoffset="0" font-family="sans-serif" font-weight="normal" font-size="12" text-anchor="start" style="mix-blend-mode: normal"/></g></svg>