<svg version="1.1" xmlns="http://www.w3.org/2000/svg" xmlns:xlink="http://www.w3.org/1999/xlink" width="1260" height="594" viewBox="0,0,1260,594"><g transform="translate(479.91246,62.26383) scale(0.94565,0.94565)"><g id="wick_project_bg" fill="#999999" fill-rule="nonzero" stroke="none" stroke-width="1" stroke-linecap="butt" stroke-linejoin="miter" stroke-miterlimit="10" stroke-dasharray="" stroke-dashoffset="0" font-family="none" font-weight="none" font-size="none" text-anchor="none" style="mix-blend-mode: normal"><rect x="0" y="0" width="720" height="480"/></g><g data-paper-data="{&quot;wickUUID&quot;:&quot;91001f81-462f-4769-b77c-c5250bb51a44&quot;,&quot;wickType&quot;:&quot;clipsandpaths&quot;}" fill="none" fill-rule="evenodd" stroke="none" stroke-width="1" stroke-linecap="butt" stroke-linejoin="miter" stroke-miterlimit="10" stroke-dasharray="" stroke-dashoffset="0" font-family="none" font-weight="none" font-size="none" text-anchor="none" style="mix-blend-mode: normal"><path d="M323.11877,148.50235c-10.05567,0.249 -12.02293,0.50353 -14.7326,1.87853c-2.21733,1.125 -10.26625,4.35752 -12.00958,4.82685c-0.81933,0.22067 -1.77122,0.85416 -2.13689,1.42449c-2.27,3.54033 -6.73042,7.87677 -14.03842,13.6431c-9.93,7.83533 -25.31806,26.1674 -24.79939,29.54473c0.08533,0.556 1.83218,1.25473 3.73318,-1.0976c3.04967,-3.77367 9.58129,-10.15698 13.64229,-13.30065c13.05,-10.103 30.98504,-19.04841 43.42204,-21.65408c3.87667,-0.812 10.57693,-1.24097 18.54526,-1.2473c3.40933,-0.00267 7.54109,-0.10062 9.20076,-0.21862l3.52107,-0.40174l0.70341,-3.09333c0.216,-1.39467 0.37053,-4.25095 0.46486,-5.71762c0.25067,-3.90567 -0.28442,-4.28306 -6.35309,-4.61539c-5.42967,-0.297 -5.60957,-0.30737 -19.1629,0.02863z" data-paper-data="{&quot;wickUUID&quot;:&quot;b6a4edbb-a2f5-468e-af39-0b490fa67964&quot;,&quot;wickType&quot;:&quot;path&quot;}" fill="#ff8000"/><path d="M331.79434,99.29013c-1.313,0.24933 -4.17188,0.94482 -6.11355,1.52215c-2.466,0.733 -3.98489,1.01142 -5.32356,0.96409c-2.69567,-0.09567 -24.83346,0.97213 -28.55079,1.37613c-8.26233,0.898 -14.19747,2.35092 -19.2898,4.73459c-1.603,0.75033 -3.55142,1.63184 -4.18409,1.90551l-1.25546,1.98979l5.39964,2.19643c9.02433,3.64933 14.35207,6.3919 16.80474,8.65023l1.2128,0.88085l4.90284,-0.54128c3.263,-0.366 7.98832,-0.552 14.76099,-0.579c9.342,-0.037 10.33712,0.0171 16.25345,0.88977c3.48333,0.51367 8.92872,1.44339 12.22872,2.08739c9.318,1.81867 15.14235,3.33249 28.97902,7.53016c1.28333,0.38967 2.55472,0.72501 2.83305,0.74768c0.278,0.02267 1.16316,0.10711 1.34349,0.21444c0.60067,0.358 2.28506,-0.82908 2.81939,-1.86208c0.59133,-1.14333 2.54593,-8.7345 3.3956,-13.0665c0.82933,-4.228 -0.06323,-5.61344 -5.42256,-8.28677c-4.319,-2.15433 -18.37269,-7.60192 -24.36036,-9.43759c-6.68333,-2.049 -12.27523,-2.70532 -16.43356,-1.91599z" data-paper-data="{&quot;wickUUID&quot;:&quot;ebbe9fcb-0ce8-4cc2-8c97-8d57f14c32f3&quot;,&quot;wickType&quot;:&quot;path&quot;}" fill="#ff8000"/><path d="M295.39067,80.68908c-18.35067,1.66533 -60.11912,8.41752 -71.00379,11.47485c-7.677,2.15633 -15.63974,6.47253 -27.90441,15.19286c-1.79533,1.27633 -3.0823,3.91015 -3.01897,3.97348c0.06333,0.06333 2.6615,-0.75324 5.17783,-1.84824c11.288,-4.91267 19.23617,-6.6292 30.83884,-6.63253c7.34267,-0.00167 14.27439,1.10144 22.08372,3.47244l3.83151,1.13894l1.31506,-1.11623c1.08167,-1.28567 3.06167,-2.42356 5.69934,-3.27489c1.17467,-0.37933 3.79125,-1.48804 5.89125,-2.49837c2.10033,-1.01033 5.44557,-2.30582 7.6389,-2.93715c9.154,-2.63467 23.01402,-4.44565 34.07535,-4.45365l4.43736,-0.12781l0.41221,-3.44779c0.076,-7.17933 -0.57851,-8.51496 -2.42084,-9.02663c-1.70667,-0.474 -10.91369,-0.44661 -17.05336,0.11072z" data-paper-data="{&quot;wickUUID&quot;:&quot;33bdfdb8-5805-4c11-bfcf-38be43bd2dcc&quot;,&quot;wickType&quot;:&quot;path&quot;}" fill="#ff8000"/><path d="M257.4292,151.35518c-1.53033,0.692 -4.76108,3.82874 -5.64708,5.50774c-0.99533,1.88667 -0.98249,6.24396 0.03218,8.81296c0.92933,2.35267 3.35603,5.14764 5.5767,6.42131c2.16167,1.23967 4.13009,1.20041 6.66476,-0.06626c2.65467,-1.32633 8.05824,-6.89967 9.64991,-9.96967c1.08567,-2.094 1.15266,-3.09031 0.74133,-4.92798c-0.57667,-2.576 -2.60332,-4.28814 -6.19032,-5.25614c-3.56567,-0.962 -9.26215,-1.22963 -10.82748,-0.52196z" data-paper-data="{&quot;wickUUID&quot;:&quot;77666b52-bfab-40ea-bd04-b029b1b1c5ab&quot;,&quot;wickType&quot;:&quot;path&quot;}" fill="#ffffff"/><path d="M199.94918,140.20171c-5.513,5.009 -11.12277,12.64116 -12.71877,17.28083c-0.95067,2.763 -0.80523,5.48125 0.4141,7.92125c1.534,3.07 4.47402,5.10808 8.55869,5.95975c2.79733,0.58333 7.71052,0.21086 15.12185,-1.12081c14.10433,-2.53467 18.70399,-5.86644 19.08932,-13.20911c0.382,-7.28033 -4.00807,-15.93897 -9.35274,-17.95797c-2.39467,-0.90467 -7.31487,-1.78325 -12.8572,-2.07592l-4.48171,-0.16443z" data-paper-data="{&quot;wickUUID&quot;:&quot;73ef1e2c-d58c-4651-b455-fa57db75ddc7&quot;,&quot;wickType&quot;:&quot;path&quot;}" fill="#ffffff"/><path d="M218.19962,111.98558c-6.13033,1.03767 -13.04411,3.64842 -24.09578,9.11242c-20.38567,10.07933 -30.38863,17.17316 -42.65696,30.19116c-9.411,9.986 -12.39996,16.30144 -15.09296,32.04211c-1.996,11.668 -1.24587,17.91384 3.22946,26.67484c5.095,9.97367 11.57298,18.71473 19.99131,26.91006c5.23867,5.1 8.05955,7.45981 16.98488,14.15281l7.08321,5.29474l3.64112,-0.04904c1.78167,-0.07567 10.47874,-0.29232 19.27874,-0.47899c32.483,-0.689 43.60127,-1.73675 46.41794,-4.37508c0.39533,-0.37 1.90326,-1.23423 2.60793,-1.47123c2.49567,-0.839 5.26578,-6.24664 5.25845,-9.97497c-0.00633,-3.266 -1.37781,-6.55004 -8.87348,-20.78237l-2.73082,-5.13687l-2.1506,0.72857c-0.55533,0.46733 -1.43765,1.07006 -1.96565,1.34306c-0.528,0.273 -1.25378,1.61751 -1.25378,1.77718c0,0.15967 1.14609,1.62235 2.44776,3.05568c2.88833,3.17933 4.96225,6.60871 6.05958,10.06838c1.00067,3.15433 1.30389,3.62004 0.42156,5.44237c-1.239,2.56 -3.95122,3.51127 -15.13055,5.49027c-7.03633,1.24533 -9.64247,1.47483 -10.74347,0.88583c-0.999,-0.53467 -2.05212,-1.93564 -2.29079,-2.88631c-0.333,-1.32667 -0.21889,-1.68198 1.16344,-2.99698c1.68833,-1.606 3.86694,-2.36564 9.96561,-3.55664c5.502,-1.07467 7.40783,-2.17529 7.40783,-2.84262c0,-0.733 -5.15188,-5.34876 -6.28688,-5.51909c-0.565,-0.085 -2.72696,-0.23559 -4.77896,-0.32326c-6.021,-0.25767 -7.42162,-0.60688 -7.42162,-4.29355c0,-3.09067 0.70003,-3.47513 9.64036,-8.62946c2.16867,-1.25033 4.33209,-3.14279 4.44109,-3.42679c0.29533,-0.77 -2.39404,-3.1226 -4.74937,-3.9016c-4.50033,-1.48867 -10.59031,-1.59651 -13.55231,-0.30251c-1.387,0.606 -2.68651,1.93457 -7.34584,8.20557c-0.87533,1.17767 -1.23774,2.14408 -1.71207,2.49241c-3.09033,2.26833 -7.23237,0.51515 -7.23237,-3.32585c0,-2.095 1.45777,-4.38133 5.65777,-9.41c5.30567,-6.35267 10.10188,-8.02981 20.06221,-7.00314c6.751,0.69633 9.869,1.8153 13.34267,4.56097l2.19946,1.34891l0.9125,-2.29098c0.698,-3.376 3.22875,-7.6737 8.84775,-15.02603l1.20215,-2.3075l-2.52225,-1.46734c-10.782,-6.333 -14.70167,-17.04442 -9.86667,-27.22575c1.864,-3.92467 6.50905,-7.99674 10.63772,-9.66507c1.68933,-0.68233 9.98762,-0.56865 13.90929,0.17602c6.354,1.207 12.09819,5.12219 14.14419,9.59086l0.89621,1.93896l1.91304,-1.10742c1.052,-1.29933 2.30521,-4.08767 2.88554,-6.31867c0.76833,-2.95233 0.74406,-10.99612 -0.01861,-12.74379c-0.69667,-1.59633 -4.59433,-5.72702 -6.719,-7.09035c-4.30367,-2.76167 -31.17766,-13.33093 -36.87799,-14.50593c-7.014,-1.44567 -20.97932,-1.99667 -26.58199,-1.048zM212.85112,128.54397c4.72733,0.50767 9.71634,1.64247 13.07067,3.25214c11.46833,5.50267 17.26791,24.73453 10.61558,35.2242c-2.20433,3.476 -5.78455,6.14602 -10.55955,8.49369c-5.12967,2.52233 -18.8149,4.55441 -28.3299,4.22041c-3.83167,-0.13467 -4.39807,-0.15069 -6.54974,-0.90669c-6.77933,-2.38167 -10.14653,-5.60187 -12.4382,-12.45554c-2.35233,-7.03467 -0.36046,-13.44863 7.02887,-23.31896c1.327,-1.773 3.48788,-4.27455 5.26555,-6.07055c8,-8.082 11.72339,-9.53137 21.89672,-8.4387z" data-paper-data="{&quot;wickUUID&quot;:&quot;e7f838da-c751-4379-9e4d-9bc67fdac36d&quot;,&quot;wickType&quot;:&quot;path&quot;}" fill="#ffffff"/><path d="M132.73696,121.30772c-8.338,5.28767 -17.96752,14.01707 -24.60919,22.2974c-6.743,8.40667 -8.92635,12.16122 -11.30035,19.43889c-3.44233,10.553 -5.13385,19.21242 -5.13418,26.03009c-0.00033,7.739 1.02199,9.48433 8.88199,14.64133c5.15533,3.382 17.43332,9.53547 25.28265,12.6498c3.33067,1.32133 7.10099,2.2962 7.28099,2.2962c0.18,0 -0.65858,-3.47641 -2.18158,-6.54741c-3.30033,-6.65467 -3.71944,-7.74102 -4.17211,-11.66969c-0.61633,-5.34933 0.31091,-17.33017 1.85424,-24.0675l0.37634,-2.23605l-1.62032,-1.06896c-1.79167,-0.95033 -5.63067,-4.58866 -7.29534,-7.10799c-4.01833,-6.08133 -3.4225,-13.64944 1.88383,-24.02311c2.40567,-4.70333 4.04722,-6.74239 10.20289,-13.10372c5.094,-5.264 6.11815,-6.76343 5.25115,-7.31276c-0.80833,-0.512 -3.15068,-1.19985 -4.70101,-0.21652z" data-paper-data="{&quot;wickUUID&quot;:&quot;b6da834e-b676-4bf5-8e9b-95f21f3c363d&quot;,&quot;wickType&quot;:&quot;path&quot;}" fill="#ff8000"/><path d="M241.45005,263.0088c-4.64767,0.68167 -12.26828,1.14139 -19.10495,1.15272c-6.07933,0.01033 -14.3186,0.38754 -18.92993,0.86221c-2.51667,0.259 -4.0098,1.14089 -4.0098,2.48622c0,1.052 -0.92028,2.65761 -2.30128,3.58794c-1.75933,1.18567 -2.95798,0.98994 -6.58165,-0.77373c-1.70733,-0.831 -3.52469,-1.45492 -3.58736,-1.39225c-0.06267,0.06267 -1.2078,1.74347 -1.7858,3.0158c-3.16767,6.97367 -5.83416,16.66112 -7.62549,27.62579c-0.964,5.90167 -1.37367,21.89361 -1.37367,53.89928l0.00229,26.19584l2.58734,7.68995c3.45767,10.167 6.15639,16.87747 9.39639,23.41414c4.73333,9.55067 7.9266,13.56839 13.7736,17.37972c4.74733,3.09433 10.35114,5.46022 15.06881,6.30389c1.07067,0.19133 5.47377,0.68463 9.59877,1.0593c4.125,0.37433 9.39125,0.91723 11.68292,1.20423c4.56133,0.57133 7.1156,0.71434 14.04427,0.97134c6.86567,0.255 6.37823,0.47415 24.27756,-10.34452c5.34267,-3.22967 11.23604,-6.63584 13.10937,-7.57584c6.231,-3.127 16.35021,-6.97231 18.34288,-6.97231c0.51967,0 1.60528,-0.28338 2.24095,-0.54905c0.93633,-0.39133 1.40152,-1.91039 1.40152,-2.68139c0,-2.65133 -5.89465,-9.01783 -12.59365,-13.59883c-6.94233,-4.74733 -26.6022,-22.27761 -33.48353,-29.86128c-6.446,-7.10433 -17.48258,-23.39539 -22.17991,-32.76072c-4.63067,-9.232 -5.24061,-13.42779 -5.24094,-34.90412l0.00032,-13.78958l1.75095,-3.80478c2.70533,-6.04 6.57825,-16.12636 6.57825,-17.08969c0,-0.36633 -1.17956,-1.31895 -5.05823,-0.75028z" data-paper-data="{&quot;wickUUID&quot;:&quot;681a032a-bcbe-4bd9-bae3-cdd5813b5138&quot;,&quot;wickType&quot;:&quot;path&quot;,&quot;originalStyle&quot;:{&quot;strokeColor&quot;:null,&quot;fillColor&quot;:[&quot;Color&quot;,0.50196,0,1],&quot;strokeWidth&quot;:1}}" fill="#8000ff"/><path d="M221.40611,102.65532c-9.666,0.754 -18.17,3.644 -33.789,11.483c-18.633,9.35 -27.693,15.72 -40.107,28.196c-8.924,8.969 -11.351,12.004 -14.035,17.557c-4.382,9.066 -7.356,22.974 -7.37,34.473c-0.011,8.68 0.105,9.204 3.708,16.712c4.591,9.568 11.056,19.239 18.786,28.103c6.792,7.787 30.294,25.858 40.016,30.768c5.729,2.894 6.263,3.005 8.487,1.762c1.425,-0.796 2.481,-2.246 2.644,-3.63c0.26,-2.212 0.565,-2.327 7.608,-2.876c4.036,-0.314 11.873,-0.573 17.414,-0.576c13.533,-0.007 26.604,-2.055 33.722,-5.282c6.454,-2.927 9.49,-6.943 11.354,-15.018c1.483,-6.425 0.167,-10.844 -7.417,-24.893c-6.424,-11.9 -7.919,-16.925 -6.266,-21.052c2.071,-5.168 16.176,-21.308 23.932,-27.385c14.53,-11.385 17.255,-15.493 18.059,-27.222c0.688,-10.041 -0.091,-12.891 -4.941,-18.076c-5.421,-5.795 -8.458,-7.47 -26.154,-14.416c-20.496,-8.046 -30.032,-9.848 -45.651,-8.628zM246.02211,113.85232c6.731,1.821 31.249,11.553 35.096,13.93c1.579,0.976 3.895,2.991 5.147,4.479c1.946,2.313 2.272,3.569 2.256,8.678c-0.03,8.889 -2.506,13.346 -10.818,19.471c-8.154,6.007 -13.033,10.818 -21.099,20.802c-14.066,17.41 -14.39,21.082 -3.63,41.124c8.045,14.985 8.666,17.282 6.188,22.885c-3.443,7.784 -9.908,9.139 -47.814,10.017l-27.514,0.637l-9.692,-7.233c-15.041,-11.225 -24.273,-21.384 -32.503,-35.768c-6.717,-11.739 -7.367,-18.383 -3.524,-35.993c2.669,-12.229 5.907,-17.663 17.132,-28.745c10.954,-10.817 18.628,-16.202 34.883,-24.481c20.567,-10.476 26.966,-12.292 41.122,-11.669c5.17,0.227 11.816,1.067 14.77,1.866z" data-paper-data="{&quot;wickUUID&quot;:&quot;83bd5241-3082-4a74-8e00-d7a0f968bf66&quot;,&quot;wickType&quot;:&quot;path&quot;,&quot;originalStyle&quot;:{&quot;strokeColor&quot;:null,&quot;fillColor&quot;:[&quot;Color&quot;,0,0,0],&quot;strokeWidth&quot;:1}}" id="83bd5241-3082-4a74-8e00-d7a0f968bf66" fill="#000000"/><path d="M220.39955,194.70853c-1.784,0.368 -4.553,1.499 -6.153,2.512c-3.706,2.346 -10.743,11.702 -10.743,14.283c0,2.521 2.262,4.785 4.763,4.767c2.635,-0.018 3.391,-0.641 6.724,-5.541c1.576,-2.316 3.754,-4.834 4.84,-5.594c3.587,-2.512 14.194,-1.411 17.795,1.848c1.575,1.425 1.336,1.673 -5.227,5.413c-7.394,4.214 -8.272,5.069 -8.294,8.076c-0.024,3.405 2.309,4.763 8.176,4.763c4.834,0 5.659,0.284 8.191,2.816c2.804,2.804 2.807,2.819 0.813,3.557c-1.102,0.407 -4.665,1.204 -7.919,1.771c-8.513,1.482 -11.719,5.479 -7.475,9.32c1.742,1.576 2.164,1.563 13.203,-0.406c12.291,-2.191 14.555,-3.436 14.517,-7.982c-0.029,-3.51 -3.245,-9.993 -6.738,-13.584l-3.08,-3.167l2.676,-1.58c3.482,-2.057 4.168,-5.062 2.284,-9.997c-1.702,-4.455 -6.98,-8.921 -12.11,-10.247c-4.926,-1.273 -12.68,-1.764 -16.243,-1.028z" data-paper-data="{&quot;wickUUID&quot;:&quot;a94cd377-def5-40d2-806c-6425028ea533&quot;,&quot;wickType&quot;:&quot;path&quot;,&quot;originalStyle&quot;:{&quot;strokeColor&quot;:null,&quot;fillColor&quot;:[&quot;Color&quot;,0,0,0],&quot;strokeWidth&quot;:1}}" id="a94cd377-def5-40d2-806c-6425028ea533" fill="#000000"/><path d="M202.20942,128.31804c-7.719,1.964 -21.313,17.424 -24.273,27.605c-1.594,5.483 -0.835,9.907 2.768,16.134c2.7,4.665 10.411,8.423 17.284,8.423c8.102,0 22.873,-2.049 26.578,-3.687c5.942,-2.626 10.99,-6.798 13.125,-10.847c5.579,-10.585 -0.167,-28.805 -10.783,-34.184c-6.543,-3.315 -18.598,-4.997 -24.699,-3.444zM221.94642,139.99604c6.124,3.161 9.969,14.433 7.191,21.082c-1.126,2.694 -2.385,3.809 -6.355,5.626c-5.506,2.522 -21.503,5.16 -26.078,4.302c-7.333,-1.376 -11.217,-6.992 -9.107,-13.169c1.539,-4.509 7.352,-12.572 12.056,-16.722l4.297,-3.792l7.161,0.388c4.935,0.268 8.303,0.978 10.835,2.285z" data-paper-data="{&quot;wickUUID&quot;:&quot;ea92b93a-da02-4b2e-8e82-b5bbdaad0c62&quot;,&quot;wickType&quot;:&quot;path&quot;,&quot;originalStyle&quot;:{&quot;strokeColor&quot;:null,&quot;fillColor&quot;:[&quot;Color&quot;,0,0,0],&quot;strokeWidth&quot;:1}}" id="ea92b93a-da02-4b2e-8e82-b5bbdaad0c62" fill="#000000"/><path d="M254.52555,142.60696c-3.4,1.206 -8.363,5.405 -10.304,8.718c-5.976,10.197 -2.314,22.016 8.869,28.632c2.982,1.764 6.145,3.208 7.029,3.208c0.883,0 4.115,-1.139 7.181,-2.53c4.524,-2.054 6.575,-3.754 10.878,-9.018c4.737,-5.795 5.345,-7.004 5.705,-11.339c0.231,-2.79 -0.072,-5.998 -0.714,-7.547c-1.63,-3.935 -6.476,-7.784 -11.786,-9.361c-4.463,-1.325 -14.051,-1.759 -16.858,-0.763zM270.75355,153.24996c2.522,1.291 3.465,2.94 3.465,6.06c0,2.762 -6.667,10.588 -10.54,12.372c-2.847,1.311 -3.55,1.34 -5.683,0.237c-6.407,-3.313 -8.716,-12.295 -4.365,-16.976c1.231,-1.325 3.043,-2.754 4.028,-3.176c2.269,-0.973 10.009,-0.097 13.095,1.483z" data-paper-data="{&quot;wickUUID&quot;:&quot;4a5edd3e-6f6d-4c26-bbb1-52702d87062f&quot;,&quot;wickType&quot;:&quot;path&quot;,&quot;originalStyle&quot;:{&quot;strokeColor&quot;:null,&quot;fillColor&quot;:[&quot;Color&quot;,0,0,0],&quot;strokeWidth&quot;:1}}" id="4a5edd3e-6f6d-4c26-bbb1-52702d87062f" fill="#000000"/><path d="M256.31558,175.10858c-0.984,0.985 -1.79,2.395 -1.79,3.133c0,1.64 3.151,4.923 4.724,4.923c2.209,0 5.122,-2.8 5.122,-4.923c0,-2.123 -2.913,-4.923 -5.122,-4.923c-0.629,0 -1.949,0.806 -2.934,1.79z" data-paper-data="{&quot;wickUUID&quot;:&quot;1656aed0-1e51-4bea-a39b-8ed510ed785d&quot;,&quot;wickType&quot;:&quot;path&quot;,&quot;originalStyle&quot;:{&quot;strokeColor&quot;:null,&quot;fillColor&quot;:[&quot;Color&quot;,0,0,0],&quot;strokeWidth&quot;:1}}" id="1656aed0-1e51-4bea-a39b-8ed510ed785d" fill="#000000"/><path d="M256.31558,175.10858c-0.984,0.985 -1.79,2.395 -1.79,3.133c0,1.64 3.151,4.923 4.724,4.923c2.209,0 5.122,-2.8 5.122,-4.923c0,-2.123 -2.913,-4.923 -5.122,-4.923c-0.629,0 -1.949,0.806 -2.934,1.79z" data-paper-data="{&quot;wickUUID&quot;:&quot;298d6dd8-ed3c-4f8e-ad15-d36716535689&quot;,&quot;wickType&quot;:&quot;path&quot;,&quot;originalStyle&quot;:{&quot;strokeColor&quot;:null,&quot;fillColor&quot;:[&quot;Color&quot;,0,0,0],&quot;strokeWidth&quot;:1}}" id="298d6dd8-ed3c-4f8e-ad15-d36716535689" fill="#000000"/><path d="M279.58896,73.50883c-20.414,2.879 -40.922,6.291 -54.532,9.074c-15.46,3.162 -42.353,21.007 -61.517,40.821c-11.199,11.58 -13.171,16.018 -8.279,18.636c2.678,1.433 4.883,0.276 8.287,-4.35c8.78,-11.932 35.358,-33.305 51.32,-41.27c7.262,-3.624 11.369,-4.67 33.392,-8.503c36.465,-6.346 61.388,-8.794 65.251,-6.407c0.543,0.336 0.988,3.004 0.988,5.929v5.318l-7.385,0.017c-13.381,0.029 -32.17,3.459 -38.364,7.002c-1.669,0.955 -4.647,2.234 -6.616,2.842c-6.598,2.04 -8.67,5.993 -4.921,9.387c1.598,1.446 2.207,1.498 5.595,0.485c2.091,-0.625 5.803,-2.15 8.25,-3.388c8.069,-4.084 16.588,-5.646 33.912,-6.218c21.106,-0.695 20.368,-0.119 19.532,-15.25c-0.739,-13.386 -1.253,-14.133 -11.004,-15.993c-8.617,-1.643 -9.253,-1.608 -33.909,1.868z" data-paper-data="{&quot;wickUUID&quot;:&quot;feae7131-6e5b-459b-a5dc-2a0b74edf685&quot;,&quot;wickType&quot;:&quot;path&quot;,&quot;originalStyle&quot;:{&quot;strokeColor&quot;:null,&quot;fillColor&quot;:[&quot;Color&quot;,0,0,0],&quot;strokeWidth&quot;:1}}" id="feae7131-6e5b-459b-a5dc-2a0b74edf685" fill="#000000"/><path d="M325.50145,91.36152c-3.057,1.106 -6.179,2.526 -6.938,3.155c-1.92,1.594 -1.721,4.815 0.419,6.751c1.737,1.572 1.969,1.571 6.937,-0.021c9.518,-3.051 14.983,-2.445 30.651,3.401c16.081,5.999 20.937,8.499 21.286,10.959c0.138,0.972 -0.686,5.392 -1.831,9.823c-1.752,6.776 -2.361,8.04 -3.832,7.958c-0.962,-0.054 -6.499,-1.563 -12.306,-3.353c-11.738,-3.619 -26.082,-6.525 -39.476,-7.998c-9.394,-1.032 -30.227,0.212 -33.579,2.006c-2.054,1.099 -2.977,3.343 -2.28,5.542c0.919,2.894 3.389,3.532 9.978,2.58c18.981,-2.745 43.348,0.429 69.412,9.039c5.778,1.909 11.456,3.471 12.617,3.471c3.874,0 5.639,-3.38 9.133,-17.488c2.863,-11.564 2.842,-14.741 -0.125,-18.266c-3.391,-4.03 -8.134,-6.519 -23.718,-12.447c-20.959,-7.974 -26.346,-8.731 -36.348,-5.112z" data-paper-data="{&quot;wickUUID&quot;:&quot;50a5706c-e7be-432c-8db0-19c3bd7381b2&quot;,&quot;wickType&quot;:&quot;path&quot;,&quot;originalStyle&quot;:{&quot;strokeColor&quot;:null,&quot;fillColor&quot;:[&quot;Color&quot;,0,0,0],&quot;strokeWidth&quot;:1}}" id="50a5706c-e7be-432c-8db0-19c3bd7381b2" fill="#000000"/><path d="M130.41782,111.5486c-1.057,0.427 -2.183,1.197 -2.501,1.712c-0.318,0.515 -2.675,2.332 -5.238,4.039c-9.677,6.442 -22.324,19.69 -29.3,30.69c-3.403,5.365 -8.475,20.916 -10.332,31.677c-2.222,12.874 -0.113,22.376 5.997,27.02c11.818,8.982 30.444,18.095 46.225,22.617c7.798,2.235 8.434,2.291 10.518,0.925c2.406,-1.576 2.974,-5.041 1.084,-6.61c-0.624,-0.518 -5.144,-2.226 -10.046,-3.796c-16.231,-5.199 -35.159,-14.657 -41.976,-20.975c-4.379,-4.059 -3.623,-16.341 2.136,-34.681c2.224,-7.086 3.764,-10.083 8.278,-16.113c7.051,-9.42 13.633,-16.039 22.331,-22.461c7.238,-5.344 7.612,-5.513 9.518,-4.304c0.88,0.557 -0.713,2.66 -6.09,8.036c-5.802,5.802 -7.921,8.685 -10.431,14.193c-5.422,11.899 -5.004,18.661 1.597,25.822c5.992,6.501 11.547,7.203 12.945,1.635c0.482,-1.921 -0.084,-2.897 -3.502,-6.034c-6.18,-5.675 -6.345,-8.318 -1.207,-19.365c1.123,-2.414 5.371,-7.49 10.622,-12.694c9.515,-9.429 10.255,-11.115 6.806,-15.5c-2.236,-2.843 -9.981,-6.727 -13.273,-6.657c-1.231,0.027 -3.103,0.398 -4.161,0.824z" data-paper-data="{&quot;wickUUID&quot;:&quot;b3b7b751-cc55-4e69-920b-5fc1bbadfdc0&quot;,&quot;wickType&quot;:&quot;path&quot;,&quot;originalStyle&quot;:{&quot;strokeColor&quot;:null,&quot;fillColor&quot;:[&quot;Color&quot;,0,0,0],&quot;strokeWidth&quot;:1}}" id="b3b7b751-cc55-4e69-920b-5fc1bbadfdc0" fill="#000000"/><path d="M318.52724,139.28057c-7.571,0.447 -10.716,1.033 -13.609,2.537c-2.07,1.076 -6.022,2.801 -8.782,3.834c-5.91,2.211 -7.671,5.017 -5.361,8.543c0.763,1.164 2.083,2.116 2.933,2.116c1.838,0 9.76,-2.939 14.655,-5.437c3.078,-1.57 5.53,-1.802 20.874,-1.975c12.532,-0.141 17.688,0.103 18.464,0.875c0.786,0.783 0.859,2.542 0.273,6.527l-0.803,5.455l-14.322,0.262c-12.5,0.228 -15.322,0.566 -22.178,2.651c-9.766,2.971 -21.896,8.997 -32.425,16.109c-19.821,13.388 -32.855,33.056 -23.809,35.927c2.885,0.915 5.273,-1.004 8.085,-6.496c4.027,-7.869 9.764,-13.627 21.365,-21.443c12.586,-8.481 19.331,-11.835 30.042,-14.939c6.775,-1.963 9.695,-2.298 20.035,-2.298c6.657,0 13.643,0.461 15.524,1.024c2.878,0.863 3.787,0.785 5.732,-0.489c1.93,-1.265 2.287,-2.135 2.166,-5.277c-0.08,-2.069 0.147,-7.991 0.504,-13.161c0.846,-12.252 0.738,-12.397 -10.347,-13.963c-8.919,-1.26 -13.189,-1.317 -29.016,-0.382z" data-paper-data="{&quot;wickUUID&quot;:&quot;0f7adc1d-574c-4a8f-af4a-5d6dfc0ae70c&quot;,&quot;wickType&quot;:&quot;path&quot;,&quot;originalStyle&quot;:{&quot;strokeColor&quot;:null,&quot;fillColor&quot;:[&quot;Color&quot;,0,0,0],&quot;strokeWidth&quot;:1}}" id="0f7adc1d-574c-4a8f-af4a-5d6dfc0ae70c" fill="#000000"/><path d="M114.41776,297.29411c-1.70701,4.80835 0.77633,8.26366 6.88482,9.57936l4.13393,0.89082l-1.39428,2.6078c-1.31672,2.46236 -1.68414,2.64335 -6.56103,3.23496c-8.43318,1.02458 -13.84876,5.12046 -12.40878,9.38701c0.87013,2.57812 4.16567,3.78989 7.3663,2.70967c3.51898,-1.18767 3.85898,0.17622 0.89896,3.60481c-2.89107,3.34833 -2.87478,6.76767 0.0416,8.39765c2.53262,1.41544 5.57475,0.48791 8.13489,-2.48065c1.87374,-2.17225 2.05262,-2.20201 6.10474,-1.0345c10.67385,3.07517 20.51167,-4.45731 20.79063,-15.91727c0.15494,-6.32992 -0.59603,-13.98683 -1.70063,-17.36287c-1.15416,-3.5229 -5.27406,-7.24909 -7.96057,-7.20044c-2.04872,0.03709 -4.91803,2.52424 -4.46394,3.86968c0.60535,1.7936 -2.22556,1.45193 -7.16712,-0.86554c-8.61914,-4.042 -11.10049,-3.9296 -12.69952,0.57951z" data-paper-data="{&quot;wickUUID&quot;:&quot;0fe6c575-41d0-4043-ade4-c5eed97bb798&quot;,&quot;wickType&quot;:&quot;path&quot;,&quot;originalStyle&quot;:{&quot;strokeColor&quot;:null,&quot;fillColor&quot;:[&quot;Color&quot;,0,0,0],&quot;strokeWidth&quot;:1}}" id="0fe6c575-41d0-4043-ade4-c5eed97bb798" fill="#000000"/><path d="M169.04121,261.38476c-3.939,1.608 -14.609,5.466 -23.711,8.574c-9.102,3.108 -18.268,6.388 -20.37,7.289c-4.983,2.136 -6.264,4.843 -4.955,10.474c1.13,4.857 8.423,22.771 10.087,24.776c2.379,2.867 8.067,0.45 8.067,-3.427c0,-1.334 -3.19,-9.655 -7.52,-19.617l-1.462,-3.364l2.925,-1.257c1.608,-0.692 11.786,-4.352 22.617,-8.135c23.219,-8.108 26.744,-9.813 27.128,-13.12c0.192,-1.648 -0.342,-2.796 -1.765,-3.793c-2.628,-1.84 -2.607,-1.843 -11.041,1.6z" data-paper-data="{&quot;wickUUID&quot;:&quot;8e11d7d5-2f7e-44fc-809f-5ab5756ceb80&quot;,&quot;wickType&quot;:&quot;path&quot;,&quot;originalStyle&quot;:{&quot;strokeColor&quot;:null,&quot;fillColor&quot;:[&quot;Color&quot;,0,0,0],&quot;strokeWidth&quot;:1}}" id="8e11d7d5-2f7e-44fc-809f-5ab5756ceb80" fill="#000000"/><path d="M251.49849,252.38135c-1.882,2.007 -3.618,5.581 -5.326,10.966c-1.395,4.393 -3.912,11.06 -5.595,14.814l-3.059,6.826l0.006,15.105c0.009,18.973 0.914,24.604 5.389,33.502c5.14,10.225 17.453,28.09 23.681,34.361c10.114,10.186 26.541,24.768 31.401,27.877c8.708,5.571 15.535,13.952 12.784,15.695c-0.662,0.42 -1.897,0.769 -2.744,0.777c-2.834,0.025 -15.987,5.271 -22.027,8.785c-3.284,1.91 -10.695,6.358 -16.468,9.883c-10.156,6.202 -10.682,6.409 -16.271,6.409c-3.176,0 -8.725,-0.394 -12.33,-0.877c-3.605,-0.482 -11.019,-1.244 -16.476,-1.694c-8.447,-0.697 -10.933,-1.285 -16.719,-3.959c-4.116,-1.901 -8.391,-4.734 -10.837,-7.179c-4.904,-4.905 -11.374,-17.897 -16.602,-33.343l-3.656,-10.799l0.002,-34.405c0.002,-19.491 0.429,-37.897 0.986,-42.461c1.368,-11.208 4.537,-23.13 8.329,-31.338c3.82,-8.267 3.941,-9.768 0.94,-11.734c-4.834,-3.168 -7.655,0.315 -13.232,16.335c-5.874,16.877 -6.424,22.651 -6.424,67.466v39.833l4.376,12.084c6.644,18.348 13.003,30.259 19.179,35.921c6.432,5.898 17.399,11.164 25.766,12.373c10.217,1.476 30.771,3.176 38.402,3.176h7.161l17.275,-10.459c17.085,-10.344 24.382,-13.604 35.855,-16.021c5.365,-1.131 8.186,-3.369 8.186,-6.497c0,-3.089 -4.881,-12.314 -8.979,-16.969c-1.967,-2.235 -6.491,-5.974 -10.054,-8.31c-3.563,-2.336 -9.499,-7.124 -13.192,-10.641c-3.692,-3.517 -9.252,-8.645 -12.356,-11.396c-9.021,-7.998 -22.08,-26.044 -28.134,-38.877l-2.9,-6.148l-0.329,-17.136l-0.328,-17.136l3.152,-7.032c1.735,-3.868 4.023,-9.928 5.087,-13.467c1.064,-3.538 2.708,-7.326 3.654,-8.416c2.167,-2.499 2.2,-5.473 0.083,-7.389c-2.453,-2.22 -4.559,-1.809 -7.656,1.495z" data-paper-data="{&quot;wickUUID&quot;:&quot;1806ace5-9278-4e54-a99b-6ede843d7cf1&quot;,&quot;wickType&quot;:&quot;path&quot;,&quot;originalStyle&quot;:{&quot;strokeColor&quot;:null,&quot;fillColor&quot;:[&quot;Color&quot;,0,0,0],&quot;strokeWidth&quot;:1}}" fill="#000000"/><path d="M311.8142,413.21335c-3.566,3.565 -1.704,6.277 8.056,11.732c3.692,2.063 9.533,5.642 12.979,7.953c3.446,2.311 10.218,6.476 15.048,9.256c4.83,2.78 9.39,5.663 10.134,6.407c1.756,1.755 5.196,1.728 6.979,-0.055c3.491,-3.491 0.399,-7.702 -9.783,-13.32c-3.446,-1.902 -10.495,-6.154 -15.664,-9.45c-12.008,-7.655 -23.604,-14.314 -24.928,-14.314c-0.567,0 -1.837,0.806 -2.821,1.791z" data-paper-data="{&quot;wickUUID&quot;:&quot;e03e3822-c4a6-4516-b167-bec7db9da27d&quot;,&quot;wickType&quot;:&quot;path&quot;,&quot;originalStyle&quot;:{&quot;strokeColor&quot;:null,&quot;fillColor&quot;:[&quot;Color&quot;,0,0,0],&quot;strokeWidth&quot;:1}}" fill="#000000"/><path d="M241.48593,438.59029c-6.259,3.579 -42.255,34.287 -56.78,48.437c-16.102,15.686 -28.008,26.215 -34.134,30.184c-7.285,4.721 -6.98,7.893 0.758,7.893c4.034,0 5.637,-0.467 8.228,-2.396c6.049,-4.504 16.641,-14.091 30.518,-27.624c13.489,-13.154 48.173,-42.885 56.36,-48.31c4.85,-3.215 5.827,-6.578 2.571,-8.859c-2.647,-1.854 -3.184,-1.806 -7.521,0.675z" data-paper-data="{&quot;wickUUID&quot;:&quot;95b7c39f-85b5-4ddf-894d-a52732d41f19&quot;,&quot;wickType&quot;:&quot;path&quot;,&quot;originalStyle&quot;:{&quot;strokeColor&quot;:null,&quot;fillColor&quot;:[&quot;Color&quot;,0,0,0],&quot;strokeWidth&quot;:1}}" fill="#000000"/><path d="M299.90193,283.19571c-6.597,5.567 -12.257,15.525 -12.257,21.566c0,3.193 2.614,10.02 4.757,12.423c2.914,3.268 7.004,4.148 13.791,2.966c6.445,-1.122 12.033,-0.563 15.217,1.523c1.173,0.769 2.926,1.103 4.159,0.794c2.385,-0.599 4.674,-5.056 3.785,-7.372c-0.489,-1.274 -0.071,-1.397 3.057,-0.897c3.094,0.495 3.946,0.257 5.835,-1.632c1.217,-1.217 2.212,-2.982 2.212,-3.922c0,-2.517 -3.31,-6.291 -6.796,-7.747c-3.633,-1.518 -3.836,-2.511 -0.799,-3.895c4.689,-2.136 5.209,-9.253 0.798,-10.93c-6.238,-2.371 -17.968,0.091 -25.3,5.312c-3.579,2.548 -3.668,1.24 -0.128,-1.867c2.993,-2.626 3.519,-6.032 1.279,-8.272c-2.267,-2.267 -5.356,-1.64 -9.61,1.95z" data-paper-data="{&quot;wickUUID&quot;:&quot;1c9a6386-50fd-447c-a57f-be49ff78cbb8&quot;,&quot;wickType&quot;:&quot;path&quot;,&quot;originalStyle&quot;:{&quot;strokeColor&quot;:null,&quot;fillColor&quot;:[&quot;Color&quot;,0,0,0],&quot;strokeWidth&quot;:1}}" fill="#000000"/><path d="M347.05133,449.84932c-13.933,6.719 -17.527,8.984 -29.419,18.539c-13.175,10.585 -12.98,10.355 -12.98,15.283c0,5.65 2.554,8.467 12.002,13.241c9.105,4.599 14.737,4.931 18.063,1.064c2.543,-2.957 2.788,-6.843 0.594,-9.433c-0.862,-1.017 -4.667,-3.502 -8.455,-5.522l-6.889,-3.672l5.546,-4.648c9.599,-8.045 12.086,-9.618 24.634,-15.585c13.651,-6.491 15.374,-7.683 15.374,-10.634c0,-1.969 -2.989,-4.889 -4.898,-4.785c-0.506,0.028 -6.614,2.796 -13.572,6.152z" data-paper-data="{&quot;wickUUID&quot;:&quot;984bf0ac-16ab-457e-8f6e-1a6f78b26c79&quot;,&quot;wickType&quot;:&quot;path&quot;,&quot;originalStyle&quot;:{&quot;strokeColor&quot;:null,&quot;fillColor&quot;:[&quot;Color&quot;,0,0,0],&quot;strokeWidth&quot;:1}}" fill="#000000"/><path d="M254.52532,255.66999c-1.513,1.514 -1.79,2.984 -1.79,9.508c0,8.21 1.878,23.249 4.011,32.116c0.711,2.954 1.521,7.183 1.8,9.399c0.702,5.563 3.878,10.872 7.629,12.754c5.683,2.851 22.347,1.357 28.407,-2.547c2.719,-1.752 2.629,-5.288 -0.182,-7.129c-2.011,-1.318 -2.608,-1.32 -7.075,-0.021c-6.251,1.817 -16.074,1.894 -17.532,0.136c-0.586,-0.705 -1.397,-3.626 -1.803,-6.49c-0.406,-2.864 -1.163,-6.818 -1.682,-8.788c-1.739,-6.592 -3.727,-22.533 -3.727,-29.877c0,-6.077 -0.293,-7.564 -1.79,-9.061c-2.265,-2.265 -4,-2.265 -6.266,0z" data-paper-data="{&quot;wickUUID&quot;:&quot;77c04f99-7977-4b57-a808-5c2850441a85&quot;,&quot;wickType&quot;:&quot;path&quot;,&quot;originalStyle&quot;:{&quot;strokeColor&quot;:null,&quot;fillColor&quot;:[&quot;Color&quot;,0,0,0],&quot;strokeWidth&quot;:1}}" fill="#000000"/></g><g fill="none" fill-rule="nonzero" stroke="none" stroke-width="1" stroke-linecap="butt" stroke-linejoin="miter" stroke-miterlimit="10" stroke-dasharray="" stroke-dashoffset="0" font-family="sans-serif" font-weight="normal" font-size="12" text-anchor="start" style="mix-blend-mode: normal"/><g id="wick_project_gui" fill="none" fill-rule="nonzero" stroke="none" stroke-width="1" stroke-linecap="butt" stroke-linejoin="miter" stroke-miterlimit="10" stroke-dasharray="" stroke-dashoffset="0" font-family="sans-serif" font-weight="normal" font-size="12" text-anchor="start" style="mix-blend-mode: normal"/></g></svg>