<svg version="1.1" xmlns="http://www.w3.org/2000/svg" xmlns:xlink="http://www.w3.org/1999/xlink" width="1260" height="594" viewBox="0,0,1260,594"><g transform="translate(437.32,-155.12) scale(1.188,1.188)"><g id="wick_project_bg" fill-opacity="0" fill="#ffffff" fill-rule="nonzero" stroke="none" stroke-width="1" stroke-linecap="butt" stroke-linejoin="miter" stroke-miterlimit="10" stroke-dasharray="" stroke-dashoffset="0" font-family="none" font-weight="none" font-size="none" text-anchor="none" style="mix-blend-mode: normal"><rect x="0" y="0" width="720" height="480"/></g><g data-paper-data="{&quot;wickUUID&quot;:&quot;c39c6b0a-cf98-46fe-9998-6a6f7289bae7&quot;,&quot;wickType&quot;:&quot;clipsandpaths&quot;}" fill="none" fill-rule="nonzero" stroke="none" stroke-width="1" stroke-linecap="butt" stroke-linejoin="miter" stroke-miterlimit="10" stroke-dasharray="" stroke-dashoffset="0" font-family="sans-serif" font-weight="normal" font-size="12" text-anchor="start" style="mix-blend-mode: normal"/><g data-paper-data="{&quot;wickUUID&quot;:&quot;8f1f5f2b-a6b3-4ce3-a973-fef5ba38b63f&quot;,&quot;wickType&quot;:&quot;clipsandpaths&quot;}" fill="none" fill-rule="evenodd" stroke="none" stroke-width="1" stroke-linecap="butt" stroke-linejoin="miter" stroke-miterlimit="10" stroke-dasharray="" stroke-dashoffset="0" font-family="none" font-weight="none" font-size="none" text-anchor="none" style="mix-blend-mode: normal"><path d="M105.30619,315.16893c-4.16833,0.3 -7.99648,1.0407 -11.57781,2.23937c-10.68033,3.57467 -30.62814,14.07468 -37.26947,19.61601c-2.44833,2.043 -3.21941,3.33372 -3.76408,6.99472c-0.44967,3.01967 -1.20395,11.51071 -1.20728,13.64004l0.99853,1.80143l3.20051,-1.4885c3.65667,-1.72933 7.49215,-2.90222 12.73782,-3.86089c5.19867,-0.94967 17.28373,-1.0329 24.42873,-0.15823c29.34167,3.592 53.32933,9.17214 78.27833,18.20647c3.94167,1.42733 7.52193,2.71519 7.82326,2.83852c0.46167,0.18933 1.47772,-0.66219 1.67739,-2.43619c0.64467,-5.72667 3.24545,-13.02248 6.17045,-17.30748l1.3161,-2.68363l-4.94662,-4.82239c-6.87133,-6.61367 -9.37251,-8.84284 -13.96818,-12.51584c-10.206,-8.156 -20.7409,-13.73897 -30.51557,-16.19597c-11.78167,-2.96133 -24.83911,-4.48177 -33.38211,-3.86744z" data-paper-data="{&quot;wickUUID&quot;:&quot;3a0836a2-15a6-4f73-a9b3-c70816b35050&quot;,&quot;wickType&quot;:&quot;path&quot;}" fill="#ff8000"/><path d="M172.44215,312.46509c0.00433,0.11967 0.14726,4.66083 1.04959,8.8775l1.68754,7.81661l2.64138,2.44869c1.339,1.183 4.67702,4.32681 7.42702,6.99448c2.75,2.66767 5.63719,5.44228 6.41786,6.16761l2.15925,1.54017l2.40043,-2.16731l2.18695,-2.35217l-0.87463,-3.56335c-1.75833,-6.457 -4.23316,-12.09385 -7.56049,-17.23752c-1.42967,-2.20967 -2.13927,-2.87205 -4.11927,-3.76038c-5.68033,-2.54867 -13.43263,-5.23033 -13.41563,-4.76433z" data-paper-data="{&quot;wickUUID&quot;:&quot;18744466-09a1-4c5e-bde4-768fdc1806eb&quot;,&quot;wickType&quot;:&quot;path&quot;}" fill="#ff8000"/><path d="M259.45058,264.14472c-0.204,0.13467 -1.38174,1.89184 -2.11674,3.43451l-1.42578,3.09237l0.81987,2.14796c1.486,3.36 5.04858,13.25948 6.61325,18.38715c2.81333,9.22 4.06533,16.91382 3.71833,22.81949l-0.14047,3.24544l1.81024,0.82716c5.618,1.41533 13.47227,5.47652 22.32494,11.54285c1.991,1.36433 4.93855,1.69029 5.02488,1.60396c0.24633,-0.24633 -1.73431,-8.18151 -3.41898,-13.60218c-2.21,-7.11167 -5.36873,-15.70412 -10.0344,-27.29612c-6.34333,-15.761 -8.0663,-19.50401 -9.4663,-20.74234c-1.57233,-1.391 -6.03242,-3.79276 -9.23442,-4.86776c-2.715,-0.91133 -3.88509,-0.98116 -4.47442,-0.59249z" data-paper-data="{&quot;wickUUID&quot;:&quot;5b2478b7-acc1-4c02-814b-0d5d48d5016d&quot;,&quot;wickType&quot;:&quot;path&quot;}" fill="#ff8000"/><path d="M194.22749,401.25188c-1.83067,1.32733 -8.14155,4.08095 -24.42822,10.65695c-34.02767,13.73933 -43.03124,18.16799 -83.84624,41.24066c-8.623,4.87467 -17.91534,9.80739 -23.11001,12.26806c-2.32233,1.1 -4.37554,3.50201 -4.32154,3.68534c0.473,1.60333 20.95339,17.81924 32.06172,25.38957c14.97467,10.205 36.27308,19.43499 56.61108,24.52666c3.30333,0.827 4.67534,0.96133 9.78067,0.947c16.38167,-0.04633 49.73095,-7.02904 61.38728,-12.85371c1.46933,-0.73433 4.13888,-2.44745 5.40155,-3.48812c2.25,-1.85467 2.47856,-2.18884 6.14156,-9.27751c3.11033,-6.02033 3.75207,-7.76076 3.30807,-7.95543c-0.29333,-0.12867 -2.61026,-0.98378 -4.45326,-1.00911c-3.88433,-0.05333 -3.73021,0.18188 -6.86921,-3.20712c-5.30867,-5.731 -6.08711,-8.59367 -3.73944,-15.49634c2.691,-7.912 8.30469,-13.23914 14.07436,-13.27314c4.423,-0.02567 7.56733,2.84839 10.378,8.62306l2.06789,3.20513l2.27302,-3.56213c0.857,-1.71 2.53607,-4.83163 3.73274,-6.93996c1.19667,-2.10833 2.84204,-5.53259 3.53837,-7.04392c1.485,-3.224 1.38494,-3.58429 -4.76706,-4.14129c-8.506,-0.77 -14.33661,-2.13996 -18.09994,-4.39896c-8.24033,-4.94633 -19.53481,-17.07444 -31.47214,-33.76477l-3.52709,-4.89576z" data-paper-data="{&quot;wickUUID&quot;:&quot;f21a51d9-d97c-4f0f-8a01-759bd2d2bcce&quot;,&quot;wickType&quot;:&quot;path&quot;}" fill="#8000ff"/><path d="M253.95531,325.3837c-6.216,0.945 -10.79376,2.47742 -19.58876,6.56309c-7.883,3.66233 -8.12257,3.7664 -15.41157,6.69473c-7.08633,2.84667 -10.65983,4.90278 -13.1895,7.54645c-11.43733,11.953 -12.22041,12.84688 -13.31408,15.18355c-1.336,2.854 -3.63166,9.87658 -3.63166,11.12058c0,0.688 0.72122,2.02517 2.47189,3.72117c1.863,1.805 2.39384,2.55043 2.80917,3.94976c1.37933,4.64433 9.87039,17.67965 19.81372,30.43898c12.07767,15.49833 19.27673,21.63264 27.8494,23.82531c4.50033,1.151 13.25986,1.94677 30.21286,2.6241l5.80738,0.20057l4.56449,-2.70829c5.804,-3.49767 8.58005,-5.66542 12.46605,-9.70009c3.793,-3.938 6.65447,-7.78132 9.97047,-13.36299c6.202,-10.43967 9.28422,-18.9063 9.62922,-26.4043c0.23067,-5.01233 -0.15717,-7.25879 -2.57717,-13.29812c-1.065,-2.65833 -2.55953,-6.56781 -3.24653,-8.49281c-2.19267,-6.14433 -6.07359,-13.01807 -8.99292,-15.92607c-0.75433,-0.75133 -1.94737,-2.08643 -2.3767,-2.6681c-1.78033,-2.41067 -15.99365,-12.2581 -22.50932,-15.59977c-5.94733,-3.04967 -8.18879,-3.66127 -14.22746,-3.77527c-2.84167,-0.05367 -5.97898,-0.01581 -6.52898,0.06752zM303.95108,364.42593c2.11767,2.11767 2.22042,2.22721 1.09542,4.14654c-0.92333,1.57533 -2.45485,2.7609 -3.31352,2.7609c-0.37367,0 -5.55385,3.90871 -6.73785,5.06138c-0.19467,0.18933 -1.41867,6.57607 -1.64267,8.67574c-0.11733,1.1 -0.05771,2.99352 0.13562,4.00185c0.19333,1.00833 0.43793,2.84152 0.54726,4.15719c0.173,2.07533 0.67088,1.74024 0.05121,2.74257c-1.896,3.068 -5.19407,3.02338 -7.42874,-0.25962c-1.20033,-1.764 -1.20863,-2.69329 -1.3913,-8.07996c-0.09467,-2.79567 -0.29326,-5.35779 -0.33393,-5.35779c-0.04067,0 -1.93502,-0.12356 -3.01769,0.24944c-2.45833,0.84667 -5.13546,1.51895 -7.16813,1.79962l-2.18002,0.78389l0.15221,4.22044c0.22067,4.803 -0.03981,6.15594 -1.64081,7.90294c-1.03133,1.12533 0.08879,0.99648 -1.60088,0.99648c-3.42267,0 -4.39454,-1.77288 -5.09587,-9.06055c-0.212,-2.2 -0.82616,-4.47037 -0.84949,-4.51104c-0.023,-0.04067 -4.46164,-0.30802 -9.49297,-0.49902c-12.62867,-0.479 -18.41424,-0.91811 -19.55591,-1.50811c-1.35633,-0.70167 -1.35537,-1.06215 -1.35537,-2.82082c0,-1.69767 -0.06667,-2.02068 1.28766,-2.90835c0.81933,-0.53733 2.40474,-0.59113 19.47207,-0.78846c23.15867,-0.268 26.11921,-0.58729 31.26154,-3.34462c1.36733,-0.733 4.32601,-2.59616 6.25868,-4.02316c6.558,-4.84133 7.78959,-5.50511 10.59992,-5.58111c1.092,-0.02933 0.53123,-0.1687 1.94356,1.24363zM291.44123,411.34904c2.63267,1.90733 2.49352,3.5563 -0.12115,5.91863c-1.74667,1.578 -5.5031,3.26141 -11.16543,5.13074c-4.96467,1.63933 -5.55235,1.85859 -6.83335,0.85092c-1.89467,-1.49033 -2.33369,-3.53213 -1.00669,-4.95646c0.96233,-1.033 5.37176,-3.29846 10.93709,-5.71246c5.711,-2.47733 6.12886,-2.7237 8.18953,-1.23137z" data-paper-data="{&quot;wickUUID&quot;:&quot;0c757d76-9e68-4867-8e05-86011f6e8206&quot;,&quot;wickType&quot;:&quot;path&quot;}" fill="#ffffff"/><path d="M25.54536,471.40449c-23.814,9.108 -36.799,14.75 -37.847,16.445c-0.342,0.554 -0.661,2.374 -0.708,4.045c-0.07,2.463 0.385,3.368 2.4,4.777c1.367,0.955 5.52,4.771 9.229,8.478c3.709,3.708 10.148,9.566 14.31,13.018c4.161,3.452 9.901,8.471 12.754,11.153c2.853,2.682 5.789,4.877 6.524,4.877c1.521,0 4.702,-2.902 4.702,-4.29c0,-2.493 -3.936,-6.748 -14.31,-15.473c-10.916,-9.18 -24.305,-22.003 -23.523,-22.527c2.549,-1.711 24.263,-10.293 45.409,-17.948c4.861,-1.759 9.312,-3.555 9.89,-3.991c1.34,-1.008 1.366,-4.986 0.042,-6.31c-2.01,-2.011 -6.53,-0.798 -28.872,7.746z" data-paper-data="{&quot;wickUUID&quot;:&quot;2bf07258-1248-4a2a-8f6a-6d9b825c2863&quot;,&quot;wickType&quot;:&quot;path&quot;}" fill="#000000"/><path d="M49.53617,463.49064c-5.445,5.444 1.58,13.021 33.765,36.415c14.204,10.324 38.506,21.318 58.406,26.422c7.542,1.935 9.512,2.112 18.94,1.71c12.097,-0.516 26.338,-2.826 42.303,-6.861c15.111,-3.819 20.456,-5.963 24.758,-9.928c3.97,-3.659 4.606,-6.224 2.106,-8.487c-2.253,-2.039 -3.785,-1.734 -7.692,1.531c-6.926,5.786 -36.714,13.105 -61.896,15.208c-5.668,0.473 -8.067,0.225 -15.152,-1.568c-19.764,-5.003 -42.366,-15.19 -56.722,-25.565c-19.399,-14.019 -31.241,-24.022 -31.241,-26.391c0,-1.614 -2.953,-4.17 -4.817,-4.17c-0.591,0 -1.833,0.758 -2.758,1.684z" data-paper-data="{&quot;wickUUID&quot;:&quot;8be38415-77e1-4d72-ad8b-ea6cf024c93b&quot;,&quot;wickType&quot;:&quot;path&quot;}" fill="#000000"/><path d="M224.62034,502.21118c-1.901,1.9 -2.049,2.795 -0.84,5.054c0.884,1.652 1.153,1.707 16.412,3.373c10.617,1.159 18.098,2.55 18.098,3.364c0,0.346 -0.723,1.149 -1.606,1.784c-2.548,1.834 -2.952,4.595 -0.963,6.583c2.435,2.435 4.086,2.166 8.807,-1.434c6.049,-4.613 7.766,-7.198 6.551,-9.864c-2.151,-4.721 -9.453,-6.96 -30.127,-9.237c-14.813,-1.632 -14.313,-1.643 -16.332,0.377z" data-paper-data="{&quot;wickUUID&quot;:&quot;f80ca7a0-fec5-48d0-874b-09c763bbc895&quot;,&quot;wickType&quot;:&quot;path&quot;}" fill="#000000"/><path d="M253.92934,448.54913c-0.723,0.579 -3.765,5.787 -6.76,11.574c-2.995,5.787 -9.672,18.574 -14.839,28.414c-5.167,9.841 -9.394,18.4 -9.394,19.02c0,1.827 3.073,4.07 5.164,3.77c2.59,-0.372 4.486,-3.394 16.811,-26.793c18.013,-34.2 17.213,-32.41 15.585,-34.894c-1.527,-2.331 -4.417,-2.811 -6.567,-1.091z" data-paper-data="{&quot;wickUUID&quot;:&quot;05cc020e-2926-4186-9218-0eee173df236&quot;,&quot;wickType&quot;:&quot;path&quot;}" fill="#000000"/><path d="M185.47842,396.25408c-3.241,1.412 -15.362,6.356 -26.936,10.987c-22.643,9.058 -40.032,17.659 -68.603,33.93c-21.747,12.385 -35.988,19.794 -38.047,19.794c-1.838,0 -4.882,2.886 -4.882,4.629c0,0.695 0.772,2.035 1.716,2.979c1.372,1.372 2.341,1.604 4.84,1.16c4.19,-0.744 18.89,-8.191 39.787,-20.155c28.661,-16.41 45.959,-24.915 71.081,-34.951c24.565,-9.813 29.888,-12.18 30.922,-13.75c1.203,-1.827 0.62,-4.648 -1.227,-5.942c-2.324,-1.628 -1.659,-1.729 -8.651,1.319z" data-paper-data="{&quot;wickUUID&quot;:&quot;182899e6-43cc-4009-92d7-d1f50be03cc0&quot;,&quot;wickType&quot;:&quot;path&quot;}" fill="#000000"/><path d="M254.50205,316.73375c-9.241,1.469 -14.965,3.275 -23.723,7.484c-5.471,2.629 -12.923,5.851 -16.561,7.16c-8.652,3.113 -11.904,5.467 -20.638,14.943c-7.953,8.629 -10.244,12.393 -12.247,20.122c-1.816,7.008 -1.671,9.616 0.72,12.958c1.126,1.573 5.171,7.785 8.989,13.803c13.863,21.85 29.913,40.494 39.897,46.344c5.244,3.073 12.157,4.319 30.193,5.441c16.951,1.054 19.106,0.723 27.461,-4.222c11.212,-6.636 18.438,-14.914 27.192,-31.149c4.801,-8.903 7.578,-18.659 7.546,-26.515c-0.02,-4.946 -0.662,-7.58 -4,-16.403c-4.937,-13.05 -7.247,-17.651 -11.91,-23.719c-5.55,-7.221 -22.86,-19.421 -33.9,-23.892c-5.358,-2.169 -13.693,-3.202 -19.019,-2.355zM273.44105,328.97775c6.56,3.191 19.664,12.155 23.91,16.354c3.959,3.915 8.677,11.784 10.687,17.823c1.029,3.094 2.816,7.711 3.971,10.261c4.345,9.593 1.894,21.697 -7.672,37.886c-6.101,10.325 -12.358,16.932 -20.77,21.929l-5.954,3.537l-12.818,-0.56c-24.074,-1.052 -27.998,-2.216 -37.684,-11.184c-9.653,-8.937 -31.317,-38.956 -32.546,-45.097c-0.257,-1.285 -1.554,-3.11 -2.883,-4.057c-1.329,-0.946 -2.416,-2.222 -2.416,-2.836c0,-2.472 3.528,-12.328 4.907,-13.708c0.811,-0.812 3.479,-3.836 5.93,-6.721c6.322,-7.445 10.091,-10.145 18.545,-13.288c4.081,-1.517 11.425,-4.71 16.322,-7.095c10.483,-5.107 17.198,-6.802 25.845,-6.521c5.305,0.172 7.322,0.695 12.626,3.277z" data-paper-data="{&quot;wickUUID&quot;:&quot;d4747b56-ec3d-42dc-af12-b918567fc877&quot;,&quot;wickType&quot;:&quot;path&quot;}" fill="#000000"/><path d="M257.93455,440.39681c-1.89,1.89 -7.22,13.256 -7.22,15.395c0,1.982 2.74,5.173 4.442,5.173c1.699,0 4.817,-2.496 4.817,-3.857c0,-0.679 1.326,-3.868 2.946,-7.086c3.382,-6.715 3.518,-7.639 1.407,-9.549c-1.938,-1.754 -4.682,-1.787 -6.392,-0.076z" data-paper-data="{&quot;wickUUID&quot;:&quot;950e46dc-50c6-4fd1-9eb2-9c8137e2c3c1&quot;,&quot;wickType&quot;:&quot;path&quot;}" fill="#000000"/><path d="M167.38066,232.87367c-10.233,1.203 -29.02,4.977 -35.139,7.059c-7.815,2.658 -14.814,6.4 -19.47,10.411c-5.091,4.386 -5.449,8.269 -1.867,20.285c1.432,4.805 2.604,9.445 2.604,10.311c0,4.015 6.199,6.376 9.73,3.705c2.607,-1.972 15.658,-1.701 22.328,0.463c21.694,7.041 45.15,30.61 50.886,51.13l1.488,5.324l-2.197,2.197l-2.197,2.197l-8.664,-8.468c-10.094,-9.868 -17.838,-15.556 -28.389,-20.855c-8.57,-4.304 -15.366,-6.332 -29.938,-8.935c-14.257,-2.546 -25.696,-1.994 -36.141,1.743c-20.63,7.383 -40.327,19.076 -44.681,26.524c-1.753,3 -2.033,4.854 -2.566,17.017c-0.524,11.959 -0.425,13.913 0.8,15.782c1.72,2.624 4.095,2.715 8.527,0.325c6.099,-3.29 16.338,-6.591 22.094,-7.124c9.842,-0.911 34.417,2.351 58.701,7.792c13.216,2.961 38.208,11.153 49.549,16.241c3.159,1.417 6.406,2.577 7.217,2.577c2.424,0 4.54,-2.984 3.906,-5.508c-0.725,-2.89 -9.063,-6.794 -29.527,-13.826c-22.567,-7.755 -49.141,-13.485 -74.495,-16.065c-14.209,-1.445 -26.755,0.257 -35.66,4.839l-2.411,1.241l0.596,-8.699c0.341,-4.971 1.097,-9.488 1.764,-10.54c3,-4.727 25.796,-17.425 39.92,-22.235c10.21,-3.478 24.008,-3.011 43.35,1.466c13.752,3.183 27.627,11.742 42.719,26.353c11.493,11.126 11.274,10.957 14.171,10.974c1.598,0.01 3.669,-1.532 7.787,-5.797c3.085,-3.196 5.609,-6.41 5.609,-7.142c0,-1.996 -3.971,-15.309 -5.799,-19.441c-4.287,-9.692 -14.902,-22.648 -26.08,-31.831c-16.469,-13.53 -29.249,-18.65 -45.264,-18.131l-8.792,0.284l-2.066,-6.777c-1.136,-3.728 -2.065,-7.515 -2.065,-8.418c0.002,-1.605 4.945,-5.459 10.521,-8.202c5.344,-2.63 16.615,-5.601 29.507,-7.779c15.856,-2.679 20.289,-2.534 38.276,1.252c21.006,4.422 32.168,8.78 41.73,16.291c7.167,5.63 9.969,10.675 16.016,28.838c3.233,9.71 3.995,13.211 4.424,20.318c0.287,4.758 0.959,9.028 1.507,9.575c1.502,1.5 5.473,1.181 6.732,-0.54c2.078,-2.842 1.411,-14.258 -1.403,-24.025c-3.474,-12.058 -7.89,-23.628 -11.442,-29.98c-3.055,-5.461 -10.398,-12.401 -17.703,-16.728c-6.011,-3.561 -21.136,-8.779 -32.897,-11.349c-11.129,-2.433 -26.992,-5.091 -29.077,-4.873c-0.582,0.06 -3.52,0.4 -6.529,0.754z" data-paper-data="{&quot;wickUUID&quot;:&quot;4f5a0252-4302-4694-86f2-7af4d4199b27&quot;,&quot;wickType&quot;:&quot;path&quot;}" fill="#000000"/><path d="M253.93162,255.51419c-2.96,2.329 -5.523,10.233 -4.235,13.061c0.788,1.73 1.578,2.154 4.013,2.154c2.754,0 3.153,-0.308 4.349,-3.352c1.175,-2.991 1.554,-3.295 3.51,-2.821c4.636,1.123 10.949,4.424 12.245,6.401c0.745,1.137 4.978,11.115 9.408,22.174c8.312,20.753 12.71,35.43 13.463,44.938c0.639,8.064 1.007,9.223 3.261,10.249c1.643,0.749 2.491,0.641 4.304,-0.546c2.232,-1.463 2.251,-1.56 1.767,-8.748c-0.772,-11.475 -4.849,-25.566 -14.25,-49.246c-9.967,-25.107 -11.582,-27.592 -20.2,-31.084c-5.472,-2.217 -13.433,-4.8 -14.794,-4.8c-0.43,0 -1.708,0.729 -2.841,1.62z" data-paper-data="{&quot;wickUUID&quot;:&quot;efd7019a-5a52-4fe3-af9d-afd8bb17541f&quot;,&quot;wickType&quot;:&quot;path&quot;}" fill="#000000"/><path d="M164.21453,300.7507c-2.267,0.914 -2.826,3.556 -1.889,8.927c3.119,17.869 4.7,23.215 7.2,24.354c1.579,0.72 2.462,0.603 4.233,-0.557c2.494,-1.634 2.493,-2.118 -0.025,-13.503c-0.716,-3.24 -1.302,-6.326 -1.302,-6.856c0,-1.692 26.341,10.003 28.565,12.683c0.608,0.733 2.384,1.328 3.963,1.328c2.255,0 3.07,-0.458 3.846,-2.161c2.217,-4.866 -2.483,-8.249 -24.59,-17.697c-7.176,-3.067 -13.407,-5.914 -13.847,-6.327c-0.848,-0.797 -4.378,-0.906 -6.154,-0.191z" data-paper-data="{&quot;wickUUID&quot;:&quot;b1114a67-d678-4894-ae4f-e8cb156818de&quot;,&quot;wickType&quot;:&quot;path&quot;}" fill="#000000"/><path d="M167.38307,241.38341c-11.774,1.47533 -26.53339,4.58883 -34.14272,7.19516c-7.204,2.46733 -15.98025,8.30372 -15.95825,10.55972c0.007,0.717 1.03615,5.56675 2.70982,11.09008l1.76583,4.72767l9.45284,0.07425c10.16367,0.01867 12.19202,0.22333 18.78569,2.411c13.348,4.42867 31.04293,17.992 42.2156,32.34433c1.64433,2.11233 2.09651,2.44816 5.78551,4.30916c5.24433,2.64567 7.68582,4.18455 9.32615,5.96388c1.671,1.813 1.8349,2.4621 1.0599,4.49177c-0.71267,1.866 -1.31902,2.04031 -3.48769,2.04031c-1.38167,0 -2.1079,0.74218 -1.95423,1.14251c0.10467,0.27333 0.6235,2.16653 1.10983,3.7722c0.48667,1.606 1.25085,3.45303 1.33018,3.58836c0.07967,0.13533 1.88692,-0.10874 3.00159,-0.67141c1.11467,-0.56267 4.08364,-1.82719 6.57997,-2.80252c5.58333,-2.18133 8.10686,-3.27217 16.04086,-6.92517c9.618,-4.428 15.19764,-6.17755 23.56797,-7.39222c2.10833,-0.306 4.48046,-1.29046 4.53513,-1.34146c0.27567,-0.256 -1.04067,-12.60267 -1.64934,-15.423c-1.335,-6.189 -6.47185,-21.09349 -9.35218,-27.14449c-2.847,-5.98167 -5.50486,-9.32727 -10.24353,-13.02727c-7.92133,-6.18567 -17.26437,-10.29701 -31.75404,-13.95468c-6.97433,-1.76033 -17.97422,-4.03248 -22.99822,-4.74548c-3.17933,-0.45133 -12.99067,-0.6257 -15.72667,-0.2827z" data-paper-data="{&quot;wickUUID&quot;:&quot;ddc8b833-e695-4304-9594-7ca47cefb146&quot;,&quot;wickType&quot;:&quot;path&quot;}" fill="#ff8000"/><path d="M113.92962,378.56475c-26.476,1.668 -64.633,7.918 -78.453,12.852c-3.309,1.182 -3.569,1.164 -4.027,-0.28c-0.884,-2.785 -8.592,-9.289 -11.129,-9.39c-9.309,-0.369 -16.582,4.63 -17.606,12.102c-1.014,7.398 5.785,17.098 13.113,18.707c3.679,0.808 11.307,-3.342 16.031,-8.722c3.595,-4.094 16.371,-7.392 49.243,-12.709c14.683,-2.376 40.215,-4.182 60.606,-4.287l13.468,-0.07l12.231,3.814c6.728,2.098 14.409,4.777 17.07,5.954c5.848,2.587 9.062,2.711 11.126,0.431c2.661,-2.941 0.888,-5.725 -5.074,-7.967c-12.279,-4.619 -17.383,-6.372 -25.588,-8.789c-8.488,-2.501 -9.23,-2.575 -24.411,-2.457c-8.612,0.067 -20.581,0.432 -26.6,0.811z" data-paper-data="{&quot;wickUUID&quot;:&quot;d144c2f5-81b7-427f-8ac4-47bb5da9969a&quot;,&quot;wickType&quot;:&quot;path&quot;}" fill="#000000"/><path d="M263.04963,443.98558c-0.766,0.847 -1.393,2.661 -1.393,4.032c0,1.371 -0.592,4.75 -1.316,7.51c-0.725,2.759 -2.029,8.941 -2.899,13.738c-0.871,4.796 -1.729,8.867 -1.908,9.046c-0.179,0.178 -2.378,-0.371 -4.887,-1.221c-4.396,-1.489 -4.571,-1.665 -4.807,-4.837c-0.619,-8.321 -4.812,-16.208 -9.911,-18.639c-6.169,-2.942 -14.49,2.6 -17.979,11.974c-2.728,7.332 -1.975,11.108 3.311,16.592c3.473,3.603 4.425,4.163 6.284,3.697c1.205,-0.303 3.688,-0.102 5.518,0.447c2.834,0.849 3.826,0.772 6.695,-0.522c3.3,-1.488 3.494,-1.48 9.796,0.391c5.553,1.648 6.883,1.773 9.753,0.913c4.056,-1.216 4.98,-3.149 6.867,-14.376c0.74,-4.409 2.111,-11.003 3.044,-14.655c0.934,-3.652 1.699,-8.035 1.699,-9.741c0,-5.149 -4.761,-7.781 -7.867,-4.349z" data-paper-data="{&quot;wickUUID&quot;:&quot;4a2b19f8-ae38-47e9-a0bc-c2f83d2c20bd&quot;,&quot;wickType&quot;:&quot;path&quot;}" fill="#000000"/><path d="M299.1656,363.09105c-0.898,0.229 -4.063,2.256 -7.034,4.505c-9.992,7.564 -11.671,7.931 -36.261,7.931c-21.054,0 -21.376,0.026 -22.588,1.847c-1.535,2.305 -0.725,5.17 1.721,6.088c1.002,0.376 10.344,0.949 20.761,1.272c18.009,0.56 19.229,0.499 24.832,-1.248c7.533,-2.349 12.645,-4.949 17.176,-8.734c1.983,-1.657 3.949,-3.013 4.368,-3.013c1.227,0 4.129,-3.253 4.129,-4.629c0,-1.579 -3.008,-4.663 -4.419,-4.532c-0.579,0.053 -1.787,0.284 -2.685,0.513z" data-paper-data="{&quot;wickUUID&quot;:&quot;0e7e60d0-c849-415f-92c5-2ce133b255d4&quot;,&quot;wickType&quot;:&quot;path&quot;}" fill="#000000"/><path d="M264.65338,379.25905c-1.275,1.41 -1.393,2.626 -0.876,9.049c0.639,7.933 1.822,10.367 5.034,10.367c2.895,0 4.638,-2.595 4.569,-6.8c-0.106,-6.388 -1.289,-12.674 -2.533,-13.462c-1.969,-1.247 -4.629,-0.883 -6.194,0.846z" data-paper-data="{&quot;wickUUID&quot;:&quot;0b10eb4f-1c9e-401c-b42e-7ace76d0e622&quot;,&quot;wickType&quot;:&quot;path&quot;}" fill="#000000"/><path d="M288.78613,373.14406c-4.514,1.816 -5.876,19.848 -1.808,23.917c2.196,2.196 5.494,2.064 7.01,-0.28c0.996,-1.54 1.05,-2.646 0.292,-5.921c-0.716,-3.086 -0.674,-5.335 0.177,-9.617c1.081,-5.437 1.059,-5.631 -0.786,-7.126c-1.918,-1.552 -2.939,-1.756 -4.885,-0.973z" data-paper-data="{&quot;wickUUID&quot;:&quot;fb535134-6f16-4a76-a0d7-2c03acd2ccfe&quot;,&quot;wickType&quot;:&quot;path&quot;}" fill="#000000"/><path d="M280.32414,413.28407c-4.316,1.919 -8.241,4.193 -8.721,5.054c-1.113,1.994 0.255,5.241 2.508,5.956c1.908,0.606 14.279,-3.932 17.389,-6.379c2.656,-2.089 2.779,-5.231 0.272,-6.987c-2.419,-1.694 -2.264,-1.726 -11.448,2.356z" data-paper-data="{&quot;wickUUID&quot;:&quot;830299d3-7bbc-4155-8f24-216636c7cd5b&quot;,&quot;wickType&quot;:&quot;path&quot;}" fill="#000000"/></g><g fill="none" fill-rule="nonzero" stroke="none" stroke-width="1" stroke-linecap="butt" stroke-linejoin="miter" stroke-miterlimit="10" stroke-dasharray="" stroke-dashoffset="0" font-family="sans-serif" font-weight="normal" font-size="12" text-anchor="start" style="mix-blend-mode: normal"/><g id="wick_project_gui" fill="none" fill-rule="nonzero" stroke="none" stroke-width="1" stroke-linecap="butt" stroke-linejoin="miter" stroke-miterlimit="10" stroke-dasharray="" stroke-dashoffset="0" font-family="sans-serif" font-weight="normal" font-size="12" text-anchor="start" style="mix-blend-mode: normal"/></g></svg>