<svg version="1.1" xmlns="http://www.w3.org/2000/svg" xmlns:xlink="http://www.w3.org/1999/xlink" width="1260" height="594" viewBox="0,0,1260,594"><g transform="translate(230.20498,30.46998) scale(1.11054,1.11054)"><g id="wick_project_bg" fill="#999999" fill-rule="nonzero" stroke="none" stroke-width="1" stroke-linecap="butt" stroke-linejoin="miter" stroke-miterlimit="10" stroke-dasharray="" stroke-dashoffset="0" font-family="none" font-weight="none" font-size="none" text-anchor="none" style="mix-blend-mode: normal"><rect x="0" y="0" width="720" height="480"/></g><g data-paper-data="{&quot;wickUUID&quot;:&quot;ce94fe83-4d86-4c43-b064-ca7e84c52450&quot;,&quot;wickType&quot;:&quot;clipsandpaths&quot;}" fill="none" fill-rule="evenodd" stroke="none" stroke-width="1" stroke-linecap="butt" stroke-linejoin="miter" stroke-miterlimit="10" stroke-dasharray="" stroke-dashoffset="0" font-family="none" font-weight="none" font-size="none" text-anchor="none" style="mix-blend-mode: normal"><path d="M56.13887,300.28387c-3.82367,5.90533 -11.03068,23.76435 -12.12301,30.02802c-0.62433,3.57933 -0.9621,13.10187 -0.62943,18.3072l0.40908,4.62052l3.21643,0.85876c4.26067,0.86133 7.47644,2.99039 9.78444,6.47472l1.45398,1.6525l1.05805,-2.22128c0.096,-0.791 0.25226,-3.17586 0.35593,-5.37519c0.309,-6.561 1.75927,-14.93359 3.7936,-21.90192l0.94535,-3.6146l-3.1846,-6.15257l-3.02613,-5.70394l0.4885,-9.08309c0.26267,-5.09767 0.43745,-9.44514 0.39478,-9.48747c-0.04233,-0.04233 -2.25897,0.55134 -2.93697,1.59834z" data-paper-data="{&quot;wickUUID&quot;:&quot;fdf20144-f664-45c1-bed0-dfb2c4db4238&quot;,&quot;wickType&quot;:&quot;path&quot;}" fill="#ff8000"/><path d="M18.48468,267.32756c0,2.80833 0.77579,13.27892 1.37846,18.66659c1.72533,15.42533 5.18857,29.43671 10.8509,43.89404c1.60767,4.105 3.22967,4.27034 3.312,2.79267c0.172,-3.07633 1.20914,-8.33027 2.26847,-11.56527c1.98533,-6.06333 7.83579,-19.34938 10.58212,-24.03505c0.66733,-1.139 1.02982,-2.87177 0.88049,-2.87177c-0.14933,0 -1.95553,-1.18847 -3.8632,-2.45614c-6.13767,-4.079 -11.87104,-10.04536 -19.53504,-20.32703c-2.11833,-2.84167 -3.97904,-5.31444 -4.12971,-5.48844c-0.152,-0.17533 -1.74449,0.79207 -1.74449,1.3904z" data-paper-data="{&quot;wickUUID&quot;:&quot;6680e3d7-69d8-4335-b64e-6cb12bd6141c&quot;,&quot;wickType&quot;:&quot;path&quot;}" fill="#ff8000"/><path d="M5.01734,246.24919c-5.824,6.09767 -10.68654,13.62328 -15.14754,23.41128c-6.72167,14.74933 -14.08988,34.73704 -16.37321,44.34337c-4.09733,17.23567 -3.1058,24.47525 6.0142,43.02358c3.41133,6.938 5.02703,9.31175 6.40336,9.31175c0.906,0 6.7525,2.16862 10.28983,3.78395c7.64533,3.49167 20.38516,8.23028 20.83716,7.77828c0.37433,-0.37433 0.5918,-3.11069 -1.84353,-8.03302c-5.07933,-10.26767 -11.75183,-28.19799 -13.5415,-36.39432c-0.55767,-2.55467 -1.25305,-7.44907 -1.95872,-13.69307c-1.81567,-16.06067 -2.0509,-24.59195 -0.8709,-32.35395c1.90267,-12.51467 3.77526,-19.35278 7.51459,-27.55311c1.03633,-2.27233 2.07659,-4.73526 2.34226,-5.56026c0.26533,-0.825 0.78934,-2.29363 1.15434,-3.23796l0.71388,-2.05881l-0.95476,-2.40393c-0.48733,-1.164 -1.65049,-2.67511 -1.70482,-2.73378c-0.05433,-0.05833 -1.76831,1.21167 -2.87464,2.37z" data-paper-data="{&quot;wickUUID&quot;:&quot;d279e29b-c8c9-43ef-8044-a2ab0fff2d53&quot;,&quot;wickType&quot;:&quot;path&quot;}" fill="#ff8000"/><path d="M77.06491,280.09366c-0.569,0.111 -1.299,0.391 -2.103,0.809c-0.667,0.346 -1.024,0.464 -1.63,0.539c-2.942,0.366 -4.962,2.579 -4.966,5.444c-0.003,1.92 0.916,3.604 2.545,4.665c1.261,0.821 3.007,1.052 4.515,0.596c0.391,-0.118 0.878,-0.215 1.082,-0.215c0.479,0 1.74,-0.424 2.284,-0.767c0.233,-0.147 0.687,-0.371 1.009,-0.497c0.902,-0.354 1.36,-0.66 2.027,-1.355c2.063,-2.15 2.051,-5.436 -0.029,-7.59c-1.017,-1.053 -2.175,-1.576 -3.634,-1.64c-0.467,-0.02 -0.962,-0.015 -1.1,0.011z" data-paper-data="{&quot;wickUUID&quot;:&quot;61fe58a0-0ae5-40d9-b4c3-42fefe4ce46a&quot;,&quot;wickType&quot;:&quot;path&quot;}" fill="#ffffff"/><path d="M62.63818,163.14348c-1.74267,0.17333 -4.27795,0.76417 -6.09495,1.42484c-3.88233,1.412 -12.84256,5.90059 -16.20289,8.10959c-3.40033,2.235 -9.72066,8.57582 -12.02033,12.04449c-3.631,5.47667 -8.87877,17.42034 -11.5651,26.33634c-1.56233,5.18533 -2.26933,9.57286 -2.26933,14.21353c0,3.75 0.04517,4.14519 0.8805,4.92586c1.82233,1.70233 2.21042,3.40522 1.23909,5.44189c-0.54867,1.15067 -0.42812,1.51444 0.65588,4.38177c4.185,11.07167 14.65455,26.82177 24.88922,37.44544c3.66067,3.79967 6.49732,6.12071 9.27299,7.51638l2.84834,1.19241l2.9094,-2.58323c1.55167,-1.44167 3.52087,-2.89812 5.07654,-3.72712c2.37733,-1.26667 18.50351,-7.77 19.30218,-7.78367c0.18333,-0.003 1.31738,-1.73633 2.14038,-3.51333c2.38033,-5.13933 5.55287,-9.66366 9.7332,-13.85333c3.949,-3.95767 6.3929,-5.81589 10.92157,-8.35456l2.5171,-3.11842l-11.6865,-0.17695c-16.241,-0.23 -24.07438,-1.20402 -36.84138,-4.59102c-10.483,-2.781 -13.79593,-4.0754 -16.24593,-6.59607c-3.274,-3.369 -4.00596,-7.22199 -2.60663,-12.75866c2.16167,-8.55467 6.30892,-21.03581 8.14125,-24.44914c2.30433,-4.29233 8.67418,-9.02948 16.19651,-12.00915c8.14867,-3.22733 14.36109,-2.84821 27.57709,1.64946c10.98633,3.739 17.94714,8.34564 20.69947,13.79931c2.31133,4.57933 6.81405,22.77112 8.08405,32.52879c0.378,2.90333 0.29621,7.51734 -0.15979,8.59867c-0.19567,0.464 0.74783,1.18413 2.9965,1.31446c2.046,0.11833 2.71476,0.22668 4.06043,0.95901c1.81633,0.98833 7.14536,5.75992 10.65903,9.53592c1.15133,1.23733 3.56689,1.94898 3.71322,1.94898c0.45367,0 1.95892,-6.93353 3.51092,-16.26386l1.5013,-9.12625l-2.05959,-6.21289c-2.39233,-7.09733 -4.98461,-12.50356 -7.71628,-16.18756c-5.84367,-7.88133 -23.72552,-26.62313 -29.51419,-30.9398c-6.882,-5.13233 -16.85486,-9.34512 -25.10886,-10.57912c-4.016,-0.60033 -15.54941,-0.93001 -19.43441,-0.54301z" data-paper-data="{&quot;wickUUID&quot;:&quot;9aaddfa8-afd6-497b-9d5e-f4a496d04117&quot;,&quot;wickType&quot;:&quot;path&quot;}" fill="#ffffff"/><path d="M71.11314,190.71799c-6.15033,1.65467 -13.63628,6.07305 -15.30495,8.95905c-1.17033,2.02433 -7.30942,21.30668 -7.30942,22.98001c0,0.94933 1.30422,2.83429 2.77155,3.59296c0.92067,0.47633 9.99254,2.9079 10.78654,2.91023c0.20567,0.00067 1.46837,-3.04331 2.0837,-6.19731c1.532,-7.85067 3.74859,-16.62547 4.85892,-19.00447c2.557,-5.47767 5.07626,-6.50937 8.49226,-2.72804c1.80733,2.00067 1.56501,2.10455 -1.15632,12.80788c-2.82533,11.113 -3.8692,16.69518 -3.54187,17.00151c0.41167,0.38533 8.11245,1.74971 12.73145,1.99471l4.91203,-0.15488l-0.13889,-6.45597c-0.155,-3.27433 -0.28205,-7.71804 -0.28205,-9.94937c0,-3.86733 -0.28974,-3.4581 0.50459,-4.30877c2.03367,-2.177 4.08798,-2.94642 6.17565,-1.55609c2.40067,1.599 3.07048,4.87779 3.35648,15.02979l0.31174,7.30591l4.80836,0.29499c2.22133,-0.06 4.93979,-1.026 5.05779,-1.14933c0.24967,-0.26167 -1.87265,-10.95652 -3.57998,-17.95919c-1.619,-6.641 -3.00736,-10.69333 -3.94569,-12.316c-1.92833,-3.33333 -10.66429,-7.44316 -22.35496,-10.46883c-4.857,-1.257 -6.57693,-1.34446 -9.23693,-0.62879z" data-paper-data="{&quot;wickUUID&quot;:&quot;a6007528-2039-4505-95fa-16db55e384f4&quot;,&quot;wickType&quot;:&quot;path&quot;}" fill="#ffffff"/><path d="M117.4981,251.32925c-4.19,1.53967 -9.34726,4.05838 -11.98059,5.81538c-4.60933,3.07633 -9.81499,9.08952 -12.63199,14.59619c-1.797,3.513 -2.69069,6.10261 -3.88369,11.50628c-1.23033,5.572 -3.04971,11.58341 -9.00438,29.75208c-3.62767,11.06867 -5.09743,15.99012 -4.95043,16.57579c0.25167,1.003 -0.26662,2.6044 -1.35662,4.1894c-0.87767,1.276 -2.79946,8.3197 -3.65879,13.3857c-0.94633,5.57967 -1.26232,11.69531 -1.07799,20.99464c0.23533,11.84767 0.24165,10.29077 -0.09368,24.15644c-0.26933,11.12933 -0.72706,17.40476 -1.70973,23.45776c-0.17933,1.105 0.85582,3.21113 0.85449,3.64613c-0.00333,1.00633 -0.34974,1.294 8.44893,-6.301c19.34767,-16.70033 27.26361,-21.80686 39.25761,-25.28519c6.77333,-1.96433 16.53213,-3.85708 27.34546,-5.33441c9.898,-1.35233 39.9378,-1.21726 49.79113,0.22374c6.869,1.00467 11.67481,2.72945 13.78714,4.90878c0.92467,0.954 0.66321,0.75284 0.77688,2.37684c0.112,1.603 0.08629,1.6571 -0.56404,2.60543c-0.429,0.62467 -0.56564,0.97948 -1.08297,1.36315c-1.38233,1.025 -4.71877,0.93256 -8.7861,-0.22411c-14.532,-4.13267 -52.65789,-2.94027 -73.64789,2.2924c-12.289,3.06333 -20.44848,7.64629 -34.99148,19.80962c-2.59033,2.16633 -6.94104,5.79494 -9.57571,7.99861c-8.22533,6.87933 -13.46818,10.84937 -14.33185,10.84937c-0.28133,0 -0.4104,1.66089 -0.24173,2.79089c0.54767,3.67267 1.47603,4.47928 9.40636,8.77061c21.761,11.77467 45.08141,19.71821 54.80841,18.76888c15.91967,-1.554 48.79345,-13.07083 87.57845,-30.72816c16.37067,-7.45333 25.60636,-12.32634 34.68569,-18.31501c2.58833,-1.707 3.98777,-4.23795 3.71977,-4.38495c-0.78567,-0.43067 -5.56559,-1.10225 -10.28459,-1.37025c-7.28767,-0.414 -8.57106,-1.11332 -8.26906,-5.21599c0.188,-2.554 0.31561,-2.29207 3.22528,-3.72974c4.04733,-2.00067 6.56582,-1.9405 17.68082,0.2945c2.72133,0.54733 5.77964,-0.40545 5.88031,-0.50645c0.22133,-0.221 -4.17192,-4.97963 -16.16592,-17.4663c-14.935,-15.54867 -24.00129,-25.27503 -40.86129,-43.83636c-8.131,-8.952 -15.13393,-16.43356 -25.2796,-27.00856c-12.08567,-12.59733 -19.46846,-20.75187 -32.98779,-36.4362l-4.88486,-5.65222l-1.98705,0.01505c-1.01567,0.15233 -1.51147,0.15818 -2.5348,-0.23282c-1.45467,-0.55567 -3.30809,-2.33194 -3.30809,-3.14561c0,-0.23133 -0.42735,-0.74533 -1.15902,-1.45966c-1.51633,-1.481 -1.88532,-2.77099 -1.30699,-4.52332c0.353,-1.069 0.1129,-1.64635 -0.6441,-2.63468c-1.658,-2.16367 -8.3624,-8.09845 -9.3224,-8.26078c-0.577,-0.09767 -2.83351,0.22878 -4.68151,0.90811z" data-paper-data="{&quot;wickUUID&quot;:&quot;8c438627-81a6-4a37-86f5-b76bfd57c446&quot;,&quot;wickType&quot;:&quot;path&quot;}" fill="#8000ff"/><path d="M117.4981,251.32925c-4.19,1.53967 -9.34726,4.05838 -11.98059,5.81538c-4.60933,3.07633 -9.81499,9.08952 -12.63199,14.59619c-1.797,3.513 -2.69069,6.10261 -3.88369,11.50628c-1.23033,5.572 -3.04971,11.58341 -9.00438,29.75208c-3.62767,11.06867 -5.09743,15.99012 -4.95043,16.57579c0.25167,1.003 -0.26662,2.6044 -1.35662,4.1894c-0.87767,1.276 -2.79946,8.3197 -3.65879,13.3857c-0.94633,5.57967 -1.26232,11.69531 -1.07799,20.99464c0.23533,11.84767 0.24165,10.29076 -0.09368,24.15643c-0.26967,11.13667 -0.7175,17.28357 -1.71317,23.51657c-0.325,2.03467 -0.16432,3.4318 0.39001,3.4318c0.153,0 1.74822,0.23002 1.87055,0.03269c0.122,-0.19733 3.28832,-2.9951 7.13432,-6.29277c19.58067,-16.78867 27.21857,-21.70459 39.1689,-25.17026c6.77333,-1.96433 16.53282,-3.8574 27.34615,-5.33473c9.898,-1.35233 39.9378,-1.21726 49.79113,0.22374c6.869,1.00467 11.67481,2.72945 13.78714,4.90878c0.92467,0.954 0.66321,0.75284 0.77688,2.37684c0.112,1.603 0.08629,1.6571 -0.56404,2.60543c-0.429,0.62467 -0.56564,0.97948 -1.08297,1.36315c-1.38233,1.025 -4.71877,0.93256 -8.7861,-0.22411c-14.532,-4.13267 -52.65789,-2.94027 -73.64789,2.2924c-12.289,3.06333 -20.44848,7.64629 -34.99148,19.80962c-2.59033,2.16633 -6.94104,5.79494 -9.57571,7.99861c-8.22533,6.87933 -13.46818,10.84937 -14.33185,10.84937c-0.28133,0 -0.4104,1.66089 -0.24173,2.79089c0.54767,3.67267 1.47603,4.47928 9.40636,8.77061c21.761,11.77467 45.08141,19.71821 54.80841,18.76888c15.91967,-1.554 48.79288,-13.0706 87.57788,-30.72793c16.092,-7.32633 25.39337,-12.21838 34.34437,-18.07705c2.06267,-1.35 3.84007,-4.09602 3.84007,-4.35269c0,-0.60733 -3.82326,-1.27556 -10.05026,-1.63289c-7.289,-0.41867 -8.58376,-1.12239 -8.28176,-5.22372c0.188,-2.554 0.3175,-2.29257 3.22717,-3.73024c4.03567,-1.99467 6.60648,-1.93671 17.55815,0.27062c5.62967,1.13467 5.75838,-0.25142 5.75838,-0.71975c0,-0.473 -4.07415,-4.89692 -15.75648,-17.05792c-15.13033,-15.75033 -24.12109,-25.39417 -41.02809,-44.00717c-8.131,-8.952 -15.1339,-16.43353 -25.27957,-27.00853c-12.08567,-12.59733 -19.46846,-20.75187 -32.98779,-36.4362l-4.88486,-5.65222l-1.98705,0.01505c-1.01567,0.15233 -1.51147,0.15818 -2.5348,-0.23282c-1.45467,-0.55567 -3.30809,-2.33194 -3.30809,-3.14561c0,-0.23133 -0.42735,-0.74533 -1.15902,-1.45966c-1.51633,-1.481 -1.88532,-2.77099 -1.30699,-4.52332c0.353,-1.069 0.1129,-1.64635 -0.6441,-2.63468c-1.658,-2.16367 -8.3624,-8.09845 -9.3224,-8.26078c-0.577,-0.09767 -2.83351,0.22878 -4.68151,0.90811z" data-paper-data="{&quot;wickUUID&quot;:&quot;b7d6f598-08ee-44b9-b115-65aff213b93d&quot;,&quot;wickType&quot;:&quot;path&quot;}" fill="#8000ff"/><path d="M114.28305,241.5564c-14.055,4.499 -24.323,13.132 -30.539,25.677c-2.052,4.14 -4.07,9.346 -4.485,11.568c-0.416,2.223 -1.09,5.753 -1.499,7.845c-0.409,2.093 -3.835,12.815 -7.613,23.827c-11.013,32.093 -11.622,35.745 -11.441,68.595c0.129,23.486 -0.014,25.937 -2.262,38.939c-2.581,14.929 -2.854,23.338 -0.906,28c1.01,2.416 3.082,3.942 11.73,8.636c24.03,13.045 45.761,20.774 58.677,20.871c17.432,0.131 51.905,-12.149 111.891,-39.859c9.753,-4.506 27.65,-16.648 31.947,-21.675c2.023,-2.366 4.56,-6.069 5.638,-8.229c1.775,-3.552 1.835,-4.115 0.632,-5.906c-0.731,-1.088 -10.133,-11.049 -20.892,-22.135c-10.759,-11.085 -26.794,-28.205 -35.633,-38.043c-8.838,-9.837 -22.76,-24.734 -30.937,-33.104c-8.177,-8.369 -22.251,-23.877 -31.276,-34.462c-15.567,-18.259 -25.85,-28.881 -30.192,-31.187c-2.709,-1.438 -7.011,-1.223 -12.84,0.642zM130.15205,258.0024c4.009,4.062 13.447,14.636 20.973,23.497c7.526,8.862 20.175,22.759 28.109,30.882c7.934,8.124 21.836,23.028 30.893,33.12c9.057,10.093 24.837,26.977 35.068,37.521c10.23,10.544 18.6,19.545 18.6,20.002c0,4.225 -16.708,15.985 -35.357,24.886c-45.291,21.617 -87.136,36.643 -102.042,36.643c-10.528,0 -30.123,-6.902 -51.151,-18.017c-9.294,-4.913 -10.012,-5.485 -10.561,-8.412c-0.324,-1.727 -0.361,-3.51 -0.082,-3.961c0.279,-0.451 1.5,-7.594 2.714,-15.873c1.995,-13.599 2.188,-17.475 2.001,-40.117c-0.25,-30.161 -0.19,-30.518 10.555,-63.106c7.188,-21.8 8.468,-26.108 10.29,-34.642c2.11,-9.883 9.852,-20.101 18.776,-24.781c4.619,-2.422 10.927,-4.831 13.004,-4.967c0.507,-0.033 4.201,3.264 8.21,7.325z" data-paper-data="{&quot;wickUUID&quot;:&quot;df9eb2cb-ef40-41f7-aaea-40f4d96d6977&quot;,&quot;wickType&quot;:&quot;path&quot;,&quot;originalStyle&quot;:{&quot;strokeColor&quot;:null,&quot;fillColor&quot;:[&quot;Color&quot;,0,0,0],&quot;strokeWidth&quot;:1}}" fill="#000000"/><path d="M79.84659,272.06289c-0.985,0.404 -5.819,2.29 -10.742,4.191c-7.379,2.849 -9.701,4.23 -13.221,7.867c-6.248,6.453 -10.173,12.827 -15.406,25.02c-6.669,15.54 -7.072,17.524 -7.207,35.466c-0.097,13.037 -0.379,16.153 -1.679,18.58c-2.398,4.474 -2.22,11.544 0.41,16.35c1.74,3.18 3.302,4.554 7.564,6.654c3.375,1.664 6.821,2.662 9.273,2.686c3.359,0.033 4.253,-0.382 6.419,-2.976c2.979,-3.569 5.79,-13.132 5.103,-17.364c-1.293,-7.969 -6.427,-13.851 -13.02,-14.919l-3.299,-0.534l-0.269,-8.491c-0.147,-4.669 0.184,-11.108 0.737,-14.308c1.111,-6.435 8.406,-24.238 12.408,-30.281c3.101,-4.683 9.755,-11.791 11.037,-11.791c0.51,0 3.192,-0.96 5.961,-2.135c2.77,-1.174 6.848,-2.656 9.064,-3.292c5.176,-1.486 7.161,-3.207 7.161,-6.209c0,-4.434 -5.074,-6.659 -10.294,-4.514z" data-paper-data="{&quot;wickUUID&quot;:&quot;275d5289-c8a0-4b1d-ae98-d4f4bd2c375b&quot;,&quot;wickType&quot;:&quot;path&quot;,&quot;originalStyle&quot;:{&quot;strokeColor&quot;:null,&quot;fillColor&quot;:[&quot;Color&quot;,0,0,0],&quot;strokeWidth&quot;:1}}" fill="#000000"/><path d="M174.5769,251.89481c-6.714,3.127 -8.039,6.838 -5.257,14.723c0.716,2.031 1.127,3.693 0.914,3.693c-1.621,0 -15.393,-5.244 -22.142,-8.431c-11.166,-5.273 -11.589,-5.366 -14.397,-3.156c-2.74,2.155 -3.089,5.304 -0.812,7.338c3.082,2.753 18.5,9.644 30.515,13.639c6.725,2.236 17.464,5.864 23.864,8.064c12.627,4.339 15.173,4.721 18.049,2.707c4.38,-3.068 3.404,-8.031 -2.906,-14.777c-2.624,-2.805 -4.413,-5.686 -4.913,-7.912c-1.979,-8.804 -10.197,-18.074 -16.004,-18.051c-1.255,0.005 -4.365,0.978 -6.911,2.163z" data-paper-data="{&quot;wickUUID&quot;:&quot;b0b83caa-bae5-4e05-a553-7c4f89df2fbd&quot;,&quot;wickType&quot;:&quot;path&quot;,&quot;originalStyle&quot;:{&quot;strokeColor&quot;:null,&quot;fillColor&quot;:[&quot;Color&quot;,0,0,0],&quot;strokeWidth&quot;:1}}" fill="#000000"/><path d="M59.25887,153.07683c-4.892,0.993 -15.606,5.461 -21.756,9.073c-2.795,1.641 -8.307,6.278 -12.251,10.304c-6.888,7.033 -7.371,7.807 -12.29,19.693c-8.781,21.214 -10.248,29.768 -7.415,43.235c2.433,11.569 8.649,23.709 19.249,37.596c12.314,16.133 20.455,22.358 32.247,24.655c6.885,1.342 8.372,1.359 15.217,0.173c10.056,-1.742 14.08,-3.482 14.814,-6.407c0.754,-3.003 -1.665,-6.77 -4.339,-6.755c-1.096,0.005 -4.209,0.607 -6.917,1.337c-8.687,2.34 -17.879,1.786 -24.352,-1.467c-8.58,-4.312 -25.666,-26.096 -32.332,-41.22c-6.455,-14.645 -5.763,-24.623 3.179,-45.883c6.871,-16.337 14.056,-23.601 30.358,-30.693c7.171,-3.12 7.911,-3.256 17.777,-3.26c11.901,-0.005 18.533,1.473 28.468,6.341c7.87,3.857 12.194,7.647 27.141,23.789c11.806,12.751 13.901,16.019 17.849,27.843l2.061,6.17l-1.981,11.981c-2.112,12.771 -3.546,16.898 -7.502,21.585c-2.873,3.403 -3.174,6.45 -0.845,8.558c4.066,3.679 9.472,0.668 13.646,-7.601c2.922,-5.788 7.078,-25.418 7.078,-33.437c0.001,-5.099 -4.622,-19.444 -8.275,-25.677c-2.725,-4.65 -16.876,-20.649 -26.603,-30.076c-10.708,-10.377 -21.944,-16.265 -36.957,-19.366c-7.194,-1.486 -19.218,-1.72 -25.269,-0.491z" data-paper-data="{&quot;wickUUID&quot;:&quot;80c0af2c-c2a8-4da7-b65b-ed2f589fcefc&quot;,&quot;wickType&quot;:&quot;path&quot;,&quot;originalStyle&quot;:{&quot;strokeColor&quot;:null,&quot;fillColor&quot;:[&quot;Color&quot;,0,0,0],&quot;strokeWidth&quot;:1}}" fill="#000000"/><path d="M8.23571,229.89874c-7.522,4.631 -17.263,15.815 -23.501,26.985c-5.889,10.546 -17.88,41.421 -20.858,53.708c-4.938,20.371 -3.934,28.826 5.954,50.127c6.099,13.14 5.847,12.796 10.679,14.613c4.709,1.772 8.93,3.45 20.565,8.177c14.953,6.075 21.916,8.539 24.124,8.539c3.252,0 5.863,-2.965 5.863,-6.66c0,-3.687 -3.545,-13.863 -7.749,-22.241c-4.787,-9.541 -10.835,-26.634 -12.313,-34.805c-4.858,-26.839 -3.197,-47.278 5.364,-66.005c2.83,-6.192 3.18,-7.614 2.331,-9.477c-1.291,-2.834 -4.899,-3.76 -7.644,-1.961c-2.324,1.523 -7.807,13.467 -9.939,21.652c-0.736,2.827 -1.96,9.327 -2.72,14.444c-1.241,8.359 -1.243,10.869 -0.021,24.73c0.748,8.485 1.975,18.223 2.726,21.642c1.821,8.285 8.328,26.051 12.87,35.138c4.252,8.506 4.457,9.586 1.654,8.72c-4.232,-1.306 -13.035,-4.794 -19.916,-7.891c-3.939,-1.772 -8.064,-3.227 -9.167,-3.233c-1.621,-0.009 -2.756,-1.511 -5.928,-7.844c-9.971,-19.904 -10.926,-27.03 -6.166,-46.027c2.914,-11.626 13.666,-38.992 19.613,-49.912c4.203,-7.72 10.246,-15.44 15.289,-19.53c8.987,-7.29 9.993,-9.264 6.499,-12.758c-2.223,-2.222 -4.156,-2.256 -7.609,-0.131z" data-paper-data="{&quot;wickUUID&quot;:&quot;4490f9c3-8349-469a-9c97-8e22cb13fdd0&quot;,&quot;wickType&quot;:&quot;path&quot;,&quot;originalStyle&quot;:{&quot;strokeColor&quot;:null,&quot;fillColor&quot;:[&quot;Color&quot;,0,0,0],&quot;strokeWidth&quot;:1}}" fill="#000000"/><path d="M10.53851,248.76343c-3.51,3.51 -3.529,15.556 -0.067,42.614c3.337,26.073 10.601,46.525 26.21,73.788c2.969,5.185 6.847,11.091 8.617,13.124c1.77,2.033 4.094,4.752 5.165,6.042c2.392,2.883 5.174,2.998 12.524,0.516c6.093,-2.058 8.047,-4.564 6.576,-8.435c-1.069,-2.811 -4.513,-3.706 -9.04,-2.349c-3.418,1.024 -3.561,0.974 -6.409,-2.221c-1.602,-1.798 -5.063,-6.949 -7.691,-11.448c-19.336,-33.096 -26.872,-59.648 -27.453,-96.73c-0.197,-12.573 -0.415,-14.395 -1.846,-15.441c-2.276,-1.664 -4.57,-1.476 -6.586,0.54z" data-paper-data="{&quot;wickUUID&quot;:&quot;97ca1404-78a5-4d91-8979-a6f6e9a847d2&quot;,&quot;wickType&quot;:&quot;path&quot;,&quot;originalStyle&quot;:{&quot;strokeColor&quot;:null,&quot;fillColor&quot;:[&quot;Color&quot;,0,0,0],&quot;strokeWidth&quot;:1}}" fill="#000000"/><path d="M60.31969,293.39972c-1.199,1.326 -1.648,4.106 -2.066,12.799l-0.534,11.106l4.35,8.464c2.392,4.655 4.992,8.843 5.778,9.307c2.236,1.32 6.127,-0.115 7.302,-2.693c0.944,-2.073 0.632,-3.132 -2.859,-9.707l-3.92,-7.38l0.566,-9.289c0.666,-10.95 -0.166,-13.618 -4.374,-14.033c-1.78,-0.175 -3.237,0.315 -4.243,1.426z" data-paper-data="{&quot;wickUUID&quot;:&quot;8b047a4b-24d6-4b3e-8109-61c20d6eded0&quot;,&quot;wickType&quot;:&quot;path&quot;,&quot;originalStyle&quot;:{&quot;strokeColor&quot;:null,&quot;fillColor&quot;:[&quot;Color&quot;,0,0,0],&quot;strokeWidth&quot;:1}}" fill="#000000"/><path d="M81.92091,455.64019c-0.829,0.483 -2.085,1.982 -2.792,3.33c-0.707,1.348 -9.596,16.672 -19.753,34.055c-10.157,17.382 -18.468,31.783 -18.468,32.001c0,0.218 2.722,0.396 6.048,0.396h6.048l11.575,-19.916c6.366,-10.955 14.534,-24.873 18.152,-30.93c7.624,-12.764 8.422,-15.276 5.712,-17.986c-2.034,-2.033 -4.139,-2.34 -6.522,-0.95z" data-paper-data="{&quot;wickUUID&quot;:&quot;d4985bf1-194e-494b-8135-7aed387fa0d8&quot;,&quot;wickType&quot;:&quot;path&quot;,&quot;originalStyle&quot;:{&quot;strokeColor&quot;:null,&quot;fillColor&quot;:[&quot;Color&quot;,0,0,0],&quot;strokeWidth&quot;:1}}" fill="#000000"/><path d="M238.73191,400.77724c-2.302,1.15 -3.21,2.239 -3.424,4.106c-0.485,4.237 1.828,5.859 8.208,5.754c3.423,-0.056 11.952,1.309 22.517,3.603c16.257,3.53 38.598,9.394 39.596,10.392c0.26,0.26 -2.341,4.817 -5.779,10.127c-10.08,15.565 -13.256,21.361 -22.778,41.556c-13.801,29.271 -14.802,32.237 -11.87,35.169c1.722,1.721 6.069,1.841 7.428,0.205c0.548,-0.661 2.17,-3.985 3.604,-7.385c5.801,-13.76 19.804,-42.667 24.288,-50.141c6.571,-10.951 16.434,-25.637 18.203,-27.105c2.004,-1.663 1.923,-7.462 -0.13,-9.32c-3.597,-3.256 -64.473,-18.532 -73.832,-18.528c-1.594,0.001 -4.308,0.706 -6.031,1.567z" data-paper-data="{&quot;wickUUID&quot;:&quot;8f4b2503-076d-48f7-b45e-9518f429e63b&quot;,&quot;wickType&quot;:&quot;path&quot;,&quot;originalStyle&quot;:{&quot;strokeColor&quot;:null,&quot;fillColor&quot;:[&quot;Color&quot;,0,0,0],&quot;strokeWidth&quot;:1}}" fill="#000000"/><path d="M147.87595,381.44654c-5.415,0.481 -15.486,2.037 -22.378,3.458c-18.995,3.914 -25.971,7.742 -47.201,25.901c-16.253,13.902 -18.591,16.32 -18.591,19.227c0,1.925 3.218,4.982 5.245,4.982c0.916,0 9.208,-6.459 18.428,-14.352c19.823,-16.973 27.297,-21.317 42.566,-24.747c22.645,-5.087 61.149,-5.604 73.607,-0.989c5.034,1.864 9.528,-1.428 8.351,-6.117c-0.686,-2.736 -5.978,-5.203 -13.928,-6.495c-8.517,-1.384 -34.737,-1.878 -46.099,-0.868z" data-paper-data="{&quot;wickUUID&quot;:&quot;feb1c809-1c18-46d8-955b-83e8252d4d4f&quot;,&quot;wickType&quot;:&quot;path&quot;,&quot;originalStyle&quot;:{&quot;strokeColor&quot;:null,&quot;fillColor&quot;:[&quot;Color&quot;,0,0,0],&quot;strokeWidth&quot;:1}}" fill="#000000"/><path d="M66.41987,181.15481c-8.201,2.593 -16.366,8.138 -19.07,12.948c-2.635,4.689 -9.127,25.524 -9.127,29.293c0,5.312 2.9,9.703 7.784,11.788c5.133,2.191 20.406,6.143 26.678,6.904c13.794,1.672 19.728,1.971 31.068,1.563c11.396,-0.41 12.762,-0.638 14.908,-2.483c2.012,-1.73 2.358,-2.738 2.335,-6.808c-0.039,-7.239 -5.503,-30.685 -8.547,-36.676c-3.114,-6.131 -10.881,-10.889 -24.734,-15.153c-9.192,-2.83 -15.425,-3.233 -21.295,-1.376zM85.61987,193.35881c4.806,1.494 10.585,3.886 12.842,5.317c3.717,2.358 4.27,3.175 5.887,8.698c2.264,7.734 5.801,24.428 5.286,24.943c-0.876,0.876 -24.915,0.538 -31.579,-0.444c-8.644,-1.274 -22.183,-4.354 -26.182,-5.957c-1.789,-0.716 -2.903,-1.786 -2.893,-2.777c0.019,-1.861 5.788,-20.416 7.188,-23.119c1.856,-3.582 12.774,-9.179 18.167,-9.312c1.4,-0.035 6.478,1.158 11.284,2.651z" data-paper-data="{&quot;wickUUID&quot;:&quot;2e3d7757-1495-433d-9dee-c28000fe172d&quot;,&quot;wickType&quot;:&quot;path&quot;,&quot;originalStyle&quot;:{&quot;strokeColor&quot;:null,&quot;fillColor&quot;:[&quot;Color&quot;,0,0,0],&quot;strokeWidth&quot;:1}}" fill="#000000"/><path d="M71.09487,199.81925c-0.816,0.616 -2.062,2.529 -2.767,4.252c-1.711,4.178 -5.937,23.208 -5.937,26.738c0,3.196 2.682,6.382 5.371,6.382c2.604,0 5.371,-3.179 5.371,-6.171c0,-1.424 1.25,-7.365 2.779,-13.203c3.954,-15.103 3.951,-15.072 1.785,-17.238c-2.131,-2.132 -4.43,-2.396 -6.602,-0.76z" data-paper-data="{&quot;wickUUID&quot;:&quot;89060138-7da4-45e1-bc33-732d42cb0e8f&quot;,&quot;wickType&quot;:&quot;path&quot;,&quot;originalStyle&quot;:{&quot;strokeColor&quot;:null,&quot;fillColor&quot;:[&quot;Color&quot;,0,0,0],&quot;strokeWidth&quot;:1}}" fill="#000000"/><path d="M91.16736,210.88225c-2.027,1.42 -2.048,1.61 -1.459,13.651c0.522,10.701 0.82,12.404 2.404,13.777c2.375,2.059 4.774,1.982 6.979,-0.224c1.499,-1.499 1.778,-2.921 1.715,-8.728c-0.12,-10.999 -1.151,-17.29 -3.065,-18.689c-2.201,-1.61 -4.057,-1.55 -6.574,0.213z" data-paper-data="{&quot;wickUUID&quot;:&quot;e4ea8b3d-3b83-43b3-9ac6-11122443d63b&quot;,&quot;wickType&quot;:&quot;path&quot;,&quot;originalStyle&quot;:{&quot;strokeColor&quot;:null,&quot;fillColor&quot;:[&quot;Color&quot;,0,0,0],&quot;strokeWidth&quot;:1}}" fill="#000000"/></g><g fill="none" fill-rule="nonzero" stroke="none" stroke-width="1" stroke-linecap="butt" stroke-linejoin="miter" stroke-miterlimit="10" stroke-dasharray="" stroke-dashoffset="0" font-family="sans-serif" font-weight="normal" font-size="12" text-anchor="start" style="mix-blend-mode: normal"/><g id="wick_project_gui" fill="none" fill-rule="nonzero" stroke="none" stroke-width="1" stroke-linecap="butt" stroke-linejoin="miter" stroke-miterlimit="10" stroke-dasharray="" stroke-dashoffset="0" font-family="sans-serif" font-weight="normal" font-size="12" text-anchor="start" style="mix-blend-mode: normal"/></g></svg>