<svg version="1.1" xmlns="http://www.w3.org/2000/svg" xmlns:xlink="http://www.w3.org/1999/xlink" width="1260" height="594" viewBox="0,0,1260,594"><g transform="translate(259.74321,92.84357) scale(0.66226,0.66226)"><g id="wick_project_bg" fill-opacity="0" fill="#ffffff" fill-rule="nonzero" stroke="none" stroke-width="1" stroke-linecap="butt" stroke-linejoin="miter" stroke-miterlimit="10" stroke-dasharray="" stroke-dashoffset="0" font-family="none" font-weight="none" font-size="none" text-anchor="none" style="mix-blend-mode: normal"><rect x="0" y="0" width="720" height="480"/></g><g data-paper-data="{&quot;wickUUID&quot;:&quot;49837414-eb9c-48ba-9495-54868c513a4b&quot;,&quot;wickType&quot;:&quot;clipsandpaths&quot;}" fill="#800040" fill-rule="evenodd" stroke="none" stroke-width="1" stroke-linecap="butt" stroke-linejoin="miter" stroke-miterlimit="10" stroke-dasharray="" stroke-dashoffset="0" font-family="none" font-weight="none" font-size="none" text-anchor="none" style="mix-blend-mode: normal"><path d="M619.30273,332.43162c-2.879,3.469 -7.112,19.356 -14.265,53.544c-2.65,12.662 -7.149,32.017 -9.998,43.01c-2.85,10.994 -5.181,21.267 -5.181,22.831c0,3.522 1.744,6.924 4.605,8.984c4.599,3.312 16.944,10.696 20.051,11.994c6.725,2.81 17.7,3.92 34.995,3.538c15.26,-0.337 17.763,-0.645 21.524,-2.647c5.607,-2.986 7.116,-4.934 6.31,-8.146c-0.929,-3.703 -4.435,-4.193 -11.929,-1.669c-11.278,3.8 -39.385,2.533 -48.672,-2.194c-3.215,-1.636 -14.769,-8.635 -16.253,-9.845c-0.196,-0.16 1.812,-8.337 4.464,-18.17c2.652,-9.832 7.143,-28.823 9.98,-42.201c6.472,-30.519 7.72,-35.822 10.999,-46.745c2.42,-8.063 2.51,-9.026 1.053,-11.25c-1.767,-2.696 -5.847,-3.246 -7.683,-1.034z" data-paper-data="{&quot;wickUUID&quot;:&quot;fb6a9d02-de53-4bdf-9744-55ecec597aa0&quot;,&quot;wickType&quot;:&quot;path&quot;,&quot;originalStyle&quot;:{&quot;strokeColor&quot;:null,&quot;fillColor&quot;:[&quot;Color&quot;,0.50196,0,0.25098],&quot;strokeWidth&quot;:1}}"/><path d="M628.279,301.99266c-0.983,0.736 -2.904,5.787 -4.393,11.553c-1.456,5.634 -4.117,13.748 -5.914,18.029c-3.122,7.438 -3.191,7.902 -1.539,10.424c3.449,5.263 7.133,2.95 11.685,-7.338c3.286,-7.425 8.711,-27.56 8.028,-29.79c-0.574,-1.872 -3.311,-4.186 -4.95,-4.186c-0.643,0 -1.956,0.588 -2.917,1.308z" data-paper-data="{&quot;wickUUID&quot;:&quot;a253bd26-a45d-43d9-9c7f-648ae36d742e&quot;,&quot;wickType&quot;:&quot;path&quot;,&quot;originalStyle&quot;:{&quot;strokeColor&quot;:null,&quot;fillColor&quot;:[&quot;Color&quot;,0.50196,0,0.25098],&quot;strokeWidth&quot;:1}}"/><path d="M700.78884,148.42533c-13.904,3.392 -31.365,12.571 -48.383,25.434c-21.371,16.153 -28.797,25.18 -39.332,47.813c-6.671,14.332 -7.844,19.657 -7.953,36.105c-0.084,12.543 0.052,13.406 3.32,20.972c5.978,13.844 16.26,21.682 36.36,27.718c5.18,1.556 13.78,4.188 19.111,5.849c7.411,2.308 11.741,3.019 18.392,3.019c10.238,0 25.274,-2.395 36.276,-5.778c4.317,-1.328 9.464,-2.746 11.439,-3.152c3.836,-0.788 18.219,-10.115 23.945,-15.528c3.877,-3.665 12.445,-16.757 15.156,-23.158c7.338,-17.331 7.8,-51.571 0.945,-70.065c-5.751,-15.514 -23.365,-36.523 -37.309,-44.502c-5.678,-3.248 -17.147,-6.331 -23.071,-6.201c-1.727,0.038 -5.73,0.701 -8.896,1.474zM720.89484,159.78433c13.761,4.142 33.173,25.219 39.132,42.489c2.991,8.668 5.068,26.495 4.189,35.955c-1.641,17.648 -4.39,25.94 -12.556,37.863l-4.301,6.279l-0.597,-6.803c-0.725,-8.252 -3.119,-13.562 -8.076,-17.915c-8.922,-7.833 -14.1,-7.907 -35.014,-0.502c-8.78,3.109 -22.086,7.579 -29.569,9.932c-7.482,2.354 -16.076,5.706 -19.097,7.449c-6.372,3.678 -10.662,9.519 -11.482,15.639c-0.663,4.94 -0.967,4.939 -10.88,-0.032c-6.893,-3.457 -10.75,-7.677 -14.273,-15.617c-3.308,-7.454 -3.905,-13.915 -2.416,-26.163c1.027,-8.454 2.079,-11.822 7.024,-22.5c3.198,-6.907 7.842,-15.406 10.319,-18.887c12.084,-16.98 41.48,-38.067 64.352,-46.162c7.785,-2.755 16.255,-3.128 23.245,-1.025zM728.72684,264.01033c5.354,3.265 6.971,6.633 6.855,14.282c-0.111,7.34 -2.757,14.329 -5.624,14.857c-1.045,0.192 -3.209,-1.737 -5.597,-4.989c-2.141,-2.917 -4.832,-5.806 -5.981,-6.42c-3.136,-1.679 -6.702,-0.302 -8.127,3.138c-1.404,3.389 -0.658,5.607 2.998,8.916c4.339,3.927 2.94,4.797 -7.715,4.797c-8.834,0 -10.027,-0.227 -11.026,-2.093c-0.616,-1.151 -1.81,-2.093 -2.653,-2.093c-1.089,0 -1.533,-1.205 -1.533,-4.162c0,-3.285 -0.551,-4.524 -2.616,-5.876c-2.406,-1.577 -2.823,-1.579 -5.18,-0.035c-2.15,1.409 -2.615,2.653 -2.878,7.708l-0.314,6.028l-9.419,0.307c-11.839,0.387 -13.554,-0.06 -15.166,-3.951c-2.78,-6.712 2.987,-10.76 25.437,-17.852c8.741,-2.762 21.779,-7.155 28.974,-9.762c7.194,-2.608 13.787,-4.764 14.651,-4.791c0.863,-0.026 3.075,0.869 4.914,1.991z" data-paper-data="{&quot;wickUUID&quot;:&quot;140c3b1f-c9c0-4aab-a472-821fb2e6af80&quot;,&quot;wickType&quot;:&quot;path&quot;,&quot;originalStyle&quot;:{&quot;strokeColor&quot;:null,&quot;fillColor&quot;:[&quot;Color&quot;,0.50196,0,0.25098],&quot;strokeWidth&quot;:1}}"/><path d="M698.19999,189.04294c-1.682,2.566 -2.815,8.102 -4.657,22.742c-1.593,12.666 -1.445,16.077 0.788,18.097c4.692,4.246 9.59,0.958 9.614,-6.453c0.008,-2.693 0.95,-10.039 2.093,-16.324c2.584,-14.216 2.583,-15.799 -0.016,-18.398c-2.78,-2.78 -5.868,-2.647 -7.822,0.336z" data-paper-data="{&quot;wickUUID&quot;:&quot;441ac98c-b1c6-4b91-9513-b16647130cfd&quot;,&quot;wickType&quot;:&quot;path&quot;,&quot;originalStyle&quot;:{&quot;strokeColor&quot;:null,&quot;fillColor&quot;:[&quot;Color&quot;,0.50196,0,0.25098],&quot;strokeWidth&quot;:1}}"/><path d="M658.56764,202.13261c-2.458,2.716 -2.54,26.816 -0.103,30.295c1.907,2.722 4.87,3.003 7.192,0.682c1.335,-1.336 1.644,-4.346 1.644,-16.012c0,-9.779 -0.401,-14.768 -1.256,-15.623c-1.849,-1.85 -5.499,-1.528 -7.477,0.658z" data-paper-data="{&quot;wickUUID&quot;:&quot;1afee234-6206-4f3d-9abd-c0891d2e0d66&quot;,&quot;wickType&quot;:&quot;path&quot;,&quot;originalStyle&quot;:{&quot;strokeColor&quot;:null,&quot;fillColor&quot;:[&quot;Color&quot;,0.50196,0,0.25098],&quot;strokeWidth&quot;:1}}"/><path d="M752.06864,111.87073c-39.495,3.016 -66.609,6.981 -74.189,10.848c-2.348,1.198 -5.03,3.339 -5.96,4.758c-2.159,3.295 -4.602,19.476 -4.611,30.545c-0.008,9.273 1.212,11.848 5.613,11.848c3.859,0 4.844,-2.017 4.844,-9.917c0,-12.789 1.891,-24.917 4.186,-26.853c5.342,-4.505 58.295,-10.589 104.749,-12.036l22.598,-0.704l0.673,2.517c0.37,1.384 0.689,5.342 0.709,8.795c0.02,3.454 0.719,12.872 1.553,20.93c0.835,8.059 1.531,17.302 1.548,20.54l0.031,5.889l-4.971,2.128c-2.734,1.171 -12.976,4.111 -22.761,6.534c-9.785,2.422 -18.497,4.749 -19.361,5.169c-1.971,0.961 -2.638,5.963 -1.05,7.876c0.657,0.792 2.565,1.74 4.24,2.108c1.715,0.377 6.564,3.948 11.106,8.178c7.937,7.393 24.425,26.378 24.425,28.123c0,0.927 -14.732,27.028 -20.028,35.485l-3.019,4.819l-13.962,0.724c-16.621,0.862 -19.253,1.463 -21.893,4.999c-1.626,2.178 -1.784,3.112 -0.826,4.902c1.46,2.728 5.049,3.728 8.573,2.388c1.463,-0.556 9.215,-1.339 17.227,-1.74c9.269,-0.464 15.388,-1.244 16.822,-2.145c2.384,-1.498 7.585,-9.612 17.727,-27.657c3.395,-6.041 7.47,-12.461 9.055,-14.266c1.713,-1.951 2.882,-4.501 2.882,-6.285c0,-3.821 -9.88,-17.143 -22.982,-30.987l-9.562,-10.103l4.499,-1.161c22.013,-5.677 29.68,-8.739 33.252,-13.281c2.647,-3.365 2.648,-5.511 0.015,-33.244c-1.145,-12.065 -2.082,-25.155 -2.082,-29.088c0,-6.197 -0.343,-7.494 -2.569,-9.72l-2.568,-2.568l-22.81,0.126c-12.545,0.07 -31.05,0.757 -41.123,1.526z" data-paper-data="{&quot;wickUUID&quot;:&quot;c4df62bd-0b69-42e4-be24-6a36a0172f03&quot;,&quot;wickType&quot;:&quot;path&quot;,&quot;originalStyle&quot;:{&quot;strokeColor&quot;:null,&quot;fillColor&quot;:[&quot;Color&quot;,0.50196,0,0.25098],&quot;strokeWidth&quot;:1}}"/><path d="M722.50445,302.8614c-2.365,1.377 -2.294,4.111 0.326,12.47c2.476,7.9 10.518,50.55 14.109,74.83c2.747,18.571 7.806,60.327 7.8,64.38c-0.004,2.438 -0.66,2.745 -10.727,5.014c-33.999,7.665 -50.75,9.206 -72.836,6.7c-13.176,-1.495 -14.806,-1.058 -14.806,3.964c0,1.586 0.713,3.475 1.585,4.199c1.837,1.525 12.907,2.967 29.287,3.815c13.147,0.681 32.477,-1.819 54.942,-7.106c7.195,-1.693 14.119,-3.3 15.387,-3.57c1.268,-0.271 3.621,-1.624 5.229,-3.007c2.699,-2.322 2.909,-3.045 2.732,-9.42c-0.454,-16.339 -8.263,-73.343 -14.921,-108.923c-7.667,-40.971 -10.508,-47.772 -18.107,-43.346z" data-paper-data="{&quot;wickUUID&quot;:&quot;97732df8-fdee-42ea-bb37-5b0711f38a17&quot;,&quot;wickType&quot;:&quot;path&quot;,&quot;originalStyle&quot;:{&quot;strokeColor&quot;:null,&quot;fillColor&quot;:[&quot;Color&quot;,0.50196,0,0.25098],&quot;strokeWidth&quot;:1}}"/><path d="M725.45745,299.18963c-2.926,2.925 -1.785,5.7 5.991,14.571c14.041,16.017 38.458,52.051 44.932,66.31c1.661,3.659 2.875,6.783 2.698,6.941c-0.178,0.159 -3.748,2.003 -7.934,4.098c-5.99,2.999 -8.036,3.582 -9.611,2.739c-3.343,-1.789 -9.984,-1.264 -12.885,1.018c-2.025,1.593 -2.807,3.397 -3.288,7.588c-1.345,11.718 -1.36,11.614 1.815,13.151c3.763,1.821 7.803,0.324 13.789,-5.11c2.302,-2.09 9.049,-6.314 14.992,-9.387c12.551,-6.489 15.289,-9.259 14.444,-14.61c-1.991,-12.6 -35.018,-63.65 -53.623,-82.884c-6.078,-6.284 -8.511,-7.235 -11.32,-4.425z" data-paper-data="{&quot;wickUUID&quot;:&quot;8f69a0be-d400-4a64-891b-44074a883b6c&quot;,&quot;wickType&quot;:&quot;path&quot;,&quot;originalStyle&quot;:{&quot;strokeColor&quot;:null,&quot;fillColor&quot;:[&quot;Color&quot;,0.50196,0,0.25098],&quot;strokeWidth&quot;:1}}"/><path d="M619.6034,304.08553c-18.561,19.022 -24.132,25.416 -30.862,35.425c-6.382,9.492 -13.534,23.168 -13.534,25.881c0,1.738 15.012,30.784 18.183,35.18c1.223,1.696 3.166,4.988 4.317,7.315c3.716,7.511 12.172,9.31 13.763,2.928c0.392,-1.575 1.566,-4.746 2.609,-7.049c2.802,-6.187 2.483,-9.3 -1.278,-12.465c-3.751,-3.157 -6.797,-3.439 -9.612,-0.892c-1.912,1.731 -2.083,1.719 -3.571,-0.261c-2.012,-2.676 -12.899,-24.23 -12.899,-25.537c0,-2.072 11.069,-20.263 16.403,-26.957c3.064,-3.844 12.399,-13.95 20.746,-22.457c8.347,-8.508 15.176,-16.226 15.176,-17.152c0,-3.326 -2.124,-5.732 -5.059,-5.732c-2.308,0 -5.219,2.382 -14.382,11.773z" data-paper-data="{&quot;wickUUID&quot;:&quot;e894e96c-ca40-4575-9fac-804241124435&quot;,&quot;wickType&quot;:&quot;path&quot;,&quot;originalStyle&quot;:{&quot;strokeColor&quot;:null,&quot;fillColor&quot;:[&quot;Color&quot;,0.50196,0,0.25098],&quot;strokeWidth&quot;:1}}"/><path d="M618.92162,466.81853c-5.203,5.919 -19.156,43.068 -21.324,56.774c-0.864,5.468 -2.553,14.886 -3.751,20.93c-3.262,16.446 -3.282,16.642 -1.887,18.323c1.93,2.326 5.999,1.908 7.74,-0.794c2.113,-3.281 4.272,-12.432 6.972,-29.554c1.91,-12.109 3.47,-17.721 9.019,-32.442c3.69,-9.791 8.099,-20.266 9.799,-23.279c3.526,-6.252 3.752,-7.838 1.446,-10.145c-2.178,-2.178 -6.013,-2.088 -8.014,0.187z" data-paper-data="{&quot;wickUUID&quot;:&quot;cea2ab19-bf51-4976-8bee-d2ed334dbf7f&quot;,&quot;wickType&quot;:&quot;path&quot;,&quot;originalStyle&quot;:{&quot;strokeColor&quot;:null,&quot;fillColor&quot;:[&quot;Color&quot;,0.50196,0,0.25098],&quot;strokeWidth&quot;:1}}"/><path d="M722.50462,470.30323c-1.064,0.62 -1.832,2.313 -1.832,4.039c0,3.632 3.481,20.882 6.292,31.184c2.027,7.429 5.468,23.16 6.748,30.852c0.812,4.882 2.98,7.098 6.945,7.098c5.066,0 5.379,-2.914 2.039,-18.943c-1.608,-7.712 -3.886,-17.555 -5.063,-21.871c-1.177,-4.317 -3.175,-12.794 -4.439,-18.838c-2.883,-13.774 -5.207,-16.714 -10.69,-13.521z" data-paper-data="{&quot;wickUUID&quot;:&quot;9902b417-9629-4d8c-80e4-070670b756d4&quot;,&quot;wickType&quot;:&quot;path&quot;,&quot;originalStyle&quot;:{&quot;strokeColor&quot;:null,&quot;fillColor&quot;:[&quot;Color&quot;,0.50196,0,0.25098],&quot;strokeWidth&quot;:1}}"/></g><g fill="none" fill-rule="nonzero" stroke="none" stroke-width="1" stroke-linecap="butt" stroke-linejoin="miter" stroke-miterlimit="10" stroke-dasharray="" stroke-dashoffset="0" font-family="sans-serif" font-weight="normal" font-size="12" text-anchor="start" style="mix-blend-mode: normal"/><g id="wick_project_gui" fill="none" fill-rule="nonzero" stroke="none" stroke-width="1" stroke-linecap="butt" stroke-linejoin="miter" stroke-miterlimit="10" stroke-dasharray="" stroke-dashoffset="0" font-family="sans-serif" font-weight="normal" font-size="12" text-anchor="start" style="mix-blend-mode: normal"/></g></svg>