<svg version="1.1" xmlns="http://www.w3.org/2000/svg" xmlns:xlink="http://www.w3.org/1999/xlink" width="1260" height="594" viewBox="0,0,1260,594"><g transform="translate(259.74321,92.84357) scale(0.66226,0.66226)"><g id="wick_project_bg" fill-opacity="0" fill="#ffffff" fill-rule="nonzero" stroke="none" stroke-width="1" stroke-linecap="butt" stroke-linejoin="miter" stroke-miterlimit="10" stroke-dasharray="" stroke-dashoffset="0" font-family="none" font-weight="none" font-size="none" text-anchor="none" style="mix-blend-mode: normal"><rect x="0" y="0" width="720" height="480"/></g><g data-paper-data="{&quot;wickUUID&quot;:&quot;1a7a1d3f-e7c1-48af-b3cc-86e3a97a7f55&quot;,&quot;wickType&quot;:&quot;clipsandpaths&quot;}" fill="#800040" fill-rule="evenodd" stroke="none" stroke-width="1" stroke-linecap="butt" stroke-linejoin="miter" stroke-miterlimit="10" stroke-dasharray="" stroke-dashoffset="0" font-family="none" font-weight="none" font-size="none" text-anchor="none" style="mix-blend-mode: normal"><path d="M386.23111,75.91785c-5.654,4.549 -35.678,64.638 -52.232,104.537c-7.447,17.948 -11.98,38.504 -10.877,49.322c1.014,9.949 4.717,14.23 21.964,25.397c6.105,3.953 12.394,8.629 13.976,10.391c3.579,3.987 8.379,5.501 14.981,4.725c5.331,-0.626 11.339,-3.04 14.289,-5.74c3.321,-3.04 9.992,-13.82 11.321,-18.295c1.528,-5.148 1.654,-15.563 0.208,-17.296c-0.571,-0.684 -4.231,-3.907 -8.132,-7.161c-9.071,-7.566 -15.54,-14.411 -16.234,-17.18c-0.314,-1.25 0.2,-5.262 1.211,-9.441c0.966,-3.998 2.663,-13.253 3.772,-20.568c6.039,-39.863 9.768,-63.288 11.312,-71.071c0.952,-4.8 1.947,-12.511 2.21,-17.134c0.444,-7.82 0.354,-8.531 -1.298,-10.183c-2.139,-2.138 -4.077,-2.229 -6.471,-0.303zM380.89811,113.09785c-1.287,7.772 -3.692,22.734 -5.346,33.249c-1.653,10.515 -3.921,24.916 -5.039,32.003c-1.119,7.086 -2.594,14.929 -3.279,17.429c-1.639,5.981 -1.547,9.672 0.343,13.835c1.527,3.361 12.279,14.437 20.228,20.837c3.678,2.961 3.946,3.437 3.949,7.02c0.008,10.323 -9.898,24.003 -17.382,24.003c-0.912,0 -2.593,-0.936 -3.736,-2.078c-1.143,-1.143 -2.972,-2.079 -4.065,-2.079c-1.093,0 -2.656,-0.738 -3.473,-1.641c-0.817,-0.903 -2.277,-1.881 -3.246,-2.173c-3.444,-1.042 -22.865,-14.464 -25.025,-17.295c-2.986,-3.916 -3.488,-9.744 -1.731,-20.117c2.234,-13.192 4.256,-20.036 9.946,-33.664c10.702,-25.635 38.986,-84.86 39.978,-83.712c0.12,0.138 -0.836,6.611 -2.122,14.383z" data-paper-data="{&quot;wickUUID&quot;:&quot;c5d3a969-5305-4ff1-9dfe-15bfce7b541c&quot;,&quot;wickType&quot;:&quot;path&quot;,&quot;originalStyle&quot;:{&quot;strokeColor&quot;:null,&quot;fillColor&quot;:[&quot;Color&quot;,0.50196,0,0.25098],&quot;strokeWidth&quot;:1}}"/><path d="M512.70201,86.17595c-16.084,1.109 -23.495,2.328 -33.231,5.463c-20.561,6.623 -25.392,10.183 -42.091,31.018c-7.049,8.795 -15.151,23.213 -19.492,34.687c-2.643,6.987 -8.4,30.067 -9.116,36.552c-0.659,5.963 1.899,19.229 5.518,28.611c2.719,7.052 11.141,19.531 20.121,29.814c2.99,3.424 5.293,6.369 5.118,6.544c-0.175,0.175 -4.356,-1.192 -9.291,-3.037c-13.801,-5.161 -64.151,-18.907 -80.043,-21.853c-6.952,-1.289 -8.312,-2.03 -8.312,-4.531c0,-1.183 -1.266,-3.447 -2.999,-5.366c-3.48,-3.852 -7.971,-5.403 -13.687,-4.728c-10.502,1.239 -15.023,7.997 -10.826,16.18c2.089,4.074 4.646,6.364 9.507,8.514c3.571,1.58 4.443,1.665 8.085,0.792c2.245,-0.539 4.954,-1.666 6.02,-2.504c1.887,-1.484 2.181,-1.474 11.024,0.401c11.859,2.515 49.321,12.172 61.289,15.799c10.808,3.276 23.067,7.776 44.156,16.21c10.766,4.305 15.482,5.812 16.998,5.431c1.154,-0.29 5.817,0.126 10.362,0.925c11.886,2.088 26.864,0.839 45.188,-3.768c17.823,-4.481 34.207,-9.213 46.382,-13.395c5.487,-1.884 14.838,-4.72 20.781,-6.303c11.71,-3.117 14.319,-4.5 21.04,-11.154c11.046,-10.936 13.866,-24.594 13.81,-66.881l-0.03,-22.444l-3.136,-9.975c-6.682,-21.25 -15.488,-39.941 -20.545,-43.604c-1.715,-1.243 -8.477,-3.998 -15.025,-6.123c-9.778,-3.173 -14.731,-4.234 -27.701,-5.933c-8.686,-1.138 -20.352,-3.013 -25.923,-4.168c-5.571,-1.154 -10.995,-2.046 -12.053,-1.981c-1.058,0.065 -6.412,0.428 -11.898,0.807zM537.45501,96.43895c5.588,1.125 17.079,2.978 25.537,4.119c12.182,1.642 17.505,2.791 25.613,5.526c5.704,1.925 10.995,4.242 11.954,5.234c3.404,3.522 13.055,26.178 16.878,39.62c1.967,6.918 2.291,9.802 2.662,23.671c0.287,10.723 -0.008,21.078 -0.917,32.25c-1.17,14.39 -1.65,17.266 -3.823,22.9c-1.595,4.137 -3.528,7.455 -5.398,9.267c-1.602,1.553 -2.913,2.564 -2.913,2.246c0,-0.318 0.603,-4.039 1.341,-8.268c2.457,-14.075 0.259,-27.102 -5.944,-35.235c-2.819,-3.695 -5.658,-5.062 -13.677,-6.583c-6.018,-1.142 -7.291,-1.136 -13.104,0.056c-17.937,3.678 -27.956,7.523 -60.053,23.05c-8.915,4.313 -25.174,11.924 -36.132,16.913c-27.709,12.618 -29.655,14.748 -24.993,27.359c1.015,2.747 -16.253,-15.258 -21.923,-22.859c-7.187,-9.633 -11.268,-18.444 -13.346,-28.808c-2.119,-10.574 -2.127,-10.197 0.474,-21.797c3.355,-14.961 5.886,-23.036 10.193,-32.519c4.798,-10.563 9.346,-17.739 18.271,-28.835c7.837,-9.743 13.844,-15.393 19.314,-18.165c8.044,-4.076 23.313,-8.474 32.786,-9.443c20.952,-2.144 25.222,-2.109 37.2,0.301zM589.59201,200.24995c4.535,0.951 4.593,1.002 7.307,6.403c3.369,6.702 4.194,14.172 2.675,24.193c-1.611,10.62 -2.239,11.692 -7.893,13.474c-3.961,1.249 -4.929,1.319 -5.513,0.398c-0.389,-0.614 -0.713,-1.425 -0.72,-1.802c-0.007,-0.378 -1.529,-4.565 -3.382,-9.305c-2.507,-6.41 -4.111,-9.269 -6.263,-11.159c-3.389,-2.975 -4.727,-3.143 -6.992,-0.878c-1.18,1.179 -1.663,2.771 -1.663,5.475c0,3.477 0.221,3.896 2.504,4.758c2.611,0.986 2.813,1.386 7.494,14.901c1.066,3.08 1.778,5.727 1.581,5.884c-2.175,1.729 -33.852,11.196 -55.001,16.437c-16.198,4.014 -32.307,5.102 -43.442,2.934c-6.058,-1.18 -6.93,-1.605 -9.795,-4.783c-2.82,-3.129 -8.908,-14.374 -8.908,-16.454c0,-1.319 5.881,-4.38 25.513,-13.28c10.145,-4.6 25.856,-11.951 34.912,-16.335c24.286,-11.759 36.936,-16.947 47.636,-19.535c10.571,-2.558 13.234,-2.735 19.95,-1.326z" data-paper-data="{&quot;wickUUID&quot;:&quot;019b46d3-fed0-4d73-9565-a4f15f531e55&quot;,&quot;wickType&quot;:&quot;path&quot;,&quot;originalStyle&quot;:{&quot;strokeColor&quot;:null,&quot;fillColor&quot;:[&quot;Color&quot;,0.50196,0,0.25098],&quot;strokeWidth&quot;:1}}"/><path d="M489.0113,253.16075c-0.914,0.915 -1.662,2.04 -1.662,2.502c0,1.528 7.549,18.639 9.623,21.812c2.291,3.504 5.022,4.102 7.289,1.597c1.864,-2.06 1.732,-3.79 -0.6,-7.891c-1.086,-1.91 -3.022,-6.201 -4.301,-9.535c-2.43,-6.331 -5.213,-10.147 -7.399,-10.147c-0.708,0 -2.035,0.748 -2.95,1.662z" data-paper-data="{&quot;wickUUID&quot;:&quot;f5091130-e320-415a-bd1a-b247dc681efc&quot;,&quot;wickType&quot;:&quot;path&quot;,&quot;originalStyle&quot;:{&quot;strokeColor&quot;:null,&quot;fillColor&quot;:[&quot;Color&quot;,0.50196,0,0.25098],&quot;strokeWidth&quot;:1}}"/><path d="M446.01976,152.65802c-6.294,2.328 -10.034,18.701 -8.905,38.991c0.343,6.172 0.543,13.346 0.443,15.941c-0.219,5.763 1.157,11.289 3.421,13.733c5.838,6.303 18.947,0.801 21.843,-9.168c1.424,-4.899 4.197,-26.004 5.051,-38.429c0.51,-7.435 0.382,-8.799 -1.162,-12.288c-1.929,-4.361 -3.357,-5.21 -13.207,-7.852c-3.402,-0.912 -6.491,-1.295 -7.484,-0.928zM455.98076,163.52102c3.143,1.243 3.467,3.304 2.371,15.089c-2.239,24.049 -3.847,32.55 -6.563,34.686c-3.108,2.445 -3.961,2.041 -4.025,-1.905c-0.031,-1.943 -0.564,-9.24 -1.184,-16.216c-1.152,-12.971 -0.621,-22.343 1.724,-30.408c0.843,-2.898 1.133,-3.144 3.154,-2.673c1.225,0.286 3.26,0.928 4.523,1.427z" data-paper-data="{&quot;wickUUID&quot;:&quot;9276abc9-902b-4f44-b5f9-62f212c4a48c&quot;,&quot;wickType&quot;:&quot;path&quot;,&quot;originalStyle&quot;:{&quot;strokeColor&quot;:null,&quot;fillColor&quot;:[&quot;Color&quot;,0.50196,0,0.25098],&quot;strokeWidth&quot;:1}}"/><path d="M552.362,128.03239c-11.94,4.463 -19.489,8.787 -32.824,18.801c-15.561,11.687 -16.395,12.852 -16.395,22.879c0,6.092 0.495,9.211 2.494,15.703c2.848,9.255 2.892,9.559 1.375,9.559c-1.79,0 -3.869,2.847 -3.869,5.298c0,1.317 0.89,3.149 2.133,4.392c1.733,1.733 2.629,2.033 4.78,1.598c1.455,-0.294 5.185,-0.898 8.287,-1.341c7.247,-1.035 15.113,-4.065 37.168,-14.315c9.829,-4.568 21.799,-9.938 26.599,-11.932c4.801,-1.995 9.225,-4.287 9.833,-5.093c1.927,-2.558 0.564,-7.976 -5.028,-19.98c-12.922,-27.744 -18.228,-31.67 -34.553,-25.569zM566.629,136.19339c3.783,3.783 16.313,28.04 16.313,31.581c0,0.774 -1.266,1.708 -3.117,2.301c-1.715,0.549 -12.714,5.437 -24.442,10.86c-32.408,14.988 -38.109,16.926 -38.109,12.959c0,-1.051 -1.116,-5.446 -2.479,-9.767c-1.76,-5.577 -2.483,-9.555 -2.494,-13.714c-0.014,-5.692 0.073,-5.942 3.103,-8.839c4.667,-4.464 20.714,-16.094 26.391,-19.127c6.249,-3.338 18.496,-8.065 21.027,-8.115c1.049,-0.021 2.763,0.816 3.807,1.861z" data-paper-data="{&quot;wickUUID&quot;:&quot;202da9a4-f1e8-4ca4-a1a8-91bae0fcae39&quot;,&quot;wickType&quot;:&quot;path&quot;,&quot;originalStyle&quot;:{&quot;strokeColor&quot;:null,&quot;fillColor&quot;:[&quot;Color&quot;,0.50196,0,0.25098],&quot;strokeWidth&quot;:1}}"/><path d="M571.08763,127.5592c-17.831,9.241 -25.042,12.386 -53.813,23.472c-23.196,8.938 -25.401,9.636 -25.929,8.207c-0.777,-2.101 -3.671,-3.547 -5.766,-2.882c-1.98,0.628 -4.049,5.04 -4.049,8.635c0,3.227 2.834,5.877 6.286,5.877c2.816,0 52.206,-18.71 66.863,-25.329c9.127,-4.121 32.08,-15.819 33.873,-17.262c2.512,-2.023 -0.18,-7.283 -3.727,-7.283c-0.589,0 -6.771,2.954 -13.738,6.565z" data-paper-data="{&quot;wickUUID&quot;:&quot;fb54e445-1646-478b-8880-dfe3546210e0&quot;,&quot;wickType&quot;:&quot;path&quot;,&quot;originalStyle&quot;:{&quot;strokeColor&quot;:null,&quot;fillColor&quot;:[&quot;Color&quot;,0.50196,0,0.25098],&quot;strokeWidth&quot;:1}}"/><path d="M571.70375,-12.04574c-16.391,3.944 -41.985,11.229 -73.548,20.936c-24.231,7.452 -76.942,27.989 -78.286,30.501c-0.583,1.088 -0.551,7.707 0.1,20.983c0.523,10.667 0.901,37.228 0.84,59.027c-0.119,42.353 -0.246,41.029 3.929,41.059c2.224,0.015 4.247,-1.904 4.947,-4.692c0.429,-1.71 -0.22,-90.481 -0.781,-106.681l-0.158,-4.572l23.275,-9.348c38.755,-15.567 91.579,-31.559 141.918,-42.966c7.192,-1.63 13.59,-2.964 14.218,-2.964c0.834,0 1.419,2.412 2.168,8.936c0.565,4.915 1.931,13.799 3.035,19.742c1.104,5.944 2.165,11.745 2.358,12.892c0.4,2.376 0.841,2.103 -42.336,26.207c-31.542,17.608 -44.651,25.749 -45.648,28.347c-0.288,0.751 0.054,2.248 0.761,3.327c1.78,2.717 5.509,2.558 9.839,-0.419c7.54,-5.183 17.726,-11.204 39.204,-23.17c41.652,-23.206 45.634,-25.595 46.88,-28.117c1.024,-2.07 0.94,-3.596 -0.703,-12.787c-3.809,-21.306 -5.108,-31.248 -4.648,-35.581l0.463,-4.364l-16.424,0.05l-16.424,0.051l-14.979,3.603z" data-paper-data="{&quot;wickUUID&quot;:&quot;6531cfbc-32f8-4543-a021-d14d302e482a&quot;,&quot;wickType&quot;:&quot;path&quot;,&quot;originalStyle&quot;:{&quot;strokeColor&quot;:null,&quot;fillColor&quot;:[&quot;Color&quot;,0.50196,0,0.25098],&quot;strokeWidth&quot;:1}}"/><path d="M528.91074,83.588c-0.914,0.915 -1.662,2.224 -1.662,2.91c0,2.146 3.168,4.572 5.97,4.572c1.455,0 10.9,1.114 20.989,2.475c10.089,1.362 31.435,3.998 47.437,5.859c54.621,6.351 82.553,10.613 86.811,13.245c0.941,0.582 0.973,2.573 0.189,11.796c-2.16,25.399 -3.018,33.124 -3.678,33.124c-0.384,0 -4.887,-1.103 -10.007,-2.452c-5.12,-1.348 -11.582,-2.849 -14.359,-3.335c-7.155,-1.252 -37.044,-2.483 -38.742,-1.596c-1.69,0.883 -2.628,3.511 -1.981,5.548c0.26,0.82 2.997,2.933 6.082,4.696c14.349,8.198 14.744,8.543 15.729,13.728c0.493,2.591 4.461,12.73 8.819,22.531c6.877,15.465 13.895,33.514 13.895,35.732c0,0.391 -1.589,1.802 -3.532,3.135c-3.545,2.433 -18.568,10.955 -19.312,10.955c-0.218,0 -1.199,-1.59 -2.18,-3.533c-0.981,-1.943 -3.114,-5.358 -4.739,-7.588c-4.41,-6.054 -12.299,-9.04 -15.48,-5.86c-2.821,2.822 -0.735,7.838 3.26,7.838c2.713,0 7.518,5.841 9.678,11.765c3.592,9.851 6.245,9.993 21.499,1.152c14.006,-8.118 18.009,-10.844 19.206,-13.081c2.274,-4.249 -1.833,-17.131 -14.34,-44.972c-5.245,-11.675 -7.598,-17.948 -8.095,-21.583c-0.637,-4.66 -1.032,-5.411 -4.347,-8.269l-3.645,-3.144l3.996,-0.003c6.33,-0.003 14.943,1.517 28.988,5.116c11.669,2.99 13.277,3.224 15.353,2.228c3.238,-1.552 4.419,-4.394 4.435,-10.671c0.007,-2.971 0.55,-10.266 1.207,-16.209c0.656,-5.943 1.437,-14.078 1.736,-18.076c0.298,-3.999 0.882,-7.481 1.299,-7.738c1.401,-0.866 0.772,-4.222 -1.125,-6.004c-6.085,-5.716 -24.67,-9.032 -98.698,-17.606c-15.773,-1.827 -37.065,-4.453 -47.317,-5.834c-10.251,-1.382 -19.322,-2.513 -20.157,-2.513c-0.836,0 -2.267,0.748 -3.182,1.662z" data-paper-data="{&quot;wickUUID&quot;:&quot;ca91bf24-2afd-44f7-8e1e-3853069cc223&quot;,&quot;wickType&quot;:&quot;path&quot;,&quot;originalStyle&quot;:{&quot;strokeColor&quot;:null,&quot;fillColor&quot;:[&quot;Color&quot;,0.50196,0,0.25098],&quot;strokeWidth&quot;:1}}"/><path d="M362.6504,107.55191c-3.755,1.97 -7.995,9.567 -7.171,12.849c0.818,3.261 4.919,7.548 11.205,11.713c8.406,5.57 11.216,6.16 18.375,3.858l5.86,-1.884l7.797,1.801c4.288,0.991 9.433,2.692 11.433,3.779c7.357,4.002 15.935,7.926 17.326,7.926c2.085,0 4.358,-2.884 4.04,-5.127c-0.207,-1.464 -1.828,-2.753 -6.621,-5.264c-3.49,-1.828 -7.792,-4.122 -9.559,-5.096c-3.243,-1.787 -11.781,-4.34 -20.321,-6.074c-4.577,-0.929 -4.664,-1.002 -6.499,-5.431c-4.49,-10.832 -17.542,-17.417 -25.865,-13.05zM368.5844,117.99091c-0.994,2.075 -1.622,2.594 -2.388,1.976c-2.03,-1.639 -0.486,-4.791 2.347,-4.791c1.292,0 1.295,0.199 0.041,2.815z" data-paper-data="{&quot;wickUUID&quot;:&quot;de8b85c0-808e-4809-becc-77d2ba44325f&quot;,&quot;wickType&quot;:&quot;path&quot;,&quot;originalStyle&quot;:{&quot;strokeColor&quot;:null,&quot;fillColor&quot;:[&quot;Color&quot;,0.50196,0,0.25098],&quot;strokeWidth&quot;:1}}"/><path d="M602.47676,244.36027c-2.199,2.199 -1.853,6.566 0.625,7.881c9.751,5.173 43.019,41.128 68.732,74.283c5.403,6.967 6.601,9.116 6.601,11.847c0,8.108 -6.281,23.895 -10.644,26.754c-3.294,2.159 -30.024,11.955 -40.913,14.995c-18.04,5.036 -26.937,5.66 -39.389,2.76c-4.38,-1.02 -5.362,-1.785 -11.589,-9.032c-3.743,-4.354 -8.533,-10.482 -10.646,-13.619c-2.112,-3.136 -4.26,-5.961 -4.774,-6.279c-2.378,-1.47 -11.819,-15.589 -15.701,-23.483c-2.372,-4.822 -7.465,-14.455 -11.318,-21.408c-4.329,-7.812 -8.416,-16.787 -10.699,-23.498c-4.058,-11.925 -5.833,-14.186 -9.742,-12.405c-1.236,0.563 -2.487,1.98 -2.78,3.148c-0.869,3.463 6.263,22.782 12.775,34.602c3.271,5.937 8.662,16.072 11.981,22.524c5.587,10.859 13.929,23.458 17.449,26.352c0.817,0.673 2.847,3.368 4.509,5.99c1.663,2.622 6.04,8.435 9.727,12.918c3.687,4.483 6.703,8.537 6.703,9.008c0,1.631 13.553,5.571 23.182,6.739c10.52,1.277 32.475,-3.728 58.37,-13.305c17.674,-6.537 20.725,-8.314 24.223,-14.109c7.929,-13.139 11.79,-30.105 8.247,-36.234c-7.134,-12.338 -49.632,-61.528 -65.547,-75.869c-13.872,-12.499 -16.184,-13.758 -19.382,-10.56z" data-paper-data="{&quot;wickUUID&quot;:&quot;adb8a3e4-a85b-4868-9ef8-4e9a879a2cb8&quot;,&quot;wickType&quot;:&quot;path&quot;,&quot;originalStyle&quot;:{&quot;strokeColor&quot;:null,&quot;fillColor&quot;:[&quot;Color&quot;,0.50196,0,0.25098],&quot;strokeWidth&quot;:1}}"/><path d="M711.14738,339.16018c-36.507,7.161 -41.343,8.915 -39.613,14.367c1.138,3.584 3.514,3.84 13.099,1.412c11.544,-2.925 36.435,-7.96 36.925,-7.47c0.539,0.539 -2.536,9.636 -12.467,36.892c-6.843,18.78 -9.307,24.496 -11.4,26.442c-1.469,1.365 -2.67,3.119 -2.67,3.898c0,2.238 7.165,16.731 9.848,19.918c4.625,5.498 10.231,5.503 13.474,0.013c3.283,-5.557 1.052,-13.653 -5.299,-19.229c-1.803,-1.584 -3.279,-3.298 -3.279,-3.81c0,-0.511 3.357,-9.957 7.461,-20.992c10.698,-28.766 16.498,-45.995 16.498,-49.009c0,-5.795 -3.504,-6.173 -22.577,-2.432z" data-paper-data="{&quot;wickUUID&quot;:&quot;ca747067-a395-44ba-8e2e-d0549b57a6bd&quot;,&quot;wickType&quot;:&quot;path&quot;,&quot;originalStyle&quot;:{&quot;strokeColor&quot;:null,&quot;fillColor&quot;:[&quot;Color&quot;,0.50196,0,0.25098],&quot;strokeWidth&quot;:1}}"/><path d="M615.77269,385.74392c-1.014,1.014 -1.842,2.154 -1.841,2.534c0.002,0.38 2.266,13.546 5.031,29.258c4.87,27.667 7.793,41.476 16.581,78.327c2.297,9.629 4.178,18.247 4.182,19.15c0.009,2.409 -2.072,2.811 -6.599,1.274c-5.149,-1.748 -8.512,-1.069 -11.338,2.289c-4.167,4.953 -4.181,11.919 -0.031,16.069c1.925,1.924 3.069,2.219 8.487,2.188c5.379,-0.031 6.976,-0.459 11.33,-3.036c10.256,-6.073 10.569,-12.328 2.335,-46.689c-8.023,-33.476 -10.129,-43.523 -15.26,-72.798c-3.927,-22.404 -5.091,-27.467 -6.619,-28.796c-2.409,-2.095 -3.991,-2.037 -6.258,0.23z" data-paper-data="{&quot;wickUUID&quot;:&quot;14f25f1d-08fd-4766-b46e-4f32d54b50e6&quot;,&quot;wickType&quot;:&quot;path&quot;,&quot;originalStyle&quot;:{&quot;strokeColor&quot;:null,&quot;fillColor&quot;:[&quot;Color&quot;,0.50196,0,0.25098],&quot;strokeWidth&quot;:1}}"/><path d="M623.14465,520.28218c-1.014,1.014 -1.843,2.465 -1.843,3.225c0,1.688 3.244,5.068 4.863,5.068c2.274,0 5.273,-2.882 5.273,-5.068c0,-2.185 -2.999,-5.068 -5.273,-5.068c-0.647,0 -2.006,0.829 -3.02,1.843z" data-paper-data="{&quot;wickUUID&quot;:&quot;87143372-128e-4210-884d-720f270f6399&quot;,&quot;wickType&quot;:&quot;path&quot;,&quot;originalStyle&quot;:{&quot;strokeColor&quot;:null,&quot;fillColor&quot;:[&quot;Color&quot;,0.50196,0,0.25098],&quot;strokeWidth&quot;:1}}"/></g><g fill="none" fill-rule="nonzero" stroke="none" stroke-width="1" stroke-linecap="butt" stroke-linejoin="miter" stroke-miterlimit="10" stroke-dasharray="" stroke-dashoffset="0" font-family="sans-serif" font-weight="normal" font-size="12" text-anchor="start" style="mix-blend-mode: normal"/><g id="wick_project_gui" fill="none" fill-rule="nonzero" stroke="none" stroke-width="1" stroke-linecap="butt" stroke-linejoin="miter" stroke-miterlimit="10" stroke-dasharray="" stroke-dashoffset="0" font-family="sans-serif" font-weight="normal" font-size="12" text-anchor="start" style="mix-blend-mode: normal"/></g></svg>