<svg version="1.1" xmlns="http://www.w3.org/2000/svg" xmlns:xlink="http://www.w3.org/1999/xlink" width="1260" height="594" viewBox="0,0,1260,594"><g transform="translate(259.74321,92.84357) scale(0.66226,0.66226)"><g id="wick_project_bg" fill-opacity="0" fill="#ffffff" fill-rule="nonzero" stroke="none" stroke-width="1" stroke-linecap="butt" stroke-linejoin="miter" stroke-miterlimit="10" stroke-dasharray="" stroke-dashoffset="0" font-family="none" font-weight="none" font-size="none" text-anchor="none" style="mix-blend-mode: normal"><rect x="0" y="0" width="720" height="480"/></g><g data-paper-data="{&quot;wickUUID&quot;:&quot;97306e17-fcd3-42a9-ba98-b583d95d4d2a&quot;,&quot;wickType&quot;:&quot;clipsandpaths&quot;}" fill="#800040" fill-rule="evenodd" stroke="none" stroke-width="1" stroke-linecap="butt" stroke-linejoin="miter" stroke-miterlimit="10" stroke-dasharray="" stroke-dashoffset="0" font-family="none" font-weight="none" font-size="none" text-anchor="none" style="mix-blend-mode: normal"><path d="M590.87465,211.30599c-1.014,0.22 -7.11,1.411 -13.548,2.648c-14.988,2.879 -18.753,4.367 -19.984,7.898c-0.52,1.494 -0.686,3.43 -0.368,4.303c1.173,3.217 11.379,13.8 15.331,15.896c3.916,2.078 4.175,2.101 6.486,0.587c3.844,-2.519 3.198,-5.574 -1.97,-9.31c-4.73,-3.419 -7.291,-6.757 -6.065,-7.905c1.097,-1.029 22.093,-4.593 27.055,-4.593c7.117,0 10.789,-4.804 6.582,-8.611c-1.626,-1.473 -8.721,-1.951 -13.519,-0.913z" data-paper-data="{&quot;wickUUID&quot;:&quot;9676c62d-40f4-4294-b448-82a31f26501c&quot;,&quot;wickType&quot;:&quot;path&quot;,&quot;originalStyle&quot;:{&quot;strokeColor&quot;:null,&quot;fillColor&quot;:[&quot;Color&quot;,0.50196,0,0.25098],&quot;strokeWidth&quot;:1}}" id="9676c62d-40f4-4294-b448-82a31f26501c"/><path d="M604.57181,121.26497c-4.411,1.052 -8.219,4.202 -12.656,10.47c-5.594,7.901 -7.116,11.177 -7.96,17.134c-1.235,8.704 1.459,17.61 7.133,23.582c1.444,1.521 3.198,4.161 3.896,5.867c1.419,3.466 7.06,7.991 11.055,8.869c3.208,0.704 12.181,-1.793 16.708,-4.65c4.579,-2.891 13.365,-12.833 16.217,-18.351c2.112,-4.086 2.314,-5.325 1.877,-11.518c-0.728,-10.328 -3.535,-16.799 -10.248,-23.63c-4.482,-4.561 -6.64,-6.02 -10.629,-7.187c-5.258,-1.538 -10.556,-1.74 -15.393,-0.586zM618.39681,131.79497c3.234,1.351 8.668,7.525 10.61,12.057c0.645,1.502 1.4,5.454 1.679,8.781l0.507,6.049l-4.51,5.874c-5.474,7.132 -9.942,10.877 -13.927,11.674c-2.373,0.475 -2.991,0.295 -2.991,-0.871c0,-0.808 -2.177,-2.876 -4.837,-4.597c-6.65,-4.3 -9.038,-7.148 -10.402,-12.406c-2.107,-8.123 0.394,-15.424 8.192,-23.916c3.293,-3.587 3.977,-3.917 8.116,-3.917c2.486,0 5.889,0.573 7.563,1.272z" data-paper-data="{&quot;wickUUID&quot;:&quot;6e402159-28fd-459f-8dbb-1f358221e3a0&quot;,&quot;wickType&quot;:&quot;path&quot;,&quot;originalStyle&quot;:{&quot;strokeColor&quot;:null,&quot;fillColor&quot;:[&quot;Color&quot;,0.50196,0,0.25098],&quot;strokeWidth&quot;:1}}" id="6e402159-28fd-459f-8dbb-1f358221e3a0"/><path d="M654.29675,184.0112c-2.116,0.418 -6.885,2.169 -10.597,3.89c-12.266,5.686 -16.845,13.559 -18.3,31.464l-0.82,10.093l2.88,5.404c5.503,10.325 14.288,14.534 30.335,14.534c10.28,0 14.299,-1.198 18.876,-5.627c7.932,-7.677 11.349,-27.521 6.538,-37.975c-2.774,-6.029 -14.645,-18.808 -19.534,-21.03c-4.062,-1.845 -3.915,-1.833 -9.378,-0.753zM666.67075,200.1932c8.577,8.999 10.243,13.621 8.147,22.608c-0.751,3.224 -1.618,7.055 -1.926,8.514c-0.307,1.458 -1.75,3.843 -3.206,5.298c-2.582,2.583 -2.882,2.647 -12.453,2.647c-10.551,0 -13.372,-0.81 -13.372,-3.838c0,-1.108 -1.815,-3.62 -4.265,-5.902l-4.266,-3.972l0.406,-7.731c0.452,-8.618 3.117,-15.413 7.207,-18.375c2.998,-2.171 12.832,-6.207 15.201,-6.237c1.115,-0.015 4.484,2.747 8.527,6.988z" data-paper-data="{&quot;wickUUID&quot;:&quot;e993ed22-cb1c-4ccc-8af4-c7a48bbf7636&quot;,&quot;wickType&quot;:&quot;path&quot;,&quot;originalStyle&quot;:{&quot;strokeColor&quot;:null,&quot;fillColor&quot;:[&quot;Color&quot;,0.50196,0,0.25098],&quot;strokeWidth&quot;:1}}" id="e993ed22-cb1c-4ccc-8af4-c7a48bbf7636"/><path d="M675.54133,113.03002c11.774,1.987 16.593,3.736 24.19,8.779c10.397,6.901 24.896,23.821 31.285,36.508c3.735,7.415 10.025,27.698 11.923,38.444c1.539,8.715 1.702,21.015 0.461,34.779c-0.652,7.226 -1.607,11.274 -4.24,17.969c-5.003,12.724 -8.44,19.144 -13.013,24.307c-5.957,6.726 -25.172,24.376 -28.304,25.999c-8.056,4.173 -38.96,6.294 -50.68,3.477c-14.652,-3.521 -33.043,-14.674 -45.799,-27.773c-8.143,-8.363 -11.712,-14.07 -13.588,-21.732c-0.587,-2.399 -2.558,-7.073 -4.379,-10.386c-2.327,-4.234 -3.145,-6.683 -2.752,-8.246c0.621,-2.476 3.331,-3.709 6.379,-2.903c2.571,0.68 8.525,10.814 9.863,16.789c1.754,7.826 4.105,11.676 12.128,19.864c11.638,11.875 27.034,21.386 40.232,24.854c5.864,1.54 8.685,1.755 16.729,1.271c13.841,-0.832 25.319,-2.719 28.298,-4.653c1.415,-0.918 8.125,-7.093 14.913,-13.723c11.231,-10.969 12.664,-12.747 15.94,-19.768c6.926,-14.846 8.178,-19.973 8.771,-35.937c0.354,-9.503 0.156,-16.608 -0.58,-20.858c-1.835,-10.596 -7.389,-29.013 -10.977,-36.394c-7.009,-14.42 -22.437,-31.34 -33.578,-36.825c-6.89,-3.392 -18.889,-5.56 -30.62,-5.534c-10.412,0.024 -23.554,3.406 -27.453,7.066c-3.936,3.694 -5.98,4.306 -8.615,2.58c-3.522,-2.308 -2.781,-5.272 2.507,-10.027c4.853,-4.363 8.117,-5.669 20.66,-8.268c9.112,-1.888 17.664,-1.792 30.299,0.341z" data-paper-data="{&quot;wickUUID&quot;:&quot;2cd3da7a-d04b-4a7c-91f2-fc587401ffd6&quot;,&quot;wickType&quot;:&quot;path&quot;,&quot;originalStyle&quot;:{&quot;strokeColor&quot;:null,&quot;fillColor&quot;:[&quot;Color&quot;,0.50196,0,0.25098],&quot;strokeWidth&quot;:1}}" id="2cd3da7a-d04b-4a7c-91f2-fc587401ffd6"/><path d="M574.74837,234.65186c-1.014,1.014 -1.843,2.465 -1.843,3.226c0,0.76 0.829,2.211 1.843,3.225c1.677,1.677 3.072,1.843 15.523,1.843c12.082,0 13.857,-0.197 15.204,-1.685c2.001,-2.211 1.936,-5.03 -0.16,-6.926c-1.407,-1.274 -3.918,-1.526 -15.205,-1.526c-12.29,0 -13.687,0.168 -15.362,1.843z" data-paper-data="{&quot;wickUUID&quot;:&quot;95f9fd66-6053-491e-a69f-adfc0ba1ff91&quot;,&quot;wickType&quot;:&quot;path&quot;,&quot;originalStyle&quot;:{&quot;strokeColor&quot;:null,&quot;fillColor&quot;:[&quot;Color&quot;,0.50196,0,0.25098],&quot;strokeWidth&quot;:1}}" id="95f9fd66-6053-491e-a69f-adfc0ba1ff91"/><path d="M589.24184,157.93829c-1.696,1.876 -5.203,10.881 -9.031,23.187c-2.472,7.947 -2.698,9.819 -2.698,22.346c0,12.444 0.166,13.838 1.843,15.516c2.218,2.218 3.539,2.304 6.245,0.408c1.957,-1.37 2.048,-2.032 2.048,-14.831c0,-14.648 0.86,-18.833 7.049,-34.302c3.304,-8.258 3.739,-11.074 1.982,-12.831c-1.627,-1.627 -5.764,-1.346 -7.438,0.507z" data-paper-data="{&quot;wickUUID&quot;:&quot;15099204-7ca2-4e35-b76d-5b7efe478f63&quot;,&quot;wickType&quot;:&quot;path&quot;,&quot;originalStyle&quot;:{&quot;strokeColor&quot;:null,&quot;fillColor&quot;:[&quot;Color&quot;,0.50196,0,0.25098],&quot;strokeWidth&quot;:1}}" id="15099204-7ca2-4e35-b76d-5b7efe478f63"/><path d="M731.0558,271.32967c2.878,5.422 8.345,15.187 12.149,21.699c8.304,14.217 11.517,21.731 10.695,25.007c-0.81,3.227 -6.645,8.001 -14.523,11.882c-9.594,4.726 -29.87,10.122 -37.923,10.093c-8.762,-0.033 -16.6,-2.441 -20.439,-6.28c-2.874,-2.874 -3.058,-3.44 -3.041,-9.371c0.041,-13.988 3.245,-27.394 6.95,-29.082c3.27,-1.49 7.213,1.304 6.565,4.652c-0.261,1.349 -1.117,5.77 -1.903,9.825c-0.786,4.054 -1.444,9.74 -1.461,12.634l-0.033,5.263l4.775,1.418c6.823,2.026 10.888,1.781 22.87,-1.38c13.213,-3.486 14.765,-4.063 21.931,-8.15c7.159,-4.083 7.224,-3.559 -2.516,-20.383c-3.961,-6.842 -9.194,-16.172 -11.629,-20.733c-2.435,-4.562 -5.391,-9.738 -6.568,-11.503c-0.07077,-0.10615 -0.13966,-0.21022 -0.20667,-0.31232c1.52355,-1.0713 3.00295,-3.34148 5.40888,-7.98866c2.38781,1.57355 5.14761,5.64104 8.89879,12.70998z" data-paper-data="{&quot;wickUUID&quot;:&quot;94e35fd2-8693-4dd6-98f7-7e7cd635f227&quot;,&quot;wickType&quot;:&quot;path&quot;,&quot;originalStyle&quot;:{&quot;strokeColor&quot;:null,&quot;fillColor&quot;:[&quot;Color&quot;,0.50196,0,0.25098],&quot;strokeWidth&quot;:1}}" id="94e35fd2-8693-4dd6-98f7-7e7cd635f227"/><path d="M751.79159,222.08893c2.723,1.199 7.233,2.842 10.02,3.65c6.288,1.824 18.927,10.014 21.186,13.728c0.925,1.522 2.16,5.311 2.744,8.421c1.022,5.448 0.938,6.009 -2.301,15.331c-5.623,16.182 -10.385,23.037 -16.003,23.037c-3.603,0 -37.982,-12.658 -40.136,-14.778c-1.461,-1.438 -1.631,-2.247 -0.905,-4.323c1.455,-4.164 4.709,-3.744 22.884,2.954c13.589,5.008 16.676,5.855 17.834,4.895c1.668,-1.384 4.19,-7.056 7.14,-16.056c2.259,-6.892 2.075,-11.561 -0.582,-14.763c-2.551,-3.074 -10.696,-7.765 -17.368,-10.003c-10.143,-3.402 -14.242,-5.943 -14.602,-9.054c-0.163,-1.411 0.199,-3.163 0.804,-3.893c1.536,-1.851 3.564,-1.665 9.285,0.854z" data-paper-data="{&quot;wickUUID&quot;:&quot;e50d2db9-52e8-4283-ac08-8f5d4653f2f2&quot;,&quot;wickType&quot;:&quot;path&quot;,&quot;originalStyle&quot;:{&quot;strokeColor&quot;:null,&quot;fillColor&quot;:[&quot;Color&quot;,0.50196,0,0.25098],&quot;strokeWidth&quot;:1}}" id="e50d2db9-52e8-4283-ac08-8f5d4653f2f2"/><path d="M731.17252,160.08527c-1.014,0.59 -1.613,2.054 -1.613,3.939c0,2.63 0.88,3.711 7.142,8.778c3.927,3.178 9.909,7.234 13.293,9.012c3.383,1.778 6.37,3.803 6.636,4.498c0.55,1.433 -6.589,8.841 -13.904,14.43c-5.237,4 -6.418,6.143 -4.926,8.933c2.57,4.8 6.32,3.322 18.199,-7.173c15.154,-13.39 14.95,-20.874 -0.793,-29.147c-3.661,-1.923 -9.541,-5.92 -13.068,-8.881c-6.495,-5.454 -8.062,-6.081 -10.966,-4.389z" data-paper-data="{&quot;wickUUID&quot;:&quot;5ca759fc-af04-4dd2-99f8-b60e1e11f810&quot;,&quot;wickType&quot;:&quot;path&quot;,&quot;originalStyle&quot;:{&quot;strokeColor&quot;:null,&quot;fillColor&quot;:[&quot;Color&quot;,0.50196,0,0.25098],&quot;strokeWidth&quot;:1}}" id="5ca759fc-af04-4dd2-99f8-b60e1e11f810"/><path d="M637.35659,336.40531c-1.297,0.731 -2.843,2.393 -3.436,3.695c-0.862,1.892 -1.732,2.367 -4.338,2.367c-2.797,0 -3.472,0.443 -4.747,3.117c-1.798,3.771 -1.088,13.346 1.347,18.147c3.086,6.085 20.459,17.614 28.44,18.873c1.937,0.305 4.692,0.106 6.123,-0.442c2.605,-0.999 13.921,-12.34 16.026,-16.061c2.547,-4.505 0.534,-13.498 -3.023,-13.498c-1.079,0 -1.223,-0.976 -0.746,-5.039c0.781,-6.641 -0.691,-10.217 -4.755,-11.558c-3.999,-1.32 -9.035,1.118 -13.556,6.561l-3.203,3.856l-0.603,-3.213c-1.153,-6.145 -8.31,-9.744 -13.529,-6.805z" data-paper-data="{&quot;wickUUID&quot;:&quot;f7abe986-e9f3-4002-8f43-37d6edd24340&quot;,&quot;wickType&quot;:&quot;path&quot;,&quot;originalStyle&quot;:{&quot;strokeColor&quot;:null,&quot;fillColor&quot;:[&quot;Color&quot;,0.50196,0,0.25098],&quot;strokeWidth&quot;:1}}" id="f7abe986-e9f3-4002-8f43-37d6edd24340"/><path d="M660.12945,298.07751c-2.741,3.029 -1.425,8.009 4.427,16.745c2.412,3.601 2.748,4.86 2.547,9.562c-0.126,2.978 -0.9,6.828 -1.719,8.554c-1.566,3.3 -9.187,10.434 -11.157,10.444c-1.602,0.009 -4.838,3.402 -4.838,5.074c0,0.761 0.856,2.239 1.903,3.286c2.506,2.506 6.299,1.716 12.108,-2.522c9.007,-6.571 12.332,-12.468 13.223,-23.452c0.55,-6.77 0.382,-8.346 -1.275,-11.984c-1.05,-2.305 -2.487,-4.67 -3.194,-5.257c-0.707,-0.586 -2.05,-2.831 -2.983,-4.988c-3.107,-7.178 -5.94,-8.889 -9.042,-5.462z" data-paper-data="{&quot;wickUUID&quot;:&quot;b69d027e-2f0d-4e06-95a8-5eda78162ca1&quot;,&quot;wickType&quot;:&quot;path&quot;,&quot;originalStyle&quot;:{&quot;strokeColor&quot;:null,&quot;fillColor&quot;:[&quot;Color&quot;,0.50196,0,0.25098],&quot;strokeWidth&quot;:1}}" id="b69d027e-2f0d-4e06-95a8-5eda78162ca1"/><path d="M659.29409,297.54451c-1.969,1.506 -7.725,14.299 -9.391,20.872c-0.72,2.838 -1.991,11.173 -2.825,18.522c-1.673,14.748 -5.459,36.173 -7.407,41.918c-0.689,2.033 -2.114,7.428 -3.166,11.989c-2.451,10.619 -6.146,20.363 -8.585,22.636c-2.838,2.643 -11.173,5.47 -16.116,5.466c-2.389,-0.002 -8.282,-0.63 -13.097,-1.396c-7.448,-1.184 -10.437,-2.249 -20.034,-7.138c-6.203,-3.16 -13.105,-7.065 -15.337,-8.678c-2.232,-1.614 -7.891,-7.937 -12.575,-14.053c-7.121,-9.297 -8.919,-11.12 -10.971,-11.12c-3.133,0 -4.666,1.55 -4.666,4.717c0,2.897 13.48,20.856 19.837,26.429c5.593,4.903 28.064,16.587 34.86,18.126c3.114,0.704 9.6,1.782 14.415,2.394c8.043,1.022 9.379,0.954 16.447,-0.836c14.167,-3.587 18.782,-8.834 23.635,-26.871c1.295,-4.815 3.362,-12.486 4.592,-17.048c3.462,-12.834 5.902,-26.201 7.906,-43.31c2.025,-17.282 3.225,-22.369 7.321,-31.027c3.294,-6.964 3.447,-9.394 0.713,-11.31c-2.478,-1.735 -3.583,-1.791 -5.556,-0.282z" data-paper-data="{&quot;wickUUID&quot;:&quot;896a1a3f-c39b-4644-af8d-94fd37432b87&quot;,&quot;wickType&quot;:&quot;path&quot;,&quot;originalStyle&quot;:{&quot;strokeColor&quot;:null,&quot;fillColor&quot;:[&quot;Color&quot;,0.50196,0,0.25098],&quot;strokeWidth&quot;:1}}" id="896a1a3f-c39b-4644-af8d-94fd37432b87"/><path d="M582.18309,269.43922c-9,9.328 -23.69,28.295 -27.178,35.091c-1.712,3.336 -6.816,15.026 -10.192,23.345c-4.155,10.237 -12.239,48.511 -11.157,52.821c0.869,3.46 4.43,4.846 7.42,2.887c1.348,-0.883 2.341,-2.405 2.341,-3.586c-0.003,-8.232 8.48,-43.44 12.816,-53.195c1.916,-4.308 4.416,-10.128 5.557,-12.933c3.082,-7.576 15.946,-25.131 27.092,-36.971c9.937,-10.557 11.503,-13.476 8.719,-16.26c-2.883,-2.883 -5.693,-1.279 -15.418,8.801z" data-paper-data="{&quot;wickUUID&quot;:&quot;c929cc26-6def-42b1-a09b-63865c3472fe&quot;,&quot;wickType&quot;:&quot;path&quot;,&quot;originalStyle&quot;:{&quot;strokeColor&quot;:null,&quot;fillColor&quot;:[&quot;Color&quot;,0.50196,0,0.25098],&quot;strokeWidth&quot;:1}}" id="c929cc26-6def-42b1-a09b-63865c3472fe"/><path d="M554.01424,257.64423c-2.248,0.926 -4.977,4.559 -8.199,10.918c-2.644,5.218 -2.919,5.385 -5.569,3.381c-3.957,-2.993 -10.976,-0.821 -14.165,4.384c-1.016,1.66 -2.727,5.93 -3.801,9.49l-1.953,6.472l-3.493,-0.333c-7.449,-0.71 -11.982,7.367 -10.955,19.518c1.301,15.397 12.983,30.993 23.215,30.993c4.019,0 10.681,-3.784 12.98,-7.372c1.136,-1.774 3.378,-7.235 4.981,-12.136c2.761,-8.439 5.308,-13.929 13.393,-28.87c5.386,-9.953 6.928,-15.334 6.928,-24.174c0,-7.348 -0.143,-7.903 -2.693,-10.453c-2.782,-2.782 -6.705,-3.45 -10.669,-1.818z" data-paper-data="{&quot;wickUUID&quot;:&quot;035aa3b2-168f-4888-98f7-e681742a7bbc&quot;,&quot;wickType&quot;:&quot;path&quot;,&quot;originalStyle&quot;:{&quot;strokeColor&quot;:null,&quot;fillColor&quot;:[&quot;Color&quot;,0.50196,0,0.25098],&quot;strokeWidth&quot;:1}}" id="035aa3b2-168f-4888-98f7-e681742a7bbc"/><path d="M549.24403,303.56125c-0.596,0.379 -2.389,4.489 -3.985,9.133c-2.281,6.642 -2.689,8.838 -1.911,10.292c1.388,2.594 4.362,3.313 6.88,1.663c2.128,-1.395 7.012,-13.268 7.012,-17.048c0,-3.643 -4.804,-6.07 -7.996,-4.04z" data-paper-data="{&quot;wickUUID&quot;:&quot;dd01a107-846a-4579-8013-f32409f9b61d&quot;,&quot;wickType&quot;:&quot;path&quot;,&quot;originalStyle&quot;:{&quot;strokeColor&quot;:null,&quot;fillColor&quot;:[&quot;Color&quot;,0.50196,0,0.25098],&quot;strokeWidth&quot;:1}}" id="dd01a107-846a-4579-8013-f32409f9b61d"/><path d="M595.81505,417.12497c-0.83,0.485 -1.762,1.885 -2.07,3.113c-0.625,2.49 1.798,15.173 5.828,30.505c9.61,36.561 17.262,64.42 20.754,75.563c2.224,7.095 4.511,14.681 5.081,16.858c1.336,5.098 4.313,6.741 7.926,4.374c3.233,-2.118 2.998,-3.669 -4.062,-26.848c-7.05,-23.141 -21.838,-78.572 -24.665,-92.448c-1.179,-5.786 -2.678,-10.859 -3.33,-11.274c-1.562,-0.991 -3.597,-0.932 -5.462,0.157z" data-paper-data="{&quot;wickUUID&quot;:&quot;0ba674da-e155-49a9-9053-edc49876405b&quot;,&quot;wickType&quot;:&quot;path&quot;,&quot;originalStyle&quot;:{&quot;strokeColor&quot;:null,&quot;fillColor&quot;:[&quot;Color&quot;,0.50196,0,0.25098],&quot;strokeWidth&quot;:1}}" id="0ba674da-e155-49a9-9053-edc49876405b"/><path d="M549.12253,395.73798c-2.793,2.793 -4.226,29.244 -3.98,73.435c0.137,24.591 -0.19,42.079 -0.937,50.09c-1.269,13.622 -0.583,16.869 3.696,17.483c6.326,0.909 6.855,-3.908 7.106,-64.809c0.103,-24.834 0.647,-49.714 1.209,-55.289c1.587,-15.744 1.408,-19.438 -1.025,-21.143c-2.658,-1.862 -4.027,-1.809 -6.069,0.233z" data-paper-data="{&quot;wickUUID&quot;:&quot;289c3087-6b23-42e3-b02a-be2b95c1ee2d&quot;,&quot;wickType&quot;:&quot;path&quot;,&quot;originalStyle&quot;:{&quot;strokeColor&quot;:null,&quot;fillColor&quot;:[&quot;Color&quot;,0.50196,0,0.25098],&quot;strokeWidth&quot;:1}}" id="289c3087-6b23-42e3-b02a-be2b95c1ee2d"/></g><g fill="none" fill-rule="nonzero" stroke="none" stroke-width="1" stroke-linecap="butt" stroke-linejoin="miter" stroke-miterlimit="10" stroke-dasharray="" stroke-dashoffset="0" font-family="sans-serif" font-weight="normal" font-size="12" text-anchor="start" style="mix-blend-mode: normal"/><g id="wick_project_gui" fill="none" fill-rule="nonzero" stroke="none" stroke-width="1" stroke-linecap="butt" stroke-linejoin="miter" stroke-miterlimit="10" stroke-dasharray="" stroke-dashoffset="0" font-family="sans-serif" font-weight="normal" font-size="12" text-anchor="start" style="mix-blend-mode: normal"/></g></svg>