<svg version="1.1" xmlns="http://www.w3.org/2000/svg" xmlns:xlink="http://www.w3.org/1999/xlink" width="1260" height="594" viewBox="0,0,1260,594"><g transform="translate(259.74321,92.84357) scale(0.66226,0.66226)"><g id="wick_project_bg" fill-opacity="0" fill="#ffffff" fill-rule="nonzero" stroke="none" stroke-width="1" stroke-linecap="butt" stroke-linejoin="miter" stroke-miterlimit="10" stroke-dasharray="" stroke-dashoffset="0" font-family="none" font-weight="none" font-size="none" text-anchor="none" style="mix-blend-mode: normal"><rect x="0" y="0" width="720" height="480"/></g><g data-paper-data="{&quot;wickUUID&quot;:&quot;1ec27dc8-3b65-49ed-89d6-9961116ec5b9&quot;,&quot;wickType&quot;:&quot;clipsandpaths&quot;}" fill="#800040" fill-rule="none" stroke="none" stroke-width="1" stroke-linecap="butt" stroke-linejoin="miter" stroke-miterlimit="10" stroke-dasharray="" stroke-dashoffset="0" font-family="none" font-weight="none" font-size="none" text-anchor="none" style="mix-blend-mode: normal"><path d="M728.4087,222.75104c-1.6,0.607 -10.017,4.089 -18.703,7.738c-8.687,3.649 -25.827,10.458 -38.091,15.13c-25.396,9.676 -42.272,16.975 -56.67,24.509c-12.639,6.614 -17.606,8.447 -29.661,10.944c-7.69,1.594 -12.243,2.014 -21.823,2.014c-10.998,0 -12.258,0.152 -13.769,1.662c-1.971,1.971 -1.97,1.957 -0.44,6.348c3.456,9.917 17.363,34.892 22.31,40.065c7.902,8.262 23.545,16.45 36.275,18.987c9.724,1.937 37.141,1.956 43.915,0.031c14.633,-4.16 47.464,-17.442 52.786,-21.356c9.196,-6.762 15.643,-18.018 22.646,-39.533c5.142,-15.799 5.665,-18.158 7.871,-35.537c2.255,-17.76 2.237,-27.073 -0.057,-29.989c-1.946,-2.474 -2.511,-2.561 -6.589,-1.013zM727.3097,240.49004c-1.196,16.845 -3.86,30.993 -8.494,45.103c-8.217,25.02 -13.993,33.884 -25.681,39.406c-16.375,7.736 -42.142,16.638 -52.006,17.967c-7.142,0.962 -22.928,0.106 -32.729,-1.774c-9.218,-1.769 -24.549,-9.841 -30.255,-15.931c-2.947,-3.146 -18.273,-29.977 -18.441,-32.286c-0.02,-0.276 4.359,-0.73 9.73,-1.009c10.348,-0.538 25.874,-3.464 33.465,-6.307c2.511,-0.94 11.111,-5.016 19.111,-9.057c16.543,-8.358 28.627,-13.528 56.616,-24.225c10.794,-4.125 25.756,-10.084 33.249,-13.242c7.494,-3.157 14.148,-5.782 14.788,-5.832c0.951,-0.075 1.069,1.234 0.647,7.187z" data-paper-data="{&quot;wickUUID&quot;:&quot;8b5a88d8-f17b-490f-af0c-4fdc40578405&quot;,&quot;wickType&quot;:&quot;path&quot;,&quot;originalStyle&quot;:{&quot;strokeColor&quot;:null,&quot;fillColor&quot;:[&quot;Color&quot;,0.50196,0,0.25098],&quot;strokeWidth&quot;:1}}" id="8b5a88d8-f17b-490f-af0c-4fdc40578405" fill-rule="evenodd"/><path d="M584.93517,287.66991c-1.373,2.096 -1.359,2.335 0.328,5.66c0.969,1.909 2.603,4.879 3.63,6.599l1.869,3.128l-2.04,1.424c-5.953,4.156 -7.12,7.811 -6.42,20.098c0.698,12.234 5.053,18.895 10.165,15.545c2.482,-1.626 2.643,-3.371 0.671,-7.244c-1.076,-2.114 -1.444,-4.916 -1.455,-11.078l-0.013,-8.25l3.74,-2.234c2.565,-1.532 4.524,-2.119 6.234,-1.869c1.372,0.2 5.487,-0.572 9.144,-1.717c3.657,-1.145 9.829,-2.677 13.715,-3.404c8.227,-1.539 20.664,-4.986 21.634,-5.997c0.369,-0.384 0.747,-1.26 0.839,-1.945c0.77,-5.72 -1.405,-6.427 -11.476,-3.733c-4.448,1.189 -11.08,2.72 -14.737,3.401c-3.658,0.681 -9.005,2.005 -11.884,2.943c-7.452,2.429 -8.535,1.928 -13.297,-6.154c-3.541,-6.01 -4.352,-6.879 -6.624,-7.105c-2.036,-0.201 -2.895,0.211 -4.023,1.932z" data-paper-data="{&quot;wickUUID&quot;:&quot;0d9c9287-cfb5-4148-8a53-2904bc2d0925&quot;,&quot;wickType&quot;:&quot;path&quot;,&quot;originalStyle&quot;:{&quot;strokeColor&quot;:null,&quot;fillColor&quot;:[&quot;Color&quot;,0.50196,0,0.25098],&quot;strokeWidth&quot;:1}}" id="0d9c9287-cfb5-4148-8a53-2904bc2d0925" fill-rule="evenodd"/><path d="M565.48608,286.35239c-3.811,0.762 -6.267,2.14 -7.855,4.406c-2.105,3.005 -1.515,4.9 2.769,8.902c3.26,3.045 4.336,4.772 5.47,8.778c1.498,5.297 5.3,12.679 9.527,18.495c2.88,3.962 6.2,4.734 8.663,2.013c1.62,-1.79 1.72,-3.817 0.428,-8.651c-0.875,-3.272 -0.78,-3.793 1.246,-6.778c1.208,-1.778 2.203,-3.648 2.213,-4.156c0.01,-0.508 1.226,-1.484 2.702,-2.17c1.545,-0.718 2.788,-1.977 2.929,-2.969c0.294,-2.056 -4.832,-11.478 -7.985,-14.677c-3.311,-3.36 -12.208,-4.773 -20.107,-3.193z" data-paper-data="{&quot;wickUUID&quot;:&quot;9c84f622-cda4-4ac0-92fd-7fb81f625973&quot;,&quot;wickType&quot;:&quot;path&quot;,&quot;originalStyle&quot;:{&quot;strokeColor&quot;:null,&quot;fillColor&quot;:[&quot;Color&quot;,0.50196,0,0.25098],&quot;strokeWidth&quot;:1}}" id="9c84f622-cda4-4ac0-92fd-7fb81f625973" fill-rule="evenodd"/><path d="M745.06232,309.63059c-0.473,0.884 -0.86,1.987 -0.86,2.449c0,1.509 -5.964,11.061 -9.012,14.435c-5.665,6.27 -24.188,20.379 -29.597,22.545c-2.825,1.131 -10.568,3.021 -17.207,4.2c-11.765,2.089 -13.003,2.144 -48.576,2.139c-33.117,-0.004 -41.048,-0.348 -47.861,-2.073c-1.646,-0.416 -2.659,-0.115 -3.948,1.175c-2.155,2.154 -2.195,3.767 -0.147,5.816c3.304,3.303 9.201,3.739 51.196,3.778c38.106,0.035 40.354,-0.048 50.015,-1.858c19.206,-3.599 24.546,-5.989 38.512,-17.241c12.025,-9.688 17.931,-15.908 21.917,-23.079c3.803,-6.843 4.583,-10.55 2.63,-12.502c-1.926,-1.926 -5.982,-1.802 -7.062,0.216z" data-paper-data="{&quot;wickUUID&quot;:&quot;d14d71ba-c221-4f64-9e15-b80b18c1ac63&quot;,&quot;wickType&quot;:&quot;path&quot;,&quot;originalStyle&quot;:{&quot;strokeColor&quot;:null,&quot;fillColor&quot;:[&quot;Color&quot;,0.50196,0,0.25098],&quot;strokeWidth&quot;:1}}" id="d14d71ba-c221-4f64-9e15-b80b18c1ac63" fill-rule="evenodd"/><path d="M636.55697,129.35835c-1.372,0.393 -9.953,1.309 -19.068,2.036c-22.262,1.775 -52.226,8.05 -67.118,14.056c-7.316,2.951 -20.875,10.908 -29.009,17.025c-11.965,8.997 -17.913,18.706 -22.375,36.522c-4.275,17.065 -5.773,33.028 -4.193,44.682c1.04,7.678 4.617,22.788 6.081,25.691c0.461,0.914 5.542,8.769 11.29,17.456c5.748,8.686 11.088,17.166 11.866,18.843c4.746,10.237 15.603,21.909 33.66,36.188c2.772,2.193 9.238,7.353 14.368,11.468c5.13,4.115 11.19,8.485 13.467,9.712c5.464,2.944 12.453,3.859 15.287,2.002c4.379,-2.869 1.447,-7.973 -4.58,-7.973c-3.977,0 -8.388,-2.512 -17.62,-10.035c-4.248,-3.461 -9.595,-7.698 -11.88,-9.414c-2.286,-1.715 -9.082,-7.43 -15.103,-12.698c-10.454,-9.148 -17.088,-17.067 -19.407,-23.165c-0.421,-1.108 -5.792,-9.595 -11.936,-18.862c-10.44,-15.746 -11.307,-17.363 -13.269,-24.744c-3.5,-13.165 -4.264,-21.634 -3.109,-34.449c1.23,-13.641 5.356,-30.223 9.631,-38.713c5.014,-9.957 14.665,-18.097 32.893,-27.744c15.174,-8.032 46.54,-15.319 75.484,-17.537c9.321,-0.714 17.301,-1.517 17.732,-1.784c1.62,-1.001 23.117,2.486 34.729,5.633c28.576,7.745 35.198,11.76 50.723,30.758c13.705,16.769 22.046,32.268 29.683,55.158c2.874,8.616 3.049,9.744 3.022,19.535c-0.038,13.812 -3.732,32.364 -10.795,54.223c-3.072,9.508 -2.982,11.581 0.556,12.704c3.407,1.081 5.256,-1.396 8.469,-11.343c9.164,-28.373 13.038,-53.468 10.316,-66.829c-1.602,-7.868 -9.154,-29.339 -13.002,-36.967c-8.516,-16.883 -26.028,-40.083 -36.936,-48.933c-11.265,-9.14 -35.598,-17.528 -61.986,-21.368c-15.05,-2.19 -14.337,-2.145 -17.871,-1.134z" data-paper-data="{&quot;wickUUID&quot;:&quot;f6724cb4-314e-405e-a4e3-ab04faf7cb62&quot;,&quot;wickType&quot;:&quot;path&quot;,&quot;originalStyle&quot;:{&quot;strokeColor&quot;:null,&quot;fillColor&quot;:[&quot;Color&quot;,0.50196,0,0.25098],&quot;strokeWidth&quot;:1}}" id="f6724cb4-314e-405e-a4e3-ab04faf7cb62" fill-rule="evenodd"/><path d="M550.93888,168.12455c-5.69,0.756 -10.344,2.906 -13.248,6.121c-3.393,3.756 -3.628,5.1 -1.299,7.429c2.265,2.265 3.604,2.097 6.99,-0.876c1.589,-1.396 4.125,-2.892 5.634,-3.325c3.043,-0.872 12.518,-0.922 15.433,-0.08c6.724,1.941 13.788,16.377 15.173,31.008c1.233,13.019 1.915,13.339 20.184,9.472c7.412,-1.568 25.633,-5.474 40.491,-8.68c33.253,-7.173 44.397,-9.232 67.746,-12.514c10.058,-1.414 19.118,-2.755 20.134,-2.979c2.262,-0.5 3.829,-3.208 3.131,-5.408c-1.094,-3.447 -2.773,-3.478 -23.88,-0.438c-26.672,3.841 -36.996,5.788 -77.937,14.697c-42.819,9.317 -40.347,8.929 -41.013,6.439c-0.29,-1.08 -0.531,-3.361 -0.537,-5.07c-0.031,-8.345 -8.381,-26.83 -14.257,-31.562c-4.647,-3.742 -13.731,-5.433 -22.745,-4.234z" data-paper-data="{&quot;wickUUID&quot;:&quot;b01ee87c-30ec-4d66-bd89-b1510cb09f85&quot;,&quot;wickType&quot;:&quot;path&quot;,&quot;originalStyle&quot;:{&quot;strokeColor&quot;:null,&quot;fillColor&quot;:[&quot;Color&quot;,0.50196,0,0.25098],&quot;strokeWidth&quot;:1}}" id="b01ee87c-30ec-4d66-bd89-b1510cb09f85" fill-rule="evenodd"/><path d="M654.97625,209.98155c-4.726,3.717 -4.436,11.049 0.621,15.713c2.134,1.969 2.34,1.999 5.691,0.831c4.007,-1.396 7.271,-5.558 7.271,-9.272c0,-3.025 -2.011,-7 -4.11,-8.123c-2.612,-1.398 -7.13,-0.992 -9.473,0.851z" data-paper-data="{&quot;wickUUID&quot;:&quot;0005f2c1-a1ee-422f-9c89-22588c19a380&quot;,&quot;wickType&quot;:&quot;path&quot;,&quot;originalStyle&quot;:{&quot;strokeColor&quot;:null,&quot;fillColor&quot;:[&quot;Color&quot;,0.50196,0,0.25098],&quot;strokeWidth&quot;:1}}" id="0005f2c1-a1ee-422f-9c89-22588c19a380" fill-rule="evenodd"/><path d="M587.34947,220.71432c-2.568,1.088 -4.408,5.094 -4.408,9.595c0,3.371 0.428,4.282 3.567,7.605c3.027,3.204 4.05,3.776 6.756,3.776c2.287,0 3.772,-0.584 5.252,-2.064c3.952,-3.951 3.107,-13.982 -1.463,-17.371c-2.518,-1.868 -7.186,-2.609 -9.704,-1.541z" data-paper-data="{&quot;wickUUID&quot;:&quot;f8d4686d-c658-48bc-8178-137e744beb75&quot;,&quot;wickType&quot;:&quot;path&quot;,&quot;originalStyle&quot;:{&quot;strokeColor&quot;:null,&quot;fillColor&quot;:[&quot;Color&quot;,0.50196,0,0.25098],&quot;strokeWidth&quot;:1}}" id="f8d4686d-c658-48bc-8178-137e744beb75" fill-rule="evenodd"/><path d="M890.29247,178.17693c2.17,2.761 1.24,4.117 -8.105,11.824c-7.294,6.016 -45.37,40.775 -66.912,61.082c-26.007,24.517 -27.938,26.176 -40.287,34.614c-6.646,4.541 -14.061,9.926 -16.479,11.966c-2.417,2.041 -4.942,3.71 -5.611,3.71c-1.664,0 -4.54,-3.008 -4.54,-4.748c0,-2.257 8.463,-9.541 20.708,-17.823c12.845,-8.688 12.428,-8.334 37.063,-31.425c36.587,-34.294 68.252,-63.017 75.531,-68.516c4.242,-3.204 6.509,-3.384 8.632,-0.684z" data-paper-data="{&quot;wickUUID&quot;:&quot;b562eee2-ae84-49b1-bed3-6df6da0d0863&quot;,&quot;wickType&quot;:&quot;path&quot;,&quot;originalStyle&quot;:{&quot;strokeColor&quot;:null,&quot;fillColor&quot;:[&quot;Color&quot;,0.50196,0,0.25098],&quot;strokeWidth&quot;:1}}" id="b562eee2-ae84-49b1-bed3-6df6da0d0863" fill-rule="evenodd"/><path d="M906.05931,154.90802c3.956,2.817 5.637,7.082 5.637,14.298c0,4.999 -0.412,7.05 -2.078,10.348c-4.362,8.636 -11.764,11.407 -17.922,6.711c-1.79,-1.366 -4.241,-2.429 -5.669,-2.459c-1.884,-0.04 -2.98,-0.74 -4.362,-2.785c-2.626,-3.886 -3.871,-10.341 -2.777,-14.404c1.435,-5.33 7.642,-11.244 13.909,-13.252c3.798,-1.217 10.478,-0.439 13.262,1.543z" data-paper-data="{&quot;wickUUID&quot;:&quot;a9882975-04f8-4dfd-8f10-e4e6f5364d5b&quot;,&quot;wickType&quot;:&quot;path&quot;,&quot;originalStyle&quot;:{&quot;strokeColor&quot;:null,&quot;fillColor&quot;:[&quot;Color&quot;,0.50196,0,0.25098],&quot;strokeWidth&quot;:1}}" id="a9882975-04f8-4dfd-8f10-e4e6f5364d5b" fill-rule="evenodd"/><path d="M697.38077,354.96222c-0.672,0.672 -1.479,3.571 -1.793,6.443c-0.691,6.312 -2.784,14.877 -6.647,27.195c-6.111,19.493 -10.249,44.954 -12.502,76.942c-0.708,10.058 -1.646,22.402 -2.083,27.431c-0.437,5.029 -0.798,11.268 -0.802,13.864l-0.007,4.721l-4.364,0.869c-12.942,2.578 -39.395,5.032 -64.213,5.958c-43.1,1.606 -48.557,0.51 -84.787,-17.031c-12.976,-6.283 -20.15,-11.203 -22.907,-15.71c-3.574,-5.845 -16.576,-37.973 -16.576,-40.961c0,-1.182 20.369,-20.017 32.984,-30.5c11.563,-9.61 31.15,-24.315 53.257,-39.984c15.317,-10.857 18.495,-13.452 18.495,-15.102c0,-2.592 -3.376,-4.883 -5.986,-4.062c-2.236,0.703 -39.258,27.054 -55.518,39.516c-13.516,10.358 -26.84,21.718 -40.512,34.539c-12.007,11.261 -12.963,13.114 -10.792,20.923c1.774,6.381 11.51,29.705 15.677,37.557c5.497,10.36 13.483,15.725 42.566,28.598c24.906,11.025 29.486,11.742 69.943,10.945c25.083,-0.494 31.759,-0.912 48.441,-3.035c24.037,-3.058 30.079,-4.285 31.845,-6.466c1.03,-1.272 1.465,-4.296 1.832,-12.738c0.746,-17.176 3.8,-56.526 5.246,-67.594c1.982,-15.177 5.916,-34.447 9.119,-44.663c4.008,-12.782 6.778,-24.188 7.439,-30.631c0.463,-4.51 0.318,-5.713 -0.827,-6.857c-1.714,-1.715 -4.898,-1.796 -6.528,-0.167z" data-paper-data="{&quot;wickUUID&quot;:&quot;32fc4ef1-04a2-4502-bd6a-a6d37a9df5e1&quot;,&quot;wickType&quot;:&quot;path&quot;,&quot;originalStyle&quot;:{&quot;strokeColor&quot;:null,&quot;fillColor&quot;:[&quot;Color&quot;,0.50196,0,0.25098],&quot;strokeWidth&quot;:1}}" id="32fc4ef1-04a2-4502-bd6a-a6d37a9df5e1" fill-rule="evenodd"/><path d="M773.28718,307.39911c-4.437,3.02 -6.08,5.889 -6.472,11.302c-0.194,2.686 0.056,5.646 0.555,6.579c0.831,1.552 0.116,2.186 -8.429,7.482c-5.135,3.182 -11.955,7.201 -15.155,8.931c-8.885,4.803 -29.721,16.674 -39.554,22.536c-10.294,6.138 -20.721,10.209 -27.758,10.839c-9.695,0.868 -39.463,-5.583 -64.099,-13.89c-9.559,-3.223 -18.209,-6.402 -19.222,-7.064c-3.048,-1.994 -6.763,-1.553 -7.898,0.938c-2.158,4.735 1.649,7.041 23.815,14.426c28.115,9.367 58.986,15.686 69.327,14.192c10.978,-1.587 17.389,-4.277 36.711,-15.406c8.915,-5.135 21.82,-12.415 28.678,-16.179c14.119,-7.75 28.912,-16.817 32.003,-19.616c1.543,-1.398 3.084,-1.88 5.989,-1.873c6.219,0.014 11.467,-4.263 11.467,-9.347c0,-5.338 -5.876,-12.25 -12.394,-14.58c-4.05,-1.448 -4.415,-1.413 -7.564,0.73z" data-paper-data="{&quot;wickUUID&quot;:&quot;287277c3-3f4e-4691-b161-619825a142f8&quot;,&quot;wickType&quot;:&quot;path&quot;,&quot;originalStyle&quot;:{&quot;strokeColor&quot;:null,&quot;fillColor&quot;:[&quot;Color&quot;,0.50196,0,0.25098],&quot;strokeWidth&quot;:1}}" id="287277c3-3f4e-4691-b161-619825a142f8" fill-rule="evenodd"/><path d="M914.70906,199.13074c0.72229,0 1.4066,0.13782 2.04409,0.39504c-0.29586,1.60517 -0.61365,3.45982 -0.8997,5.27963c-1.558,9.913 -5.954,16.556 -17.559,26.54c-5.088,4.376 -11.341,9.844 -13.895,12.15c-5.20213,4.69588 -15.41362,10.95058 -20.80899,13.0304c0.27825,-1.98496 0.55047,-4.83723 0.6306,-6.69007c0.09,-2.057 0.46,-4.566 0.822,-5.574c0.769,-2.14 8.966,-8.85 15.532,-12.714c8.87,-5.22 15.787,-11.865 25.748,-24.736c5.103,-6.594 6.29,-7.681 8.386,-7.681z" data-paper-data="{&quot;wickUUID&quot;:&quot;8639fbfc-c407-400e-90c7-c844b76a460d&quot;,&quot;wickType&quot;:&quot;path&quot;,&quot;originalStyle&quot;:{&quot;strokeColor&quot;:null,&quot;fillColor&quot;:[&quot;Color&quot;,0.50196,0,0.25098],&quot;strokeWidth&quot;:1}}" id="8639fbfc-c407-400e-90c7-c844b76a460d" fill-rule="nonzero"/><path d="M846.63553,199.11687c-2.087,2.088 -2.985,2.456 -4.882,2.001c-4.637,-1.113 -6.817,-2.815 -8.511,-6.646c-2.853,-6.448 -3.51,-10.204 -3.435,-19.634c0.123,-15.588 3.595,-27.087 11.011,-36.47c2.657,-3.36 4.739,-4.886 10.121,-7.414c2.65362,-1.24659 4.97753,-2.14852 7.01762,-2.70765c-6.5997,6.81386 -17.30133,28.27976 -19.59644,40.93661c-1.336,7.367 -0.98,10.535 1.932,17.186c0.93,2.123 2.456,5.596 3.393,7.719c0.84875,1.92376 1.86567,3.62903 2.95483,5.02403c-0.00167,0.00167 -0.00334,0.00334 -0.00501,0.00501z" data-paper-data="{&quot;wickUUID&quot;:&quot;8cb2e78c-6400-4083-993f-9497839fb969&quot;,&quot;wickType&quot;:&quot;path&quot;,&quot;originalStyle&quot;:{&quot;strokeColor&quot;:null,&quot;fillColor&quot;:[&quot;Color&quot;,0.50196,0,0.25098],&quot;strokeWidth&quot;:1}}" id="8cb2e78c-6400-4083-993f-9497839fb969" fill-rule="evenodd"/><path d="M892.68344,127.23963c-1.34951,0.51777 -2.49513,1.09921 -3.42588,1.72332c9.24426,-1.16715 22.42178,-0.07418 26.72183,2.59508c3.33586,2.07162 6.77355,5.48142 9.22754,8.80691c0.99591,-4.10136 -1.84427,-8.99589 -7.46149,-11.78331c-5.155,-2.557 -19.845,-3.344 -25.062,-1.342z" data-paper-data="{&quot;wickUUID&quot;:&quot;4cbc14f3-c1bc-4ae5-bf70-607b746bca9f&quot;,&quot;wickType&quot;:&quot;path&quot;,&quot;originalStyle&quot;:{&quot;strokeColor&quot;:null,&quot;fillColor&quot;:[&quot;Color&quot;,0.50196,0,0.25098],&quot;strokeWidth&quot;:1}}" id="4cbc14f3-c1bc-4ae5-bf70-607b746bca9f" fill-rule="nonzero"/><path d="M864.7373,182.86835c-0.65,-0.783 -1.794,-1.121 -2.877,-0.849c-0.988,0.248 -2.481,-0.049 -3.317,-0.661c-0.953,-0.696 -2.833,-0.963 -5.04,-0.714c-3.008,0.339 -3.663,0.128 -4.509,-1.452c-0.571,-1.067 -0.767,-3.036 -0.463,-4.657c0.404,-2.152 0.101,-3.385 -1.298,-5.277c-1.792,-2.423 -1.799,-2.538 -0.386,-6.239c0.792,-2.074 2.397,-4.522 3.565,-5.442c0.5939,-0.46709 1.09841,-0.82876 1.55328,-1.0876c0.03434,3.57639 0.80054,8.03614 2.24015,11.73722c2.887,7.421 3.97,8.355 9.726,8.38c3.397,0.015 4.236,0.491 4.387,2.488c0.11686,1.55011 0.62771,2.87255 1.43337,3.86517c-1.63932,1.5556 -3.65992,1.53971 -5.0148,-0.09179z" data-paper-data="{&quot;wickUUID&quot;:&quot;c030e55a-5fb0-4ed7-97c7-a5f458191d4f&quot;,&quot;wickType&quot;:&quot;path&quot;,&quot;originalStyle&quot;:{&quot;strokeColor&quot;:null,&quot;fillColor&quot;:[&quot;Color&quot;,0.50196,0,0.25098],&quot;strokeWidth&quot;:1}}" id="c030e55a-5fb0-4ed7-97c7-a5f458191d4f" fill-rule="evenodd"/><path d="M906.9673,140.35201c4.333,2.791 4.807,5.755 1.247,7.803c-1.258,0.723 -2.847,2.482 -3.533,3.909c-0.53948,1.12273 -1.32733,1.88399 -2.21774,2.32217c0.53206,-2.32227 -0.48935,-6.31055 -3.26532,-13.40914c-0.83913,-2.14522 -1.71151,-4.01559 -2.60134,-5.59804c2.56831,0.52205 6.04188,2.18466 10.3704,4.97301z" data-paper-data="{&quot;wickUUID&quot;:&quot;b2c2c5fd-a12e-40d6-a9c7-dfa4f7014f0d&quot;,&quot;wickType&quot;:&quot;path&quot;,&quot;originalStyle&quot;:{&quot;strokeColor&quot;:null,&quot;fillColor&quot;:[&quot;Color&quot;,0.50196,0,0.25098],&quot;strokeWidth&quot;:1}}" id="b2c2c5fd-a12e-40d6-a9c7-dfa4f7014f0d" fill-rule="evenodd"/><path d="M887.73855,222.40535c-2.199,0 -4.885,-3.244 -4.357,-5.263c0.257,-0.981 0.045,-3.189 -0.469,-4.908c-0.805,-2.685 -0.725,-3.359 0.57,-4.789c0.76585,-0.84622 2.11034,-1.54992 3.11021,-1.65222c-1.15507,3.95676 1.90143,10.50407 6.11957,10.50407c0.85276,0 1.6151,-0.13269 2.2799,-0.37249c-1.52568,2.44032 -5.8195,6.48064 -7.25368,6.48064z" data-paper-data="{&quot;wickUUID&quot;:&quot;53a2bd21-64f0-4548-bdfc-83ba5f8ccef3&quot;,&quot;wickType&quot;:&quot;path&quot;,&quot;originalStyle&quot;:{&quot;strokeColor&quot;:null,&quot;fillColor&quot;:[&quot;Color&quot;,0.50196,0,0.25098],&quot;strokeWidth&quot;:1}}" id="53a2bd21-64f0-4548-bdfc-83ba5f8ccef3" fill-rule="evenodd"/><path d="M502.31193,234.63351c-1.143,0.2 -9.373,1.85 -18.288,3.667c-8.915,1.817 -26.308,5.36 -38.652,7.873c-12.344,2.514 -25.997,5.461 -30.34,6.55c-10.744,2.694 -35.344,10.9 -39.46,13.163c-5.288,2.908 -5.059,4.339 3.973,24.807c4.306,9.76 8.302,19.241 8.879,21.07c1.325,4.198 2.851,5.947 6.135,7.028c1.431,0.471 22.613,4.236 47.072,8.366c81.198,13.713 101.29,18.045 125.372,27.029c7.92,2.955 14.907,5.373 15.526,5.373c3.317,0 4.921,-5.372 2.283,-7.646c-2.551,-2.198 -28.922,-11.359 -42.436,-14.741c-18.512,-4.632 -40.529,-8.847 -93.293,-17.86c-25.357,-4.331 -47.284,-8.122 -48.727,-8.424c-2.17,-0.454 -2.875,-1.213 -4.09,-4.408c-0.808,-2.124 -4.365,-10.402 -7.904,-18.396c-3.539,-7.995 -6.266,-14.809 -6.059,-15.144c0.606,-0.98 30.46,-10.496 38.802,-12.368c7.715,-1.731 26.045,-5.52 66.095,-13.662c12.033,-2.447 22.413,-4.893 23.067,-5.435c1.651,-1.371 1.485,-4.413 -0.332,-6.057c-1.479,-1.339 -3.359,-1.532 -7.623,-0.785z" data-paper-data="{&quot;wickUUID&quot;:&quot;e698b6ba-5a37-4bac-ad00-4008bae0c74b&quot;,&quot;wickType&quot;:&quot;path&quot;,&quot;originalStyle&quot;:{&quot;strokeColor&quot;:null,&quot;fillColor&quot;:[&quot;Color&quot;,0.50196,0,0.25098],&quot;strokeWidth&quot;:1}}" id="e698b6ba-5a37-4bac-ad00-4008bae0c74b" fill-rule="evenodd"/><path d="M425.83726,131.03935c-26.155,1.993 -42.707,4.196 -52.887,7.039c-4.665,1.302 -5.325,2.236 -6.979,9.87c-0.641,2.959 -0.607,8.354 0.123,19.446c0.896,13.616 1.206,15.554 2.738,17.155c2.561,2.674 34.01,17.616 54.927,26.096c10.058,4.077 28.2,11.708 40.315,16.957c12.116,5.249 24.359,10.389 27.208,11.422c4.926,1.788 5.285,1.811 7.323,0.475c2.77,-1.815 2.539,-5.354 -0.45,-6.883c-3.805,-1.948 -50.849,-21.95 -70.24,-29.865c-18.8,-7.674 -51.952,-23.304 -51.952,-24.493c0,-0.334 -0.389,-6.155 -0.864,-12.935c-0.487,-6.956 -0.562,-13.775 -0.171,-15.651l0.692,-3.325l6.614,-1.412c10.889,-2.323 37.717,-4.868 59.397,-5.635c22.088,-0.781 72.659,0.18 81.461,1.547c2.972,0.462 8.461,1.249 12.198,1.749c6.963,0.93 15.274,3.278 19.935,5.63c2.419,1.221 2.791,1.214 4.779,-0.089c2.108,-1.382 2.804,-4.13 1.52,-6.009c-0.973,-1.425 -5.169,-3.399 -11.001,-5.175c-8.365,-2.548 -15.985,-3.758 -37.821,-6.002c-8.961,-0.921 -74.495,-0.854 -86.865,0.088z" data-paper-data="{&quot;wickUUID&quot;:&quot;121c5589-f336-4129-87aa-c8e6e8b28a9d&quot;,&quot;wickType&quot;:&quot;path&quot;,&quot;originalStyle&quot;:{&quot;strokeColor&quot;:null,&quot;fillColor&quot;:[&quot;Color&quot;,0.50196,0,0.25098],&quot;strokeWidth&quot;:1}}" id="121c5589-f336-4129-87aa-c8e6e8b28a9d" fill-rule="evenodd"/><path d="M553.43286,44.17556c-5.486,0.606 -17.643,1.894 -27.015,2.863c-32.276,3.335 -44.303,6.854 -50.597,14.8c-4.553,5.749 -9.099,15.219 -10.105,21.051c-0.858,4.979 -0.788,5.913 0.703,9.281c0.911,2.061 2.533,4.295 3.604,4.965c1.072,0.67 6.155,2.071 11.296,3.113c10.368,2.101 9.646,1.731 22.785,11.668c11.295,8.543 17.638,12.428 25.755,15.776c9.54,3.933 12.54,6.053 20.078,14.186c6.258,6.752 7.291,7.544 9.208,7.063c2.96,-0.743 3.718,-4.071 1.758,-7.711c-0.826,-1.533 -4.185,-5.551 -7.465,-8.928c-4.874,-5.018 -7.317,-6.777 -13.375,-9.628c-16.061,-7.56 -19.846,-9.78 -30.063,-17.63c-12.739,-9.789 -14.939,-10.915 -25.871,-13.243c-6.084,-1.295 -8.717,-2.234 -9.295,-3.314c-1.59,-2.971 1.487,-11.169 7.799,-20.776c2.89,-4.399 11.354,-7.567 26.329,-9.855c2.971,-0.454 18.495,-2.109 34.496,-3.677c26.44,-2.592 30.268,-2.787 41.978,-2.136c19.045,1.059 32.205,2.37 37.802,3.767c5.505,1.375 18.963,9.456 25.606,15.376c3.7,3.298 15.677,21.735 21.016,32.352c2.917,5.8 8.674,25.464 8.674,29.625c0,5.264 1.109,6.949 4.572,6.949c3.509,0 4.572,-1.684 4.572,-7.245c0,-7.125 -8.312,-33.029 -12.352,-38.493c-0.862,-1.166 -4.59,-7.197 -8.285,-13.403c-7.325,-12.303 -11.767,-17.487 -18.072,-21.091c-2.255,-1.289 -6.396,-3.952 -9.202,-5.918c-7.137,-5 -12.141,-6.747 -23.381,-8.164c-23.514,-2.963 -45.649,-3.534 -62.953,-1.623z" data-paper-data="{&quot;wickUUID&quot;:&quot;3491c8e9-0114-4b22-94cd-87ad0cf4be0b&quot;,&quot;wickType&quot;:&quot;path&quot;,&quot;originalStyle&quot;:{&quot;strokeColor&quot;:null,&quot;fillColor&quot;:[&quot;Color&quot;,0.50196,0,0.25098],&quot;strokeWidth&quot;:1}}" id="3491c8e9-0114-4b22-94cd-87ad0cf4be0b" fill-rule="evenodd"/><path d="M718.66945,111.8091c-8.016,2.928 -16.027,7.68 -19.394,11.505c-3.781,4.295 -9.104,14.426 -9.104,17.326c0,2.107 2.64,5.291 4.387,5.291c1.998,0 4.757,-2.586 4.757,-4.46c0,-2.411 5.203,-11.174 8.13,-13.693c3.526,-3.034 15.924,-8.831 16.868,-7.887c1.167,1.168 -1.8,10.054 -6.324,18.939c-4.766,9.36 -5.314,12.93 -2.727,17.75c1.059,1.97 6.915,10.48 13.014,18.91c9.758,13.487 11.365,15.328 13.379,15.328c1.259,0 2.967,-0.75 3.796,-1.666c1.261,-1.392 1.349,-2.015 0.537,-3.796c-0.997,-2.188 -12.614,-18.811 -18.838,-26.956c-1.922,-2.515 -3.739,-5.349 -4.038,-6.299c-0.372,-1.182 0.913,-4.79 4.075,-11.443c7.449,-15.671 8.562,-24.005 3.783,-28.33c-2.357,-2.133 -7.31,-2.342 -12.301,-0.519z" data-paper-data="{&quot;wickUUID&quot;:&quot;8fa90df2-9fa2-4ba7-9f77-4f841d965afa&quot;,&quot;wickType&quot;:&quot;path&quot;,&quot;originalStyle&quot;:{&quot;strokeColor&quot;:null,&quot;fillColor&quot;:[&quot;Color&quot;,0.50196,0,0.25098],&quot;strokeWidth&quot;:1}}" id="8fa90df2-9fa2-4ba7-9f77-4f841d965afa" fill-rule="evenodd"/><path d="M481.82355,488.81999c-1.44,1.135 -6.462,7.209 -11.161,13.499c-4.699,6.289 -10.663,14.054 -13.253,17.254c-20.709,25.587 -76.459,105.397 -76.459,109.455c0,2.655 2.506,4.395 5.314,3.69c1.227,-0.308 5.653,-6.04 13.374,-17.319c31.161,-45.521 50.122,-71.979 63.612,-88.76c3.491,-4.344 9.647,-12.368 13.68,-17.832c4.033,-5.464 8.775,-11.23 10.538,-12.813c6.819,-6.121 1.536,-12.835 -5.645,-7.174z" data-paper-data="{&quot;wickUUID&quot;:&quot;2ff70e76-1068-48a2-b613-1dac71f88f10&quot;,&quot;wickType&quot;:&quot;path&quot;,&quot;originalStyle&quot;:{&quot;strokeColor&quot;:null,&quot;fillColor&quot;:[&quot;Color&quot;,0.50196,0,0.25098],&quot;strokeWidth&quot;:1}}" id="2ff70e76-1068-48a2-b613-1dac71f88f10" fill-rule="evenodd"/><path d="M693.49655,500.12064c-12.679,0.736 -17.35,1.669 -18.889,3.772c-1.494,2.043 -1.326,3.362 0.684,5.372c1.323,1.323 2.378,1.627 4.364,1.259c9.023,-1.672 21.57,-2.306 35.869,-1.812c18.13,0.626 32.578,1.6 33.218,2.241c0.242,0.242 -0.65,2.468 -1.984,4.946c-1.333,2.478 -7.342,16.823 -13.354,31.877c-6.56,16.429 -13.085,31.292 -16.322,37.178c-7.031,12.783 -11.761,23.026 -15.996,34.64c-4.06,11.134 -4.336,14.476 -1.356,16.429c3.624,2.374 5.415,0.275 9.026,-10.579c3.674,-11.043 7.678,-19.92 16.463,-36.495c3.721,-7.023 10.578,-22.561 16.491,-37.373c5.567,-13.944 12.146,-29.269 14.619,-34.055c7.258,-14.044 6.608,-15.013 -10.712,-15.965c-6.493,-0.357 -15.921,-1.03 -20.95,-1.496c-9.992,-0.925 -14.313,-0.917 -31.171,0.061z" data-paper-data="{&quot;wickUUID&quot;:&quot;d7610a45-3dac-40d8-bc4f-e32450a9bd54&quot;,&quot;wickType&quot;:&quot;path&quot;,&quot;originalStyle&quot;:{&quot;strokeColor&quot;:null,&quot;fillColor&quot;:[&quot;Color&quot;,0.50196,0,0.25098],&quot;strokeWidth&quot;:1}}" id="d7610a45-3dac-40d8-bc4f-e32450a9bd54" fill-rule="evenodd"/></g><g fill="none" fill-rule="nonzero" stroke="none" stroke-width="1" stroke-linecap="butt" stroke-linejoin="miter" stroke-miterlimit="10" stroke-dasharray="" stroke-dashoffset="0" font-family="sans-serif" font-weight="normal" font-size="12" text-anchor="start" style="mix-blend-mode: normal"/><g id="wick_project_gui" fill="none" fill-rule="nonzero" stroke="none" stroke-width="1" stroke-linecap="butt" stroke-linejoin="miter" stroke-miterlimit="10" stroke-dasharray="" stroke-dashoffset="0" font-family="sans-serif" font-weight="normal" font-size="12" text-anchor="start" style="mix-blend-mode: normal"/></g></svg>