<svg version="1.1" xmlns="http://www.w3.org/2000/svg" xmlns:xlink="http://www.w3.org/1999/xlink" width="1260" height="594" viewBox="0,0,1260,594"><g transform="translate(259.74321,92.84357) scale(0.66226,0.66226)"><g id="wick_project_bg" fill-opacity="0" fill="#ffffff" fill-rule="nonzero" stroke="none" stroke-width="1" stroke-linecap="butt" stroke-linejoin="miter" stroke-miterlimit="10" stroke-dasharray="" stroke-dashoffset="0" font-family="none" font-weight="none" font-size="none" text-anchor="none" style="mix-blend-mode: normal"><rect x="0" y="0" width="720" height="480"/></g><g data-paper-data="{&quot;wickUUID&quot;:&quot;7a63cdd7-4794-415b-b475-43d38ed026df&quot;,&quot;wickType&quot;:&quot;clipsandpaths&quot;}" fill="#800040" fill-rule="evenodd" stroke="none" stroke-width="1" stroke-linecap="butt" stroke-linejoin="miter" stroke-miterlimit="10" stroke-dasharray="" stroke-dashoffset="0" font-family="none" font-weight="none" font-size="none" text-anchor="none" style="mix-blend-mode: normal"><path d="M677.48146,192.97028c-22.241,4.245 -26.756,6.754 -36.931,20.52c-2.566,3.472 -6.25,8.266 -8.186,10.653c-1.937,2.386 -3.957,5.661 -4.49,7.276c-0.533,1.615 -1.048,8.97 -1.144,16.343l-0.175,13.408l2.526,3.892c10.667,16.441 19.993,27.552 23.125,27.552c0.595,0 2.525,1.305 4.29,2.899c1.809,1.635 4.566,3.153 6.322,3.483c1.712,0.321 12.057,0.378 22.988,0.126c19.749,-0.455 19.957,-0.479 33.018,-3.823c14.809,-3.792 17.064,-4.765 22.37,-9.657c5.588,-5.15 6.153,-6.739 6.153,-17.3c0,-8.812 0.087,-9.261 2.04,-10.541c3.925,-2.572 3.462,-7.548 -0.802,-8.618c-1.395,-0.35 -2.085,-1.116 -2.095,-2.325c-0.066,-8.146 -5.967,-22.834 -13.94,-34.694c-5.796,-8.621 -11.558,-14.109 -17.824,-16.978c-4.523,-2.07 -5.637,-2.205 -19.965,-2.405c-8.346,-0.117 -16.122,-0.032 -17.28,0.189zM713.32546,204.68128c5.197,3.207 12.425,12.563 17.536,22.698c4.179,8.288 6.204,15.164 6.569,22.306l0.237,4.63l-6.152,3.223c-3.383,1.772 -11.064,4.921 -17.068,6.997c-9.951,3.44 -11.845,3.818 -21.394,4.269c-12.053,0.57 -12.673,0.217 -9.738,-5.536c2.903,-5.69 2.276,-7.983 -3.989,-14.598c-1.625,-1.715 -4.012,-3.351 -5.304,-3.635c-3.77,-0.828 -9.245,2.219 -16.582,9.229c-6.432,6.146 -7.962,8.557 -10.576,16.675c-0.261,0.811 -0.771,1.457 -1.132,1.437c-0.362,-0.02 -2.836,-3.113 -5.498,-6.873l-4.84,-6.838l0.001,-11.013c0.002,-12.782 -0.163,-12.34 9.171,-24.58c6.788,-8.901 12.63,-14.922 16.372,-16.876c5.92,-3.09 15.566,-4.352 32.185,-4.208l16.063,0.138l4.139,2.555zM674.69846,258.50028c-0.211,0.939 -1.054,3.441 -1.874,5.56c-1.96,5.067 -1.205,7.754 3.043,10.831c4.468,3.236 10.091,3.899 22.078,2.601c9.873,-1.069 25.783,-5.834 34.889,-10.448c2.396,-1.214 4.67,-2.207 5.055,-2.207c0.384,0 0.547,2.556 0.36,5.681c-0.28,4.7 -0.723,6.101 -2.565,8.106c-2.518,2.741 -9.242,6.015 -14.113,6.872c-1.796,0.316 -5.916,1.351 -9.157,2.3c-5.074,1.486 -8.884,1.775 -27.432,2.081l-21.54,0.356l-2.28,-2.71c-9.139,-10.861 -7.326,-19.284 6.541,-30.394c3.959,-3.171 4.171,-3.238 5.744,-1.814c0.966,0.874 1.477,2.175 1.251,3.185z" data-paper-data="{&quot;wickUUID&quot;:&quot;732e7ea7-0b4c-436c-92df-ffee5004aa72&quot;,&quot;wickType&quot;:&quot;path&quot;,&quot;originalStyle&quot;:{&quot;strokeColor&quot;:null,&quot;fillColor&quot;:[&quot;Color&quot;,0.50196,0,0.25098],&quot;strokeWidth&quot;:1}}" id="6ee46a5b-1dcd-4b4c-aabd-cbec10cb0451"/><path d="M643.72426,216.94465c-2.389,2.389 -1.66,5.707 2.466,11.21c1.763,2.351 3.444,4.916 3.735,5.699c0.991,2.662 4.392,3.938 14.062,5.278c15.981,2.215 38.069,-0.37 55.368,-6.478c10.912,-3.853 13.682,-5.666 13.682,-8.955c0,-4.711 -2.948,-5.42 -9.599,-2.31c-15.603,7.298 -41.505,11.301 -57.988,8.961l-7.11,-1.009l-3.476,-4.736c-1.912,-2.604 -3.477,-5.202 -3.477,-5.773c0,-1.201 -3.235,-3.658 -4.817,-3.658c-0.591,0 -1.872,0.797 -2.846,1.771z" data-paper-data="{&quot;wickUUID&quot;:&quot;f3bba213-0743-4ddd-83b3-e45086767f8c&quot;,&quot;wickType&quot;:&quot;path&quot;,&quot;originalStyle&quot;:{&quot;strokeColor&quot;:null,&quot;fillColor&quot;:[&quot;Color&quot;,0.50196,0,0.25098],&quot;strokeWidth&quot;:1}}" id="cb59aa86-a096-40d8-85d9-b4f65269bb10"/><path d="M708.37332,244.0039c-4.034,4.992 -4.798,6.725 -4.794,10.887c0.006,7.439 5.585,12.113 15.571,13.046c6.33,0.591 9.678,-0.909 9.678,-4.334c0,-2.849 -2.994,-4.658 -7.708,-4.658c-5.938,0 -8.285,-1.149 -8.285,-4.058c0,-1.338 0.743,-3.088 1.666,-3.923c1.49,-1.348 2.072,-1.394 5.522,-0.427c6.908,1.934 27.222,-0.539 29.13,-3.547c1.103,-1.738 0.833,-3.804 -0.696,-5.333c-1.498,-1.499 -1.871,-1.489 -15.541,0.421c-5.226,0.73 -7.354,0.659 -11.33,-0.377c-8.108,-2.111 -9.898,-1.8 -13.213,2.303z" data-paper-data="{&quot;wickUUID&quot;:&quot;9b9e683f-2734-46ec-acc4-a21245cb8995&quot;,&quot;wickType&quot;:&quot;path&quot;,&quot;originalStyle&quot;:{&quot;strokeColor&quot;:null,&quot;fillColor&quot;:[&quot;Color&quot;,0.50196,0,0.25098],&quot;strokeWidth&quot;:1}}" id="4c9f3f9d-05b4-47b2-a933-4ebae0468960"/><path d="M676.64654,218.11165c-1.178,1.42 -0.921,3.408 1.519,11.757c2.291,7.835 4.73,9.636 8.693,6.419l1.987,-1.614l-1.894,-7.369c-1.042,-4.053 -2.521,-8.061 -3.287,-8.908c-1.682,-1.858 -5.581,-2.016 -7.018,-0.285z" data-paper-data="{&quot;wickUUID&quot;:&quot;71080dac-a705-4dd3-9b12-c1098699eeee&quot;,&quot;wickType&quot;:&quot;path&quot;,&quot;originalStyle&quot;:{&quot;strokeColor&quot;:null,&quot;fillColor&quot;:[&quot;Color&quot;,0.50196,0,0.25098],&quot;strokeWidth&quot;:1}}" id="1b0c5c7c-dd91-4e25-931c-22b2f86f1577"/><path d="M720.34154,211.87614c-1.511,1.511 -1.672,2.353 -1.166,6.103c0.323,2.392 0.922,4.987 1.332,5.765c1.161,2.211 3.931,2.684 6.368,1.088c2.059,-1.349 2.146,-1.696 1.648,-6.594c-0.388,-3.816 -0.992,-5.555 -2.308,-6.642c-2.33,-1.926 -3.735,-1.859 -5.874,0.28z" data-paper-data="{&quot;wickUUID&quot;:&quot;f92badfc-fc08-47bf-ba5f-000c36b32889&quot;,&quot;wickType&quot;:&quot;path&quot;,&quot;originalStyle&quot;:{&quot;strokeColor&quot;:null,&quot;fillColor&quot;:[&quot;Color&quot;,0.50196,0,0.25098],&quot;strokeWidth&quot;:1}}" id="a81310a4-3cf1-4927-929c-43deebe60d89"/><path d="M569.19291,132.14843c-2.19845,3.67401 -1.53699,4.79557 8.88317,15.04602c3.24996,3.19803 5.98682,6.12293 6.08168,6.50019c0.09486,0.37726 -1.97476,1.22554 -4.59907,1.88541c-3.5854,0.90152 -5.01364,1.65556 -5.74714,3.03198c-1.64723,3.09408 -0.38929,4.98853 5.90959,8.90372c3.32919,2.06965 8.94812,5.88875 12.48733,8.48611c10.44698,7.67105 40.27165,21.82036 44.01028,20.88031c3.20329,-0.80545 4.77867,-6.61705 4.54805,-16.77753c-0.1574,-6.9659 -1.65863,-10.13138 -5.91541,-12.4782c-1.42572,-0.78606 -5.32862,-3.29199 -8.67361,-5.56801l-6.08211,-4.13983l3.41104,-8.55814c3.7115,-9.31114 3.73684,-11.90874 0.12669,-13.16017c-3.34809,-1.1606 -4.83544,0.17852 -7.29869,6.56808c-1.19827,3.10803 -3.23268,7.74201 -4.52144,10.29742c-3.71535,7.36843 -3.03776,8.57461 9.35661,16.65824c9.17671,5.98594 10.38208,7.03982 10.38947,9.08681c0.01991,5.5538 -0.07218,6.67614 -0.55612,6.79782c-0.28319,0.0712 -5.20994,-1.99166 -10.94822,-4.58361c-9.36884,-4.23214 -28.62816,-15.68133 -29.02369,-17.25437c-0.08584,-0.34137 0.67992,-0.83089 1.70307,-1.08815c2.90071,-0.72936 4.92583,-3.6246 4.27682,-6.11553c-0.8694,-3.33053 -5.96948,-9.78161 -13.13987,-16.61745c-3.54926,-3.38365 -6.59836,-6.73427 -6.77735,-7.44611c-0.3509,-1.39556 -3.93594,-3.08844 -5.63602,-2.66097c-0.57413,0.14436 -1.59282,1.18211 -2.26506,2.30596z" data-paper-data="{&quot;wickUUID&quot;:&quot;7fd17d48-3fab-4e7f-a031-4e80e10722b7&quot;,&quot;wickType&quot;:&quot;path&quot;,&quot;originalStyle&quot;:{&quot;strokeColor&quot;:null,&quot;fillColor&quot;:[&quot;Color&quot;,0.50196,0,0.25098],&quot;strokeWidth&quot;:1}}" id="214b2362-accd-472a-86f2-51839b0d369b"/><path d="M679.76803,116.8988c-1.879,1.968 -7.344,8.502 -12.142,14.521c-4.799,6.018 -13.283,16.382 -18.854,23.029c-5.571,6.648 -10.634,12.782 -11.252,13.632c-1.407,1.933 -0.592,4.704 1.752,5.958c2.655,1.421 6.535,-1.04 11.3,-7.169c2.2,-2.831 7.632,-9.503 12.07,-14.827c7.012,-8.412 12.4,-15 24.192,-29.578c3.181,-3.933 3.354,-5.157 1.052,-7.459c-2.502,-2.502 -4.325,-2.077 -8.118,1.893z" data-paper-data="{&quot;wickUUID&quot;:&quot;9315dab2-cb06-446b-adcd-01fb8ef67e60&quot;,&quot;wickType&quot;:&quot;path&quot;,&quot;originalStyle&quot;:{&quot;strokeColor&quot;:null,&quot;fillColor&quot;:[&quot;Color&quot;,0.50196,0,0.25098],&quot;strokeWidth&quot;:1}}" id="632bf68b-bac8-4b4c-90ee-2c7c2eae94a6"/><path d="M650.2412,151.41754c-1.37585,0.75737 -1.96538,3.84225 -1.09022,5.69889c0.28751,0.61031 4.15962,3.66635 8.60372,6.79097c10.70314,7.52518 12.28007,8.74857 11.95774,9.28744c-0.33031,0.55222 -17.40411,7.51386 -17.81943,7.26461c-0.16239,-0.09631 -1.48586,-3.10026 -2.94108,-6.67326c-2.16749,-5.31902 -3.04046,-6.63383 -4.81739,-7.25013c-1.24819,-0.43269 -2.82625,-0.34832 -3.71149,0.19907c-2.77616,1.7168 -2.72612,4.1057 0.24437,11.53976c5.41458,13.5538 6.95186,14.50877 16.47238,10.23206c3.21673,-1.44503 9.37201,-4.14966 13.67765,-6.00872c9.60921,-4.1495 11.04512,-5.15191 11.58224,-8.08441c0.33223,-1.81583 0.04695,-2.7577 -1.34091,-4.4184c-3.13963,-3.75577 -27.30224,-20.1681 -28.81437,-19.57135c-0.38761,0.15211 -1.28875,0.59935 -2.00321,0.99347z" data-paper-data="{&quot;wickUUID&quot;:&quot;d9c57c5b-743b-43d5-9cb2-07c7ac0df0cd&quot;,&quot;wickType&quot;:&quot;path&quot;,&quot;originalStyle&quot;:{&quot;strokeColor&quot;:null,&quot;fillColor&quot;:[&quot;Color&quot;,0.50196,0,0.25098],&quot;strokeWidth&quot;:1}}" id="fbbfddd9-4f77-448a-9220-a9c1c670f9e4"/><path d="M603.10397,178.0854c-0.49783,0.96039 -0.58058,4.14985 -0.18489,7.08909c0.39544,2.93827 0.39087,8.49719 -0.00966,12.3543c-0.55806,5.37123 -0.43277,7.43601 0.53853,8.82612c2.34551,3.35739 4.30662,3.15197 12.44832,-1.30186c4.07885,-2.23202 8.99519,-4.45498 10.92318,-4.93976c4.99453,-1.25584 6.4314,-3.87426 4.56463,-8.31717c-0.76963,-1.83059 -1.87035,-3.86663 -2.44727,-4.52482c-2.44175,-2.78463 -7.374,-0.67007 -7.37268,3.16127c0.00096,1.59904 -0.82701,2.3496 -4.4269,4.00955c-2.43475,1.12261 -4.54218,1.98866 -4.68318,1.92409c-0.141,-0.06457 -0.11263,-1.67819 0.06304,-3.58767c0.17495,-1.90827 -0.04532,-6.04442 -0.48979,-9.18999c-0.68201,-4.82432 -1.09313,-5.90984 -2.62613,-6.93393c-2.2654,-1.51326 -5.10777,-0.86765 -6.2972,1.43078z" data-paper-data="{&quot;wickUUID&quot;:&quot;82b7e4e5-51d9-45c0-8997-4ba97caca414&quot;,&quot;wickType&quot;:&quot;path&quot;,&quot;originalStyle&quot;:{&quot;strokeColor&quot;:null,&quot;fillColor&quot;:[&quot;Color&quot;,0.50196,0,0.25098],&quot;strokeWidth&quot;:1}}" id="45af9e66-2f41-43d0-8e55-66daf3980235"/><path d="M749.21798,201.33261c-2.417,1.693 -2.37,4.031 0.146,7.374c2.171,2.882 13.474,27.364 14.283,30.934c0.364,1.604 -1.015,5.243 -5.344,14.108c-9.137,18.709 -18.967,29.34 -30.131,32.585c-2.569,0.747 -7.404,2.444 -10.742,3.77c-11.994,4.764 -39.225,8.187 -58.144,7.309c-12.05,-0.559 -21.608,-2.987 -27.306,-6.935c-3.844,-2.664 -8.535,-9.24 -13.786,-19.328c-4.515,-8.672 -6.271,-10.378 -9.271,-9.011c-3.771,1.718 -3.548,3.979 1.327,13.431c8.694,16.855 15.585,23.782 27.109,27.248c13.688,4.116 23.371,4.852 42.648,3.242c18.351,-1.533 30.244,-3.957 45.143,-9.2c16.253,-5.72 20.016,-8.228 29.459,-19.632c4.956,-5.983 7.646,-10.324 11.747,-18.95c7.459,-15.691 7.604,-16.164 6.301,-20.533c-3.208,-10.756 -14.17,-33.416 -17.391,-35.95c-2.693,-2.118 -3.586,-2.186 -6.048,-0.462z" data-paper-data="{&quot;wickUUID&quot;:&quot;69051acf-670a-4ab5-bb95-5e11a867e812&quot;,&quot;wickType&quot;:&quot;path&quot;,&quot;originalStyle&quot;:{&quot;strokeColor&quot;:null,&quot;fillColor&quot;:[&quot;Color&quot;,0.50196,0,0.25098],&quot;strokeWidth&quot;:1}}" id="8d477b8e-2899-4506-a9bf-9b1643f15fc3"/><path d="M626.94917,83.01044c-12.875,1.653 -11.771,1.381 -26.488,6.522c-19.292,6.739 -21.892,8.456 -30.292,20.001c-11.257,15.475 -13.764,19.912 -15.539,27.507c-3.602,15.41 -3.105,28.482 2.041,53.722c3.764,18.463 11.149,37.177 19.928,50.505c4.567,6.934 18.691,21.543 26.232,27.133c5.058,3.75 6.058,4.186 8.018,3.501c1.775,-0.62 2.291,-1.403 2.491,-3.776c0.238,-2.822 -0.081,-3.243 -5.54,-7.302c-6.96,-5.175 -18.844,-17.48 -23.153,-23.971c-13.321,-20.068 -22.83,-52.93 -22.838,-78.918c-0.005,-17.228 1.378,-22.139 9.723,-34.523c12.172,-18.065 13.082,-18.769 33.559,-25.962c13.61,-4.781 19.683,-5.827 39.562,-6.814c15.544,-0.771 19.346,-0.238 40.825,5.732c23.867,6.633 27.988,8.884 38.783,21.187c12.901,14.703 16.416,21.19 20.968,38.697c5.708,21.95 6.039,23.91 5.316,31.441c-1.454,15.133 -2.311,19.425 -4.162,20.83c-2.233,1.696 -2.339,5.678 -0.193,7.269c1.966,1.458 6.041,0.765 8.199,-1.394c2.385,-2.384 3.838,-9.25 4.918,-23.229c0.924,-11.968 0.878,-13.045 -0.858,-20.202c-8.745,-36.048 -12.059,-42.914 -30.185,-62.549c-6.962,-7.54 -7.926,-8.258 -16.67,-12.41c-8.79,-4.174 -32.388,-11.294 -45.801,-13.819c-6.669,-1.255 -25.814,-0.85 -38.844,0.822z" data-paper-data="{&quot;wickUUID&quot;:&quot;acb19773-2d67-42d3-9b79-c4b681fe6b37&quot;,&quot;wickType&quot;:&quot;path&quot;,&quot;originalStyle&quot;:{&quot;strokeColor&quot;:null,&quot;fillColor&quot;:[&quot;Color&quot;,0.50196,0,0.25098],&quot;strokeWidth&quot;:1}}" id="db58b2d4-2e85-4ad4-aa28-79bbd3ca1ddb"/><path d="M583.62641,-5.29882c-6.944,0.357 -16.793,1.057 -21.885,1.554c-5.093,0.497 -11.602,0.904 -14.466,0.904c-6.469,0.001 -9.331,1.041 -9.98,3.628c-1.018,4.058 1.295,24.868 3.879,34.9c5.658,21.959 11.044,34.573 24.289,56.883c3.616,6.089 7.189,12.276 7.94,13.748c1.728,3.384 4.173,4.21 6.994,2.361c3.263,-2.138 2.348,-4.94 -6.456,-19.768c-13.597,-22.902 -18.273,-33.764 -23.648,-54.924c-2.001,-7.878 -4.623,-26.508 -3.841,-27.29c0.092,-0.093 9.234,-0.95 20.316,-1.906c35.024,-3.022 54.875,-2.019 72.241,3.65c8.194,2.674 9.263,3.264 15.081,8.312c6.517,5.655 7.123,6.783 8.739,16.264c0.772,4.529 2.645,11.922 4.163,16.429c1.518,4.506 2.602,8.351 2.41,8.543c-0.193,0.193 -2.147,0.054 -4.342,-0.307c-2.196,-0.362 -7.402,-0.679 -11.569,-0.706c-9.394,-0.061 -13.331,1.502 -13.718,5.446c-0.216,2.207 0.473,3.189 5.102,7.279c2.944,2.6 7.16,7.398 9.37,10.662c2.209,3.263 4.549,6.375 5.198,6.914c1.702,1.412 5.315,0.242 6.364,-2.061c1.104,-2.421 -0.036,-4.837 -5.998,-12.713c-2.317,-3.062 -4.213,-5.736 -4.213,-5.943c0,-0.884 8.462,-0.272 12.394,0.895c4.895,1.454 7.681,0.817 9.827,-2.247c2.059,-2.939 1.63,-7.612 -1.558,-16.991c-1.598,-4.702 -3.54,-12.336 -4.314,-16.966c-0.775,-4.63 -2.089,-9.764 -2.919,-11.409c-2.411,-4.774 -12.978,-14.165 -19.021,-16.905c-2.923,-1.326 -5.929,-2.41 -6.679,-2.41c-0.751,0 -2.558,-0.543 -4.017,-1.208c-5.696,-2.593 -27.014,-5.608 -38.006,-5.376c-2.778,0.059 -10.732,0.4 -17.677,0.758z" data-paper-data="{&quot;wickUUID&quot;:&quot;ec1a5e55-390e-4677-9f62-9676f62aab7d&quot;,&quot;wickType&quot;:&quot;path&quot;,&quot;originalStyle&quot;:{&quot;strokeColor&quot;:null,&quot;fillColor&quot;:[&quot;Color&quot;,0.50196,0,0.25098],&quot;strokeWidth&quot;:1}}"/><path d="M703.15503,-4.00557c-1.852,0.188 -10.374,1.274 -18.939,2.415c-8.565,1.14 -16.861,2.178 -18.436,2.306c-1.904,0.155 -3.39,0.943 -4.439,2.354c-1.557,2.096 -1.54,2.266 1.423,14.31c4.456,18.111 5.845,23.003 9.556,33.653c1.855,5.324 4.686,13.847 6.291,18.939c4.304,13.66 7.359,21.806 8.438,22.504c1.831,1.186 4.656,0.631 5.912,-1.161c1.526,-2.179 1.09,-5.089 -1.808,-12.084c-1.151,-2.777 -3.714,-10.542 -5.696,-17.255c-1.981,-6.713 -4.809,-15.426 -6.284,-19.361c-2.243,-5.98 -6.721,-23.051 -8.181,-31.183l-0.385,-2.143l17.537,-2.466c15.326,-2.155 19.871,-2.457 36.055,-2.392c11.789,0.047 22.495,0.579 29.461,1.463c12.632,1.603 39.287,6.345 40.141,7.141c0.319,0.297 0.027,3.381 -0.648,6.853c-1.842,9.471 -6.639,48.357 -9.658,78.283c-1.471,14.583 -2.823,27.029 -3.005,27.658c-0.183,0.629 -3.598,-3.159 -7.589,-8.418c-20.122,-26.505 -31.465,-36.917 -40.215,-36.917c-5.543,0 -5.806,0.909 -5.336,18.475c0.23,8.589 0.833,16.647 1.339,17.907c1.245,3.094 4.77,3.975 6.997,1.748c1.564,-1.565 1.606,-2.197 0.774,-11.685c-1.514,-17.256 -1.458,-17.421 4.343,-12.826c7.262,5.751 27.887,31.449 33.846,42.169c3.323,5.978 6.766,8.707 9.778,7.751c3.506,-1.113 3.861,-2.938 7.533,-38.707c4.703,-45.809 8.861,-78.434 11.404,-89.489c1.7,-7.39 1.581,-8.346 -1.216,-9.793c-2.873,-1.485 -29.102,-6.568 -43.965,-8.52c-9.889,-1.298 -47.094,-2.332 -55.028,-1.529z" data-paper-data="{&quot;wickUUID&quot;:&quot;663b45c6-3801-418f-ba19-148a107f6a9b&quot;,&quot;wickType&quot;:&quot;path&quot;,&quot;originalStyle&quot;:{&quot;strokeColor&quot;:null,&quot;fillColor&quot;:[&quot;Color&quot;,0.50196,0,0.25098],&quot;strokeWidth&quot;:1}}"/><path d="M770.33985,126.79605c-1.011,0.407 -2.304,1.609 -2.872,2.67c-0.567,1.061 -4.897,5.912 -9.62,10.78c-10.295,10.608 -11.14,11.957 -9.279,14.799c2.537,3.872 4.646,2.783 14.909,-7.697c5.248,-5.359 9.846,-10.283 10.216,-10.942c1.106,-1.97 4.008,-1.385 11.002,2.216c3.643,1.876 9.885,4.761 13.871,6.411c7.306,3.024 15.442,8.003 18.717,11.453c1.521,1.604 1.713,2.587 1.347,6.92c-0.42,4.973 -4.291,19.594 -5.518,20.84c-0.345,0.351 -4.059,-0.85 -8.253,-2.668c-8.545,-3.706 -25.981,-9.454 -33.26,-10.963c-6.417,-1.332 -9.625,0.148 -10.382,4.788c-0.714,4.377 -5.323,23.357 -6.837,28.153c-0.919,2.911 -1.012,4.395 -0.354,5.624c1.961,3.664 6.91,2.847 8.615,-1.423c0.497,-1.245 2.327,-7.93 4.068,-14.856c1.74,-6.926 3.597,-12.738 4.127,-12.914c2.782,-0.928 36.109,11.238 42.805,15.625c3.571,2.34 5.413,0.514 8.398,-8.326c6.222,-18.43 7.45,-27.644 4.464,-33.498c-2.626,-5.146 -12.451,-12.052 -23.914,-16.808c-3.645,-1.512 -10.309,-4.612 -14.81,-6.89c-8.38,-4.242 -12.947,-5.104 -17.44,-3.294z" data-paper-data="{&quot;wickUUID&quot;:&quot;3d2198dc-7e21-47e1-876a-b93c35e5c6ea&quot;,&quot;wickType&quot;:&quot;path&quot;,&quot;originalStyle&quot;:{&quot;strokeColor&quot;:null,&quot;fillColor&quot;:[&quot;Color&quot;,0.50196,0,0.25098],&quot;strokeWidth&quot;:1}}"/><path d="M483.8796,46.82398c-0.926,0.925 -1.684,2.46 -1.684,3.41c0,0.95 -0.818,5.78 -1.818,10.732c-1.698,8.411 -1.752,9.783 -0.824,20.79c1.247,14.782 7.885,68.514 10.637,86.102c5.459,34.885 8.042,48.634 9.51,50.611c2.101,2.83 4.89,3.67 32.579,9.808c13.426,2.976 27.943,6.204 32.261,7.172c4.317,0.969 8.762,1.532 9.878,1.252c3.677,-0.923 3.761,-7.695 0.103,-8.42c-23.785,-4.717 -66.177,-14.39 -67.026,-15.295c-1.725,-1.838 -10.603,-60.355 -15.567,-102.61c-3.514,-29.919 -4.248,-40.064 -3.226,-44.613l0.756,-3.367l3.313,5.345c1.822,2.94 10.766,16.815 19.874,30.833c9.109,14.019 17.685,27.712 19.058,30.429c1.373,2.718 3.309,5.676 4.303,6.573c1.573,1.421 2.162,1.502 4.571,0.631c3.651,-1.32 8.593,-1.209 12.746,0.287c4.488,1.617 5.773,1.547 7.545,-0.411c1.933,-2.136 1.185,-5.252 -1.716,-7.153c-1.288,-0.844 -5.592,-1.838 -10.471,-2.418l-8.285,-0.985l-5.39,-8.838c-2.965,-4.861 -10.119,-16.036 -15.897,-24.832c-5.778,-8.796 -14.41,-22.348 -19.182,-30.116c-10.376,-16.89 -12.293,-18.673 -16.048,-14.917z" data-paper-data="{&quot;wickUUID&quot;:&quot;597d40bf-26b1-4491-8608-490cdd7d386b&quot;,&quot;wickType&quot;:&quot;path&quot;,&quot;originalStyle&quot;:{&quot;strokeColor&quot;:null,&quot;fillColor&quot;:[&quot;Color&quot;,0.50196,0,0.25098],&quot;strokeWidth&quot;:1}}"/><path d="M692.35543,320.46719c-17.655,5.034 -22.387,8.249 -25.912,17.602c-4.298,11.408 2.447,29.359 12.924,34.393c2.287,1.099 6.855,2.052 12.616,2.631c8.359,0.841 9.271,0.785 12.285,-0.752c4.29,-2.189 8.226,-6.78 11.199,-13.065c2.893,-6.115 3.022,-9.497 0.825,-21.591c-2.233,-12.293 -3.727,-15.6 -8.384,-18.553c-4.511,-2.862 -7.412,-2.985 -15.553,-0.665zM704.69243,331.53519c1.91,3.909 4.214,17.659 3.666,21.877c-0.225,1.726 -1.499,4.913 -2.833,7.083c-2.659,4.328 -2.566,4.294 -13.873,5.046l-6.453,0.43l-3.499,-3.161c-4.404,-3.979 -6.41,-7.885 -7.168,-13.957c-0.509,-4.07 -0.292,-5.436 1.479,-9.303l2.075,-4.533l7.484,-2.639c15.254,-5.381 16.87,-5.452 19.122,-0.843z" data-paper-data="{&quot;wickUUID&quot;:&quot;e7f02ba6-eee1-43a5-b0af-b61a847401e5&quot;,&quot;wickType&quot;:&quot;path&quot;,&quot;originalStyle&quot;:{&quot;strokeColor&quot;:null,&quot;fillColor&quot;:[&quot;Color&quot;,0.50196,0,0.25098],&quot;strokeWidth&quot;:1}}"/><path d="M721.67379,326.45801c-3.409,1.192 -6.213,3.867 -7.652,7.302l-1.192,2.845l-1.681,-2.136c-0.924,-1.175 -1.68,-2.681 -1.68,-3.346c0,-2.058 -2.936,-3.996 -6.054,-3.996c-3.957,0 -16.188,3.084 -20.057,5.058c-5.679,2.898 -12.61,13.092 -12.583,18.511c0.025,5.263 7.069,15.168 12.362,17.384c6.245,2.614 17.287,0.234 21.647,-4.666c0.895,-1.007 2.874,-2.601 4.398,-3.542l2.771,-1.713l3.177,2.541c1.747,1.397 5.45,3.6 8.227,4.896c4.4,2.052 6.027,2.348 12.627,2.3c4.997,-0.037 8.631,-0.515 10.676,-1.406c3.708,-1.617 8.836,-8.25 9.608,-12.427c0.299,-1.621 1.634,-4.621 2.966,-6.668c2.875,-4.416 2.951,-5.327 0.743,-8.899c-3.22,-5.211 -10.93,-8.827 -25.101,-11.773c-7.026,-1.461 -9.63,-1.513 -13.202,-0.265z" data-paper-data="{&quot;wickUUID&quot;:&quot;3fcf8369-fa22-48a0-93a1-0c667954e564&quot;,&quot;wickType&quot;:&quot;path&quot;,&quot;originalStyle&quot;:{&quot;strokeColor&quot;:null,&quot;fillColor&quot;:[&quot;Color&quot;,0.50196,0,0.25098],&quot;strokeWidth&quot;:1}}"/><path d="M676.21904,333.15951c-5.622,3.109 -7.04,7.21 -3.332,9.639c2.466,1.616 4.248,1.079 8.616,-2.596c3.066,-2.58 3.423,-4.597 1.173,-6.632c-1.77,-1.602 -4.042,-1.747 -6.457,-0.411z" data-paper-data="{&quot;wickUUID&quot;:&quot;c25fe890-fd20-482d-a1fe-e838dafa499c&quot;,&quot;wickType&quot;:&quot;path&quot;,&quot;originalStyle&quot;:{&quot;strokeColor&quot;:null,&quot;fillColor&quot;:[&quot;Color&quot;,0.50196,0,0.25098],&quot;strokeWidth&quot;:1}}"/><path d="M638.90197,298.82998c-2.006,1.505 -5.036,3.455 -6.734,4.335c-1.698,0.879 -4.791,2.957 -6.875,4.619c-2.083,1.661 -6.439,4.875 -9.68,7.142c-3.241,2.268 -8.07,6.187 -10.732,8.711c-3.924,3.719 -4.84,5.096 -4.84,7.275c0,4.983 0.904,5.258 27.871,8.46c47.367,5.626 47.08,5.602 49.287,4.156c2.191,-1.436 2.515,-3.545 0.886,-5.772c-0.889,-1.217 -5.308,-1.979 -25.042,-4.322c-40.556,-4.814 -39.695,-4.678 -38.529,-6.083c1.296,-1.562 16.099,-12.246 22.778,-16.441c8.728,-5.481 11.57,-8.09 11.57,-10.622c0,-5.013 -4.369,-5.652 -9.96,-1.458z" data-paper-data="{&quot;wickUUID&quot;:&quot;531767ff-8ab7-426e-b792-f02882b9dbe0&quot;,&quot;wickType&quot;:&quot;path&quot;,&quot;originalStyle&quot;:{&quot;strokeColor&quot;:null,&quot;fillColor&quot;:[&quot;Color&quot;,0.50196,0,0.25098],&quot;strokeWidth&quot;:1}}"/><path d="M750.74351,264.7817c-1.509,2.82 -0.99,4.149 3.559,9.111c5.092,5.556 9.989,11.916 17.007,22.089c2.715,3.935 7.174,9.933 9.91,13.327c2.736,3.395 4.792,6.65 4.568,7.233c-0.569,1.482 -20.386,13.959 -24.909,15.682c-2.772,1.057 -4.437,1.223 -6.511,0.65c-7.388,-2.039 -9.587,6.188 -2.297,8.593c6.697,2.211 13.489,-0.289 30.209,-11.121c15.813,-10.243 17.014,-13.534 8.622,-23.629c-2.897,-3.484 -7.509,-9.503 -10.248,-13.375c-15.883,-22.451 -22.68,-30.188 -26.52,-30.188c-1.628,0 -2.826,0.575 -3.39,1.628z" data-paper-data="{&quot;wickUUID&quot;:&quot;b0819866-c974-4d0e-828a-0c301f3a7cbd&quot;,&quot;wickType&quot;:&quot;path&quot;,&quot;originalStyle&quot;:{&quot;strokeColor&quot;:null,&quot;fillColor&quot;:[&quot;Color&quot;,0.50196,0,0.25098],&quot;strokeWidth&quot;:1}}"/><path d="M750.71447,263.9957c-2.198,2.197 -2.146,3.019 0.848,13.469c6.802,23.74 9.784,47.016 9.006,70.285c-0.434,12.963 -0.628,14.145 -5.186,31.565c-2.605,9.954 -5.493,21.507 -6.418,25.674c-2.885,12.997 -8.523,32.459 -9.762,33.697c-2.621,2.621 -13.896,5.243 -25.105,5.838c-18.987,1.007 -38.652,-1.354 -56.714,-6.811c-19.231,-5.81 -38.603,-19.343 -41.856,-29.24c-0.782,-2.379 -1.577,-4.748 -1.767,-5.264c-0.189,-0.517 2.801,-2.932 6.646,-5.367c3.845,-2.436 10.211,-6.923 14.146,-9.972c10.094,-7.821 35.167,-32.714 39.979,-39.693c4.026,-5.84 4.035,-5.868 3.489,-11.097c-0.574,-5.49 -6.125,-22.8 -9.408,-29.339c-2.364,-4.71 -5.356,-6.559 -8.379,-5.181c-1.613,0.734 -2.112,1.597 -2.112,3.649c0,1.478 0.557,3.303 1.237,4.055c1.525,1.684 8.442,21.027 9.248,25.861c0.533,3.194 0.272,3.994 -2.761,8.46c-3.794,5.587 -25.683,27.124 -36.092,35.512c-3.797,3.059 -10.572,7.828 -15.055,10.598c-4.483,2.769 -8.718,5.897 -9.411,6.951c-2.459,3.738 0.81,15.4 6.288,22.431c7.126,9.147 25.431,20.404 41.746,25.674c18.177,5.871 27.782,7.181 52.78,7.201c21.251,0.016 21.531,-0.006 28.199,-2.301c9.206,-3.169 12.022,-5.052 13.898,-9.294c2.04,-4.611 6.627,-21.431 14.853,-54.466l6.602,-26.515l-0.069,-20.202c-0.089,-26.197 -2.038,-39.394 -10.304,-69.785c-2.105,-7.738 -5.035,-9.925 -8.566,-6.393z" data-paper-data="{&quot;wickUUID&quot;:&quot;20ffb185-221c-421f-9493-2f0d7062c1ba&quot;,&quot;wickType&quot;:&quot;path&quot;,&quot;originalStyle&quot;:{&quot;strokeColor&quot;:null,&quot;fillColor&quot;:[&quot;Color&quot;,0.50196,0,0.25098],&quot;strokeWidth&quot;:1}}"/><path d="M663.28765,447.01863c-10.286,4.329 -51.525,36.902 -75.432,59.582l-5.071,4.811l6.565,0.029l6.564,0.029l9.85,-8.781c22.792,-20.32 51.216,-42.371 61.38,-47.616c4.633,-2.391 5.757,-3.367 5.967,-5.18c0.181,-1.561 -0.319,-2.638 -1.66,-3.577c-2.37,-1.659 -2.598,-1.64 -8.163,0.703zM540.48565,482.19463c-1.043,0.503 -2.936,3.034 -4.209,5.625c-1.978,4.028 -2.311,5.748 -2.299,11.866c0.008,3.935 0.472,8.196 1.032,9.47l1.016,2.314h11.806c13.694,0 12.807,0.892 10.066,-10.123c-2.172,-8.725 -4.855,-14.093 -8.758,-17.52c-3.145,-2.761 -5.422,-3.191 -8.654,-1.632z" data-paper-data="{&quot;wickUUID&quot;:&quot;73dff04d-83fd-4042-be50-800d74b20da5&quot;,&quot;wickType&quot;:&quot;path&quot;,&quot;originalStyle&quot;:{&quot;strokeColor&quot;:null,&quot;fillColor&quot;:[&quot;Color&quot;,0.50196,0,0.25098],&quot;strokeWidth&quot;:1}}"/><path d="M548.81715,498.96293c-1.081,0.4 -2.154,1.446 -2.383,2.325c-0.394,1.504 -0.558,1.519 -2.762,0.253c-2.16,-1.239 -2.515,-1.233 -4.514,0.077c-2.477,1.623 -3.514,5.548 -2.893,10.957c0.553,4.815 5.771,15.492 9.779,20.009c2.988,3.367 3.66,3.718 7.128,3.718c3.081,0 4.328,-0.479 6.387,-2.451c5.795,-5.552 6.515,-16.81 1.693,-26.46c-1.352,-2.706 -3.164,-5.559 -4.026,-6.339c-2.192,-1.984 -6.082,-2.95 -8.409,-2.089z" data-paper-data="{&quot;wickUUID&quot;:&quot;4c179969-7df2-4efc-8929-99f084b230d9&quot;,&quot;wickType&quot;:&quot;path&quot;,&quot;originalStyle&quot;:{&quot;strokeColor&quot;:null,&quot;fillColor&quot;:[&quot;Color&quot;,0.50196,0,0.25098],&quot;strokeWidth&quot;:1}}"/><path d="M592.04441,504.47444c-1.389,0.744 -5.642,4.296 -9.45,7.891c-6.692,6.317 -11.021,8.965 -19.822,12.126c-10.369,3.724 -15.112,9.57 -10.315,12.714c2.125,1.392 2.341,1.347 8.195,-1.72c3.307,-1.733 7.746,-3.665 9.864,-4.294c5.365,-1.594 10.953,-5.325 18.57,-12.402c3.586,-3.331 7.518,-6.737 8.737,-7.569c2.754,-1.879 2.915,-5.059 0.347,-6.858c-2.299,-1.61 -2.938,-1.598 -6.126,0.112z" data-paper-data="{&quot;wickUUID&quot;:&quot;a9222728-bbb7-45c2-8dd8-7120ee6ecfba&quot;,&quot;wickType&quot;:&quot;path&quot;,&quot;originalStyle&quot;:{&quot;strokeColor&quot;:null,&quot;fillColor&quot;:[&quot;Color&quot;,0.50196,0,0.25098],&quot;strokeWidth&quot;:1}}"/><path d="M672.84967,445.29088c-2.541,1.858 -9.332,22.652 -11.689,35.796c-1.831,10.204 -1.775,10.289 15.163,23.393c17.128,13.25 30.935,24.537 31.328,25.609c0.169,0.46 -1.124,0.56 -3.116,0.242c-5.511,-0.882 -9.173,0.189 -10.691,3.124c-1.733,3.352 -0.917,6.866 2.204,9.493c3.478,2.925 11.427,5.787 16.366,5.891c3.499,0.074 4.904,-0.394 8.336,-2.776c5.761,-3.999 7.236,-5.649 7.236,-8.095c0,-2.863 -3.697,-8.545 -6.045,-9.291c-1.044,-0.331 -8.173,-5.759 -15.841,-12.061c-7.669,-6.303 -18.946,-15.247 -25.061,-19.877l-11.118,-8.417l0.5,-4.879c0.723,-7.049 2.289,-13.195 6.158,-24.161c1.878,-5.325 3.417,-10.322 3.421,-11.106c0.006,-1.447 -2.98,-4.046 -4.65,-4.046c-0.503,0 -1.628,0.522 -2.501,1.161z" data-paper-data="{&quot;wickUUID&quot;:&quot;8667c34f-0c6d-44e5-9cfe-0f0d886dc0ce&quot;,&quot;wickType&quot;:&quot;path&quot;,&quot;originalStyle&quot;:{&quot;strokeColor&quot;:null,&quot;fillColor&quot;:[&quot;Color&quot;,0.50196,0,0.25098],&quot;strokeWidth&quot;:1}}"/></g><g fill="none" fill-rule="nonzero" stroke="none" stroke-width="1" stroke-linecap="butt" stroke-linejoin="miter" stroke-miterlimit="10" stroke-dasharray="" stroke-dashoffset="0" font-family="sans-serif" font-weight="normal" font-size="12" text-anchor="start" style="mix-blend-mode: normal"/><g id="wick_project_gui" fill="none" fill-rule="nonzero" stroke="none" stroke-width="1" stroke-linecap="butt" stroke-linejoin="miter" stroke-miterlimit="10" stroke-dasharray="" stroke-dashoffset="0" font-family="sans-serif" font-weight="normal" font-size="12" text-anchor="start" style="mix-blend-mode: normal"/></g></svg>