<svg version="1.1" xmlns="http://www.w3.org/2000/svg" xmlns:xlink="http://www.w3.org/1999/xlink" width="1260" height="594" viewBox="0,0,1260,594"><g transform="translate(259.74321,92.84357) scale(0.66226,0.66226)"><g id="wick_project_bg" fill-opacity="0" fill="#ffffff" fill-rule="nonzero" stroke="none" stroke-width="1" stroke-linecap="butt" stroke-linejoin="miter" stroke-miterlimit="10" stroke-dasharray="" stroke-dashoffset="0" font-family="none" font-weight="none" font-size="none" text-anchor="none" style="mix-blend-mode: normal"><rect x="0" y="0" width="720" height="480"/></g><g data-paper-data="{&quot;wickUUID&quot;:&quot;c39c6b0a-cf98-46fe-9998-6a6f7289bae7&quot;,&quot;wickType&quot;:&quot;clipsandpaths&quot;}" fill="#800040" fill-rule="evenodd" stroke="none" stroke-width="1" stroke-linecap="butt" stroke-linejoin="miter" stroke-miterlimit="10" stroke-dasharray="" stroke-dashoffset="0" font-family="none" font-weight="none" font-size="none" text-anchor="none" style="mix-blend-mode: normal"><path d="M543.24709,387.39745c-8.875,4.198 -18.747,13.549 -20.153,19.088c-2.178,8.58 3.213,18.833 12.056,22.929c2.749,1.273 8.06,3.863 11.801,5.754c3.742,1.892 11.277,5.351 16.745,7.687c25.941,11.083 26.324,11.29 28.675,15.48c1.225,2.185 3.515,4.693 5.087,5.574c2.644,1.481 3.35,1.415 9.403,-0.876c3.599,-1.362 8.987,-2.848 11.973,-3.302c5.502,-0.836 23.486,-8.52 30.909,-13.205c2.229,-1.408 7.714,-3.909 12.188,-5.558c15.588,-5.748 21.987,-9.2 28.413,-15.33c7.202,-6.869 9.112,-11.496 7.131,-17.271c-2.01,-5.857 -5.972,-10.138 -12.226,-13.209l-5.913,-2.904l-36.105,-0.045c-33.391,-0.042 -36.97,-0.224 -47.617,-2.427c-21.821,-4.514 -27.239,-5.304 -36.628,-5.34c-8.231,-0.031 -10.215,0.342 -15.739,2.955zM586.81009,399.29845l16.13,3.394l36.628,0.03c34.403,0.027 36.881,0.155 40.799,2.106c2.295,1.142 4.882,3.362 5.749,4.933c1.472,2.664 1.42,3.013 -0.77,5.203l-2.348,2.348v-2.849c0,-1.567 -0.941,-3.79 -2.093,-4.942c-2.818,-2.818 -8.869,-2.673 -24.069,0.576c-6.62,1.415 -16.509,3.261 -21.977,4.102c-26.377,4.057 -31.612,5.746 -36.12,11.656c-3.526,4.623 -5.741,10.017 -5.741,13.982c0,1.745 -0.222,3.173 -0.494,3.173c-1.274,0 -37.872,-16.081 -44.015,-19.34c-3.819,-2.026 -7.569,-3.683 -8.334,-3.683c-1.979,0 -6.808,-6.045 -6.808,-8.522c0,-1.145 0.463,-2.946 1.028,-4.003c1.408,-2.631 10.858,-9.441 15.542,-11.2c5.44,-2.043 17.462,-1.054 36.893,3.036zM670.44009,420.03445c0,1.457 -4.827,6.232 -6.3,6.232c-0.64,0 -2.092,-0.497 -3.227,-1.105c-3.03,-1.621 -5.601,-0.383 -8.594,4.14c-2.258,3.413 -4.126,4.584 -12.465,7.815c-5.395,2.091 -10.073,3.801 -10.396,3.801c-0.324,0 -0.36,-1.194 -0.081,-2.653c0.576,-3.013 -2.188,-6.766 -4.983,-6.766c-3.022,0 -5.512,3.889 -6.046,9.445c-0.661,6.88 -2.613,8.067 -10.254,6.234l-5.498,-1.319l0.581,-3.779c0.787,-5.115 2.961,-9.182 5.96,-11.147c1.37,-0.897 6.423,-2.297 11.228,-3.11c4.806,-0.813 12.976,-2.191 18.157,-3.062c5.18,-0.871 13.421,-2.489 18.314,-3.596c10.452,-2.363 13.604,-2.625 13.604,-1.13z" data-paper-data="{&quot;wickUUID&quot;:&quot;4a962f5d-24da-4f1c-b7e3-80dc7de892e9&quot;,&quot;wickType&quot;:&quot;path&quot;}"/><path d="M570.4353,415.22638c-2.168,3.309 -1.108,6.651 2.388,7.529c3.479,0.873 5.962,-0.707 6.365,-4.051c0.665,-5.513 -5.749,-8.062 -8.753,-3.478z" data-paper-data="{&quot;wickUUID&quot;:&quot;33013cce-fb3f-4dbb-ae95-4b71ec8f954d&quot;,&quot;wickType&quot;:&quot;path&quot;}"/><path d="M616.8063,411.69834c-2.104,1.226 -2.458,6.197 -0.575,8.079c1.849,1.85 5.498,1.529 7.477,-0.658c2.251,-2.487 2.193,-4.67 -0.182,-6.819c-2.177,-1.97 -4.078,-2.14 -6.72,-0.602z" data-paper-data="{&quot;wickUUID&quot;:&quot;e19c7177-d4db-4164-ac7e-efe2cf0dfd65&quot;,&quot;wickType&quot;:&quot;path&quot;}"/><path d="M667.50995,281.00934c-1.743,1.743 -1.586,14.308 0.222,17.773c0.805,1.544 1.742,4.134 2.082,5.756c0.755,3.607 3.193,26.304 5.318,49.518c0.87,9.497 1.853,18.992 2.184,21.1c0.598,3.804 0.548,3.866 -6.778,8.372c-11.631,7.154 -16.008,9.249 -19.326,9.249c-3.456,0 -12.099,-4.631 -12.291,-6.585c-0.167,-1.705 -0.602,0.889 5.301,-31.619c2.909,-16.014 5.288,-30.886 5.288,-33.051c0,-2.164 0.547,-6.303 1.215,-9.198c0.963,-4.169 0.936,-5.6 -0.128,-6.882c-1.964,-2.367 -6.66,-1.99 -9.165,0.736c-2.213,2.407 -23.06,37.741 -32.245,54.652c-2.805,5.164 -5.836,12.076 -6.735,15.36l-1.634,5.97l-4.822,-3.5l-4.822,-3.499l0.506,-12.384c0.372,-9.078 1.486,-16.574 4.177,-28.081c5.918,-25.32 5.939,-25.444 4.607,-28.367c-0.983,-2.156 -1.82,-2.577 -4.595,-2.31c-2.956,0.285 -4.455,1.746 -11.616,11.316c-26.969,36.043 -37.301,52.711 -37.301,60.173c0,3.465 0.519,4.046 7.981,8.917c7.659,5 14.426,7.714 22.449,9.006c4.342,0.699 7.244,-1.428 7.244,-5.31c0,-3.287 -1.492,-4.287 -9.419,-6.316c-6.497,-1.663 -14.899,-5.726 -16.203,-7.836c-1.082,-1.751 5.643,-13.547 15.35,-26.924c5.191,-7.155 9.671,-12.776 9.956,-12.491c0.285,0.284 -0.204,3.729 -1.087,7.655c-0.892,3.971 -1.749,13.724 -1.932,21.984l-0.328,14.845l3.663,3.824c4.455,4.651 22.292,17.017 25.822,17.903c3.087,0.775 7.667,-3.016 7.667,-6.347c0,-1.199 -1.23,-4.49 -2.732,-7.312c-2.009,-3.773 -2.593,-6.125 -2.208,-8.887c0.622,-4.457 22.072,-42.655 22.5,-40.065c0.161,0.976 -1.403,10.722 -3.474,21.658c-5.214,27.527 -5.149,26.905 -3.189,30.697c2.654,5.131 11.262,11.349 17.619,12.727c7.468,1.619 12.191,0.038 27.841,-9.32c13.052,-7.804 15.756,-10.816 14.434,-16.083c-0.724,-2.883 -4.894,-44.001 -4.787,-47.2c0.102,-3.059 2.825,3.284 10.953,25.516c3.683,10.073 7.878,21.14 9.322,24.593c4.111,9.835 3.929,10.334 -5.494,15.073c-10.316,5.186 -11.645,6.636 -9.537,10.405c0.855,1.528 2.625,2.932 3.935,3.121c3.298,0.474 19.652,-7.94 22.874,-11.77c2.282,-2.711 2.565,-3.835 2.055,-8.147c-0.326,-2.752 -2.235,-9.127 -4.243,-14.168c-2.007,-5.041 -7.036,-18.348 -11.174,-29.572c-7.672,-20.807 -13.15,-32.841 -19.415,-42.647c-2.086,-3.264 -4.203,-8.574 -5.216,-13.081c-0.937,-4.172 -2.178,-8.175 -2.757,-8.894c-1.338,-1.665 -6.267,-1.698 -7.912,-0.053z" data-paper-data="{&quot;wickUUID&quot;:&quot;9652f9c6-e111-4f63-a3d1-bc7763e4387c&quot;,&quot;wickType&quot;:&quot;path&quot;}"/><path d="M682.74742,261.70154c-2.299,2.594 -12.216,29.723 -14.032,38.383c-0.836,3.987 -1.733,7.593 -1.993,8.015c-0.261,0.421 -1.679,6.342 -3.153,13.158c-1.474,6.815 -4.265,19.691 -6.203,28.613c-3.883,17.882 -8.603,31.862 -12.842,38.036c-2.575,3.75 -2.657,4.212 -1.208,6.802c2.226,3.98 5.649,4.106 9.169,0.338c4.292,-4.595 11.137,-24.251 15.367,-44.13c2.02,-9.497 5.334,-24.096 7.364,-32.442c2.029,-8.346 3.933,-16.351 4.231,-17.79c1.547,-7.468 8.208,-23.616 10.48,-25.403c2.011,-1.582 2.49,-2.935 2.49,-7.041c0,-5.649 -1.843,-8.37 -5.669,-8.37c-1.308,0 -3.109,0.824 -4.001,1.831z" data-paper-data="{&quot;wickUUID&quot;:&quot;fd4879d3-d338-47ea-a500-8129a8338832&quot;,&quot;wickType&quot;:&quot;path&quot;}"/><path d="M683.42251,269.39666c-1.821,2.009 -2.021,4.334 -2.31,26.786c-0.27,20.979 -0.074,24.956 1.332,27.102c1.944,2.967 4.806,3.242 7.117,0.684c1.4,-1.549 1.693,-5.816 1.9,-27.685c0.254,-26.979 -0.053,-29.088 -4.243,-29.088c-0.991,0 -2.7,0.99 -3.796,2.201z" data-paper-data="{&quot;wickUUID&quot;:&quot;72bb051e-a425-43d1-b989-62fe1cea9520&quot;,&quot;wickType&quot;:&quot;path&quot;}"/><path d="M522.3583,414.64243c-1.151,0.468 -6.293,1.164 -11.427,1.548c-13.194,0.985 -43.061,5.573 -45.791,7.034c-1.26,0.674 -6.391,1.354 -11.402,1.511c-10.533,0.33 -12.873,1.277 -14.468,5.851c-3.034,8.704 0.511,16.079 7.632,15.877c4.9,-0.138 8.636,-2.613 10.801,-7.155c1.342,-2.813 2.534,-3.747 5.453,-4.273c2.055,-0.37 4.533,-1.083 5.506,-1.585c2.253,-1.162 34.13,-5.776 45.847,-6.637c10.756,-0.79 16.529,-2.986 17.444,-6.634c0.36,-1.435 0.185,-3.361 -0.389,-4.279c-1.176,-1.879 -6.043,-2.544 -9.206,-1.258z" data-paper-data="{&quot;wickUUID&quot;:&quot;9ede31e8-9e78-436d-bf44-3bcab19671ca&quot;,&quot;wickType&quot;:&quot;path&quot;}"/><path d="M692.15536,413.70938c-2.098,1.317 -2.449,6.288 -0.575,8.161c0.69,0.691 3.869,1.262 7.064,1.269c6.333,0.014 29.308,1.967 56.825,4.83l17.53,1.823v2.93c0,3.785 4.797,9.075 8.895,9.808c4.44,0.794 9.164,-2.485 11.989,-8.321c2.143,-4.426 2.218,-5.181 0.928,-9.259c-1.94,-6.129 -6.96,-8.7 -13.581,-6.956c-3.754,0.989 -9.511,0.701 -32.301,-1.617c-32.741,-3.329 -54.12,-4.334 -56.774,-2.668z" data-paper-data="{&quot;wickUUID&quot;:&quot;aafce113-cae8-40b7-b3b8-edca07da3ba3&quot;,&quot;wickType&quot;:&quot;path&quot;}"/><path d="M689.55253,412.78186c-2.383,0.689 -3.593,1.796 -4.079,3.731c-1.343,5.351 0.185,6.037 14.902,6.685c15.42,0.68 20.361,1.826 26.238,6.083c8.267,5.988 8.344,12.852 0.296,26.453c-8.163,13.796 -16.184,17.799 -45.891,22.899l-18.4,3.159l-14.142,-1.69c-17.551,-2.098 -32.794,-6.489 -42.149,-12.142c-9.272,-5.602 -12.562,-9.427 -11.197,-13.017c1.39,-3.657 1.262,-9.166 -0.249,-10.677c-2.19,-2.19 -7.051,-1.531 -8.097,1.099c-4.622,11.619 -3.668,16.904 4.427,24.552c13.446,12.703 33.898,19.431 66.671,21.933c5.914,0.451 11.846,-0.088 24.069,-2.189c20.281,-3.484 25.888,-5.058 34.965,-9.811c10.153,-5.316 16.111,-11.685 21.892,-23.399c6.155,-12.472 6.874,-16.771 3.921,-23.446c-3.403,-7.693 -6.615,-11.259 -13.401,-14.875c-9.873,-5.263 -30.479,-8.033 -39.776,-5.348z" data-paper-data="{&quot;wickUUID&quot;:&quot;267ea89e-23f8-4223-b8a4-0c9e2759b507&quot;,&quot;wickType&quot;:&quot;path&quot;}"/><path d="M545.86741,464.8643c-4.404,4.404 -3.709,6.894 4.392,15.728c4.58,4.995 8.024,10.343 12.496,19.408c3.395,6.883 6.173,13.269 6.173,14.193c0,2.325 3.87,6.259 6.158,6.259c1.039,0 2.752,-0.952 3.805,-2.117c1.838,-2.03 1.842,-2.35 0.099,-7.881c-2.562,-8.127 -11.305,-25.096 -16.273,-31.582l-4.193,-5.475l16.109,0.665c17.949,0.74 22.091,-0.078 23.223,-4.587c1.209,-4.816 -1.549,-6.055 -13.531,-6.08c-5.878,-0.012 -16.19,-0.433 -22.915,-0.934l-12.228,-0.913l-3.315,3.316z" data-paper-data="{&quot;wickUUID&quot;:&quot;066e78a7-1035-4fe3-82be-4224f79a0bc4&quot;,&quot;wickType&quot;:&quot;path&quot;}"/><path d="M571.70682,511.90135c-2.251,2.487 -2.193,4.67 0.182,6.819c2.487,2.251 4.67,2.193 6.819,-0.182c2.251,-2.487 2.193,-4.67 -0.182,-6.819c-2.487,-2.251 -4.67,-2.193 -6.819,0.182z" data-paper-data="{&quot;wickUUID&quot;:&quot;26c2090c-5f27-4dc5-8c2b-fa2f6aacacb4&quot;,&quot;wickType&quot;:&quot;path&quot;}"/><path d="M738.01582,446.74837c-1.972,1.971 -2.155,6.064 -0.337,7.515c0.72,0.574 6.018,2.538 11.773,4.363c5.756,1.825 15.41,5.887 21.454,9.027c16.905,8.782 41.841,20.837 47.213,22.823c2.656,0.982 7.836,3.585 11.512,5.784c3.675,2.199 7.977,4.313 9.56,4.697c1.583,0.384 2.878,1.069 2.878,1.523c0,0.823 -7.393,6.554 -12.487,9.679c-3.302,2.026 -3.987,5.701 -1.563,8.379c2.98,3.293 7.114,2.51 12.894,-2.441c2.856,-2.446 7.344,-6.245 9.974,-8.443c5.126,-4.282 6.661,-7.676 4.934,-10.904c-1.124,-2.099 -26.49,-15.193 -47.24,-24.386c-6.62,-2.932 -16.568,-7.883 -22.108,-11.002c-12.838,-7.228 -22.066,-11.375 -33.839,-15.207c-10.785,-3.511 -12.363,-3.663 -14.618,-1.407z" data-paper-data="{&quot;wickUUID&quot;:&quot;04761acd-cdc2-44a0-a144-5fe7b1df7f77&quot;,&quot;wickType&quot;:&quot;path&quot;}"/></g><g fill="none" fill-rule="nonzero" stroke="none" stroke-width="1" stroke-linecap="butt" stroke-linejoin="miter" stroke-miterlimit="10" stroke-dasharray="" stroke-dashoffset="0" font-family="sans-serif" font-weight="normal" font-size="12" text-anchor="start" style="mix-blend-mode: normal"/><g id="wick_project_gui" fill="none" fill-rule="nonzero" stroke="none" stroke-width="1" stroke-linecap="butt" stroke-linejoin="miter" stroke-miterlimit="10" stroke-dasharray="" stroke-dashoffset="0" font-family="sans-serif" font-weight="normal" font-size="12" text-anchor="start" style="mix-blend-mode: normal"/></g></svg>