<svg version="1.1" xmlns="http://www.w3.org/2000/svg" xmlns:xlink="http://www.w3.org/1999/xlink" width="1260" height="594" viewBox="0,0,1260,594"><g transform="translate(233.49724,153.04601) scale(0.82585,0.82585)"><g id="wick_project_bg" fill-opacity="0" fill="#ffffff" fill-rule="nonzero" stroke="none" stroke-width="1" stroke-linecap="butt" stroke-linejoin="miter" stroke-miterlimit="10" stroke-dasharray="" stroke-dashoffset="0" font-family="none" font-weight="none" font-size="none" text-anchor="none" style="mix-blend-mode: normal"><rect x="0" y="0" width="720" height="480"/></g><g data-paper-data="{&quot;wickUUID&quot;:&quot;a98a00f2-1ebb-40af-bd31-7628c5346208&quot;,&quot;wickType&quot;:&quot;clipsandpaths&quot;}" fill="#800040" fill-rule="evenodd" stroke="none" stroke-width="1" stroke-linecap="butt" stroke-linejoin="miter" stroke-miterlimit="10" stroke-dasharray="" stroke-dashoffset="0" font-family="none" font-weight="none" font-size="none" text-anchor="none" opacity="0.35" style="mix-blend-mode: normal"><path d="M629.74233,105.76122c-36.965,3.837 -50.309,9.947 -75.515,34.575c-15.321,14.971 -20.453,22.8 -24.949,38.064c-1.969,6.687 -2.352,9.838 -2.438,20.087c-0.095,11.349 0.12,12.991 3.248,24.729c5.181,19.441 17.201,42.342 25.864,49.277c2.191,1.754 5.739,3.16 11.256,4.463c4.431,1.045 9.475,2.257 11.208,2.693c1.83,0.459 5.953,3.243 9.834,6.639c3.675,3.217 8.86,7.078 11.522,8.58c6.619,3.736 18.997,7.726 27.968,9.016c10.077,1.449 45.296,0.609 53.329,-1.272c19.768,-4.629 29.904,-9.715 40.629,-20.385c7.424,-7.385 8.104,-8.412 15.533,-23.445c6.682,-13.52 8.031,-17.046 9.633,-25.173c4.601,-23.339 3.558,-35.678 -5.253,-62.136c-4.961,-14.895 -8.352,-21.79 -15.295,-31.095c-7.609,-10.198 -14.864,-16.725 -23.248,-20.912c-9.711,-4.851 -15.426,-6.696 -32.805,-10.59c-16.275,-3.646 -27.262,-4.491 -40.521,-3.115zM655.51333,117.03722c16.579,2.887 32.689,7.4 41.207,11.543c6.684,3.252 9.452,5.24 13.868,9.96c10.745,11.486 15.36,19.867 21.685,39.38c6.979,21.529 7.871,34.575 3.71,54.267c-1.524,7.212 -3.213,11.559 -8.745,22.512c-5.948,11.776 -7.701,14.419 -13.231,19.956c-9.653,9.664 -24.611,16.041 -43.052,18.353c-16.63,2.086 -43.765,0.751 -53.369,-2.624c-2.329,-0.818 -2.015,-0.889 2.272,-0.516c6,0.523 11.335,-0.799 12.575,-3.116c2.642,-4.936 -0.599,-8.112 -8.319,-8.155c-3.095,-0.018 -8.766,-0.591 -12.602,-1.275c-7.14,-1.273 -26.56,-7.294 -28.098,-8.711c-0.471,-0.434 -2.497,-0.795 -4.503,-0.803c-4.907,-0.018 -13.399,-2.085 -16.252,-3.954c-5.585,-3.66 -17.054,-25.551 -21.202,-40.47c-4.17,-15 -4.799,-20.205 -3.699,-30.59c1.791,-16.913 6.492,-26.588 19.472,-40.08c12.742,-13.244 23.736,-22.126 33.584,-27.13c9.37,-4.762 31.444,-8.834 52.993,-9.777c2.04,-0.089 7.307,0.464 11.706,1.23z" data-paper-data="{&quot;wickUUID&quot;:&quot;800163ed-0eb9-481f-b58f-f39bd525e77d&quot;,&quot;wickType&quot;:&quot;path&quot;,&quot;originalStyle&quot;:{&quot;strokeColor&quot;:null,&quot;fillColor&quot;:[&quot;Color&quot;,0.50196,0,0.25098],&quot;strokeWidth&quot;:1}}"/><path d="M696.37659,217.47798c-23.547,2.842 -33.111,4.388 -50.426,8.154c-29.436,6.402 -53.359,10.777 -61.862,11.312c-7.581,0.478 -8.492,0.738 -10.719,3.063c-2.377,2.48 -2.411,2.675 -1.478,8.307c0.526,3.172 2.055,8.353 3.399,11.513c1.344,3.159 3.509,8.713 4.811,12.341c2.511,6.999 4.28,8.767 7.865,7.867c5.231,-1.312 4.581,-8.727 -1.959,-22.375c-4.306,-8.985 -4.232,-9.278 2.539,-9.924c6.674,-0.638 36.911,-6.411 59.655,-11.39c17.132,-3.751 27.163,-5.35 50.183,-8l14.164,-1.63l0.888,2.769c1.305,4.074 2.736,13.851 2.743,18.749c0.009,5.279 -3.848,23.839 -5.685,27.356c-1.619,3.102 -5.255,6.532 -9.805,9.25l-3.341,1.995l-3.688,-7.336c-2.029,-4.035 -5.428,-12.061 -7.553,-17.836c-6.522,-17.718 -8.513,-20.358 -14.03,-18.607c-3.333,1.058 -3.885,4.472 -1.5,9.276c1.156,2.329 3.817,8.895 5.913,14.59c4.838,13.148 13.307,29.545 16.431,31.812c3.732,2.708 4.239,2.474 20.331,-9.385c2.574,-1.897 4.7,-4.619 6.517,-8.344c3.421,-7.013 7.233,-24.612 7.191,-33.202c-0.054,-11.232 -3.612,-26.966 -6.926,-30.631c-1.781,-1.969 -5.17,-1.925 -23.658,0.306z" data-paper-data="{&quot;wickUUID&quot;:&quot;3d52ca1d-6f42-4955-ad6e-5eca2d0b5676&quot;,&quot;wickType&quot;:&quot;path&quot;,&quot;originalStyle&quot;:{&quot;strokeColor&quot;:null,&quot;fillColor&quot;:[&quot;Color&quot;,0.50196,0,0.25098],&quot;strokeWidth&quot;:1}}"/><path d="M619.78959,259.76636c-2.167,2.167 -1.964,4.786 1.5,19.312c1.181,4.953 2.148,10.119 2.149,11.481c0.001,2.898 2.828,6.078 5.404,6.078c2.581,0 5.405,-3.185 5.387,-6.078c-0.009,-1.362 -0.654,-5.313 -1.433,-8.779c-0.78,-3.467 -2.154,-9.726 -3.054,-13.91c-1.653,-7.682 -3.13,-9.953 -6.475,-9.953c-0.896,0 -2.461,0.832 -3.478,1.849z" data-paper-data="{&quot;wickUUID&quot;:&quot;1da15e6b-8ec2-445a-b2b3-c07e87277210&quot;,&quot;wickType&quot;:&quot;path&quot;,&quot;originalStyle&quot;:{&quot;strokeColor&quot;:null,&quot;fillColor&quot;:[&quot;Color&quot;,0.50196,0,0.25098],&quot;strokeWidth&quot;:1}}"/><path d="M564.90944,149.86237c-0.991,0.99 -1.801,2.542 -1.801,3.447c0,0.905 3.037,6.376 6.75,12.157c9.807,15.275 14.19,23.891 18.856,37.073c4.866,13.746 8.356,21.551 10.507,23.498c2.308,2.089 6.35,1.266 7.963,-1.622c1.271,-2.273 1.197,-2.772 -1.104,-7.464c-1.357,-2.766 -4.317,-10.179 -6.58,-16.474c-2.262,-6.295 -6.037,-15.294 -8.389,-19.999c-4.817,-9.637 -16.546,-28.446 -19.232,-30.841c-2.323,-2.072 -4.751,-1.994 -6.97,0.225z" data-paper-data="{&quot;wickUUID&quot;:&quot;e87368ab-898c-4666-add7-7f784aa28481&quot;,&quot;wickType&quot;:&quot;path&quot;,&quot;originalStyle&quot;:{&quot;strokeColor&quot;:null,&quot;fillColor&quot;:[&quot;Color&quot;,0.50196,0,0.25098],&quot;strokeWidth&quot;:1}}"/><path d="M592.02744,145.88214c-1.048,1.332 -1.906,2.874 -1.907,3.426c-0.001,0.553 -1.174,3.233 -2.607,5.957c-3.892,7.401 -11.099,25.213 -14.937,36.919c-1.867,5.695 -4.792,13.142 -6.5,16.548c-3.478,6.934 -3.424,9.886 0.208,11.541c3.686,1.679 6.07,-0.172 9.679,-7.516c1.789,-3.639 5.249,-12.494 7.69,-19.679c2.44,-7.185 6.56,-17.72 9.154,-23.412c9.031,-19.812 9.245,-20.44 7.931,-23.196c-1.702,-3.568 -6.131,-3.867 -8.711,-0.588z" data-paper-data="{&quot;wickUUID&quot;:&quot;a033237d-f430-428b-9c03-ab41ea6f9d1a&quot;,&quot;wickType&quot;:&quot;path&quot;,&quot;originalStyle&quot;:{&quot;strokeColor&quot;:null,&quot;fillColor&quot;:[&quot;Color&quot;,0.50196,0,0.25098],&quot;strokeWidth&quot;:1}}"/><path d="M649.65774,160.33514c-4.958,3.473 -23.517,37.086 -23.517,42.593c0,3.898 2.775,6.365 7.16,6.365c1.957,0 5.891,0.607 8.743,1.35c6.576,1.713 14.069,1.73 17.337,0.04c5.524,-2.856 6.666,-10.683 4.155,-28.473c-1.683,-11.925 -3.485,-17.938 -6.28,-20.954c-2.548,-2.749 -4.628,-3.001 -7.598,-0.921zM653.00974,185.37814c0.575,4.676 1.045,10.146 1.045,12.156c0,3.524 -0.104,3.654 -2.926,3.649c-3.15,-0.005 -8.482,-1.321 -10.433,-2.575c-0.964,-0.619 -0.718,-1.742 1.231,-5.625c4.386,-8.738 8.668,-16.107 9.36,-16.107c0.373,0 1.149,3.826 1.723,8.502z" data-paper-data="{&quot;wickUUID&quot;:&quot;31894bfb-4c08-4cba-8df9-c40693cf3517&quot;,&quot;wickType&quot;:&quot;path&quot;,&quot;originalStyle&quot;:{&quot;strokeColor&quot;:null,&quot;fillColor&quot;:[&quot;Color&quot;,0.50196,0,0.25098],&quot;strokeWidth&quot;:1}}"/><path d="M641.89921,-8.50038c-29.694,3.232 -68.726,11.356 -82.306,17.132c-11.702,4.977 -14.09,9.036 -13.946,23.698c0.097,9.829 0.14,10.021 4.376,19.382c6.211,13.727 8.849,20.627 15.448,40.402c6.526,19.557 9.919,26.771 14.469,30.767c3.557,3.123 5.886,3.364 8.381,0.868c2.478,-2.477 2.258,-4.817 -0.781,-8.298c-3.723,-4.264 -6.649,-10.534 -10.413,-22.317c-5.111,-15.996 -11.101,-31.893 -16.117,-42.772c-4.475,-9.704 -4.568,-10.083 -4.611,-18.645c-0.039,-7.711 0.168,-8.9 1.757,-10.11c6.715,-5.114 43.317,-13.86 76.089,-18.182c11.445,-1.51 31.771,-2.181 32.868,-1.086c0.659,0.658 6.749,28.222 6.751,30.554c0.001,0.961 -4.567,3.698 -13.731,8.226c-19.994,9.881 -25.664,14.009 -40.05,29.162c-6.821,7.184 -14.302,14.233 -16.625,15.665c-7.991,4.924 -7.952,8.767 0.15,14.449c2.956,2.074 5.601,4.485 5.878,5.358c0.978,3.081 4.788,6.29 7.467,6.29c2.763,0 5.586,-2.368 5.586,-4.685c0,-2.235 -4.401,-9.477 -7.181,-11.816l-2.557,-2.151l14.099,-14.477c8.708,-8.943 16.302,-15.876 19.863,-18.137c6.761,-4.291 24.454,-13.319 31.75,-16.2c8.52,-3.365 8.524,-3.414 2.479,-32.035c-2.564,-12.14 -4.117,-17.617 -5.345,-18.859c-2.902,-2.935 -17.916,-3.905 -33.748,-2.183z" data-paper-data="{&quot;wickUUID&quot;:&quot;5267b8ab-cda0-4c13-bdab-4cb9538184dd&quot;,&quot;wickType&quot;:&quot;path&quot;,&quot;originalStyle&quot;:{&quot;strokeColor&quot;:null,&quot;fillColor&quot;:[&quot;Color&quot;,0.50196,0,0.25098],&quot;strokeWidth&quot;:1}}"/><path d="M511.45352,75.99723c-8.014,6.892 -9.207,8.755 -16.836,26.287c-8.257,18.973 -9.3,21.817 -12.174,33.171c-2.109,8.333 -2.33,10.576 -1.867,18.909c0.564,10.141 2.982,21.561 6.161,29.1c6.34,15.034 24.149,33.022 41.137,41.55c5.559,2.792 8.642,2.523 10.196,-0.889c1.711,-3.755 -0.2,-6.14 -8.384,-10.458c-5.223,-2.756 -9.912,-6.282 -15.755,-11.846c-13.377,-12.738 -18.61,-21.802 -21.595,-37.402c-3.084,-16.119 -0.929,-27.404 10.175,-53.277c7.77,-18.103 9.036,-20.71 10.057,-20.71c0.407,0 0.993,4.761 1.303,10.58c0.311,5.819 0.998,12.096 1.529,13.948c1.157,4.043 9.752,15.097 15.674,20.159c2.346,2.005 6.562,5.01 9.37,6.678c2.808,1.668 6.25,3.963 7.65,5.099c3.069,2.49 6.104,2.647 8.121,0.419c3.712,-4.102 0.691,-8.891 -8.778,-13.913c-5.973,-3.169 -18.371,-14.877 -20.898,-19.736c-2.293,-4.408 -2.847,-23.571 -0.898,-31.018c1.857,-7.095 1.824,-8.049 -0.352,-10.226c-3.292,-3.291 -6.951,-2.346 -13.836,3.575z" data-paper-data="{&quot;wickUUID&quot;:&quot;1eebc0dd-0fb4-467f-8b11-22e8a72f2167&quot;,&quot;wickType&quot;:&quot;path&quot;,&quot;originalStyle&quot;:{&quot;strokeColor&quot;:null,&quot;fillColor&quot;:[&quot;Color&quot;,0.50196,0,0.25098],&quot;strokeWidth&quot;:1}}"/><path d="M693.73905,42.98292c-6.019,2.095 -8.253,10.468 -11.337,42.496c-0.763,7.924 -1.777,16.839 -2.254,19.811c-1.234,7.693 -1.109,9.226 0.921,11.255c2.25,2.251 4.903,2.301 7.069,0.135c1.726,-1.726 3.488,-12.732 5.571,-34.802c1.473,-15.604 3.472,-27.747 4.696,-28.525c1.624,-1.031 54.453,-0.902 75.263,0.183c16.717,0.872 30.255,2.067 36.842,3.253l2.927,0.526v-5.442c0,-6.345 0.641,-5.944 -11.706,-7.307c-25.109,-2.77 -101.369,-3.888 -107.992,-1.583z" data-paper-data="{&quot;wickUUID&quot;:&quot;83a0e72b-8cb4-496d-9f84-8bba57f6d77d&quot;,&quot;wickType&quot;:&quot;path&quot;,&quot;originalStyle&quot;:{&quot;strokeColor&quot;:null,&quot;fillColor&quot;:[&quot;Color&quot;,0.50196,0,0.25098],&quot;strokeWidth&quot;:1}}"/><path d="M814.02819,45.45884c-3.422,2.691 -3.073,5.532 1.179,9.618c3.001,2.884 3.786,4.435 4.918,9.713c0.74,3.455 4.043,13.778 7.341,22.941c3.297,9.162 7.555,21.024 9.463,26.361c3.466,9.694 6.214,22.419 6.22,28.792l0.003,3.377l-7.879,0.014c-4.334,0.008 -12.742,0.43 -18.685,0.939c-5.943,0.509 -20.125,1.47 -31.516,2.137c-21.347,1.249 -27.424,2.455 -29.195,5.797c-1.231,2.325 -5.229,14.441 -6.781,20.551c-1.599,6.296 -4.971,27.345 -4.985,31.118c-0.011,2.814 2.792,6.078 5.221,6.078c3.83,0 4.861,-2.051 6.152,-12.229c1.706,-13.454 3.579,-22.39 6.537,-31.198l2.503,-7.449l4.421,-0.603c2.431,-0.331 12.93,-1.073 23.331,-1.648c10.4,-0.576 23.164,-1.396 28.364,-1.824c5.2,-0.427 14.216,-0.799 20.035,-0.827c9.552,-0.046 10.767,-0.237 12.496,-1.966c1.743,-1.743 1.86,-2.529 1.304,-8.779c-1.596,-17.941 -4.447,-29.662 -11.526,-47.386c-5.801,-14.525 -10.708,-29.185 -12.355,-36.919c-1.82,-8.538 -2.436,-9.785 -6.956,-14.084c-4.556,-4.333 -6.621,-4.875 -9.61,-2.524z" data-paper-data="{&quot;wickUUID&quot;:&quot;f6e74247-e79f-4517-b574-b01a7729a264&quot;,&quot;wickType&quot;:&quot;path&quot;,&quot;originalStyle&quot;:{&quot;strokeColor&quot;:null,&quot;fillColor&quot;:[&quot;Color&quot;,0.50196,0,0.25098],&quot;strokeWidth&quot;:1}}"/><path d="M797.18473,186.42584c-7.652,4.261 -18.776,10.18 -24.719,13.152c-5.943,2.972 -12.832,6.948 -15.308,8.835c-3.411,2.6 -5.081,3.319 -6.89,2.968c-3.266,-0.634 -6.167,2.346 -6.167,6.335c0,3.645 3.465,7.794 6.486,7.767c1.138,-0.01 4.905,-2.224 8.372,-4.92c3.467,-2.696 11.166,-7.4 17.109,-10.454c5.943,-3.053 16.988,-8.943 24.544,-13.089c7.556,-4.145 14.206,-7.537 14.776,-7.537c0.57,0 3.302,1.698 6.071,3.774c6.363,4.77 25.295,21.497 25.295,22.349c0,0.941 -17.398,16.219 -32.867,28.86c-17.474,14.281 -25.324,21.122 -34.375,29.955l-7.361,7.185l-5.17,-1.039c-2.844,-0.571 -7.268,-1.038 -9.832,-1.038c-2.564,0 -6.952,-0.788 -9.751,-1.751c-7.956,-2.737 -18.703,-4.056 -22.592,-2.773c-5.1,1.684 -6.489,5.753 -3.115,9.128c1.429,1.429 2.627,1.784 4.815,1.429c3.429,-0.556 15.554,1.397 18.518,2.983c1.134,0.607 5.949,1.454 10.7,1.882c4.751,0.428 10.538,1.038 12.861,1.354c2.323,0.317 5.291,0.309 6.596,-0.019c1.304,-0.327 6.978,-4.977 12.608,-10.332c5.631,-5.356 20.29,-18.057 32.575,-28.225c23.541,-19.483 38.903,-33.204 40.26,-35.959c0.483,-0.981 0.483,-2.347 0,-3.372c-0.94,-1.991 -25.441,-23.988 -32.78,-29.429c-6.905,-5.121 -8.343,-5.768 -12.816,-5.768c-3.257,0 -6.311,1.327 -17.843,7.749z" data-paper-data="{&quot;wickUUID&quot;:&quot;c202e500-b9a5-42c0-a3b4-831882cebabe&quot;,&quot;wickType&quot;:&quot;path&quot;,&quot;originalStyle&quot;:{&quot;strokeColor&quot;:null,&quot;fillColor&quot;:[&quot;Color&quot;,0.50196,0,0.25098],&quot;strokeWidth&quot;:1}}"/><path d="M595.24829,286.05751c-1.648,1.218 -1.995,2.362 -8.668,28.589c-4.167,16.38 -9.903,32.453 -17.351,48.625c-12.485,27.109 -22.479,53.681 -29.512,78.474c-2.48,8.74 -5.332,17.812 -6.338,20.159c-2.993,6.983 -0.805,9.736 8.568,10.78c2.972,0.331 10.671,1.403 17.109,2.382c6.438,0.979 20.013,2.15 30.166,2.601c10.152,0.452 21.498,1.447 25.212,2.211c11.124,2.289 40.961,2.775 57.918,0.943c21.8,-2.355 40.884,-6.825 45.502,-10.658c2.907,-2.412 2.81,-4.935 -0.866,-22.454c-2.002,-9.544 -5.054,-21.608 -6.781,-26.808c-3.394,-10.221 -12.137,-48.023 -14.221,-61.487c-0.706,-4.564 -1.547,-11.743 -1.868,-15.953c-0.321,-4.21 -1.398,-12.111 -2.392,-17.559c-0.995,-5.448 -2.307,-14.921 -2.916,-21.052c-0.899,-9.042 -1.427,-11.381 -2.796,-12.382c-2.228,-1.629 -4.083,-1.557 -6.675,0.259c-2.08,1.456 -2.118,1.722 -1.58,11.127c0.303,5.3 1.533,14.657 2.733,20.794c1.2,6.138 2.44,14.603 2.757,18.813c1.115,14.816 2.794,24.299 9.914,55.985c1.745,7.762 4.612,18.532 6.372,23.934c1.76,5.401 4.572,16.271 6.247,24.156c3.537,16.639 3.872,15.657 -6.099,17.872c-26.807,5.956 -64.064,7.583 -83.448,3.644c-3.714,-0.755 -14.867,-1.725 -24.784,-2.156c-16.501,-0.717 -44.194,-3.967 -45.577,-5.35c-0.768,-0.768 7.958,-31.03 13.018,-45.148c5.563,-15.519 8.086,-21.696 18.386,-45.023c12.365,-28.002 14.701,-34.494 20.579,-57.179c6.418,-24.772 6.449,-24.986 4.059,-27.376c-2.144,-2.144 -4.445,-2.408 -6.668,-0.763z" data-paper-data="{&quot;wickUUID&quot;:&quot;167e61a6-cf72-4b9c-ab99-107528e497ee&quot;,&quot;wickType&quot;:&quot;path&quot;,&quot;originalStyle&quot;:{&quot;strokeColor&quot;:null,&quot;fillColor&quot;:[&quot;Color&quot;,0.50196,0,0.25098],&quot;strokeWidth&quot;:1}}"/><path d="M679.26804,292.13528c-4.335,4.335 -1.274,8.077 9.156,11.19c8.25,2.463 39.347,17.797 52.284,25.782c11.317,6.985 19.715,13.722 26.356,21.142l6.013,6.718l-1.881,3.887c-3.867,7.987 -1.628,14.621 6.3,18.665c4.853,2.476 16.298,2.476 20.359,0c10.004,-6.1 2.283,-24.395 -11.348,-26.888c-2.763,-0.506 -4.604,-2.009 -10.319,-8.426c-12.78,-14.351 -24.754,-22.613 -55.697,-38.434c-16.901,-8.641 -33.744,-15.437 -38.261,-15.437c-0.639,0 -1.972,0.81 -2.962,1.801z" data-paper-data="{&quot;wickUUID&quot;:&quot;e5c2d3a0-4930-42dd-a777-8ddf6597ac54&quot;,&quot;wickType&quot;:&quot;path&quot;,&quot;originalStyle&quot;:{&quot;strokeColor&quot;:null,&quot;fillColor&quot;:[&quot;Color&quot;,0.50196,0,0.25098],&quot;strokeWidth&quot;:1}}"/><path d="M482.31706,279.61236c-1.063,0.393 -2.391,1.57 -2.949,2.614c-1.465,2.737 1.275,9.418 5.04,12.29c1.767,1.348 3.187,3.393 3.547,5.11c0.686,3.266 4.985,8.197 8.969,10.289c1.685,0.884 5.981,1.577 11.411,1.841c7.872,0.382 9.023,0.229 11.977,-1.597c4.502,-2.782 5.973,-5.391 6.014,-10.664c0.047,-6.062 -1.575,-9.038 -6.627,-12.158c-5.685,-3.511 -10.541,-3.942 -18.626,-1.654c-7.629,2.159 -9.873,1.607 -12.054,-2.966c-1.53,-3.209 -3.701,-4.215 -6.702,-3.105z" data-paper-data="{&quot;wickUUID&quot;:&quot;2f356bc6-b740-4827-94c5-f61d544e5fe8&quot;,&quot;wickType&quot;:&quot;path&quot;,&quot;originalStyle&quot;:{&quot;strokeColor&quot;:null,&quot;fillColor&quot;:[&quot;Color&quot;,0.50196,0,0.25098],&quot;strokeWidth&quot;:1}}"/><path d="M545.54906,284.17736c-3.962,0.446 -12.066,1.848 -18.009,3.116c-5.943,1.268 -12.402,2.633 -14.354,3.034c-5.739,1.178 -7.64,5.477 -4.021,9.096c2.247,2.247 4.216,2.12 20.176,-1.295c15.336,-3.281 26.412,-4.192 50.972,-4.192c20.315,0 21.616,-0.101 23.316,-1.801c0.991,-0.991 1.801,-2.611 1.801,-3.602c0,-0.991 -0.81,-2.611 -1.801,-3.602c-1.719,-1.719 -2.918,-1.795 -26.338,-1.683c-13.496,0.065 -27.78,0.483 -31.742,0.929z" data-paper-data="{&quot;wickUUID&quot;:&quot;f615ad1b-af61-4050-8c48-d4648dca1a91&quot;,&quot;wickType&quot;:&quot;path&quot;,&quot;originalStyle&quot;:{&quot;strokeColor&quot;:null,&quot;fillColor&quot;:[&quot;Color&quot;,0.50196,0,0.25098],&quot;strokeWidth&quot;:1}}"/><path d="M570.56237,470.61359c-4.528,2.186 -22.751,32.77 -38.14,64.011c-5.409,10.981 -9.835,20.276 -9.835,20.656c0,0.379 2.537,0.69 5.638,0.69h5.638l9.321,-18.685c13.062,-26.187 26.531,-49.282 33.627,-57.661c2.965,-3.501 3.164,-5.838 0.704,-8.298c-1.982,-1.982 -3.913,-2.18 -6.953,-0.713z" data-paper-data="{&quot;wickUUID&quot;:&quot;681b1d80-46e6-4706-acd3-265077efd2d2&quot;,&quot;wickType&quot;:&quot;path&quot;,&quot;originalStyle&quot;:{&quot;strokeColor&quot;:null,&quot;fillColor&quot;:[&quot;Color&quot;,0.50196,0,0.25098],&quot;strokeWidth&quot;:1}}"/><path d="M667.26083,473.35849c-1.921,1.404 -4.176,9.616 -4.19,15.258c-0.017,6.415 1.662,12.892 3.88,14.976c1.093,1.026 6.236,3.75 11.429,6.051c21.118,9.36 65.851,33.393 80.434,43.214c4.603,3.099 4.668,3.113 14.92,3.113h10.298l-10.286,-6.591c-28.457,-18.237 -71.172,-41.489 -92.885,-50.562c-7.835,-3.275 -8.044,-4.01 -5.548,-19.523c0.858,-5.329 -3.993,-8.905 -8.052,-5.936z" data-paper-data="{&quot;wickUUID&quot;:&quot;db65595c-c8d5-4905-9a84-dc140d31c1d8&quot;,&quot;wickType&quot;:&quot;path&quot;,&quot;originalStyle&quot;:{&quot;strokeColor&quot;:null,&quot;fillColor&quot;:[&quot;Color&quot;,0.50196,0,0.25098],&quot;strokeWidth&quot;:1}}"/></g><g data-paper-data="{&quot;wickUUID&quot;:&quot;557d09e7-9035-4c26-9802-93a7d1f4cc77&quot;,&quot;wickType&quot;:&quot;clipsandpaths&quot;}" fill="#800040" fill-rule="evenodd" stroke="none" stroke-width="1" stroke-linecap="butt" stroke-linejoin="miter" stroke-miterlimit="10" stroke-dasharray="" stroke-dashoffset="0" font-family="none" font-weight="none" font-size="none" text-anchor="none" style="mix-blend-mode: normal"><path d="M381.11867,230.22568c-7.563,3.725 -10.856,16.453 -6.585,25.454c2.275,4.794 11.348,11.22 15.842,11.22c9.123,0 17.648,-11.073 11.187,-14.53c-1.945,-1.042 -2.423,-2.539 -2.426,-7.611c-0.005,-7.376 -3.228,-13.633 -7.946,-15.426c-4.144,-1.576 -5.262,-1.477 -10.072,0.893z" data-paper-data="{&quot;wickUUID&quot;:&quot;eb9ced7a-773c-4474-b1c1-8f66848502d3&quot;,&quot;wickType&quot;:&quot;path&quot;}"/><path d="M397.4113,251.85051c-1.047,1.046 -1.903,2.642 -1.903,3.546c0,0.904 0.856,2.5 1.903,3.546c1.518,1.518 4.882,1.908 16.649,1.928c18.105,0.032 56.959,2.491 107.258,6.79c35.688,3.05 38.113,3.123 39.528,1.188c2.443,-3.342 0.732,-6.653 -4.128,-7.984c-8.801,-2.412 -124.045,-10.917 -147.914,-10.917c-7.013,0 -9.987,0.497 -11.393,1.903z" data-paper-data="{&quot;wickUUID&quot;:&quot;e26a970c-1881-4ff3-bde0-91bc809dabf7&quot;,&quot;wickType&quot;:&quot;path&quot;}"/><path d="M622.75111,260.92408c-0.963,1.375 -1.504,3.418 -1.201,4.54c0.663,2.46 26.423,23.232 28.811,23.232c2.085,0 5.486,-3.288 5.486,-5.304c0,-2.259 -2.129,-4.465 -12.517,-12.965c-15.828,-12.952 -17.593,-13.767 -20.579,-9.503z" data-paper-data="{&quot;wickUUID&quot;:&quot;84571765-01c6-4b69-844c-941a6cbbb7b5&quot;,&quot;wickType&quot;:&quot;path&quot;}"/><path d="M588.73036,265.16967c-2.771,2.771 -2.37,5.174 2.106,12.628c4.146,6.905 7.765,8.844 11.194,5.999c2.543,-2.111 2.155,-5.404 -1.278,-10.842c-1.665,-2.638 -3.027,-5.332 -3.027,-5.988c0,-1.267 -3.872,-3.699 -5.888,-3.699c-0.663,0 -2.061,0.856 -3.107,1.902z" data-paper-data="{&quot;wickUUID&quot;:&quot;7e7a6734-0289-4ce7-b6a7-23285ae347cf&quot;,&quot;wickType&quot;:&quot;path&quot;}"/><path d="M661.15097,205.74809c-2.745,0.866 -11.868,5.695 -20.276,10.731c-25.34,15.181 -63.986,35.671 -69.789,37.002c-2.997,0.688 -7.998,1.264 -11.114,1.28c-8.336,0.044 -12.007,4.586 -7.416,9.177c1.688,1.688 3.474,1.922 10.014,1.315c4.377,-0.407 10.673,-1.556 13.989,-2.552c7.08,-2.127 42.256,-20.693 66.985,-35.354c9.55,-5.662 18.901,-10.831 20.779,-11.485c4.512,-1.573 11.897,2.105 16.58,8.259c3.289,4.321 3.4,4.943 3.4,18.981c0,10.79 0.402,14.647 1.566,15.035c3.027,1.011 7.115,-0.899 8.519,-3.979c2.055,-4.512 1.777,-22.262 -0.448,-28.579c-2.397,-6.805 -10.399,-15.087 -18.113,-18.748c-6.803,-3.229 -7.674,-3.293 -14.676,-1.083z" data-paper-data="{&quot;wickUUID&quot;:&quot;7babec0c-975b-41b7-ac02-fb3ce3a0b86c&quot;,&quot;wickType&quot;:&quot;path&quot;}"/><path d="M599.54182,101.13256c-8.731,1.749 -23.9,9.42 -40.252,20.357c-21.42,14.326 -38.022,34.502 -44.145,53.647c-3.425,10.709 -4.292,32.706 -1.719,43.631c2.13,9.045 7.193,19.826 14.075,29.969c6.371,9.392 24.029,22.992 29.865,23.002c1.444,0.003 4.169,0.772 6.054,1.71c23.396,11.638 29.035,13.71 45.088,16.572c11.224,2 16.591,2.342 26.755,1.704c24.193,-1.518 36.205,-5.064 47.775,-14.1c10.628,-8.3 14.978,-18.928 20.004,-48.867c3.317,-19.764 3.089,-30.465 -1.098,-51.463c-3.836,-19.233 -7.657,-30.919 -14.65,-44.802c-7.181,-14.258 -15.468,-20.424 -36.881,-27.443c-12.066,-3.955 -14.831,-4.406 -29.075,-4.75c-8.658,-0.209 -18.466,0.166 -21.796,0.833zM628.60282,110.74056c4.662,0.664 13.653,2.91 19.979,4.992c21.451,7.056 27.063,13.083 36.133,38.797c4.659,13.211 9.881,39.649 9.881,50.031c0,8.243 -2.449,25.533 -5.656,39.938c-4.591,20.62 -13.021,29.385 -32.742,34.043c-11.693,2.761 -40.472,2.836 -52.325,0.136c-10.786,-2.457 -33.796,-12.973 -40.975,-18.726c-4.181,-3.351 -5.83,-3.989 -8.69,-3.36c-3.141,0.689 -4.379,-0.068 -11.238,-6.87c-8.991,-8.917 -17.164,-23.971 -19.273,-35.495c-1.935,-10.581 -0.57,-28.742 2.874,-38.23c5.914,-16.295 20.529,-33.489 38.996,-45.879c16.714,-11.214 28.675,-17.029 38.815,-18.872c10.66,-1.938 13.713,-2.001 24.221,-0.505z" data-paper-data="{&quot;wickUUID&quot;:&quot;2cba699b-6776-4ea5-b4eb-8a9ec8b2673e&quot;,&quot;wickType&quot;:&quot;path&quot;}"/><path d="M657.17962,237.61308c-1.392,2.599 -0.754,3.877 7.983,15.995c7.771,10.778 15.703,19.346 17.91,19.346c2.227,0 5.469,-3.355 5.469,-5.661c0,-1.02 -2.589,-4.981 -5.752,-8.802c-3.163,-3.821 -8.337,-10.576 -11.497,-15.011c-4.877,-6.844 -6.289,-8.063 -9.342,-8.063c-2.233,0 -4.041,0.832 -4.771,2.196z" data-paper-data="{&quot;wickUUID&quot;:&quot;883c6775-03e4-419f-8cb7-5658f3b6df42&quot;,&quot;wickType&quot;:&quot;path&quot;}"/><path d="M384.63987,225.24925c-3.647,0.98 -9.002,3.172 -11.9,4.87c-5.597,3.28 -12.382,12.515 -12.296,16.735c0.084,4.147 3.769,9.709 12.491,18.852l8.305,8.705l6.831,-0.813c18.659,-2.222 20.757,-4.483 20.757,-22.365c0,-11.518 -0.345,-13.611 -3.179,-19.299c-4.446,-8.923 -8.217,-10.122 -21.009,-6.685zM396.04487,236.89725c1.358,1.938 1.885,5.658 1.885,13.297c0,10.582 -0.007,10.607 -3.33,11.346c-1.831,0.408 -4.285,1 -5.452,1.317c-2.907,0.788 -16.646,-12.344 -16.646,-15.91c0,-3.552 4.476,-7.519 11.638,-10.316c7.732,-3.02 9.634,-2.977 11.905,0.266z" data-paper-data="{&quot;wickUUID&quot;:&quot;ccd9f384-5187-481a-b143-9ddca5bc6688&quot;,&quot;wickType&quot;:&quot;path&quot;}"/></g><g fill="none" fill-rule="nonzero" stroke="none" stroke-width="1" stroke-linecap="butt" stroke-linejoin="miter" stroke-miterlimit="10" stroke-dasharray="" stroke-dashoffset="0" font-family="sans-serif" font-weight="normal" font-size="12" text-anchor="start" style="mix-blend-mode: normal"/><g id="wick_project_gui" fill="none" fill-rule="nonzero" stroke="none" stroke-width="1" stroke-linecap="butt" stroke-linejoin="miter" stroke-miterlimit="10" stroke-dasharray="" stroke-dashoffset="0" font-family="sans-serif" font-weight="normal" font-size="12" text-anchor="start" style="mix-blend-mode: normal"/></g></svg>