<svg version="1.1" xmlns="http://www.w3.org/2000/svg" xmlns:xlink="http://www.w3.org/1999/xlink" width="1260" height="594" viewBox="0,0,1260,594"><g transform="translate(224.40741,-63.33482) scale(0.70248,0.70248)"><g id="wick_project_bg" fill-opacity="0" fill="#ffffff" fill-rule="nonzero" stroke="none" stroke-width="1" stroke-linecap="butt" stroke-linejoin="miter" stroke-miterlimit="10" stroke-dasharray="" stroke-dashoffset="0" font-family="none" font-weight="none" font-size="none" text-anchor="none" style="mix-blend-mode: normal"><rect x="0" y="0" width="720" height="480"/></g><g data-paper-data="{&quot;wickUUID&quot;:&quot;7aaef182-de2b-4f9e-baf6-be647a7cebd2&quot;,&quot;wickType&quot;:&quot;clipsandpaths&quot;}" fill="none" fill-rule="none" stroke="none" stroke-width="1" stroke-linecap="butt" stroke-linejoin="miter" stroke-miterlimit="10" stroke-dasharray="" stroke-dashoffset="0" font-family="none" font-weight="none" font-size="none" text-anchor="none" style="mix-blend-mode: normal"><path d="M175.79841,144.66958c13.614,-0.112 19.63,0.814 34.091,5.247c5.092,1.561 11.248,3.246 13.678,3.745c9.358,1.919 12.543,2.52 16.204,3.058c5.675,0.833 17.835,7.402 21.439,11.581c1.671,1.938 6.716,7.612 11.212,12.609c10.79,11.994 12.37,15.026 12.373,23.742c0.002,5.731 -0.349,7.418 -2.36,11.324c-2.608,5.068 -2.673,4.587 1.991,14.77c2.041,4.456 5.436,15.399 7.051,22.728c0.714,3.24 1.872,7.786 2.572,10.101c0.7,2.315 2.23,8.186 3.4,13.047c2.697,11.207 5.936,18.132 10.673,22.818c5.377,5.321 23.681,20.873 27.85,23.665c4.434,2.968 19.526,10.284 22.907,11.104c3.107,0.754 10.04,5.106 12.011,7.54c2.235,2.761 5.516,4.008 20.396,7.758c7.284,1.835 19.104,2.416 24.417,1.199c2.543,-0.582 9.927,-1.212 16.408,-1.4c16.213,-0.469 15.086,-0.411 23.99,-1.241c8.679,-0.809 17.008,-3.212 19.741,-5.696c0.948,-0.861 3.239,-2.557 5.091,-3.767c1.851,-1.211 5.45,-3.703 7.996,-5.538c9.072,-6.539 18.143,-12.506 21.044,-13.843c10.176,-4.689 20.059,-11.428 28.323,-19.313c7.248,-6.916 8.523,-9.709 14.082,-30.862c2.728,-10.377 5.886,-20.758 6.975,-22.926c0.636,-1.267 2.324,-3.633 3.751,-5.259c2.357,-2.684 2.547,-3.321 2.072,-6.955c-0.288,-2.201 -0.734,-9.873 -0.993,-17.048c-0.627,-17.383 1.204,-28.166 6.761,-39.822c4.693,-9.843 7.82,-12.727 18.411,-16.979c9.8,-3.934 16.793,-4.622 43.934,-4.322c26.169,0.29 45.394,2.24 51.308,5.204c5.657,2.836 9.137,4.804 12.919,7.307c1.725,1.141 4.013,2.354 5.085,2.694c1.073,0.34 4.477,2.98 7.565,5.866c3.088,2.886 7.32,6.423 9.403,7.861c2.083,1.437 6.439,5.219 9.68,8.404c23.057,22.66 31.911,43.794 24.418,58.285c-1.128,2.181 -1.183,3.564 -0.38,9.49c0.517,3.816 1.228,9.4 1.581,12.409c0.352,3.009 1.499,7.328 2.547,9.597c1.741,3.764 1.876,5.053 1.548,14.73c-0.318,9.375 -0.614,11.1 -2.555,14.868c-2.647,5.136 -7.882,10.049 -13.167,12.357c-2.434,1.063 -6.255,4.136 -10.204,8.207c-5.542,5.714 -7.003,6.735 -11.963,8.365c-3.107,1.022 -7.085,2.842 -8.838,4.045c-4.487,3.079 -10.585,5.267 -14.772,5.3c-2.596,0.02 -4.486,0.703 -6.935,2.505c-1.852,1.363 -4.883,3.506 -6.734,4.764c-1.852,1.258 -4.314,3.106 -5.472,4.108c-4.574,3.957 -29.628,15.607 -39.618,18.423c-5.592,1.576 -17.509,7.099 -21.409,9.922c-0.79278,0.57404 -2.322,1.61991 -4.22951,2.89879c-3.26624,0.11094 -7.27022,0.67526 -11.97754,1.69846c-8.243,1.792 -8.42,1.867 -36.279,15.218c-10.82,5.185 -20.08,9.428 -20.576,9.428c-0.72281,0 -9.31052,3.80312 -21.10957,9.30885c-0.0251,-0.00273 -0.04989,-0.00543 -0.07438,-0.0081c-5.225,-0.569 -6.185,-0.437 -8.838,1.215c-8.382,5.218 -12.663,7.461 -25.752,13.49c-15.121,6.965 -21.899,9.86 -32.78,14.002c-13.034,4.961 -15.08,5.643 -31.986,10.669c-3.241,0.963 -8.923,2.752 -12.627,3.974c-8.311,2.742 -11.915,3.846 -23.148,7.089c-4.861,1.403 -10.732,3.199 -13.047,3.991c-2.315,0.792 -6.292,1.442 -8.838,1.444c-6.677,0.004 -40.942,-3.988 -47.559,-5.542c-1.852,-0.435 -4.882,-1.143 -6.734,-1.573c-1.69217,-0.39198 -6.89818,-1.21807 -12.02148,-1.91305c-3.89021,-2.11983 -15.15806,-5.75687 -18.24567,-5.75687c-1.676,0 -4.616,-0.482 -6.534,-1.072c-1.917,-0.589 -8.086,-1.997 -13.707,-3.127c-5.622,-1.131 -14.01,-3.897 -18.639,-6.149c-4.63,-2.251 -8.856,-4.09 -9.391,-4.087c-0.74665,0.00346 -5.88945,-2.31278 -20.35222,-9.21281c-2.96148,-1.94591 -6.20804,-4.05814 -8.01263,-5.21027c-2.315,-1.478 -5.913,-3.787 -7.996,-5.132c-2.084,-1.345 -4.546,-2.861 -5.472,-3.369c-0.926,-0.507 -4.335,-2.424 -7.575,-4.26c-3.241,-1.835 -7.218,-3.861 -8.839,-4.502c-1.62,-0.641 -4.04,-1.92 -5.378,-2.843c-1.338,-0.922 -4.178,-2.512 -6.313,-3.533c-2.135,-1.02 -7.669,-3.66 -12.299,-5.867c-4.08831,-1.94852 -8.87135,-4.57557 -13.76865,-7.53771c-0.98238,-1.40451 -2.80368,-2.97128 -4.47621,-3.78188c-4.411,-2.136 -18.119,-14.217 -28.814,-25.394c-4.272,-4.464 -8.293,-8.117 -8.937,-8.117c-0.47415,0 -2.49421,-1.47142 -4.97356,-3.56981c-1.45132,-3.50682 -3.20305,-6.92182 -4.68658,-8.9966c-1.389,-1.943 -3.895,-5.731 -5.568,-8.418c-9.205,-14.779 -16.184,-24.885 -20.258,-29.337c-11.85,-12.945 -18.279,-20.79 -19.946,-24.335c-2.833,-6.028 -3.172,-12.503 -0.972,-18.552c1.011,-2.778 2.173,-7.418 2.583,-10.311c1.433,-10.111 2.064,-11.511 9.201,-20.413c1.498,-1.868 3.171,-8.649 5.481,-22.209c1.579,-9.27 14.459,-27.802 23.166,-33.331c2.083,-1.323 5.681,-3.939 7.996,-5.813c2.315,-1.875 6.292,-4.894 8.839,-6.71c2.546,-1.815 6.901,-5.299 9.678,-7.742c6.636,-5.837 10.443,-7.405 20.235,-8.331l8.129,-0.769l3.026,-3.535c3.876,-4.528 11.697,-8.324 17.433,-8.46c2.315,-0.056 5.345,-0.367 6.734,-0.691c1.389,-0.325 8.018,-0.636 14.731,-0.691z" data-paper-data="{&quot;wickUUID&quot;:&quot;a9e7b982-5242-48b6-8e2b-e39bc06aa8d0&quot;,&quot;wickType&quot;:&quot;path&quot;,&quot;originalStyle&quot;:{&quot;strokeColor&quot;:null,&quot;fillColor&quot;:[&quot;Color&quot;,0.07451,0.00784,0.13725],&quot;strokeWidth&quot;:1}}" id="a9e7b982-5242-48b6-8e2b-e39bc06aa8d0" fill="#130223" fill-rule="nonzero"/><path d="M438.82314,80.37584c-23.80467,6.19933 -82.90097,33.25466 -96.26497,44.05533c-10.016,8.09467 -38.51685,49.7868 -46.99652,68.79047c-3.30967,7.417 -6.63392,18.69059 -8.56092,29.12992c-2.16233,11.715 -3.0151,22.40436 -2.7531,34.47936c0.26533,12.233 1.73537,20.388 4.6067,27.49167c7.01,17.34167 17.88017,24.97246 67.7445,47.49879c44.83667,20.255 74.58014,32.02243 80.83581,32.02243c3.69867,0 19.32957,-7.13459 38.2679,-17.67059c12.869,-7.159 19.00179,-11.09006 24.52712,-15.69473c17.35367,-14.46167 40.63079,-37.84223 49.75279,-49.96423c5.73633,-7.623 11.37509,-21.63274 13.34109,-33.19507c1.76033,-10.35267 1.59346,-23.65212 -0.47387,-37.13579c-2.789,-18.19167 -11.3581,-48.81154 -17.1161,-61.18221c-4.19733,-9.01767 -13.00413,-18.5335 -20.81846,-22.41483c-2.78767,-1.38467 -3.2372,-1.58867 -6.90153,-1.58867c-3.22367,0 -3.5656,0.02928 -4.8756,-0.65339c-2.64567,-1.37867 -4.88108,-3.32661 -13.24375,-11.49528c-11.28767,-11.02567 -16.34958,-15.18988 -24.81391,-20.45321c-10.37367,-6.45033 -25.60327,-13.21988 -29.6816,-13.18888c-0.89467,0.00667 -4.19225,0.54824 -6.57558,1.16891z" data-paper-data="{&quot;wickUUID&quot;:&quot;96d99432-f462-4de6-a971-2810646da3ef&quot;,&quot;wickType&quot;:&quot;path&quot;,&quot;originalStyle&quot;:{&quot;strokeColor&quot;:null,&quot;fillColor&quot;:[&quot;Color&quot;,0.13725,0,0.07059],&quot;strokeWidth&quot;:1}}" id="96d99432-f462-4de6-a971-2810646da3ef" fill="#230012" fill-rule="evenodd"/><path d="M302.02494,253.97807c-3.21,1.004 -4.216,3.82 -4.21,11.785c0.009,11.9 1.344,15.387 8.901,23.252c3.621,3.768 7.358,8.351 8.304,10.184c3.145,6.093 6.32,7.723 13.704,7.033c6.479,-0.605 6.575,-0.573 21.79,7.251c16.597,8.534 18.123,9.154 38.473,15.638c11.373,3.624 15.944,4.523 26.88,5.288c7.246,0.507 16.022,1.437 19.5,2.068c7.551,1.369 29.631,-0.287 36.6,-2.746c10.884,-3.84 24.297,-15.363 30.3,-26.028c3.573,-6.35 8.118,-10.605 18.078,-16.925c7.742,-4.913 14.093,-12.242 16.259,-18.763c2.05,-6.172 1.42,-9.744 -2.129,-12.069c-3.757,-2.461 -8.244,-0.621 -17.002,6.972c-3.996,3.465 -11.06,8.255 -15.698,10.645c-5.584,2.877 -10.301,6.321 -13.96,10.191c-4.816,5.095 -6.035,5.842 -9.486,5.82c-2.178,-0.014 -9.89,0.66 -17.137,1.497c-13.356,1.545 -29.409,1.229 -42.69,-0.838c-3.479,-0.542 -13.203,-1.517 -21.609,-2.168c-29.968,-2.319 -33.277,-2.74 -39.238,-4.989c-7.628,-2.878 -14.414,-2.966 -17.89,-0.232c-2.582,2.03 -2.634,2.029 -7.343,-0.264c-7.684,-3.74 -14.198,-10.24 -17.745,-17.708c-1.759,-3.705 -4.021,-8.353 -5.027,-10.328c-1.871,-3.68 -4.818,-5.444 -7.625,-4.566z" data-paper-data="{&quot;wickUUID&quot;:&quot;52ec2c92-c9e6-45eb-890c-e9ea0439ed26&quot;,&quot;wickType&quot;:&quot;path&quot;,&quot;originalStyle&quot;:{&quot;strokeColor&quot;:null,&quot;fillColor&quot;:[&quot;Color&quot;,1,0,1],&quot;strokeWidth&quot;:1}}" id="52ec2c92-c9e6-45eb-890c-e9ea0439ed26" fill="#ff00ff" fill-rule="evenodd"/><path d="M352.37088,273.99445c-0.898,1.014 -1.957,4.928 -2.355,8.696c-0.398,3.768 -1.113,8.512 -1.589,10.541c-0.476,2.029 -1.152,7.837 -1.503,12.907c-0.575,8.308 -0.43,9.426 1.475,11.331c2.491,2.491 4.145,2.647 6.875,0.651c1.565,-1.145 2.281,-3.843 3.286,-12.386c0.707,-6.007 1.854,-14.827 2.55,-19.599c1.119,-7.668 1.064,-8.985 -0.473,-11.331c-2.042,-3.116 -5.893,-3.494 -8.266,-0.81z" data-paper-data="{&quot;wickUUID&quot;:&quot;a142347f-1fea-44ed-bfb0-764300c09062&quot;,&quot;wickType&quot;:&quot;path&quot;,&quot;originalStyle&quot;:{&quot;strokeColor&quot;:null,&quot;fillColor&quot;:[&quot;Color&quot;,0.13725,0,0.07059],&quot;strokeWidth&quot;:1}}" id="a142347f-1fea-44ed-bfb0-764300c09062" fill="#230012" fill-rule="evenodd"/><path d="M403.93523,316.62145c-2.077,3.322 -3.215,22.115 -1.47,24.274c1.768,2.188 4.036,2.806 6.686,1.82c1.625,-0.604 2.855,-2.844 4.456,-8.115c2.287,-7.53 2.114,-9.768 -1.32,-17.125c-1.702,-3.646 -6.312,-4.117 -8.352,-0.854z" data-paper-data="{&quot;wickUUID&quot;:&quot;58b5b5c9-89c3-4bb9-9388-20923a3136cf&quot;,&quot;wickType&quot;:&quot;path&quot;,&quot;originalStyle&quot;:{&quot;strokeColor&quot;:null,&quot;fillColor&quot;:[&quot;Color&quot;,0.13725,0,0.07059],&quot;strokeWidth&quot;:1}}" id="58b5b5c9-89c3-4bb9-9388-20923a3136cf" fill="#230012" fill-rule="evenodd"/><path d="M471.15952,287.33765c-1.847,1.35 -2.112,3.593 -2.937,24.828c-0.498,12.838 -0.618,24.489 -0.266,25.891c1.206,4.806 7.753,5.941 10.004,1.735c0.526,-0.981 1.301,-12.506 1.723,-25.611c0.756,-23.433 0.731,-23.863 -1.483,-26.077c-2.632,-2.632 -4.249,-2.808 -7.041,-0.766z" data-paper-data="{&quot;wickUUID&quot;:&quot;e51c75f4-efc2-49c5-924f-2a7a0b1c45b0&quot;,&quot;wickType&quot;:&quot;path&quot;,&quot;originalStyle&quot;:{&quot;strokeColor&quot;:null,&quot;fillColor&quot;:[&quot;Color&quot;,0.13725,0,0.07059],&quot;strokeWidth&quot;:1}}" id="e51c75f4-efc2-49c5-924f-2a7a0b1c45b0" fill="#230012" fill-rule="evenodd"/><path d="M536.72292,238.23861c-0.96,1.06 -1.745,3.579 -1.745,5.597c0,4.339 -4.195,15.518 -7.958,21.204c-1.466,2.215 -3.066,5.076 -3.556,6.359c-0.49,1.283 -4.034,7.55 -7.875,13.927c-8.9,14.775 -16.056,32.497 -14.501,35.911c1.324,2.905 4.653,4.107 7.361,2.658c1.16,-0.621 3.678,-5.29 5.952,-11.037c4.826,-12.196 10.255,-21.38 12.266,-20.749c0.803,0.251 3.072,0.489 5.042,0.527c3.313,0.063 3.844,-0.408 7.059,-6.256c1.911,-3.478 4.733,-10.715 6.269,-16.082c2.336,-8.158 2.734,-11.379 2.428,-19.655c-0.291,-7.912 -0.768,-10.343 -2.373,-12.115c-2.472,-2.729 -6.049,-2.853 -8.369,-0.289z" data-paper-data="{&quot;wickUUID&quot;:&quot;714674f7-3456-4600-bcbf-ffd15f22cb2d&quot;,&quot;wickType&quot;:&quot;path&quot;,&quot;originalStyle&quot;:{&quot;strokeColor&quot;:null,&quot;fillColor&quot;:[&quot;Color&quot;,0.13725,0,0.07059],&quot;strokeWidth&quot;:1}}" id="714674f7-3456-4600-bcbf-ffd15f22cb2d" fill="#230012" fill-rule="evenodd"/><path d="M304.60268,247.86256c-1.191,0.482 -3.649,2.567 -5.463,4.632c-6.195,7.056 -5.716,20.246 1.114,30.611c1.95,2.96 5.356,8.228 7.569,11.707c5.785,9.094 12.331,16.473 20.377,22.967c10.856,8.762 14.91,10.124 18.461,6.201c2.467,-2.726 2.168,-5.053 -0.932,-7.247c-17.7,-12.524 -25.035,-20.962 -38.154,-43.889c-0.716,-1.252 -1.309,-4.377 -1.318,-6.945c-0.013,-3.998 0.514,-5.153 3.674,-8.047c4.215,-3.861 4.577,-5.897 1.581,-8.893c-2.267,-2.268 -3.526,-2.467 -6.909,-1.097z" data-paper-data="{&quot;wickUUID&quot;:&quot;58e67c54-ee1a-440b-a070-de0077ff0af2&quot;,&quot;wickType&quot;:&quot;path&quot;,&quot;originalStyle&quot;:{&quot;strokeColor&quot;:null,&quot;fillColor&quot;:[&quot;Color&quot;,0.13725,0,0.07059],&quot;strokeWidth&quot;:1}}" id="58e67c54-ee1a-440b-a070-de0077ff0af2" fill="#230012" fill-rule="evenodd"/><path d="M403.0772,282.8303c-2.066,2.067 -2.194,2.981 -1.581,11.331c0.366,4.996 0.958,16.436 1.314,25.422c0.446,11.256 1.11,17.076 2.133,18.71c2.037,3.253 6.183,3.097 8.42,-0.316c1.526,-2.33 1.66,-4.538 1.005,-16.602c-2.029,-37.364 -2.067,-37.714 -4.237,-39.299c-2.808,-2.05 -4.422,-1.878 -7.054,0.754z" data-paper-data="{&quot;wickUUID&quot;:&quot;fd07fc65-d196-4458-b8cf-a2fbc08e5089&quot;,&quot;wickType&quot;:&quot;path&quot;,&quot;originalStyle&quot;:{&quot;strokeColor&quot;:null,&quot;fillColor&quot;:[&quot;Color&quot;,0.13725,0,0.07059],&quot;strokeWidth&quot;:1}}" id="fd07fc65-d196-4458-b8cf-a2fbc08e5089" fill="#230012" fill-rule="evenodd"/><path d="M422.34315,221.64544c-3.336,1.3072 -6.789,6.23557 -7.249,10.34736c-0.339,3.03475 -0.116,3.81824 1.577,5.52856c2.888,2.9176 8.035,5.39004 13.063,6.2769c4.253,0.74904 4.586,0.72011 8.909,-0.78693c9.737,-3.39514 14.236,-8.68942 11.659,-13.72252c-1.478,-2.88728 -3.757,-4.63412 -8.606,-6.5994c-2.97,-1.20384 -4.999,-1.53116 -10.452,-1.68689c-4.811,-0.13782 -7.384,0.04824 -8.901,0.64292z" data-paper-data="{&quot;wickUUID&quot;:&quot;a82c42e3-66de-4c80-b743-8598e7faa590&quot;,&quot;wickType&quot;:&quot;path&quot;,&quot;originalStyle&quot;:{&quot;strokeColor&quot;:null,&quot;fillColor&quot;:[&quot;Color&quot;,1,0,1],&quot;strokeWidth&quot;:1}}" id="a82c42e3-66de-4c80-b743-8598e7faa590" fill="#ff00ff" fill-rule="evenodd"/><path d="M302.35602,181.33928c-1.128,0.77798 -2.052,1.87294 -2.052,2.43317c0,1.76751 6.049,13.64878 7.868,15.45488c5.342,5.30392 19.805,13.28701 31.181,17.21137c7.29,2.51517 8.639,3.46128 12.845,9.00638c1.803,2.37667 4.938,5.77457 6.966,7.55104c3.936,3.44682 5.635,3.97328 12.826,3.97328c2.06,0 9.257,1.03432 15.992,2.2988c13.757,2.5827 24.944,3.90507 37.457,4.42809c8.338,0.34799 8.526,0.328 10.662,-1.1432c2.627,-1.81024 2.707,-2.65644 0.44,-4.6417c-1.587,-1.39127 -2.241,-1.51875 -7.798,-1.51875c-5.452,0 -20.761,-1.21556 -26.347,-2.09208c-1.192,-0.18743 -6.716,-1.20728 -12.275,-2.2671c-5.559,-1.06051 -12.631,-2.10586 -15.716,-2.32361c-5.058,-0.35695 -5.841,-0.59054 -7.979,-2.37735c-1.303,-1.08945 -3.811,-3.91127 -5.572,-6.27002c-4.463,-5.97922 -6.869,-7.77568 -13.442,-10.04071c-9.843,-3.39101 -16.339,-6.54496 -23.805,-11.55739c-7.49,-5.02897 -8.576,-6.38372 -11.733,-14.64176c-0.921,-2.40699 -4.083,-4.89804 -6.219,-4.89804c-0.686,0 -2.17,0.63672 -3.299,1.4147z" data-paper-data="{&quot;wickUUID&quot;:&quot;e8aa04bd-3ee6-487c-9c51-51d7e51d4f65&quot;,&quot;wickType&quot;:&quot;path&quot;,&quot;originalStyle&quot;:{&quot;strokeColor&quot;:null,&quot;fillColor&quot;:[&quot;Color&quot;,1,0,1],&quot;strokeWidth&quot;:1}}" id="e8aa04bd-3ee6-487c-9c51-51d7e51d4f65" fill="#ff00ff" fill-rule="evenodd"/><path d="M503.07902,124.93561c-3.984,1.42297 -7.812,4.29027 -9.826,7.35947c-1.688,2.57444 -2.883,3.30349 -12.93,7.89075c-10.374,4.73611 -26.463,10.82559 -31.178,11.79996c-1.15,0.23774 -6.23,1.96391 -11.289,3.83547c-6.665,2.46694 -10.486,4.32816 -13.879,6.76133c-5.07,3.63701 -5.759,4.90425 -5.79,10.64367c-0.026,5.04551 -2.828,17.61655 -4.389,19.69691c-0.728,0.96955 -2.891,5.24809 -4.807,9.50804c-3.374,7.49935 -3.472,7.93899 -3.091,13.89754c0.301,4.71543 0.812,6.751 2.188,8.70939c2.139,3.0437 10.851,9.62588 12.741,9.62588c2.175,0 5.739,-2.28778 5.739,-3.68387c0,-0.71321 -2.068,-3.08436 -4.595,-5.26946c-4.882,-4.22136 -5.859,-6.11291 -5.796,-11.21354c0.041,-3.35173 3.953,-13.19466 7.358,-18.51305c2.123,-3.31796 4.503,-12.99828 5.292,-21.53333c0.479,-5.18126 0.483,-5.18747 3.985,-7.4904c3.315,-2.17959 7.737,-3.84029 30.548,-11.4685c10.36,-3.46474 24.777,-9.48875 32.273,-13.48615c3.232,-1.72272 5.179,-3.309 6.364,-5.18608c0.94,-1.48636 3.543,-3.88577 5.785,-5.33079c4.606,-2.96928 4.958,-4.02014 2.024,-6.04193c-2.397,-1.65175 -3.334,-1.72273 -6.727,-0.51131z" data-paper-data="{&quot;wickUUID&quot;:&quot;b0933453-a52c-4182-aae2-ad06afcdcc62&quot;,&quot;wickType&quot;:&quot;path&quot;,&quot;originalStyle&quot;:{&quot;strokeColor&quot;:null,&quot;fillColor&quot;:[&quot;Color&quot;,1,0,1],&quot;strokeWidth&quot;:1}}" id="b0933453-a52c-4182-aae2-ad06afcdcc62" fill="#ff00ff" fill-rule="evenodd"/><path d="M466.91505,125.0416c-2.287,1.39954 -3.917,8.02444 -2.726,11.07297c0.985,2.52138 5.499,6.70483 10.744,9.95802c4.014,2.49037 4.945,2.60338 7.965,0.96679c3.289,-1.78336 2.822,-3.50815 -1.929,-7.1238c-6.608,-5.02828 -7.142,-5.76768 -6.023,-8.3428c2.272,-5.22398 -3.07,-9.56799 -8.031,-6.53118z" data-paper-data="{&quot;wickUUID&quot;:&quot;5b92098b-0c16-4a86-8620-5f4eda712e29&quot;,&quot;wickType&quot;:&quot;path&quot;,&quot;originalStyle&quot;:{&quot;strokeColor&quot;:null,&quot;fillColor&quot;:[&quot;Color&quot;,1,0,1],&quot;strokeWidth&quot;:1}}" id="5b92098b-0c16-4a86-8620-5f4eda712e29" fill="#ff00ff" fill-rule="evenodd"/><path d="M423.37941,97.27921c-4.247,1.54425 -5.532,3.63356 -3.721,6.04744c2.561,3.41237 1.76,5.72496 -4.184,12.08869c-3.029,3.24354 -7.485,7.8184 -9.902,10.16681c-15.287,14.85193 -18.219,18.16713 -18.219,20.60444c0,1.77234 0.659,2.92587 2.498,4.36813c1.373,1.07842 5.741,7.03147 9.706,13.22982c5.91,9.2393 7.12,11.64766 6.715,13.36625c-0.404,1.71859 0,2.52482 2.241,4.46736c1.504,1.30376 2.735,2.74464 2.735,3.20151c0,1.32167 3.346,3.27041 5.615,3.27041c2.753,0 5.005,-1.80679 5.005,-4.01601c0,-0.98195 -1.139,-4.11593 -2.531,-6.96531c-2.759,-5.64777 -16.01,-26.54507 -18.841,-29.71212l-1.759,-1.96942l11.786,-11.58909c6.483,-6.37407 13.778,-13.84379 16.212,-16.60014c4.134,-4.68167 4.463,-5.35422 4.997,-10.22539c0.314,-2.86799 0.851,-5.94202 1.193,-6.83163c0.466,-1.21486 0.158,-1.93633 -1.236,-2.89692c-2.285,-1.57457 -3.991,-1.57526 -8.31,-0.00483z" data-paper-data="{&quot;wickUUID&quot;:&quot;43fb93c4-5829-4e93-a79d-6bef55f9cbfb&quot;,&quot;wickType&quot;:&quot;path&quot;,&quot;originalStyle&quot;:{&quot;strokeColor&quot;:null,&quot;fillColor&quot;:[&quot;Color&quot;,1,0,1],&quot;strokeWidth&quot;:1}}" id="43fb93c4-5829-4e93-a79d-6bef55f9cbfb" fill="#ff00ff" fill-rule="evenodd"/><path d="M547.75804,188.44671c-4.165,2.55996 -5.532,3.80239 -5.536,5.02828c-0.003,0.89582 -0.42,2.65712 -0.927,3.9154c-0.841,2.08725 -1.192,2.2864 -4.028,2.2864c-5.251,0 -10.832,1.21211 -25.996,5.64708c-8.022,2.34497 -15.987,4.39363 -17.7,4.55143c-1.865,0.17158 -5.327,-0.22671 -8.619,-0.9916c-6.617,-1.53736 -11.738,-1.62831 -15.56,-0.27701c-4.274,1.51117 -27.3,13.15952 -27.805,14.06567c-0.829,1.48981 0.684,3.87889 2.896,4.57349c2.947,0.92545 5.359,0.08751 17.652,-6.12945c13.744,-6.95084 12.26,-6.62146 21.099,-4.68236c9.499,2.08449 11.566,1.83229 30.647,-3.73968c14.98,-4.37433 21.193,-5.69945 26.723,-5.69945c5.094,0 9.761,-3.26077 11.346,-7.92728c0.848,-2.49588 2.128,-4.08973 5,-6.22522c4.376,-3.25319 4.601,-3.94021 2.027,-6.19422c-2.709,-2.37391 -5.039,-2.00043 -11.219,1.79852z" data-paper-data="{&quot;wickUUID&quot;:&quot;92e734c0-e5ba-4297-b586-c6a0c4bddf4d&quot;,&quot;wickType&quot;:&quot;path&quot;,&quot;originalStyle&quot;:{&quot;strokeColor&quot;:null,&quot;fillColor&quot;:[&quot;Color&quot;,1,0,1],&quot;strokeWidth&quot;:1}}" id="92e734c0-e5ba-4297-b586-c6a0c4bddf4d" fill="#ff00ff" fill-rule="evenodd"/><path d="M537.23901,169.90467c-2.177,0.71941 -3.515,2.50483 -4.77,6.36442c-0.488,1.49877 -1.943,3.82514 -3.234,5.16955c-3.318,3.4544 -3.012,5.19848 1.765,10.07585c5.578,5.69463 6.755,6.66073 10.293,8.45029c3.677,1.85985 5.666,1.93979 8.014,0.3225c2.797,-1.92807 2.193,-3.72935 -2.257,-6.73378c-2.214,-1.49532 -5.024,-3.94779 -6.245,-5.44931l-2.218,-2.73017l1.775,-2.17614c1.743,-2.13755 3.39,-5.82349 4.217,-9.43914c0.704,-3.07747 -3.311,-5.18608 -7.34,-3.85407z" data-paper-data="{&quot;wickUUID&quot;:&quot;d445a185-69af-4701-9894-56c7ebc0b9c4&quot;,&quot;wickType&quot;:&quot;path&quot;,&quot;originalStyle&quot;:{&quot;strokeColor&quot;:null,&quot;fillColor&quot;:[&quot;Color&quot;,1,0,1],&quot;strokeWidth&quot;:1}}" id="d445a185-69af-4701-9894-56c7ebc0b9c4" fill="#ff00ff" fill-rule="evenodd"/><path d="M440.09589,229.05053c-2.001,1.96873 -1.785,2.9617 1.357,6.23074c4.633,4.82018 23.207,13.61639 30.86,14.61488c2.186,0.28528 3.547,0.94888 4.626,2.25539c3.154,3.821 13.529,4.99658 21.481,2.43455c2.434,-0.78418 6.81,-2.0025 9.725,-2.70675c7.474,-1.8061 9.43,-5.17987 4.337,-7.47936c-1.874,-0.8462 -2.568,-0.83725 -7.183,0.0944c-5.317,1.07291 -7.15,1.59111 -10.862,3.06989c-3.998,1.59386 -7.048,1.14458 -10.365,-1.52564c-2.063,-1.6607 -4.183,-2.63232 -6.722,-3.08229c-8.486,-1.50359 -22.7,-7.9073 -27.635,-12.44977c-3.316,-3.05266 -7.372,-3.66664 -9.619,-1.45604z" data-paper-data="{&quot;wickUUID&quot;:&quot;ca306094-4702-43b5-bf9a-7fbe4a5ddb82&quot;,&quot;wickType&quot;:&quot;path&quot;,&quot;originalStyle&quot;:{&quot;strokeColor&quot;:null,&quot;fillColor&quot;:[&quot;Color&quot;,1,0,1],&quot;strokeWidth&quot;:1}}" id="ca306094-4702-43b5-bf9a-7fbe4a5ddb82" fill="#ff00ff" fill-rule="evenodd"/><path d="M437.1566,236.05651c-0.597,0.16607 -2.942,2.1341 -5.212,4.37295c-2.27,2.23885 -4.829,4.41017 -5.686,4.825c-0.857,0.41414 -2.693,1.99423 -4.08,3.51091c-2.92,3.19117 -4.084,3.57637 -8.29,2.74533c-1.689,-0.33421 -4.866,-0.60158 -7.06,-0.594c-5.938,0.01929 -19.197,2.20646 -22.143,3.65217c-1.419,0.69598 -4.585,1.42917 -7.035,1.62901c-7.196,0.58779 -9.574,2.91691 -6.092,5.96682c1.823,1.598 2.247,1.67862 7.333,1.39678c3.377,-0.18674 7.139,-0.90546 10.043,-1.9198c6.786,-2.36978 17.042,-3.71212 21.908,-2.8673c2.115,0.3666 5.135,0.66704 6.713,0.66704c4.205,0 10.325,-2.25746 11.934,-4.40121c0.758,-1.0102 2.888,-2.97204 4.732,-4.35918c5.279,-3.96915 10.656,-9.60176 10.656,-11.16048c0,-2.60269 -4.145,-4.46184 -7.721,-3.46404z" data-paper-data="{&quot;wickUUID&quot;:&quot;3080c5de-fbab-48e9-b34b-7bf6fae6c82b&quot;,&quot;wickType&quot;:&quot;path&quot;,&quot;originalStyle&quot;:{&quot;strokeColor&quot;:null,&quot;fillColor&quot;:[&quot;Color&quot;,1,0,1],&quot;strokeWidth&quot;:1}}" id="3080c5de-fbab-48e9-b34b-7bf6fae6c82b" fill="#ff00ff" fill-rule="evenodd"/><path d="M418.5246,256.12188c-4.418,2.13273 -1.474,5.94201 6.806,8.8038c2.148,0.74215 6.179,2.41939 8.957,3.7259c7.314,3.44062 12.36,2.90658 12.36,-1.30651c0,-1.42641 -0.903,-2.22645 -4.683,-4.15107c-2.575,-1.31065 -6.856,-3.14017 -9.513,-4.06562c-2.657,-0.92476 -5.781,-2.19337 -6.942,-2.81906c-2.572,-1.38576 -4.4,-1.43469 -6.985,-0.18744z" data-paper-data="{&quot;wickUUID&quot;:&quot;52c4fc42-a204-48bd-957d-c756e03d3e1d&quot;,&quot;wickType&quot;:&quot;path&quot;,&quot;originalStyle&quot;:{&quot;strokeColor&quot;:null,&quot;fillColor&quot;:[&quot;Color&quot;,1,0,1],&quot;strokeWidth&quot;:1}}" id="52c4fc42-a204-48bd-957d-c756e03d3e1d" fill="#ff00ff" fill-rule="evenodd"/><path d="M451.9689,231.71254c-6.094,1.30858 -8.157,4.36882 -4.488,6.65659c1.383,0.86274 2.579,0.99022 6.13,0.65326c3.72,-0.35212 4.818,-0.21155 6.99,0.89513c2.854,1.45398 7.834,2.41112 12.66,2.43386c3.755,0.01723 11.252,-1.60626 13.433,-2.90864c2.089,-1.24794 1.957,-3.95124 -0.262,-5.33562c-1.667,-1.03915 -2.214,-1.06326 -6.859,-0.30664c-6.399,1.0419 -10.57,0.97023 -12.47,-0.215c-1.916,-1.19419 -7.545,-2.81837 -9.586,-2.766c-0.867,0.02274 -3.364,0.42448 -5.548,0.89306z" data-paper-data="{&quot;wickUUID&quot;:&quot;8113818b-48a2-49c1-b157-9d5046aa5787&quot;,&quot;wickType&quot;:&quot;path&quot;,&quot;originalStyle&quot;:{&quot;strokeColor&quot;:null,&quot;fillColor&quot;:[&quot;Color&quot;,1,0,1],&quot;strokeWidth&quot;:1}}" id="8113818b-48a2-49c1-b157-9d5046aa5787" fill="#ff00ff" fill-rule="evenodd"/><path d="M352.83902,227.30725c-3.386,0.8841 -6.349,2.31879 -9.735,4.71268c-4.671,3.3028 -5.022,3.43097 -8.673,3.16774c-4.533,-0.32663 -7.257,0.99435 -7.257,3.51917c0,2.35531 2.453,3.56053 8.196,4.02566c6.644,0.53749 9.238,-0.27563 14.709,-4.61c2.806,-2.223 5.365,-3.64735 6.944,-3.8651c6.456,-0.88961 9.664,-5.32803 5.354,-7.4077c-2.443,-1.17903 -3.456,-1.1308 -9.538,0.45755z" data-paper-data="{&quot;wickUUID&quot;:&quot;2bb04223-204b-4c24-a2d6-3039b3c36de1&quot;,&quot;wickType&quot;:&quot;path&quot;,&quot;originalStyle&quot;:{&quot;strokeColor&quot;:null,&quot;fillColor&quot;:[&quot;Color&quot;,1,0,1],&quot;strokeWidth&quot;:1}}" id="2bb04223-204b-4c24-a2d6-3039b3c36de1" fill="#ff00ff" fill-rule="evenodd"/><path d="M339.25023,178.02619c-0.729,0.50235 -2.798,2.58408 -4.598,4.62516c-2.761,3.1326 -3.566,3.6501 -5.154,3.31658c-1.035,-0.21775 -4.47,-0.54162 -7.634,-0.72009c-5.138,-0.28942 -6.272,-0.13575 -10.614,1.44088c-5.799,2.10654 -7.321,4.09663 -5,6.53807c1.856,1.9515 4.506,2.01559 9.819,0.23636c3.893,-1.30307 4.101,-1.30996 8.73,-0.30458c5.841,1.26861 9.373,1.30651 11.816,0.12748c2.032,-0.98126 10.643,-9.89806 10.94,-11.3293c0.369,-1.77509 -0.059,-2.9493 -1.417,-3.88508c-1.759,-1.21211 -5.163,-1.23416 -6.888,-0.04548z" data-paper-data="{&quot;wickUUID&quot;:&quot;c0be2e34-b739-4c46-8fcd-e2315d198c13&quot;,&quot;wickType&quot;:&quot;path&quot;,&quot;originalStyle&quot;:{&quot;strokeColor&quot;:null,&quot;fillColor&quot;:[&quot;Color&quot;,1,0,1],&quot;strokeWidth&quot;:1}}" id="c0be2e34-b739-4c46-8fcd-e2315d198c13" fill="#ff00ff" fill-rule="evenodd"/><path d="M366.6929,133.10013c-1.905,1.45053 -1.847,2.68538 0.257,5.52718c0.954,1.28791 1.501,2.90519 1.228,3.62529c-0.772,2.0335 0.287,3.86717 3.696,6.40577l3.146,2.34153l9.344,-0.20742c8.566,-0.19019 9.485,-0.32732 11.034,-1.64692c2.162,-1.84124 2.144,-3.43097 -0.054,-4.94559c-1.551,-1.06947 -2.53,-1.16043 -8.85,-0.82484l-7.105,0.37762v-2.24436c0,-6.5429 -8.1,-11.90745 -12.696,-8.40826z" data-paper-data="{&quot;wickUUID&quot;:&quot;f6974b6f-0d9c-46ca-8f54-9ce4b941a931&quot;,&quot;wickType&quot;:&quot;path&quot;,&quot;originalStyle&quot;:{&quot;strokeColor&quot;:null,&quot;fillColor&quot;:[&quot;Color&quot;,1,0,1],&quot;strokeWidth&quot;:1}}" id="f6974b6f-0d9c-46ca-8f54-9ce4b941a931" fill="#ff00ff" fill-rule="evenodd"/><path d="M392.98563,175.5535c-1.526,0.45755 -4.061,2.12033 -5.632,3.69421c-2.619,2.62267 -3.09,2.83078 -5.633,2.48692c-1.526,-0.20604 -4.626,-0.53956 -6.89,-0.74008c-3.768,-0.3349 -4.246,-0.2274 -5.678,1.27757c-3.636,3.82444 2.575,6.88123 14.199,6.98873l5.29,0.04893l5.037,-3.70385c6.841,-5.03241 8.662,-4.91252 12.913,0.84895c3.435,4.65479 5.939,5.92134 9.5,4.80295c3.65,-1.14595 3.749,-3.36619 0.367,-8.22151c-1.649,-2.36702 -4.24,-5.21641 -5.757,-6.33273c-2.618,-1.92531 -3.073,-2.02868 -8.85,-2.00594c-3.35,0.01309 -7.34,0.3983 -8.866,0.85585z" data-paper-data="{&quot;wickUUID&quot;:&quot;235f05e3-0db2-4694-a8e5-b44232266404&quot;,&quot;wickType&quot;:&quot;path&quot;,&quot;originalStyle&quot;:{&quot;strokeColor&quot;:null,&quot;fillColor&quot;:[&quot;Color&quot;,1,0,1],&quot;strokeWidth&quot;:1}}" id="235f05e3-0db2-4694-a8e5-b44232266404" fill="#ff00ff" fill-rule="evenodd"/><path d="M477.81961,138.42328c-2.918,1.4085 -2.442,3.17394 2.474,9.17797c2.442,2.98238 4.769,5.83521 5.172,6.33824c0.977,1.22107 6.365,3.91746 15.193,7.60271c3.991,1.66622 7.471,3.45027 7.732,3.96433c1.613,3.17119 6.978,4.14418 9.449,1.71376c3.475,-3.41926 0.286,-7.17479 -9.846,-11.59736c-4.292,-1.87294 -8.902,-3.74934 -10.245,-4.16968c-1.676,-0.5244 -3.735,-2.39871 -6.567,-5.97784c-6.163,-7.79221 -8.87,-9.22069 -13.362,-7.05213z" data-paper-data="{&quot;wickUUID&quot;:&quot;7a0e0e75-cd8c-467f-9ff6-ba75ccb484e4&quot;,&quot;wickType&quot;:&quot;path&quot;,&quot;originalStyle&quot;:{&quot;strokeColor&quot;:null,&quot;fillColor&quot;:[&quot;Color&quot;,1,0,1],&quot;strokeWidth&quot;:1}}" id="7a0e0e75-cd8c-467f-9ff6-ba75ccb484e4" fill="#ff00ff" fill-rule="evenodd"/><path d="M427.73207,108.77691c-6.255,0.59744 -8.388,3.02923 -5.312,6.05571c1.419,1.3954 1.587,1.4085 13.054,0.99505c11.267,-0.40587 11.763,-0.37073 16.484,1.1556c6.425,2.0776 10.974,2.10034 12.909,0.06546c1.826,-1.9198 1.021,-4.43084 -1.65,-5.1468c-1.082,-0.29011 -4.406,-1.24105 -7.388,-2.11413c-4.762,-1.39403 -6.535,-1.57663 -14.602,-1.50496c-5.05,0.04479 -11.123,0.26736 -13.495,0.49407z" data-paper-data="{&quot;wickUUID&quot;:&quot;d3eecd8e-40f9-4a2e-9628-9a16eb385739&quot;,&quot;wickType&quot;:&quot;path&quot;,&quot;originalStyle&quot;:{&quot;strokeColor&quot;:null,&quot;fillColor&quot;:[&quot;Color&quot;,1,0,1],&quot;strokeWidth&quot;:1}}" id="d3eecd8e-40f9-4a2e-9628-9a16eb385739" fill="#ff00ff" fill-rule="evenodd"/><path d="M473.00271,180.01004c-0.745,0.5871 -1.867,2.47934 -2.494,4.2062c-0.994,2.73982 -0.952,3.4103 0.332,5.27566c1.942,2.81975 1.861,5.64157 -0.228,7.97896c-3.986,4.45703 -9.37,16.13294 -8.519,18.47033c0.638,1.75166 3.558,2.85351 6.303,2.37873c2.403,-0.41552 4.022,-2.34703 5.658,-6.751c0.623,-1.67724 2.825,-5.51891 4.894,-8.53781c4.852,-7.07763 5.261,-8.53023 3.634,-12.89285c-0.759,-2.03488 -1.116,-4.65755 -0.831,-6.09361c0.406,-2.04315 0.146,-2.76531 -1.371,-3.81135c-2.276,-1.56837 -5.546,-1.6669 -7.378,-0.22326z" data-paper-data="{&quot;wickUUID&quot;:&quot;97ea1ada-b3d4-40f4-aa1d-ebc2bede6b28&quot;,&quot;wickType&quot;:&quot;path&quot;,&quot;originalStyle&quot;:{&quot;strokeColor&quot;:null,&quot;fillColor&quot;:[&quot;Color&quot;,1,0,1],&quot;strokeWidth&quot;:1}}" id="97ea1ada-b3d4-40f4-aa1d-ebc2bede6b28" fill="#ff00ff" fill-rule="evenodd"/><path d="M503.86655,208.72024c-2.68,2.04108 -1.809,3.82789 3.465,7.10451c5.258,3.26628 6.512,5.29288 6.554,10.58784c0.018,2.21197 0.481,2.91347 2.815,4.26891c1.536,0.89168 3.985,2.37666 5.441,3.29866c3.851,2.43937 7.203,2.21887 9.37,-0.61673c1.375,-1.79921 -0.968,-5.41142 -4.387,-6.76341c-2.039,-0.80623 -2.462,-1.46775 -2.937,-4.59828c-0.769,-5.07376 -3.318,-8.32351 -9.099,-11.60288c-5.376,-3.04991 -8.757,-3.5557 -11.222,-1.67862z" data-paper-data="{&quot;wickUUID&quot;:&quot;2c3e001c-ea0c-4470-9d92-c84064747f33&quot;,&quot;wickType&quot;:&quot;path&quot;,&quot;originalStyle&quot;:{&quot;strokeColor&quot;:null,&quot;fillColor&quot;:[&quot;Color&quot;,1,0,1],&quot;strokeWidth&quot;:1}}" id="2c3e001c-ea0c-4470-9d92-c84064747f33" fill="#ff00ff" fill-rule="evenodd"/><path d="M345.07095,173.86344c-1.678,0.46513 -4.101,4.09594 -6.848,10.26259c-1.345,3.0189 -3.186,6.50707 -4.092,7.75156c-3.095,4.25237 -1.313,8.40964 3.605,8.40964c4.048,0 4.23,-0.23636 11.168,-14.4874c2.164,-4.446 3.935,-8.61568 3.935,-9.26549c0,-2.04659 -4.472,-3.58394 -7.768,-2.6709z" data-paper-data="{&quot;wickUUID&quot;:&quot;ff4693dd-438b-4ca6-8d78-cca7b458d40c&quot;,&quot;wickType&quot;:&quot;path&quot;,&quot;originalStyle&quot;:{&quot;strokeColor&quot;:null,&quot;fillColor&quot;:[&quot;Color&quot;,0.13725,0,0.07059],&quot;strokeWidth&quot;:1}}" id="ff4693dd-438b-4ca6-8d78-cca7b458d40c" fill="#230012" fill-rule="evenodd"/><path d="M296.19933,178.94267c-2.284,1.57388 -2.231,2.51103 0.442,7.92796c1.217,2.46556 2.213,5.02759 2.213,5.69394c0,0.66635 1.737,3.29454 3.86,5.83934c5.579,6.68761 14.369,18.40073 15.144,20.17789c0.366,0.83862 1.592,2.2106 2.726,3.04922c1.948,1.44157 2.016,1.76682 1.25,5.95786c-0.446,2.438 -1.219,4.95868 -1.718,5.60091c-1.49,1.91842 -1.05,5.22812 0.927,6.95911c1.486,1.30169 2.575,1.60695 5.736,1.60695c5.419,0 17.473,-3.9526 22.001,-7.21406c2.966,-2.13617 3.522,-2.97067 3.863,-5.80351c0.486,-4.04288 -1.512,-5.88757 -6.379,-5.88757c-4.219,0 -6.01,1.41814 -5.658,4.47838c0.257,2.22713 -0.015,2.61303 -2.722,3.87613c-5.467,2.55101 -5.966,2.15685 -5.042,-3.99189c0.78,-5.19711 0.726,-5.49273 -1.478,-8.08026c-1.258,-1.47672 -5.29,-6.70414 -8.962,-11.61665c-3.671,-4.91182 -8.08,-10.53755 -9.799,-12.50145c-1.719,-1.9639 -3.126,-3.98155 -3.127,-4.48321c-0.005,-2.059 -4.73,-10.75047 -6.383,-11.74138c-2.34,-1.40298 -4.713,-1.35061 -6.894,0.15229z" data-paper-data="{&quot;wickUUID&quot;:&quot;470c32de-d065-411c-83dc-5b8f2cfee73e&quot;,&quot;wickType&quot;:&quot;path&quot;,&quot;originalStyle&quot;:{&quot;strokeColor&quot;:null,&quot;fillColor&quot;:[&quot;Color&quot;,0.13725,0,0.07059],&quot;strokeWidth&quot;:1}}" id="470c32de-d065-411c-83dc-5b8f2cfee73e" fill="#230012" fill-rule="evenodd"/><path d="M409.92088,245.4434c-1.46,0.29011 -6.947,0.77385 -12.193,1.07429c-8.129,0.46513 -9.862,0.75525 -11.727,1.96253c-1.28,0.82897 -2.187,2.09965 -2.187,3.06437c0,1.5849 -0.33,1.69998 -8.629,3.00856c-9.289,1.465 -11.726,2.43731 -11.726,4.67754c0,1.72617 2.897,3.86923 5.231,3.86923c0.931,0 5.905,-0.68564 11.055,-1.52426c5.15,-0.83862 10.835,-1.52496 12.633,-1.52496c4.224,0 15.718,-2.20371 19.961,-3.8272c3.979,-1.5222 7.759,-5.25017 7.759,-7.65164c0,-3.22493 -3.808,-4.39569 -10.177,-3.12846z" data-paper-data="{&quot;wickUUID&quot;:&quot;e25a4c80-1491-4d81-a3a3-e9263e535ca4&quot;,&quot;wickType&quot;:&quot;path&quot;,&quot;originalStyle&quot;:{&quot;strokeColor&quot;:null,&quot;fillColor&quot;:[&quot;Color&quot;,0.13725,0,0.07059],&quot;strokeWidth&quot;:1}}" id="e25a4c80-1491-4d81-a3a3-e9263e535ca4" fill="#230012" fill-rule="evenodd"/><path d="M456.78546,232.27552c-3.955,2.72535 -2.152,6.36443 3.804,7.6799c1.823,0.40312 7.08,2.07071 11.681,3.70592c4.601,1.63521 8.982,2.99478 9.735,3.02165c0.784,0.02756 0.931,0.17158 0.344,0.33696c-1.265,0.35626 -17.571,-3.33656 -24.197,-5.47963c-2.677,-0.86618 -5.962,-2.18579 -7.299,-2.93207c-3.162,-1.76476 -6.571,-1.03777 -9.067,1.93358c-0.977,1.16249 -4.175,3.76381 -7.106,5.78008c-8.956,6.16114 -10.157,7.53242 -10.157,11.59391c0,3.34139 0.202,3.6763 3.541,5.86553c1.985,1.301 5.389,2.72051 7.744,3.22975c2.311,0.49959 9.976,2.32844 17.034,4.06494c7.058,1.73581 13.888,3.28557 15.179,3.44406c4.724,0.57952 8.01,-3.91747 4.474,-6.12255c-1.355,-0.84482 -18.045,-5.18884 -31.061,-8.08508c-4.052,-0.90133 -6.292,-1.88121 -6.292,-2.75084c0,-0.28115 3.155,-2.72328 7.011,-5.42726l7.011,-4.91665l4.716,1.43331c2.593,0.78832 9.195,2.47865 14.671,3.75622c8.925,2.08174 9.956,2.47176 9.956,3.7638c0,1.99629 3.211,4.08836 5.618,3.66113c15.21,-2.69916 31.537,-8.81413 32.801,-12.28507c0.782,-2.1472 -1.375,-4.44601 -4.579,-4.88082c-1.333,-0.18123 -4.215,-0.59537 -6.405,-0.92131c-2.191,-0.32525 -6.242,-0.76626 -9.004,-0.97919l-5.021,-0.38658l2.587,-1.50015c3.471,-2.01214 3.584,-5.03242 0.256,-6.83645c-1.925,-1.04328 -3.588,-1.26379 -9.538,-1.26379c-5.192,0 -7.775,0.27426 -9.241,0.98195c-1.87,0.90271 -2.444,0.90271 -7.113,0c-6.996,-1.35268 -9.53,-1.24449 -12.083,0.51475z" data-paper-data="{&quot;wickUUID&quot;:&quot;ca4feac4-5f53-44e8-bf9b-f80f552d0695&quot;,&quot;wickType&quot;:&quot;path&quot;,&quot;originalStyle&quot;:{&quot;strokeColor&quot;:null,&quot;fillColor&quot;:[&quot;Color&quot;,0.13725,0,0.07059],&quot;strokeWidth&quot;:1}}" id="ca4feac4-5f53-44e8-bf9b-f80f552d0695" fill="#230012" fill-rule="evenodd"/><path d="M507.06754,215.05124c-2.711,0.90202 -3.182,2.34015 -2.473,7.55379c0.79,5.80833 2.758,7.81564 10.536,10.74564c3.313,1.24725 7.579,3.23735 9.482,4.42189c3.931,2.44695 6.215,2.69089 8.764,0.9344c3.979,-2.74188 0.723,-6.3217 -9.735,-10.70499l-7.522,-3.15327l-0.961,-4.35435c-0.529,-2.39527 -1.126,-4.45427 -1.328,-4.57555c-0.59,-0.35557 -4.206,-1.60971 -4.511,-1.56423c-0.154,0.02274 -1.167,0.33628 -2.252,0.69667z" data-paper-data="{&quot;wickUUID&quot;:&quot;13671d07-7367-4106-818b-1ceceded28f7&quot;,&quot;wickType&quot;:&quot;path&quot;,&quot;originalStyle&quot;:{&quot;strokeColor&quot;:null,&quot;fillColor&quot;:[&quot;Color&quot;,0.13725,0,0.07059],&quot;strokeWidth&quot;:1}}" id="13671d07-7367-4106-818b-1ceceded28f7" fill="#230012" fill-rule="evenodd"/><path d="M537.14253,162.80299c-2.13,1.02743 -5.273,7.4201 -6.146,12.49662c-0.287,1.66828 -0.685,3.03337 -0.884,3.03337c-0.2,0 -1.542,-0.42034 -2.982,-0.93371c-2.092,-0.7449 -3.019,-0.78832 -4.603,-0.21362c-2.716,0.98609 -3.15,1.57664 -3.801,5.16748c-0.609,3.35517 0.62,5.67258 5.289,9.9718c1.255,1.1556 2.281,2.27813 2.281,2.49588c0,0.5368 -13.458,4.856 -15.131,4.856c-0.734,0 -2.907,0.77936 -4.828,1.73168c-4.799,2.37873 -10.301,3.75692 -14.999,3.75692c-3.374,0 -4.011,-0.19915 -4.384,-1.37198c-0.24,-0.75455 -0.547,-7.04662 -0.681,-13.98299c-0.226,-11.71037 -0.376,-12.73297 -2.101,-14.33097c-2.577,-2.387 -6.795,-2.65575 -8.788,-0.55885c-1.236,1.29962 -1.313,2.01834 -0.497,4.63963c0.531,1.70549 0.982,8.0961 1.004,14.20074c0.064,18.47584 0.435,18.93753 14.973,18.62055c9.442,-0.20535 12.809,-0.90132 21.273,-4.39707c6.228,-2.57168 18.576,-5.86828 21.984,-5.86828c4.969,0 7.648,-1.77096 6.78,-4.48115c-1.453,-4.5342 -1.438,-11.29898 0.04,-17.64204c0.843,-3.61496 1.745,-6.42575 2.005,-6.2459c0.261,0.17916 1.539,2.21335 2.842,4.52042c1.302,2.30707 3.187,4.98693 4.188,5.9551l1.82,1.76131l-2.602,2.62888c-4.7,4.74989 -7.098,18.8383 -3.579,21.03236c4.084,2.54618 9.001,0.2212 9.001,-4.2565c0,-7.27057 2.589,-12.38844 8.196,-16.20323c3.264,-2.22093 3.061,-3.4799 -1.12,-6.96738c-1.949,-1.62556 -4.58,-4.87943 -5.846,-7.23198c-4.058,-7.54001 -5.975,-10.14683 -8.567,-11.64973c-2.928,-1.69791 -7.253,-1.92532 -10.137,-0.53336z" data-paper-data="{&quot;wickUUID&quot;:&quot;f535fc48-eb1e-450b-a30b-eb959a30d956&quot;,&quot;wickType&quot;:&quot;path&quot;,&quot;originalStyle&quot;:{&quot;strokeColor&quot;:null,&quot;fillColor&quot;:[&quot;Color&quot;,0.13725,0,0.07059],&quot;strokeWidth&quot;:1}}" id="f535fc48-eb1e-450b-a30b-eb959a30d956" fill="#230012" fill-rule="evenodd"/><path d="M480.27753,149.67047c-2.183,1.50428 -2.285,3.78861 -0.221,4.95593c0.851,0.48167 3.33,1.53736 5.508,2.34497c2.178,0.80761 4.902,2.24023 6.054,3.1829c1.151,0.94336 4.56,2.66539 7.576,3.82719c3.015,1.16249 8.027,3.63151 11.138,5.48791c3.364,2.008 6.489,3.37515 7.712,3.37515c2.608,0 5.598,-2.0273 5.598,-3.7955c0,-1.75924 -8.639,-7.40633 -15.58,-10.18542c-2.87,-1.14871 -7.01,-3.23251 -9.2,-4.63067c-4.96,-3.16498 -11.541,-5.78215 -14.539,-5.78215c-1.252,0 -3.073,0.54852 -4.046,1.21969z" data-paper-data="{&quot;wickUUID&quot;:&quot;245accb6-c3d1-43d3-8f8e-3336d249a4ef&quot;,&quot;wickType&quot;:&quot;path&quot;,&quot;originalStyle&quot;:{&quot;strokeColor&quot;:null,&quot;fillColor&quot;:[&quot;Color&quot;,0.13725,0,0.07059],&quot;strokeWidth&quot;:1}}" id="245accb6-c3d1-43d3-8f8e-3336d249a4ef" fill="#230012" fill-rule="evenodd"/><path d="M503.0875,122.04312c-0.838,0.6381 -2.143,2.36977 -2.9,3.84787c-0.757,1.4781 -2.548,3.9464 -3.98,5.48445c-3.589,3.85407 -5.31,7.50487 -5.31,11.26385c0,3.58119 1.702,5.20193 5.464,5.20193c3.322,0 5.259,-1.92394 5.952,-5.91032c0.371,-2.13617 1.579,-4.66926 3.041,-6.38096l2.426,-2.83766l2.708,0.93026c2.507,0.86205 2.88,0.84207 5.054,-0.27219c1.917,-0.98333 2.396,-1.77439 2.613,-4.31851c0.24,-2.8039 -0.028,-3.33726 -2.685,-5.33493c-3.688,-2.77289 -9.846,-3.60531 -12.383,-1.67379z" data-paper-data="{&quot;wickUUID&quot;:&quot;a3a87f9f-1124-46dc-a30c-e0fe0cb5a41c&quot;,&quot;wickType&quot;:&quot;path&quot;,&quot;originalStyle&quot;:{&quot;strokeColor&quot;:null,&quot;fillColor&quot;:[&quot;Color&quot;,0.13725,0,0.07059],&quot;strokeWidth&quot;:1}}" id="a3a87f9f-1124-46dc-a30c-e0fe0cb5a41c" fill="#230012" fill-rule="evenodd"/><path d="M468.16364,122.19816c-3.403,1.42986 -4.689,4.12695 -4.696,9.84914c-0.006,4.62241 1.98,7.29814 6.879,9.26962c3.83,1.54149 7.655,1.0233 12.929,-1.75166c4.868,-2.56065 5.503,-4.89183 1.869,-6.86125c-1.881,-1.01985 -2.212,-1.70205 -2.212,-4.55488c0,-3.07747 -0.259,-3.51229 -3.128,-5.2481c-3.697,-2.23678 -7.451,-2.46349 -11.641,-0.70287z" data-paper-data="{&quot;wickUUID&quot;:&quot;6d7c7cda-6f30-4057-bd1a-54cb2da95c30&quot;,&quot;wickType&quot;:&quot;path&quot;,&quot;originalStyle&quot;:{&quot;strokeColor&quot;:null,&quot;fillColor&quot;:[&quot;Color&quot;,0.13725,0,0.07059],&quot;strokeWidth&quot;:1}}" id="6d7c7cda-6f30-4057-bd1a-54cb2da95c30" fill="#230012" fill-rule="evenodd"/><path d="M364.25665,174.73349c-1.376,0.94888 -1.704,1.69723 -1.266,2.89693c0.324,0.88961 0.955,3.78378 1.403,6.43264c1.073,6.35684 3.046,9.1511 6.633,9.39297c1.788,0.12059 3.218,-0.21223 4.233,-0.98539c1.5,-1.14182 1.6,-1.12184 4.513,0.88479c4.21,2.90175 7.801,2.81079 13.592,-0.34386c2.42,-1.31823 5.296,-3.26421 6.392,-4.32472l1.992,-1.92738l2.596,3.72659c3.083,4.42602 5.945,5.9999 9.39,5.16472c4.427,-1.07291 4.377,-3.00167 -0.251,-9.72511c-4.885,-7.09555 -6.901,-8.81275 -10.352,-8.81275c-2.855,0 -7.957,2.89141 -11.739,6.65246c-1.33,1.32236 -3.044,2.56961 -3.809,2.7722c-1.958,0.51751 -5.081,-1.68551 -9.282,-6.54703c-5.529,-6.39888 -9.974,-8.06234 -14.045,-5.25706z" data-paper-data="{&quot;wickUUID&quot;:&quot;3521f9f6-8762-495e-903f-6c7c3bd5d04e&quot;,&quot;wickType&quot;:&quot;path&quot;,&quot;originalStyle&quot;:{&quot;strokeColor&quot;:null,&quot;fillColor&quot;:[&quot;Color&quot;,0.13725,0,0.07059],&quot;strokeWidth&quot;:1}}" id="3521f9f6-8762-495e-903f-6c7c3bd5d04e" fill="#230012" fill-rule="evenodd"/><path d="M360.80369,129.54584c-2.34,1.61247 -2.237,3.91334 0.432,9.62106c1.211,2.59097 2.636,6.29758 3.167,8.23805c1.176,4.30129 3.402,6.0943 9.17,7.38703c6.695,1.49946 12.507,1.30031 15.148,-0.52026c2.532,-1.74408 2.685,-2.60613 0.795,-4.46529c-1.06,-1.04328 -2.254,-1.35544 -5.178,-1.35544c-2.09,0 -5.021,-0.29355 -6.512,-0.65188c-2.419,-0.5809 -2.78,-0.99367 -3.336,-3.81135c-0.344,-1.73788 -1.572,-4.9766 -2.73,-7.19753c-1.158,-2.22093 -2.106,-4.60656 -2.106,-5.30185c0,-1.40092 -3.068,-3.16222 -5.507,-3.16222c-0.865,0 -2.37,0.54851 -3.343,1.21968z" data-paper-data="{&quot;wickUUID&quot;:&quot;182a15f5-c9ed-45c6-a68d-5dbed9e30ff8&quot;,&quot;wickType&quot;:&quot;path&quot;,&quot;originalStyle&quot;:{&quot;strokeColor&quot;:null,&quot;fillColor&quot;:[&quot;Color&quot;,0.13725,0,0.07059],&quot;strokeWidth&quot;:1}}" id="182a15f5-c9ed-45c6-a68d-5dbed9e30ff8" fill="#230012" fill-rule="evenodd"/><path d="M421.18046,92.07564c-1.658,0.80003 -1.967,1.51944 -1.967,4.57348c0,3.17601 -0.212,3.62461 -1.711,3.62461c-1.917,0 -6.813,3.90507 -9.556,7.6227c-10.056,13.62742 -21.478,30.71544 -21.478,32.13358c0,1.64072 3.94,4.15176 6.516,4.15176c3.302,0 9.321,-4.50733 13.709,-10.26535c2.118,-2.78047 5.374,-6.06812 7.235,-7.30503c3.118,-2.07347 7.94,-7.64614 7.94,-9.17729c0,-0.35902 1.136,-1.55389 2.525,-2.65574c3.307,-2.62336 4.555,-4.32266 4.555,-6.20318c0,-0.84482 0.447,-2.21336 0.995,-3.04164c1.562,-2.36288 0.164,-11.77859 -1.967,-13.24773c-2.043,-1.40781 -4.179,-1.47396 -6.796,-0.21017z" data-paper-data="{&quot;wickUUID&quot;:&quot;177413f3-d22c-4343-a2ad-388d442295ff&quot;,&quot;wickType&quot;:&quot;path&quot;,&quot;originalStyle&quot;:{&quot;strokeColor&quot;:null,&quot;fillColor&quot;:[&quot;Color&quot;,0.13725,0,0.07059],&quot;strokeWidth&quot;:1}}" id="177413f3-d22c-4343-a2ad-388d442295ff" fill="#230012" fill-rule="evenodd"/><path d="M467.34514,216.82541c-1.892,1.04604 -5.002,2.58891 -6.912,3.42822c-1.909,0.83931 -5.394,2.76531 -7.744,4.27993c-3.882,2.50208 -4.271,3.00373 -4.271,5.50099c0,2.47383 0.429,3.04371 4.298,5.70979c2.467,1.69998 5.107,2.96239 6.195,2.96239c2.511,0 5.436,-2.08173 5.436,-3.86923c0,-0.78694 -0.796,-1.92669 -1.769,-2.53378c-0.974,-0.60709 -1.767,-1.54149 -1.763,-2.07691c0.003,-0.53611 3.228,-2.45454 7.18,-4.27373c9.817,-4.51698 12.45,-7.87973 8.041,-10.26742c-2.292,-1.24243 -5.033,-0.88273 -8.691,1.13975z" data-paper-data="{&quot;wickUUID&quot;:&quot;657bcb54-b12b-4413-9025-e01e0cf701fc&quot;,&quot;wickType&quot;:&quot;path&quot;,&quot;originalStyle&quot;:{&quot;strokeColor&quot;:null,&quot;fillColor&quot;:[&quot;Color&quot;,0.13725,0,0.07059],&quot;strokeWidth&quot;:1}}" id="657bcb54-b12b-4413-9025-e01e0cf701fc" fill="#230012" fill-rule="evenodd"/><path d="M433.37301,114.66925c-4.498,1.39747 -6.195,2.6461 -6.195,4.56039c0,3.41099 4.021,4.44118 10.433,2.67367c2.791,-0.76971 4.745,-0.82898 11.06,-0.33421c4.219,0.33076 8.45,0.88823 9.403,1.23967c0.953,0.35144 3.29,0.63878 5.193,0.63878c3.864,0 6.391,-1.40573 6.391,-3.555c0,-1.58766 -2.93,-3.75968 -5.089,-3.77208c-0.852,-0.00482 -3.172,-0.39898 -5.157,-0.87514c-1.984,-0.47685 -7.957,-1.01778 -13.274,-1.20246c-7.694,-0.26737 -10.3,-0.13989 -12.765,0.62638z" data-paper-data="{&quot;wickUUID&quot;:&quot;b1abd7e2-4a1c-4231-be65-78996f4d464b&quot;,&quot;wickType&quot;:&quot;path&quot;,&quot;originalStyle&quot;:{&quot;strokeColor&quot;:null,&quot;fillColor&quot;:[&quot;Color&quot;,0.13725,0,0.07059],&quot;strokeWidth&quot;:1}}" id="b1abd7e2-4a1c-4231-be65-78996f4d464b" fill="#230012" fill-rule="evenodd"/><path d="M426.40752,227.87784c-1.16,1.16 -2.108,2.82 -2.108,3.689c0,2.044 3.754,5.798 5.797,5.798c2.043,0 5.798,-3.754 5.798,-5.798c0,-0.869 -0.949,-2.529 -2.109,-3.689c-1.159,-1.159 -2.819,-2.108 -3.689,-2.108c-0.869,0 -2.53,0.949 -3.689,2.108z" data-paper-data="{&quot;wickUUID&quot;:&quot;ddfe794f-a061-4a70-9292-c591ffa5aec7&quot;,&quot;wickType&quot;:&quot;path&quot;,&quot;originalStyle&quot;:{&quot;strokeColor&quot;:null,&quot;fillColor&quot;:[&quot;Color&quot;,1,1,1],&quot;strokeWidth&quot;:1}}" id="ddfe794f-a061-4a70-9292-c591ffa5aec7" fill="#ffffff" fill-rule="evenodd"/><path d="M293.84856,171.43121c-4.206,3.539 -9.387,14.413 -11.951,25.083c-1.019,4.242 -0.939,5.405 0.527,7.643c2.002,3.054 5.979,3.496 8.14,0.904c0.796,-0.955 1.998,-3.92 2.672,-6.588c2.021,-8.008 4.387,-13.576 7.731,-18.191c3.728,-5.147 3.882,-6.501 1.058,-9.325c-2.758,-2.757 -4.454,-2.659 -8.177,0.474z" data-paper-data="{&quot;wickUUID&quot;:&quot;b1f5a88b-5dc3-4d6a-8d29-f73d2a386ee4&quot;,&quot;wickType&quot;:&quot;path&quot;,&quot;originalStyle&quot;:{&quot;strokeColor&quot;:null,&quot;fillColor&quot;:[&quot;Color&quot;,0,0,0],&quot;strokeWidth&quot;:1}}" id="b1f5a88b-5dc3-4d6a-8d29-f73d2a386ee4" fill="#000000" fill-rule="evenodd"/><path d="M419.71197,418.444c-1.65,0.293 -3.912,1.172 -5.028,1.953c-1.59,1.114 -3.943,1.422 -10.89,1.426c-19.236,0.011 -34.005,4.155 -40.074,11.245c-1.583,1.85 -2.878,4.052 -2.878,4.895c0,1.452 1.52,1.532 29.082,1.532c23.621,0 29.521,-0.227 31.418,-1.208c3.707,-1.917 8.368,-7.63 9.008,-11.041c0.696,-3.712 -1.371,-8.761 -3.628,-8.859c-0.817,-0.036 -2.054,-0.157 -2.749,-0.27c-0.694,-0.114 -2.612,0.034 -4.261,0.327zM397.03697,431.469c0,1.305 -3.878,2.187 -7.007,1.594l-3.515,-0.667l3.788,-0.533c5.406,-0.76 6.734,-0.838 6.734,-0.394z" data-paper-data="{&quot;wickUUID&quot;:&quot;664ddae6-4928-4226-bc47-144ec1a257ec&quot;,&quot;wickType&quot;:&quot;path&quot;,&quot;originalStyle&quot;:{&quot;strokeColor&quot;:null,&quot;fillColor&quot;:[&quot;Color&quot;,0.35294,0.03922,0.65098],&quot;strokeWidth&quot;:1}}" id="664ddae6-4928-4226-bc47-144ec1a257ec" fill="#5a0aa6" fill-rule="evenodd"/><path d="M392.91548,428.19111c-1.254,1.254 -1.6,2.371 -1.241,4.006c0.433,1.97 0.031,2.572 -3.059,4.575l-3.558,2.307h7.642h7.642l1.046,-2.525c1.247,-3.01 0.012,-6.882 -2.829,-8.872c-2.368,-1.659 -3.585,-1.549 -5.643,0.509z" data-paper-data="{&quot;wickUUID&quot;:&quot;62c8955b-94f1-449e-a8e8-a90e6886663e&quot;,&quot;wickType&quot;:&quot;path&quot;,&quot;originalStyle&quot;:{&quot;strokeColor&quot;:null,&quot;fillColor&quot;:[&quot;Color&quot;,0.35294,0.03922,0.65098],&quot;strokeWidth&quot;:1}}" id="62c8955b-94f1-449e-a8e8-a90e6886663e" fill="#5a0aa6" fill-rule="evenodd"/><path d="M348.28396,403.79834c-2.3,2.301 -1.82,4.072 3.848,14.197c3.991,7.127 4.341,8.132 3.098,8.879c-2.457,1.476 -11.081,10.214 -11.081,11.229c0,0.634 1.801,0.976 5.139,0.976c4.254,0 5.57,-0.363 7.64,-2.104c3.151,-2.652 4.056,-2.652 4.056,0v2.104h11.432c10.636,0 12.76,-0.295 30.513,-4.232c10.495,-2.328 20.403,-4.52 22.017,-4.87c3.347,-0.725 5.286,-3.612 4.271,-6.356c-1.237,-3.343 -4.579,-4.792 -15.866,-6.878l-11.091,-2.049l-10.869,1.642c-5.978,0.903 -14.308,2.748 -18.511,4.099l-7.641,2.458l-2.025,-3.481c-1.114,-1.915 -3.394,-6.213 -5.068,-9.551c-3.935,-7.849 -6.499,-9.425 -9.862,-6.063zM405.59596,424.58834c0,0.738 -33.69,8.018 -34.296,7.411c-0.962,-0.961 1.042,-2.057 6.989,-3.823c10.281,-3.052 27.307,-5.289 27.307,-3.588z" data-paper-data="{&quot;wickUUID&quot;:&quot;b71b6d4b-4ab9-413b-b776-ba63a557420a&quot;,&quot;wickType&quot;:&quot;path&quot;,&quot;originalStyle&quot;:{&quot;strokeColor&quot;:null,&quot;fillColor&quot;:[&quot;Color&quot;,0.35294,0.03922,0.65098],&quot;strokeWidth&quot;:1}}" fill="#5a0aa6" fill-rule="evenodd"/><path d="M697.71301,258.94958c-1.113,0.883 -5.938,7.096 -10.722,13.806c-9.848,13.813 -28.863,37.432 -34.317,42.628c-1.998,1.904 -10.396,6.732 -18.662,10.73c-8.266,3.997 -17.919,9.154 -21.45,11.458c-19.094,12.459 -46.245,25.7 -65.495,31.939c-13.411,4.347 -35.359,8.432 -49.98,9.302c-6.414,0.382 -15.707,1.648 -20.651,2.814c-9.317,2.196 -30.42,2.696 -63.568,1.505l-16.052,-0.577l-11.558,5.621c-10.993,5.346 -11.825,5.55 -17.034,4.173c-3.012,-0.796 -8.602,-1.447 -12.422,-1.447c-6.013,0 -7.466,0.52 -10.817,3.871c-2.293,2.293 -4.035,5.517 -4.273,7.907l-0.401,4.035l-7.063,-8.654c-3.885,-4.76 -8.995,-11.063 -11.356,-14.007c-8.947,-11.156 -24.019,-18.538 -43.865,-21.484c-5.297,-0.787 -10.995,-2.301 -12.662,-3.366c-1.705,-1.089 -4.515,-1.649 -6.421,-1.28c-4.827,0.934 -25.901,-7.221 -36.755,-14.222c-4.93,-3.181 -14.465,-11.089 -21.189,-17.574c-6.723,-6.484 -16.559,-15.053 -21.856,-19.041c-5.297,-3.989 -13.388,-10.161 -17.979,-13.715c-13.504,-10.454 -21.207,-13.928 -37.464,-16.897c-22.176,-4.049 -31.19,-2.368 -33.783,6.301c-1.022,3.417 3.033,7.733 17.953,19.114c4.944,3.771 12.043,9.352 15.775,12.401c3.733,3.05 11.823,8.328 17.979,11.73c16.48,9.108 29.213,16.9 40.307,24.667c11.353,7.948 27.23,15.663 40.402,19.633c6.384,1.924 11.077,4.39 15.489,8.139c6.375,5.417 35.572,24.931 58.183,38.886c7.074,4.366 18.018,12.938 26.045,20.401c33.78,31.402 35.505,32.569 41.713,28.221c2.628,-1.841 3.185,-1.747 7.647,1.285c5.843,3.97 8.52,4.101 12.032,0.59c3.38,-3.38 2.648,-6.696 -3.531,-16.002l-4.608,-6.942l2.932,-7.224c3.921,-9.662 2.682,-13.849 -4.27,-14.426c-4.484,-0.373 -4.964,-0.067 -6.795,4.314c-1.849,4.425 -2.082,4.569 -3.78,2.327c-2.348,-3.1 -2.339,-4.913 0.036,-6.883c4.058,-3.368 0.916,-11.825 -5.267,-14.175c-1.694,-0.645 -3.081,-1.764 -3.081,-2.488c0,-2.296 7.194,-1.419 10.274,1.253c1.629,1.412 4.173,2.582 5.654,2.6c1.481,0.017 6.157,1.19 10.391,2.606c12.89,4.311 35.171,7.636 51.171,7.636c13.302,0 16.191,-0.448 29.183,-4.521c24.367,-7.64 66.666,-18.616 76.894,-19.952c28.946,-3.783 44.066,-7.694 59.531,-15.399c16.935,-8.437 38.709,-26.093 56.594,-45.89c3.371,-3.731 9.122,-9.13 12.78,-11.997c9.813,-7.689 23.674,-21.393 29.237,-28.903c5.294,-7.148 11.07,-20.14 12.259,-27.577c0.624,-3.902 0.257,-5.007 -2.245,-6.76c-3.582,-2.509 -6.356,-2.658 -9.089,-0.49zM137.88101,294.84858c4.499,2.146 12.589,7.477 17.979,11.846c5.39,4.369 13.267,10.484 17.505,13.588c9.249,6.775 29.679,26.659 24.86,24.196c-1.866,-0.954 -8.222,-5.103 -14.126,-9.221c-5.904,-4.118 -19.339,-12.349 -29.856,-18.292c-17.445,-9.859 -22.408,-13.301 -34.617,-24.003l-4.05,-3.551l7.063,0.767c3.885,0.422 10.744,2.524 15.242,4.67zM606.14101,359.53258c-4.168,3.475 -22.394,12.739 -27.611,14.035c-1.766,0.439 4.302,-3.245 13.484,-8.185c9.182,-4.941 16.984,-9.001 17.337,-9.023c0.353,-0.021 -1.092,1.406 -3.21,3.173zM450.60901,397.67958c11.929,-0.156 21.464,-0.06 21.189,0.214c-0.274,0.274 -6.566,2.318 -13.983,4.541c-15.89,4.763 -30.169,5.324 -50.083,1.965c-15.2,-2.563 -16.246,-2.902 -14.46,-4.689c2.661,-2.661 10.079,-3.518 22.807,-2.636c7.063,0.49 22.602,0.762 34.53,0.605zM476.73101,396.81458c-0.427,0.426 -1.535,0.472 -2.462,0.101c-1.024,-0.41 -0.72,-0.714 0.776,-0.776c1.354,-0.056 2.112,0.248 1.686,0.675z" data-paper-data="{&quot;wickUUID&quot;:&quot;535a39f3-ae80-45ff-8e6d-2af621de1f8a&quot;,&quot;wickType&quot;:&quot;path&quot;,&quot;originalStyle&quot;:{&quot;strokeColor&quot;:null,&quot;fillColor&quot;:[&quot;Color&quot;,0.35294,0.03922,0.65098],&quot;strokeWidth&quot;:1}}" fill="#5a0aa6" fill-rule="evenodd"/><path d="M591.74663,185.75098c-1.453,1.589 -3.588,4.761 -4.744,7.048c-3.044,6.022 -11.041,34.497 -11.041,39.311c0,10.379 10.064,37.083 27.573,73.169c5.424,11.178 10.186,22.322 10.583,24.764c0.656,4.044 0.16,4.963 -5.555,10.282c-5.445,5.069 -17.752,12.051 -21.242,12.051c-1.596,0 -31.018,11.486 -54.379,21.228c-30.713,12.809 -40.324,15.805 -57.516,17.934c-18.895,2.339 -48.394,2.518 -65.527,0.397c-14.085,-1.744 -16.673,-1.053 -17.349,4.632c-0.571,4.797 1.434,6.731 9.372,9.038c3.749,1.09 7.147,2.845 7.552,3.9c1.968,5.13 -18.379,3.098 -25.031,-2.5c-2.132,-1.794 -4.324,-3.261 -4.871,-3.261c-0.548,0 -2.866,-1.788 -5.153,-3.973c-3.106,-2.969 -4.858,-3.752 -6.932,-3.099c-1.527,0.48 -5.328,1.324 -8.447,1.875c-5.426,0.958 -9.097,3.891 -9.097,7.268c0,0.869 3.957,5.705 8.794,10.748c7.928,8.265 9.287,9.171 13.805,9.204c2.756,0.02 6.409,-0.497 8.117,-1.149c2.031,-0.776 6.882,-0.582 14.01,0.56c11.044,1.768 15.296,1.302 23.125,-2.536c3.515,-1.724 6.633,-7.187 6.633,-11.623v-3.126l21.51,-0.694c37.848,-1.221 48.811,-3.361 78.015,-15.227c47.468,-19.286 50.877,-20.445 55.373,-18.819c3.602,1.302 5.109,1.07 11.625,-1.791c4.117,-1.808 11.531,-4.587 16.475,-6.177c18.625,-5.987 23.537,-10.288 18.906,-16.551c-2.529,-3.421 -2.529,-3.453 0.01,-8.402c4.128,-8.047 2.457,-14.62 -10.789,-42.435c-11.166,-23.448 -16.474,-35.589 -16.474,-37.677c0,-0.54 2.1,-1.041 4.667,-1.114c7.097,-0.201 11.302,-3.995 11.789,-10.635c0.222,-3.028 -0.288,-7.175 -1.133,-9.215c-2.031,-4.903 0.611,-7.946 11.003,-12.67c9.383,-4.266 18.892,-6.383 28.672,-6.383c8.982,0 13.064,-2.417 13.064,-7.733c0,-5.585 -3.566,-6.877 -16.615,-6.018c-12.967,0.853 -28.604,5.496 -38.605,11.463c-8.953,5.342 -13.368,12.958 -12.307,21.23c0.823,6.417 -1.027,7.192 -5.585,2.34c-2.648,-2.819 -2.845,-3.897 -2.054,-11.237c1.181,-10.964 4.222,-21.97 8.604,-31.141c4.384,-9.176 4.514,-11.533 0.782,-14.147c-3.921,-2.747 -6.506,-2.507 -9.613,0.891z" data-paper-data="{&quot;wickUUID&quot;:&quot;2df14faf-6e8e-42b8-8d48-1a82c2e7fbc6&quot;,&quot;wickType&quot;:&quot;path&quot;,&quot;originalStyle&quot;:{&quot;strokeColor&quot;:null,&quot;fillColor&quot;:[&quot;Color&quot;,0.35294,0.03922,0.65098],&quot;strokeWidth&quot;:1}}" fill="#5a0aa6" fill-rule="evenodd"/><path d="M114.42061,281.09378c-8.466,2.983 -9.844,7.512 -5.367,17.635c9.092,20.558 46.246,43.831 86.937,54.456c13.105,3.422 13.767,3.475 17.015,1.346c2.11,-1.382 3.38,-3.383 3.38,-5.322c0,-3.259 -4.205,-7.107 -7.765,-7.107c-1.131,0 -6.926,-4.693 -12.877,-10.43c-17.513,-16.882 -27.047,-24.69 -36.553,-29.935c-4.918,-2.713 -12.119,-7.646 -16.004,-10.961c-3.885,-3.315 -8.508,-6.923 -10.274,-8.019c-4.775,-2.964 -12.763,-3.683 -18.492,-1.663z" data-paper-data="{&quot;wickUUID&quot;:&quot;30ea8ed5-8a21-4d39-9c09-402d68010792&quot;,&quot;wickType&quot;:&quot;path&quot;,&quot;originalStyle&quot;:{&quot;strokeColor&quot;:null,&quot;fillColor&quot;:[&quot;Color&quot;,0.35294,0.03922,0.65098],&quot;strokeWidth&quot;:1}}" fill="#5a0aa6" fill-rule="evenodd"/><path d="M109.74701,191.61938c-2.697,1.192 -19.207,14.607 -22.61,18.372c-5.643,6.245 -8.151,11.909 -8.173,18.459c-0.032,9.021 -1.054,11.867 -4.58,12.752c-3.455,0.867 -11.546,7.567 -13.462,11.147c-0.694,1.297 -1.815,5.275 -2.491,8.84c-1.006,5.305 -0.791,7.703 1.185,13.198c1.328,3.693 2.72,10.055 3.093,14.138c0.799,8.727 7.403,21.629 14.067,27.48c2.347,2.06 9.725,6.542 16.397,9.96c6.671,3.417 15.308,8.125 19.193,10.461c4.393,2.641 10.218,4.786 15.41,5.673c13.187,2.254 22.364,4.991 43.021,12.831c10.594,4.021 22.441,8.328 26.326,9.571c3.885,1.242 10.06,3.448 13.722,4.9c6.3,2.499 6.837,2.525 9.953,0.483c2.076,-1.36 3.293,-3.34 3.293,-5.357c0,-4.213 -5.082,-7.284 -20.031,-12.103c-6.427,-2.072 -17.407,-6.041 -24.4,-8.82c-16.993,-6.753 -35.127,-12.391 -46.105,-14.335c-5.245,-0.929 -11.397,-3.072 -14.768,-5.145c-3.179,-1.954 -11.748,-6.586 -19.042,-10.294c-11.79,-5.994 -13.773,-7.51 -17.848,-13.648c-3.65,-5.497 -4.767,-8.67 -5.477,-15.561c-0.49,-4.76 -1.561,-10.283 -2.378,-12.271c-2.157,-5.245 -1.823,-11.748 0.761,-14.853c1.236,-1.485 4.533,-3.476 7.327,-4.425c7.415,-2.519 9.541,-6.195 10.529,-18.201c0.473,-5.74 1.726,-11.631 2.841,-13.349c1.097,-1.691 6.352,-6.423 11.677,-10.515c15.988,-12.283 16.465,-13.017 11.61,-17.873c-2.61,-2.609 -5.475,-3.089 -9.04,-1.515z" data-paper-data="{&quot;wickUUID&quot;:&quot;be33c469-78a1-42b5-8c64-ab78e32e4c1d&quot;,&quot;wickType&quot;:&quot;path&quot;,&quot;originalStyle&quot;:{&quot;strokeColor&quot;:null,&quot;fillColor&quot;:[&quot;Color&quot;,0.35294,0.03922,0.65098],&quot;strokeWidth&quot;:1}}" fill="#5a0aa6" fill-rule="evenodd"/><path d="M141.23541,227.79638c-5.283,2.616 -14.744,10.957 -14.744,13c0,2.244 -10.662,1.077 -20.182,-2.209c-7.132,-2.462 -11.035,-3.134 -14.753,-2.539c-9.229,1.476 -14.243,6.8 -11.403,12.107c1.885,3.522 4.946,4.326 9.792,2.574c3.567,-1.29 5.482,-1.11 12.421,1.168c4.513,1.482 11.706,3.09 15.985,3.574c9.349,1.058 15.514,-1.316 20.542,-7.908c1.796,-2.356 6.098,-6.025 9.559,-8.155c7.147,-4.398 8.367,-8.717 3.438,-12.169c-3.656,-2.561 -4.437,-2.52 -10.655,0.557z" data-paper-data="{&quot;wickUUID&quot;:&quot;9f7afdee-f020-4046-8c89-6c9a870888cd&quot;,&quot;wickType&quot;:&quot;path&quot;,&quot;originalStyle&quot;:{&quot;strokeColor&quot;:null,&quot;fillColor&quot;:[&quot;Color&quot;,0.35294,0.03922,0.65098],&quot;strokeWidth&quot;:1}}" fill="#5a0aa6" fill-rule="evenodd"/><path d="M272.10701,183.84398c-2.17,1.435 -4.944,7.744 -7.474,16.996c-4.817,17.614 -8.799,31.685 -10.534,37.22c-0.992,3.166 -2.16,8.786 -2.595,12.489l-0.791,6.733l-3.778,-3.179c-5.774,-4.859 -12.523,-4.392 -17.438,1.205c-6.491,7.393 -7.16,11.463 -6.235,37.942c0.457,13.096 1.199,25.464 1.649,27.484c0.765,3.434 0.617,3.603 -2.248,2.585c-1.687,-0.599 -5.928,-1.097 -9.425,-1.106c-5.804,-0.015 -6.617,0.365 -9.311,4.347c-5.666,8.376 -2.965,18.567 7.191,27.133c22.999,19.4 28.794,23.606 40.583,29.458c7.063,3.506 16.728,7.627 21.477,9.158c8.129,2.621 8.825,2.66 11.879,0.659c4.636,-3.038 4.337,-7.993 -0.652,-10.794c-2.971,-1.669 -3.705,-2.798 -3.091,-4.756c3.253,-10.369 1.356,-16.675 -7.619,-25.332c-3.621,-3.491 -10.195,-8.075 -14.61,-10.185l-8.026,-3.837v-8.369v-8.369l3.999,3.365c7.071,5.95 13.29,1.658 15.939,-11c1.886,-9.016 6.254,-50.709 8.257,-78.82c0.705,-9.888 1.983,-24.457 2.84,-32.375c1.456,-13.445 1.403,-14.571 -0.811,-17.016c-2.388,-2.639 -6.541,-3.38 -9.176,-1.636zM240.83901,358.30898c3.149,3.263 4.57,5.333 3.157,4.6c-3.323,-1.725 -11.811,-10.533 -10.151,-10.533c0.698,0 3.845,2.67 6.994,5.933z" data-paper-data="{&quot;wickUUID&quot;:&quot;a6d5f1b1-5246-472a-87fd-e63175c6a6a0&quot;,&quot;wickType&quot;:&quot;path&quot;,&quot;originalStyle&quot;:{&quot;strokeColor&quot;:null,&quot;fillColor&quot;:[&quot;Color&quot;,0.35294,0.03922,0.65098],&quot;strokeWidth&quot;:1}}" fill="#5a0aa6" fill-rule="evenodd"/><path d="M440.61321,68.80958c-24.035,5.076 -96.231,37.996 -107.891,49.194c-9.689,9.307 -40.779,55.982 -47.675,71.575c-7.028,15.893 -11.07,38.262 -11.484,63.565c-0.455,27.822 4.275,41.078 20.071,56.248c9.17,8.807 17.411,13.344 56.403,31.052c59.491,27.019 82.609,35.795 90.853,34.492c3.521,-0.557 18.082,-7.253 32.358,-14.88c21.756,-11.624 29.887,-17.446 50.246,-35.976c35.401,-32.22 46.047,-48.424 50.714,-77.194c3.413,-21.034 2.62,-29.689 -5.692,-62.131c-8.285,-32.338 -15.467,-49.258 -24.457,-57.62c-7.232,-6.727 -24.709,-18.123 -30.464,-19.862c-2.526,-0.764 -4.593,-2.2 -4.593,-3.19c0,-2.852 -24.139,-19.219 -39.808,-26.992c-15.458,-7.667 -22.217,-9.625 -28.581,-8.281zM466.91021,88.29558c11.718,6.135 20.874,13.032 31.254,23.546c12.137,12.294 15.511,14.661 19.479,13.665c6.463,-1.622 19.218,8.604 26.374,21.146c2.989,5.237 8.735,22.158 12.769,37.602c10.882,41.655 9.799,65.828 -4.092,91.35c-5.364,9.856 -33.599,38.78 -54.82,56.159c-10.498,8.598 -54.169,31.62 -59.979,31.62c-6.71,0 -35.746,-11.502 -82.745,-32.777c-49.364,-22.346 -59.695,-29.806 -66.512,-48.024c-8.078,-21.59 -3.622,-67.517 8.979,-92.538c10.686,-21.22 34.757,-56.072 44.776,-64.83c13.699,-11.974 89.409,-45.431 103.081,-45.552c2.674,-0.024 12.32,3.861 21.436,8.633z" data-paper-data="{&quot;wickUUID&quot;:&quot;8df21e09-1bfa-4395-99c7-127b0b170209&quot;,&quot;wickType&quot;:&quot;path&quot;,&quot;originalStyle&quot;:{&quot;strokeColor&quot;:null,&quot;fillColor&quot;:[&quot;Color&quot;,0,0,0],&quot;strokeWidth&quot;:1}}" id="8df21e09-1bfa-4395-99c7-127b0b170209" fill="#000000" fill-rule="evenodd"/><path d="M173.95414,138.92163c13.251,0.702 29.887,2.962 46.297,6.29c26.964,5.467 39.54,10.393 51.853,20.313c5.717,4.605 27.65,28.795 30.051,33.142c2.199,3.982 -2.102,8.984 -6.519,7.582c-1.152,-0.365 -7.601,-7.054 -14.333,-14.864c-11.855,-13.753 -19.832,-20.671 -29.347,-25.451c-12.735,-6.396 -51.296,-14.314 -76.412,-15.689c-11.86,-0.649 -18.452,0.536 -35.677,6.415c-16.721,5.707 -49.984,25.71 -57.675,34.682c-3.74,4.364 -21.421,39.105 -26.909,52.875c-5.102,12.8 -13.617,40.616 -13.617,44.483c0,2.831 1.869,5.582 10.759,15.837c61.65,71.115 96.402,98.698 162.087,128.652c32.485,14.813 37.947,17.101 52.201,21.863c14.017,4.682 50.105,14.226 79.958,21.145l16.713,3.874l9.639,-1.838c24.969,-4.762 55.32,-16.556 123.319,-47.918c50.454,-23.27 66.456,-30.002 95.116,-40.014c36.794,-12.854 96.778,-36.016 113.846,-43.959c27.046,-12.587 40.787,-23.726 47.936,-38.855c3.742,-7.92 3.976,-13.87 1.109,-28.106c-1.093,-5.426 -2.309,-13.424 -2.701,-17.772c-1.725,-19.125 -5.492,-37.366 -9.228,-44.69c-3.296,-6.46 -16.413,-23.584 -23.548,-30.741c-13.885,-13.927 -22.892,-18.791 -46.259,-24.977c-12.491,-3.307 -13.162,-3.37 -36.443,-3.394c-25.846,-0.028 -35.684,1.292 -47.018,6.304c-12.729,5.629 -21.466,16.891 -20.037,25.827c0.538,3.367 0.254,4.604 -1.45,6.307c-2.82,2.821 -4.824,2.671 -8.102,-0.606c-2.472,-2.473 -2.669,-3.272 -2.118,-8.609c1.348,-13.062 10.803,-25.375 24.507,-31.915c21.46,-10.243 63.495,-12.378 93.012,-4.725c26.56,6.886 36.224,12.071 51.903,27.85c8.616,8.671 21.456,25.33 25.242,32.751c4.544,8.907 7.206,20.762 10.065,44.821c0.895,7.536 2.613,18.683 3.816,24.771c1.55,7.84 2.005,13.048 1.558,17.858c-1.307,14.091 -12.756,30.897 -29.031,42.615c-8.517,6.132 -31.631,17.733 -49.552,24.87c-11.8148,4.70559 -48.08062,18.30461 -72.982,27.45188c-3.68435,-0.23721 -8.67539,0.31366 -14.89378,1.66532c-8.243,1.792 -8.42,1.867 -36.279,15.218c-10.82,5.185 -20.08,9.428 -20.576,9.428c-0.932,0 -14.94,6.323 -32.048,14.466c-4.15254,1.97619 -7.93118,4.22235 -9.63203,5.65737c-3.91287,1.80683 -8.03118,3.71309 -12.37519,5.72743c-61.838,28.675 -90.314,39.283 -119.082,44.36l-8.403,1.484l-22.692,-5.311c-13.97342,-3.26995 -27.40679,-6.60514 -39.56582,-9.80703c-2.95127,-2.01049 -15.6534,-6.18694 -18.96206,-6.18694c-1.676,0 -4.616,-0.482 -6.534,-1.072c-0.79027,-0.24281 -2.30315,-0.6248 -4.20234,-1.06913c-4.49878,-1.36416 -8.53166,-2.65287 -12.01278,-3.8429c-14.123,-4.828 -43,-17.414 -67.906,-29.597c-23.715,-11.6 -55.842,-32.025 -71.147,-45.232c-4.43894,-3.83061 -9.37527,-8.24185 -14.36205,-12.81131c-0.47248,-0.48555 -0.94032,-0.97028 -1.40254,-1.45333c-4.1222,-4.30747 -8.01069,-7.85982 -8.85693,-8.10365c-7.7899,-7.37698 -14.91163,-14.40842 -19.50548,-19.33671c-11.162,-11.975 -42.438,-47.518 -43.604,-49.553c-0.421,-0.734 -1.066,-3.897 -1.434,-7.029c-0.592,-5.039 0.024,-7.868 5.372,-24.646c3.322,-10.425 7.385,-22.351 9.028,-26.503c3.978,-10.051 21.919,-46.036 26.514,-53.18c4.783,-7.435 18.622,-17.487 40.006,-29.059c16.521,-8.94 25.796,-12.614 42.499,-16.832c7.879,-1.99 11.273,-2.301 20.028,-1.837z" data-paper-data="{&quot;wickUUID&quot;:&quot;579cf19d-7742-41b3-8e25-cff864de9299&quot;,&quot;wickType&quot;:&quot;path&quot;,&quot;originalStyle&quot;:{&quot;strokeColor&quot;:null,&quot;fillColor&quot;:[&quot;Color&quot;,0,0,0],&quot;strokeWidth&quot;:1}}" id="579cf19d-7742-41b3-8e25-cff864de9299" fill="#000000" fill-rule="evenodd"/><path d="M215.10122,220.94678c-14.105,2.17 -45.579,8.928 -51.045,10.96c-7.418,2.758 -9.518,6.378 -6.958,11.996c1.854,4.069 14.444,7.815 32.134,9.561c18.511,1.827 29.022,1.64 34.415,-0.614c2.535,-1.059 5.419,-1.926 6.408,-1.926c2.712,0 13.058,10.048 16.64,16.16c3.764,6.422 7.576,7.864 12.069,4.564c4.272,-3.138 4.704,-9.288 1.352,-19.238c-1.45,-4.304 -2.636,-8.529 -2.636,-9.387c0,-4.434 -5.745,-12.892 -10.718,-15.78c-9.148,-5.311 -21.761,-7.819 -31.661,-6.296z" data-paper-data="{&quot;wickUUID&quot;:&quot;1668490d-4bbd-490d-907b-34a85dbd7968&quot;,&quot;wickType&quot;:&quot;path&quot;,&quot;originalStyle&quot;:{&quot;strokeColor&quot;:null,&quot;fillColor&quot;:[&quot;Color&quot;,0.35294,0.03922,0.65098],&quot;strokeWidth&quot;:1}}" fill="#5a0aa6" fill-rule="evenodd"/><path d="M584.95082,303.43518c-10.241,3.42 -26.104,9.476 -35.251,13.457c-23.077,10.043 -30.221,15.356 -28.394,21.112c1.318,4.155 8.194,10.519 11.364,10.519c4.201,0 7.565,-4.027 7.084,-8.479c-0.378,-3.499 0.19,-3.881 16.303,-10.959c9.182,-4.034 24.785,-10.043 34.673,-13.353c9.889,-3.311 18.701,-6.604 19.584,-7.319c3.738,-3.025 -0.281,-11.348 -5.422,-11.227c-0.726,0.017 -9.699,2.829 -19.941,6.249z" data-paper-data="{&quot;wickUUID&quot;:&quot;9b032002-a88d-479f-a54a-97ebb4a478d6&quot;,&quot;wickType&quot;:&quot;path&quot;,&quot;originalStyle&quot;:{&quot;strokeColor&quot;:null,&quot;fillColor&quot;:[&quot;Color&quot;,0.35294,0.03922,0.65098],&quot;strokeWidth&quot;:1}}" fill="#5a0aa6" fill-rule="evenodd"/><path d="M226.65942,204.74438c-8.92,1.263 -36.277,10.568 -42.316,14.393c-2.51,1.591 -6.711,3.984 -9.336,5.32c-6.379,3.245 -18.979,15.094 -18.979,17.847c0,2.633 4.423,7.335 6.899,7.335c0.97,0 5.449,-2.958 9.953,-6.574c4.504,-3.616 9.635,-7.223 11.4,-8.014c1.766,-0.792 5.151,-2.733 7.522,-4.313c2.371,-1.58 11.039,-4.976 19.263,-7.546c11.862,-3.707 17.739,-4.805 28.436,-5.309c14.888,-0.703 19.263,-2.376 19.263,-7.369c0,-5.13 -4.428,-7.128 -15.375,-6.938c-5.317,0.093 -12.845,0.619 -16.73,1.168z" data-paper-data="{&quot;wickUUID&quot;:&quot;c79cf774-89ce-41d0-8059-77eb1317cead&quot;,&quot;wickType&quot;:&quot;path&quot;,&quot;originalStyle&quot;:{&quot;strokeColor&quot;:null,&quot;fillColor&quot;:[&quot;Color&quot;,0.07451,0.00784,0.13725],&quot;strokeWidth&quot;:1}}" fill="#130223" fill-rule="evenodd"/><path d="M173.36541,206.30138c-14.671,10.705 -48.159,40.706 -52.613,47.133c-4.146,5.984 -3.733,10.398 1.28,13.683c4.421,2.897 8.904,1.726 19.419,-5.068c4.839,-3.127 9.725,-5.898 10.858,-6.158c3.807,-0.874 35.824,-40.637 35.824,-44.491c0,-2.501 -5.953,-7.998 -8.61,-7.951c-1.268,0.022 -4.039,1.306 -6.158,2.852z" data-paper-data="{&quot;wickUUID&quot;:&quot;57e8a136-d305-4f2f-89a1-5106fdb5f0fe&quot;,&quot;wickType&quot;:&quot;path&quot;,&quot;originalStyle&quot;:{&quot;strokeColor&quot;:null,&quot;fillColor&quot;:[&quot;Color&quot;,0.07451,0.00784,0.13725],&quot;strokeWidth&quot;:1}}" fill="#130223" fill-rule="evenodd"/><path d="M132.27061,183.41738c-14.959,5.373 -19.112,7.588 -27.282,14.551c-11.473,9.778 -20.91,30.282 -17.161,37.287c3.31,6.185 12.98,3.716 12.98,-3.313c0,-4.898 5.701,-15.285 12.02,-21.9c6.158,-6.447 13.194,-10.292 26.013,-14.217c5.026,-1.539 10.155,-3.541 11.397,-4.45c4.735,-3.462 1.439,-12.614 -4.407,-12.238c-1.101,0.07 -7.203,1.996 -13.56,4.28z" data-paper-data="{&quot;wickUUID&quot;:&quot;7aa0b5fc-7b15-4b67-a774-e0e954886bf3&quot;,&quot;wickType&quot;:&quot;path&quot;,&quot;originalStyle&quot;:{&quot;strokeColor&quot;:null,&quot;fillColor&quot;:[&quot;Color&quot;,0.07451,0.00784,0.13725],&quot;strokeWidth&quot;:1}}" fill="#130223" fill-rule="evenodd"/><path d="M86.19221,275.49538c-1.144,1.633 -2.079,3.396 -2.079,3.918c0,0.522 3.081,4.403 6.847,8.623c3.766,4.221 9.111,11.574 11.879,16.34c10.423,17.952 18.106,24.221 40.912,33.379c9.008,3.617 11.949,3.792 16.005,0.951c2.702,-1.893 2.942,-2.817 2.311,-8.924c-0.697,-6.751 -7.713,-21.516 -11.86,-24.957c-1.036,-0.86 -1.884,-2.277 -1.884,-3.148c0,-2.832 -9.039,-13.511 -14.187,-16.761c-5.639,-3.56 -30.827,-11.04 -39.918,-11.855c-5.091,-0.457 -6.247,-0.106 -8.026,2.434z" data-paper-data="{&quot;wickUUID&quot;:&quot;1fca4b72-0234-4f6b-9401-57f212132aa4&quot;,&quot;wickType&quot;:&quot;path&quot;,&quot;originalStyle&quot;:{&quot;strokeColor&quot;:null,&quot;fillColor&quot;:[&quot;Color&quot;,0.07451,0.00784,0.13725],&quot;strokeWidth&quot;:1}}" fill="#130223" fill-rule="evenodd"/><path d="M242.12941,291.05539c-3.55,8.768 -6.816,21.966 -7.402,29.909c-1.32,17.92 5.974,26.71 29.308,35.313c5.528,2.039 12.527,4.966 15.553,6.505c6.589,3.352 22.86,18.883 32.821,31.33c16.683,20.846 24.064,26.147 30.519,21.917c4.349,-2.849 4.177,-7.748 -0.37,-10.551c-4.692,-2.892 -9.381,-7.865 -20.449,-21.691c-15.866,-19.82 -30.936,-32.588 -44.008,-37.289l-6.228,-2.24l-0.495,-8.756c-0.424,-7.498 -1.431,-10.559 -7.007,-21.305c-3.582,-6.901 -6.926,-14.281 -7.431,-16.4c-1.648,-6.914 -4.23,-9.632 -9.149,-9.632c-3.456,0 -4.762,0.667 -5.662,2.89z" data-paper-data="{&quot;wickUUID&quot;:&quot;d77eee5b-1314-4d69-a2e9-e1670c7ae93e&quot;,&quot;wickType&quot;:&quot;path&quot;,&quot;originalStyle&quot;:{&quot;strokeColor&quot;:null,&quot;fillColor&quot;:[&quot;Color&quot;,0.07451,0.00784,0.13725],&quot;strokeWidth&quot;:1}}" fill="#130223" fill-rule="evenodd"/><path d="M259.33262,180.86718c-1.153,1.76 -2.514,7.834 -3.093,13.805c-1.665,17.178 -0.88,16.38 -20.066,20.386c-32.552,6.795 -56.198,14.51 -66.596,21.725c-8.864,6.152 -12.702,10.942 -11.763,14.683c1.508,6.007 5.119,7.076 28.495,8.433c11.951,0.694 22.451,1.27 23.334,1.28c0.975,0.011 1.605,1.783 1.605,4.513c0,4.753 3.592,9.631 7.092,9.631c2.897,0 12.886,-9.692 19.006,-18.441l5.365,-7.67l0.416,5.029c0.484,5.848 3.297,9.525 7.29,9.525c4.022,0 6.789,-3.657 8.304,-10.975c0.724,-3.499 3.414,-15.608 5.977,-26.909c2.564,-11.301 5.124,-24.304 5.69,-28.895c0.565,-4.591 1.412,-9.588 1.881,-11.105c2.326,-7.53 -8.531,-11.739 -12.937,-5.015z" data-paper-data="{&quot;wickUUID&quot;:&quot;5ba5c818-0ae0-4b1e-8108-7974906756e7&quot;,&quot;wickType&quot;:&quot;path&quot;,&quot;originalStyle&quot;:{&quot;strokeColor&quot;:null,&quot;fillColor&quot;:[&quot;Color&quot;,0.07451,0.00784,0.13725],&quot;strokeWidth&quot;:1}}" fill="#130223" fill-rule="evenodd"/><path d="M408.05642,394.82718c-2.999,0.592 -19.18,2.571 -35.957,4.399c-16.777,1.828 -31.788,3.599 -33.356,3.935c-6.573,1.411 -6.551,11.182 0.029,12.833c1.673,0.42 10.217,-0.109 18.985,-1.176c8.769,-1.067 19.41,-2.272 23.648,-2.679c19.331,-1.854 40.095,-4.893 43.021,-6.295c4.399,-2.109 4.968,-7.595 1.072,-10.324c-3.138,-2.198 -8.695,-2.418 -17.442,-0.693z" data-paper-data="{&quot;wickUUID&quot;:&quot;a1dcefc4-8e73-42df-ba5f-1f3401e324d3&quot;,&quot;wickType&quot;:&quot;path&quot;,&quot;originalStyle&quot;:{&quot;strokeColor&quot;:null,&quot;fillColor&quot;:[&quot;Color&quot;,0.07451,0.00784,0.13725],&quot;strokeWidth&quot;:1}}" fill="#130223" fill-rule="evenodd"/><path d="M428.27883,425.08419c-3.178,0.298 -13.408,1.397 -22.733,2.443c-9.325,1.045 -21.06,1.9 -26.079,1.9c-17.483,0 -25.593,4.425 -27.734,15.13c-1.239,6.193 3.651,15.139 10.062,18.41c2.839,1.448 7.49,4.32 10.337,6.382c7.391,5.354 14.386,7.042 18.369,4.432c3.327,-2.18 4.118,-6.869 1.585,-9.402c-2.134,-2.134 -1.207,-2.667 7.41,-4.259c4.177,-0.772 11.928,-2.735 17.225,-4.363c5.298,-1.629 13.677,-3.665 18.621,-4.526c4.944,-0.86 18.167,-3.807 29.384,-6.547c11.217,-2.741 23.119,-4.983 26.448,-4.983c9.155,0 13.672,-6.828 7.947,-12.009c-2.027,-1.835 -6.758,-2.205 -33.711,-2.642c-17.244,-0.279 -33.953,-0.264 -37.131,0.034zM416.72083,440.84119c0,1.505 -21.968,6.904 -25.848,6.352c-1.661,-0.236 -3.195,-1.346 -3.408,-2.467c-0.322,-1.691 1.864,-2.256 12.829,-3.316c7.269,-0.703 13.939,-1.374 14.822,-1.493c0.883,-0.119 1.605,0.297 1.605,0.924z" data-paper-data="{&quot;wickUUID&quot;:&quot;06f6235f-bf25-4c3c-9b16-787593b7c245&quot;,&quot;wickType&quot;:&quot;path&quot;,&quot;originalStyle&quot;:{&quot;strokeColor&quot;:null,&quot;fillColor&quot;:[&quot;Color&quot;,0.07451,0.00784,0.13725],&quot;strokeWidth&quot;:1}}" fill="#130223" fill-rule="evenodd"/><path d="M583.02463,292.69699c-2.825,1.018 -6.02,1.86 -7.099,1.87c-1.079,0.011 -5.991,2.052 -10.916,4.536c-29.724,14.995 -36.395,19.578 -42.022,28.873c-1.497,2.472 -4.059,6.128 -5.694,8.125c-4.941,6.032 -2.991,14.99 3.262,14.99c1.21,0 3.224,1.734 4.476,3.853c1.832,3.102 3.143,3.853 6.725,3.853c5.597,0 8.284,-4.427 5.885,-9.692c-0.819,-1.799 -1.49,-4.056 -1.49,-5.016c0,-0.959 6.212,-7.085 13.805,-13.614c15.337,-13.186 28.292,-20.304 43.342,-23.81c12.386,-2.886 15.335,-4.459 15.801,-8.426c0.648,-5.524 -2.652,-7.512 -12.361,-7.449c-4.717,0.031 -10.888,0.89 -13.714,1.907z" data-paper-data="{&quot;wickUUID&quot;:&quot;b5cab9a0-6821-4686-a98c-e576dca0be28&quot;,&quot;wickType&quot;:&quot;path&quot;,&quot;originalStyle&quot;:{&quot;strokeColor&quot;:null,&quot;fillColor&quot;:[&quot;Color&quot;,0.07451,0.00784,0.13725],&quot;strokeWidth&quot;:1}}" fill="#130223" fill-rule="evenodd"/><path d="M599.24863,182.68978c-1.318,1.318 -2.817,5.198 -3.33,8.622c-0.917,6.113 -8.615,26.852 -13.582,36.587c-1.387,2.719 -2.518,6.267 -2.514,7.884c0.018,6.292 8.91,15.115 15.251,15.133c6.472,0.017 11.625,-4.9 16.745,-15.982c5.235,-11.332 7.143,-13.198 20.205,-19.762c7.713,-3.876 25.629,-8.837 26.991,-7.475c0.739,0.739 -14.22,8.714 -24.622,13.125c-19.51,8.275 -22.882,11.701 -22.253,22.614c0.375,6.521 0.039,7.719 -3.087,10.982c-4.99,5.209 -5.878,10.876 -2.27,14.485c5.336,5.336 15.517,-0.207 19.459,-10.596c1.003,-2.643 3.816,-4.721 11.167,-8.247c12.339,-5.919 24.466,-6.89 46.459,-3.719c17.263,2.489 19.23,2.991 19.23,4.907c0,2.945 -9.636,19.978 -17.84,31.535c-4.667,6.575 -13.109,18.779 -18.76,27.12c-27.661,40.833 -27.568,40.73 -46.172,51.723c-9.374,5.539 -34.513,16.166 -44.364,18.754c-3.178,0.834 -12.135,2.919 -19.905,4.633c-14.54,3.206 -21.249,5.501 -62.284,21.307c-4.213,1.623 -13.963,3.47 -24.165,4.579c-9.407,1.022 -18.781,2.726 -20.831,3.786c-4.491,2.322 -6.802,6.228 -5.714,9.656c1.384,4.358 5.044,5.363 11.841,3.251c3.367,-1.047 12.255,-2.522 19.751,-3.279c14.34,-1.448 17.361,-2.332 44.16,-12.923c21.23,-8.389 29.052,-10.843 44.947,-14.097c15.517,-3.177 18.568,-4.071 33.39,-9.786c33.748,-13.012 50.521,-24.762 63.901,-44.763c7.75,-11.584 26.299,-38.595 36.674,-53.403c11.024,-15.734 19.497,-32.192 19.497,-37.87c0,-7.161 -2.969,-11.408 -10.128,-14.488c-3.52,-1.515 -7.98,-2.754 -9.91,-2.754c-1.93,0 -7.024,-0.604 -11.319,-1.342c-4.296,-0.738 -14.457,-1.767 -22.579,-2.287l-14.768,-0.945l11.557,-5.873c6.357,-3.23 13.046,-6.232 14.864,-6.67c1.819,-0.439 6.586,-2.299 10.594,-4.134c8.623,-3.947 10.444,-7.724 6.37,-13.213c-4.496,-6.056 -7.343,-6.781 -24.122,-6.14c-20.176,0.77 -27.273,2.253 -39.747,8.303c-13.748,6.668 -20.471,11.8 -25.086,19.15c-2.103,3.349 -3.834,5.758 -3.848,5.355c-0.013,-0.403 2.34,-7.006 5.229,-14.672c2.889,-7.667 5.561,-16.933 5.939,-20.592c0.612,-5.933 0.36,-6.881 -2.328,-8.764c-3.888,-2.724 -5.745,-2.663 -8.693,0.285zM596.66563,233.81178c-1.514,2.603 -1.879,1.77 -0.64,-1.459c0.44,-1.148 1.071,-1.816 1.402,-1.486c0.331,0.331 -0.012,1.656 -0.762,2.945z" data-paper-data="{&quot;wickUUID&quot;:&quot;c344c150-6f79-4cf5-b203-4a2c32ff666b&quot;,&quot;wickType&quot;:&quot;path&quot;,&quot;originalStyle&quot;:{&quot;strokeColor&quot;:null,&quot;fillColor&quot;:[&quot;Color&quot;,0.07451,0.00784,0.13725],&quot;strokeWidth&quot;:1}}" fill="#130223" fill-rule="evenodd"/><path d="M724.64963,256.14038c-1.213,0.707 -4.364,4.538 -7.003,8.513c-2.639,3.976 -8.602,11.331 -13.25,16.345c-4.649,5.014 -10.864,12.289 -13.811,16.168c-2.947,3.878 -7.158,8.207 -9.356,9.62c-2.199,1.413 -4.862,4.202 -5.917,6.198c-1.715,3.245 -1.703,3.959 0.121,6.742c3.468,5.293 8.031,4.131 16.772,-4.274c15.298,-14.711 42.997,-49.398 42.997,-53.845c0,-2.724 -4.293,-6.873 -7.028,-6.792c-0.726,0.022 -2.312,0.618 -3.525,1.325z" data-paper-data="{&quot;wickUUID&quot;:&quot;9349c827-65c7-4351-8962-98e13b0e699f&quot;,&quot;wickType&quot;:&quot;path&quot;,&quot;originalStyle&quot;:{&quot;strokeColor&quot;:null,&quot;fillColor&quot;:[&quot;Color&quot;,0.07451,0.00784,0.13725],&quot;strokeWidth&quot;:1}}" fill="#130223" fill-rule="evenodd"/><path d="M524.59383,352.26199c-11.387,4.25 -44.696,20.159 -47.645,22.755c-1.594,1.404 -10.26,2.072 -38.526,2.972c-20.059,0.639 -37.337,1.48 -38.396,1.87c-1.06,0.389 -13.732,1.3 -28.16,2.025c-27.572,1.384 -32.198,2.487 -32.198,7.676c0,1.349 -1.156,2.82 -2.57,3.268c-5.361,1.702 -6.356,9.575 -1.516,12.001c3.269,1.639 70.766,-0.507 110.675,-3.518c19.423,-1.466 39.814,-2.674 45.313,-2.685c11.666,-0.022 12.961,-0.658 26.081,-12.786c5.01,-4.633 13.607,-12.167 19.103,-16.743c11.804,-9.828 13.514,-12.657 10.465,-17.311c-2.889,-4.409 -9.937,-4.261 -22.626,0.476z" data-paper-data="{&quot;wickUUID&quot;:&quot;674bc6e7-2dcf-432d-ab73-cc1b25472766&quot;,&quot;wickType&quot;:&quot;path&quot;,&quot;originalStyle&quot;:{&quot;strokeColor&quot;:null,&quot;fillColor&quot;:[&quot;Color&quot;,0.07451,0.00784,0.13725],&quot;strokeWidth&quot;:1}}" fill="#130223" fill-rule="evenodd"/><path d="M209.16802,259.32738c-3.154,4.813 -1.897,38.082 1.804,47.74l2.568,6.701l-4.153,-3.167c-6.088,-4.644 -13.734,-14.194 -19.148,-23.919c-2.617,-4.7 -5.574,-9.223 -6.572,-10.051c-2.805,-2.328 -7.45,-1.02 -9.521,2.683c-1.742,3.115 -1.578,3.924 2.348,11.558c6.182,12.023 10.562,17.226 36.91,43.845c24.559,24.812 27.2,26.645 31.785,22.061c2.787,-2.787 2.523,-8.051 -0.705,-14.084c-1.497,-2.798 -7.079,-13.717 -12.405,-24.265l-9.684,-19.179l-0.588,-19.347c-0.454,-14.943 -1.037,-19.86 -2.561,-21.595c-2.883,-3.283 -7.57,-2.809 -10.078,1.019z" data-paper-data="{&quot;wickUUID&quot;:&quot;017b9521-6535-477a-8a81-143dbaa34db6&quot;,&quot;wickType&quot;:&quot;path&quot;,&quot;originalStyle&quot;:{&quot;strokeColor&quot;:null,&quot;fillColor&quot;:[&quot;Color&quot;,0.07451,0.00784,0.13725],&quot;strokeWidth&quot;:1}}" fill="#130223" fill-rule="evenodd"/><path d="M243.68942,273.26238c-1.748,2.223 -2.858,7.114 -4.007,17.657c-0.874,8.021 -2.207,19.206 -2.963,24.857c-0.756,5.65 -1.137,17.208 -0.847,25.684c0.47,13.717 0.915,16.156 4.051,22.201c4.334,8.353 8.288,10.581 13.139,7.403c2.791,-1.829 3.28,-2.941 2.761,-6.282c-0.46,-2.969 0.108,-4.863 2.119,-7.05c2.598,-2.827 2.772,-4.496 3.179,-30.421c0.418,-26.647 0.354,-27.477 -2.248,-29.102c-2.363,-1.476 -2.677,-2.919 -2.677,-12.279c0,-8.895 -0.415,-11.021 -2.569,-13.175c-3.424,-3.424 -6.989,-3.242 -9.938,0.507z" data-paper-data="{&quot;wickUUID&quot;:&quot;d8adfc0b-e45f-4e04-bbc2-de4a0b479b5f&quot;,&quot;wickType&quot;:&quot;path&quot;,&quot;originalStyle&quot;:{&quot;strokeColor&quot;:null,&quot;fillColor&quot;:[&quot;Color&quot;,0.35294,0.03922,0.65098],&quot;strokeWidth&quot;:1}}" fill="#5a0aa6" fill-rule="evenodd"/><path d="M591.16562,278.47418c-1.165,2.557 -0.877,4.676 1.523,11.237c6.525,17.839 9.79,21.276 16.212,17.068c4.274,-2.8 3.63,-6.399 -4.536,-25.356c-2.43,-5.641 -2.971,-6.1 -7.195,-6.1c-3.603,0 -4.871,0.666 -6.004,3.151z" data-paper-data="{&quot;wickUUID&quot;:&quot;903f4876-fb32-48ce-84e7-3d80b2400127&quot;,&quot;wickType&quot;:&quot;path&quot;,&quot;originalStyle&quot;:{&quot;strokeColor&quot;:null,&quot;fillColor&quot;:[&quot;Color&quot;,0.35294,0.03922,0.65098],&quot;strokeWidth&quot;:1}}" fill="#5a0aa6" fill-rule="evenodd"/></g><g fill="none" fill-rule="nonzero" stroke="none" stroke-width="1" stroke-linecap="butt" stroke-linejoin="miter" stroke-miterlimit="10" stroke-dasharray="" stroke-dashoffset="0" font-family="sans-serif" font-weight="normal" font-size="12" text-anchor="start" style="mix-blend-mode: normal"/><g id="wick_project_gui" fill="none" fill-rule="nonzero" stroke="none" stroke-width="1" stroke-linecap="butt" stroke-linejoin="miter" stroke-miterlimit="10" stroke-dasharray="" stroke-dashoffset="0" font-family="sans-serif" font-weight="normal" font-size="12" text-anchor="start" style="mix-blend-mode: normal"/></g></svg>