<svg version="1.1" xmlns="http://www.w3.org/2000/svg" xmlns:xlink="http://www.w3.org/1999/xlink" width="1260" height="594" viewBox="0,0,1260,594"><g transform="translate(247.68554,52.36194) scale(0.96391,0.96391)"><g id="wick_project_bg" fill="#cccccc" fill-rule="nonzero" stroke="none" stroke-width="1" stroke-linecap="butt" stroke-linejoin="miter" stroke-miterlimit="10" stroke-dasharray="" stroke-dashoffset="0" font-family="none" font-weight="none" font-size="none" text-anchor="none" style="mix-blend-mode: normal"><rect x="0" y="0" width="720" height="480"/></g><g data-paper-data="{&quot;wickUUID&quot;:&quot;1102567d-5c77-4355-9077-072d73e71271&quot;,&quot;wickType&quot;:&quot;clipsandpaths&quot;}" fill="none" fill-rule="evenodd" stroke="none" stroke-width="1" stroke-linecap="butt" stroke-linejoin="miter" stroke-miterlimit="10" stroke-dasharray="" stroke-dashoffset="0" font-family="none" font-weight="none" font-size="none" text-anchor="none" style="mix-blend-mode: normal"><path d="M350.84845,83.66113c-11.97933,1.41533 -23.47988,3.8395 -30.49621,6.44383c-8.72367,3.238 -18.48576,9.65584 -22.18843,14.56451c-3.49433,4.63233 -7.24049,12.77537 -10.62149,23.22237c-3.158,9.75867 -4.89563,17.12989 -5.89996,25.00322c-0.94367,7.398 -0.34073,10.72181 2.01527,13.00848c3.48333,3.38067 18.98319,14.52926 26.88086,19.31826c3.97433,2.41 10.4236,5.61678 13.14427,6.54778c3.24633,1.11067 6.25168,1.22946 12.26168,0.44913c6.903,-0.896 8.6333,-1.38542 13.8943,-3.87675c11.574,-5.48133 20.96301,-11.30866 25.40334,-15.74899c3.298,-3.298 8.37201,-11.00865 11.07268,-16.82532c5.03933,-10.85467 6.41192,-20.91008 3.99325,-28.63208c-3.64767,-11.64433 -9.99534,-23.39873 -19.41367,-35.9284c-5.57333,-7.41467 -9.21289,-8.82571 -20.04589,-7.54604zM306.76467,118.09164c2.18733,0.949 2.57863,1.66139 2.75496,3.78706l0.34954,2.04005l2.49548,0.06248c6.502,-0.445 11.92141,-0.94514 19.69708,-1.81681c12.04467,-1.35067 16.0118,-1.57455 17.30847,-0.90388c1.591,0.82267 3.52742,2.54875 3.52742,3.54642c0,2.83033 -2.62079,4.72639 -9.72412,7.35606c-1.45,0.53667 -3.19879,1.66045 -3.80279,2.26045c-1.15967,1.15167 -1.3494,1.92609 -1.70773,8.18609c-0.24267,4.237 -0.49318,5.49645 -2.16785,6.76778c-2.40733,1.82733 -4.33803,1.38569 -6.57303,-1.03898l-0.76562,-0.86867l0.02643,-3.56673c0,-2.093 0.15677,-5.32487 0.3491,-7.1992c0.19233,-1.87433 -0.23661,-4.30656 -0.33394,-4.40356c-0.09733,-0.09733 -3.6671,0.07411 -7.47477,0.46811c-7.63033,0.78967 -12.77557,0.90508 -15.8599,0.35475c-1.111,-0.19833 -2.33556,-0.41048 -3.06156,-0.53281c-1.00467,-0.16967 -1.02239,-0.04392 -1.63072,-0.93159c-0.76,-1.10867 -0.73189,-0.85934 -0.54989,-4.34334c0.26933,-5.149 0.60835,-6.27381 2.84168,-8.38581c2.05533,-1.944 1.93843,-1.86287 4.30176,-0.83787zM314.37206,170.8299c12.178,1.87433 14.43673,2.83866 14.8824,6.79266c0.365,3.239 -1.07452,4.19861 -4.20519,4.19861c-2.731,0 -13.89523,-2.00379 -17.90656,-3.19512c-1.218,-0.36167 -1.79382,-0.72392 -2.76949,-1.69992c-1.266,-1.266 -1.19406,-0.92297 -1.19406,-2.31464c0,-1.89 0.0259,-2.37419 1.60923,-3.76452c1.50233,-1.319 1.25634,-1.2984 9.58367,-0.01707z" data-paper-data="{&quot;wickUUID&quot;:&quot;e3fe9b28-755e-4723-a459-4ae76fadb88f&quot;,&quot;wickType&quot;:&quot;path&quot;,&quot;originalStyle&quot;:{&quot;strokeColor&quot;:null,&quot;fillColor&quot;:[&quot;Color&quot;,1,1,1],&quot;strokeWidth&quot;:1}}" fill="#ffffff"/><path d="M400.92527,140.65788c-0.10067,0.506 -0.54252,2.19831 -0.74352,3.36364c-0.87933,5.10033 -3.21853,11.78333 -6.31253,17.98666c-3.89367,7.80667 -7.27888,12.52937 -12.68188,17.72337l-3.45632,4.9728l13.63668,0.24318c16.83433,0.23267 22.49021,0.87307 34.58354,3.9404c8.90667,2.25867 14.45975,4.23134 30.68442,10.87167c12.165,4.97867 21.54041,8.17208 22.03741,7.67508c0.316,-0.316 1.52339,-5.89147 1.99606,-12.8408c0.59267,-8.70733 1.11811,-13.38104 2.49644,-22.18804c1.609,-10.27967 1.2747,-10.47262 0.01037,-11.53662c-3.43967,-2.89433 -15.59805,-7.71524 -27.83838,-10.99657c-17.386,-4.66033 -46.42711,-9.73904 -49.52444,-8.65937c-0.87067,0.30367 -1.1464,0.24304 -2.07373,-0.45296c-1.762,-1.32267 -2.61745,-1.09111 -2.81412,-0.10244z" data-paper-data="{&quot;wickUUID&quot;:&quot;1bfdbec1-2d1f-4be7-8285-921cb96618bd&quot;,&quot;wickType&quot;:&quot;path&quot;,&quot;originalStyle&quot;:{&quot;strokeColor&quot;:null,&quot;fillColor&quot;:[&quot;Color&quot;,1,0.50196,0],&quot;strokeWidth&quot;:1}}" fill="#ff8000"/><path d="M383.29517,51.07472c-4.29067,0.38933 -14.26483,2.98983 -17.86416,4.64683c-3.17533,1.462 -6.40199,4.07969 -9.94066,8.13069c-2.38767,2.73333 -7.67353,9.42728 -7.67353,9.58995c0,0.023 4.06478,0.91182 8.05245,0.91849c6.95967,0.01167 6.94553,-0.08517 9.5052,0.77183c6.38767,2.13833 9.87264,5.44551 17.70431,16.75751c3.80333,5.49367 6.42342,10.05099 10.15975,17.63132c4.684,9.50333 7.03704,16.00943 7.78337,21.50276l0.67154,2.07686l2.22905,-0.77462c2.317,-1.16433 12.31605,-5.14442 19.15805,-7.62275c12.54233,-4.54267 23.16833,-7.14602 30.38766,-7.44202c3.12633,-0.128 4.87164,0.03562 10.44464,0.85895c5.81733,0.85967 10.79304,1.45338 15.15504,1.80905l1.87684,-0.42067l1.81034,-6.53557c3.432,-12.42 3.86614,-15.44001 4.29547,-29.87501l0.12159,-8.01916l-6.40985,-3.18015c-14.775,-6.92933 -24.89271,-10.56471 -41.70771,-14.99438c-12.54867,-3.306 -18.01938,-4.15739 -32.79371,-5.08206c-5.738,-0.359 -20.95775,-1.03975 -21.23208,-0.94875c-0.09167,0.03067 -1.00027,0.13457 -1.7336,0.2009z" data-paper-data="{&quot;wickUUID&quot;:&quot;ab37361b-e061-4112-a14d-c4eb793bf037&quot;,&quot;wickType&quot;:&quot;path&quot;,&quot;originalStyle&quot;:{&quot;strokeColor&quot;:null,&quot;fillColor&quot;:[&quot;Color&quot;,1,0.50196,0],&quot;strokeWidth&quot;:1}}" fill="#ff8000"/><path d="M448.80711,127.02417c-3.17567,0.51867 -6.93984,1.48193 -13.04084,3.33693c-6.94833,2.11267 -7.73511,2.49576 -7.73511,2.74176c0,0.122 2.38419,1.96284 4.72152,2.38084c2.33733,0.41833 6.25016,1.12152 8.67349,1.55852c2.42367,0.43733 4.8806,0.78962 5.06693,0.78962c0.18633,0 1.37058,-1.34225 1.94691,-2.48825c0.57633,-1.14567 1.73675,-3.28169 2.55942,-4.71169c0.82267,-1.43 1.44269,-3.43597 1.37536,-3.4883c-0.067,-0.052 -2.19268,-0.3441 -3.56768,-0.11943z" data-paper-data="{&quot;wickUUID&quot;:&quot;80d37c0b-31d4-4b5d-9eb6-f7e9e13c0a87&quot;,&quot;wickType&quot;:&quot;path&quot;,&quot;originalStyle&quot;:{&quot;strokeColor&quot;:null,&quot;fillColor&quot;:[&quot;Color&quot;,1,0.50196,0],&quot;strokeWidth&quot;:1}}" fill="#ff8000"/><path d="M361.89102,19.8636c-16.61933,4.36167 -22.2374,6.52906 -27.04973,10.15839c-10.44767,7.87967 -22.96763,27.18844 -26.2713,40.55544c-0.93,3.762 -1.8393,13.46423 -1.2413,13.46423c0.098,0 1.98999,0.41164 2.85466,-0.02503c3.66067,-1.84933 17.21788,-5.98397 23.12021,-7.05097c1.05967,-0.19167 1.60887,-0.6387 1.95187,-1.9207c0.83033,-3.105 7.82585,-11.94314 15.69885,-19.83047c5.006,-5.01533 5.53287,-5.46873 8.2582,-6.8574c3.86133,-1.968 7.39757,-3.12396 16.49524,-5.42596l7.21952,-1.834l5.85712,0.38312c3.3,0.20867 10.31865,0.59794 15.63532,0.86861c14.27567,0.726 19.37954,1.32247 28.08321,3.28147c2.97667,0.66967 4.34552,-0.21703 4.16252,-0.6757c-1.59433,-3.99933 -3.70559,-12.56386 -4.97559,-20.12686l-0.82382,-4.70238l-2.26097,-0.69725c-3.874,-0.55533 -17.03179,-1.63934 -23.56112,-1.94167c-3.94167,-0.18233 -12.97801,-0.32377 -20.03634,-0.3131l-12.93869,0.02527z" data-paper-data="{&quot;wickUUID&quot;:&quot;6b17422b-9749-4953-91b4-4fae98978c17&quot;,&quot;wickType&quot;:&quot;path&quot;,&quot;originalStyle&quot;:{&quot;strokeColor&quot;:null,&quot;fillColor&quot;:[&quot;Color&quot;,1,0.50196,0],&quot;strokeWidth&quot;:1}}" fill="#ff8000"/><path d="M367.86499,195.72847c-1.58267,0.45 -3.47087,1.26203 -3.47087,2.38203c0,1.372 -1.43497,2.95008 -3.5233,3.73141c-2.392,0.895 -5.89181,1.57399 -10.45181,2.04866c-4.41433,0.45933 -5.91523,1.1333 -13.23656,5.92663c-3.10367,2.032 -14.45755,10.44266 -15.93122,11.73566c-0.153,0.13433 1.18582,10.39116 2.94015,21.60283c2.405,15.371 4.33156,24.79718 10.82556,52.97151c0.15967,0.69267 1.16069,1.40865 2.42669,1.24232c0.773,-0.10167 6.71759,-0.49177 13.13426,-0.8631c23.77333,-1.375 36.22268,-2.62296 41.76301,-4.18629l2.34619,-0.83839l0.13716,-2.61001c-0.00633,-8.97833 -11.85505,-56.26674 -21.05305,-84.02341c-3.31633,-10.00867 -3.23988,-9.87785 -5.90621,-9.11985z" data-paper-data="{&quot;wickUUID&quot;:&quot;8f592165-df23-48bc-bc38-562ff6f557cb&quot;,&quot;wickType&quot;:&quot;path&quot;,&quot;originalStyle&quot;:{&quot;strokeColor&quot;:null,&quot;fillColor&quot;:[&quot;Color&quot;,0.50196,0,1],&quot;strokeWidth&quot;:1}}" fill="#8000ff"/><path d="M349.59077,73.76214c-16.381,1.739 -33.1,6.032 -42.354,10.874c-5.532,2.894 -14.758,10.456 -18.018,14.768c-8.327,11.015 -18.327,43.522 -18.33,59.588c-0.002,7.056 1.745,10.808 7.329,15.739c4.108,3.628 19.817,14.833 25.919,18.488c1.852,1.109 3.476,2.091 3.609,2.182c0.133,0.091 -0.199,1.134 -0.738,2.317c-1.324,2.904 -0.32,6.375 2.109,7.299c1.288,0.49 4.56,0.312 9.3,-0.506c5.642,-0.974 8.27,-1.057 11.499,-0.365c5.443,1.167 16.683,1.145 24.712,-0.049c9.507,-1.414 11.939,-4.002 9.397,-9.996c-0.391,-0.92 1.183,-2.257 5.808,-4.934c3.489,-2.019 8.442,-5.589 11.007,-7.933c13.803,-12.616 23.548,-37.525 20.525,-52.467c-2.443,-12.078 -12.559,-31.455 -23.855,-45.692c-6.605,-8.325 -13.997,-10.791 -27.919,-9.313zM362.63877,84.66214c3.113,0.867 6.584,4.722 13.65,15.163c6.427,9.496 12.016,21.43 14.071,30.044c1.992,8.349 -1.172,20.778 -8.272,32.499c-6.379,10.53 -11.357,14.648 -28.181,23.312c-8.396,4.324 -10.217,4.929 -17.583,5.843c-9.167,1.137 -10.788,0.843 -19.552,-3.544c-9.446,-4.727 -32.39,-20.985 -34.084,-24.151c-2.902,-5.424 2.253,-30.054 10.057,-48.046c4.077,-9.402 6.416,-12.432 13.658,-17.7c8.011,-5.827 18.438,-9.648 33.049,-12.11c13.124,-2.213 18.796,-2.533 23.187,-1.31z" data-paper-data="{&quot;wickUUID&quot;:&quot;88c05d84-2136-42d6-855e-16e716109437&quot;,&quot;wickType&quot;:&quot;path&quot;,&quot;originalStyle&quot;:{&quot;strokeColor&quot;:null,&quot;fillColor&quot;:[&quot;Color&quot;,0,0,0],&quot;strokeWidth&quot;:1}}" fill="#000000"/><path d="M403.22955,132.27994c-2.279,1.597 -2.562,6.326 -0.482,8.057c0.778,0.646 4.39,1.381 8.207,1.668c6.961,0.523 18.597,2.599 35.859,6.397c18.298,4.026 37.037,11.364 37.037,14.503c0,0.862 -0.773,6.056 -1.718,11.542c-0.945,5.486 -1.95,14.993 -2.234,21.127c-0.353,7.628 -0.826,11.154 -1.496,11.154c-2.47,0 -11.389,-3.237 -25.902,-9.399c-23.424,-9.946 -39.485,-13.329 -63.294,-13.329c-18.856,0 -31.226,2.145 -35.655,6.181c-2.465,2.245 -2.154,5.324 0.756,7.487c2.171,1.613 2.244,1.612 7.95,-0.151c14.881,-4.596 43.262,-3.92 64.354,1.533c3.472,0.898 13.607,4.716 22.522,8.485c17.687,7.477 34.118,12.325 37.463,11.053c1.074,-0.408 2.365,-1.255 2.869,-1.882c0.547,-0.68 1.081,-7.251 1.324,-16.292c0.313,-11.612 0.959,-18.164 2.768,-28.048c1.686,-9.213 2.14,-13.519 1.588,-15.075c-2.067,-5.824 -33.697,-17.94 -55.487,-21.254c-3.241,-0.492 -10.14,-1.834 -15.331,-2.981c-10.944,-2.419 -18.363,-2.691 -21.098,-0.776z" data-paper-data="{&quot;wickUUID&quot;:&quot;c92e645a-2d9e-4ce2-aa75-be127ca5c272&quot;,&quot;wickType&quot;:&quot;path&quot;,&quot;originalStyle&quot;:{&quot;strokeColor&quot;:null,&quot;fillColor&quot;:[&quot;Color&quot;,0,0,0],&quot;strokeWidth&quot;:1}}" fill="#000000"/><path d="M382.41983,40.58985c-21.633,5.207 -23.965,6.175 -31.009,12.861c-4.7,4.46 -13.43,14.966 -15.861,19.086c-1.946,3.299 -1.482,5.686 1.484,7.63c3.09,2.024 5.899,0.362 11.295,-6.683c6.673,-8.713 12.598,-14.857 15.987,-16.578c4.945,-2.511 16.129,-5.281 21.471,-5.317c2.777,-0.018 12.058,0.379 20.623,0.884c12.859,0.758 17.698,1.435 27.777,3.885c16.854,4.098 31.039,8.886 42.592,14.378l9.785,4.651l-0.352,12.009c-0.305,10.397 -0.728,13.345 -3.155,21.966l-2.802,9.957l-5.147,-0.371c-2.83,-0.204 -8.476,-0.976 -12.546,-1.715c-7.783,-1.414 -9.309,-1.307 -23.324,1.642c-8.131,1.711 -35.188,11.819 -37.707,14.088c-2.497,2.248 -2.145,5.309 0.869,7.549l2.303,1.713l10.744,-4.064c29.174,-11.034 39.329,-12.988 50.306,-9.68c1.389,0.418 5.177,1.135 8.418,1.593c3.24,0.458 7.029,1.066 8.42,1.35c3.991,0.818 5.745,-1.883 9.591,-14.764c4.383,-14.68 5.123,-19.675 5.13,-34.647l0.007,-12.341l-2.59,-2.179c-1.425,-1.199 -3.074,-2.179 -3.665,-2.179c-0.591,0 -5.484,-2.096 -10.873,-4.658c-11.714,-5.568 -31.08,-11.967 -47.266,-15.619c-9.604,-2.167 -14.588,-2.777 -26.936,-3.299c-8.334,-0.352 -16.667,-0.846 -18.519,-1.097c-1.852,-0.251 -4.124,-0.274 -5.05,-0.051z" data-paper-data="{&quot;wickUUID&quot;:&quot;a6f0a83d-77b8-4a9a-be13-1ecbe4477a0d&quot;,&quot;wickType&quot;:&quot;path&quot;,&quot;originalStyle&quot;:{&quot;strokeColor&quot;:null,&quot;fillColor&quot;:[&quot;Color&quot;,0,0,0],&quot;strokeWidth&quot;:1}}" fill="#000000"/><path d="M373.1598,7.57482c-4.166,0.61 -13.525,2.65 -20.797,4.534c-19.873,5.148 -26.931,9.849 -38.791,25.831c-5.588,7.531 -12.884,21.415 -14.605,27.794c-1.414,5.244 -2.403,17.16 -1.667,20.091c0.693,2.763 4.074,5.064 6.37,4.335c3.259,-1.035 4.254,-2.871 4.261,-7.861c0.012,-8.855 1.556,-15.093 5.838,-23.585c7.628,-15.127 16.955,-26.314 25.925,-31.096c3.034,-1.616 10.431,-4.042 18.812,-6.167l13.813,-3.503l17.256,-0.097c11.674,-0.065 21.97,0.411 31.832,1.471l14.576,1.567l2.048,-1.924c2.505,-2.354 2.624,-5.058 0.314,-7.149c-3.826,-3.462 -49.982,-6.465 -65.185,-4.241z" data-paper-data="{&quot;wickUUID&quot;:&quot;5602d069-9331-43eb-b7f2-4503325567c6&quot;,&quot;wickType&quot;:&quot;path&quot;,&quot;originalStyle&quot;:{&quot;strokeColor&quot;:null,&quot;fillColor&quot;:[&quot;Color&quot;,0,0,0],&quot;strokeWidth&quot;:1}}" fill="#000000"/><path d="M432.04443,12.66557c-2.512,2.512 -2.559,4.22 -0.431,15.659c2.671,14.36 6.231,23.139 9.742,24.02c2.745,0.689 4.215,0.054 5.927,-2.559c1.344,-2.051 1.305,-2.432 -0.839,-8.215c-2.312,-6.238 -5.522,-20.817 -5.522,-25.08c0,-1.592 -0.748,-2.99 -2.218,-4.146c-2.874,-2.261 -4.138,-2.2 -6.659,0.321z" data-paper-data="{&quot;wickUUID&quot;:&quot;40e7b375-d313-4e53-a6da-20c009fe682b&quot;,&quot;wickType&quot;:&quot;path&quot;,&quot;originalStyle&quot;:{&quot;strokeColor&quot;:null,&quot;fillColor&quot;:[&quot;Color&quot;,0,0,0],&quot;strokeWidth&quot;:1}}" fill="#000000"/><path d="M455.76494,121.77186c-1.219,0.959 -2.217,2.143 -2.217,2.629c0,0.486 -1.705,3.692 -3.788,7.124c-2.084,3.431 -3.788,6.955 -3.788,7.831c0,1.664 3.68,5.082 5.471,5.082c3.28,0 11.787,-11.919 12.752,-17.867c0.401,-2.47 0.121,-3.191 -1.834,-4.729c-2.867,-2.255 -3.805,-2.265 -6.596,-0.07z" data-paper-data="{&quot;wickUUID&quot;:&quot;3c9d33c5-bf2a-4b6e-a65a-0f0b5cc565e2&quot;,&quot;wickType&quot;:&quot;path&quot;,&quot;originalStyle&quot;:{&quot;strokeColor&quot;:null,&quot;fillColor&quot;:[&quot;Color&quot;,0,0,0],&quot;strokeWidth&quot;:1}}" fill="#000000"/><path d="M301.64955,118.55418c-1.726,1.513 -2.267,2.947 -2.69,7.137c-0.626,6.188 0.281,7.804 4.378,7.804c3.612,0 5.016,-1.505 6.267,-6.717c1.268,-5.289 0.671,-7.86 -2.12,-9.132c-2.935,-1.337 -3.348,-1.273 -5.835,0.908z" data-paper-data="{&quot;wickUUID&quot;:&quot;dcb498bc-19ef-49a9-b783-15c0b79e78b1&quot;,&quot;wickType&quot;:&quot;path&quot;,&quot;originalStyle&quot;:{&quot;strokeColor&quot;:null,&quot;fillColor&quot;:[&quot;Color&quot;,0,0,0],&quot;strokeWidth&quot;:1}}" fill="#000000"/><path d="M329.81055,121.75318c-6.713,0.83 -15.09,1.54 -18.616,1.576c-5.145,0.052 -6.848,0.409 -8.628,1.81c-2.86,2.25 -2.86,5.203 0,7.453c2.718,2.138 7.396,2.237 21.772,0.463c5.556,-0.686 13.321,-1.48 17.256,-1.765c8.722,-0.632 10.943,-1.801 10.943,-5.763c0,-3.654 -2.495,-5.54 -7.132,-5.392c-1.865,0.059 -8.883,0.787 -15.595,1.618z" data-paper-data="{&quot;wickUUID&quot;:&quot;3c032451-5401-42c5-a308-449645a31ef9&quot;,&quot;wickType&quot;:&quot;path&quot;,&quot;originalStyle&quot;:{&quot;strokeColor&quot;:null,&quot;fillColor&quot;:[&quot;Color&quot;,0,0,0],&quot;strokeWidth&quot;:1}}" fill="#000000"/><path d="M340.94383,122.08518c-11.053,3.579 -12.592,5.603 -13.38,17.606c-0.479,7.298 -0.385,8.008 1.285,9.678c2.262,2.261 5.503,2.311 7.695,0.119c1.267,-1.266 1.705,-2.882 1.768,-6.523c0.141,-8.129 0.558,-8.832 6.381,-10.733c8.581,-2.801 11.076,-6.836 6.468,-10.46c-2.71,-2.132 -2.661,-2.134 -10.217,0.313z" data-paper-data="{&quot;wickUUID&quot;:&quot;93d4307d-b6be-4da6-8269-7f4ce8751b55&quot;,&quot;wickType&quot;:&quot;path&quot;,&quot;originalStyle&quot;:{&quot;strokeColor&quot;:null,&quot;fillColor&quot;:[&quot;Color&quot;,0,0,0],&quot;strokeWidth&quot;:1}}" fill="#000000"/><path d="M303.8233,170.83471c-2.377,2.534 -1.972,5.722 0.97,7.65c1.84,1.206 16.778,4.142 20.616,4.053c2.87,-0.068 4.401,-1.784 4.401,-4.934c0,-3.802 -2.747,-5.505 -10.878,-6.744c-3.508,-0.535 -7.893,-1.238 -9.745,-1.563c-2.928,-0.515 -3.628,-0.314 -5.364,1.538z" data-paper-data="{&quot;wickUUID&quot;:&quot;0d219233-3c33-4945-8c15-7d02b6423f4e&quot;,&quot;wickType&quot;:&quot;path&quot;,&quot;originalStyle&quot;:{&quot;strokeColor&quot;:null,&quot;fillColor&quot;:[&quot;Color&quot;,0,0,0],&quot;strokeWidth&quot;:1}}" fill="#000000"/><path d="M367.51081,182.79174c-1.11,2.436 -1.031,2.768 4.261,18.044c10.372,29.933 24.628,87.786 22.226,90.189c-1.271,1.271 -15.324,3.113 -30.939,4.056c-7.87,0.475 -17.222,1.041 -20.782,1.259l-6.473,0.395l-1.384,-6.494c-0.762,-3.571 -2.846,-12.666 -4.632,-20.211c-2.015,-8.517 -4.884,-25.432 -7.564,-44.613c-2.374,-16.992 -4.475,-31.699 -4.668,-32.682c-0.197,-1.003 -1.461,-2.247 -2.882,-2.836c-2.135,-0.884 -2.859,-0.833 -4.627,0.325c-1.152,0.756 -2.337,2.337 -2.633,3.514c-0.85,3.386 7.76,61.595 11.403,77.091c1.779,7.569 3.879,16.937 4.667,20.819c1.722,8.482 3.954,13.979 6.155,15.157c1.129,0.604 8.121,0.492 22.993,-0.367c33.28,-1.924 49.018,-4.423 51.666,-8.204c2.647,-3.78 1.236,-14.724 -5.463,-42.367c-6.702,-27.654 -19.05,-68.276 -22.23,-73.128c-1.09,-1.665 -2.083,-2.105 -4.745,-2.105c-2.795,0 -3.532,0.365 -4.349,2.158z" data-paper-data="{&quot;wickUUID&quot;:&quot;46e2a073-bf8d-409b-a3ff-621923f32a1d&quot;,&quot;wickType&quot;:&quot;path&quot;,&quot;originalStyle&quot;:{&quot;strokeColor&quot;:null,&quot;fillColor&quot;:[&quot;Color&quot;,0,0,0],&quot;strokeWidth&quot;:1}}" fill="#000000"/><path d="M352.95854,191.08174c-4.63,1.499 -10.027,3.557 -11.994,4.573c-2.246,1.159 -4.323,1.659 -5.584,1.342c-2.168,-0.544 -5.6,1.072 -12.715,5.987c-2.309,1.596 -5.528,3.142 -7.155,3.437c-5.225,0.949 -11.298,3.719 -14.133,6.446c-1.518,1.46 -4.332,5.068 -6.254,8.017c-2.837,4.356 -3.505,6.134 -3.553,9.468c-0.078,5.326 2.219,7.903 7.045,7.903c2.498,0 4.094,-0.663 6.519,-2.707c27.374,-23.074 38.492,-30.528 51.191,-34.318c11.011,-3.287 14.24,-7.268 9.145,-11.276c-2.727,-2.145 -2.284,-2.185 -12.512,1.128z" data-paper-data="{&quot;wickUUID&quot;:&quot;367bd3c2-8995-45e4-8b65-07bf879b199a&quot;,&quot;wickType&quot;:&quot;path&quot;,&quot;originalStyle&quot;:{&quot;strokeColor&quot;:null,&quot;fillColor&quot;:[&quot;Color&quot;,0,0,0],&quot;strokeWidth&quot;:1}}" fill="#000000"/><path d="M309.45204,198.22776c-2.118,1.344 -4.1,2.844 -4.403,3.335c-0.387,0.627 -1.15,0.62 -2.562,-0.023c-4.515,-2.058 -10.979,1.101 -13.876,6.78c-2.892,5.668 -2.901,8.458 -0.044,12.954c3.383,5.323 5.984,6.54 9.07,4.244c1.26,-0.937 2.41,-2.5 2.555,-3.473c0.145,-0.973 1.092,-2.026 2.104,-2.34c7.043,-2.183 11.504,-6.114 11.531,-10.161c0.006,-0.854 1.332,-2.409 2.946,-3.455c2.414,-1.564 2.936,-2.416 2.936,-4.793c0,-2.033 -0.555,-3.279 -1.871,-4.201c-2.626,-1.839 -3.989,-1.656 -8.386,1.133z" data-paper-data="{&quot;wickUUID&quot;:&quot;ad311b47-3edc-400a-839d-9413ef668126&quot;,&quot;wickType&quot;:&quot;path&quot;,&quot;originalStyle&quot;:{&quot;strokeColor&quot;:null,&quot;fillColor&quot;:[&quot;Color&quot;,0,0,0],&quot;strokeWidth&quot;:1}}" fill="#000000"/><path d="M376.88308,299.25586c-2.648,2.647 -2.914,3.81 -1.642,7.157c1.662,4.371 4.148,19.075 6.2,36.678c1.897,16.266 2.731,24.962 5.572,58.081c1.04,12.127 2.779,21.228 4.58,23.977c0.764,1.166 3.842,3.316 6.841,4.778c4.665,2.275 5.758,2.52 7.568,1.695c1.164,-0.53 2.543,-1.901 3.064,-3.046c1.253,-2.75 -0.647,-5.73 -5.106,-8.005c-4.496,-2.294 -4.721,-3.513 -8.087,-43.81c-1.801,-21.567 -5.112,-49.253 -7.23,-60.466c-0.933,-4.938 -1.914,-10.6 -2.179,-12.583c-0.33,-2.469 -1.145,-4.127 -2.587,-5.261c-2.843,-2.236 -4.098,-2.092 -6.994,0.805z" data-paper-data="{&quot;wickUUID&quot;:&quot;10d37266-a3dd-45b6-974a-19318ed2782a&quot;,&quot;wickType&quot;:&quot;path&quot;,&quot;originalStyle&quot;:{&quot;strokeColor&quot;:null,&quot;fillColor&quot;:[&quot;Color&quot;,0,0,0],&quot;strokeWidth&quot;:1}}" fill="#000000"/><path d="M346.11509,302.31436c-1.25,1.909 -1.349,4.081 -0.867,19.15c0.298,9.348 1.078,20.406 1.732,24.573c0.811,5.168 1.274,17.123 1.458,37.622l0.27,30.047l-1.873,1.994c-1.031,1.097 -1.873,2.756 -1.873,3.687c0,2.548 3.615,5.434 7.452,5.949c3.003,0.403 3.724,0.142 6.052,-2.186c2.508,-2.508 2.618,-2.889 2.153,-7.471c-0.269,-2.655 -0.845,-19.411 -1.279,-37.235c-0.435,-17.824 -1.197,-34.112 -1.693,-36.195c-0.496,-2.083 -1.14,-11.742 -1.431,-21.465c-0.586,-19.623 -0.872,-20.622 -5.894,-20.622c-2.071,0 -3.162,0.558 -4.207,2.152z" data-paper-data="{&quot;wickUUID&quot;:&quot;b153a9cc-0096-4d6f-95a6-1f9f83837988&quot;,&quot;wickType&quot;:&quot;path&quot;,&quot;originalStyle&quot;:{&quot;strokeColor&quot;:null,&quot;fillColor&quot;:[&quot;Color&quot;,0,0,0],&quot;strokeWidth&quot;:1}}" fill="#000000"/></g><g fill="none" fill-rule="nonzero" stroke="none" stroke-width="1" stroke-linecap="butt" stroke-linejoin="miter" stroke-miterlimit="10" stroke-dasharray="" stroke-dashoffset="0" font-family="sans-serif" font-weight="normal" font-size="12" text-anchor="start" style="mix-blend-mode: normal"/><g id="wick_project_gui" fill="none" fill-rule="nonzero" stroke="none" stroke-width="1" stroke-linecap="butt" stroke-linejoin="miter" stroke-miterlimit="10" stroke-dasharray="" stroke-dashoffset="0" font-family="sans-serif" font-weight="normal" font-size="12" text-anchor="start" style="mix-blend-mode: normal"/></g></svg>