<svg version="1.1" xmlns="http://www.w3.org/2000/svg" xmlns:xlink="http://www.w3.org/1999/xlink" width="1260" height="594" viewBox="0,0,1260,594"><g transform="translate(214.61833,-3.9561) scale(1.03356,1.03356)"><g id="wick_project_bg" fill="#cccccc" fill-rule="nonzero" stroke="none" stroke-width="1" stroke-linecap="butt" stroke-linejoin="miter" stroke-miterlimit="10" stroke-dasharray="" stroke-dashoffset="0" font-family="none" font-weight="none" font-size="none" text-anchor="none" style="mix-blend-mode: normal"><rect x="0" y="0" width="720" height="480"/></g><g data-paper-data="{&quot;wickUUID&quot;:&quot;9d089372-eb91-4ca0-b0f3-bbc7be116f5b&quot;,&quot;wickType&quot;:&quot;clipsandpaths&quot;}" fill="none" fill-rule="none" stroke="none" stroke-width="1" stroke-linecap="butt" stroke-linejoin="miter" stroke-miterlimit="10" stroke-dasharray="" stroke-dashoffset="0" font-family="none" font-weight="none" font-size="none" text-anchor="none" style="mix-blend-mode: normal"><path d="M287.27147,358.01096c-2.01667,0.61633 -2.94952,2.78395 -2.55752,2.79762c0.79767,0.02767 6.41374,-1.54176 7.23274,-2.02076c1.02133,-0.59733 -0.91289,-1.92653 -4.67522,-0.77686z" data-paper-data="{&quot;wickUUID&quot;:&quot;15d87ee9-beaa-41f5-b171-0cdda967f06b&quot;,&quot;wickType&quot;:&quot;path&quot;}" fill="#ff0000" fill-rule="evenodd"/><path d="M392.85284,349.83941c-3.90967,2.88433 -7.40996,7.49313 -10.25529,13.4898c-2.606,5.49233 -5.26524,14.44832 -4.55524,15.15832c0.60633,0.60633 5.04163,2.42719 8.05363,2.91952c4.08133,0.66733 19.90119,0.97373 25.10519,0.48573c2.198,-0.20567 9.06553,-1.08428 15.16153,-1.94361l11.54112,-1.77436l0.27955,-9.10148l-0.01054,-8.60449l-1.91985,-3.06822c-0.979,-1.49467 -2.53085,-3.67066 -3.43118,-4.81033l-2.14804,-2.40068l-8.52222,-0.02681c-4.622,-0.005 -9.08333,0.17123 -9.756,0.35823c-0.925,0.257 -2.04399,1.14475 -3.99799,3.42942c-3.02633,3.53833 -3.40289,3.71772 -5.07289,2.25139c-0.64867,-0.56967 -1.16012,-1.04916 -1.25545,-1.04916c-0.09533,0 -1.29967,0.62099 -2.51567,1.35432c-2.62033,1.58033 -3.80678,2.03789 -4.97145,0.87322c-0.88467,-0.88467 -0.45804,-1.58794 1.12663,-5.20427c1.68433,-3.843 0.12116,-4.53254 -2.85584,-2.33654z" data-paper-data="{&quot;wickUUID&quot;:&quot;91332694-2527-4a2e-9b43-12db3b1ae813&quot;,&quot;wickType&quot;:&quot;path&quot;}" fill="#ff0000" fill-rule="evenodd"/><path d="M300.18663,356.58443c-0.44933,1.18167 -0.34597,1.93781 1.05636,2.87648c0.98933,0.662 1.31048,0.0416 1.39848,1.2626c0.17367,2.4 -0.76811,2.87354 -6.42144,3.47021c-2.508,0.26467 -2.96554,0.82865 -2.96554,3.81798c0,1.796 0.41881,1.8279 -0.23152,2.4389c-1.353,1.27067 -2.52484,0.89266 -4.88484,-1.28267l-1.57081,-1.41334l-4.45462,-0.43052c-2.373,-0.22 -4.31468,-0.51727 -4.56568,-0.7256c-0.25067,-0.208 -0.36254,-0.61013 -0.70954,-1.25446c-0.347,-0.64433 -1.92318,-1.36592 -2.04851,-1.36592c-0.855,0 -6.0775,4.96058 -8.3505,7.91458c-5.11633,6.64933 -7.60041,13.55786 -5.50274,14.75619c0.56,0.31967 3.85668,1.03438 10.57668,1.03438c8.09033,0 9.43421,-0.08101 12.58054,-0.75834c1.925,-0.41433 7.31653,-1.28999 11.89986,-1.93366c14.27867,-2.00533 22.67417,-3.72009 25.8395,-5.27442c1.39,-0.68267 2.02285,-1.86352 1.83685,-3.02785c-0.65867,-4.119 -2.46108,-7.54828 -6.28475,-12.09995c-4.00267,-4.76433 -10.25533,-8.90657 -14.03233,-9.26957c-1.50967,-0.145 -2.83478,0.39531 -3.16545,1.26498z" data-paper-data="{&quot;wickUUID&quot;:&quot;3d64819e-c713-4d4e-a3a3-e2a1f4005a78&quot;,&quot;wickType&quot;:&quot;path&quot;}" fill="#ff0000" fill-rule="evenodd"/><path d="M427.47767,383.01029c-16.219,2.58267 -27.03528,3.01568 -40.35161,1.61601c-1.65033,-0.17333 -2.05066,1.41012 -1.14733,1.93012c0.502,0.28867 2.44043,1.06334 4.13843,1.64101l3.29898,1.09842l9.00244,0.14448c4.90367,0.077 12.21518,-0.03207 16.11151,-0.2334c10.18033,-0.52567 13.21019,-1.31742 16.34752,-4.21375c2.04633,-1.889 2.00806,-3.48122 -7.39994,-1.98289z" data-paper-data="{&quot;wickUUID&quot;:&quot;ee2a9cbe-e801-4e4b-9ce2-184dec4b2153&quot;,&quot;wickType&quot;:&quot;path&quot;}" fill="#ffffff" fill-rule="evenodd"/><path d="M318.13312,384.15665c-2.23067,0.907 -8.15671,2.15685 -16.50271,3.48052c-4.05633,0.64333 -10.22162,1.71096 -13.77362,2.38396c-6.415,1.21567 -6.51635,1.22322 -17.84268,1.43089c-11.65267,0.21367 -12.90682,0.38007 -11.98182,1.49474c0.20833,0.25133 1.22733,2.50095 2.25833,3.00595c1.71733,0.84067 2.54989,0.93898 5.91889,0.91231c13.52933,-0.10667 44.86856,-5.99162 52.65656,-9.88762c1.84133,-0.92133 3.36145,-2.91294 2.40078,-2.88494c-0.343,0.01 -2.2994,-0.27514 -3.13373,0.06419z" data-paper-data="{&quot;wickUUID&quot;:&quot;ad8dbcf2-56fe-4bcb-9cff-3e5075243d80&quot;,&quot;wickType&quot;:&quot;path&quot;}" fill="#ffffff" fill-rule="evenodd"/><path d="M419.20793,268.07009c-3.16867,0.77533 -6.7062,3.39695 -8.8282,6.56995c-2.028,3.032 -2.56022,4.7246 -1.58922,5.62927c0.91567,0.85333 0.93182,3.43309 0.04482,5.68376c-0.62367,1.58267 -0.32355,2.31413 0.25445,2.83713c0.63133,0.57167 4.52258,2.05967 5.38125,2.05967c0.27667,0 1.33488,-0.90064 1.81555,-1.86331c2.20367,-4.41567 5.15735,-5.76891 6.37068,-2.83991c0.338,0.81667 -0.47473,0.13931 -0.93606,1.72531c-0.94067,3.23667 -2.67953,6.34004 -4.55986,8.14104c-1.525,1.46067 -6.28435,7.39666 -8.96135,11.17166c-0.82867,1.16867 -1.62378,4.03347 -2.14111,6.9968c-0.23033,1.32033 0.73772,2.05936 5.46439,3.06436c3.27333,0.696 11.4523,0.94001 13.20363,0.44734c0.95867,-0.26967 1.69946,-1.32236 4.70246,-8.78703c2.63433,-6.54867 3.46894,-8.01709 6.05461,-10.64176c4.45933,-4.52633 5.98727,-8.08062 5.61594,-12.70795c-0.276,-3.43767 -1.44014,-5.59476 -4.58847,-7.67543c-2.896,-1.914 -4.62377,-3.43403 -4.62377,-4.03936c0,-0.73233 -3.85247,-3.97783 -5.70847,-4.8275c-1.793,-0.821 -5.52994,-1.29704 -6.97127,-0.94404z" data-paper-data="{&quot;wickUUID&quot;:&quot;6650167e-d1f4-4373-ac46-0986b0d002d0&quot;,&quot;wickType&quot;:&quot;path&quot;}" fill="#ffffff" fill-rule="evenodd"/><path d="M391.17463,266.82554c-2.09067,1.37833 -2.92115,4.22926 -1.67215,5.56959c0.61433,0.65967 3.47377,1.93281 3.71977,1.63181c0.05533,-0.06767 0.82353,-1.96944 1.1982,-3.48844c0.599,-2.42567 0.52842,-3.36243 0.09942,-3.79176c-0.62333,-0.623 -2.19524,-0.6792 -3.34524,0.0788z" data-paper-data="{&quot;wickUUID&quot;:&quot;6edecbde-a53b-4a2b-b620-d0665a1785ac&quot;,&quot;wickType&quot;:&quot;path&quot;}" fill="#0000ff" fill-rule="evenodd"/><path d="M362.11307,263.24389c-1.275,1.40867 -1.70456,6.70581 -0.77256,9.84381c0.594,2.00033 2.54801,2.94266 4.14901,2.11566c3.411,-1.762 5.01839,-3.88831 5.01839,-6.45931c0,-2.26667 -1.1452,-4.28047 -3.4242,-5.41914c-2.34967,-1.17433 -4.20397,-0.92835 -4.97064,-0.08102z" data-paper-data="{&quot;wickUUID&quot;:&quot;76138633-224f-4663-b630-762808593232&quot;,&quot;wickType&quot;:&quot;path&quot;}" fill="#0000ff" fill-rule="evenodd"/><path d="M352.33691,301.21295c-1.19167,4.98333 -1.79474,8.66185 -1.53741,8.69685c0.11633,0.01567 2.40662,0.61913 4.33162,0.59413c7.34167,-0.096 10.68133,0.82198 13.764,4.15165c3.23633,3.49567 3.87922,5.45975 6.28555,17.61242c1.58467,8.00333 2.69448,16.00865 3.21981,23.17532l0.3936,3.86349l2.32014,-1.58217c2.96333,-5.077 7.7342,-10.31949 10.89287,-11.96982c1.743,-0.911 2.07452,-1.66047 1.80852,-2.45147c-0.15767,-0.46867 -1.20261,-5.18965 -2.29861,-10.32298c-1.096,-5.13333 -2.8867,-13.08787 -3.9827,-17.69154c-2.46633,-10.36133 -3.02974,-13.29943 -3.02974,-15.80176l-0.72615,-2.66303l-14.91608,-0.00737l-15.00015,0.02286z" data-paper-data="{&quot;wickUUID&quot;:&quot;9e4aff62-e506-4f7d-8307-106094ddffca&quot;,&quot;wickType&quot;:&quot;path&quot;}" fill="#0000ff" fill-rule="evenodd"/><path d="M309.49599,328.12652c0,0.51633 -0.29446,2.00572 -0.66646,3.36839c-0.66333,2.429 -4.06874,16.52944 -4.49507,18.60744c-0.21633,1.05367 0.14019,1.87217 1.99486,2.25717c4.01633,0.83367 8.70327,3.99957 13.1996,8.94224c3.39167,3.72867 4.82435,6.02678 5.97435,9.44245c0.58667,1.742 2.69501,2.71798 2.78534,2.44965c1.67833,-4.98433 2.47975,-9.67806 4.07075,-23.89739c1.374,-12.27933 2.35416,-19.64802 2.69383,-20.00435c0.07467,-0.07867 -2.61555,-1.34016 -5.04688,-1.84883c-4.96433,-1.03867 -7.88272,-1.16169 -10.81805,-0.45302c-2.574,0.62133 -4.94781,0.62146 -7.00314,-0.00187c-0.9,-0.273 -1.92243,-0.47562 -1.9681,-0.47762c-0.04567,-0.002 -0.72103,1.09907 -0.72103,1.61574z" data-paper-data="{&quot;wickUUID&quot;:&quot;d6c34d5e-0e04-4698-8018-ac856879ff38&quot;,&quot;wickType&quot;:&quot;path&quot;}" fill="#0000ff" fill-rule="evenodd"/><path d="M343.54797,227.195c-4.61867,0.74833 -5.90745,1.32283 -11.17712,4.97916c-2.35267,1.632 -5.88117,4.07915 -7.62284,5.27882c-8.838,6.08667 -21.69598,19.31431 -24.58831,25.28731c-1.44933,2.99233 -4.09129,10.71725 -4.68562,13.75692c-0.543,2.77667 -0.30722,4.5668 1.70645,11.96247c2.23167,8.19567 4.80021,15.88833 5.79388,17.35066c0.43733,0.64367 1.50722,1.78954 2.26122,2.33587c1.70533,1.23533 2.00939,1.78529 1.96272,3.57762c-0.02033,0.77567 0.15638,1.98398 0.43105,2.80898c0.27433,0.825 0.77452,2.42256 1.07485,3.43089c0.30033,1.00833 1.29538,2.6617 1.63505,3.07703c0.61667,0.754 1.01582,0.81685 6.54715,0.50352c5.414,-0.30667 5.95042,-0.44991 8.23842,-1.61224c3.52733,-1.792 7.01905,-4.56477 13.18405,-10.5051l3.88478,-3.93981l-1.75572,-5.73959c-2.00967,-6.151 -3.23449,-8.84528 -4.96149,-10.97928c-1.229,-1.51867 -1.91624,-1.94198 -3.70157,-1.93198c-1.00833,0.00533 -3.81879,0.23001 -5.83546,0.46968c-4.10333,0.48733 -5.66287,1.1107 -8.77554,3.52703l-1.42032,1.47194l1.38537,-0.33313c1.42733,-2.58267 4.30325,-5.1337 6.60625,-5.8597c1.03267,-0.32567 2.25386,-0.95906 2.79719,-1.46673l1.36955,-1.79305l-1.49505,-1.77685c-2.05633,-2.29367 -3.04685,-5.22579 -2.83352,-8.91112c0.23433,-4.04967 1.54551,-6.4324 5.88218,-10.9064c5.17367,-5.338 11.27242,-10.84184 15.31442,-13.83317c4.88633,-3.61633 5.60357,-4.51458 7.07057,-8.76125c1.10367,-3.195 1.27663,-4.32703 0.99096,-5.8337c-0.661,-3.48433 -2.48461,-6.24691 -4.02661,-6.18591c-0.47233,0.01867 -3.24027,0.22411 -5.25694,0.55111z" data-paper-data="{&quot;wickUUID&quot;:&quot;d95a99fe-c3a4-489d-a5b3-8c4829d4e0f6&quot;,&quot;wickType&quot;:&quot;path&quot;}" fill="#0000ff" fill-rule="evenodd"/><path d="M325.59487,287.33214c-3.82333,0.46633 -6.34587,1.60316 -8.7572,3.82283c-2.601,2.39333 -6.77318,8.22125 -9.78118,13.69692l-1.51189,2.84765l0.89173,1.44575c0.63733,0.73767 0.75612,1.12889 0.72879,2.32756c-0.01967,0.851 0.19029,2.23078 0.46429,3.05578c0.27367,0.825 0.77447,2.42662 1.0748,3.43495c0.30033,1.00833 1.29542,2.66182 1.63509,3.07715c0.61667,0.754 1.01582,0.81685 6.54715,0.50352c5.414,-0.30667 5.95042,-0.44991 8.23842,-1.61224c3.52733,-1.792 7.01905,-4.56477 13.18405,-10.5051l3.88478,-3.93981l-1.75572,-5.73959c-2.00967,-6.151 -3.18752,-8.76257 -4.91452,-10.89657l-1.67834,-1.95839l-2.56475,-0.03556c-1.19167,0.02 -3.85217,0.25148 -5.6855,0.47515z" data-paper-data="{&quot;wickUUID&quot;:&quot;8d7dfa6d-267e-4de5-a5a3-cec7b0323331&quot;,&quot;wickType&quot;:&quot;path&quot;}" fill="#ffffff" fill-rule="evenodd"/><path d="M397.95489,230.03082c0.10533,1.55833 0.19311,5.06867 0.19411,7.788c0.00167,3.79233 1.69251,5.28069 2.01018,5.17469c0.47067,-0.15667 1.28346,-5.07966 1.32846,-8.20466c0.039,-2.72933 -0.51775,-5.55656 -1.36142,-6.81123l-2.33231,-1.03808z" data-paper-data="{&quot;wickUUID&quot;:&quot;99fafc88-56dc-464d-95b3-328c2252a98b&quot;,&quot;wickType&quot;:&quot;path&quot;}" fill="#0000ff" fill-rule="evenodd"/><path d="M400.5066,259.82158c-1.02367,3.53167 -1.55883,6.59761 -1.30516,7.48194c0.67633,2.358 0.04569,5.48201 -1.59731,7.89501c-0.84333,1.239 -1.47365,2.87173 -2.14732,5.48406c-1.146,4.44467 -1.13685,5.19985 -0.13552,7.63485c0.86167,2.09567 3.6364,6.59666 4.07673,6.59666c0.15067,0 1.80065,-1.04536 1.91498,-1.91603c1.48233,-11.317 3.01935,-16.35354 6.57102,-21.53021l1.15414,-2.03017l-1.75109,-1.86451c-1.339,-1.25267 -4.34996,-5.88463 -5.00796,-7.70396c-0.09967,-0.275 -1.74584,-0.13931 -1.77251,-0.04764z" data-paper-data="{&quot;wickUUID&quot;:&quot;b566d7df-5034-47cd-980c-6cb7d4388514&quot;,&quot;wickType&quot;:&quot;path&quot;}" fill="#0000ff" fill-rule="evenodd"/><path d="M390.19476,221.7426c-2.52533,1.16367 -9.81121,3.33233 -14.46288,4.30533c-1.539,0.32167 -3.14515,0.77214 -3.19348,0.80347c-0.04833,0.03133 -0.14935,1.35255 0.15165,2.06788c0.48233,1.14667 0.52364,2.42076 0.35531,11.37976c-0.182,9.68433 -0.62919,15.04824 -1.59052,19.09724c-0.36,1.51633 -0.30641,1.92354 0.48059,2.76521c1.75467,1.87667 2.05146,2.66151 2.04379,6.60184c-0.00867,4.39133 -0.12285,4.87825 -2.97552,7.48525c-3.25767,2.97767 -6.42356,3.65912 -9.70056,2.12645c-1.87533,-0.87733 -3.67454,-2.75124 -4.01454,-4.10591c-0.31467,-1.25433 0.07409,-9.92224 0.50909,-11.39657c0.43267,-1.46567 2.14045,-2.96051 4.24045,-3.88951c1.17233,-0.51867 1.99369,-0.65504 3.49769,-0.51871c2.20467,0.2 2.25,0.07565 3.177,-4.30102c0.403,-1.904 0.58305,-5.41667 0.70538,-14.302l0.15461,-11.7997l-2.40811,-0.75047c-2.85667,-0.01267 -9.61659,-0.46783 -10.44459,-0.70383c-0.682,-0.19467 -1.64361,0.77717 -1.47628,1.3175c1.04933,3.39 1.23352,4.63683 1.23719,8.39783c0.00233,2.25633 -0.0051,4.20377 -0.2031,4.9911c-0.71467,2.83833 -3.13987,5.15945 -10.96054,10.56545c-7.75367,5.36 -15.66503,13.47134 -17.5707,17.97434c-0.96433,2.279 -0.46683,5.03666 2.07684,8.39499c0.86833,1.14633 1.46767,2.35929 1.46767,2.96629c0,0.82 0.59417,1.36816 1.91984,1.95449c1.244,0.55033 2.05827,0.6914 3.42294,0.49473c4.463,-0.64333 7.3161,-0.05268 11.01477,2.36165c2.82767,1.846 4.83723,4.03883 5.74823,6.14283l0.99767,1.70385l3.0475,-0.23832c1.51067,-0.15633 8.20873,-0.23838 14.9084,-0.18271l12.23653,0.09971l1.70213,-1.16388c0.70433,-0.56 1.78157,-1.39963 2.01657,-1.39963c0.683,0 4.18898,-11.71323 3.64565,-12.17923c-0.15267,-0.13067 -1.24867,-1.22202 -2.03934,-1.44702c-1.88467,-0.53633 -3.56996,-1.96577 -4.06229,-3.6091c-0.52867,-1.76467 -0.51018,-5.18313 0.04582,-6.49846c0.568,-1.34367 3.38258,-3.93861 5.20891,-4.87028c0.75833,-0.38667 1.50065,-0.55079 2.06432,-0.55079l1.69018,-0.68287l-0.16094,-4.92025c-0.09567,-2.61233 -0.26667,-10.82498 -0.38,-18.24998c-0.11333,-7.425 -0.30305,-14.19715 -0.42105,-15.03415l-0.92593,-2.32849z" data-paper-data="{&quot;wickUUID&quot;:&quot;ce3f78d4-216b-425e-9a54-f6c0c1665405&quot;,&quot;wickType&quot;:&quot;path&quot;}" fill="#0000ff" fill-rule="evenodd"/><path d="M405.78131,294.53846c-0.27733,0.277 -0.25557,3.44058 0.01876,4.46425c0.26133,0.97533 2.28161,0.74749 3.22428,-0.64384c1.00033,-1.47633 0.93958,-3.22524 -0.12642,-3.71091c-0.97467,-0.44433 -2.80529,-0.42083 -3.11662,-0.1095z" data-paper-data="{&quot;wickUUID&quot;:&quot;2b8db536-5b2d-4418-be4c-68c98f142a37&quot;,&quot;wickType&quot;:&quot;path&quot;}" fill="#ffe6cc" fill-rule="evenodd"/><path d="M398.32893,302.95534c-0.96033,2.22067 -0.14796,5.32918 2.09304,7.99251l2.33653,1.43139l0.64516,-2.90787l0.3996,-2.78247l-1.45698,-1.73775c-0.72033,-0.78167 -1.32426,-1.71509 -1.43826,-2.23009c-0.11367,-0.515 -0.77836,-1.52184 -0.83369,-1.70517c-0.055,-0.18333 -1.43073,1.21145 -1.7454,1.93945z" data-paper-data="{&quot;wickUUID&quot;:&quot;f55a3c1e-dc4d-4a3d-8f8e-be8e33f87abb&quot;,&quot;wickType&quot;:&quot;path&quot;}" fill="#ffe6cc" fill-rule="evenodd"/><path d="M344.21421,308.56037c-0.29033,0.11167 -1.66926,1.44896 -2.86626,2.82396c-2.25467,2.58967 -6.79422,6.85169 -9.83955,9.23769l-1.96406,2.319l3.47798,1.08095c4.32433,0.962 7.02177,0.12728 10.65944,-3.07772c3.491,-3.07633 4.69553,-6.1584 3.1722,-8.6564c-0.353,-0.579 -0.75904,-2.04429 -0.81771,-2.58529c-0.08033,-0.73967 -1.42471,-1.29486 -1.82204,-1.14219z" data-paper-data="{&quot;wickUUID&quot;:&quot;90101a82-e393-43d3-9146-128a6c930922&quot;,&quot;wickType&quot;:&quot;path&quot;}" fill="#ffe6cc" fill-rule="evenodd"/><path d="M340.97661,288.30369c0,0.073 0.38748,2.20203 1.01248,3.8247c1.219,3.16433 2.56592,7.92612 3.22825,11.41145l1.34693,2.77475l1.49542,-2.94278c0.89267,-2.61867 2.10487,-7.90078 2.10487,-8.91011c0,-1.012 -3.07919,-4.2519 -5.28386,-5.42723c-1.788,-0.95267 -3.90409,-1.08045 -3.90409,-0.73078z" data-paper-data="{&quot;wickUUID&quot;:&quot;f1da4c85-adc8-4e8c-b4e8-df2c10a51186&quot;,&quot;wickType&quot;:&quot;path&quot;}" fill="#ffe6cc" fill-rule="evenodd"/><path d="M356.01756,129.16815c-3.73667,0.335 -11.73888,1.99537 -15.71588,3.24904c-3.81767,1.20333 -6.50441,3.14742 -12.24574,8.91875c-5.27133,5.29867 -7.32327,7.84439 -9.7106,12.05739c-1.67967,2.96433 -1.95911,4.33481 -0.88711,4.87481c0.44367,0.22367 0.9455,0.67138 1.11383,0.97171c0.347,0.62033 0.50665,4.88452 0.73565,19.67285c0.18633,12.03267 0.47731,13.67163 2.91564,18.66396c3.072,6.28933 7.67452,11.44273 14.09252,15.7344c5.78033,3.865 15.68503,8.32331 17.6547,7.92931c0.697,-0.13933 1.6366,0.0753 2.5756,0.56463c1.94733,1.015 8.02572,1.8338 11.55072,1.58013c5.07267,-0.36467 13.74881,-2.68167 19.05314,-5.092c3.172,-1.44133 8.01486,-4.49062 11.23319,-7.08229c4.09,-3.29333 10.43072,-10.13383 11.53905,-12.3525c2.11533,-4.234 2.00001,-9.8229 -0.58266,-22.54457c-2.3,-11.331 -4.77431,-19.59222 -6.35031,-21.16822c-0.42267,-0.42267 -1.8563,-2.90441 -3.09963,-5.33241c-2.26767,-4.42867 -4.60675,-8.31964 -6.00442,-9.98864l-2.24236,-0.80202l-0.18669,2.93518c-0.157,2.99133 0.95457,3.03932 -0.51243,3.04932c-1.897,0.01267 -3.022,-2.6641 -3.37233,-7.62443c-0.11,-1.55833 -0.64529,-3.56401 -0.78262,-3.93734c-0.53167,-1.44433 -5.65719,-3.28602 -11.00686,-3.94769c-4.013,-0.49633 -15.71973,-0.69237 -19.7644,-0.32937zM384.72348,148.00017c0.41133,0.37233 0.09582,0.17132 0.09582,1.14265c0,1.237 0.41556,0.77715 -0.37177,1.17282c-0.86433,0.434 -3.43745,0.88415 -7.59445,1.35682c-3.36467,0.38267 -13.41922,2.12782 -20.83422,3.61649c-4.03333,0.80967 -8.73623,1.66813 -10.45423,1.90846l-2.87505,0.43134l-0.06093,-0.23145c-1.05433,-1.22567 -1.54972,-2.45206 -0.53805,-2.99339c0.88133,-0.47167 5.32568,-1.53 14.06168,-3.39933c13.94433,-2.984 16.69157,-3.38326 23.74057,-3.44893c3.89133,-0.03633 4.31963,-0.01815 4.83063,0.44452zM395.52307,151.2948c3.01033,1.909 3.4539,3.17216 3.4699,8.28116c0.01067,3.31067 0.19852,2.81115 -0.55415,3.61382c-1.11633,1.19033 -1.03051,1.24788 -2.31818,-0.09012c-2.05733,-2.13867 -3.54895,-6.11439 -3.69728,-10.02172c-0.12733,-3.35867 0.18238,-3.63314 3.09971,-1.78314zM380.67698,154.23939c1.56333,0.79767 2.47899,2.41412 3.66399,6.47245c1.218,4.17067 1.22892,6.07852 0.00492,8.32752c-1.08933,2.001 -1.98028,3.11363 -2.96928,3.11363c-1.80533,0 -3.34116,-1.62906 -3.96083,-3.93039c-0.232,-0.861 -0.25758,-2.85667 -0.17791,-5.94334c0.137,-5.335 0.32952,-6.19005 2.01452,-8.00805c0.94333,-1.01767 -0.18874,-0.85482 1.42459,-0.03182zM400.67156,202.74538c1.188,0.93433 1.02909,0.68508 -0.29758,2.09441c-1.42267,1.512 -12.98726,8.43053 -14.15526,8.47053c-0.494,0.01733 -0.0367,0.44294 -0.48137,0.15161c-1.66067,-1.088 -1.43823,-2.71421 0.76144,-4.44654c1.36233,-1.073 7.0718,-4.81222 9.3308,-6.11922c1.76967,-1.02367 3.60064,-1.12746 4.84197,-0.15079z" data-paper-data="{&quot;wickUUID&quot;:&quot;a2f88c65-1c52-439e-a4b6-0b753898f3a3&quot;,&quot;wickType&quot;:&quot;path&quot;}" fill="#ffe6cc" fill-rule="evenodd"/><path d="M353.71829,56.8744c-1.83567,0.89767 -4.57122,2.40523 -6.02022,3.31756c-1.44867,0.912 -5.5057,3.47375 -8.87737,5.59342c-9.90333,6.22633 -13.42481,9.66653 -16.53748,15.9652c-2.77467,5.61567 -20.04875,48.1824 -22.10675,54.47907c-1.38433,4.236 -1.45185,7.33976 -0.24652,12.53543c1.47433,6.35233 3.20516,9.88023 6.85549,13.85423l2.5089,2.65915l1.13086,-1.79018c0.05633,-4.99267 3.7796,-12.70422 9.5866,-19.81089c3.92433,-4.80233 12.20119,-12.64941 14.69286,-13.90574c2.79433,-1.40867 16.01727,-4.18208 23.51127,-4.94475c7.303,-0.74333 19.71912,0.30884 25.53045,2.15417l2.94621,0.68252l0.62685,-2.79751c0.333,-3.77033 1.00015,-7.12559 1.81748,-8.71859c0.977,-1.904 1.5476,-2.03934 4.4586,-1.79334c2.66867,0.22533 3.10895,0.13966 3.75228,1.12166c1.25033,1.90833 0.46227,2.51182 -2.33506,2.95382c-0.95333,0.15067 -2.19818,0.82717 -2.53318,1.16217c-0.77467,0.77467 -1.32463,4.00939 -1.32696,7.95206c-0.002,2.92067 0.17058,3.58826 0.96858,4.11126c1.924,1.26033 7.76882,9.1752 9.85282,13.3392c0.45833,0.91567 0.99653,1.86804 1.0412,1.94337c0.04467,0.075 1.33961,-0.00044 1.66161,-0.29011c1.02133,-0.919 10.06135,-6.20493 13.18035,-7.70493c3.612,-1.73733 5.04362,-2.13528 8.84695,-2.49195c4.16967,-0.39133 4.41352,-2.27398 2.17452,-3.55765c-5.36833,-3.07867 -16.40579,-5.20668 -25.98346,-5.00468c-5.096,0.10767 -4.45607,0.76262 -5.1114,-0.04405c-1.35267,-1.66467 -0.07422,-2.96716 4.13011,-5.23016c1.42133,-0.765 3.45197,-2.06229 4.8083,-3.08662c11.056,-8.352 25.23871,-14.56493 44.56238,-19.51726c6.21167,-1.592 10.69951,-2.50515 24.49051,-5.02082c12.69433,-2.31567 13.57219,-2.71792 13.57219,-3.11992c0,-0.427 -4.65355,-3.53616 -8.76355,-4.84883c-5.24433,-1.675 -13.27374,-3.87391 -27.87774,-7.63358l-12.44292,-3.19878l-15.74075,-1.01688c-28.75233,-1.85233 -44.81658,-2.46452 -60.25125,-2.29585c-8.543,0.09333 -9.26522,0.46894 -9.53789,0.03861c-0.82867,-1.308 -0.12234,-4.01324 2.57066,-12.72291c0.64833,-2.09767 0.90379,-4.63011 0.84679,-4.68711c-0.05667,-0.057 -2.59665,0.47252 -4.43232,1.37019z" data-paper-data="{&quot;wickUUID&quot;:&quot;06e86f41-1865-4aaf-80c7-3a442a7d50ae&quot;,&quot;wickType&quot;:&quot;path&quot;}" fill="#0080ff" fill-rule="evenodd"/><path d="M346.98381,126.00993c11.164,-2.216 17.724,-2.515 27.936,-1.275c8.472,1.03 12.429,2.451 16.997,6.104c3.884,3.107 9.185,10.539 11.684,16.383c0.942,2.202 2.409,4.761 3.259,5.687c2.137,2.328 4.508,10.532 7.182,24.849c3.894,20.847 2.439,24.806 -13.892,37.814c-8.882,7.075 -8.775,7.02 -19.82,10.121c-5.39437,1.5147 -9.98529,2.36233 -14.36041,2.49124c-0.37008,-0.72983 -0.85907,-1.2399 -1.47062,-1.56713c-3.009,-1.61 -3.169,-1.591 -5.405,0.645c-0.13399,0.13388 -0.26052,0.28461 -0.37972,0.45264c-4.90158,-0.78652 -9.94944,-2.53658 -16.00325,-5.32575c-12.779,-5.887 -21.486,-14.079 -25.151,-23.663c-2.592,-6.779 -3.191,-10.419 -3.232,-19.626c-0.034,-7.771 -0.175,-8.45 -2.141,-10.271c-5.433,-5.035 -0.207,-18.225 12.183,-30.752c3.948,-3.991 8.442,-7.9 9.987,-8.688c1.546,-0.787 7.228,-2.308 12.627,-3.379zM351.32881,130.32293c-13.449,2.711 -14.556,3.217 -21.61,9.873c-3.624,3.42 -7.802,8.247 -9.284,10.728c-3.729,6.242 -4.031,7.254 -2.266,7.594c1.342,0.258 1.485,1.746 1.569,16.277c0.085,14.643 0.256,16.384 2.022,20.623c4.306,10.338 12.408,17.647 25.926,23.39c12.451,5.29 19.909,5.543 33.779,1.145c8.645,-2.741 16.368,-7.937 24.363,-16.391c5.694,-6.02 6.263,-9.894 3.585,-24.412c-2.057,-11.15 -5.432,-22.908 -6.823,-23.768c-0.481,-0.297 -1.996,-2.869 -3.367,-5.715c-5.287,-10.976 -11.736,-17.371 -19.107,-18.947c-7.318,-1.565 -21.99,-1.768 -28.787,-0.397z" data-paper-data="{&quot;wickUUID&quot;:&quot;92bd37f7-364d-4888-a720-98a9f16358b5&quot;,&quot;wickType&quot;:&quot;path&quot;}" fill="#000000" fill-rule="nonzero"/><path d="M353.23754,51.83186c-2.885,1.072 -6.484,2.871 -7.997,3.999c-1.512,1.128 -6.159,4.187 -10.326,6.798c-13.998,8.774 -13.832,8.514 -27.871,43.594c-8.143,20.347 -12.406,32.094 -12.665,34.892c-0.543,5.88 2.895,17.844 6.343,22.073c4.067,4.986 14.639,13.695 16.637,13.704c0.992,0.004 2.055,-0.649 2.363,-1.451c0.414,-1.078 -0.604,-2.435 -3.908,-5.206c-11.738,-9.847 -13.623,-12.701 -15.892,-24.06c-1.209,-6.047 -1.623,-4.755 13.485,-42.087c9.383,-23.186 10.544,-25.583 14.18,-29.29c2.179,-2.22 5.665,-5.025 7.749,-6.232c2.083,-1.207 6.602,-4.072 10.042,-6.365c5.003,-3.336 12.686,-7.131 12.685,-6.266c0,0.095 -0.941,3.203 -2.092,6.907c-2.333,7.511 -2.629,10.469 -1.065,10.631c0.579,0.06 8.06,0.038 16.625,-0.048c8.565,-0.086 27.504,0.613 42.088,1.555l26.515,1.711l19.36,4.989c18.281,4.712 27.663,7.706 29.373,9.374c0.924,0.903 0.724,0.95 -19.734,4.599c-27.634,4.929 -49.446,13.026 -62.11,23.056c-1.729,1.369 -4.546,3.158 -6.262,3.976c-5.621,2.681 -5.213,6.737 0.59,5.867c7.716,-1.157 23.574,1.883 28.259,5.417c1.853,1.397 1.79,1.434 -3.379,1.974c-5.237,0.547 -7.635,1.599 -18.698,8.197c-3.601,2.148 -4.828,3.364 -4.841,4.798c-0.028,3.267 2.256,3.057 8.46,-0.776c9.993,-6.176 11.62,-6.834 17.935,-7.264c6.833,-0.465 8.101,-1.151 8.101,-4.383c0,-4.537 -6.469,-9.086 -16.178,-11.374c-2.908,-0.686 -6.518,-1.253 -8.023,-1.259c-3.589,-0.017 -3.454,-0.997 0.497,-3.612c13.221,-8.749 32.632,-15.696 54.5,-19.505c19.772,-3.443 26.751,-4.836 28.337,-5.655c1.808,-0.935 1.889,-3.1 0.206,-5.503c-1.97,-2.813 -16.558,-8.042 -37.033,-13.276l-18.518,-4.733l-24.832,-1.622c-13.658,-0.893 -31.914,-1.632 -40.569,-1.643l-15.738,-0.019l1.29,-4.42c0.709,-2.43 2.066,-5.999 3.016,-7.929c0.95,-1.931 1.498,-4.109 1.217,-4.84c-0.738,-1.924 -5.843,-1.626 -12.122,0.707z" data-paper-data="{&quot;wickUUID&quot;:&quot;3d9eee51-edef-4d0f-89d0-80fd57bcfba2&quot;,&quot;wickType&quot;:&quot;path&quot;}" fill="#000000" fill-rule="evenodd"/><path d="M395.52088,202.44796c-0.926,0.6 -3.862,2.488 -6.524,4.194c-3.272,2.098 -4.84,3.654 -4.84,4.804c0,2.1 2.286,3.093 4.113,1.787c0.747,-0.535 4.112,-2.584 7.477,-4.554c4.71,-2.757 6.066,-3.969 5.892,-5.265c-0.274,-2.036 -3.645,-2.569 -6.118,-0.966z" data-paper-data="{&quot;wickUUID&quot;:&quot;31397162-122d-40f8-b371-20d12a1c6e02&quot;,&quot;wickType&quot;:&quot;path&quot;}" fill="#000000" fill-rule="evenodd"/><path d="M369.42659,147.84621c-7.204,1.169 -26.52,5.401 -27.568,6.04c-1.158,0.707 -0.649,3.466 0.737,3.998c0.753,0.288 6.719,-0.623 13.258,-2.027c6.539,-1.403 15.866,-3.035 20.728,-3.627c8.533,-1.039 8.838,-1.148 8.838,-3.145c0,-1.93 -0.31,-2.077 -4.63,-2.2c-2.546,-0.073 -7.66,0.36 -11.363,0.961z" data-paper-data="{&quot;wickUUID&quot;:&quot;d2af1dc9-94aa-452e-8f09-dfcdb56c5342&quot;,&quot;wickType&quot;:&quot;path&quot;}" fill="#000000" fill-rule="evenodd"/><path d="M389.69388,114.39892c-2.091,2.078 -3.009,6.931 -2.964,15.676c0.054,10.668 1.179,15.259 3.74,15.259c1.611,0 1.67,-0.459 1.376,-10.592c-0.4,-13.738 0.059,-15.923 3.347,-15.923c2.81,0 4.012,-1.885 2.423,-3.799c-1.074,-1.294 -6.793,-1.742 -7.922,-0.621z" data-paper-data="{&quot;wickUUID&quot;:&quot;53061fd1-8306-458a-b85b-49d657ee5dd7&quot;,&quot;wickType&quot;:&quot;path&quot;}" fill="#000000" fill-rule="evenodd"/><path d="M377.89112,155.20068c-0.894,1.277 -1.31,3.815 -1.31,7.997c0,5.003 0.308,6.434 1.684,7.809c0.925,0.926 2.224,1.684 2.885,1.684c1.801,0 4.69,-4.124 4.69,-6.695c0,-3.857 -2.496,-10.907 -4.181,-11.809c-2.161,-1.157 -2.267,-1.128 -3.768,1.014z" data-paper-data="{&quot;wickUUID&quot;:&quot;fe2dea29-5055-453f-a660-0d8960b7c733&quot;,&quot;wickType&quot;:&quot;path&quot;}" fill="#000000" fill-rule="evenodd"/><path d="M392.11664,150.86521c-0.9,1.456 0.37,7.767 2.153,10.699c3.098,5.095 6.12,2.873 5.316,-3.909c-0.391,-3.302 -1.041,-4.803 -2.616,-6.043c-2.341,-1.841 -4.018,-2.099 -4.853,-0.747z" data-paper-data="{&quot;wickUUID&quot;:&quot;24a23719-c3ba-443f-bee1-78207f0ed934&quot;,&quot;wickType&quot;:&quot;path&quot;}" fill="#000000" fill-rule="evenodd"/><path d="M347.6798,285.13809c2.296,1.415 4.781,3.823 5.701,5.526c1.625,3.008 1.624,3.046 -0.247,10.073c-1.033,3.88 -1.833,7.812 -1.778,8.738c0.628,10.634 0.022,12.079 -7.123,17.003c-4.612,3.178 -6.943,3.402 -15.28,1.469c-4.696,-1.089 -6.325,-1.135 -9.691,-0.273c-3.266,0.837 -4.694,0.823 -7.412,-0.074c-5.398,-1.781 -7.494,-4.612 -7.811,-10.549c-0.261,-4.895 -0.204,-5.051 1.829,-5.051c1.837,0 2.21,0.523 2.987,4.185c0.713,3.362 1.418,4.495 3.588,5.763c2.236,1.305 3.156,1.418 5.347,0.655c3.614,-1.26 6.573,-1.16 12.931,0.437c6.532,1.64 8.236,1.288 12.844,-2.657c3.746,-3.206 4.46,-5.694 2.524,-8.794c-0.841,-1.347 -0.743,-2.391 0.537,-5.671c0.863,-2.21 1.979,-5.859 2.479,-8.109c0.893,-4.011 0.859,-4.136 -1.767,-6.482c-3.861,-3.45 -8.51,-4.448 -17.467,-3.749c-8.06343,0.62874 -9.43594,0.97272 -13.67057,4.95632c1.59065,-3.63966 4.32596,-6.29326 7.58572,-7.11205c1.8036,-0.45223 3.002,-1.47896 3.47627,-2.80854c1.69879,-0.1008 3.70892,-0.16629 5.66986,-0.1842c2.16093,0.93461 4.42176,0.99574 6.04336,0.1125c4.25531,0.20903 5.66351,0.7211 8.70436,2.59597z" data-paper-data="{&quot;wickUUID&quot;:&quot;aff238aa-f5a6-4d90-b84b-b0224294bb90&quot;,&quot;wickType&quot;:&quot;path&quot;}" fill="#000000" fill-rule="evenodd"/><path d="M341.85333,290.28859c2.422,5.726 4.819,15.683 4.178,17.353c-0.298,0.777 -1.13,1.413 -1.849,1.413c-1.444,0 -2.104,-1.37 -4.26,-8.839c-2.075,-7.186 -4.149,-10.942 -7.531,-13.641c-2.773,-2.212 -3.666,-4.3 -2.387,-5.579c0.08707,-0.08703 0.18149,-0.16224 0.28272,-0.22607c1.91932,1.64466 4.24294,2.46593 6.25782,2.39541c2.12146,1.84647 4.17515,4.44394 5.30846,7.12366z" data-paper-data="{&quot;wickUUID&quot;:&quot;c506513a-87cb-4b50-9644-b1387aceeded&quot;,&quot;wickType&quot;:&quot;path&quot;}" fill="#000000" fill-rule="evenodd"/><path d="M336.63906,309.98759c-2.755,2.858 -6.998,6.468 -9.429,8.023c-3.926,2.512 -5.072,2.828 -10.25,2.828c-6.44,0 -8.897,1.354 -6.877,3.788c0.774,0.933 2.836,1.263 7.9,1.263c6.5,0 7.09,-0.16 11.447,-3.095c6.108,-4.113 16.169,-14.372 15.832,-16.142c-0.581,-3.054 -3.583,-1.893 -8.623,3.335z" data-paper-data="{&quot;wickUUID&quot;:&quot;8519d2f0-9359-46e0-af6d-d88b2a618ecf&quot;,&quot;wickType&quot;:&quot;path&quot;}" fill="#000000" fill-rule="evenodd"/><path d="M352.30454,222.42603c2.06396,1.10406 4.07292,5.51322 5.00879,10.60621c-0.0728,0.94692 -0.10855,2.00519 -0.10855,3.1808c0,6.824 -0.166,7.194 -4.946,11.037c-1.71746,1.38041 -4.04766,3.30265 -6.158,5.07341c-0.65738,-0.02818 -1.35287,-0.00905 -2.07882,0.05888c-0.4782,-1.09005 0.65826,-2.3881 4.47658,-6.1153l4.745,-4.633l-0.533,-5.099c-0.672,-6.429 -2.165,-9.623 -4.364,-9.338c-9.328,1.211 -9.975,1.428 -14.776,4.963c-2.735,2.013 -6.661,4.712 -8.725,5.996c-5.821,3.623 -21.239,19.099 -23.528,23.616c-2.767,5.46 -5.544,14.184 -5.544,17.413c0,2.546 3.678,15.961 6.54,23.851c0.771,2.126 2.12,4.023 3.215,4.522c3.06,1.394 3.362,5.705 0.4,5.705c-0.819,0 -2.726,-0.852 -4.238,-1.894c-2.771,-1.909 -4.17,-4.738 -6.344,-12.837c-0.621,-2.315 -1.916,-6.859 -2.877,-10.098c-0.961,-3.239 -1.747,-7.452 -1.747,-9.362c0,-3.798 3.193,-14.391 5.992,-19.876c2.625,-5.146 17.866,-20.416 25.574,-25.623c3.703,-2.502 8.574,-5.86 10.824,-7.463c2.419,-1.724 5.17,-2.949 6.734,-2.998c1.454,-0.047 3.591,-0.388 4.748,-0.758c3.086,-0.988 5.776,-0.963 7.71,0.072z" data-paper-data="{&quot;wickUUID&quot;:&quot;e3892cf9-db8f-4ccd-969a-ec2b848505ed&quot;,&quot;wickType&quot;:&quot;path&quot;}" fill="#000000" fill-rule="evenodd"/><path d="M332.66228,282.30813c-1.73385,-0.81187 -3.38279,-2.18918 -4.5599,-4.09483c-1.39556,-2.25939 -2.00043,-4.02511 -1.67836,-6.4184c-0.02158,0.03 -0.04182,0.05898 -0.0607,0.08691c-0.88666,1.31263 -1.10873,3.25802 -0.86205,5.25363c0.50648,0.35798 0.92846,0.84919 1.26268,1.47392c0.74177,1.38556 0.90068,2.72528 0.54695,3.85879c0.9494,1.54358 2.17403,2.59566 3.48542,2.59566c1.30058,0 1.9672,-1.22991 1.86596,-2.75568z" data-paper-data="{&quot;wickUUID&quot;:&quot;482a8900-df35-4c8d-9826-7b3b4edd58e6&quot;,&quot;wickType&quot;:&quot;path&quot;}" fill="#000000" fill-rule="nonzero"/><path d="M326.44182,282.06432c-2.471,-2.395 -2.891,-3.366 -2.891,-6.688c0,-3.2388 1.23935,-5.66151 4.01581,-7.64577c-1.86591,4.85749 -1.53828,7.12495 0.53575,10.48275c1.03002,1.66751 2.42131,2.93048 3.91463,3.76405c0.40153,2.60181 -2.22281,3.33654 -5.57519,0.08697z" data-paper-data="{&quot;wickUUID&quot;:&quot;0caf22a6-cac6-46a9-8efa-58082df5fb5a&quot;,&quot;wickType&quot;:&quot;path&quot;}" fill="#000000" fill-rule="nonzero"/><path d="M353.57283,221.23128c-0.941,0.941 -0.625,4.232 0.491,5.12c0.579,0.461 3.738,1.092 7.021,1.404c4.827,0.458 6.173,0.32 7.039,-0.723c1.927,-2.322 0.41,-3.674 -4.748,-4.232c-2.691,-0.291 -5.55,-0.889 -6.354,-1.329c-1.722,-0.944 -2.678,-1.01 -3.449,-0.24z" data-paper-data="{&quot;wickUUID&quot;:&quot;f95ca8d5-4841-4f7e-bcc4-8cbb6d548158&quot;,&quot;wickType&quot;:&quot;path&quot;}" fill="#000000" fill-rule="evenodd"/><path d="M352.43007,235.18828c-0.374,0.578 -1.077,2.565 -1.562,4.416c-0.705,2.693 -1.798,4 -5.471,6.542c-7.044,4.876 -17.516,14.741 -20.224,19.053c-3.461,5.51 -3.383,10.366 0.241,15.082c2.843,3.699 3.884,4.17 5.544,2.51c1.499,-1.498 1.245,-2.79 -1.094,-5.57c-1.158,-1.376 -2.104,-3.414 -2.104,-4.53c0,-5.001 9.329,-14.8 22.421,-23.548c5.153,-3.444 5.166,-3.463 5.725,-8.397c0.307,-2.721 0.328,-5.32 0.045,-5.777c-0.717,-1.161 -2.706,-1.037 -3.521,0.219z" data-paper-data="{&quot;wickUUID&quot;:&quot;2f49ce05-f5f4-4298-a71d-e910def939d1&quot;,&quot;wickType&quot;:&quot;path&quot;}" fill="#000000" fill-rule="evenodd"/><path d="M399.65459,217.72403c0.504,1.389 1.957,4.262 3.23,6.384c3.153,5.261 3.793,11.97 1.922,20.157c-1.862,8.149 -5.921,25.393 -8.118,34.486c-1.64097,6.79341 -4.06727,14.22634 -5.86431,18.20336c-0.37534,-0.11173 -0.76026,-0.2221 -1.15472,-0.33104c-1.54875,-0.42781 -2.84339,-0.79092 -3.93288,-1.09149c0.18415,-0.35289 0.35148,-0.62442 0.49091,-0.78783c1.614,-1.89 4.178,-10.434 8.333,-27.777c7.226,-30.162 7.728,-35.416 3.875,-40.627c-2.757,-3.728 -4.385,-9.035 -3.207,-10.454c1.48,-1.784 3.402,-0.986 4.426,1.838z" data-paper-data="{&quot;wickUUID&quot;:&quot;e8b398a7-ca30-4371-a50f-163e117eafd1&quot;,&quot;wickType&quot;:&quot;path&quot;}" fill="#000000" fill-rule="nonzero"/><path d="M293.24825,352.12588c5.788,-1.596 13.197,-1.151 17.494,1.051c4.423,2.267 10.698,8.408 13.833,13.537c1.47873,2.41875 3.38135,9.34222 4.30918,14.92636c-1.40392,0.27666 -3.05513,0.56732 -4.81081,0.84498c-0.57333,-4.13483 -1.85103,-9.87394 -2.61937,-11.21834c-2.559,-4.481 -7.996,-10.393 -11.594,-12.607c-2.34,-1.439 -5.425,-2.744 -6.856,-2.9c-3.172,-0.344 -10.649,1.175 -18.741,3.808c-10.107,3.289 -20.018,13.309 -23.483,23.741c-0.85244,2.5678 -1.10975,3.68513 -0.77364,5.36938c-2.16042,-0.37418 -3.92153,-0.77701 -5.20615,-1.20219c0.01555,-2.89654 1.14062,-5.91314 3.65179,-11.26319c2.609,-5.561 4.29,-7.777 9.663,-12.745c6.888,-6.367 6.559,-6.219 25.133,-11.342z" data-paper-data="{&quot;wickUUID&quot;:&quot;ca156fe3-fead-420b-8e89-1430588d0c3f&quot;,&quot;wickType&quot;:&quot;path&quot;}" fill="#000000" fill-rule="nonzero"/><path d="M257.73975,332.38564c-3.282,2.036 -4.468,4.864 -4.472,10.657l-0.003,5.126l4.997,1.333c3.301,0.88 6.23,2.405 8.628,4.491c4.092,3.56 4.383,4.332 1.881,4.986c-1.258,0.329 -1.673,1.008 -1.473,2.413c0.242,1.713 0.743,1.955 4.043,1.955c3.276,0 3.912,0.302 4.886,2.315c1.013,2.095 1.545,2.315 5.6,2.315c3.026,0 4.834,0.425 5.567,1.309c3.317,3.996 6.931,3.328 6.539,-1.209c-0.235,-2.71 -0.032,-3.071 1.84,-3.273c6.823,-0.736 7.576,-1.06 7.576,-3.257c0,-1.414 -0.556,-2.29 -1.631,-2.571c-1.351,-0.354 -1.495,-0.782 -0.841,-2.502c1.609,-4.232 0.937,-8.374 -1.983,-12.211c-3.936,-5.175 -6.827,-5.337 -11.891,-0.669l-3.792,3.495l-0.979,-3.887c-1.154,-4.581 -6.717,-10.047 -11.608,-11.406c-4.537,-1.26 -10.329,-0.995 -12.884,0.59zM271.13975,337.76964c2.022,0.979 4.203,2.589 4.845,3.578c1.552,2.386 2.438,9.703 1.482,12.233c-0.757,2.005 -0.793,1.99 -5.499,-2.272c-3.074,-2.784 -6.007,-4.615 -8.353,-5.216c-6.112,-1.566 -5.979,-1.45 -5.446,-4.736c0.27,-1.661 1.171,-3.536 2.002,-4.167c2.222,-1.685 6.789,-1.444 10.969,0.58zM296.61475,351.54064c0,3.279 -0.893,4.644 -4.102,6.27c-3.854,1.953 -10.208,3.092 -10.208,1.831c0,-1.495 7.356,-12.499 8.999,-13.461c1.224,-0.717 1.895,-0.474 3.417,1.24c1.042,1.172 1.894,3.026 1.894,4.12z" data-paper-data="{&quot;wickUUID&quot;:&quot;99c44b2e-e07a-4a72-ad99-2aac814d3110&quot;,&quot;wickType&quot;:&quot;path&quot;}" fill="#000000" fill-rule="evenodd"/><path d="M322.41675,378.65142c-1.601,1.6 -14.564,4.263 -29.288,6.014c-4,0.476 -8.735,1.294 -10.522,1.818c-1.841,0.54 -7.258,0.84 -12.507,0.693c-9.246,-0.26 -9.259,-0.263 -9.259,-2.365c0,-1.745 -0.453,-2.148 -2.655,-2.362c-3.732,-0.362 -5.342,2.196 -5.342,8.489c0,4.457 0.251,5.14 2.709,7.385c1.49,1.361 3.97,2.711 5.511,3c3.438,0.645 23.03,-1.028 30.501,-2.605c25.028,-5.281 32.584,-7.781 34.533,-11.422c0.503,-0.939 0.798,-3.303 0.656,-5.253c-0.204,-2.823 -0.606,-3.595 -1.975,-3.791c-0.945,-0.135 -2.008,0.044 -2.362,0.399zM321.02575,384.60942c0,2.899 -26.783,9.207 -47.254,11.129c-9.411,0.884 -10.94,0.843 -13.258,-0.356c-5.193,-2.685 -3.339,-3.437 7.672,-3.111c7.159,0.212 12.218,-0.097 16.624,-1.017c5.923,-1.235 12.526,-2.35 23.59,-3.981c2.546,-0.376 6.334,-1.248 8.417,-1.937c2.083,-0.69 3.883,-1.279 3.998,-1.31c0.116,-0.031 0.211,0.231 0.211,0.583z" data-paper-data="{&quot;wickUUID&quot;:&quot;946281e7-6137-410c-838b-f824224eecc3&quot;,&quot;wickType&quot;:&quot;path&quot;}" fill="#000000" fill-rule="evenodd"/><path d="M334.40525,329.04614c-0.489,1.273 -1.411,7.617 -2.05,14.099c-0.639,6.481 -1.549,14.625 -2.023,18.098c-0.995,7.291 -4.617,19.117 -6.489,21.185c-1.724,1.905 -1.12,4.427 1.136,4.75c2.576,0.368 4.065,-2.278 7.329,-13.022c2.062,-6.786 3.148,-12.794 4.235,-23.435c0.805,-7.871 1.811,-16.141 2.238,-18.379c0.875,-4.59 0.541,-5.611 -1.833,-5.611c-1.028,0 -1.991,0.876 -2.543,2.315z" data-paper-data="{&quot;wickUUID&quot;:&quot;5145c560-c958-4dde-bccc-7f09115b6c47&quot;,&quot;wickType&quot;:&quot;path&quot;}" fill="#000000" fill-rule="evenodd"/><path d="M305.2948,328.20363c-2.047,4.842 -4.748,16.976 -4.824,21.675c-0.06,3.729 0.145,4.239 1.796,4.474c1.384,0.197 1.963,-0.236 2.248,-1.683c1.307,-6.641 4.341,-19.283 5.294,-22.059c1.982,-5.771 -2.158,-7.978 -4.514,-2.407z" data-paper-data="{&quot;wickUUID&quot;:&quot;845ac9e2-7aff-4ab6-87b0-1134831b57b1&quot;,&quot;wickType&quot;:&quot;path&quot;}" fill="#000000" fill-rule="evenodd"/><path d="M385.78905,291.8606c-1.01,1.216 -2.418,1.34 -10.449,0.915c-5.104,-0.269 -12.69,-0.221 -16.857,0.108c-7.36,0.581 -7.575,0.658 -7.575,2.703v2.104h18.22c16.866,0 18.354,-0.122 20.028,-1.637c0.996,-0.902 1.698,-2.414 1.561,-3.367c-0.313,-2.194 -3.368,-2.706 -4.928,-0.826z" data-paper-data="{&quot;wickUUID&quot;:&quot;0756d0ed-9656-4f5d-8340-fdf47c5b1be0&quot;,&quot;wickType&quot;:&quot;path&quot;}" fill="#000000" fill-rule="evenodd"/><path d="M396.5431,342.98013c-6.657,2.327 -10.269,5.441 -15.322,13.212c-4.068,6.255 -8.007,17.296 -8.007,22.442c0,5.226 5.073,10.144 13.711,13.295l6.49,2.367l17.467,-0.462c9.607,-0.255 18.792,-0.869 20.413,-1.366c1.62,-0.498 4.564,-2.329 6.541,-4.07c3.112,-2.741 3.717,-3.843 4.506,-8.216c0.502,-2.778 0.759,-8.301 0.572,-12.274c-0.398,-8.471 -2.767,-14.226 -8.171,-19.848c-4.532,-4.715 -9.614,-6.237 -22.388,-6.705c-9.031,-0.331 -10.706,-0.159 -15.812,1.625zM422.2141,347.24913c6.344,1.493 8.474,3.003 12.245,8.686l3.149,4.744v10.316c0,9.695 -0.12,10.443 -1.996,12.439c-4.101,4.365 -6.821,4.974 -24.152,5.409c-13.739,0.345 -16.751,0.19 -20.643,-1.062c-6.197,-1.993 -10.391,-4.834 -11.661,-7.899c-0.93,-2.247 -0.778,-3.401 1.251,-9.496c4.163,-12.498 11,-20.928 18.691,-23.044c5.293,-1.457 17.12,-1.504 23.116,-0.093z" data-paper-data="{&quot;wickUUID&quot;:&quot;3fd4f9f6-0ad5-4ca0-ae30-b78c2808ebae&quot;,&quot;wickType&quot;:&quot;path&quot;}" fill="#000000" fill-rule="evenodd"/><path d="M373.51412,378.50919c-0.597,1.556 0.92,3.494 3.968,5.071c1.276,0.66 7.377,1.588 13.809,2.102c13.704,1.094 22.497,0.444 44.633,-3.3c2.865,-0.485 3.367,-0.88 3.367,-2.648c0,-2.353 -0.448,-2.395 -9.68,-0.896c-16.138,2.621 -26.954,3.356 -37.186,2.527c-7.669,-0.621 -10.968,-1.253 -12.955,-2.481c-3.194,-1.974 -5.291,-2.106 -5.956,-0.375z" data-paper-data="{&quot;wickUUID&quot;:&quot;4faede0f-29a0-4f75-8c1d-41f5137fbc50&quot;,&quot;wickType&quot;:&quot;path&quot;}" fill="#000000" fill-rule="evenodd"/><path d="M397.92414,327.96289c-2.445,1.713 -3.517,10.634 -1.623,13.523c1.558,2.378 1.084,6.051 -1.42,10.999c-0.96,1.896 -1.504,4.074 -1.211,4.84c0.723,1.882 3.647,1.756 6.22,-0.267c1.858,-1.462 2.259,-1.512 3.35,-0.421c2.101,2.101 2.346,1.965 6.894,-3.812c1.637,-2.08 1.801,-2.104 14.526,-2.104h12.87l1.22,-2.163c1.605,-2.843 0.783,-5.883 -2.469,-9.136c-2.376,-2.376 -3.055,-2.59 -8.208,-2.587c-4.056,0.002 -6.354,0.453 -8.271,1.622l-2.654,1.618l-2.817,-4.73c-4.182,-7.02 -11.94,-10.511 -16.407,-7.382zM404.72614,332.96789c1.804,0.753 3.635,2.545 5.024,4.914c2.794,4.768 2.748,5.684 -0.286,5.684c-6.01,0 -9.584,-3.576 -8.744,-8.75c0.567,-3.498 0.325,-3.387 4.006,-1.848zM433.37614,343.77589c1.265,1.794 1.234,1.91 -0.577,2.19c-2.222,0.344 -10.763,-1.556 -10.763,-2.394c0,-1.281 1.346,-1.689 5.563,-1.689c3.65,0 4.68,0.337 5.777,1.893z" data-paper-data="{&quot;wickUUID&quot;:&quot;479269fc-06a2-46dd-a88f-a5abdac717d4&quot;,&quot;wickType&quot;:&quot;path&quot;}" fill="#000000" fill-rule="evenodd"/><path d="M349.2996,311.26487c-1.004,2.617 1.098,3.682 7.267,3.682c5.537,0 6.034,0.161 8.685,2.812c1.547,1.547 3.001,3.725 3.23,4.84c0.229,1.115 1.203,5.626 2.163,10.024c2.572,11.78 3.376,18.685 3.395,29.148c0.017,9.738 0.832,12.092 3.793,10.956c1.97,-0.756 1.705,-21.091 -0.424,-32.528c-3.656,-19.642 -4.241,-21.653 -7.389,-25.395c-3.261,-3.874 -6.106,-4.908 -13.509,-4.908c-5.398,0 -6.787,0.264 -7.211,1.369z" data-paper-data="{&quot;wickUUID&quot;:&quot;9710e63d-17a7-4484-9838-b51606b242ac&quot;,&quot;wickType&quot;:&quot;path&quot;}" fill="#000000" fill-rule="evenodd"/><path d="M385.6746,294.8206c-2.52,1.41 -2.492,5.896 0.098,15.971c2.044,7.95 4.21,17.628 7.301,32.619c0.528,2.557 4.01,2.259 4.386,-0.375c0.246,-1.726 -2.423,-14.532 -6.913,-33.164c-1.34,-5.562 -1.954,-9.982 -1.647,-11.87c0.53,-3.267 -0.774,-4.553 -3.225,-3.181z" data-paper-data="{&quot;wickUUID&quot;:&quot;21a6010f-029b-43e0-b6e9-c2f3982cf9dc&quot;,&quot;wickType&quot;:&quot;path&quot;}" fill="#000000" fill-rule="evenodd"/><path d="M412.71063,265.62557c-7.067,4.803 -11.192,14.603 -12.184,28.946c-0.574,8.304 -0.518,8.753 1.343,10.733c2.113,2.25 5.58,2.707 7.683,1.014c0.718,-0.579 2.531,-2.877 4.028,-5.108c1.497,-2.23 3.272,-4.266 3.944,-4.524c1.71,-0.656 5.506,-8.435 5.192,-10.64c-0.439,-3.079 -3.717,-2.829 -5.707,0.435c-0.936,1.535 -1.811,3.115 -1.944,3.51c-0.134,0.395 -1.67,0.122 -3.413,-0.607c-2.768,-1.156 -3.058,-1.535 -2.286,-2.977c1.159,-2.166 1.133,-5.75 -0.044,-6.142c-1.638,-0.546 1.339,-6.087 4.804,-8.943c5.378,-4.433 12.262,-3.48 16.979,2.351c1.443,1.784 1.872,1.918 3.039,0.949c2.722,-2.26 1.425,-5.034 -4.097,-8.761c-4.648,-3.137 -12.903,-3.249 -17.337,-0.236zM409.40963,295.73957c0,1.359 -1.699,4.055 -2.555,4.055c-0.447,0 -0.812,-1.29 -0.812,-2.867c0,-2.453 0.243,-2.804 1.683,-2.427c0.926,0.242 1.684,0.8 1.684,1.239z" data-paper-data="{&quot;wickUUID&quot;:&quot;7bf2b4a4-f197-4fd9-b68f-2ab219e06f7d&quot;,&quot;wickType&quot;:&quot;path&quot;}" fill="#000000" fill-rule="evenodd"/><path d="M431.59914,272.43833c-0.805,2.099 0.281,3.622 3.897,5.467c3.719,1.897 5.058,4.275 5.058,8.98c0,4.043 -2.109,8.184 -5.478,10.753c-2.121,1.618 -3.537,4.029 -5.833,9.933c-1.668,4.288 -3.367,8.328 -3.777,8.978c-1.136,1.804 -14.85,0.731 -19.234,-1.506c-7.075,-3.61 -10.109,-10.829 -5.969,-14.205c0.988,-0.805 2.756,-2.257 3.929,-3.226c1.391,-1.149 1.946,-2.246 1.597,-3.156c-0.952,-2.48 -4.371,-1.575 -8.468,2.241c-3.684,3.43 -3.905,3.885 -3.905,8.038c0,6.901 3.235,11.424 10.943,15.296c3.076,1.545 5.629,1.979 13.586,2.309c11.486,0.475 10.702,1.034 15.027,-10.725c1.971,-5.361 3.607,-8.169 6.621,-11.364c4.667,-4.948 6.522,-10.183 5.71,-16.11c-0.75,-5.472 -2.895,-8.62 -7.457,-10.943c-4.631,-2.36 -5.588,-2.476 -6.247,-0.76z" data-paper-data="{&quot;wickUUID&quot;:&quot;34ed89bd-76ff-4741-962f-3a49411d26d1&quot;,&quot;wickType&quot;:&quot;path&quot;}" fill="#000000" fill-rule="evenodd"/><path d="M403.90865,306.03485c-0.874,1.334 -1.242,3.431 -1.072,6.103c0.218,3.423 0.527,4.071 1.943,4.071c1.339,0 1.779,-0.717 2.151,-3.504c0.258,-1.928 0.963,-4.101 1.568,-4.83c0.604,-0.728 0.879,-1.898 0.61,-2.598c-0.747,-1.948 -3.71,-1.516 -5.2,0.758z" data-paper-data="{&quot;wickUUID&quot;:&quot;9ae7571c-35d9-4bf5-ac18-49e97acbc5ac&quot;,&quot;wickType&quot;:&quot;path&quot;}" fill="#000000" fill-rule="evenodd"/><path d="M391.10114,282.67509c-3.183,1.285 2.47,15.359 6.727,16.75c3.791,1.238 4.123,-2.089 0.663,-6.66c-1.349,-1.783 -2.708,-4.435 -3.02,-5.892c-0.872,-4.084 -1.99,-5.158 -4.37,-4.198z" data-paper-data="{&quot;wickUUID&quot;:&quot;26277cb2-ae88-4efb-b981-e26fda06c0c5&quot;,&quot;wickType&quot;:&quot;path&quot;}" fill="#000000" fill-rule="evenodd"/><path d="M399.02814,243.1168c-0.309,0.309 -0.559,2.676 -0.557,5.261c0.006,6.293 6.309,19.923 9.594,20.748c3.875,0.972 5.196,-1.539 2.225,-4.228c-2.185,-1.978 -6.773,-13.119 -6.773,-16.447c0,-4.382 -2.487,-7.336 -4.489,-5.334z" data-paper-data="{&quot;wickUUID&quot;:&quot;bcee70e8-dcd0-43ed-8204-61232c88d145&quot;,&quot;wickType&quot;:&quot;path&quot;}" fill="#000000" fill-rule="evenodd"/><path d="M359.3351,259.72832c-2.347,1.878 -2.534,2.452 -2.807,8.623c-0.286,6.46 -0.232,6.669 2.316,9.095c3.291,3.133 7.137,3.282 11.29,0.436c3.603,-2.468 4.764,-4.784 4.764,-9.505c0,-4.137 -1.404,-6.472 -5.36,-8.917c-3.721,-2.3 -7.104,-2.211 -10.203,0.268zM367.4021,264.20232c1.968,1.162 2.444,2.024 2.439,4.419c-0.004,2.452 -0.522,3.327 -2.942,4.975c-2.405,1.637 -3.167,1.809 -4.203,0.949c-1.551,-1.287 -1.741,-9.293 -0.256,-10.777c1.341,-1.342 2.064,-1.279 4.962,0.434z" data-paper-data="{&quot;wickUUID&quot;:&quot;f4a9358c-951e-410f-a187-620ac5715f03&quot;,&quot;wickType&quot;:&quot;path&quot;}" fill="#000000" fill-rule="evenodd"/><path d="M387.79161,263.89132c-2.72,2.494 -3.074,3.282 -3.074,6.865c0,4.651 1.811,6.732 6.648,7.64c3.783,0.709 5.065,0.132 7.093,-3.194c2.53,-4.149 2.232,-8.667 -0.769,-11.667c-3.269,-3.269 -6.051,-3.169 -9.898,0.356zM395.09961,269.91232c0,2.61 -2.235,4.383 -4.069,3.228c-2.094,-1.318 -2.145,-3.327 -0.135,-5.337c1.426,-1.425 2.038,-1.587 2.998,-0.79c0.663,0.551 1.206,1.855 1.206,2.899z" data-paper-data="{&quot;wickUUID&quot;:&quot;c5112127-3742-42d1-983d-25d89d88bd11&quot;,&quot;wickType&quot;:&quot;path&quot;}" fill="#000000" fill-rule="evenodd"/><path d="M368.86211,226.14478c-0.233,0.233 -0.254,5.252 -0.047,11.153c0.239,6.825 -0.009,12.567 -0.681,15.78c-1.704,8.136 -1.561,10.896 0.583,11.201c2.974,0.424 4.571,-6.314 5.098,-21.504c0.381,-10.991 0.247,-13.132 -0.939,-14.941c-1.286,-1.963 -3.013,-2.69 -4.014,-1.689z" data-paper-data="{&quot;wickUUID&quot;:&quot;21a37f3a-39db-44a1-bacb-788629a36f7b&quot;,&quot;wickType&quot;:&quot;path&quot;}" fill="#000000" fill-rule="evenodd"/><path d="M393.04113,220.46027c0.391,3.125 0.73,13.901 0.753,23.946c0.044,18.538 0.423,20.877 3.218,19.804c1.904,-0.73 2.641,-31.242 0.983,-40.748c-1.469,-8.422 -1.586,-8.684 -3.909,-8.684c-1.676,0 -1.723,0.256 -1.045,5.682z" data-paper-data="{&quot;wickUUID&quot;:&quot;a3fd4e18-aaf4-4df4-9a65-d105881c7e97&quot;,&quot;wickType&quot;:&quot;path&quot;}" fill="#000000" fill-rule="evenodd"/></g><g fill="none" fill-rule="nonzero" stroke="none" stroke-width="1" stroke-linecap="butt" stroke-linejoin="miter" stroke-miterlimit="10" stroke-dasharray="" stroke-dashoffset="0" font-family="sans-serif" font-weight="normal" font-size="12" text-anchor="start" style="mix-blend-mode: normal"/><g id="wick_project_gui" fill="none" fill-rule="nonzero" stroke="none" stroke-width="1" stroke-linecap="butt" stroke-linejoin="miter" stroke-miterlimit="10" stroke-dasharray="" stroke-dashoffset="0" font-family="sans-serif" font-weight="normal" font-size="12" text-anchor="start" style="mix-blend-mode: normal"/></g></svg>