<svg version="1.1" xmlns="http://www.w3.org/2000/svg" xmlns:xlink="http://www.w3.org/1999/xlink" width="1260" height="594" viewBox="0,0,1260,594"><g transform="translate(214.61833,-3.9561) scale(1.03356,1.03356)"><g id="wick_project_bg" fill="#cccccc" fill-rule="nonzero" stroke="none" stroke-width="1" stroke-linecap="butt" stroke-linejoin="miter" stroke-miterlimit="10" stroke-dasharray="" stroke-dashoffset="0" font-family="none" font-weight="none" font-size="none" text-anchor="none" style="mix-blend-mode: normal"><rect x="0" y="0" width="720" height="480"/></g><g data-paper-data="{&quot;wickUUID&quot;:&quot;c63fcc3f-6cdd-4a29-b585-e0a64bf30cad&quot;,&quot;wickType&quot;:&quot;clipsandpaths&quot;}" fill="none" fill-rule="none" stroke="none" stroke-width="1" stroke-linecap="butt" stroke-linejoin="miter" stroke-miterlimit="10" stroke-dasharray="" stroke-dashoffset="0" font-family="none" font-weight="none" font-size="none" text-anchor="none" style="mix-blend-mode: normal"><path d="M407.20866,342.0617c-0.55,0.285 -1.74266,0.9596 -2.32099,1.4626c-2.47067,2.14767 -17.27797,5.72432 -23.93564,5.78199l-3.71527,0.18869l-1.04891,3.61629c-0.412,1.74167 -1.01452,3.78809 -1.33352,4.52976c-0.31933,0.74133 -0.70008,2.61704 -0.82708,4.07571l0.10164,3.46517l5.63618,1.25176c3.65867,0.76067 6.37711,1.09679 8.37844,1.08879c4.811,-0.019 10.74393,-1.4179 16.6456,-3.93523l3.12815,-1.39412l1.73088,-3.43747l1.6426,-3.41693l0.03633,-4.73399c0.019,-4.14 -0.11071,-4.89958 -0.86138,-6.36925c-1.08167,-2.117 -2.06403,-2.7921 -3.25703,-2.17377z" data-paper-data="{&quot;wickUUID&quot;:&quot;5625443f-a549-48d6-984c-0a479c13250e&quot;,&quot;wickType&quot;:&quot;path&quot;}" fill="#ff0000" fill-rule="evenodd"/><path d="M330.23721,336.20461c-2.02433,2.13067 -5.21313,2.98773 -6.56546,1.76373c-0.58367,-0.528 -1.04435,-0.25436 -2.57935,1.33797c-1.07433,1.11467 -1.90813,2.38639 -2.2978,3.55939c-0.45667,1.37467 -0.91545,2.1126 -2.91478,4.1416c-3.08967,3.13567 -3.60983,3.23255 -5.5705,1.33255l-1.04802,-1.1399l-2.85298,0.76693c-1.375,0.40233 -3.10901,1.15249 -3.33601,1.29716c-1.25233,0.798 -6.14791,9.1933 -7.95991,13.65197c-0.929,2.28633 -2.27493,8.36785 -2.09693,8.90185c0.15533,0.466 6.73721,3.41739 10.57288,4.64606c1.74567,0.559 7.00864,1.7551 11.54031,2.6211c8.15533,1.558 8.45194,1.58424 15.21561,1.58324c7.335,-0.00133 11.77584,-0.50078 18.01817,-2.01911c3.30067,-0.803 4.68954,-1.39761 11.14421,-4.87794c1.82867,-0.986 4.821,-2.38829 6.56733,-3.07462c3.11767,-1.22533 3.49729,-1.58326 3.72362,-2.83026c0.127,-0.69867 0.35527,-2.76903 0.3656,-4.12103l-0.05282,-2.83982l-1.84864,-0.30018c-3.426,0.68533 -8.54723,0.97992 -11.67856,0.62392c-6.805,-0.774 -10.50331,-2.53199 -15.14098,-7.31066c-4.463,-4.59867 -6.26737,-8.7201 -6.9117,-15.43543c-0.255,-2.65767 -0.62001,-3.05926 -1.62301,-3.15759c-0.76867,-0.07533 -1.91095,0.08007 -2.67028,0.87907z" data-paper-data="{&quot;wickUUID&quot;:&quot;89d2c8ae-e37b-4c04-a9d2-ac5dd4059ccb&quot;,&quot;wickType&quot;:&quot;path&quot;}" fill="#ff0000" fill-rule="evenodd"/><path d="M412.27496,173.656c-1.46667,0.418 -5.16562,1.52605 -8.22595,2.46405c-7.09833,2.17633 -18.02549,5.00084 -25.91716,6.69917c-10.927,2.35167 -22.27744,4.98492 -31.32744,7.26792l-9.03427,2.30369l3.40711,2.34772c8.27533,1.987 15.99634,3.36243 19.50967,3.47543l3.17419,-0.30431l0.14247,-4.08792c0.00867,-3.21533 -0.07271,-3.37558 0.52829,-4.18058c0.839,-1.12367 1.40639,-1.50277 2.54772,-0.98277c0.79933,0.364 0.47736,-0.16885 0.36103,3.95182c-0.101,3.57133 0.15242,4.58293 0.58209,4.45826c0.275,-0.08 2.31985,-0.12303 3.42485,-0.40203c3.067,-0.77467 11.18876,-3.61211 15.84243,-5.53478c2.29167,-0.94667 4.79819,-1.99206 5.30252,-2.17806c1.065,-0.393 1.41959,-1.10218 0.75626,-2.68985c-0.60167,-1.44 -0.69447,-3.03816 -0.1448,-3.58783c0.22,-0.22 -0.13092,0.13851 0.50041,0.13851c0.93833,0 1.19004,0.17696 2.58204,1.57829l2.4049,1.86279l7.91299,-3.97751c7.59167,-3.83967 10.32353,-5.6689 10.75553,-7.19457c0.185,-0.65367 -0.44708,-2.26336 -1.26575,-2.24203c-0.51633,0.01367 -2.35246,0.39692 -3.81913,0.81459z" data-paper-data="{&quot;wickUUID&quot;:&quot;64b13df9-c549-4779-b0ea-b92497ca02e3&quot;,&quot;wickType&quot;:&quot;path&quot;}" fill="#ffffff" fill-rule="evenodd"/><path d="M401.69485,369.02716c-0.09667,0.09633 -1.5582,0.53345 -3.37153,0.99912c-2.62633,0.675 -4.28209,0.87208 -8.66376,1.01508c-5.22433,0.17033 -5.6533,0.13251 -10.5263,-0.85882c-2.82167,-0.57433 -5.42299,-0.99163 -5.45766,-0.94096c-0.03467,0.05033 -0.90811,1.59948 -1.14411,2.69948c-0.236,1.1 -0.65558,2.53249 -0.90058,3.01116c-0.416,0.812 0.43453,1.83372 1.2752,2.24405c2.21967,1.08233 16.36576,0.58514 20.11109,-0.70319c2.713,-0.93333 7.3133,-3.41491 8.8943,-4.84091c0.754,-0.68 1.53902,-1.62528 1.34035,-1.63295c-0.19867,-0.00767 -1.46067,-1.08873 -1.557,-0.99206z" data-paper-data="{&quot;wickUUID&quot;:&quot;63e46079-3627-4619-9364-b90ed0683804&quot;,&quot;wickType&quot;:&quot;path&quot;}" fill="#ffffff" fill-rule="evenodd"/><path d="M361.01323,377.39752c-8.91633,4.48333 -16.16798,6.01104 -30.11731,6.33304c-8.02267,0.18533 -11.7115,-0.12577 -15.3845,-1.2501c-1.14833,-0.35133 -3.98317,-0.93913 -6.40984,-1.32513c-5.199,-0.82633 -8.58128,-1.64041 -11.70828,-2.81741c-1.25067,-0.47067 -3.38931,0.20436 -3.48231,0.29736c-0.449,0.44867 1.37314,3.17238 3.63781,5.46371c3.942,3.989 8.86884,6.01705 16.19551,6.78972c8.70533,0.91833 26.75871,-2.14661 31.88638,-5.42561c2.233,-1.428 3.58739,-1.57672 4.32606,-0.27905c0.47133,0.828 -0.02411,0.23731 -0.51544,1.60398c-0.36567,1.01733 0.78954,2.31537 1.04321,2.31504c0.774,-0.00033 6.31305,-3.48034 9.02005,-5.66767c2.62867,-2.12433 6.53532,-6.23622 6.22865,-6.52789c-0.07533,-0.07167 -2.72666,-0.51232 -4.71999,0.49001z" data-paper-data="{&quot;wickUUID&quot;:&quot;0511aacd-29e3-4f11-93b8-08522fe4780a&quot;,&quot;wickType&quot;:&quot;path&quot;}" fill="#ffffff" fill-rule="evenodd"/><path d="M300.18288,216.11117c-2.21633,1.399 -5.21985,4.3243 -5.21985,5.06897c0,0.326 0.08168,1.84474 0.33368,2.55874c0.252,0.71433 0.59886,2.22946 0.73053,3.23413c0.191,1.455 0.68285,2.47837 2.54985,5.47137c3.39467,5.442 3.56511,7.22438 0.46344,7.22438c-1.297,0 -0.29052,-0.51612 -1.68919,-2.07179c-0.847,-0.942 -2.0856,-1.81448 -2.1266,-1.74315c-0.04067,0.07133 -1.18379,1.30039 -1.61546,2.12539c-7.50267,14.34367 -8.94418,17.53385 -9.07985,20.06385c-0.13367,2.49033 1.11157,3.54188 2.57324,2.22121c1.70333,-1.53867 8.59042,-6.66367 11.25075,-8.37734l2.23809,-1.53637l0.67523,-3.07575c0.34267,-1.689 1.05929,-3.83565 1.86762,-5.50498c1.22333,-2.527 1.77329,-3.19748 5.62396,-6.97581c3.973,-3.898 4.45249,-5.07505 4.23916,-5.92538c-0.469,-1.86867 -8.37663,-13.12075 -9.5463,-13.56975c-0.23733,-0.091 -2.34397,0.22895 -3.2683,0.81228z" data-paper-data="{&quot;wickUUID&quot;:&quot;9537b3cc-5c6a-49fe-89c0-5cedcc79b0dd&quot;,&quot;wickType&quot;:&quot;path&quot;}" fill="#ffffff" fill-rule="evenodd"/><path d="M313.83883,235.17544l-5.16856,5.29739l3.43595,3.78956c1.74167,1.63133 4.12249,3.06127 4.26416,2.9776c0.51233,-0.30333 3.33437,-4.10649 4.15204,-5.72082c1.059,-2.09167 1.99402,-5.29007 1.99402,-6.74307c0,-1.37033 -1.74352,-3.80495 -2.65452,-4.29262c-0.60167,-0.322 -1.65676,0.37629 -6.02309,4.69196z" data-paper-data="{&quot;wickUUID&quot;:&quot;b99f3ad0-c6ae-4cf2-ad00-1c151e6206f5&quot;,&quot;wickType&quot;:&quot;path&quot;}" fill="#ffffff" fill-rule="evenodd"/><path d="M319.95246,249.0113c-0.86367,0.87733 -1.56587,1.74596 -1.56587,1.93696c0,0.498 -1.33207,1.68986 -1.8984,1.69686c-0.26333,0.00333 -0.95935,0.3573 -1.76902,0.90597c-1.57233,1.06533 -4.29604,2.01742 -5.78871,2.01742c-0.74,0 -1.38657,0.5393 -2.26057,1.96097c-0.59167,0.96267 -1.62136,2.41786 -2.24103,3.17519l-1.23857,2.18234l2.63347,0.36208c6.52033,-0.61667 12.96254,-2.75546 14.57954,-4.80779c1.18533,-1.50433 3.25921,-5.36874 3.57221,-6.81374c0.218,-1.008 -0.68894,-4.32076 -1.14627,-4.32076c-0.10767,0 -2.01278,0.8275 -2.87678,1.7045z" data-paper-data="{&quot;wickUUID&quot;:&quot;8d41765b-03c0-4f99-8501-b55081f16179&quot;,&quot;wickType&quot;:&quot;path&quot;}" fill="#ffffff" fill-rule="evenodd"/><path d="M440.93261,264.17689c-5.07033,0.74533 -9.04252,4.92807 -13.21352,14.35907c-2.671,6.03967 -3.77624,7.82155 -7.28757,11.79222c-1.44767,1.637 -3.06854,3.46927 -3.67787,4.1686l-1.30336,1.99475l2.07432,3.06225c1.96367,2.78667 3.3203,4.09926 4.2353,4.09926c0.30133,0 1.86046,0.33098 2.28779,0.63031c0.768,0.538 0.97052,0.39026 6.29319,-4.88341c2.95967,-2.93233 5.61032,-5.47799 6.06365,-5.77832c1.043,-0.69067 1.92987,-1.01143 3.24287,-0.33243c1.98867,1.02867 2.97223,4.65544 3.87023,13.96311c1.04,10.78033 4.36641,20.98009 9.80441,30.08942c1.96067,3.284 5.80351,8.48224 8.39551,11.31391l2.65618,2.28263l0.52427,-3.00269c-0.249,-4.40133 1.05706,-9.99898 3.00739,-12.85165c0.726,-1.062 1.19635,-1.4523 2.38668,-2.1093c1.80167,-0.99467 1.64406,-0.95958 8.26539,-1.12658l7.08,-0.33133l-2.47324,-4.09399c-1.42533,-1.55833 -3.39538,-3.6637 -4.45705,-4.77537c-3.97167,-4.15967 -3.8625,-3.96867 -5.06217,-8.36734c-0.61733,-2.263 -1.21907,-5.16173 -1.41307,-6.72006c-0.49733,-3.99933 -0.83768,-9.39757 -0.57401,-9.14857c0.12167,0.11533 -1.13968,1.65814 -0.79435,3.10114c0.69067,2.88833 2.42215,7.14001 3.95482,9.72834c2.23933,3.782 4.28967,6.58289 4.958,6.75789c0.389,0.10167 2.04861,0.12606 2.06328,0.08739c0.01433,-0.03833 0.38698,-1.03651 0.72031,-2.04484c1.07567,-3.25233 3.75005,-8.39999 5.45738,-10.50332l1.77279,-2.43838l-1.86426,-1.80227c-0.85467,-0.61333 -2.56765,-2.07955 -3.90598,-3.35088c-2.09867,-1.99333 -2.2042,-1.71018 -2.11787,-2.57218c0.12767,-1.277 0.20601,-1.09559 2.07201,-0.59326c1.019,0.27467 5.68043,3.05734 9.0811,5.50101c0.223,0.16033 4.14104,-1.5315 9.05637,-4.07083l8.35499,-4.3251l-0.72102,-2.35974c-0.72767,-0.95133 -2.4705,-2.33081 -8.75783,-6.93181c-1.43867,-1.05267 -4.48884,-3.6549 -6.78051,-5.7849c-5.87367,-5.459 -11.25864,-9.8123 -13.28397,-10.74263c-0.95167,-0.437 -3.0613,-1.08882 -4.14063,-1.26282c-4.45467,-0.71733 -32.01228,-1.19163 -35.84995,-0.6273z" data-paper-data="{&quot;wickUUID&quot;:&quot;bec3c96c-84c6-437e-ab2a-b9a703a6204f&quot;,&quot;wickType&quot;:&quot;path&quot;}" fill="#ffffff" fill-rule="evenodd"/><path d="M355.5651,258.59269l-1.2477,1.40638l1.03754,3.16585c0.53967,1.59167 1.3436,3.40554 1.6446,3.77754c0.54667,0.675 2.06754,0.26816 2.62187,-0.52351c0.85767,-1.22433 0.69647,-3.84367 -0.37353,-5.93867c-0.504,-0.98733 -1.48687,-2.40197 -1.6702,-2.45164c-0.18333,-0.04967 -1.55425,0.21172 -2.01258,0.56405z" data-paper-data="{&quot;wickUUID&quot;:&quot;26f26d42-05d2-4009-abae-42260e19eca0&quot;,&quot;wickType&quot;:&quot;path&quot;}" fill="#0000ff" fill-rule="evenodd"/><path d="M335.80175,262.83628c-0.62067,0.64033 -1.60586,1.49312 -1.93786,1.59845c-0.51433,0.16333 -0.68109,1.22645 -0.68109,3.42445c0,3.21333 0.66908,4.20553 2.85875,4.41586c1.38567,0.133 3.04783,-0.42521 3.61083,-1.04788c0.97,-1.07267 0.92442,-5.59333 -0.09658,-7.585c-0.39933,-0.779 -1.59707,-2.15408 -1.74074,-2.15408c-0.14367,0 -1.39264,0.70787 -2.01331,1.3482z" data-paper-data="{&quot;wickUUID&quot;:&quot;2f5e8ad5-40c9-4cd1-a8e4-3ba900356733&quot;,&quot;wickType&quot;:&quot;path&quot;}" fill="#0000ff" fill-rule="evenodd"/><path d="M340.18188,220.82112c-0.27267,0.59833 -0.57169,5.08034 -0.87536,13.12301c-0.253,6.69767 -0.51949,13.29632 -0.59116,14.61699c-0.12,2.21633 0.10221,2.91459 0.64821,2.62259c0.32533,-0.17433 2.33592,-0.66671 2.62425,-0.55604c0.47167,0.181 0.52877,-1.40823 0.52877,-15.24723c0,-8.453 -0.05175,-15.41796 -0.11375,-15.41796c-0.06233,0 -1.99396,0.36064 -2.22096,0.85864z" data-paper-data="{&quot;wickUUID&quot;:&quot;bd3530c4-5f8a-4cef-bb7d-6abeb81447d3&quot;,&quot;wickType&quot;:&quot;path&quot;}" fill="#0000ff" fill-rule="evenodd"/><path d="M333.46545,236.61458c-1.46467,2.94067 -3.93315,6.3423 -5.37182,7.40163c-0.69133,0.509 -1.44727,1.26934 -1.4796,1.27834c-0.03233,0.009 0.224,1.07606 0.59667,2.17406c0.934,2.755 0.69526,4.68667 -1.02307,8.26767c-0.744,1.55033 -1.25597,3.47598 -1.25597,3.54298c0,0.13433 3.89457,1.56046 4.33057,1.56046c0.15,0 1.03163,-0.50002 1.03163,-0.78602c0,-0.70933 3.10266,-3.94157 4.23333,-4.41024l1.16428,-0.81102l-0.10182,-3.25624c-0.06767,-1.68933 0.02033,-6.05183 0.19633,-9.7185c0.176,-3.66667 0.28903,-6.84531 0.26436,-6.86698c-0.02467,-0.02167 -2.03489,0.51953 -2.58489,1.62386z" data-paper-data="{&quot;wickUUID&quot;:&quot;5e431499-a4b8-41e5-b817-3393c2817a73&quot;,&quot;wickType&quot;:&quot;path&quot;}" fill="#0000ff" fill-rule="evenodd"/><path d="M382.58055,206.00921c-3.56667,0.77667 -6.88998,1.87978 -10.83398,3.59711c-7.725,3.36433 -19.846,7.60785 -23.141,8.10218c-1.08433,0.16233 -2.11853,1.27017 -2.11853,1.62917c0,0.28367 1.06576,3.72984 2.34243,7.50451c3.14667,9.306 3.61802,11.42581 4.02869,18.14014c0.19067,3.11667 0.40884,6.34295 0.49851,7.27462l0.60161,2.37583l2.71888,-0.11626c3.41,-0.19733 3.44316,-0.38504 5.15916,3.16396c2.932,6.06467 2.89397,9.06226 -0.15803,12.67393c-1.84533,2.18367 -2.30397,2.50696 -4.3983,2.50696c-2.73033,0 -2.83765,-0.27196 -4.74832,-6.12829c-2.34967,-7.20133 -2.8572,-10.17936 -3.36187,-19.43169c-0.314,-5.762 -2.50964,-10.29311 -2.86964,-10.65311c-0.39433,-0.39433 -0.09928,19.63037 0.34772,23.61537c0.82267,7.33267 3.05733,17.74617 5.05633,23.53584c1.06767,3.09267 1.16702,3.51998 1.06369,5.97431c-0.108,2.564 -0.15576,2.68396 -1.91876,6.22429c-2.068,4.15267 -4.82532,8.55873 -5.80299,9.28106c-0.34833,0.25767 -1.01679,1.73855 -1.43879,3.19622c-0.415,1.43333 -1.50887,4.64783 -2.4102,7.08283c-1.984,5.35933 -2.19145,6.13763 -1.77445,6.66763c1.124,1.42733 0.64713,3.80507 -1.12687,5.62207c-1.19267,1.22133 -1.23462,1.44859 -0.87629,2.85226c0.20133,0.78967 0.49353,3.26481 0.6112,5.18281c0.361,5.882 1.7344,9.82132 4.8254,14.18132c2.41833,3.41167 6.32524,5.80084 11.39957,6.92951c3.77267,0.83933 10.93706,0.58 14.63773,-0.56233l3.27635,-1.16908l0.71038,-3.98329c0.309,-1.99767 1.84176,-10.52695 3.40743,-18.96028c1.56567,-8.43333 3.36588,-18.22787 4.00821,-21.80287c1.36333,-7.587 2.09106,-10.27891 3.30739,-11.72424c1.246,-1.481 3.41725,-2.95532 8.61258,-6.04865c5.60067,-3.33467 7.79111,-5.10204 9.92444,-8.00504l1.91647,-2.65892l0.26049,-4.18091c0.12433,-2.2 0.33146,-4.71136 0.46779,-5.35069c0.23,-1.07633 0.01315,-1.61436 -1.85718,-3.93403c-4.59567,-5.69967 -13.49379,-22.71875 -13.49379,-25.80942c0,-0.46267 -0.43637,0.2523 -0.0697,0.05597c1.20133,-0.643 1.48138,-0.68312 2.70271,0.60321c1.29867,1.36833 1.75182,2.12473 7.09149,11.59006c4.24067,7.51733 6.51149,10.79111 10.88882,15.70811c4.02067,4.51667 10.27303,11.14134 10.57803,11.26434c0.12667,0.051 2.36656,-2.52736 3.60389,-5.26869c1.237,-2.741 2.88805,-5.95417 3.77505,-7.30517c1.92067,-2.92567 5.88808,-6.90517 7.99208,-7.92384c2.50533,-1.21267 5.96004,-1.44883 16.81371,-1.27516l10.1543,0.12187l-2.12536,-3.92416c-2.82233,-2.86633 -11.33792,-10.33995 -21.59559,-18.95395c-8.70733,-7.312 -16.20276,-14.63464 -18.72243,-18.28997c-2.441,-3.541 -5.47956,-6.48636 -9.09589,-8.90503c-5.04867,-3.37733 -8.70413,-4.21455 -13.57846,-3.33588c-7.00567,1.26233 -12.20631,5.59923 -12.21431,10.2709c-0.00267,1.608 0.1293,3.07016 1.52763,5.73916c1.873,3.574 2.78851,6.34737 2.47684,7.58837c-0.16467,0.65667 0.42588,-0.04235 -0.49412,0.13032c-1.12633,0.21133 -0.67854,0.47654 -2.13387,-1.10613c-1.84233,-2.00367 -4.28584,-6.4424 -5.00351,-9.24373c-0.98633,-3.85067 0.62416,-9.007 3.72583,-12.16867c1.443,-1.471 1.07801,-2.59459 0.31534,-2.57026c-0.45133,0.01467 -2.35994,0.16283 -3.46594,0.4035z" data-paper-data="{&quot;wickUUID&quot;:&quot;48c8dc09-9a0d-4d27-b3b9-cfdca5650cfa&quot;,&quot;wickType&quot;:&quot;path&quot;}" fill="#0000ff" fill-rule="evenodd"/><path d="M396.48564,294.46656c-6.96767,4.198 -8.56957,5.40149 -9.79124,7.24616c-0.98033,1.48 -1.31168,2.34236 -1.68735,5.70736c-0.10933,0.98067 -0.71047,3.93859 -1.32714,6.53292c-0.61633,2.594 -1.81191,8.79007 -2.65458,13.7564c-0.84267,4.96633 -1.83254,10.66633 -2.19821,12.65633c-0.36567,1.98967 -0.20759,4.64403 -0.20759,4.79203c0,0.468 2.85486,0.37236 7.84086,-0.46864c6.60533,-1.11433 6.91149,-1.18278 10.31149,-2.13178c3.937,-1.09867 6.15903,-2.28985 7.6277,-4.00552c1.266,-1.47933 1.6491,-2.78927 1.13243,-5.07527c-0.33033,-1.461 -0.82348,-6.38496 -1.39248,-13.86529c-0.20233,-2.65833 -0.46154,-9.97708 -0.57821,-16.30208l-0.36607,-11.96485z" data-paper-data="{&quot;wickUUID&quot;:&quot;2da518f0-69b1-4b13-8f11-64efd88d3055&quot;,&quot;wickType&quot;:&quot;path&quot;}" fill="#0000ff" fill-rule="evenodd"/><path d="M305.68251,247.50175c0,2.23633 2.41113,4.10305 4.42313,3.46438c0.653,-0.20733 1.44518,-1.76254 -0.48949,-3.71454c-1.162,-1.17233 -2.62112,-2.39439 -2.76379,-2.39439c-0.143,0 -1.16985,1.93588 -1.16985,2.64455z" data-paper-data="{&quot;wickUUID&quot;:&quot;cd507728-7b7e-4b54-8d2d-89e585c2ce9e&quot;,&quot;wickType&quot;:&quot;path&quot;}" fill="#ffe6cc" fill-rule="evenodd"/><path d="M298.93519,256.24439c-2.262,1.32567 -5.85265,4.09725 -8.87698,6.85392l-2.16009,2.06471l0.88207,2.07389c0.59067,0.97133 1.62106,1.19692 2.26673,0.85159c0.39867,-0.21367 1.84346,-1.41621 2.91579,-2.49221c1.07267,-1.07567 2.14131,-2.00991 2.30664,-2.00991c0.35333,0 6.45263,-6.80945 6.45263,-7.20278c0,-0.43033 -1.57912,-1.43254 -3.78679,-0.13921z" data-paper-data="{&quot;wickUUID&quot;:&quot;2e77841a-7ba0-4396-8505-5157b7f2515f&quot;,&quot;wickType&quot;:&quot;path&quot;}" fill="#ffe6cc" fill-rule="evenodd"/><path d="M411.31536,302.87629c-0.77333,2.02533 -0.47649,4.84172 0.59051,5.97739c0.43167,0.45967 1.9391,1.67093 2.9481,2.2176l2.41249,1.11719l1.95425,-1.7161l1.72204,-2.00639l-1.58326,-1.37683c-1.39833,-0.72033 -2.54567,-1.8474 -4.65867,-4.57373l-1.86149,-1.98961z" data-paper-data="{&quot;wickUUID&quot;:&quot;012e9946-449a-43a1-b75d-f1bee05adb8b&quot;,&quot;wickType&quot;:&quot;path&quot;}" fill="#ffe6cc" fill-rule="evenodd"/><path d="M491.39744,307.93884c-0.891,0.83333 -2.19485,2.55006 -2.76018,3.61039c-0.95633,1.79433 -3.13175,7.29356 -3.13175,7.91023c0,0.15033 1.506,1.39778 2.138,1.51645c1.31433,0.24667 3.63513,-0.62873 4.8738,-1.7744c0.956,-0.88433 6.70084,-8.23819 6.54684,-8.37586c-0.05967,-0.05333 -1.39449,-1.86128 -2.63316,-2.80561l-2.72479,-1.89122z" data-paper-data="{&quot;wickUUID&quot;:&quot;4afd9c4a-6cd4-42c4-bca7-953aee7b23f1&quot;,&quot;wickType&quot;:&quot;path&quot;}" fill="#ffe6cc" fill-rule="evenodd"/><path d="M508.44002,297.60516c-1.35533,0.92133 -6.39658,3.45579 -7.81991,3.93179c-0.64167,0.21433 -1.89651,1.13493 -2.25551,1.4066c-0.62833,0.475 -0.44523,1.30838 1.14077,2.70405l2.25191,1.77575l2.11823,-1.44095c3.19633,-2.63667 5.19855,-4.64467 6.00088,-6.01334c0.463,-0.79 0.93126,-2.37896 0.85559,-2.45429c-0.07567,-0.07567 -1.74929,-0.27828 -2.29196,0.09039z" data-paper-data="{&quot;wickUUID&quot;:&quot;072cc4a5-a8fc-4008-a989-01ebe2c3afb7&quot;,&quot;wickType&quot;:&quot;path&quot;}" fill="#ffe6cc" fill-rule="evenodd"/><path d="M476.84193,334.95704c-0.18333,0.076 -1.57788,0.55408 -2.27655,0.67141c-2.85933,0.479 -5.24531,4.27987 -5.62864,8.8532c-0.15733,1.87767 0.76384,10.28609 1.19717,10.99909c0.24067,0.39567 3.8272,1.663 6.4032,2.07133c1.375,0.21767 4.93389,0.41873 7.78656,0.43473l5.4339,0.00181l4.0672,-2.71448c4.11067,-2.69667 3.94663,-2.21796 3.31796,-9.08663l-0.41151,-4.38392l-3.01213,-3.09258c-2.479,-2.49367 -3.31413,-3.00051 -4.75513,-3.24618c-1.816,-0.30967 -11.60603,-0.72211 -12.12203,-0.50778z" data-paper-data="{&quot;wickUUID&quot;:&quot;58ae815d-fb5d-4721-a790-e9b2463fb128&quot;,&quot;wickType&quot;:&quot;path&quot;}" fill="#ffe6cc" fill-rule="evenodd"/><path d="M353.63639,107.5428c-6.78867,0.978 -18.13067,5.97178 -24.61234,10.84511c-1.95967,1.47333 -3.14359,2.82718 -6.80826,8.11785c-2.349,3.39167 -5.25644,8.09041 -6.33177,10.19874c-6.01967,11.80333 -11.36561,29.55528 -11.39394,37.68695c-0.02833,8.04267 5.86847,21.85211 12.32747,28.69911c1.60867,1.70533 3.33808,3.037 5.52441,4.16333c7.812,4.02567 21.88869,7.3278 26.61969,6.2728c3.962,-0.88333 15.38809,-5.0212 23.80176,-8.66353c3.61133,-1.56333 7.42805,-2.5532 14.13205,-3.6702c7.40633,-1.23367 8.01813,-1.40169 9.1058,-2.48936c0.46733,-0.46733 1.50817,-1.00168 2.1585,-1.12368c0.65,-0.122 1.38332,-0.4804 1.69899,-0.82907c0.36467,-0.403 1.11717,-0.68309 1.89384,-0.68309c1.614,0 4.00832,-1.48973 10.81132,-6.71706c5.35033,-4.111 9.68865,-9.37106 9.39865,-9.66106c-0.22033,-0.22067 -8.83825,3.54659 -13.64725,6.20826c-10.28567,5.69233 -27.52972,12.5006 -38.82772,15.32827c-3.97667,0.99567 -4.07469,1.00093 -8.53102,0.84126c-5.77733,-0.20667 -10.54242,-1.0781 -23.95575,-4.3721l-10.04835,-2.46427l-3.19705,0.61085c-2.894,0.59367 -2.71368,0.62435 -3.51768,0.04368c-0.45833,-0.331 -0.33899,-0.49188 -0.39366,-0.93155c-0.05433,-0.44 -0.52206,-0.18597 -0.71773,-0.68664c-1.19,-3.046 1.75029,-4.45205 7.18429,-3.44738c1.74067,0.32167 2.22813,0.24099 9.41746,-1.66268c10.03933,-2.65833 26.92546,-6.81133 37.31379,-9.17666c16.28867,-3.709 24.56499,-5.8703 33.22099,-8.67497c2.50067,-0.81033 5.64208,-1.66594 6.93208,-1.88694c1.896,-0.325 2.54587,-0.60228 2.82287,-1.20995c0.47833,-1.04967 1.09254,-1.88264 1.91487,-1.62164c1.04233,0.331 2.60629,2.50282 3.15296,4.28315c0.37,1.205 0.38963,2.31016 0.24096,5.20049c-0.19533,3.79067 1.33937,4.25751 1.9277,3.26851c0.45967,-0.77233 0.76129,-2.27107 0.76129,-4.72207c0,-2.89933 -0.19789,-3.73081 -1.17622,-5.71848c-1.10833,-2.251 -3.64166,-5.16527 -5.23266,-5.9876c-0.50133,-0.25933 -1.36741,-0.92689 -2.12141,-1.78389c-1.657,-1.88233 -1.77581,-3.01664 -0.50014,-4.19897l0.80283,-0.81461l-1.01121,-4.01461c-0.54,-2.103 -1.89799,-6.9466 -2.99966,-10.70493c-1.70733,-5.82433 -2.47015,-7.79523 -4.99515,-12.90923c-1.629,-3.3 -3.80885,-7.29797 -4.72785,-8.68764c-2.342,-3.54133 -5.52665,-6.67069 -7.37332,-7.33436c-3.09433,-1.11167 -17.18736,-4.62553 -19.90403,-4.95953c-3.32567,-0.409 -18.2564,-0.37628 -21.1404,0.03939zM364.2516,110.84606c0.796,0.796 0.24173,1.13344 -0.4466,2.72977c-0.59667,1.38433 -3.05963,4.15897 -11.00696,12.4443c-3.385,3.529 -6.15721,6.92411 -5.90188,6.92411c1.20467,0 3.25509,3.65103 4.76376,8.20503c0.90333,2.72667 0.63272,7.02948 -0.61928,9.81948c-1.245,2.77433 -2.27811,3.59156 -4.19344,3.59156c-1.11767,0 -0.78686,-0.11208 -1.47253,-0.79808c-0.487,-0.487 -0.61909,-0.65868 -0.70309,-1.04268c-0.426,-1.951 -0.87621,-6.44378 -1.05654,-10.51478l-1.01998,-5.33595l-5.28259,4.57343c-7.81833,7.26333 -12.09312,10.46292 -14.02912,10.46292c-0.88667,0 -0.77337,-0.46852 -1.46437,-1.81052c-0.56867,-1.104 -1.65645,-5.55581 -1.65912,-6.97014c-0.00433,-2.32067 1.3267,-2.73492 3.17637,-1.28025c0.46533,0.366 0.54243,1.07744 0.96076,2.08644c0.418,1.009 2.15349,2.0288 2.25882,2.0288c0.42933,0 29.40546,-29.06403 31.84146,-31.93836c3.466,-4.089 4.355,-4.67441 5.85433,-3.17508z" data-paper-data="{&quot;wickUUID&quot;:&quot;410ab6fe-57ad-47d8-ac86-64589877d978&quot;,&quot;wickType&quot;:&quot;path&quot;}" fill="#ffe6cc" fill-rule="evenodd"/><path d="M320.91776,40.40332c-2.30367,0.12667 -4.88776,1.2302 -5.37876,1.5362c-0.33633,0.20967 0.84029,2.58189 4.48096,8.35189c6.258,9.918 9.28819,15.17313 13.21652,22.9288c3.526,6.96133 4.41592,9.0411 4.06225,10.52677c-0.55333,2.322 -1.02797,1.97547 -4.92997,0.64847c-3.28167,-1.11633 -5.7678,-2.24205 -18.1998,-8.18105c-15.116,-7.221 -19.13084,-8.86386 -23.01784,-9.51719c-7.36867,-1.23833 -17.99806,-1.41303 -32.54039,-0.5167c-11.70567,0.72133 -16.88069,1.61637 -25.18102,4.3287c-7.57533,2.475 -11.2621,4.76109 -16.5421,10.28376c-5.14067,5.377 -14.19825,16.37325 -15.41058,18.71758c-0.40833,0.78967 -0.05932,2.24469 0.44501,2.67836c0.314,0.27 4.28508,1.39377 8.68508,2.44744c32.47667,7.77833 41.05001,10.12853 46.16834,12.69653c12.317,6.17967 32.06232,19.40655 32.89332,22.02422c0.11033,0.34733 -0.0341,-0.30268 -0.3101,0.23132c-0.43533,0.84233 -1.04803,1.13758 -5.6157,2.81791c-11.616,4.273 -28.08636,11.73646 -32.67103,14.80313c-1.79667,1.20167 -2.51421,1.98297 -3.43688,4.0463c-1.17033,2.61733 -0.45856,4.41664 0.26677,4.13831c2.49033,-0.95567 43.32387,-6.6192 51.12787,-7.09153l3.94594,-0.27717l0.85781,-1.9089c0.194,-0.75167 1.07327,-3.52958 1.9926,-6.27958c3.176,-9.50067 6.93687,-17.59956 10.2502,-22.07256c1.03533,-1.398 2.75992,-3.84061 4.00825,-5.67394c3.71433,-5.45433 5.44376,-7.03817 11.79043,-10.6815c6.432,-3.69233 13.11774,-6.389 18.82974,-7.553c10.37733,-2.115 22.01128,-1.50335 35.31328,1.84032c6.37167,1.60133 11.01953,3.19324 13.81586,4.70391c1.95733,1.05767 2.06393,1.20136 2.40926,2.23969c0.22567,0.67933 1.31814,2.49446 2.50814,4.15146c1.18967,1.657 3.42439,5.53737 4.98139,8.65037l2.94988,5.82644l2.47427,-1.73081c2.436,-3.34233 3.20883,-5.8834 5.00183,-16.37107c2.184,-12.776 2.70675,-17.05224 2.90375,-23.37391c0.30467,-9.77733 -0.90361,-15.2325 -5.20794,-23.59517c-3.06367,-5.95233 -4.57207,-7.3885 -9.9044,-9.55717c-12.86533,-5.232 -34.90933,-10.74162 -55.776,-13.93562c-8.93933,-1.36833 -14.23259,-1.90052 -20.77159,-2.07452c-3.39167,-0.09033 -6.81702,-0.19961 -7.55035,-0.23994c-0.73333,-0.04 -2.1093,-0.03222 -2.9343,0.01345z" data-paper-data="{&quot;wickUUID&quot;:&quot;0732c9d5-6abe-4c1a-b5aa-56f39b9562fa&quot;,&quot;wickType&quot;:&quot;path&quot;}" fill="#0080ff" fill-rule="evenodd"/><path d="M403.93807,171.52073c-4.63,1.601 -16.94,4.803 -27.357,7.115c-20.408,4.529 -53.073,12.928 -55.654,14.309c-1.891,1.012 -2.083,3.176 -0.342,3.845c0.684,0.262 8.49,-1.461 17.347,-3.829c8.857,-2.368 25.059,-6.201 36.004,-8.517c10.946,-2.316 24.447,-5.718 30.003,-7.561c5.556,-1.843 10.941,-3.35 11.966,-3.35c2.292,0 3.965,-2.671 2.556,-4.08c-1.587,-1.588 -5.609,-1.015 -14.523,2.068z" data-paper-data="{&quot;wickUUID&quot;:&quot;49389fe7-7cf8-45d2-98f5-9bf41fcd191f&quot;,&quot;wickType&quot;:&quot;path&quot;}" fill="#000000" fill-rule="evenodd"/><path d="M416.12232,167.24448c-0.824,0.993 -0.848,1.771 -0.103,3.406c2.306,5.062 2.045,5.309 -13.975,13.206c-14.309,7.053 -28.92,12.398 -37.35,13.662c-4.189,0.628 -13.944,-0.976 -28.096,-4.622c-12.864,-3.313 -14.95,-3.591 -16.803,-2.236c-1.934,1.414 -1.188,3.916 1.168,3.916c0.92,0 6.785,1.31 13.033,2.911c16.826,4.312 25.471,5.77 30.8,5.194c8.962,-0.969 33.853,-10.362 44.613,-16.835c1.157,-0.696 4.377,-2.34 7.155,-3.652l5.05,-2.387l0.248,-4.66c0.198,-3.718 -0.113,-5.119 -1.534,-6.926c-2.05,-2.606 -2.724,-2.763 -4.206,-0.977z" data-paper-data="{&quot;wickUUID&quot;:&quot;c8fa464b-bfbd-490a-a532-ed359186360f&quot;,&quot;wickType&quot;:&quot;path&quot;}" fill="#000000" fill-rule="evenodd"/><path d="M392.08864,183.07748c-0.599,1.561 1.823,6.368 3.541,7.027c0.706,0.271 1.875,-0.098 2.597,-0.82c1.189,-1.189 1.159,-1.576 -0.319,-4.113c-1.747,-3.001 -5.019,-4.178 -5.819,-2.094z" data-paper-data="{&quot;wickUUID&quot;:&quot;2e0ccc3f-ce76-4c83-b556-c38accdca538&quot;,&quot;wickType&quot;:&quot;path&quot;}" fill="#000000" fill-rule="evenodd"/><path d="M364.01111,189.03599c-0.571,0.688 -0.882,3.097 -0.734,5.682c0.221,3.864 0.51,4.524 2.079,4.747c1.179,0.168 1.979,-0.277 2.268,-1.262c0.424,-1.444 0.797,-7.04 0.621,-9.309c-0.111,-1.43 -3.009,-1.333 -4.234,0.142z" data-paper-data="{&quot;wickUUID&quot;:&quot;1c69693f-3105-4f9c-9eee-d7efbbba60ca&quot;,&quot;wickType&quot;:&quot;path&quot;}" fill="#000000" fill-rule="evenodd"/><path d="M359.05107,112.44517c-1.077,1.582 -9.007,9.809 -17.623,18.284l-15.665,15.409l-1.108,-2.717c-0.737,-1.804 -1.683,-2.717 -2.817,-2.717c-2.41,0 -2.719,1.517 -1.378,6.776c1.695,6.649 3.184,6.54 11.912,-0.87c8.416,-7.145 30.52,-29.752 31.768,-32.492c2.185,-4.796 -2.021,-6.179 -5.089,-1.673z" data-paper-data="{&quot;wickUUID&quot;:&quot;4293a4b3-b0d2-42a7-a616-9a2ce17f98b1&quot;,&quot;wickType&quot;:&quot;path&quot;}" fill="#000000" fill-rule="evenodd"/><path d="M343.18709,134.46417c-0.844,2.2 0.327,17.984 1.433,19.317c2.88,3.471 7.17,-0.023 7.962,-6.484c0.459,-3.751 0.195,-5.284 -1.604,-9.329c-1.94,-4.361 -2.407,-4.84 -4.716,-4.84c-1.564,0 -2.762,0.521 -3.075,1.336z" data-paper-data="{&quot;wickUUID&quot;:&quot;caed43e7-759a-4bd1-93c8-f8e3b19223e1&quot;,&quot;wickType&quot;:&quot;path&quot;}" fill="#000000" fill-rule="evenodd"/><path d="M414.17889,157.25822c-1.43,1.431 -0.254,3.741 3.017,5.923c4.233,2.824 6.52,6.93 6.522,11.711c0.002,4.405 -1.611,6.458 -10.375,13.207c-8.999,6.929 -10.858,8.051 -14.652,8.84c-2.626,0.545 -3.17,1.013 -3.17,2.725c0,3.028 4.637,3.245 9.872,0.462c5.096,-2.71 19.607,-14.254 21.447,-17.062c0.779,-1.189 1.573,-4.325 1.764,-6.969c0.493,-6.82 -2.717,-13.544 -8.096,-16.955c-3.905,-2.476 -5.315,-2.896 -6.329,-1.882z" data-paper-data="{&quot;wickUUID&quot;:&quot;0d4f2772-f0fb-405a-b507-29424f85d4d2&quot;,&quot;wickType&quot;:&quot;path&quot;}" fill="#000000" fill-rule="evenodd"/><path d="M391.0798,106.51241c7.493,2.181 11.596,4.233 11.596,5.8c0,0.482 1.013,2.205 2.252,3.829c3.419,4.483 8.181,14.19 10.191,20.775c6.242,20.451 6.473,21.521 5.152,23.874c-0.685,1.221 -1.989,2.22 -2.897,2.22c-1.352,0 -1.665,-0.609 -1.728,-3.367c-0.067,-2.929 -1.182,-7.348 -5.732,-22.727c-1.272,-4.297 -6.855,-15.23 -9.458,-18.519c-3.618,-4.572 -4.672,-5.368 -8.189,-6.182c-1.914,-0.443 -6.511,-1.658 -10.214,-2.701c-5.418,-1.525 -8.874,-1.895 -17.677,-1.892c-9.561,0.003 -11.793,0.284 -17.677,2.226c-8.139,2.687 -18.494,8.708 -20.675,12.022c-0.876,1.331 -3.611,5.293 -6.077,8.804c-6.953,9.902 -14.914,33.267 -14.914,43.773c0,9.355 7.019,24.338 14.212,30.338c4.993,4.164 21.871,9.08 28.717,8.364c3.045,-0.319 17.183,-5.339 23.6,-8.38c3.739,-1.773 8.296,-3.026 14.223,-3.912c8.773,-1.312 11.001,-2.031 13.76,-4.439c1.357,-1.184 1.625,-1.183 2.822,0.014c1.934,1.933 0.721,4.635 -2.909,6.477c-1.703,0.864 -7.25,2.22 -12.328,3.013c-6.129,0.957 -10.799,2.225 -13.889,3.771c-4.918,2.462 -20.589,8.015 -24.858,8.81c-4.744,0.883 -22.404,-3.482 -29.576,-7.311c-8.844,-4.72 -18.797,-24.204 -18.808,-36.818c-0.011,-11.614 8.673,-37.758 15.52,-46.728c1.506,-1.973 3.976,-5.498 5.489,-7.832c2.123,-3.278 4.297,-5.159 9.539,-8.254c7.834,-4.626 15.793,-7.707 22.44,-8.686c11.775,-1.735 23.477,-0.617 38.093,3.638z" data-paper-data="{&quot;wickUUID&quot;:&quot;5dda8639-40b8-4f2f-afe8-54b4cbb2d9f7&quot;,&quot;wickType&quot;:&quot;path&quot;}" fill="#000000" fill-rule="evenodd"/><path d="M314.12819,36.6021c-7.238,2.059 -8.148,4.067 -3.835,8.459c4.633,4.719 20.813,31.971 19.664,33.12c-0.287,0.287 -7.433,-2.91 -15.88,-7.103c-8.447,-4.194 -17.063,-8.021 -19.146,-8.506c-7.046,-1.638 -21.358,-2.043 -36.616,-1.035c-13.457,0.889 -16.187,1.334 -24.411,3.974c-11.36,3.648 -11.388,3.663 -17.973,9.424c-5.023,4.394 -19.384,22.376 -21.394,26.787c-1.349,2.96 0.328,4.065 8.643,5.699c3.935,0.773 16.118,3.627 27.072,6.343c19.61,4.862 20.078,5.029 30.303,10.836c5.713,3.244 12.812,7.615 15.778,9.715c4.505,3.189 5.128,3.911 3.788,4.392c-13.739,4.93 -31.923,13.533 -34.408,16.28c-2.046,2.261 -3.732,7.415 -3.775,11.544c-0.047,4.468 1.306,4.984 8.508,3.248c7.474,-1.801 41.08,-6.412 48.694,-6.68c5.588,-0.197 6.342,-0.417 6.564,-1.913c0.526,-3.539 -1.644,-4.051 -12.311,-2.907c-12.065,1.295 -43.346,5.828 -45.247,6.557c-1.139,0.437 -1.28,0.17 -0.783,-1.488c0.333,-1.112 1.122,-2.842 1.754,-3.846c1.758,-2.792 22.656,-12.492 39.291,-18.237c0.81,-0.279 1.473,-1.227 1.473,-2.105c0,-2.021 -14.366,-12.153 -27.662,-19.51c-9.347,-5.173 -10.097,-5.423 -33.249,-11.088c-13.027,-3.188 -24.538,-5.979 -25.579,-6.203c-1.042,-0.224 -1.882,-0.874 -1.867,-1.444c0.052,-1.944 13.848,-18.611 19.057,-23.024c4.402,-3.728 6.589,-4.846 14.31,-7.316c8.005,-2.561 10.934,-3.037 24.073,-3.913c14.684,-0.979 26.778,-0.648 34.284,0.939c2.083,0.441 10.606,4.137 18.939,8.213c22.551,11.032 25.673,11.902 25.673,7.154c0,-2.876 -7.594,-17.474 -15.999,-30.754l-6.592,-10.416l2.668,-0.618c1.467,-0.34 7.781,-0.401 14.031,-0.135c21.24,0.902 59.36,9.03 76.357,16.282c5.295,2.259 5.533,2.497 9.164,9.18c5.978,11.003 6.643,20.656 2.906,42.21c-0.441,2.547 -1.231,7.077 -1.755,10.067c-1.091,6.233 -2.313,8.909 -5.969,13.072c-2.868,3.268 -2.742,5.481 0.312,5.481c2.012,0 5.741,-3.613 7.761,-7.519c1.714,-3.316 5.832,-25.742 6.84,-37.251c0.659,-7.533 -0.832,-19.012 -3.042,-23.412c-7.074,-14.082 -6.669,-13.506 -10.777,-15.302c-19.863,-8.684 -58.442,-17.112 -81.978,-17.911c-10.108,-0.343 -14.745,-0.169 -17.659,0.66z" data-paper-data="{&quot;wickUUID&quot;:&quot;af5701f5-4b3b-43ce-b848-fe5da4ccffff&quot;,&quot;wickType&quot;:&quot;path&quot;}" fill="#000000" fill-rule="evenodd"/><path d="M323.31129,330.97352c2.215,-0.373 4.341,-0.722 4.724,-0.777c0.31057,-0.04367 3.46717,0.42548 7.5214,1.10802c-0.63705,1.29782 -1.14026,3.1571 -1.31375,4.85005c-3.15424,-0.57108 -5.46844,-0.94766 -5.63965,-0.90707c-0.233,0.054 -2.15,0.391 -4.262,0.749c-5.32,0.901 -13.247,5.112 -16.883,8.969c-9.034,9.581 -14.888,22.311 -13.977,30.394c0.805,7.143 7.843,13.022 17.441,14.567c9.595,1.546 29.717,-1.435 34.736,-5.146c1.33,-0.983 2.961,-1.58 3.624,-1.326c1.466,0.563 1.578,3.173 0.194,4.556c-1.688,1.688 -0.042,1.143 4.799,-1.589c4.694,-2.649 11.351,-9.302 13.536,-13.527c1.45616,-2.8159 2.19251,-10.41275 1.70705,-15.23569c1.87984,-0.59784 3.55159,-1.35467 4.92927,-2.20836c0.65007,3.06956 0.46442,6.63802 -0.46532,12.78605c-1.02,6.742 -1.739,8.148 -7.715,15.1c-3.268,3.801 -6.08,5.87 -13.126,9.656l-8.968,4.818l-7.996,-0.005c-12.425,-0.008 -31.51,-3.082 -36.473,-5.874c-4.892,-2.753 -10.391,-9.431 -11.165,-13.559c-0.778,-4.143 0.157,-12.002 2.006,-16.868c1.878,-4.941 10.72,-18.191 14.608,-21.889c3.49,-3.319 12.77,-7.737 18.158,-8.642z" data-paper-data="{&quot;wickUUID&quot;:&quot;13a0f6e5-d729-4e3f-9577-0b95e3303bb0&quot;,&quot;wickType&quot;:&quot;path&quot;}" fill="#000000" fill-rule="nonzero"/><path d="M367.32179,369.42043c-4.096,1.586 -10.755,4.881 -12.593,6.23c-4.302,3.161 -24.024,5.721 -31.82,4.131c-2.656,-0.542 -8.238,-1.57 -12.405,-2.285c-4.615,-0.791 -9.576,-2.304 -12.693,-3.871c-5.418,-2.723 -7.93,-2.662 -7.93,0.194c0,2.695 8.687,6.529 17.498,7.723c4.033,0.546 7.751,1.316 8.262,1.711c1.625,1.255 15.633,1.748 23.482,0.826c11.569,-1.359 14.444,-2.187 23.829,-6.865c7.373,-3.674 8.639,-4.598 8.418,-6.141c-0.268,-1.871 -1.833,-2.51 -4.048,-1.653z" data-paper-data="{&quot;wickUUID&quot;:&quot;a68a4178-7223-48ab-b905-091ef83f00f5&quot;,&quot;wickType&quot;:&quot;path&quot;}" fill="#000000" fill-rule="evenodd"/><path d="M284.00928,317.48988c1.609,-0.378 3.953,-0.726 5.209,-0.774c3.414,-0.129 11.163,3.042 15.472,6.331c2.096,1.6 5.841,3.806 8.323,4.904l4.514,1.996l3.142,-3.395c3.391,-3.665 10.736,-7.397 14.56,-7.397c2.32,0 4.465,1.691 5.339,4.209c0.60254,1.73681 -0.10176,3.51507 -1.8657,4.98755c-0.70684,0.29405 -1.37051,0.7195 -1.93854,1.27089c-0.31301,0.16316 -0.64278,0.31927 -0.98876,0.46756c-2.727,1.169 -3.807,2.116 -3.807,3.339c0,3.868 -6.325,7.792 -8.053,4.995c-0.633,-1.023 -4.491,3.14 -4.543,4.902c-0.051,1.736 -5.166,6.974 -6.81,6.974c-0.855,0 -1.908,-0.632 -2.34,-1.405c-0.68,-1.214 -1.133,-1.262 -3.329,-0.352c-1.399,0.579 -3.431,0.928 -4.517,0.774c-2.715,-0.384 -3.071,-3.498 -0.599,-5.229c1.04,-0.729 1.724,-1.457 1.521,-1.618c-0.204,-0.16 -3.732,-1.104 -7.841,-2.095c-8.794,-2.123 -10.519,-3.123 -13.919,-8.064c-5.014,-7.287 -4.012,-13.296 2.471,-14.821zM296.19428,323.99488c-3.364,-1.692 -7.02,-2.257 -10.101,-1.56c-3.129,0.707 -3.107,2.817 0.076,7.628c1.658,2.504 3.164,3.625 6.112,4.546c9.58,2.994 16.368,3.862 17.381,2.223c0.286,-0.463 1.634,-0.842 2.995,-0.842c3.719,0 2.994,-1.255 -1.943,-3.363c-2.431,-1.039 -6.124,-3.12 -8.207,-4.625c-2.084,-1.505 -4.924,-3.308 -6.313,-4.007zM328.13128,327.19788c-1.541,1.235 -1.514,1.252 0.47,0.307c1.157,-0.551 2.262,-1.14 2.455,-1.309c1.155,-1.011 -1.584,-0.072 -2.925,1.002z" data-paper-data="{&quot;wickUUID&quot;:&quot;bdb82dfe-8b18-4781-b7d3-f51cad3a1157&quot;,&quot;wickType&quot;:&quot;path&quot;}" fill="#000000" fill-rule="nonzero"/><path d="M334.21257,329.81739c-1.098,1.098 -0.538,11.102 0.866,15.447c2.047,6.339 8.221,12.844 14.4,15.172c10.789,4.066 30.269,-0.013 24.184,-5.063c-0.981,-0.814 -2.017,-0.726 -5.042,0.429c-5.036,1.923 -14.619,1.379 -19.465,-1.105c-6.19,-3.174 -10.453,-10.819 -10.453,-18.744c0,-2.219 -0.23,-4.633 -0.511,-5.366c-0.515,-1.341 -2.938,-1.811 -3.979,-0.77z" data-paper-data="{&quot;wickUUID&quot;:&quot;3b962eaf-65cd-4284-9b4b-e34bc24cb969&quot;,&quot;wickType&quot;:&quot;path&quot;}" fill="#000000" fill-rule="evenodd"/><path d="M341.44033,303.37236c-0.459,0.579 -1.315,2.567 -1.9,4.419c-0.586,1.852 -1.762,4.754 -2.614,6.448c-1.539,3.064 -4.068,12.702 -4.376,16.677c-0.194,2.503 1.971,3.242 3.886,1.327c0.718,-0.717 1.733,-3.483 2.255,-6.144c0.523,-2.662 1.728,-6.713 2.679,-9.003c2.578,-6.206 4.24,-12.267 3.729,-13.598c-0.561,-1.462 -2.544,-1.531 -3.659,-0.126z" data-paper-data="{&quot;wickUUID&quot;:&quot;b1858eeb-6098-407f-8bde-0ce1ee02cdce&quot;,&quot;wickType&quot;:&quot;path&quot;}" fill="#000000" fill-rule="evenodd"/><path d="M407.32459,285.07731c-3.562,5.715 -4.556,6.667 -10.172,9.75c-8.5,4.665 -11.312,7.411 -11.312,11.045c0,1.582 -0.572,4.802 -1.271,7.156c-0.699,2.354 -1.827,7.984 -2.507,12.511c-2.265,15.093 -5.724,31.902 -6.806,33.083c-0.589,0.642 -1.704,0.924 -2.479,0.626c-1.778,-0.682 -1.506,-4.236 1.527,-19.891c1.211,-6.25 2.787,-14.773 3.503,-18.94c3.496,-20.358 3.646,-20.894 6.559,-23.354c1.505,-1.271 5.464,-3.827 8.798,-5.681c4.79451,-2.6658 7.41094,-4.94814 10.24679,-9.55444c1.44799,0.70117 3.03253,1.36467 4.69308,1.9721c-0.25139,0.42081 -0.51127,0.84634 -0.77987,1.27734z" data-paper-data="{&quot;wickUUID&quot;:&quot;cd0a77d4-a3b4-4186-b23a-c68537eb79f4&quot;,&quot;wickType&quot;:&quot;path&quot;}" fill="#000000" fill-rule="nonzero"/><path d="M402.67565,198.10776c0,1.017 0.861,3.195 1.915,4.841c1.053,1.645 2.311,3.726 2.795,4.624c1.069,1.981 2.067,2.366 3.608,1.392c2.929,-1.854 -2.524,-12.611 -6.424,-12.675c-1.399,-0.022 -1.894,0.453 -1.894,1.818z" data-paper-data="{&quot;wickUUID&quot;:&quot;12f60e33-10d4-418a-beb0-7703237e9c64&quot;,&quot;wickType&quot;:&quot;path&quot;}" fill="#000000" fill-rule="evenodd"/><path d="M406.44387,334.95076c-0.474,0.34 -1.501,1.625 -2.283,2.855c-0.886,1.394 -2.94,2.737 -5.452,3.565c-5.312,1.751 -16.637,3.681 -20.865,3.557c-3.034,-0.089 -3.367,0.104 -3.367,1.952c0,3.011 4.158,3.905 12.205,2.623c7.563,-1.205 17.413,-3.987 18.111,-5.116c0.276,-0.447 1.225,-1.199 2.109,-1.672c1.353,-0.724 1.825,-0.441 2.975,1.782c1.081,2.092 1.243,3.893 0.777,8.642c-0.324,3.3 -1.006,6.513 -1.515,7.141c-1.634,2.015 -10.055,5.229 -16.21,6.186c-5.047,0.784 -6.959,0.698 -12.276,-0.554c-7.698,-1.813 -9.543,-1.577 -9.543,1.22c0,1.7 0.536,2.188 2.946,2.679c1.62,0.33 5.029,1.04 7.576,1.577c11.022,2.324 27.996,-2.426 32.038,-8.966c2.471,-3.998 2.75,-17.018 0.457,-21.381c-2.885,-5.493 -5.561,-7.614 -7.683,-6.09z" data-paper-data="{&quot;wickUUID&quot;:&quot;98715854-4256-4cff-8214-f2291647a648&quot;,&quot;wickType&quot;:&quot;path&quot;}" fill="#000000" fill-rule="evenodd"/><path d="M403.57387,287.90385c-1.152,2.153 -1.152,18.141 0,33.308c1.098,14.453 1.94,18.145 4.135,18.145c2.434,0 2.626,-0.975 1.603,-8.13c-0.519,-3.63 -1.183,-15.119 -1.475,-25.53c-0.472,-16.814 -0.69,-18.96 -1.948,-19.2c-0.779,-0.15 -1.821,0.484 -2.315,1.407z" data-paper-data="{&quot;wickUUID&quot;:&quot;d2a31e02-4eed-4e1c-a23c-32ee2f422375&quot;,&quot;wickType&quot;:&quot;path&quot;}" fill="#000000" fill-rule="evenodd"/><path d="M407.33236,362.25617c-2.564,6.637 -4.466,8.75 -10.97,12.192c-3.582,1.895 -5.548,2.285 -13.198,2.613c-8.201,0.352 -9.254,0.222 -12.019,-1.486c-2.44,-1.509 -3.27,-1.673 -4.268,-0.845c-1.933,1.604 -1.488,2.957 1.791,5.459c3.023,2.305 3.059,2.31 14.1,1.922c9.766,-0.344 11.564,-0.643 15.277,-2.541c6.84,-3.496 10.982,-7.899 13.483,-14.336c2.479,-6.379 2.459,-8.505 -0.085,-8.871c-1.45,-0.208 -2.129,0.765 -4.111,5.893z" data-paper-data="{&quot;wickUUID&quot;:&quot;bd8c6664-7020-4fbd-b3f9-8986ebc8c1b9&quot;,&quot;wickType&quot;:&quot;path&quot;}" fill="#000000" fill-rule="evenodd"/><path d="M435.3794,261.04082c2.866,-1.558 4.416,-1.65 23.272,-1.381c17.115,0.243 20.713,0.516 23.546,1.782c1.838,0.822 7.185,5.147 11.881,9.612c4.696,4.465 10.349,9.065 12.562,10.223c2.212,1.157 5.199,3.56 6.637,5.341c2.197,2.721 2.607,3.936 2.572,7.634c-0.052,5.484 -3.068,10.995 -7.821,14.288c-1.836,1.273 -4.892,4.528 -6.79,7.234c-3.916,5.583 -7.68,9.037 -10.665,9.786c-1.122,0.281 -2.039,0.819 -2.039,1.195c0,0.376 2.415,2.892 5.368,5.591c6.481,5.923 7.18,7.182 7.824,14.082c0.706,7.554 0.093,9.129 -4.981,12.805c-3.863,2.799 -5.139,3.248 -10.068,3.542c-12.125,0.724 -21.655,-2.598 -26.936,-9.39c-1.5,-1.928 -4.06,-4.941 -5.69,-6.696c-1.631,-1.754 -3.535,-4.263 -4.232,-5.575c-0.698,-1.313 -1.915,-3.519 -2.704,-4.903c-3.144,-5.512 -7.511,-20.812 -8.176,-28.646c-0.365,-4.292 -0.938,-8.078 -1.273,-8.413c-0.335,-0.335 -3.661,2.719 -7.391,6.788c-9.073,9.896 -12.601,11.554 -18.308,8.602c-8.683,-4.489 -8.001,-12.62 1.945,-23.192c5.236,-5.566 6.799,-7.932 9.416,-14.244c3.446,-8.315 7.339,-13.504 12.051,-16.065zM458.6514,264.66982c-17.083,-0.288 -18.717,-0.188 -21.079,1.294c-4.08,2.56 -6.652,6.206 -9.683,13.724c-2.347,5.822 -3.879,8.115 -9.02,13.496c-8.567,8.967 -9.875,14.307 -4.22,17.231l2.596,1.342l9.45,-9.834c8.281,-8.618 9.748,-9.801 11.859,-9.559c3.339,0.383 4.7,3.65 5.411,12.994c1.293,16.983 7.936,32.18 19.153,43.817c6.54,6.784 8.465,7.629 19.102,8.387c6.565,0.468 6.838,0.41 10.836,-2.276l4.102,-2.756l-0.415,-5.166l-0.414,-5.165l-9.369,-9.615c-8.056,-8.266 -9.369,-10 -9.369,-12.363c0,-3.358 1.679,-3.602 6.716,-0.976c4.951,2.58 6.688,1.762 12.236,-5.766c2.647,-3.591 6.263,-7.552 8.035,-8.803c3.899,-2.75 5.766,-5.448 6.376,-9.211c0.589,-3.63 -1.56,-6.459 -7.982,-10.507c-2.617,-1.649 -7.978,-6.152 -11.913,-10.006c-3.935,-3.853 -8.67,-7.673 -10.522,-8.488c-2.793,-1.228 -6.523,-1.534 -21.886,-1.794z" data-paper-data="{&quot;wickUUID&quot;:&quot;77fa7dab-8f97-4261-9842-5f5de2512584&quot;,&quot;wickType&quot;:&quot;path&quot;}" fill="#000000" fill-rule="nonzero"/><path d="M469.42868,332.58711c-4.961,3.024 -6.927,15.322 -3.616,22.617c1.183,2.607 2.075,3.558 3.138,3.347c1.579,-0.312 1.701,-2.356 0.583,-9.78c-0.819,-5.438 0.972,-10.872 4.12,-12.5c2.548,-1.318 10.699,-1.216 18.103,0.226c2.685,0.523 2.79,0.446 2.525,-1.842c-0.356,-3.07 -2.025,-3.525 -13.323,-3.628c-7.375,-0.068 -9.285,0.191 -11.53,1.56z" data-paper-data="{&quot;wickUUID&quot;:&quot;0fa7a31c-0823-4af3-9aef-0209072e0dc2&quot;,&quot;wickType&quot;:&quot;path&quot;}" fill="#000000" fill-rule="evenodd"/><path d="M507.47348,292.6166c-1.852,1.151 -4.693,2.686 -6.313,3.411c-10.309,4.611 -13.96,7.83 -17.484,15.413c-3.578,7.701 -4.124,13.045 -1.373,13.438c1.499,0.214 2.055,-0.613 3.673,-5.471c1.048,-3.148 2.641,-6.937 3.539,-8.421c1.84,-3.038 8.255,-7.975 12.066,-9.284c4.922,-1.692 13.468,-7.502 13.468,-9.156c0,-2.403 -3.653,-2.369 -7.576,0.07z" data-paper-data="{&quot;wickUUID&quot;:&quot;5c8df784-dd35-4a79-b8b8-75e5e2554ba5&quot;,&quot;wickType&quot;:&quot;path&quot;}" fill="#000000" fill-rule="evenodd"/><path d="M480.95848,295.3756c0,0.823 2.321,3.222 5.261,5.437c2.893,2.179 7.24,5.538 9.659,7.463c4.555,3.623 6.965,3.911 6.965,0.83c0,-2.491 -16.292,-15.203 -19.483,-15.203c-1.727,0 -2.402,0.414 -2.402,1.473z" data-paper-data="{&quot;wickUUID&quot;:&quot;8d00fc67-391d-4cf4-a0fc-47d49a8b27d0&quot;,&quot;wickType&quot;:&quot;path&quot;}" fill="#000000" fill-rule="evenodd"/><path d="M478.18871,315.22135c3.743,4.949 4.316,7.482 1.802,7.966c-1.49189,0.2875 -3.72161,-1.70938 -5.96756,-4.77593c-0.29829,-1.60276 -0.72725,-3.24151 -1.28824,-4.83142c-0.992,-2.812 -1.804,-9.059 -1.804,-13.882c0,-0.35904 -0.00182,-0.71798 -0.00535,-1.07525c0.47858,4.69766 3.43816,11.54281 7.26315,16.5986z" data-paper-data="{&quot;wickUUID&quot;:&quot;10036111-fc27-417d-a582-f28bb02c7bd8&quot;,&quot;wickType&quot;:&quot;path&quot;}" fill="#000000" fill-rule="evenodd"/><path d="M411.65391,294.46335c-1.694,1.695 0.317,6.115 5.203,11.434c2.237,2.435 5.772,3.068 7.496,1.344c1.333,-1.333 -0.212,-4.079 -2.295,-4.079c-1.04,0 -2.58,-1.616 -4.39,-4.606c-2.545,-4.206 -4.542,-5.565 -6.014,-4.093z" data-paper-data="{&quot;wickUUID&quot;:&quot;984d87a1-0266-453c-967f-85a0d9f64af6&quot;,&quot;wickType&quot;:&quot;path&quot;}" fill="#000000" fill-rule="evenodd"/><path d="M394.15588,203.04276c-7.375,1.745 -12.317,6.748 -13.072,13.232c-0.397,3.416 -0.054,4.743 2.443,9.446c1.908,3.592 3.49,5.559 4.607,5.726c3.383,0.507 3.018,-2.977 -1.041,-9.935c-4.04,-6.924 3.728,-14.289 15.088,-14.305c4.984,-0.007 13.786,6.057 17.71,12.201c2.958,4.632 10.036,11.494 21.084,20.439c6.019,4.874 14.397,12.249 18.618,16.39c5.23,5.13 8.177,7.432 9.25,7.226c5.117,-0.986 -0.167,-7.168 -21.134,-24.73c-14.343,-12.014 -20.498,-17.898 -23.834,-22.786c-3.076,-4.507 -6.289,-7.458 -11.629,-10.681c-4.478,-2.702 -5.815,-3.103 -10.101,-3.029c-2.718,0.046 -6.312,0.409 -7.989,0.806z" data-paper-data="{&quot;wickUUID&quot;:&quot;7efd8f0f-5e40-4f7f-b7e0-122c6131dbf4&quot;,&quot;wickType&quot;:&quot;path&quot;}" fill="#000000" fill-rule="evenodd"/><path d="M388.75938,242.74429c-0.617,1.608 7.35,17.72 11.782,23.827c6.006,8.275 17.914,19.904 20.067,19.597c3.473,-0.497 2.293,-2.85 -5.421,-10.802c-8.64,-8.907 -11.831,-13.362 -18.013,-25.15c-3.187,-6.076 -4.702,-8.148 -6.107,-8.351c-1.027,-0.148 -2.066,0.247 -2.308,0.879z" data-paper-data="{&quot;wickUUID&quot;:&quot;038b3358-0ae0-4122-accf-2d3fb8de5c11&quot;,&quot;wickType&quot;:&quot;path&quot;}" fill="#000000" fill-rule="evenodd"/><path d="M404.48564,270.9653c-0.427,0.81 -0.913,5.062 -1.082,9.449c-0.27,6.999 -0.131,8.011 1.131,8.262c0.992,0.197 1.842,-0.679 2.736,-2.818c3.026,-7.241 0.445,-21.037 -2.785,-14.893z" data-paper-data="{&quot;wickUUID&quot;:&quot;c6b50483-c3f8-4822-8de0-6aa8c676ceac&quot;,&quot;wickType&quot;:&quot;path&quot;}" fill="#000000" fill-rule="evenodd"/><path d="M342.83359,215.29127c-0.951,1.146 -1.185,5.684 -1.185,22.974c0,18.791 0.242,22.838 1.894,31.647c1.042,5.556 2.689,12.257 3.661,14.892l1.768,4.79l-1.962,4.048c-1.079,2.227 -2.852,5.261 -3.941,6.744c-2.312,3.148 -2.15,5.615 0.392,5.979c2.038,0.292 3.665,-1.707 7.749,-9.517c3.102,-5.933 3.224,-7.731 0.932,-13.763c-0.942,-2.477 -2.552,-8.916 -3.577,-14.31c-1.632,-8.579 -1.866,-12.593 -1.866,-32.1c0,-19.72 -0.154,-22.324 -1.34,-22.553c-0.737,-0.142 -1.873,0.384 -2.525,1.169z" data-paper-data="{&quot;wickUUID&quot;:&quot;8f9472a4-3e44-46d5-9339-d008b32bfa19&quot;,&quot;wickType&quot;:&quot;path&quot;}" fill="#000000" fill-rule="evenodd"/><path d="M296.26478,213.03827c-6.613,5.255 -6.994,6.392 -4.872,14.517c0.735,2.815 0.469,3.737 -2.914,10.101c-6.432,12.098 -7.907,15.59 -8.422,19.938c-0.438,3.697 -0.197,4.693 1.926,7.977c1.335,2.065 3.076,4.934 3.869,6.377c1.764,3.208 3.743,4.083 5.427,2.399c1.128,-1.128 0.967,-1.809 -1.469,-6.218c-1.505,-2.723 -3.278,-5.59 -3.94,-6.371c-1.994,-2.351 -0.539,-7.133 5.47,-17.975c4.881,-8.806 5.573,-10.601 5.533,-14.343c-0.026,-2.352 -0.497,-5.119 -1.049,-6.149c-0.894,-1.672 -0.662,-2.184 2.163,-4.772c1.741,-1.595 3.802,-2.899 4.579,-2.899c1.368,0 10.042,12.133 10.042,14.046c0,0.496 -1.702,2.297 -3.783,4.002c-4.822,3.952 -7.744,8.968 -8.478,14.555c-0.506,3.858 -0.382,4.467 1.002,4.906c0.868,0.276 2.585,1.04 3.813,1.698c5.063,2.711 8.968,1.225 16.355,-6.223c3.782,-3.814 5.401,-8.393 5.401,-15.274c0,-2.597 -0.521,-3.69 -2.59,-5.43c-1.503,-1.265 -3.63,-2.179 -5.069,-2.179c-2.185,0 -3.019,-0.836 -7.02,-7.038c-2.497,-3.871 -5.171,-7.28 -5.942,-7.576c-3.198,-1.227 -6.973,-0.5 -10.032,1.931zM321.02978,232.03827c2.745,3.308 -1.733,13.14 -7.701,16.907c-2.882,1.819 -3.815,2.039 -5.465,1.287c-2.161,-0.985 -2.557,-3.275 -1.08,-6.259c0.874,-1.767 11.58,-12.82 12.666,-13.077c0.29,-0.069 1.001,0.445 1.58,1.142z" data-paper-data="{&quot;wickUUID&quot;:&quot;d981f233-ea1d-4781-b56b-e19ce95d73a2&quot;,&quot;wickType&quot;:&quot;path&quot;}" fill="#000000" fill-rule="evenodd"/><path d="M303.6668,239.57504c-0.579,1.509 5.605,8.893 10.032,11.979c2.898,2.02 3.319,2.105 4.511,0.912c1.661,-1.661 1.258,-2.291 -5.673,-8.863c-5.528,-5.242 -7.978,-6.354 -8.87,-4.028z" data-paper-data="{&quot;wickUUID&quot;:&quot;6b1a7069-16d4-4eca-acd2-16538ab76a4b&quot;,&quot;wickType&quot;:&quot;path&quot;}" fill="#000000" fill-rule="evenodd"/><path d="M290.20779,225.24128c-0.676,1.762 -0.118,3.042 4.097,9.388c2.53,3.81 4.099,5.383 5.377,5.39c3.203,0.02 3.101,-2.519 -0.298,-7.455c-1.755,-2.547 -3.578,-5.413 -4.053,-6.369c-1.07,-2.155 -4.423,-2.78 -5.123,-0.954z" data-paper-data="{&quot;wickUUID&quot;:&quot;91264eec-8c7b-4ccc-b63d-24cd7c375371&quot;,&quot;wickType&quot;:&quot;path&quot;}" fill="#000000" fill-rule="evenodd"/><path d="M305.44829,252.45955c-0.465,0.34 -1.871,1.994 -3.123,3.675c-3.423,4.596 -9.946,10.884 -12.164,11.727c-2.226,0.846 -2.685,3.932 -0.699,4.694c2.557,0.981 5.418,-0.658 10.845,-6.214c5.859,-5.998 9.34,-11.411 8.592,-13.36c-0.485,-1.265 -2.1,-1.509 -3.451,-0.522z" data-paper-data="{&quot;wickUUID&quot;:&quot;48b78529-5d4f-464f-b41f-e4eeb619e6ed&quot;,&quot;wickType&quot;:&quot;path&quot;}" fill="#000000" fill-rule="evenodd"/><path d="M295.35303,253.09506c-8.676,5.973 -13.3,10.551 -12.573,12.447c0.968,2.523 3.814,1.531 8.768,-3.055c2.661,-2.464 6.22,-5.135 7.908,-5.936c3.988,-1.893 6.193,-5.083 4.731,-6.845c-0.574,-0.692 -1.282,-1.255 -1.573,-1.252c-0.29,0.003 -3.558,2.091 -7.261,4.641z" data-paper-data="{&quot;wickUUID&quot;:&quot;d1236e05-0e4a-4c47-bdb5-58fdb867d758&quot;,&quot;wickType&quot;:&quot;path&quot;}" fill="#000000" fill-rule="evenodd"/><path d="M321.25454,243.18755c0.231,1.273 0.914,3.515 1.517,4.982c0.955,2.322 0.891,3.123 -0.494,6.194c-0.874,1.939 -2.437,4.082 -3.473,4.76c-3.074,2.014 -10.421,3.613 -16.718,3.637c-6.559,0.026 -8.311,0.705 -7.852,3.044c0.282,1.433 1.147,1.578 9.132,1.531c6.844,-0.041 9.927,-0.458 13.756,-1.864c5.358,-1.967 6.253,-2.804 9.395,-8.788c2.564,-4.885 2.607,-7.113 0.233,-12.001c-1.437,-2.956 -2.307,-3.81 -3.884,-3.81c-1.757,0 -1.975,0.313 -1.612,2.315z" data-paper-data="{&quot;wickUUID&quot;:&quot;2d6cb62e-8d6a-4389-8f7d-31f8ece9d9ac&quot;,&quot;wickType&quot;:&quot;path&quot;}" fill="#000000" fill-rule="evenodd"/><path d="M339.21282,251.42555c-0.744,0.743 -1.352,1.818 -1.352,2.389c0,1.697 -5.407,6.418 -7.351,6.418c-0.989,0 -2.85,-0.4 -4.136,-0.888c-3.334,-1.268 -6.368,-0.341 -6.034,1.843c0.326,2.138 5.393,4.065 10.736,4.083c3.431,0.011 4.069,-0.347 7.786,-4.369c4.211,-4.557 5.196,-7.929 2.876,-9.854c-0.906,-0.752 -1.482,-0.666 -2.525,0.378z" data-paper-data="{&quot;wickUUID&quot;:&quot;f0ddc7ec-ad2d-4f41-8048-0abfb16d2243&quot;,&quot;wickType&quot;:&quot;path&quot;}" fill="#000000" fill-rule="evenodd"/><path d="M336.79857,217.06152c-1.123,2.235 -2.721,6.139 -3.552,8.676c-3.034,9.261 -6.531,14.671 -9.505,14.701c-0.695,0.007 -1.686,0.698 -2.201,1.535c-0.75,1.221 -0.612,1.763 0.698,2.736c2.569,1.908 4.974,1.439 7.815,-1.522c2.715,-2.83 6.261,-10.04 7.862,-15.986c0.505,-1.875 1.674,-4.433 2.599,-5.683c2.049,-2.771 1.882,-7.848 -0.271,-8.255c-0.959,-0.182 -2.051,1.022 -3.445,3.798z" data-paper-data="{&quot;wickUUID&quot;:&quot;2114eafd-0715-46c5-927e-0b65c0e8d33b&quot;,&quot;wickType&quot;:&quot;path&quot;}" fill="#000000" fill-rule="evenodd"/><path d="M342.35559,216.08752c-0.845,2.203 0.369,8.035 3.146,15.105c2.284,5.815 2.694,8.054 3.003,16.414c0.271,7.338 0.894,11.411 2.578,16.835c2.651,8.542 3.128,9.259 6.154,9.259c3.34,0 7.56,-4.969 7.56,-8.901c0,-2.945 -2.754,-9.447 -4.532,-10.7c-0.517,-0.364 -2.122,-0.491 -3.568,-0.281l-2.628,0.381l-0.422,-8.557c-0.349,-7.094 -0.943,-9.979 -3.474,-16.866c-1.679,-4.569 -3.053,-9.133 -3.053,-10.143c0,-3.324 -3.705,-5.305 -4.764,-2.546zM358.76959,260.69352c1.251,2.745 1.24,4.831 -0.031,6.102c-0.781,0.781 -1.343,0.121 -2.508,-2.949c-1.161,-3.057 -1.267,-4.105 -0.466,-4.614c1.6,-1.016 1.955,-0.844 3.005,1.461z" data-paper-data="{&quot;wickUUID&quot;:&quot;006492c7-7963-421c-88be-ce6dc287d0c1&quot;,&quot;wickType&quot;:&quot;path&quot;}" fill="#000000" fill-rule="evenodd"/><path d="M331.95733,256.65532c-2.217,2.002 -2.632,3.07 -3.073,7.908c-0.709,7.772 -0.075,9.621 4.007,11.704c5.834,2.976 9.741,1.082 11.745,-5.696c0.9,-3.042 0.843,-4.091 -0.398,-7.34c-1.764,-4.62 -5.591,-8.891 -7.965,-8.891c-0.964,0 -2.907,1.042 -4.316,2.315zM338.34433,262.54732c1.63,2.484 1.909,7.413 0.5,8.822c-0.473,0.474 -1.835,0.617 -3.026,0.318c-1.789,-0.449 -2.166,-1.036 -2.166,-3.369c0,-4.437 0.953,-8.086 2.112,-8.086c0.584,0 1.744,1.042 2.58,2.315z" data-paper-data="{&quot;wickUUID&quot;:&quot;bbe61fef-a53a-4942-943d-40702b948f48&quot;,&quot;wickType&quot;:&quot;path&quot;}" fill="#000000" fill-rule="evenodd"/><path d="M337.15558,214.08577c-0.39,1.075 -1.176,10.288 -1.747,20.473c-1.103,19.666 -0.723,23.557 2.244,22.99c1.311,-0.251 1.528,-1.929 2.002,-15.424c0.293,-8.328 0.671,-18.351 0.842,-22.273c0.272,-6.261 0.131,-7.168 -1.16,-7.427c-0.934,-0.187 -1.73,0.42 -2.181,1.661z" data-paper-data="{&quot;wickUUID&quot;:&quot;618a8ae0-8373-4f46-97bb-b30a90f41343&quot;,&quot;wickType&quot;:&quot;path&quot;}" fill="#000000" fill-rule="evenodd"/></g><g fill="none" fill-rule="nonzero" stroke="none" stroke-width="1" stroke-linecap="butt" stroke-linejoin="miter" stroke-miterlimit="10" stroke-dasharray="" stroke-dashoffset="0" font-family="sans-serif" font-weight="normal" font-size="12" text-anchor="start" style="mix-blend-mode: normal"/><g id="wick_project_gui" fill="none" fill-rule="nonzero" stroke="none" stroke-width="1" stroke-linecap="butt" stroke-linejoin="miter" stroke-miterlimit="10" stroke-dasharray="" stroke-dashoffset="0" font-family="sans-serif" font-weight="normal" font-size="12" text-anchor="start" style="mix-blend-mode: normal"/></g></svg>