<svg version="1.1" xmlns="http://www.w3.org/2000/svg" xmlns:xlink="http://www.w3.org/1999/xlink" width="1260" height="594" viewBox="0,0,1260,594"><g transform="translate(214.61833,-3.9561) scale(1.03356,1.03356)"><g id="wick_project_bg" fill="#cccccc" fill-rule="nonzero" stroke="none" stroke-width="1" stroke-linecap="butt" stroke-linejoin="miter" stroke-miterlimit="10" stroke-dasharray="" stroke-dashoffset="0" font-family="none" font-weight="none" font-size="none" text-anchor="none" style="mix-blend-mode: normal"><rect x="0" y="0" width="720" height="480"/></g><g data-paper-data="{&quot;wickUUID&quot;:&quot;d0bee359-afde-4c21-8a43-684f392e3982&quot;,&quot;wickType&quot;:&quot;clipsandpaths&quot;}" fill="none" fill-rule="evenodd" stroke="none" stroke-width="1" stroke-linecap="butt" stroke-linejoin="miter" stroke-miterlimit="10" stroke-dasharray="" stroke-dashoffset="0" font-family="none" font-weight="none" font-size="none" text-anchor="none" style="mix-blend-mode: normal"><path d="M320.44388,345.9865c-7.51233,2.43133 -9.84038,5.56191 -13.68905,18.50958c-1.98233,6.66833 -2.1869,8.80334 -1.2449,9.65601c0.90267,0.817 6.00272,3.38514 7.91005,3.90114c4.43633,1.2 13.60514,0.80497 20.23014,-0.86803c4.97233,-1.256 28.64496,-8.50474 32.05329,-9.80607c5.038,-1.924 4.87197,-3.73352 -4.4307,-8.46519l-7.31428,-3.7493l-0.66456,1.04114c0,1.719 -1.37872,2.06203 -4.16239,1.0647c-1.48767,-0.53333 -1.53207,-0.54066 -2.84374,0.05067c-1.21067,0.546 -1.40051,0.56945 -2.32751,0.17712c-0.581,-0.246 -1.83052,-0.49512 -3.02219,-0.60479c-2.06733,-0.19 -1.84101,-0.02464 -2.39701,-1.13764c-0.32067,-0.64167 -0.38106,-1.26985 -0.38106,-1.85685c-0.001,-1.57833 -0.92996,-4.90272 -1.50829,-5.78572c-0.966,-1.47433 -3.39279,-2.37044 -7.53412,-2.65177c-5.374,-0.36533 -6.60868,-0.14367 -8.67368,0.525z" data-paper-data="{&quot;wickUUID&quot;:&quot;936e4d06-96b6-4265-95d2-37c86d79a225&quot;,&quot;wickType&quot;:&quot;path&quot;}" fill="#ff0000"/><path d="M379.97623,331.96797c-0.061,1.09367 -3.22583,20.92429 -3.6365,22.86362c-0.64733,3.058 -0.5071,4.42617 0.1449,5.68717c0.63267,1.223 3.9394,2.97142 5.75573,2.97609c1.222,0.00333 2.09141,-0.32691 2.09641,-1.54891c0.00667,-1.62567 0.29776,-2.03992 2.02709,-2.87792c1.07467,-0.52033 1.76105,-1.31803 2.33138,-2.47836c1.22867,-2.49933 1.97097,-5.89102 1.95264,-8.78402c-0.02,-3.181 -0.80154,-5.78214 -2.55354,-8.46781c-1.264,-1.93733 -8.08911,-7.88919 -8.11811,-7.36986z" data-paper-data="{&quot;wickUUID&quot;:&quot;91a2f20a-266f-48fd-8c95-1ab9c15e9df1&quot;,&quot;wickType&quot;:&quot;path&quot;}" fill="#ff0000"/><path d="M352.08195,342.30546c-2.29,0.94167 -4.92856,3.11768 -4.92856,3.83735c0,0.446 1.55499,1.41206 4.93966,1.31006c4.54933,-0.137 6.42022,-1.36468 6.42022,-3.02768c0,-2.123 -3.08365,-3.4964 -6.43132,-2.11973z" data-paper-data="{&quot;wickUUID&quot;:&quot;dc9aa565-fcc6-47e5-96db-dda58201f3cb&quot;,&quot;wickType&quot;:&quot;path&quot;}" fill="#0000ff"/><path d="M363.60504,371.71757c-3.27133,1.35 -22.58242,7.40945 -27.99509,8.78378c-6.052,1.53667 -9.42163,1.983 -14.93796,1.97067c-6.294,-0.014 -8.27976,-0.37466 -12.14876,-2.14833c-1.83967,-0.84333 -4.38707,-1.32179 -4.79407,-1.26346c-1.50633,0.21633 -2.40698,4.05903 -1.36198,6.26103c0.32667,0.68833 1.64145,2.1622 2.53345,2.68487c2.057,1.20567 8.7694,3.38402 11.18173,3.64035c2.27367,0.24167 9.84472,-0.23509 15.52172,-0.97942c5.965,-0.782 9.07438,-1.84471 18.03438,-6.19338c4.49167,-2.17967 8.6812,-4.13559 9.13953,-4.26226c3.283,-0.906 9.76423,-5.84265 9.5019,-7.22398c-0.17267,-0.90967 -2.34885,-2.22987 -4.67485,-1.26987z" data-paper-data="{&quot;wickUUID&quot;:&quot;ec1c988d-e9ea-44a1-9195-d8f218a8b2be&quot;,&quot;wickType&quot;:&quot;path&quot;}" fill="#ffffff"/><path d="M363.60504,371.71757c-3.27133,1.35 -22.58242,7.40945 -27.99509,8.78378c-6.052,1.53667 -9.42163,1.983 -14.93796,1.97067c-6.294,-0.014 -8.27976,-0.37466 -12.14876,-2.14833c-1.83967,-0.84333 -4.38707,-1.32179 -4.79407,-1.26346c-1.50633,0.21633 -2.40698,4.05903 -1.36198,6.26103c0.32667,0.68833 1.64145,2.1622 2.53345,2.68487c2.057,1.20567 8.7694,3.38402 11.18173,3.64035c2.27367,0.24167 9.84472,-0.23509 15.52172,-0.97942c5.965,-0.782 9.07438,-1.84471 18.03438,-6.19338c4.49167,-2.17967 8.6812,-4.13559 9.13953,-4.26226c3.283,-0.906 9.76423,-5.84265 9.5019,-7.22398c-0.17267,-0.90967 -2.34885,-2.22987 -4.67485,-1.26987z" data-paper-data="{&quot;wickUUID&quot;:&quot;777117ac-b769-405f-84a5-3f34717e919c&quot;,&quot;wickType&quot;:&quot;path&quot;}" fill="#ffffff"/><path d="M386.70907,331.75291c1.848,1.97567 4.37786,5.35623 5.21953,7.00423c1.40833,2.75767 2.28536,6.24963 2.31936,9.19396c0.04633,4.01233 2.16658,1.65877 2.20958,-2.67223c0.05267,-5.289 -1.16642,-8.79872 -4.35509,-12.63039c-1.79833,-2.161 -3.89865,-3.75559 -5.08565,-3.75559c-0.683,0 -1.6624,1.41202 -0.30773,2.86002z" data-paper-data="{&quot;wickUUID&quot;:&quot;44e68074-d968-4b85-9fd3-fb62838587ee&quot;,&quot;wickType&quot;:&quot;path&quot;}" fill="#ffffff"/><path d="M431.51352,303.41696c-0.106,0.106 -0.28209,2.80724 0.84458,4.48191c1.12667,1.67467 2.43899,3.71431 2.84932,4.43564c0.74067,1.30233 2.24729,0.59939 2.46129,-0.25361c0.239,-0.95233 -0.55283,-2.7851 -1.89816,-4.40043c-2.06433,-2.47867 -4.08003,-4.44084 -4.25703,-4.26351z" data-paper-data="{&quot;wickUUID&quot;:&quot;e61c1495-f960-4757-98f0-74748d7dd0ea&quot;,&quot;wickType&quot;:&quot;path&quot;}" fill="#ffffff"/><path d="M424.25638,297.10278c2.31533,2.879 2.83435,3.31798 3.61202,3.12265c0.474,-0.119 2.15479,-1.28573 2.22412,-1.35473c0.23367,-0.23367 -1.36432,-2.42633 -2.37065,-3.23966c-1.20133,-0.97067 -4.94496,-3.14278 -5.26963,-3.14278c-0.12733,0 0.39314,2.86052 1.80414,4.61452z" data-paper-data="{&quot;wickUUID&quot;:&quot;cb7309a0-49ae-4e5f-8dab-7d195b149ce9&quot;,&quot;wickType&quot;:&quot;path&quot;}" fill="#ffffff"/><path d="M394.57614,297.44712c0,0.47233 1.12881,2.0505 1.38048,2.0505c0.704,0 1.46375,-1.60121 1.10342,-2.27454c-0.47167,-0.88133 -2.4839,-0.75863 -2.4839,0.22404z" data-paper-data="{&quot;wickUUID&quot;:&quot;04ca6c6c-639c-414f-8d6b-387e41bcf9ec&quot;,&quot;wickType&quot;:&quot;path&quot;}" fill="#ffffff"/><path d="M394.32358,287.19937c0.28533,0.40733 0.65379,1.72534 0.65379,2.06667c0,0.341 1.66444,2.35366 3.64244,4.40066c1.97767,2.04733 4.8085,5.23969 6.24217,7.04202c2.52633,3.17567 4.21927,4.6433 5.35627,4.64563c0.30233,0.00067 1.56239,0.53958 2.58906,1.07991c1.027,0.54 3.00924,0.34684 3.00924,0.24217c0,-0.105 -0.5218,-1.953 -1.17347,-3.58167c-1.75233,-4.38 -2.20421,-6.83996 -1.61088,-8.79429c0.25967,-0.85667 0.23764,-2.2146 0.23964,-2.40327c0.002,-0.18867 -1.73698,-0.75034 -3.42698,-0.98034c-5.633,-0.76733 -10.87959,-2.45988 -13.57626,-4.38021c-1.24333,-0.885 -2.59169,-0.26095 -1.94502,0.66272z" data-paper-data="{&quot;wickUUID&quot;:&quot;2ee3a6a4-7039-4f68-9f74-132915f85776&quot;,&quot;wickType&quot;:&quot;path&quot;}" fill="#ffffff"/><path d="M310.38515,238.76131c-1.96433,0.32833 -6.60676,2.1437 -8.17109,3.13837c-3.037,1.93067 -4.69817,4.87744 -5.66217,10.22377c-1.13033,6.26667 -1.35063,6.7865 -6.96196,16.47783c-1.97667,3.414 -2.76035,5.50959 -2.62835,6.03426c0.184,0.734 5.08546,6.41366 5.54646,6.41366c0.13433,0 1.80569,-1.18148 2.23536,-2.23581c1.72233,-4.227 4.04851,-8.67073 4.95018,-9.42973c0.66267,-0.55733 1.23627,-0.60954 2.63694,-0.77221c1.93867,-0.225 2.42286,-0.65285 2.42286,-1.56685c0,-1.58667 1.49597,-5.92086 2.8313,-8.11819c2.75133,-4.52633 7.06074,-8.41551 10.49507,-9.49784c0.999,-0.315 2.04304,-1.57266 1.99337,-1.71333c-0.04933,-0.14033 -1.546,-1.97056 -3.112,-3.67456c-1.566,-1.704 -3.19262,-3.58948 -3.60962,-4.18548c-0.41733,-0.596 -1.17206,-1.28607 -1.29706,-1.26107c-0.125,0.025 -1.21096,0.09051 -1.66929,0.16718z" data-paper-data="{&quot;wickUUID&quot;:&quot;c79e22c1-5226-41c1-ab4c-98bff753085c&quot;,&quot;wickType&quot;:&quot;path&quot;}" fill="#ffffff"/><path d="M327.25456,259.27889c0,0.74567 -2.4932,5.4184 -3.8702,7.25273c-1.25,1.66533 -1.40537,2.68765 -0.9937,3.10465c0.413,0.418 2.02586,0.62829 3.11919,-0.25304c2.05867,-1.65933 4.95694,-5.34668 4.95694,-6.26001c0,-1.02533 -1.01753,-4.18751 -1.41853,-4.18751c-0.16333,0 -1.7937,0.14851 -1.7937,0.34318z" data-paper-data="{&quot;wickUUID&quot;:&quot;55b4baa4-21dc-45c2-89b3-3c99a86e8bf9&quot;,&quot;wickType&quot;:&quot;path&quot;}" fill="#ffffff"/><path d="M334.93035,291.34069c-0.58333,1.25933 -2.41697,4.32544 -4.06964,6.80511c-3.19333,4.79133 -4.49878,7.41718 -5.23811,10.19485c-0.942,3.53833 -0.6424,4.67028 2.9196,9.05595c2.823,3.476 6.81116,9.62581 9.03483,13.92414c2.17233,4.19867 5.26743,7.56273 5.4731,6.77406c0.77833,-2.98367 2.82665,-7.35799 4.15765,-9.71699c4.04567,-7.16967 4.70978,-8.97062 6.30478,-17.09495c0.939,-4.78133 1.13295,-5.47589 1.92595,-6.27289c0.69567,-0.69933 -0.29358,-1.03231 0.73709,-1.03231c2.68133,0 2.81709,1.0432 1.14442,9.25653c-1.38233,6.78667 -2.29473,9.36024 -5.25206,14.98624c-2.69,5.11867 -4.5214,9.47881 -4.1654,9.83514c0.094,0.09367 2.23783,0.76376 3.63683,0.29409c3.033,-1.018 6.22827,-1.22001 7.78894,-0.41268c1.34933,0.69767 2.34337,2.05562 2.81204,3.61962c0.55,1.83667 0.51179,4.29554 -0.12121,5.62987c-0.72367,1.52467 -2.22213,2.61116 -4.04913,3.12249l-1.54572,1.78881l5.76963,2.97677c3.10067,1.58967 6.0819,3.21045 6.6509,3.61545l2.05501,0.59724l1.04923,-3.0268c0.813,-2.57733 1.3294,-5.47208 2.3984,-13.44841c0.307,-2.29167 0.76172,-5.07692 1.00805,-6.17692c0.24633,-1.1 0.98544,-5.72953 1.64644,-10.31286c1.46767,-10.17633 2.53218,-15.51958 3.98418,-19.95125c1.324,-4.04233 2.21874,-5.81036 4.22507,-8.46136c0.828,-1.094 0.99714,-3.23334 0.94181,-3.28901c-0.05567,-0.05533 -2.75676,0.22755 -5.54776,0.68588c-9.379,1.539 -17.21748,2.25041 -23.25181,2.09974c-6.17967,-0.15433 -6.48683,-0.24112 -11.79616,-2.88412c-3.55167,-1.76833 -5.25397,-2.8876 -7.1273,-4.6246l-2.08433,-1.18566z" data-paper-data="{&quot;wickUUID&quot;:&quot;7ceaabda-a721-4f50-8b84-e1a57566816b&quot;,&quot;wickType&quot;:&quot;path&quot;}" fill="#0000ff"/><path d="M377.97421,250.7893c0.18967,3.512 2.97262,6.24994 3.57329,4.35761c0.288,-0.908 -0.28671,-4.21387 -1.25904,-6.01487l-2.37663,-1.73995z" data-paper-data="{&quot;wickUUID&quot;:&quot;9ac28a85-b860-47bb-8788-140eb7d2faeb&quot;,&quot;wickType&quot;:&quot;path&quot;}" fill="#0000ff"/><path d="M354.1196,250.64996c-0.64533,0.92167 -0.70303,6.78031 -0.1137,8.47031c0.66033,1.895 3.79431,2.36066 6.53964,0.67399c1.094,-0.67233 1.69179,-1.76965 1.50012,-3.38865c-0.23667,-1.99633 -1.41301,-4.00083 -3.10768,-5.34283c-1.79067,-1.41833 -4.14671,-1.37149 -4.81838,-0.41282z" data-paper-data="{&quot;wickUUID&quot;:&quot;0159c970-2f09-485e-ae04-04845eabada0&quot;,&quot;wickType&quot;:&quot;path&quot;}" fill="#0000ff"/><path d="M338.92886,214.25049c-2.537,5.66833 -7.79437,12.05244 -11.42037,13.81677c-2.27067,1.105 -4.95469,1.41195 -10.19802,1.42028c-4.76867,0.00767 -7.81893,0.53632 -12.1536,2.10465l-3.51291,1.30686l-0.41106,2.2578c-0.1,1.358 0.89548,2.04613 1.60981,1.6638c1.693,-0.906 7.3701,-2.63767 8.71477,-2.63767c1.92467,0 2.28778,0.298 4.70245,2.814c4.707,4.90433 8.32027,9.25658 9.82694,11.82491c0.475,0.80933 1.37104,1.7216 2.00704,2.03927c0.67533,0.337 1.64516,1.35046 2.47949,2.59479l2.19826,2.3741l2.60392,-3.08466c2.369,-3.14433 2.89916,-4.11442 3.15349,-5.76775c0.10333,-0.67 0.75755,-2.56291 1.36522,-3.90958c1.259,-2.79 1.34494,-4.0702 0.68894,-10.3882c-0.21867,-2.10833 -0.40803,-5.53216 -0.4087,-7.74949c-0.001,-4.56967 -0.89621,-4.47543 1.23212,-4.47543c2.24567,0 2.39922,0.91432 2.80389,6.87665c0.29433,4.34033 1.31608,8.00286 1.63175,8.31019c0.069,0.06733 1.19878,-4.08124 1.22911,-8.23491c0.03033,-4.15367 0.15141,-8.92951 0.26974,-10.62318l0.14497,-3.44798l-2.22296,-0.3108c-0.98633,0.135 -1.94386,0.05077 -2.59919,-0.2829c-2.14767,-1.09367 -2.6941,-0.81819 -3.7351,1.50848z" data-paper-data="{&quot;wickUUID&quot;:&quot;482c3013-91f5-42b7-a01e-dc1a2625e8f2&quot;,&quot;wickType&quot;:&quot;path&quot;}" fill="#0000ff"/><path d="M391.9079,213.37633c-2.04433,1.36467 -3.47497,2.10731 -4.43464,2.10731c-0.81167,0 -1.05248,-0.84049 -1.05248,-1.92416l-0.45817,-1.45263l-2.60235,0.16102c-1.23733,0.117 -3.32461,0.24612 -4.42461,0.25012c-2.61567,0.01 -3.53791,1.00733 -3.09991,2.47266c0.951,3.182 1.69021,10.27425 1.87954,17.91725c0.10867,4.4 0.32615,8.3959 0.46948,8.78257c0.15933,0.43 0.97552,1.29509 1.62019,1.42409c1.57,0.314 2.45788,0.81341 3.45155,2.63908c2.57433,4.73 2.64429,11.55627 0.02362,14.17694c-1.76933,1.76933 -3.91449,1.11674 -6.88649,-1.56526c-2.44533,-2.20667 -2.29733,-1.592 -2.585,-17.62133c-0.26333,-14.69267 -0.42229,-16.91175 -1.68129,-23.40775l-1.27072,-4.47416l-9.17213,0.03263l-9.00891,0.10339l-1.1254,2.46402c-0.631,2.42233 -0.89691,13.30492 -0.43958,17.96259c0.21067,2.147 0.69487,4.99044 1.0562,6.14344c0.36133,1.15333 0.75318,2.80382 0.86885,3.65882l0.48872,2.02706l1.99356,0.33862c6.246,1.1 10.56381,5.54855 10.97648,11.38088c0.217,3.06467 -0.03919,3.66787 -1.61952,5.0952c-2.153,1.94533 -7.89154,3.89679 -10.51621,3.39812c-3.23,-0.614 -5.00237,-5.20242 -4.95704,-12.02775c0.01367,-2.009 0.2469,-3.43371 0.59223,-4.43704c0.44233,-1.286 0.45417,-1.97794 0.12217,-2.58927c-0.22433,-0.41333 -0.92479,-2.42364 -1.52412,-4.34864l-1.39547,-3.91764l-1.16657,3.39992c0.18833,3.041 0.162,3.16612 -2.02133,10.10112c-0.69267,2.2 -1.36704,4.72255 -1.50637,5.63922c-0.13933,0.91667 -0.38885,1.97048 -0.58152,2.42881c-0.19233,0.45833 -1.36386,3.39741 -2.59719,6.51408c-1.95867,4.95 -2.2997,6.18437 -2.42303,8.5137c-0.125,2.36133 0.03987,3.41353 0.96754,5.95986c1.28133,3.517 2.53362,5.44977 4.34929,6.8171c1.767,1.33067 7.77906,4.59596 9.53506,5.21563c4.05033,1.429 16.07361,0.70729 29.25094,-1.76771c4.55833,-0.85633 5.10319,-1.04286 5.10319,-1.81786c0,-0.44433 0.77998,-1.67646 1.28731,-2.18379c0.896,-0.896 0.9544,-1.20818 0.5234,-2.63551c-0.28833,-0.955 -0.38298,-2.29136 -0.26431,-3.91736c0.396,-5.43367 0.5708,-6.38007 1.31847,-7.2304c1.24633,-1.417 1.6186,-2.7867 1.06227,-3.63937c-0.71267,-1.09167 -1.10816,-4.29915 -1.52649,-12.29182c-0.206,-3.94167 -0.5853,-9.50337 -0.8473,-12.4367c-1.45733,-16.32667 -1.4601,-17.48951 0.17357,-18.69451c1.209,-0.892 1.00335,-0.42413 1.72135,1.07187c1.04233,2.17233 2.16058,14.10425 2.47891,26.37825c0.11433,4.4 0.32938,8.31949 0.45371,8.55516c0.14867,0.28233 2.04402,0.24184 2.74769,-0.84449c0.587,-0.90567 1.20135,-1.88106 1.87835,-2.47573c3.80033,-3.33667 10.28942,-4.12848 14.79909,-1.72781c2.08467,1.11 6.70763,5.78584 8.5913,8.61251c2.409,3.61467 2.75717,5.88784 1.81417,10.81551c-0.76233,3.98533 -0.98209,7.9506 -0.52442,9.33693c0.31133,0.94367 1.03461,1.90373 2.14161,2.34606c0.77033,0.30767 2.14549,1.09177 2.99416,1.70077l2.60381,0.97241l0.39736,-3.51326c0.21267,-3.78867 -0.25502,-10.69787 -0.93869,-14.0422c-0.91067,-4.45567 -2.41591,-8.44721 -6.08291,-16.07088c-3.90367,-8.115 -6.07353,-13.00005 -9.1412,-20.57638c-3.17367,-7.838 -5.18623,-12.208 -6.41623,-14.01067c-2.84067,-4.16367 -6.67764,-7.73118 -10.33331,-9.56718l-2.66716,-1.22085z" data-paper-data="{&quot;wickUUID&quot;:&quot;a8694b32-c477-40e1-8c8a-1f3cd779b725&quot;,&quot;wickType&quot;:&quot;path&quot;}" fill="#0000ff"/><path d="M417.06536,298.07237c0.73833,4.72 6.51881,13.73546 9.59548,14.96646c0.67367,0.26933 1.78245,1.08353 2.17212,1.53153c0.38933,0.448 1.44752,0.94561 1.83752,0.94561c0.67267,0 1.4549,-1.30878 0.94657,-2.01978c-1.32467,-1.85233 -4.29569,-6.36098 -4.44336,-6.74131c-0.08933,-0.23133 -0.69751,-0.77844 -1.24484,-1.09044c-0.547,-0.31233 -0.91387,-0.74121 -0.91587,-1.07054c-0.00233,-0.32967 -1.53136,-2.48205 -3.39036,-4.77372l-3.5048,-4.29919z" data-paper-data="{&quot;wickUUID&quot;:&quot;938b74ae-4364-43a7-912b-e6503c1e1002&quot;,&quot;wickType&quot;:&quot;path&quot;}" fill="#ffe6cc"/><path d="M397.30296,304.75979c0,1.306 4.74062,5.64198 6.16895,5.64198c0.855,0 1.396,-2.02041 -1.30967,-4.67241c-2.772,-2.71667 -4.85928,-2.0769 -4.85928,-0.96957z" data-paper-data="{&quot;wickUUID&quot;:&quot;4e957c18-9180-4f3c-b777-feb0e50d12b0&quot;,&quot;wickType&quot;:&quot;path&quot;}" fill="#ffe6cc"/><path d="M403.10525,259.87089c-1.73933,0.79433 -3.53913,2.64081 -5.37413,5.57814c-2.104,3.367 -5.01962,10.48027 -4.76795,11.48294c0.30133,1.20067 4.33169,5.57923 6.45569,6.85123c1.034,0.61933 3.16248,1.66941 4.36881,2.14474c2.232,0.87867 10.52224,2.66766 10.98791,2.37999c0.14033,-0.08667 1.43663,-2.14346 1.9033,-3.67313c1.95833,-6.42033 2.51371,-13.31834 1.33504,-15.55834c-0.90333,-1.71633 -7.51231,-8.2175 -9.26398,-9.0655c-1.823,-0.88267 -3.88402,-0.9444 -5.64469,-0.14007z" data-paper-data="{&quot;wickUUID&quot;:&quot;b44bfa76-e768-4988-b30f-ba4e08543570&quot;,&quot;wickType&quot;:&quot;path&quot;}" fill="#ffe6cc"/><path d="M302.36549,272.60974c-0.73433,0.78533 -3.56767,7.34716 -3.322,7.60649c0.167,0.177 4.39446,-1.12043 5.85046,-2.25743c0.67733,-0.529 1.44781,-1.35779 1.55881,-1.70779c0.111,-0.34967 0.66779,-1.00681 1.02512,-1.12014c0.76533,-0.243 0.76872,-2.01599 0.07639,-2.59032c-0.26767,-0.22233 -1.78236,-0.859 -2.47703,-0.951c-1.03867,-0.138 -2.07808,0.34219 -2.71175,1.02019z" data-paper-data="{&quot;wickUUID&quot;:&quot;88acab8e-52aa-44b7-9bb2-18c65bbe48e6&quot;,&quot;wickType&quot;:&quot;path&quot;}" fill="#ffe6cc"/><path d="M321.73768,252.88091c-0.36667,0.159 -2.38431,0.83153 -3.44498,1.21753c-3.77633,1.37467 -6.8854,5.18576 -9.16173,11.23343c-0.61167,1.62533 -0.57957,3.36475 -0.2709,3.45842c1.06833,0.32467 4.52633,0.97524 5.015,0.97524c0.69667,0 4.46639,-3.54792 6.37839,-6.02492c2.102,-2.72333 3.2975,-5.52092 3.3175,-7.76692c0.01867,-2.064 -0.85228,-3.51845 -1.83328,-3.09278z" data-paper-data="{&quot;wickUUID&quot;:&quot;e7f54da7-ed3f-4fde-a26c-7602c40835f8&quot;,&quot;wickType&quot;:&quot;path&quot;}" fill="#ffe6cc"/><path d="M316.56735,272.87756c-2.145,1.24533 -3.85536,2.53541 -3.85536,2.89841c0,0.171 1.39899,1.63214 1.84166,1.63214c0.87133,0 5.78536,-3.47575 5.52136,-3.90308c-0.25567,-0.41367 -1.88833,-1.5678 -3.50766,-0.62747z" data-paper-data="{&quot;wickUUID&quot;:&quot;52996978-0244-4be2-b376-ff3baa0bc7a2&quot;,&quot;wickType&quot;:&quot;path&quot;}" fill="#ffe6cc"/><path d="M361.05531,124.18843c-6.40767,0.56867 -12.36326,2.29644 -23.88259,6.91844c-12.60633,5.05833 -18.16261,8.1576 -21.64328,12.07893c-1.41033,1.589 -2.38887,3.22504 -2.79687,4.95104c-0.18367,0.77667 0.3381,1.89427 1.25877,2.0786c0.571,0.114 2.4681,0.78235 4.07177,1.42368c1.60367,0.64167 3.68617,1.19022 4.0695,1.19022c0.83233,0 1.93757,-1.32126 1.93757,-2.69526c0,-1.60667 -0.03124,-2.16585 1.11876,-2.64218c1.43433,-0.594 1.48987,-0.66935 2.53454,1.30865c1.54933,2.93333 0.84318,6.73229 -1.45482,8.16529c-0.70033,0.43633 -1.02721,1.02656 -0.89854,1.35323c0.44233,1.12333 0.76547,3.15301 0.77914,5.22601c0.017,2.56233 0.66189,2.67421 -1.18178,2.67421c-2.54333,0 -3.28487,-1.40087 -3.31354,-5.44587c-0.01567,-2.22133 0.10957,-2.79925 0.55424,-3.12558c0.474,-0.34767 -0.26257,-1.04882 -2.17824,-1.54249c-1.23567,-0.31833 -3.20989,-1.03277 -4.35889,-1.5761c-1.149,-0.54333 -3.11073,-0.74165 -3.18606,-0.74165c-0.075,0 -0.33398,2.21839 -0.33398,4.31372c0,2.095 -0.15504,5.13552 -0.35337,6.56152c-0.769,5.53067 1.96061,19.68113 4.97361,25.96246c2.14833,4.479 5.21906,6.88894 16.21973,12.36261c7.87967,3.92033 10.31462,4.91088 13.50895,5.45755c1.92633,0.32967 2.6184,0.35214 3.24073,-0.08386c1.03,-0.72167 2.33124,-0.63629 3.07624,0.20004c0.62733,0.70433 0.85398,0.70895 9.41798,0.50095c16.70433,-0.40567 32.95733,-2.25998 37.685,-4.29365c1.846,-0.79433 4.97417,-3.8799 5.88517,-5.88657c1.01333,-2.23267 0.8978,-4.68639 -0.5072,-7.40139l-1.19266,-2.24542l0.2326,-8.38051c0.31667,-11.53367 -0.4521,-20.27521 -2.36443,-26.87921c-0.43967,-1.51933 -1.04557,-4.2454 -1.32424,-5.9344c-0.279,-1.689 -0.80821,-3.77876 -1.16588,-4.60376c-0.35767,-0.825 -1.14289,-3.11132 -1.51789,-4.66665c-1.535,-6.36533 -3.14758,-7.83244 -13.86225,-12.58811l-5.29963,-2.35342l-7.40904,0.03367c-3.98467,0.02567 -8.72479,0.18226 -10.33912,0.32526zM387.81553,136.91678c0.43467,0.77333 -0.06125,-0.36596 -0.54625,0.65104c-0.44333,0.93 -0.85268,1.21869 -3.51535,2.58102c-6.73233,3.44433 -23.86994,10.72372 -28.91461,12.28239l-2.50165,1.21432l2.39286,1.1642c1.58867,0.14533 1.41298,-0.12507 2.03165,0.79593c0.90933,1.354 1.56345,4.03314 1.34812,5.94414c-0.373,3.30933 -1.76857,4.8069 -4.3909,4.48123c-1.63033,-0.20233 -2.39536,-1.38298 -3.00236,-3.40998c-0.36733,-1.22533 -0.24839,-0.96938 0.39728,-2.26171c0.397,-0.795 0.71754,-2.03572 0.71754,-2.78272c0,-0.74733 0.16875,-1.87584 0.35575,-2.36717c0.27567,-0.72567 -0.57843,-1.76792 -0.9621,-1.62059c-1.687,0.64733 -4.1242,1.06821 -5.21453,0.70821c-1.47633,-0.48733 -1.39747,-0.72425 -1.6428,-4.69558c-0.17167,-2.78333 -0.64656,-2.21788 -0.04856,-2.81588c1.43767,-1.43767 3.13574,-0.61944 3.96407,1.62656c0.303,0.82133 1.47042,1.6072 1.75309,1.66353c1.14367,0.229 17.16895,-6.3718 24.85228,-10.23747c1.49933,-0.75433 3.88382,-1.86463 5.47682,-2.5243c4.742,-1.963 6.50998,-2.0695 7.44965,-0.39717zM398.96553,191.21398c2.574,1.36133 4.0173,4.73302 2.94497,7.55335c-0.41233,1.084 -0.84763,0.89734 -7.0983,1.74501c-6.531,0.88567 -10.92347,1.73193 -14.3998,2.77526c-4.07433,1.22267 -6.17623,1.58332 -9.3989,1.59365c-2.35967,0.00733 -3.01412,-0.11922 -4.63145,-0.79422c-1.096,-0.45767 -4.14907,-1.50898 -6.89907,-2.37498c-5.76733,-1.81567 -6.47055,-2.12455 -7.22355,-3.27422c-0.44033,-0.67167 -0.09842,-0.22873 0.20025,-0.8844l-0.38742,-0.04119l7.63213,-0.00018c8.933,0 10.15879,-0.17335 21.58879,-3.05702c9.57167,-2.41467 14.6323,-3.54719 16.0333,-3.58619c0.567,-0.01567 0.83338,-0.08087 1.63905,0.34513z" data-paper-data="{&quot;wickUUID&quot;:&quot;8a7d2d02-9069-440d-adfb-c24d54e8caf8&quot;,&quot;wickType&quot;:&quot;path&quot;}" fill="#ffe6cc"/><path d="M321.11493,42.17058c-4.92833,0.50367 -10.24055,1.34627 -16.30955,2.55894c-17.52733,3.50233 -29.32459,8.85984 -41.89859,19.02951c-5.13367,4.152 -5.4295,4.80535 -3.50183,5.63202c0.87367,0.37433 3.09709,1.51963 4.40909,1.78996c2.876,0.59267 3.89368,1.23007 8.83601,5.7214c6.00767,5.459 9.47835,9.93015 15.28302,19.69982c5.45067,9.17367 6.25405,11.42213 4.17638,12.58313c-0.76467,0.42733 -0.7255,-0.29282 -5.3065,-0.65449c-2.90633,-0.22967 -8.1417,-0.41835 -11.4037,-0.43968c-7.721,-0.05067 -8.38189,0.81744 -5.81389,4.67677c2.321,3.48833 4.99679,8.94096 6.08746,12.21696c0.46,1.38167 1.19805,4.94108 1.68105,8.03975c0.963,6.18 2.31708,11.04627 3.43108,12.8576c2.55033,4.148 11.46093,10.72196 20.52326,15.10896c4.672,2.26167 5.85784,2.13948 6.14384,1.00815c0.12867,-0.51 0.57246,-4.2689 0.71979,-7.75223c0.217,-5.13033 0.33816,-6.48664 0.93083,-8.26364c0.97067,-2.91133 3.02171,-5.65002 6.23804,-8.21369c4.8,-3.826 18.55383,-10.11547 30.7615,-14.0678c9.624,-3.116 14.54724,-3.9621 23.20457,-3.96077c8.731,0.001 12.17562,0.85343 21.47462,5.32843c7.45767,3.589 9.40606,5.66691 10.63139,11.04624c0.94833,4.16267 2.5743,4.21053 4.5753,2.1212c3.74733,-3.91267 10.93285,-20.3519 12.18985,-27.81823c0.96333,-5.72067 -0.67962,-12.57345 -7.70162,-31.48445c-1.94533,-5.23867 -3.00821,-7.64699 -3.48854,-7.94399c-0.44433,-0.27467 -2.33304,0.43998 -2.34004,1.37731c-0.015,2.06233 -3.98304,8.11586 -5.46037,8.11586c-0.334,0 -3.64724,-3.35965 -8.23291,-7.86798c-11.74133,-11.54367 -17.8348,-16.91236 -23.3568,-20.62936c-5.33433,-3.59067 -18.38568,-8.27867 -26.42235,-9.48067c-3.33133,-0.49833 -16.29872,-0.7197 -20.06039,-0.33503z" data-paper-data="{&quot;wickUUID&quot;:&quot;71e0a95c-e0f3-45e3-8bd9-3fc0a46b49e6&quot;,&quot;wickType&quot;:&quot;path&quot;}" fill="#00ffff"/><path d="M321.11493,42.17058c-4.92833,0.50367 -10.24055,1.34627 -16.30955,2.55894c-17.52733,3.50233 -29.32459,8.85984 -41.89859,19.02951c-5.13367,4.152 -5.4295,4.80535 -3.50183,5.63202c0.87367,0.37433 3.09709,1.51963 4.40909,1.78996c2.876,0.59267 3.89368,1.23007 8.83601,5.7214c6.00767,5.459 9.47835,9.93015 15.28302,19.69982c5.45067,9.17367 6.25405,11.42213 4.17638,12.58313c-0.76467,0.42733 -0.7255,-0.29282 -5.3065,-0.65449c-2.90633,-0.22967 -8.1417,-0.41835 -11.4037,-0.43968c-7.721,-0.05067 -8.38189,0.81744 -5.81389,4.67677c2.321,3.48833 4.99679,8.94096 6.08746,12.21696c0.46,1.38167 1.19805,4.94108 1.68105,8.03975c0.963,6.18 2.31708,11.04627 3.43108,12.8576c2.55033,4.148 11.46093,10.72196 20.52326,15.10896c4.672,2.26167 5.85784,2.13948 6.14384,1.00815c0.12867,-0.51 0.57246,-4.2689 0.71979,-7.75223c0.217,-5.13033 0.33816,-6.48664 0.93083,-8.26364c0.97067,-2.91133 3.02171,-5.65002 6.23804,-8.21369c4.8,-3.826 18.55383,-10.11547 30.7615,-14.0678c9.624,-3.116 14.54724,-3.9621 23.20457,-3.96077c8.731,0.001 12.17562,0.85343 21.47462,5.32843c7.45767,3.589 9.40606,5.66691 10.63139,11.04624c0.94833,4.16267 2.5743,4.21053 4.5753,2.1212c3.74733,-3.91267 10.93285,-20.3519 12.18985,-27.81823c0.96333,-5.72067 -0.67962,-12.57345 -7.70162,-31.48445c-1.94533,-5.23867 -3.00821,-7.64699 -3.48854,-7.94399c-0.44433,-0.27467 -2.33304,0.43998 -2.34004,1.37731c-0.015,2.06233 -3.98304,8.11586 -5.46037,8.11586c-0.334,0 -3.64724,-3.35965 -8.23291,-7.86798c-11.74133,-11.54367 -17.8348,-16.91236 -23.3568,-20.62936c-5.33433,-3.59067 -18.38568,-8.27867 -26.42235,-9.48067c-3.33133,-0.49833 -16.29872,-0.7197 -20.06039,-0.33503z" data-paper-data="{&quot;wickUUID&quot;:&quot;121c0083-e7e6-4d80-a566-9814d140edf5&quot;,&quot;wickType&quot;:&quot;path&quot;}" fill="#0080ff"/><path d="M305.87425,39.6776c-6.713,1.301 -15.94,3.73 -20.503,5.397c-9.398,3.431 -21.756,11.139 -29.371,18.319c-6.636,6.256 -6.451,8.069 1.101,10.83c2.506,0.916 5.266,1.666 6.132,1.666c2.898,0 13.871,11.659 18.737,19.908c2.499,4.236 4.544,7.931 4.544,8.211c0,0.28 -3.765,0.262 -8.367,-0.04c-8.591,-0.563 -12.112,0.103 -15.413,2.914c-2.038,1.735 -1.853,3.016 0.896,6.225c5.291,6.173 7.742,12.075 9.479,22.825c1.023,6.332 2.239,11.046 3.184,12.347c5.638,7.755 24.576,19.36 31.592,19.36c4.592,0 4.565,0.067 4.908,-12.257c0.219,-7.868 0.402,-8.666 2.58,-11.253c3.555,-4.22 7.626,-6.658 18.699,-11.195c17.941,-7.35 22.196,-8.416 34.091,-8.537l10.522,-0.108l7.493,3.378c8.416,3.794 10.425,5.859 11.548,11.873c1.005,5.375 3.242,7.685 6.375,6.583c3.003,-1.056 9.52,-9.241 11.471,-14.408c0.843,-2.232 1.929,-4.788 2.414,-5.679c0.484,-0.891 1.907,-4.895 3.162,-8.897c1.996,-6.368 2.2,-8.006 1.63,-13.111c-0.358,-3.208 -1.834,-9.053 -3.278,-12.988c-1.445,-3.935 -3.387,-9.553 -4.315,-12.485c-2.442,-7.71 -5.399,-12.861 -8.9,-15.503c-5.6,-4.225 -9.787,-2.432 -7.44,3.186c2.871,6.87 0.689,9.516 -3.413,4.139c-2.93,-3.842 -19.394,-18.461 -24.994,-22.193c-5.71,-3.806 -19.831,-9.08 -27.139,-10.136c-10.658,-1.54 -24.101,-0.955 -37.425,1.629zM341.66125,43.1156c6.262,0.871 15.599,3.989 22.948,7.663c4.886,2.443 14.846,10.938 25.141,21.446c4.696,4.793 8.924,8.715 9.394,8.715c1.421,0 5.271,-5.12 5.785,-7.693c0.973,-4.865 1.817,-3.392 8.021,14.006c5.265,14.765 6.01,19.953 3.862,26.88c-4.506,14.533 -12.041,27.957 -14.022,24.982c-0.428,-0.642 -1.003,-2.573 -1.278,-4.29c-0.87,-5.444 -5.577,-8.841 -19.305,-13.937c-7.944,-2.948 -22.019,-2.276 -34.263,1.638c-14.887,4.758 -28.558,10.981 -33.471,15.236c-5.543,4.8 -6.916,8.218 -6.916,17.219c0,4.498 -0.343,7.609 -0.839,7.609c-1.85,0 -12.021,-5.36 -16.6,-8.748c-10.113,-7.485 -10.267,-7.779 -12.803,-24.614c-0.718,-4.768 -3.628,-11.218 -7.801,-17.295c-1.207,-1.756 -1.313,-2.404 -0.482,-2.93c1.17,-0.739 11.783,-0.639 19.295,0.183c7.412,0.81 7.339,-0.676 -0.692,-14.078c-5.32,-8.878 -7.945,-12.283 -13.593,-17.636c-4.605,-4.363 -7.669,-6.633 -8.952,-6.633c-1.074,0 -3.142,-0.5 -4.597,-1.112l-2.644,-1.112l4.021,-3.368c13.503,-11.313 25.47,-16.729 45.266,-20.486c13.764,-2.612 24.047,-3.102 34.525,-1.645z" data-paper-data="{&quot;wickUUID&quot;:&quot;cfcbd93a-ae10-4c5e-8da7-7befad66c255&quot;,&quot;wickType&quot;:&quot;path&quot;}" fill="#000000"/><path d="M381.6316,193.83325c-11.83,3.09 -13.832,3.382 -21.465,3.128c-7.806,-0.261 -8.417,-0.165 -8.417,1.318c0,1.265 1.406,2.031 6.734,3.668c3.704,1.138 7.392,2.408 8.196,2.821c2.418,1.242 8.332,0.852 13.689,-0.905c2.778,-0.911 8.46,-2.085 12.627,-2.61c9.966,-1.255 9.68,-1.121 9.68,-4.546c0,-3.631 -2.449,-6.351 -5.682,-6.311c-1.273,0.015 -8.186,1.562 -15.362,3.437z" data-paper-data="{&quot;wickUUID&quot;:&quot;09349f29-4b92-4e35-9335-630b17ea0c90&quot;,&quot;wickType&quot;:&quot;path&quot;}" fill="#000000"/><path d="M399.75005,139.8287c-0.762,1.234 0.243,9.796 1.634,13.922c1.896,5.62 3.03,18.232 2.444,27.175c-0.461,7.035 -0.327,8.714 0.832,10.368c2.268,3.237 1.764,7.112 -1.353,10.411c-2.416,2.556 -3.622,3.056 -10.312,4.269c-10.236,1.857 -31.037,3.139 -40.821,2.516c-7.613,-0.485 -8.474,-0.746 -18.098,-5.502c-14.094,-6.965 -15.863,-8.588 -18.623,-17.087c-1.232,-3.793 -2.66,-10.874 -3.174,-15.735c-0.911,-8.617 -0.987,-8.839 -3.039,-8.839h-2.103l0.197,8.375c0.155,6.623 0.724,10.013 2.718,16.208c1.388,4.308 3.16,8.806 3.939,9.995c2.008,3.064 9.754,8.112 20.289,13.221l9.052,4.39l19.862,-0.124c14.594,-0.09 21.404,-0.472 25.674,-1.439c3.196,-0.724 7.559,-1.536 9.696,-1.805c3.993,-0.503 6.931,-2.561 10.678,-7.478c2.182,-2.864 2.524,-9.396 0.679,-12.976c-0.835,-1.62 -1.175,-5.658 -1.183,-14.057c-0.011,-11.187 -0.444,-15.255 -2.555,-23.99c-0.503,-2.083 -1.214,-5.682 -1.58,-7.997c-0.539,-3.413 -1.008,-4.257 -2.48,-4.467c-0.998,-0.142 -2.066,0.149 -2.373,0.646z" data-paper-data="{&quot;wickUUID&quot;:&quot;3aea1b8c-99f2-4677-aca2-d13af35278d3&quot;,&quot;wickType&quot;:&quot;path&quot;}" fill="#000000"/><path d="M324.60281,147.15346c-0.579,0.234 -1.052,1.53 -1.052,2.88c0,2.94 -0.724,3.013 -6.426,0.65c-7.927,-3.285 -10.124,0.487 -2.356,4.044c5.651,2.587 10.82,3.422 12.508,2.021c2.002,-1.661 2.487,-5.749 0.959,-8.082c-1.38,-2.105 -1.766,-2.266 -3.633,-1.513z" data-paper-data="{&quot;wickUUID&quot;:&quot;e70a6a43-0601-45ab-937d-6529994250f0&quot;,&quot;wickType&quot;:&quot;path&quot;}" fill="#000000"/><path d="M321.58657,158.10021c-0.859,0.859 -0.667,5.244 0.31,7.07c0.94,1.756 3.731,2.193 4.637,0.727c0.307,-0.496 0.306,-2.58 -0.002,-4.63c-0.472,-3.152 -0.854,-3.728 -2.471,-3.728c-1.052,0 -2.165,0.252 -2.474,0.561z" data-paper-data="{&quot;wickUUID&quot;:&quot;dd05832e-286d-418b-84b3-54d95cd2b73a&quot;,&quot;wickType&quot;:&quot;path&quot;}" fill="#000000"/><path d="M374.47632,139.4437c-8.453,4.129 -19.165,8.665 -23.681,10.029c-1.436,0.433 -1.904,0.114 -2.331,-1.588c-0.396,-1.578 -1.088,-2.13 -2.667,-2.13c-2.044,0 -2.122,0.184 -1.878,4.419c0.224,3.889 0.488,4.452 2.202,4.695c3.11,0.441 12.32,-2.725 27.608,-9.49c12.424,-5.498 14.215,-6.533 14.215,-8.218c0,-3.201 -3.434,-2.618 -13.468,2.283z" data-paper-data="{&quot;wickUUID&quot;:&quot;02c153dd-dca4-40af-a350-04e017ed15b4&quot;,&quot;wickType&quot;:&quot;path&quot;}" fill="#000000"/><path d="M351.8901,154.7327c-0.309,0.309 -0.561,1.559 -0.561,2.778c0,1.219 -0.397,2.614 -0.883,3.099c-1.188,1.189 0.631,5.154 2.662,5.798c4.1,1.301 6.71,-3.34 5.031,-8.945c-0.841,-2.806 -1.332,-3.291 -3.337,-3.291c-1.293,0 -2.604,0.253 -2.912,0.561z" data-paper-data="{&quot;wickUUID&quot;:&quot;a446cda3-4078-49ea-a664-ccd6e0290734&quot;,&quot;wickType&quot;:&quot;path&quot;}" fill="#000000"/><path d="M398.2791,257.29147c-2.316,1.573 -3.972,3.936 -6.526,9.312c-4.619,9.722 -5.521,13.373 -4.351,17.619c0.51,1.852 1.917,4.43 3.127,5.729c3.917,4.204 7.2,1.25 3.846,-3.461c-2.888,-4.055 -2.913,-6.011 -0.162,-12.682c4.665,-11.312 8.278,-15.13 13.159,-13.905c2.111,0.53 7.681,5.615 10.132,9.251c1.746,2.588 0.026,13.582 -3.135,20.043c-1.339,2.735 -2.426,5.766 -2.417,6.734c0.038,3.731 4.143,13.288 7.186,16.73c5.749,6.501 7.036,7.335 11.32,7.335c7.756,0 11.78,-3.082 11.78,-9.022c0,-2.457 -3.646,-8.654 -5.092,-8.654c-0.452,0 -1.732,-2.058 -2.844,-4.573c-1.968,-4.449 -6.635,-8.905 -10.668,-10.185c-1.877,-0.596 -2.097,-4.12 -0.724,-11.551c0.715,-3.865 0.63,-5.32 -0.46,-7.941c-1.5,-3.603 -7.235,-9.88 -10.684,-11.693c-3.702,-1.947 -9.895,-1.527 -13.487,0.914zM423.6451,293.63047c4.48,2.613 5.676,3.978 6.442,7.343c0.305,1.342 2.028,3.884 3.828,5.648c3.837,3.762 4.218,6.324 1.113,7.504c-4.626,1.759 -6.506,1.071 -10.981,-4.019c-5.082,-5.781 -7.924,-13.221 -6.362,-16.651c1.176,-2.579 1.244,-2.577 5.96,0.175z" data-paper-data="{&quot;wickUUID&quot;:&quot;1aebf896-946c-4425-a001-6b64b1f70149&quot;,&quot;wickType&quot;:&quot;path&quot;}" fill="#000000"/><path d="M426.82617,300.66011c-2.469,1.942 -2.995,4.8 -1.024,5.556c0.683,0.262 2.597,-0.362 4.255,-1.386c2.176,-1.345 2.942,-2.361 2.757,-3.659c-0.351,-2.456 -3.206,-2.699 -5.988,-0.511z" data-paper-data="{&quot;wickUUID&quot;:&quot;8c82f810-d170-433c-90cb-ba58cd983287&quot;,&quot;wickType&quot;:&quot;path&quot;}" fill="#000000"/><path d="M388.08488,273.41983c-1.092,1.092 -0.529,4.107 1.337,7.161c3.74,6.12 9.905,9.544 19.749,10.967c5.194,0.751 7.215,0.765 7.926,0.055c1.982,-1.983 0.035,-3.338 -6.252,-4.352c-8.527,-1.376 -14.582,-4.986 -17.429,-10.391c-1.918,-3.644 -3.869,-4.902 -5.331,-3.44z" data-paper-data="{&quot;wickUUID&quot;:&quot;3488d7c4-58a4-485f-a98e-7903859eae80&quot;,&quot;wickType&quot;:&quot;path&quot;}" fill="#000000"/><path d="M387.31338,286.3941c-2.067,1.204 -1.833,4.063 0.631,7.689c1.158,1.704 2.105,3.618 2.105,4.255c0,2.914 2.944,9.288 5.75,12.449c2.605,2.935 3.722,3.55 7.144,3.935c3.289,0.37 4.516,0.116 6.494,-1.347l2.438,-1.803l3.607,2.516c4.504,3.14 12.913,4.497 13.785,2.224c0.819,-2.133 -1.017,-3.651 -5.165,-4.273c-2.676,-0.402 -4.882,-1.528 -7.599,-3.88c-2.12,-1.834 -4.714,-3.314 -5.811,-3.314c-1.426,0 -2.87,-1.238 -5.153,-4.419c-4.046,-5.638 -13.669,-14.949 -15.416,-14.915c-0.735,0.014 -2,0.411 -2.81,0.883zM396.78338,298.1611c0,0.436 -0.379,0.792 -0.842,0.792c-0.463,0 -0.842,-0.591 -0.842,-1.312c0,-0.722 0.379,-1.078 0.842,-0.792c0.463,0.286 0.842,0.876 0.842,1.312zM402.25438,306.5291c2.783,2.849 3.027,3.367 1.591,3.367c-1.815,0 -6.22,-4.057 -6.22,-5.728c0,-1.744 1.238,-1.112 4.629,2.361z" data-paper-data="{&quot;wickUUID&quot;:&quot;8aeddcb8-0d16-4b65-827d-c918e936184d&quot;,&quot;wickType&quot;:&quot;path&quot;}" fill="#000000"/><path d="M386.19737,227.78004c-0.299,1.192 -0.139,5.857 0.357,10.366c0.496,4.509 1.125,12.743 1.398,18.299c0.627,12.737 0.939,14.053 3.252,13.723c1.749,-0.249 1.785,-0.552 1.541,-12.882c-0.137,-6.944 -0.716,-16.793 -1.286,-21.885c-0.952,-8.503 -1.187,-9.281 -2.877,-9.524c-1.383,-0.2 -1.976,0.273 -2.385,1.903z" data-paper-data="{&quot;wickUUID&quot;:&quot;b92f9c77-c70d-4d5f-adc5-d688449c5ecb&quot;,&quot;wickType&quot;:&quot;path&quot;}" fill="#000000"/><path d="M389.62838,209.13127c-2.37,1.338 -3.443,2.548 -3.623,4.087c-0.366,3.124 1.791,3.579 5.389,1.137l3.026,-2.054l3.133,1.598c3.55,1.812 8.543,7.014 10.66,11.109c0.784,1.516 3.408,7.694 5.831,13.729c2.423,6.035 6.311,14.669 8.64,19.186c5.67,10.995 7.269,18.302 6.723,30.718l-0.416,9.47h1.964c3.225,0 3.883,-2.543 3.452,-13.331c-0.536,-13.4 -1.546,-17.461 -7.259,-29.177c-2.708,-5.556 -6.728,-14.647 -8.932,-20.202c-5.353,-13.491 -6.633,-15.92 -10.727,-20.361c-3.513,-3.812 -10.219,-7.85 -12.993,-7.824c-0.826,0.007 -3.016,0.869 -4.868,1.915z" data-paper-data="{&quot;wickUUID&quot;:&quot;e646becd-69b6-4692-a11d-905e7ecc7368&quot;,&quot;wickType&quot;:&quot;path&quot;}" fill="#000000"/><path d="M305.29703,235.31054c-5.317,1.811 -9.674,5.168 -11.587,8.929c-0.588,1.157 -1.326,4.369 -1.638,7.138c-0.312,2.769 -1.142,5.909 -1.843,6.979c-0.701,1.07 -2.248,3.729 -3.439,5.909c-1.191,2.18 -2.684,4.911 -3.32,6.068c-2.205,4.018 -1.483,6.281 3.764,11.795l4.929,5.18l4.12,-0.6c2.266,-0.33 5.256,-1.166 6.645,-1.858c3.642,-1.815 9.495,-6.723 10.051,-8.428c0.261,-0.802 1.966,-2.172 3.787,-3.042c5.598,-2.675 11.888,-11.943 11.771,-17.344c-0.103,-4.761 -1.779,-8.19 -6.69,-13.684c-9.345,-10.454 -8.096,-9.922 -16.55,-7.042zM312.60803,239.93754c0,0.412 2.058,2.841 4.573,5.396c7.856,7.982 7.962,12.507 0.486,20.68c-2.913,3.186 -3.673,3.598 -5.684,3.082c-3.991,-1.022 -9.433,-1.481 -11.481,-0.966c-1.449,0.363 -2.676,2.081 -4.669,6.537l-2.702,6.044l-3.098,-3.102c-3.02,-3.024 -3.065,-3.161 -1.775,-5.399c0.728,-1.263 1.856,-3.244 2.507,-4.401c0.65,-1.158 2.207,-3.809 3.458,-5.892c1.49,-2.48 2.483,-5.644 2.876,-9.158c0.747,-6.693 3.661,-10.453 9.493,-12.248c4.687,-1.443 6.016,-1.57 6.016,-0.573zM307.44403,273.14254c0.712,0.858 0.486,1.533 -0.949,2.835c-2.475,2.246 -6.478,4.773 -6.897,4.354c-0.183,-0.183 0.446,-2.128 1.396,-4.323c1.327,-3.066 2.167,-3.991 3.622,-3.991c1.041,0 2.314,0.506 2.828,1.125z" data-paper-data="{&quot;wickUUID&quot;:&quot;09eaca5a-6249-4d55-83be-5cf4627a8090&quot;,&quot;wickType&quot;:&quot;path&quot;}" fill="#000000"/><path d="M317.2378,248.99356c-6.323,2.236 -12.85,11.359 -13.278,18.561c-0.172,2.895 0.008,3.2 1.894,3.2c1.586,0 2.265,-0.604 2.842,-2.525c2.546,-8.481 5.961,-12.828 11.24,-14.31c3.363,-0.943 4.993,-2.861 4.196,-4.936c-0.621,-1.62 -2.292,-1.618 -6.894,0.01z" data-paper-data="{&quot;wickUUID&quot;:&quot;04c9d1c3-b5f1-4227-bdcc-13d7913d4984&quot;,&quot;wickType&quot;:&quot;path&quot;}" fill="#000000"/><path d="M326.6663,250.66356c-1.148,1.148 -0.564,3.994 1.563,7.625c1.206,2.057 1.945,4.333 1.679,5.172c-0.723,2.276 -13.787,13.607 -15.689,13.607c-0.919,0 -2.601,-0.61 -3.739,-1.355c-4.309,-2.824 -6.491,1.434 -2.388,4.661c2.618,2.06 7.737,2.311 11.081,0.543c1.25,-0.661 5.2,-4.164 8.777,-7.786c8.092,-8.194 8.497,-9.666 4.703,-17.098c-2.585,-5.062 -4.54,-6.816 -5.987,-5.369z" data-paper-data="{&quot;wickUUID&quot;:&quot;e37d70da-4858-435a-8008-252ab283df3c&quot;,&quot;wickType&quot;:&quot;path&quot;}" fill="#000000"/><path d="M318.2193,267.52758c-1.807,1.807 2.44,7.857 5.515,7.857c2.818,0 2.711,-2.485 -0.237,-5.527c-2.745,-2.832 -4.154,-3.454 -5.278,-2.33z" data-paper-data="{&quot;wickUUID&quot;:&quot;7092c231-0e77-40cf-90bd-a79dbcbefff2&quot;,&quot;wickType&quot;:&quot;path&quot;}" fill="#000000"/><path d="M336.36779,209.09602c-0.471,0.579 -1.482,2.568 -2.246,4.419c-0.764,1.852 -3.157,5.167 -5.317,7.366l-3.928,3.998h-6.823c-7.269,0 -14.225,1.621 -18.703,4.358c-2.525,1.542 -2.736,2.012 -2.736,6.072c0,4.953 1.424,7.587 3.844,7.107c1.401,-0.278 1.588,-0.922 1.347,-4.635l-0.28,-4.311l4.731,-1.77c3.447,-1.29 6.675,-1.77 11.896,-1.77c8.307,0 10.339,-0.813 15.188,-6.074c3.889,-4.219 8.121,-12.537 7.372,-14.49c-0.607,-1.583 -3.147,-1.741 -4.345,-0.27z" data-paper-data="{&quot;wickUUID&quot;:&quot;43ee6bf3-f955-47b6-8ca3-61068585dcac&quot;,&quot;wickType&quot;:&quot;path&quot;}" fill="#000000"/><path d="M340.10558,220.38953c-0.845,0.844 -0.676,8.109 0.378,16.328c0.861,6.714 0.781,7.875 -0.952,13.946c-2.942,10.306 -5.226,16.529 -6.93,18.884c-1.467,2.027 -1.486,2.524 -0.317,8.13c2.101,10.077 4.832,13.495 14.414,18.038c4.333,2.054 6.068,2.392 12.206,2.379c8.673,-0.019 29.423,-3.029 32.043,-4.648c1.215,-0.751 0.927,-3.751 -0.411,-4.264c-0.658,-0.253 -5.008,0.33 -9.666,1.296c-10.947,2.268 -24.982,3.162 -28.799,1.834c-1.566,-0.544 -4.84,-2.196 -7.274,-3.67c-3.755,-2.274 -4.682,-3.361 -6.103,-7.159c-2.245,-6.001 -2.153,-7.119 1.27,-15.359c1.621,-3.9 2.956,-7.674 2.968,-8.385c0.012,-0.712 0.951,-4.098 2.087,-7.524c2.022,-6.101 2.039,-6.377 0.82,-13.368c-0.685,-3.926 -1.245,-8.907 -1.245,-11.069c0,-3.838 -1.055,-5.95 -2.974,-5.95c-0.525,0 -1.207,0.253 -1.515,0.561z" data-paper-data="{&quot;wickUUID&quot;:&quot;a55dbf77-711b-4c05-ad1b-36f3c20c4242&quot;,&quot;wickType&quot;:&quot;path&quot;}" fill="#000000"/><path d="M370.95387,211.09352c-0.288,0.751 0.107,4.065 0.879,7.365c1.04,4.45 1.405,10.021 1.411,21.572c0.007,13.493 0.202,15.812 1.462,17.368c1.773,2.188 4.545,3.676 6.851,3.676c6.446,0 5.042,-17.397 -1.483,-18.367c-1.73,-0.257 -1.809,-0.689 -1.809,-9.928c0,-9.343 -1.664,-19.53 -3.593,-22c-1.152,-1.474 -3.095,-1.31 -3.718,0.314zM380.40387,250.50552c0.666,1.594 0.964,3.541 0.663,4.327c-0.506,1.319 -0.633,1.311 -1.675,-0.114c-1.087,-1.486 -1.612,-7.112 -0.663,-7.112c0.255,0 1.009,1.304 1.675,2.899z" data-paper-data="{&quot;wickUUID&quot;:&quot;108d6193-cf81-4d4e-b0f3-1defc5b7ccf8&quot;,&quot;wickType&quot;:&quot;path&quot;}" fill="#000000"/><path d="M351.59135,245.7428c-4.71,2.994 -3.069,18.804 2.086,20.098c2.224,0.558 7.986,-0.889 10.869,-2.728c4.766,-3.042 2.384,-13.113 -3.854,-16.295c-3.466,-1.768 -7.299,-2.221 -9.101,-1.075zM359.23235,252.0258c1.906,1.715 2.566,3.507 2.294,6.23c-0.053,0.534 -1.324,1.398 -2.824,1.921c-3.451,1.203 -4.848,-0.364 -4.848,-5.436c0,-5.192 1.682,-6.041 5.378,-2.715z" data-paper-data="{&quot;wickUUID&quot;:&quot;b8c23585-b8b0-43ea-a7d9-55ba23921c0d&quot;,&quot;wickType&quot;:&quot;path&quot;}" fill="#000000"/><path d="M348.29009,209.93827c-1.158,2.143 -1.541,5.287 -1.768,14.52c-0.259,10.521 -0.077,12.461 1.694,18.098c1.564,4.975 2.327,6.313 3.601,6.313c2.189,0 2.573,-4.363 0.832,-9.472c-1.796,-5.271 -1.82,-21.534 -0.039,-25.798c2.35,-5.623 -1.498,-8.884 -4.32,-3.661z" data-paper-data="{&quot;wickUUID&quot;:&quot;15384f4b-298e-4510-9bcf-2897b162e53d&quot;,&quot;wickType&quot;:&quot;path&quot;}" fill="#000000"/><path d="M341.78858,233.01627c-0.308,0.308 -0.561,1.839 -0.561,3.4c0,1.562 -0.758,4.325 -1.683,6.14c-0.926,1.815 -1.684,4.049 -1.684,4.965c0,0.917 -1.536,3.441 -3.413,5.609c-3.643,4.21 -4.374,8.365 -1.47,8.365c1.872,0 8.966,-8.34 9.548,-11.224c0.249,-1.234 1.02,-3.343 1.715,-4.685c1.781,-3.445 2.419,-9.162 1.263,-11.322c-0.955,-1.784 -2.619,-2.344 -3.715,-1.248z" data-paper-data="{&quot;wickUUID&quot;:&quot;5015b51b-37e2-4895-a486-9000c9739335&quot;,&quot;wickType&quot;:&quot;path&quot;}" fill="#000000"/><path d="M320.18354,340.9859c-8.451,2.58 -13.262,7.501 -15.973,16.339c-1.016,3.312 -2.951,9.578 -4.301,13.924c-4.012,12.923 -2.927,19.931 3.612,23.347c3.724,1.945 18.582,2.551 28.721,1.172c11.144,-1.516 17.926,-3.804 21.083,-7.112c1.638,-1.717 4.7,-3.48 8.104,-4.666c6.415,-2.235 9.382,-5.155 11.796,-11.608c3.51,-9.381 2.33,-11.209 -11.801,-18.297c-5.196,-2.605 -11.407,-6.039 -13.803,-7.629c-6.347,-4.215 -12.872,-6.27 -19.631,-6.185c-3.136,0.04 -6.649,0.362 -7.807,0.715zM335.81354,346.4869c2.283,0.681 6.235,2.596 8.781,4.255c2.546,1.659 8.836,5.027 13.978,7.484c9.375,4.481 11.272,5.881 9.868,7.285c-0.778,0.778 -9.401,3.584 -28.476,9.267c-9.081,2.705 -12.217,3.263 -18.434,3.28c-6.422,0.017 -8.144,-0.299 -12.054,-2.212c-5.22,-2.554 -5.13,-1.295 -1.046,-14.639c2.493,-8.145 4.443,-11.001 9.179,-13.445c5.31,-2.74 11.772,-3.193 18.204,-1.275zM367.65854,372.0489c0.93,1.506 -4.254,5.897 -8.754,7.414c-2.546,0.859 -7.281,3.017 -10.522,4.797c-7.994,4.391 -11.869,5.477 -22.825,6.395c-8.334,0.699 -9.94,0.603 -14.7,-0.879c-6.293,-1.958 -8.355,-3.583 -8.338,-6.568c0.025,-4.242 1.035,-4.639 5.736,-2.257c3.806,1.929 5.284,2.175 12.952,2.154c7.584,-0.021 10.013,-0.43 19.599,-3.3c11.17,-3.344 20.555,-6.388 23.569,-7.645c2.234,-0.932 2.764,-0.95 3.283,-0.111z" data-paper-data="{&quot;wickUUID&quot;:&quot;4d480377-3a2f-4b50-b4a3-c438db53d24b&quot;,&quot;wickType&quot;:&quot;path&quot;}" fill="#000000"/><path d="M315.61456,331.42089c-1.701,1.701 -1.704,7.018 -0.005,9.444c2.203,3.145 7.326,5.226 12.865,5.226c6.308,0 8.463,1.559 8.86,6.408c0.364,4.447 1.139,5.633 3.313,5.064c0.965,-0.252 2.279,-0.024 2.919,0.508c0.879,0.729 1.561,0.718 2.78,-0.043c1.235,-0.771 1.985,-0.777 3.187,-0.027c0.865,0.54 2.234,0.728 3.042,0.418c1.464,-0.562 1.474,-2.377 0.034,-5.804c-0.53,-1.26 -0.135,-1.473 2.724,-1.473c4.804,0 7.78,-2.556 7.78,-6.682c0,-4.421 -2.636,-7.628 -6.269,-7.628c-3.964,0 -9.336,2.082 -12.853,4.981l-3.027,2.495l-3.834,-2.638c-2.108,-1.451 -5.174,-3.84 -6.813,-5.31c-3.483,-3.125 -9.357,-6.262 -11.724,-6.262c-0.911,0 -2.252,0.595 -2.979,1.323zM322.54256,337.16689c2.49,1.287 5.937,4.724 4.716,4.702c-1.395,-0.026 -7.36,-3.759 -7.711,-4.827c-0.445,-1.352 0.189,-1.326 2.995,0.125zM357.89656,344.08789c0.296,2.073 -1.617,2.816 -7.302,2.834c-3.329,0.01 -3.57,-0.122 -2.526,-1.381c1.516,-1.826 5.768,-3.676 7.89,-3.431c0.992,0.114 1.788,0.926 1.938,1.978z" data-paper-data="{&quot;wickUUID&quot;:&quot;288ff7f1-bc05-4452-a162-771417659479&quot;,&quot;wickType&quot;:&quot;path&quot;}" fill="#000000"/><path d="M387.27909,291.9026c-0.328,0.329 -0.597,1.262 -0.597,2.076c0,0.813 -1.032,2.705 -2.293,4.204c-3.151,3.744 -5.851,12.748 -7.425,24.76c-0.728,5.556 -1.708,11.806 -2.178,13.889c-0.47,2.084 -1.185,6.941 -1.589,10.794c-0.428,4.087 -1.489,8.565 -2.546,10.749c-2.082,4.301 -1.693,6.478 1.086,6.084c2.536,-0.36 4.787,-5.12 5.811,-12.285c0.446,-3.114 1.357,-9.071 2.025,-13.237c0.669,-4.167 1.601,-10.985 2.072,-15.152c1.132,-10.019 3.863,-18.534 7.357,-22.934c3.337,-4.203 3.633,-8.863 0.592,-9.298c-0.945,-0.136 -1.987,0.022 -2.315,0.35z" data-paper-data="{&quot;wickUUID&quot;:&quot;115caa7a-72b2-4641-a200-46e15e6e5eba&quot;,&quot;wickType&quot;:&quot;path&quot;}" fill="#000000"/><path d="M354.29934,305.4766c-0.318,0.81 -1.109,4.469 -1.758,8.13c-0.856,4.825 -2.088,8.184 -4.476,12.206c-4.254,7.164 -5.334,10.733 -5.467,18.075c-0.1,5.542 0.029,6.011 1.714,6.251c2.114,0.301 2.443,-0.518 3.257,-8.105c0.367,-3.418 1.475,-7.028 3.1,-10.101c1.391,-2.629 3.235,-6.107 4.098,-7.727c1.517,-2.849 4.137,-14.442 4.137,-18.308c0,-1.437 -0.487,-1.894 -2.014,-1.894c-1.138,0 -2.266,0.641 -2.591,1.473z" data-paper-data="{&quot;wickUUID&quot;:&quot;a7643224-f5d4-4244-8498-139a7dd26903&quot;,&quot;wickType&quot;:&quot;path&quot;}" fill="#000000"/><path d="M331.72682,287.74735c-1.111,1.765 -3.657,5.794 -5.658,8.953c-3.288,5.191 -5.885,12.154 -5.885,15.779c0,0.756 1.131,2.852 2.512,4.657c4.658,6.084 9.184,12.941 10.916,16.54c2.642,5.489 6.467,10.31 8.178,10.31c2.479,0 2.423,-3.954 -0.1,-6.951c-1.183,-1.407 -2.822,-4.017 -3.643,-5.8c-2.045,-4.448 -5.694,-10.06 -9.588,-14.745c-3.215,-3.87 -3.25,-3.988 -2.365,-7.934c0.493,-2.203 2.14,-5.739 3.66,-7.857c6.903,-9.624 8.819,-15.242 5.418,-15.89c-0.905,-0.172 -2.164,0.901 -3.445,2.938z" data-paper-data="{&quot;wickUUID&quot;:&quot;fa75cda7-9532-43f4-a75b-54fb4941db45&quot;,&quot;wickType&quot;:&quot;path&quot;}" fill="#000000"/><path d="M379.10609,324.95863c-1.514,0.421 -2.104,1.165 -2.104,2.652c0,2.007 0.156,2.059 5.476,1.82c5.369,-0.241 5.536,-0.183 8.516,2.946c3.641,3.823 4.947,7.37 4.947,13.436c0,3.332 -0.535,5.369 -2.037,7.748c-2.858,4.527 -8.745,9.366 -11.395,9.366c-2.578,0 -5.928,-2.134 -5.928,-3.776c0,-1.739 -2.406,-3.793 -3.812,-3.254c-1.812,0.696 -1.538,5.58 0.456,8.115c2.184,2.776 9.082,5.152 11.86,4.084c4.005,-1.54 10.744,-7.781 13.309,-12.325c2.018,-3.576 2.598,-5.623 2.598,-9.171c0,-7.184 -2.664,-14.459 -6.862,-18.736c-3.414,-3.479 -3.818,-3.654 -8.255,-3.574c-2.565,0.046 -5.611,0.347 -6.769,0.669z" data-paper-data="{&quot;wickUUID&quot;:&quot;b96860a2-714e-4a4b-aac3-ab560e094cac&quot;,&quot;wickType&quot;:&quot;path&quot;}" fill="#000000"/><path d="M378.53337,326.40339c-0.709,1.848 1.678,5.652 6.113,9.74c5.38,4.959 6.814,11.668 4.043,18.923c-0.933,2.443 -1.923,3.64 -3.156,3.816c-1.288,0.183 -1.797,0.853 -1.797,2.36c0,1.681 0.475,2.159 2.365,2.376c3.126,0.358 4.559,-0.964 6.983,-6.445c3.785,-8.559 2.048,-17.271 -4.952,-24.838c-2.418,-2.615 -4.885,-5.324 -5.482,-6.021c-1.422,-1.66 -3.463,-1.616 -4.117,0.089z" data-paper-data="{&quot;wickUUID&quot;:&quot;77dd213a-fdaf-4a48-b3de-f518e544bc0e&quot;,&quot;wickType&quot;:&quot;path&quot;}" fill="#000000"/><path d="M417.78259,290.78723c-0.708,0.431 -1.268,1.32 -1.27,2.016c-0.002,0.811 0.521,2.083 1.213,2.952c0.346,0.433 1.451,1.839 2.458,3.125c1.006,1.285 2.507,3.126 3.334,4.09c2.258,2.633 2.653,3.16 3.932,5.258c1.136,1.863 2.381,3.722 3.568,5.329c0.314,0.424 0.57,0.875 0.57,1.002c0,0.411 1.053,1.443 1.685,1.652c0.339,0.111 0.889,0.152 1.221,0.09c0.8,-0.151 1.776,-1.138 1.928,-1.952c0.217,-1.152 -0.17,-1.932 -2.915,-5.888c-0.824,-1.189 -1.967,-2.933 -2.54,-3.877c-0.572,-0.944 -1.93,-2.745 -3.018,-4.003c-1.088,-1.258 -2.464,-2.931 -3.057,-3.718c-0.594,-0.787 -1.55,-1.994 -2.123,-2.683c-0.574,-0.689 -1.25,-1.633 -1.502,-2.098c-0.829,-1.527 -2.243,-2.052 -3.484,-1.295z" data-paper-data="{&quot;wickUUID&quot;:&quot;58b8846b-5ce8-48e4-9763-d808344db908&quot;,&quot;wickType&quot;:&quot;path&quot;}" fill="#000000"/></g><g fill="none" fill-rule="nonzero" stroke="none" stroke-width="1" stroke-linecap="butt" stroke-linejoin="miter" stroke-miterlimit="10" stroke-dasharray="" stroke-dashoffset="0" font-family="sans-serif" font-weight="normal" font-size="12" text-anchor="start" style="mix-blend-mode: normal"/><g id="wick_project_gui" fill="none" fill-rule="nonzero" stroke="none" stroke-width="1" stroke-linecap="butt" stroke-linejoin="miter" stroke-miterlimit="10" stroke-dasharray="" stroke-dashoffset="0" font-family="sans-serif" font-weight="normal" font-size="12" text-anchor="start" style="mix-blend-mode: normal"/></g></svg>